G04*
G04 #@! TF.GenerationSoftware,Altium Limited,Altium Designer,22.3.1 (43)*
G04*
G04 Layer_Color=32896*
%FSLAX24Y24*%
%MOIN*%
G70*
G04*
G04 #@! TF.SameCoordinates,61A4D5B3-3B2A-409B-9F35-3F3BF520A47B*
G04*
G04*
G04 #@! TF.FilePolarity,Positive*
G04*
G01*
G75*
%ADD10C,0.0079*%
%ADD11C,0.0100*%
%ADD16C,0.0080*%
%ADD68C,0.0098*%
%ADD69C,0.0070*%
%ADD70C,0.0050*%
G36*
X21020Y53800D02*
X17580D01*
Y56760D01*
X18140D01*
Y54440D01*
X19020D01*
Y56680D01*
X19580D01*
Y54440D01*
X20540D01*
Y56760D01*
X21020D01*
Y53800D01*
D02*
G37*
G36*
X17580Y53080D02*
X17740D01*
Y53000D01*
X17900D01*
Y52920D01*
X18060D01*
Y52840D01*
X18220D01*
Y52760D01*
X18380D01*
Y52680D01*
X18540D01*
Y52600D01*
X18700D01*
Y52520D01*
X18860D01*
Y52440D01*
X19020D01*
Y52360D01*
X19180D01*
Y52280D01*
X19260D01*
Y52200D01*
X19420D01*
Y52120D01*
X19660D01*
Y52040D01*
X19740D01*
Y51960D01*
X19900D01*
Y51880D01*
X20060D01*
Y51800D01*
X20220D01*
Y51720D01*
X20380D01*
Y51640D01*
X20540D01*
Y51560D01*
X20700D01*
Y51480D01*
X20860D01*
Y51400D01*
X21020D01*
Y50520D01*
X20860D01*
Y50440D01*
X20700D01*
Y50360D01*
X20540D01*
Y50280D01*
X20460D01*
Y50200D01*
X20220D01*
Y50120D01*
X20060D01*
Y50040D01*
X19900D01*
Y49960D01*
X19740D01*
Y49880D01*
X19660D01*
Y49800D01*
X19500D01*
Y49720D01*
X19340D01*
Y49640D01*
X19180D01*
Y49560D01*
X19020D01*
Y49480D01*
X18860D01*
Y49400D01*
X18700D01*
Y49320D01*
X18540D01*
Y49240D01*
X18380D01*
Y49160D01*
X18220D01*
Y49080D01*
X18060D01*
Y49000D01*
X17900D01*
Y48920D01*
X17740D01*
Y48840D01*
X17580D01*
Y49560D01*
X17740D01*
Y49640D01*
X17900D01*
Y49720D01*
X18060D01*
Y49800D01*
X18220D01*
Y49880D01*
X18380D01*
Y49960D01*
X18540D01*
Y50040D01*
X18700D01*
Y50120D01*
X18860D01*
Y50200D01*
X19020D01*
Y50280D01*
X19180D01*
Y50360D01*
X19340D01*
Y50440D01*
X19500D01*
Y50520D01*
X19740D01*
Y50600D01*
X19900D01*
Y50680D01*
X20060D01*
Y50760D01*
X20220D01*
Y50840D01*
X20380D01*
Y51000D01*
X20300D01*
Y51080D01*
X20140D01*
Y51160D01*
X19980D01*
Y51240D01*
X19820D01*
Y51320D01*
X19660D01*
Y51400D01*
X19500D01*
Y51480D01*
X19340D01*
Y51560D01*
X19180D01*
Y51640D01*
X19020D01*
Y51720D01*
X18860D01*
Y51800D01*
X18700D01*
Y51880D01*
X18540D01*
Y51960D01*
X18380D01*
Y52040D01*
X18220D01*
Y52120D01*
X18060D01*
Y52200D01*
X17900D01*
Y52280D01*
X17740D01*
Y52360D01*
X17580D01*
Y53080D01*
X17500D01*
Y53160D01*
X17580D01*
Y53080D01*
D02*
G37*
G36*
X26920Y49280D02*
X27000D01*
Y48800D01*
X26920D01*
Y48640D01*
X26840D01*
Y48800D01*
X26680D01*
Y48880D01*
X26280D01*
Y48800D01*
X26040D01*
Y48720D01*
X25880D01*
Y48640D01*
X25800D01*
Y48560D01*
X25640D01*
Y48480D01*
X25560D01*
Y48400D01*
X25400D01*
Y48320D01*
X25320D01*
Y48240D01*
X25240D01*
Y48160D01*
X25160D01*
Y48080D01*
X25080D01*
Y48000D01*
X24920D01*
Y48080D01*
X25000D01*
Y48160D01*
X25080D01*
Y48240D01*
X25160D01*
Y48320D01*
X25240D01*
Y48400D01*
X25320D01*
Y48480D01*
X25400D01*
Y48560D01*
X25480D01*
Y48640D01*
X25560D01*
Y48720D01*
X25640D01*
Y48800D01*
X25720D01*
Y48880D01*
X25800D01*
Y48960D01*
X25880D01*
Y49040D01*
X25960D01*
Y49120D01*
X26120D01*
Y49200D01*
X26200D01*
Y49280D01*
X26360D01*
Y49360D01*
X26440D01*
Y49440D01*
X26920D01*
Y49280D01*
D02*
G37*
G36*
X27560Y51440D02*
X27640D01*
Y51360D01*
X27720D01*
Y51280D01*
X27800D01*
Y51120D01*
X27880D01*
Y51040D01*
X27960D01*
Y50800D01*
X28040D01*
Y50320D01*
X28120D01*
Y48240D01*
X28200D01*
Y48000D01*
X28280D01*
Y47920D01*
X28200D01*
Y47680D01*
X28120D01*
Y47440D01*
X28040D01*
Y47200D01*
X27960D01*
Y47040D01*
X27880D01*
Y46880D01*
X27800D01*
Y46480D01*
X27720D01*
Y46000D01*
X27640D01*
Y45680D01*
X27720D01*
Y45280D01*
X27640D01*
Y45600D01*
X27560D01*
Y46560D01*
X27480D01*
Y46640D01*
X27400D01*
Y46720D01*
X27320D01*
Y46800D01*
X27160D01*
Y46880D01*
X26920D01*
Y46800D01*
X26760D01*
Y46720D01*
X26680D01*
Y46560D01*
X26760D01*
Y46480D01*
X26680D01*
Y46560D01*
X26440D01*
Y46480D01*
X26360D01*
Y46640D01*
X26440D01*
Y46720D01*
X26520D01*
Y46800D01*
X26600D01*
Y46880D01*
X26680D01*
Y46960D01*
X26840D01*
Y47040D01*
X27320D01*
Y46960D01*
X27400D01*
Y46880D01*
X27480D01*
Y46800D01*
X27720D01*
Y47200D01*
X27800D01*
Y47520D01*
X27880D01*
Y48240D01*
X27800D01*
Y48720D01*
X27720D01*
Y49120D01*
X27640D01*
Y49280D01*
X27560D01*
Y49440D01*
X27480D01*
Y49600D01*
X27400D01*
Y49680D01*
X27320D01*
Y49760D01*
X27240D01*
Y49840D01*
X27080D01*
Y49920D01*
X26440D01*
Y49840D01*
X26200D01*
Y49760D01*
X26040D01*
Y49680D01*
X25960D01*
Y49600D01*
X25800D01*
Y49520D01*
X25720D01*
Y49440D01*
X25640D01*
Y49360D01*
X25480D01*
Y49280D01*
X25400D01*
Y49200D01*
X25320D01*
Y49120D01*
X25240D01*
Y49040D01*
X25160D01*
Y48960D01*
X25080D01*
Y48880D01*
X25000D01*
Y48800D01*
X24920D01*
Y48720D01*
X24840D01*
Y48640D01*
X24760D01*
Y48560D01*
X24680D01*
Y48480D01*
X24600D01*
Y48400D01*
X24520D01*
Y48320D01*
X24440D01*
Y48240D01*
X24360D01*
Y48080D01*
X24280D01*
Y48000D01*
X24200D01*
Y47920D01*
X24120D01*
Y47840D01*
X24040D01*
Y47680D01*
X23960D01*
Y47600D01*
X23880D01*
Y47520D01*
X23800D01*
Y47360D01*
X23720D01*
Y47280D01*
X23640D01*
Y47200D01*
X23560D01*
Y47040D01*
X23480D01*
Y46960D01*
X23400D01*
Y46880D01*
X23320D01*
Y46720D01*
X23240D01*
Y46640D01*
X23160D01*
Y46480D01*
X23080D01*
Y46400D01*
X23000D01*
Y46240D01*
X22920D01*
Y46160D01*
X22840D01*
Y46000D01*
X22760D01*
Y45920D01*
X22680D01*
Y45760D01*
X22600D01*
Y45680D01*
X22520D01*
Y45520D01*
X22440D01*
Y45440D01*
X22360D01*
Y45280D01*
X22280D01*
Y45120D01*
X22200D01*
Y45040D01*
X22120D01*
Y45200D01*
X22200D01*
Y45360D01*
X22280D01*
Y45520D01*
X22360D01*
Y45680D01*
X22440D01*
Y45840D01*
X22520D01*
Y46000D01*
X22600D01*
Y46080D01*
X22680D01*
Y46240D01*
X22760D01*
Y46400D01*
X22840D01*
Y46560D01*
X22920D01*
Y46640D01*
X23000D01*
Y46800D01*
X23080D01*
Y46960D01*
X23160D01*
Y47040D01*
X23240D01*
Y47200D01*
X23320D01*
Y47360D01*
X23400D01*
Y47440D01*
X23480D01*
Y47600D01*
X23560D01*
Y47680D01*
X23640D01*
Y47840D01*
X23720D01*
Y47920D01*
X23800D01*
Y48080D01*
X23880D01*
Y48160D01*
X23960D01*
Y48320D01*
X24040D01*
Y48400D01*
X24120D01*
Y48560D01*
X24200D01*
Y48640D01*
X24280D01*
Y48800D01*
X24360D01*
Y48880D01*
X24440D01*
Y48960D01*
X24520D01*
Y49120D01*
X24600D01*
Y49200D01*
X24680D01*
Y49360D01*
X24760D01*
Y49440D01*
X24840D01*
Y49520D01*
X24920D01*
Y49600D01*
X25000D01*
Y49760D01*
X25080D01*
Y49840D01*
X25160D01*
Y49920D01*
X25240D01*
Y50000D01*
X25320D01*
Y50080D01*
X25400D01*
Y50240D01*
X25480D01*
Y50320D01*
X25560D01*
Y50400D01*
X25640D01*
Y50480D01*
X25720D01*
Y50560D01*
X25800D01*
Y50640D01*
X25880D01*
Y50720D01*
X25960D01*
Y50800D01*
X26040D01*
Y50880D01*
X26120D01*
Y50960D01*
X26280D01*
Y51040D01*
X26360D01*
Y51120D01*
X26440D01*
Y51200D01*
X26520D01*
Y51280D01*
X26680D01*
Y51360D01*
X26840D01*
Y51440D01*
X27080D01*
Y51520D01*
X27560D01*
Y51440D01*
D02*
G37*
G36*
X26920Y46400D02*
X27000D01*
Y46320D01*
X27080D01*
Y46240D01*
X27160D01*
Y45920D01*
X27080D01*
Y46160D01*
X27000D01*
Y46320D01*
X26920D01*
Y46400D01*
X26840D01*
Y46480D01*
X26920D01*
Y46400D01*
D02*
G37*
G36*
X24920Y46640D02*
X24840D01*
Y46560D01*
X24680D01*
Y46480D01*
X24520D01*
Y46400D01*
X24360D01*
Y46160D01*
X24600D01*
Y46080D01*
X24760D01*
Y46000D01*
X24840D01*
Y45920D01*
X24920D01*
Y45840D01*
X24840D01*
Y45920D01*
X24120D01*
Y45840D01*
X23960D01*
Y45760D01*
X23800D01*
Y45600D01*
X23720D01*
Y45520D01*
X23640D01*
Y45360D01*
X23800D01*
Y45280D01*
X23720D01*
Y45200D01*
X23640D01*
Y45120D01*
X23560D01*
Y44800D01*
X23720D01*
Y44720D01*
X23640D01*
Y44640D01*
X23560D01*
Y44560D01*
X23480D01*
Y44480D01*
X23400D01*
Y44400D01*
X23320D01*
Y44320D01*
X23240D01*
Y44160D01*
X23160D01*
Y44080D01*
X23080D01*
Y44000D01*
X23000D01*
Y43920D01*
X22920D01*
Y43840D01*
X22840D01*
Y43680D01*
X22760D01*
Y43600D01*
X22680D01*
Y43520D01*
X22600D01*
Y43360D01*
X22520D01*
Y43280D01*
X22440D01*
Y43120D01*
X22360D01*
Y42560D01*
X22520D01*
Y42840D01*
X22440D01*
Y43000D01*
X22520D01*
Y42920D01*
X22600D01*
Y43040D01*
X22680D01*
Y43200D01*
X22760D01*
Y43280D01*
X22840D01*
Y43440D01*
X22920D01*
Y43520D01*
X23080D01*
Y43600D01*
X23160D01*
Y43680D01*
X23320D01*
Y43760D01*
X24200D01*
Y43680D01*
X24440D01*
Y43600D01*
X24680D01*
Y43520D01*
X24760D01*
Y43440D01*
X24680D01*
Y43520D01*
X24440D01*
Y43600D01*
X23400D01*
Y43520D01*
X23240D01*
Y43440D01*
X23080D01*
Y43360D01*
X23000D01*
Y43280D01*
X22920D01*
Y43120D01*
X22840D01*
Y43040D01*
X22760D01*
Y42880D01*
X22680D01*
Y42800D01*
X22600D01*
Y42600D01*
X22840D01*
Y42520D01*
X22520D01*
Y42320D01*
X22360D01*
Y42280D01*
X22440D01*
Y42200D01*
X22360D01*
Y42280D01*
X22280D01*
Y42480D01*
Y43200D01*
X22360D01*
Y43360D01*
X22440D01*
Y43440D01*
X22520D01*
Y43600D01*
X22600D01*
Y43760D01*
X22680D01*
Y44000D01*
X22760D01*
Y44160D01*
X22840D01*
Y44400D01*
X22920D01*
Y44640D01*
X23000D01*
Y44720D01*
X22920D01*
Y44880D01*
X22840D01*
Y44960D01*
X22760D01*
Y45120D01*
X22840D01*
Y45200D01*
X22920D01*
Y45280D01*
X23000D01*
Y45360D01*
X23080D01*
Y45440D01*
X23160D01*
Y45600D01*
X23240D01*
Y45680D01*
X23320D01*
Y45760D01*
X23400D01*
Y45840D01*
X23480D01*
Y45920D01*
X23560D01*
Y46000D01*
X23640D01*
Y46080D01*
X23720D01*
Y46160D01*
X23800D01*
Y46240D01*
X23880D01*
Y46320D01*
X23960D01*
Y46400D01*
X24040D01*
Y46480D01*
X24120D01*
Y46560D01*
X24280D01*
Y46640D01*
X24680D01*
Y46720D01*
X24920D01*
Y46640D01*
D02*
G37*
G36*
X18860Y48200D02*
X19020D01*
Y48120D01*
X19180D01*
Y48040D01*
X19260D01*
Y47880D01*
X19340D01*
Y47800D01*
X19420D01*
Y47560D01*
X19500D01*
Y47320D01*
X19580D01*
Y46840D01*
X19660D01*
Y46280D01*
X19740D01*
Y46040D01*
X19820D01*
Y45880D01*
X19900D01*
Y45800D01*
X19980D01*
Y45720D01*
X20380D01*
Y45800D01*
X20460D01*
Y45880D01*
X20540D01*
Y46040D01*
X20620D01*
Y46200D01*
X20700D01*
Y47000D01*
X20620D01*
Y47240D01*
X20540D01*
Y47400D01*
X20460D01*
Y47480D01*
X20380D01*
Y47560D01*
X20300D01*
Y47640D01*
X20380D01*
Y47880D01*
X20460D01*
Y48040D01*
X20540D01*
Y48120D01*
X20620D01*
Y48040D01*
X20700D01*
Y47960D01*
X20780D01*
Y47880D01*
X20860D01*
Y47720D01*
X20940D01*
Y47640D01*
X21020D01*
Y47400D01*
X21100D01*
Y47080D01*
X21180D01*
Y46200D01*
X21100D01*
Y45880D01*
X21020D01*
Y45640D01*
X20940D01*
Y45480D01*
X20860D01*
Y45400D01*
X20780D01*
Y45320D01*
X20700D01*
Y45240D01*
X20620D01*
Y45160D01*
X20460D01*
Y45080D01*
X19820D01*
Y45160D01*
X19660D01*
Y45240D01*
X19580D01*
Y45320D01*
X19500D01*
Y45400D01*
X19420D01*
Y45560D01*
X19340D01*
Y45800D01*
X19260D01*
Y46120D01*
X19180D01*
Y46600D01*
X19100D01*
Y47160D01*
X19020D01*
Y47320D01*
X18940D01*
Y47480D01*
X18860D01*
Y47560D01*
X18700D01*
Y47640D01*
X18380D01*
Y47560D01*
X18220D01*
Y47400D01*
X18140D01*
Y47320D01*
X18060D01*
Y47160D01*
X17980D01*
Y46120D01*
X18060D01*
Y45880D01*
X18140D01*
Y45800D01*
X18220D01*
Y45640D01*
X18300D01*
Y45560D01*
X18380D01*
Y45480D01*
X18540D01*
Y45400D01*
X18460D01*
Y45240D01*
X18380D01*
Y45080D01*
X18300D01*
Y44920D01*
X18140D01*
Y45000D01*
X18060D01*
Y45080D01*
X17980D01*
Y45160D01*
X17900D01*
Y45240D01*
X17820D01*
Y45320D01*
X17740D01*
Y45480D01*
X17660D01*
Y45640D01*
X17580D01*
Y45880D01*
X17500D01*
Y47320D01*
X17580D01*
Y47560D01*
X17660D01*
Y47720D01*
X17740D01*
Y47880D01*
X17820D01*
Y47960D01*
X17900D01*
Y48040D01*
X17980D01*
Y48120D01*
X18060D01*
Y48200D01*
X18300D01*
Y48280D01*
X18860D01*
Y48200D01*
D02*
G37*
G36*
X21640Y44920D02*
X21560D01*
Y44760D01*
X21480D01*
Y44680D01*
X21400D01*
Y44840D01*
X21480D01*
Y45000D01*
X21560D01*
Y45080D01*
X21640D01*
Y44920D01*
D02*
G37*
G36*
X27000Y44400D02*
X27080D01*
Y43840D01*
X27160D01*
Y43760D01*
X27080D01*
Y43680D01*
X27000D01*
Y43600D01*
X26920D01*
Y43760D01*
X26680D01*
Y43840D01*
X26760D01*
Y44080D01*
X26840D01*
Y44320D01*
X26920D01*
Y44720D01*
X27000D01*
Y44400D01*
D02*
G37*
G36*
X26680Y43360D02*
X26760D01*
Y43280D01*
X26680D01*
Y43360D01*
X26600D01*
Y43520D01*
X26680D01*
Y43360D01*
D02*
G37*
G36*
X25320Y43120D02*
X25400D01*
Y43040D01*
X25320D01*
Y43120D01*
X25240D01*
Y43200D01*
X25320D01*
Y43120D01*
D02*
G37*
G36*
X24680Y43200D02*
X24840D01*
Y43120D01*
X24920D01*
Y43040D01*
X24840D01*
Y43120D01*
X24680D01*
Y43200D01*
X24520D01*
Y43280D01*
X24680D01*
Y43200D01*
D02*
G37*
G36*
X25080Y42960D02*
X25160D01*
Y42880D01*
X25240D01*
Y42800D01*
X25320D01*
Y42720D01*
X25240D01*
Y42800D01*
X25160D01*
Y42880D01*
X25080D01*
Y42960D01*
X25000D01*
Y43040D01*
X25080D01*
Y42960D01*
D02*
G37*
G36*
X23720Y43120D02*
X23640D01*
Y42960D01*
X23560D01*
Y42880D01*
X23480D01*
Y42800D01*
X23400D01*
Y42720D01*
X23480D01*
Y42560D01*
X23400D01*
Y42480D01*
X23320D01*
Y42640D01*
X23240D01*
Y42720D01*
X23160D01*
Y42960D01*
X23240D01*
Y43040D01*
X23320D01*
Y43120D01*
X23480D01*
Y43200D01*
X23720D01*
Y43120D01*
D02*
G37*
G36*
X27800Y44320D02*
X27720D01*
Y44160D01*
X27640D01*
Y44080D01*
X27560D01*
Y43920D01*
X27480D01*
Y43760D01*
X27400D01*
Y43520D01*
X27320D01*
Y43280D01*
X27240D01*
Y43040D01*
X27160D01*
Y42720D01*
X27080D01*
Y42480D01*
X27000D01*
Y42240D01*
X26920D01*
Y42560D01*
X27000D01*
Y42800D01*
X27080D01*
Y43120D01*
X27160D01*
Y43360D01*
X27240D01*
Y43600D01*
X27320D01*
Y43840D01*
X27400D01*
Y44000D01*
X27480D01*
Y44160D01*
X27560D01*
Y44320D01*
X27640D01*
Y44480D01*
X27720D01*
Y45200D01*
X27800D01*
Y44320D01*
D02*
G37*
G36*
X25400Y42080D02*
X25320D01*
Y42160D01*
X25240D01*
Y42240D01*
X25160D01*
Y42320D01*
X25320D01*
Y42400D01*
X25400D01*
Y42080D01*
D02*
G37*
G36*
X26920Y42000D02*
X26840D01*
Y41760D01*
X26760D01*
Y41600D01*
X26680D01*
Y42160D01*
X26840D01*
Y42240D01*
X26920D01*
Y42000D01*
D02*
G37*
G36*
X25320Y41280D02*
X25080D01*
Y41360D01*
X25320D01*
Y41280D01*
D02*
G37*
G36*
X26280Y41440D02*
X26360D01*
Y41120D01*
X26440D01*
Y40960D01*
X26360D01*
Y40880D01*
X26280D01*
Y40800D01*
X26200D01*
Y40720D01*
X26120D01*
Y40640D01*
X26040D01*
Y40560D01*
X25960D01*
Y40640D01*
X25880D01*
Y40720D01*
X25720D01*
Y40800D01*
X25640D01*
Y40880D01*
X25560D01*
Y40960D01*
X25480D01*
Y41120D01*
X25560D01*
Y40960D01*
X25640D01*
Y40880D01*
X25880D01*
Y40960D01*
X25960D01*
Y41280D01*
X25800D01*
Y41200D01*
X25720D01*
Y41360D01*
X25800D01*
Y41440D01*
X25960D01*
Y41520D01*
X26280D01*
Y41440D01*
D02*
G37*
G36*
X21020Y43160D02*
X20860D01*
Y43080D01*
X20780D01*
Y43000D01*
X20700D01*
Y42920D01*
X20620D01*
Y42840D01*
X20460D01*
Y42760D01*
X20380D01*
Y42680D01*
X20300D01*
Y42600D01*
X20220D01*
Y42520D01*
X20140D01*
Y42440D01*
X19980D01*
Y42360D01*
X19900D01*
Y42280D01*
X19820D01*
Y42200D01*
X19740D01*
Y42120D01*
X19660D01*
Y42040D01*
X19500D01*
Y41880D01*
X19580D01*
Y41800D01*
X19660D01*
Y41720D01*
X19820D01*
Y41640D01*
X19900D01*
Y41560D01*
X19980D01*
Y41480D01*
X20060D01*
Y41400D01*
X20220D01*
Y41320D01*
X20300D01*
Y41240D01*
X20380D01*
Y41160D01*
X20460D01*
Y41080D01*
X20540D01*
Y41000D01*
X20700D01*
Y40920D01*
X20780D01*
Y40840D01*
X20860D01*
Y40760D01*
X20940D01*
Y40680D01*
X21020D01*
Y39800D01*
X17580D01*
Y40520D01*
X19980D01*
Y40440D01*
X20140D01*
Y40680D01*
X19980D01*
Y40760D01*
X19900D01*
Y40840D01*
X19820D01*
Y40920D01*
X19740D01*
Y41000D01*
X19580D01*
Y41080D01*
X19500D01*
Y41160D01*
X19420D01*
Y41240D01*
X19340D01*
Y41320D01*
X19260D01*
Y41400D01*
X19100D01*
Y41480D01*
X19020D01*
Y41560D01*
X18940D01*
Y41640D01*
X18860D01*
Y41720D01*
X18780D01*
Y41800D01*
X18620D01*
Y42040D01*
X18700D01*
Y42120D01*
X18780D01*
Y42200D01*
X18940D01*
Y42280D01*
X19020D01*
Y42360D01*
X19100D01*
Y42440D01*
X19180D01*
Y42520D01*
X19260D01*
Y42600D01*
X19340D01*
Y42680D01*
X19500D01*
Y42760D01*
X19580D01*
Y42840D01*
X19660D01*
Y42920D01*
X19740D01*
Y43000D01*
X19820D01*
Y43080D01*
X19900D01*
Y43160D01*
X20060D01*
Y43240D01*
X20140D01*
Y43400D01*
X17500D01*
Y43480D01*
X17580D01*
Y44040D01*
X21020D01*
Y43160D01*
D02*
G37*
G36*
Y38120D02*
X18780D01*
Y38040D01*
X18540D01*
Y37960D01*
X18380D01*
Y37880D01*
X18300D01*
Y37800D01*
X18220D01*
Y37720D01*
X18140D01*
Y37560D01*
X18060D01*
Y37400D01*
X17980D01*
Y36680D01*
X18060D01*
Y36440D01*
X18140D01*
Y36280D01*
X18220D01*
Y36200D01*
X18300D01*
Y36120D01*
X18460D01*
Y36040D01*
X18540D01*
Y35960D01*
X21020D01*
Y35240D01*
X18860D01*
Y35320D01*
X18460D01*
Y35400D01*
X18300D01*
Y35480D01*
X18140D01*
Y35560D01*
X18060D01*
Y35640D01*
X17980D01*
Y35720D01*
X17900D01*
Y35800D01*
X17820D01*
Y35880D01*
X17740D01*
Y36040D01*
X17660D01*
Y36200D01*
X17580D01*
Y36440D01*
X17500D01*
Y37560D01*
X17580D01*
Y37800D01*
X17660D01*
Y38040D01*
X17740D01*
Y38120D01*
X17820D01*
Y38280D01*
X17900D01*
Y38360D01*
X17980D01*
Y38440D01*
X18140D01*
Y38520D01*
X18220D01*
Y38600D01*
X18460D01*
Y38680D01*
X18700D01*
Y38760D01*
X21020D01*
Y38120D01*
D02*
G37*
D10*
X20598Y65390D02*
Y66610D01*
X20402Y65390D02*
Y66610D01*
X20598D01*
X20402Y65390D02*
X20598D01*
D11*
X27100Y77500D02*
Y78500D01*
Y78000D02*
X27600Y77500D01*
X27100Y78000D02*
X27600Y78500D01*
Y78000D02*
X27850D01*
X26950D02*
X27100D01*
X27600Y77500D02*
Y78500D01*
X14150Y65400D02*
X14400D01*
X14150Y66200D02*
X14400D01*
X15518Y65450D02*
Y66150D01*
X29600Y77800D02*
Y78400D01*
X29900D01*
X30000Y78300D01*
Y77900D01*
X29900Y77800D01*
X29600D01*
X30500Y78400D02*
Y77800D01*
X30200Y78100D01*
X30600D01*
D16*
X16333Y63933D02*
X16400Y64000D01*
X16533D01*
X16600Y63933D01*
Y63667D01*
X16533Y63600D01*
X16400D01*
X16333Y63667D01*
X15934Y63600D02*
X16200D01*
X15934Y63867D01*
Y63933D01*
X16000Y64000D01*
X16133D01*
X16200Y63933D01*
X12567Y62471D02*
X12500Y62404D01*
X12367D01*
X12300Y62471D01*
Y62737D01*
X12367Y62804D01*
X12500D01*
X12567Y62737D01*
X12966Y62404D02*
X12700D01*
Y62604D01*
X12833Y62537D01*
X12900D01*
X12966Y62604D01*
Y62737D01*
X12900Y62804D01*
X12767D01*
X12700Y62737D01*
X11433Y61233D02*
X11500Y61300D01*
X11633D01*
X11700Y61233D01*
Y60967D01*
X11633Y60900D01*
X11500D01*
X11433Y60967D01*
X11100Y60900D02*
Y61300D01*
X11300Y61100D01*
X11034D01*
X14033Y61233D02*
X14100Y61300D01*
X14233D01*
X14300Y61233D01*
Y60967D01*
X14233Y60900D01*
X14100D01*
X14033Y60967D01*
X13900Y61233D02*
X13833Y61300D01*
X13700D01*
X13634Y61233D01*
Y61167D01*
X13700Y61100D01*
X13767D01*
X13700D01*
X13634Y61033D01*
Y60967D01*
X13700Y60900D01*
X13833D01*
X13900Y60967D01*
X20835Y67300D02*
Y66967D01*
X20768Y66900D01*
X20635D01*
X20568Y66967D01*
Y67300D01*
X20435Y66900D02*
X20301D01*
X20368D01*
Y67300D01*
X20435Y67233D01*
X16109Y64700D02*
Y64300D01*
X15843D01*
X15710Y64700D02*
Y64300D01*
X15510D01*
X15443Y64367D01*
Y64633D01*
X15510Y64700D01*
X15710D01*
X15310Y64300D02*
X15176D01*
X15243D01*
Y64700D01*
X15310Y64633D01*
X21100Y61300D02*
Y61700D01*
X20900D01*
X20833Y61633D01*
Y61500D01*
X20900Y61433D01*
X21100D01*
X20967D02*
X20833Y61300D01*
X20700D02*
X20567D01*
X20633D01*
Y61700D01*
X20700Y61633D01*
X19300Y61300D02*
Y61700D01*
X19100D01*
X19033Y61633D01*
Y61500D01*
X19100Y61433D01*
X19300D01*
X19167D02*
X19033Y61300D01*
X18900Y61633D02*
X18833Y61700D01*
X18700D01*
X18634Y61633D01*
Y61567D01*
X18700Y61500D01*
X18767D01*
X18700D01*
X18634Y61433D01*
Y61367D01*
X18700Y61300D01*
X18833D01*
X18900Y61367D01*
X16626Y66100D02*
Y66500D01*
X16426D01*
X16359Y66433D01*
Y66300D01*
X16426Y66233D01*
X16626D01*
X16493D02*
X16359Y66100D01*
X15960Y66500D02*
X16226D01*
Y66300D01*
X16093Y66367D01*
X16026D01*
X15960Y66300D01*
Y66167D01*
X16026Y66100D01*
X16159D01*
X16226Y66167D01*
X16626Y64878D02*
Y65278D01*
X16426D01*
X16359Y65212D01*
Y65078D01*
X16426Y65012D01*
X16626D01*
X16493D02*
X16359Y64878D01*
X16026D02*
Y65278D01*
X16226Y65078D01*
X15960D01*
X17809Y58143D02*
X17876Y58209D01*
X18009D01*
X18076Y58143D01*
Y57876D01*
X18009Y57809D01*
X17876D01*
X17809Y57876D01*
X17676Y57809D02*
X17543D01*
X17609D01*
Y58209D01*
X17676Y58143D01*
X13425Y64400D02*
Y64800D01*
X13625D01*
X13692Y64733D01*
Y64467D01*
X13625Y64400D01*
X13425D01*
X13825Y64800D02*
X13958D01*
X13892D01*
Y64400D01*
X13825Y64467D01*
D68*
X20077Y65282D02*
G03*
X20077Y65282I-49J0D01*
G01*
D69*
X25983Y76780D02*
X28739D01*
X25983Y79220D02*
X28739D01*
Y76780D02*
Y76898D01*
Y79102D02*
Y79220D01*
X25983Y76780D02*
Y76898D01*
Y79102D02*
Y79220D01*
D70*
X17076Y57659D02*
X17076Y56959D01*
X18476D02*
Y57659D01*
X17076Y57659D02*
X18476Y57659D01*
X17076Y56959D02*
X18476D01*
X16826Y64300D02*
X17826D01*
Y61950D02*
Y64300D01*
X16826Y61950D02*
X17826D01*
X16826D02*
Y64300D01*
X18426D02*
X19426D01*
Y61950D02*
Y64300D01*
X18426Y61950D02*
X19426D01*
X18426D02*
Y64300D01*
X19973Y61950D02*
X20973D01*
X19973D02*
Y64300D01*
X20973D01*
Y61950D02*
Y64300D01*
X19176Y65800D02*
Y66800D01*
X16826Y65800D02*
X19176D01*
X16826D02*
Y66800D01*
X19176D01*
Y64566D02*
Y65566D01*
X16826Y64566D02*
X19176D01*
X16826D02*
Y65566D01*
X19176D01*
X12100Y65404D02*
X13100D01*
Y63054D02*
Y65404D01*
X12100Y63054D02*
X13100D01*
X12100D02*
Y65404D01*
X10800Y63800D02*
X11800D01*
Y61450D02*
Y63800D01*
X10800Y61450D02*
X11800D01*
X10800D02*
Y63800D01*
X13400D02*
X14400D01*
Y61450D02*
Y63800D01*
X13400Y61450D02*
X14400D01*
X13400D02*
Y63800D01*
M02*
