G04*
G04 #@! TF.GenerationSoftware,Altium Limited,Altium Designer,22.3.1 (43)*
G04*
G04 Layer_Color=128*
%FSLAX24Y24*%
%MOIN*%
G70*
G04*
G04 #@! TF.SameCoordinates,61A4D5B3-3B2A-409B-9F35-3F3BF520A47B*
G04*
G04*
G04 #@! TF.FilePolarity,Positive*
G04*
G01*
G75*
%ADD51R,0.0700X0.2000*%
%ADD52R,0.0700X0.0850*%
%ADD53R,0.0400X0.0500*%
%ADD54R,0.0433X0.0256*%
%ADD55R,0.0600X0.0600*%
%ADD56R,0.0600X0.0600*%
%ADD57R,0.0394X0.0787*%
%ADD58R,0.0787X0.0394*%
D51*
X26022Y78000D02*
D03*
X28699D02*
D03*
D52*
X13552Y65800D02*
D03*
X15048D02*
D03*
D53*
X17376Y57309D02*
D03*
X18176D02*
D03*
D54*
X20972Y65626D02*
D03*
Y66374D02*
D03*
X20028D02*
D03*
Y66000D02*
D03*
Y65626D02*
D03*
D55*
X17326Y63800D02*
D03*
Y62450D02*
D03*
X18926Y63800D02*
D03*
Y62450D02*
D03*
X20473D02*
D03*
Y63800D02*
D03*
X12600Y64904D02*
D03*
Y63554D02*
D03*
X11300Y63300D02*
D03*
Y61950D02*
D03*
X13900Y63300D02*
D03*
Y61950D02*
D03*
D56*
X18676Y66300D02*
D03*
X17326D02*
D03*
X18676Y65066D02*
D03*
X17326D02*
D03*
D57*
X16200Y62352D02*
D03*
X15609D02*
D03*
X15019D02*
D03*
D58*
X15609Y63809D02*
D03*
M02*
