G04*
G04 #@! TF.GenerationSoftware,Altium Limited,Altium Designer,22.3.1 (43)*
G04*
G04 Layer_Physical_Order=2*
G04 Layer_Color=16711680*
%FSLAX24Y24*%
%MOIN*%
G70*
G04*
G04 #@! TF.SameCoordinates,61A4D5B3-3B2A-409B-9F35-3F3BF520A47B*
G04*
G04*
G04 #@! TF.FilePolarity,Positive*
G04*
G01*
G75*
%ADD38C,0.1000*%
%ADD39C,0.0250*%
%ADD40C,0.0850*%
%ADD41C,0.0906*%
%ADD42C,0.1110*%
%ADD43C,0.0691*%
%ADD44C,0.1200*%
%ADD45C,0.0787*%
%ADD46C,0.2000*%
%ADD47C,0.0500*%
%ADD48C,0.0900*%
%ADD49C,0.1700*%
%ADD50C,0.0310*%
%ADD51R,0.0700X0.2000*%
%ADD52R,0.0700X0.0850*%
%ADD53R,0.0400X0.0500*%
%ADD54R,0.0433X0.0256*%
%ADD55R,0.0600X0.0600*%
%ADD56R,0.0600X0.0600*%
%ADD57R,0.0394X0.0787*%
%ADD58R,0.0787X0.0394*%
%ADD59C,0.0120*%
G36*
X23756Y81993D02*
X23767Y81862D01*
X23777Y81804D01*
X23791Y81749D01*
X23808Y81699D01*
X23828Y81653D01*
X23851Y81611D01*
X23877Y81574D01*
X23906Y81541D01*
X23729Y81364D01*
X23696Y81393D01*
X23659Y81419D01*
X23617Y81442D01*
X23571Y81462D01*
X23521Y81479D01*
X23466Y81493D01*
X23408Y81503D01*
X23345Y81510D01*
X23277Y81514D01*
X23206Y81515D01*
X23755Y82064D01*
X23756Y81993D01*
D02*
G37*
G36*
X18169Y80257D02*
X18266Y80171D01*
X18314Y80136D01*
X18361Y80107D01*
X18408Y80083D01*
X18454Y80064D01*
X18500Y80051D01*
X18545Y80043D01*
X18589Y80040D01*
X18583Y79790D01*
X18539Y79787D01*
X18494Y79780D01*
X18448Y79767D01*
X18401Y79749D01*
X18353Y79725D01*
X18304Y79697D01*
X18254Y79663D01*
X18203Y79624D01*
X18098Y79531D01*
X18119Y80308D01*
X18169Y80257D01*
D02*
G37*
G36*
X21143Y79522D02*
X21094Y79573D01*
X20997Y79659D01*
X20949Y79694D01*
X20901Y79723D01*
X20855Y79747D01*
X20808Y79766D01*
X20763Y79779D01*
X20718Y79787D01*
X20673Y79790D01*
X20680Y80040D01*
X20724Y80043D01*
X20769Y80050D01*
X20814Y80063D01*
X20861Y80081D01*
X20909Y80105D01*
X20958Y80133D01*
X21008Y80167D01*
X21059Y80206D01*
X21164Y80299D01*
X21143Y79522D01*
D02*
G37*
G36*
X25406Y79823D02*
X25417Y79692D01*
X25427Y79634D01*
X25441Y79579D01*
X25458Y79529D01*
X25478Y79483D01*
X25501Y79441D01*
X25527Y79404D01*
X25556Y79371D01*
X25379Y79194D01*
X25346Y79223D01*
X25309Y79249D01*
X25267Y79272D01*
X25221Y79292D01*
X25171Y79309D01*
X25116Y79323D01*
X25058Y79333D01*
X24995Y79340D01*
X24927Y79344D01*
X24856Y79345D01*
X25405Y79894D01*
X25406Y79823D01*
D02*
G37*
G36*
X22106D02*
X22117Y79692D01*
X22127Y79634D01*
X22141Y79579D01*
X22158Y79529D01*
X22178Y79483D01*
X22201Y79441D01*
X22227Y79404D01*
X22256Y79371D01*
X22079Y79194D01*
X22046Y79223D01*
X22009Y79249D01*
X21967Y79272D01*
X21921Y79292D01*
X21871Y79309D01*
X21816Y79323D01*
X21758Y79333D01*
X21695Y79340D01*
X21627Y79344D01*
X21556Y79345D01*
X22105Y79894D01*
X22106Y79823D01*
D02*
G37*
G36*
X25722Y79128D02*
X25810Y79053D01*
X25848Y79025D01*
X25883Y79004D01*
X25915Y78989D01*
X25943Y78981D01*
X25967Y78980D01*
X25987Y78986D01*
X26005Y78998D01*
X25674Y78668D01*
X25686Y78685D01*
X25692Y78705D01*
X25691Y78730D01*
X25683Y78757D01*
X25674Y78775D01*
Y78488D01*
X25672Y78512D01*
X25664Y78533D01*
X25652Y78552D01*
X25634Y78568D01*
X25612Y78582D01*
X25584Y78593D01*
X25551Y78602D01*
X25514Y78608D01*
X25471Y78612D01*
X25423Y78613D01*
Y78863D01*
X25471Y78865D01*
X25514Y78868D01*
X25551Y78875D01*
X25584Y78883D01*
X25597Y78889D01*
X25585Y78904D01*
X25496Y78999D01*
X25673Y79176D01*
X25722Y79128D01*
D02*
G37*
G36*
X28402Y79126D02*
X28494Y79048D01*
X28535Y79020D01*
X28572Y78998D01*
X28605Y78984D01*
X28635Y78977D01*
X28662Y78977D01*
X28685Y78984D01*
X28704Y78998D01*
X28352Y78645D01*
X28366Y78665D01*
X28373Y78687D01*
X28372Y78714D01*
X28365Y78744D01*
X28351Y78778D01*
X28330Y78815D01*
X28301Y78855D01*
X28266Y78900D01*
X28174Y78999D01*
X28350Y79176D01*
X28402Y79126D01*
D02*
G37*
G36*
X34200Y83300D02*
X34200Y78400D01*
X31942Y78400D01*
X31936Y78444D01*
X31880Y78577D01*
X31792Y78692D01*
X31677Y78780D01*
X31544Y78836D01*
X31400Y78855D01*
X31256Y78836D01*
X31123Y78780D01*
X31008Y78692D01*
X30920Y78577D01*
X30864Y78444D01*
X30858Y78400D01*
X29149D01*
Y79100D01*
X28599D01*
X28589Y79106D01*
X28556Y79129D01*
X28482Y79192D01*
X28179Y79495D01*
Y79951D01*
X28161Y80039D01*
X28111Y80113D01*
X26962Y81262D01*
X26888Y81312D01*
X26800Y81329D01*
X24265D01*
X23956Y81639D01*
X23937Y81665D01*
X23919Y81698D01*
X23903Y81735D01*
X23889Y81777D01*
X23877Y81825D01*
X23868Y81876D01*
X23858Y81998D01*
X23857Y82058D01*
X23858Y82070D01*
X23846Y82198D01*
X23808Y82322D01*
X23747Y82436D01*
X23665Y82535D01*
X23566Y82617D01*
X23452Y82678D01*
X23328Y82716D01*
X23200Y82728D01*
X23072Y82716D01*
X22948Y82678D01*
X22834Y82617D01*
X22735Y82535D01*
X22653Y82436D01*
X22592Y82322D01*
X22554Y82198D01*
X22542Y82070D01*
X22554Y81942D01*
X22592Y81818D01*
X22653Y81704D01*
X22735Y81605D01*
X22834Y81523D01*
X22948Y81462D01*
X23072Y81424D01*
X23200Y81412D01*
X23212Y81413D01*
X23274Y81412D01*
X23336Y81409D01*
X23393Y81402D01*
X23445Y81393D01*
X23493Y81381D01*
X23535Y81367D01*
X23572Y81351D01*
X23605Y81333D01*
X23631Y81314D01*
X24008Y80938D01*
X24082Y80888D01*
X24170Y80871D01*
X26705D01*
X27720Y79856D01*
Y79400D01*
X27737Y79312D01*
X27787Y79238D01*
X28146Y78879D01*
X28189Y78833D01*
X28220Y78794D01*
X28244Y78760D01*
X28249Y78750D01*
Y78400D01*
X26472Y78400D01*
Y79100D01*
X25921D01*
X25905Y79110D01*
X25873Y79133D01*
X25806Y79191D01*
X25733Y79264D01*
X25720Y79330D01*
X25670Y79405D01*
X25606Y79469D01*
X25587Y79495D01*
X25569Y79528D01*
X25553Y79565D01*
X25539Y79607D01*
X25527Y79655D01*
X25518Y79706D01*
X25508Y79828D01*
X25507Y79888D01*
X25508Y79900D01*
X25496Y80028D01*
X25458Y80152D01*
X25397Y80266D01*
X25315Y80365D01*
X25216Y80447D01*
X25102Y80508D01*
X24978Y80546D01*
X24850Y80558D01*
X24722Y80546D01*
X24598Y80508D01*
X24484Y80447D01*
X24385Y80365D01*
X24303Y80266D01*
X24242Y80152D01*
X24204Y80028D01*
X24192Y79900D01*
X24204Y79772D01*
X24242Y79648D01*
X24303Y79534D01*
X24385Y79435D01*
X24484Y79353D01*
X24598Y79292D01*
X24722Y79254D01*
X24850Y79242D01*
X24862Y79243D01*
X24924Y79242D01*
X24986Y79239D01*
X25043Y79232D01*
X25095Y79223D01*
X25143Y79211D01*
X25185Y79197D01*
X25222Y79181D01*
X25255Y79163D01*
X25281Y79144D01*
X25282Y79143D01*
X25296Y79077D01*
X25335Y79018D01*
X25314Y78968D01*
X22807D01*
X22306Y79469D01*
X22287Y79495D01*
X22269Y79528D01*
X22253Y79565D01*
X22239Y79607D01*
X22227Y79655D01*
X22218Y79706D01*
X22208Y79828D01*
X22207Y79888D01*
X22208Y79900D01*
X22196Y80028D01*
X22158Y80152D01*
X22097Y80266D01*
X22015Y80365D01*
X21916Y80447D01*
X21802Y80508D01*
X21678Y80546D01*
X21550Y80558D01*
X21422Y80546D01*
X21298Y80508D01*
X21184Y80447D01*
X21097Y80376D01*
X21097Y80375D01*
X21096Y80374D01*
X21085Y80365D01*
X21082Y80363D01*
X20994Y80285D01*
X20949Y80250D01*
X20904Y80220D01*
X20861Y80195D01*
X20820Y80175D01*
X20782Y80160D01*
X20746Y80150D01*
X20714Y80144D01*
X18555D01*
X18523Y80150D01*
X18488Y80161D01*
X18450Y80176D01*
X18411Y80196D01*
X18371Y80221D01*
X18330Y80251D01*
X18239Y80331D01*
X18192Y80379D01*
X18191Y80380D01*
X18178Y80395D01*
X18078Y80477D01*
X17964Y80538D01*
X17841Y80576D01*
X17713Y80588D01*
X17584Y80576D01*
X17461Y80538D01*
X17347Y80477D01*
X17247Y80395D01*
X17165Y80296D01*
X17104Y80182D01*
X17067Y80058D01*
X17054Y79930D01*
X17067Y79802D01*
X17104Y79678D01*
X17165Y79564D01*
X17247Y79465D01*
X17347Y79383D01*
X17461Y79322D01*
X17584Y79284D01*
X17713Y79272D01*
X17841Y79284D01*
X17964Y79322D01*
X18078Y79383D01*
X18166Y79454D01*
X18166Y79455D01*
X18167Y79456D01*
X18178Y79465D01*
X18180Y79467D01*
X18268Y79545D01*
X18314Y79580D01*
X18359Y79610D01*
X18401Y79635D01*
X18442Y79655D01*
X18480Y79670D01*
X18517Y79680D01*
X18548Y79686D01*
X20707D01*
X20739Y79680D01*
X20775Y79669D01*
X20812Y79654D01*
X20851Y79634D01*
X20892Y79609D01*
X20933Y79579D01*
X21024Y79499D01*
X21070Y79451D01*
X21072Y79450D01*
X21085Y79435D01*
X21184Y79353D01*
X21298Y79292D01*
X21422Y79254D01*
X21550Y79242D01*
X21562Y79243D01*
X21624Y79242D01*
X21686Y79239D01*
X21743Y79232D01*
X21795Y79223D01*
X21843Y79211D01*
X21885Y79197D01*
X21922Y79181D01*
X21955Y79163D01*
X21981Y79144D01*
X22549Y78576D01*
X22624Y78526D01*
X22712Y78509D01*
X25480D01*
X25501Y78507D01*
X25530Y78502D01*
X25551Y78497D01*
X25566Y78491D01*
X25572Y78487D01*
Y78400D01*
X15292Y78400D01*
X15220Y78455D01*
X15086Y78511D01*
X14943Y78530D01*
X14799Y78511D01*
X14665Y78455D01*
X14593Y78400D01*
X4700Y78400D01*
X4700Y83300D01*
X34200Y83300D01*
D02*
G37*
G36*
X28925Y76999D02*
X28904Y76991D01*
X28885Y76979D01*
X28869Y76961D01*
X28855Y76939D01*
X28844Y76911D01*
X28835Y76879D01*
X28829Y76841D01*
X28825Y76799D01*
X28824Y76751D01*
X28574D01*
X28573Y76799D01*
X28569Y76841D01*
X28563Y76879D01*
X28554Y76911D01*
X28543Y76939D01*
X28529Y76961D01*
X28513Y76979D01*
X28494Y76991D01*
X28473Y76999D01*
X28449Y77001D01*
X28949D01*
X28925Y76999D01*
D02*
G37*
G36*
X26248D02*
X26227Y76991D01*
X26208Y76979D01*
X26192Y76961D01*
X26178Y76939D01*
X26167Y76911D01*
X26158Y76879D01*
X26152Y76841D01*
X26148Y76799D01*
X26147Y76751D01*
X25897D01*
X25896Y76799D01*
X25892Y76841D01*
X25886Y76879D01*
X25877Y76911D01*
X25866Y76939D01*
X25852Y76961D01*
X25836Y76979D01*
X25817Y76991D01*
X25796Y76999D01*
X25772Y77001D01*
X26272D01*
X26248Y76999D01*
D02*
G37*
G36*
X26202Y76569D02*
X26251Y76529D01*
X26277Y76511D01*
X26331Y76479D01*
X26359Y76465D01*
X26418Y76441D01*
X26448Y76431D01*
X26021Y76205D01*
X26028Y76234D01*
X26032Y76262D01*
X26033Y76290D01*
X26030Y76317D01*
X26024Y76344D01*
X26015Y76371D01*
X26002Y76397D01*
X25986Y76423D01*
X25966Y76449D01*
X25943Y76474D01*
X26179Y76591D01*
X26202Y76569D01*
D02*
G37*
G36*
X28747Y76447D02*
X28724Y76422D01*
X28704Y76397D01*
X28687Y76370D01*
X28674Y76344D01*
X28663Y76317D01*
X28656Y76289D01*
X28651Y76260D01*
X28650Y76231D01*
X28652Y76201D01*
X28657Y76171D01*
X28255Y76439D01*
X28286Y76446D01*
X28317Y76455D01*
X28348Y76465D01*
X28377Y76477D01*
X28405Y76491D01*
X28432Y76507D01*
X28459Y76524D01*
X28484Y76543D01*
X28508Y76563D01*
X28532Y76585D01*
X28747Y76447D01*
D02*
G37*
G36*
X22761Y74113D02*
X22765Y74081D01*
X22772Y74051D01*
X22781Y74021D01*
X22793Y73992D01*
X22806Y73965D01*
X22822Y73938D01*
X22840Y73912D01*
X22860Y73887D01*
X22883Y73863D01*
X22715Y73677D01*
X22691Y73699D01*
X22666Y73719D01*
X22640Y73737D01*
X22613Y73752D01*
X22585Y73764D01*
X22556Y73774D01*
X22527Y73781D01*
X22497Y73785D01*
X22465Y73787D01*
X22433Y73787D01*
X22758Y74145D01*
X22761Y74113D01*
D02*
G37*
G36*
X31277Y69983D02*
X31239Y70020D01*
X31201Y70052D01*
X31163Y70081D01*
X31125Y70106D01*
X31087Y70127D01*
X31048Y70144D01*
X31010Y70158D01*
X30971Y70167D01*
X30932Y70173D01*
X30893Y70175D01*
Y70425D01*
X30932Y70427D01*
X30971Y70433D01*
X31010Y70442D01*
X31048Y70456D01*
X31087Y70473D01*
X31125Y70494D01*
X31163Y70519D01*
X31201Y70548D01*
X31239Y70580D01*
X31277Y70617D01*
Y69983D01*
D02*
G37*
G36*
X27535Y69083D02*
X27497Y69120D01*
X27459Y69152D01*
X27421Y69181D01*
X27383Y69206D01*
X27345Y69227D01*
X27307Y69244D01*
X27268Y69258D01*
X27229Y69267D01*
X27190Y69273D01*
X27151Y69275D01*
Y69525D01*
X27190Y69527D01*
X27229Y69533D01*
X27268Y69542D01*
X27307Y69556D01*
X27345Y69573D01*
X27383Y69594D01*
X27421Y69619D01*
X27459Y69648D01*
X27497Y69680D01*
X27535Y69717D01*
Y69083D01*
D02*
G37*
G36*
X28139Y69039D02*
X28106Y69001D01*
X28077Y68963D01*
X28052Y68925D01*
X28031Y68887D01*
X28014Y68848D01*
X28001Y68810D01*
X27991Y68771D01*
X27985Y68732D01*
X27983Y68693D01*
X27733D01*
X27731Y68732D01*
X27726Y68771D01*
X27716Y68810D01*
X27703Y68848D01*
X27685Y68887D01*
X27664Y68925D01*
X27639Y68963D01*
X27610Y69001D01*
X27578Y69039D01*
X27541Y69077D01*
X28175D01*
X28139Y69039D01*
D02*
G37*
G36*
X17452Y66801D02*
X17456Y66759D01*
X17462Y66721D01*
X17471Y66689D01*
X17482Y66661D01*
X17496Y66639D01*
X17512Y66621D01*
X17531Y66609D01*
X17552Y66601D01*
X17576Y66599D01*
X17076D01*
X17100Y66601D01*
X17121Y66609D01*
X17140Y66621D01*
X17156Y66639D01*
X17170Y66661D01*
X17181Y66689D01*
X17190Y66721D01*
X17196Y66759D01*
X17200Y66801D01*
X17201Y66849D01*
X17451D01*
X17452Y66801D01*
D02*
G37*
G36*
X19152Y66599D02*
X19102Y66548D01*
X19024Y66456D01*
X18996Y66415D01*
X18975Y66378D01*
X18961Y66344D01*
X18954Y66314D01*
Y66288D01*
X18961Y66265D01*
X18975Y66245D01*
X18621Y66599D01*
X18641Y66585D01*
X18664Y66578D01*
X18690D01*
X18720Y66585D01*
X18754Y66599D01*
X18791Y66620D01*
X18832Y66648D01*
X18876Y66684D01*
X18975Y66776D01*
X19152Y66599D01*
D02*
G37*
G36*
X20242Y66443D02*
X20245Y66441D01*
X20248Y66440D01*
X20253Y66438D01*
X20260Y66437D01*
X20268Y66436D01*
X20288Y66434D01*
X20314Y66434D01*
Y66314D01*
X20300Y66314D01*
X20260Y66311D01*
X20253Y66310D01*
X20248Y66308D01*
X20245Y66307D01*
X20242Y66305D01*
X20242Y66303D01*
Y66445D01*
X20242Y66443D01*
D02*
G37*
G36*
X20881Y66644D02*
X20951Y66587D01*
X20985Y66564D01*
X21020Y66545D01*
X21054Y66529D01*
X21088Y66517D01*
X21121Y66508D01*
X21155Y66503D01*
X21188Y66501D01*
X20757Y66247D01*
X20755Y66280D01*
X20750Y66314D01*
X20741Y66347D01*
X20729Y66381D01*
X20713Y66415D01*
X20693Y66450D01*
X20670Y66484D01*
X20644Y66519D01*
X20614Y66554D01*
X20580Y66589D01*
X20846Y66678D01*
X20881Y66644D01*
D02*
G37*
G36*
X12588Y66553D02*
X12562Y66524D01*
X12539Y66492D01*
X12518Y66458D01*
X12500Y66421D01*
X12485Y66382D01*
X12473Y66340D01*
X12464Y66295D01*
X12457Y66248D01*
X12454Y66198D01*
X12453Y66146D01*
X12005Y66594D01*
X12057Y66595D01*
X12107Y66599D01*
X12154Y66605D01*
X12199Y66614D01*
X12241Y66626D01*
X12280Y66641D01*
X12317Y66659D01*
X12351Y66680D01*
X12382Y66703D01*
X12411Y66729D01*
X12588Y66553D01*
D02*
G37*
G36*
X14750Y66351D02*
X14842Y66273D01*
X14883Y66245D01*
X14920Y66224D01*
X14954Y66210D01*
X14984Y66203D01*
X15010D01*
X15033Y66210D01*
X15053Y66224D01*
X14699Y65870D01*
X14713Y65890D01*
X14720Y65913D01*
Y65939D01*
X14713Y65969D01*
X14699Y66003D01*
X14678Y66040D01*
X14650Y66081D01*
X14614Y66125D01*
X14522Y66224D01*
X14699Y66401D01*
X14750Y66351D01*
D02*
G37*
G36*
X16926Y66400D02*
Y65900D01*
X17726D01*
Y66400D01*
X18276D01*
Y65900D01*
X19076D01*
Y66241D01*
X19077Y66245D01*
X19076Y66249D01*
Y66349D01*
X19082Y66360D01*
X19105Y66393D01*
X19111Y66400D01*
X19711D01*
Y66146D01*
X20310D01*
Y65854D01*
X20035D01*
X20028Y65855D01*
X20020Y65854D01*
X19820D01*
X19818Y65855D01*
X19813Y65854D01*
X19711D01*
Y65761D01*
X19710Y65758D01*
X19709Y65730D01*
X19705Y65707D01*
X19699Y65683D01*
X19690Y65658D01*
X19677Y65631D01*
X19662Y65604D01*
X19643Y65576D01*
X19601Y65524D01*
X19373Y65296D01*
X19168D01*
X19147Y65297D01*
X19118Y65302D01*
X19097Y65308D01*
X19082Y65314D01*
X19076Y65318D01*
Y65466D01*
X18276D01*
Y64666D01*
X19076D01*
Y64815D01*
X19082Y64819D01*
X19097Y64824D01*
X19118Y64830D01*
X19147Y64835D01*
X19168Y64837D01*
X19468D01*
X19492Y64842D01*
X19501Y64834D01*
X19500Y64770D01*
X19474Y64750D01*
X19418Y64677D01*
X19382Y64591D01*
X19370Y64500D01*
X19382Y64409D01*
X19418Y64323D01*
X19474Y64250D01*
X19547Y64194D01*
X19632Y64159D01*
X19723Y64147D01*
X19815Y64159D01*
X19900Y64194D01*
X19973Y64250D01*
X20029Y64323D01*
X20064Y64409D01*
X20076Y64500D01*
X20069Y64556D01*
X20070Y64563D01*
X20069Y64569D01*
X20069Y64571D01*
X20070Y64576D01*
X20074Y64583D01*
X20079Y64592D01*
X20085Y64602D01*
X20098Y64618D01*
X20190Y64710D01*
X20240Y64784D01*
X20257Y64872D01*
Y65301D01*
X20260Y65306D01*
X20310Y65288D01*
Y64200D01*
X20073D01*
Y64046D01*
X20072Y64027D01*
X20069Y64002D01*
X20062Y63976D01*
X20052Y63949D01*
X20040Y63922D01*
X20024Y63893D01*
X20005Y63864D01*
X19982Y63833D01*
X19966Y63815D01*
X19452Y63300D01*
X16226D01*
X15900Y63100D01*
Y61900D01*
X15316Y61900D01*
Y62846D01*
X15167D01*
X14900Y62900D01*
X10900Y62900D01*
X10900Y64000D01*
X16264Y64000D01*
X16264Y66400D01*
X16926D01*
D02*
G37*
G36*
X21176Y65497D02*
X21165Y65489D01*
X21155Y65477D01*
X21147Y65459D01*
X21140Y65437D01*
X21134Y65409D01*
X21129Y65377D01*
X21124Y65297D01*
X21123Y65249D01*
X20873D01*
X20872Y65297D01*
X20869Y65339D01*
X20863Y65377D01*
X20855Y65409D01*
X20844Y65437D01*
X20832Y65459D01*
X20816Y65477D01*
X20799Y65489D01*
X20779Y65497D01*
X20757Y65499D01*
X21188D01*
X21176Y65497D01*
D02*
G37*
G36*
X20243Y65499D02*
X20226Y65497D01*
X20210Y65489D01*
X20197Y65477D01*
X20185Y65459D01*
X20175Y65437D01*
X20167Y65409D01*
X20161Y65377D01*
X20156Y65339D01*
X20153Y65297D01*
X20153Y65249D01*
X19903D01*
X19902Y65297D01*
X19899Y65323D01*
X19635Y65411D01*
X19669Y65446D01*
X19726Y65516D01*
X19749Y65550D01*
X19768Y65585D01*
X19784Y65619D01*
X19796Y65653D01*
X19805Y65686D01*
X19810Y65720D01*
X19812Y65753D01*
X20243Y65499D01*
D02*
G37*
G36*
X13076Y65203D02*
X13026Y65151D01*
X12948Y65059D01*
X12920Y65019D01*
X12898Y64982D01*
X12884Y64948D01*
X12877Y64918D01*
X12877Y64891D01*
X12884Y64869D01*
X12898Y64849D01*
X12545Y65202D01*
X12565Y65188D01*
X12587Y65181D01*
X12614Y65181D01*
X12644Y65188D01*
X12678Y65202D01*
X12715Y65224D01*
X12755Y65252D01*
X12800Y65287D01*
X12899Y65380D01*
X13076Y65203D01*
D02*
G37*
G36*
X18976Y65292D02*
X18984Y65271D01*
X18996Y65252D01*
X19014Y65236D01*
X19036Y65222D01*
X19064Y65211D01*
X19097Y65202D01*
X19134Y65196D01*
X19177Y65192D01*
X19225Y65191D01*
Y64941D01*
X19177Y64940D01*
X19134Y64936D01*
X19097Y64930D01*
X19064Y64921D01*
X19036Y64910D01*
X19014Y64896D01*
X18996Y64880D01*
X18984Y64861D01*
X18976Y64840D01*
X18974Y64816D01*
Y65316D01*
X18976Y65292D01*
D02*
G37*
G36*
X12301Y64654D02*
X12299Y64678D01*
X12291Y64699D01*
X12279Y64718D01*
X12261Y64734D01*
X12239Y64748D01*
X12211Y64759D01*
X12179Y64768D01*
X12141Y64774D01*
X12099Y64778D01*
X12051Y64779D01*
Y65029D01*
X12099Y65030D01*
X12141Y65034D01*
X12179Y65040D01*
X12211Y65049D01*
X12239Y65060D01*
X12261Y65074D01*
X12279Y65090D01*
X12291Y65109D01*
X12299Y65130D01*
X12301Y65154D01*
Y64654D01*
D02*
G37*
G36*
X20052Y64720D02*
X20034Y64700D01*
X20003Y64663D01*
X19992Y64645D01*
X19982Y64628D01*
X19975Y64611D01*
X19970Y64595D01*
X19967Y64580D01*
X19967Y64565D01*
X19968Y64550D01*
X19678Y64746D01*
X19690Y64749D01*
X19703Y64754D01*
X19716Y64760D01*
X19731Y64769D01*
X19746Y64779D01*
X19779Y64804D01*
X19797Y64820D01*
X19835Y64856D01*
X20052Y64720D01*
D02*
G37*
G36*
X11466Y64219D02*
X11457Y64207D01*
X11450Y64193D01*
X11443Y64177D01*
X11437Y64159D01*
X11433Y64139D01*
X11430Y64117D01*
X11427Y64094D01*
X11425Y64042D01*
X11175D01*
X11174Y64069D01*
X11171Y64117D01*
X11167Y64139D01*
X11163Y64159D01*
X11157Y64177D01*
X11150Y64193D01*
X11143Y64207D01*
X11135Y64219D01*
X11125Y64230D01*
X11475D01*
X11466Y64219D01*
D02*
G37*
G36*
X20534Y64196D02*
X20536Y64175D01*
X20539Y64157D01*
X20543Y64141D01*
X20548Y64128D01*
X20555Y64117D01*
X20563Y64109D01*
X20572Y64102D01*
X20582Y64099D01*
X20593Y64098D01*
X20535D01*
X20544Y63945D01*
X20547Y63925D01*
X20552Y63908D01*
X20556Y63896D01*
X20562Y63888D01*
X20385D01*
X20390Y63896D01*
X20395Y63908D01*
X20399Y63925D01*
X20403Y63945D01*
X20409Y64000D01*
X20412Y64071D01*
X20413Y64098D01*
X20353D01*
X20365Y64099D01*
X20375Y64102D01*
X20384Y64109D01*
X20392Y64117D01*
X20398Y64128D01*
X20404Y64141D01*
X20408Y64157D01*
X20411Y64175D01*
X20413Y64196D01*
X20413Y64219D01*
X20533D01*
X20534Y64196D01*
D02*
G37*
G36*
X20175Y63501D02*
X20173Y63503D01*
X20168Y63502D01*
X20159Y63496D01*
X20146Y63486D01*
X20111Y63455D01*
X19998Y63345D01*
Y63699D01*
X20032Y63734D01*
X20062Y63770D01*
X20088Y63805D01*
X20112Y63840D01*
X20131Y63876D01*
X20147Y63911D01*
X20160Y63946D01*
X20169Y63982D01*
X20174Y64017D01*
X20176Y64052D01*
X20175Y63501D01*
D02*
G37*
G36*
X21125Y64204D02*
X21130Y64167D01*
X21139Y64139D01*
X21152Y64118D01*
X21168Y64107D01*
X21187Y64104D01*
X21210Y64109D01*
X21237Y64123D01*
X21267Y64146D01*
X21300Y64177D01*
Y63823D01*
X21267Y63787D01*
X21237Y63750D01*
X21210Y63711D01*
X21187Y63670D01*
X21168Y63628D01*
X21152Y63585D01*
X21139Y63540D01*
X21130Y63494D01*
X21125Y63446D01*
X21123Y63397D01*
X20873Y63698D01*
X21123Y64250D01*
X21125Y64204D01*
D02*
G37*
G36*
X30289Y63366D02*
X30302Y63357D01*
X30316Y63349D01*
X30332Y63343D01*
X30350Y63337D01*
X30370Y63333D01*
X30391Y63330D01*
X30415Y63327D01*
X30467Y63325D01*
Y63075D01*
X30440Y63074D01*
X30391Y63071D01*
X30370Y63067D01*
X30350Y63063D01*
X30332Y63057D01*
X30316Y63050D01*
X30302Y63043D01*
X30289Y63035D01*
X30279Y63025D01*
Y63375D01*
X30289Y63366D01*
D02*
G37*
G36*
X20949Y62749D02*
X20900Y62698D01*
X20822Y62606D01*
X20793Y62565D01*
X20772Y62528D01*
X20758Y62494D01*
X20751Y62464D01*
Y62438D01*
X20758Y62415D01*
X20772Y62395D01*
X20419Y62749D01*
X20438Y62735D01*
X20461Y62728D01*
X20488D01*
X20518Y62735D01*
X20551Y62749D01*
X20588Y62770D01*
X20629Y62798D01*
X20673Y62834D01*
X20772Y62926D01*
X20949Y62749D01*
D02*
G37*
G36*
X19402D02*
X19352Y62697D01*
X19274Y62605D01*
X19246Y62565D01*
X19224Y62528D01*
X19210Y62494D01*
X19203Y62464D01*
X19203Y62437D01*
X19210Y62415D01*
X19224Y62395D01*
X18871Y62748D01*
X18891Y62734D01*
X18913Y62727D01*
X18940Y62727D01*
X18970Y62734D01*
X19004Y62748D01*
X19041Y62770D01*
X19081Y62798D01*
X19126Y62833D01*
X19225Y62926D01*
X19402Y62749D01*
D02*
G37*
G36*
X20528Y62152D02*
X20509Y62166D01*
X20486Y62173D01*
X20459Y62173D01*
X20429Y62166D01*
X20396Y62152D01*
X20359Y62130D01*
X20318Y62102D01*
X20274Y62067D01*
X20175Y61974D01*
X19998Y62151D01*
X20047Y62203D01*
X20125Y62295D01*
X20154Y62335D01*
X20175Y62372D01*
X20189Y62406D01*
X20197Y62436D01*
X20197Y62463D01*
X20190Y62485D01*
X20176Y62505D01*
X20528Y62152D01*
D02*
G37*
G36*
X17610Y62485D02*
X17603Y62463D01*
X17603Y62436D01*
X17610Y62406D01*
X17624Y62372D01*
X17646Y62335D01*
X17674Y62295D01*
X17709Y62250D01*
X17802Y62151D01*
X17625Y61974D01*
X17573Y62024D01*
X17481Y62102D01*
X17441Y62130D01*
X17404Y62152D01*
X17370Y62166D01*
X17340Y62173D01*
X17313Y62173D01*
X17291Y62166D01*
X17271Y62152D01*
X17624Y62505D01*
X17610Y62485D01*
D02*
G37*
G36*
X14823Y61959D02*
X14821Y61959D01*
X14813Y61959D01*
X14573Y61958D01*
Y62208D01*
X14621Y62210D01*
X14664Y62213D01*
X14701Y62220D01*
X14734Y62228D01*
X14761Y62240D01*
X14784Y62253D01*
X14802Y62270D01*
X14814Y62288D01*
X14822Y62310D01*
X14824Y62333D01*
X14823Y61959D01*
D02*
G37*
G36*
X14201Y62241D02*
X14209Y62234D01*
X14221Y62228D01*
X14239Y62223D01*
X14261Y62218D01*
X14289Y62215D01*
X14359Y62210D01*
X14449Y62208D01*
Y61958D01*
X14401Y61957D01*
X14358Y61953D01*
X14321Y61947D01*
X14288Y61938D01*
X14261Y61927D01*
X14238Y61913D01*
X14220Y61897D01*
X14208Y61878D01*
X14200Y61857D01*
X14198Y61833D01*
X14199Y62249D01*
X14201Y62241D01*
D02*
G37*
G36*
X11584Y61985D02*
X11577Y61963D01*
X11577Y61936D01*
X11584Y61906D01*
X11598Y61872D01*
X11620Y61835D01*
X11648Y61795D01*
X11683Y61750D01*
X11776Y61651D01*
X11599Y61474D01*
X11547Y61524D01*
X11455Y61602D01*
X11415Y61630D01*
X11378Y61652D01*
X11344Y61666D01*
X11314Y61673D01*
X11287Y61673D01*
X11265Y61666D01*
X11245Y61652D01*
X11598Y62005D01*
X11584Y61985D01*
D02*
G37*
G36*
X31595Y60989D02*
X31543Y60988D01*
X31493Y60984D01*
X31446Y60978D01*
X31401Y60969D01*
X31359Y60956D01*
X31320Y60942D01*
X31283Y60924D01*
X31249Y60903D01*
X31218Y60880D01*
X31189Y60854D01*
X31012Y61030D01*
X31038Y61059D01*
X31061Y61091D01*
X31082Y61125D01*
X31100Y61162D01*
X31115Y61201D01*
X31127Y61243D01*
X31136Y61288D01*
X31143Y61335D01*
X31146Y61385D01*
X31147Y61437D01*
X31595Y60989D01*
D02*
G37*
G36*
X15250Y60524D02*
X15220Y60553D01*
X15190Y60579D01*
X15159Y60601D01*
X15127Y60621D01*
X15094Y60637D01*
X15061Y60651D01*
X15027Y60661D01*
X14993Y60669D01*
X14958Y60673D01*
X14922Y60675D01*
Y60925D01*
X14958Y60927D01*
X14993Y60931D01*
X15027Y60939D01*
X15061Y60949D01*
X15094Y60963D01*
X15127Y60979D01*
X15159Y60999D01*
X15190Y61021D01*
X15220Y61047D01*
X15250Y61076D01*
Y60524D01*
D02*
G37*
G36*
X15778Y60489D02*
X15753Y60458D01*
X15730Y60427D01*
X15711Y60395D01*
X15694Y60363D01*
X15681Y60330D01*
X15670Y60296D01*
X15663Y60261D01*
X15658Y60226D01*
X15656Y60190D01*
X15407D01*
X15405Y60226D01*
X15400Y60261D01*
X15393Y60296D01*
X15382Y60330D01*
X15369Y60363D01*
X15352Y60395D01*
X15333Y60427D01*
X15310Y60458D01*
X15285Y60489D01*
X15256Y60519D01*
X15807D01*
X15778Y60489D01*
D02*
G37*
G36*
X19187Y60550D02*
X19709Y60488D01*
X19678Y60463D01*
X19651Y60436D01*
X19627Y60408D01*
X19606Y60379D01*
X19588Y60348D01*
X19573Y60317D01*
X19562Y60284D01*
X19554Y60250D01*
X19549Y60215D01*
X19547Y60178D01*
X19297Y60209D01*
X19296Y60244D01*
X19292Y60279D01*
X19285Y60314D01*
X19276Y60349D01*
X19263Y60383D01*
X19248Y60417D01*
X19231Y60452D01*
X19211Y60486D01*
X19188Y60519D01*
X19174Y60537D01*
X19157Y60553D01*
X19127Y60579D01*
X19096Y60601D01*
X19064Y60621D01*
X19031Y60637D01*
X18998Y60651D01*
X18964Y60661D01*
X18930Y60669D01*
X18895Y60673D01*
X18859Y60675D01*
Y60925D01*
X18895Y60927D01*
X18930Y60931D01*
X18964Y60939D01*
X18998Y60949D01*
X19031Y60963D01*
X19064Y60979D01*
X19096Y60999D01*
X19127Y61021D01*
X19157Y61047D01*
X19187Y61076D01*
Y60550D01*
D02*
G37*
G36*
X19547Y59081D02*
X19549Y59046D01*
X19553Y59011D01*
X19559Y58977D01*
X19569Y58942D01*
X19581Y58908D01*
X19596Y58873D01*
X19614Y58839D01*
X19634Y58805D01*
X19657Y58771D01*
X19683Y58737D01*
X19135Y58802D01*
X19166Y58828D01*
X19194Y58855D01*
X19218Y58883D01*
X19239Y58912D01*
X19257Y58942D01*
X19271Y58974D01*
X19283Y59007D01*
X19291Y59041D01*
X19296Y59076D01*
X19297Y59113D01*
X19547Y59081D01*
D02*
G37*
G36*
X32080Y58739D02*
X32048Y58701D01*
X32019Y58663D01*
X31994Y58625D01*
X31973Y58587D01*
X31956Y58548D01*
X31942Y58510D01*
X31933Y58471D01*
X31927Y58432D01*
X31925Y58393D01*
X31675D01*
X31673Y58432D01*
X31667Y58471D01*
X31658Y58510D01*
X31644Y58548D01*
X31627Y58587D01*
X31606Y58625D01*
X31581Y58663D01*
X31552Y58701D01*
X31520Y58739D01*
X31483Y58777D01*
X32117D01*
X32080Y58739D01*
D02*
G37*
G36*
X16184Y58395D02*
X16212Y58373D01*
X16242Y58354D01*
X16273Y58338D01*
X16306Y58324D01*
X16341Y58313D01*
X16377Y58304D01*
X16415Y58298D01*
X16455Y58295D01*
X16496Y58294D01*
X16106Y57904D01*
X16105Y57945D01*
X16102Y57985D01*
X16096Y58023D01*
X16087Y58059D01*
X16076Y58094D01*
X16062Y58127D01*
X16046Y58158D01*
X16027Y58188D01*
X16005Y58216D01*
X15981Y58243D01*
X16157Y58419D01*
X16184Y58395D01*
D02*
G37*
G36*
X15038Y57624D02*
X15008Y57653D01*
X14977Y57679D01*
X14946Y57701D01*
X14914Y57721D01*
X14882Y57737D01*
X14849Y57751D01*
X14815Y57761D01*
X14780Y57769D01*
X14745Y57773D01*
X14709Y57775D01*
Y58025D01*
X14745Y58027D01*
X14780Y58031D01*
X14815Y58039D01*
X14849Y58049D01*
X14882Y58063D01*
X14914Y58079D01*
X14946Y58099D01*
X14977Y58121D01*
X15008Y58147D01*
X15038Y58176D01*
Y57624D01*
D02*
G37*
G36*
X16893Y57957D02*
X16920Y57880D01*
X16936Y57844D01*
X16970Y57777D01*
X16990Y57747D01*
X17010Y57718D01*
X17032Y57692D01*
X17055Y57667D01*
X16929Y57439D01*
X16902Y57464D01*
X16873Y57486D01*
X16844Y57503D01*
X16813Y57517D01*
X16781Y57527D01*
X16749Y57533D01*
X16715Y57536D01*
X16680Y57535D01*
X16644Y57530D01*
X16607Y57521D01*
X16881Y57999D01*
X16893Y57957D01*
D02*
G37*
G36*
X18377Y57535D02*
X18385Y57514D01*
X18397Y57495D01*
X18415Y57479D01*
X18437Y57465D01*
X18465Y57454D01*
X18497Y57446D01*
X18535Y57439D01*
X18577Y57436D01*
X18625Y57434D01*
Y57184D01*
X18577Y57183D01*
X18535Y57179D01*
X18497Y57173D01*
X18465Y57165D01*
X18437Y57154D01*
X18415Y57140D01*
X18397Y57124D01*
X18385Y57105D01*
X18377Y57084D01*
X18375Y57061D01*
Y57558D01*
X18377Y57535D01*
D02*
G37*
G36*
X19095Y57034D02*
X19065Y57062D01*
X19034Y57088D01*
X19003Y57111D01*
X18971Y57130D01*
X18939Y57147D01*
X18906Y57160D01*
X18872Y57171D01*
X18837Y57178D01*
X18802Y57183D01*
X18766Y57184D01*
Y57434D01*
X18802Y57436D01*
X18837Y57440D01*
X18872Y57448D01*
X18906Y57459D01*
X18939Y57472D01*
X18971Y57489D01*
X19003Y57508D01*
X19034Y57531D01*
X19065Y57556D01*
X19095Y57585D01*
Y57034D01*
D02*
G37*
G36*
X19771Y57264D02*
X19774Y57224D01*
X19780Y57186D01*
X19789Y57150D01*
X19800Y57115D01*
X19814Y57082D01*
X19830Y57051D01*
X19849Y57021D01*
X19871Y56993D01*
X19895Y56967D01*
X19719Y56790D01*
X19692Y56814D01*
X19664Y56836D01*
X19634Y56855D01*
X19603Y56872D01*
X19570Y56885D01*
X19535Y56897D01*
X19499Y56905D01*
X19461Y56911D01*
X19421Y56915D01*
X19380Y56916D01*
X19770Y57306D01*
X19771Y57264D01*
D02*
G37*
G36*
X20349Y52439D02*
X20316Y52401D01*
X20288Y52363D01*
X20263Y52325D01*
X20241Y52287D01*
X20224Y52248D01*
X20211Y52210D01*
X20201Y52171D01*
X20195Y52132D01*
X20194Y52093D01*
X19944D01*
X19942Y52132D01*
X19936Y52171D01*
X19926Y52210D01*
X19913Y52248D01*
X19896Y52287D01*
X19874Y52325D01*
X19849Y52363D01*
X19821Y52401D01*
X19788Y52439D01*
X19752Y52477D01*
X20385D01*
X20349Y52439D01*
D02*
G37*
G36*
X31897Y49799D02*
X31851Y49788D01*
X31763Y49760D01*
X31723Y49744D01*
X31684Y49725D01*
X31647Y49705D01*
X31612Y49683D01*
X31579Y49659D01*
X31548Y49633D01*
X31518Y49606D01*
X31312Y49753D01*
X31336Y49780D01*
X31357Y49809D01*
X31374Y49840D01*
X31386Y49871D01*
X31395Y49904D01*
X31399Y49938D01*
X31399Y49974D01*
X31395Y50011D01*
X31386Y50049D01*
X31374Y50088D01*
X31897Y49799D01*
D02*
G37*
G36*
X21321Y48414D02*
X21352Y48391D01*
X21386Y48370D01*
X21422Y48353D01*
X21462Y48338D01*
X21503Y48326D01*
X21547Y48316D01*
X21594Y48310D01*
X21644Y48306D01*
X21695Y48305D01*
X21250Y47860D01*
X21249Y47912D01*
X21245Y47961D01*
X21239Y48008D01*
X21230Y48052D01*
X21218Y48094D01*
X21203Y48133D01*
X21185Y48169D01*
X21164Y48203D01*
X21141Y48235D01*
X21115Y48263D01*
X21292Y48440D01*
X21321Y48414D01*
D02*
G37*
G36*
X28602Y47063D02*
X28608Y47025D01*
X28617Y46986D01*
X28630Y46948D01*
X28647Y46910D01*
X28668Y46872D01*
X28693Y46834D01*
X28722Y46796D01*
X28754Y46759D01*
X28790Y46721D01*
X28160D01*
X28196Y46759D01*
X28228Y46796D01*
X28257Y46834D01*
X28282Y46872D01*
X28303Y46910D01*
X28320Y46948D01*
X28333Y46986D01*
X28342Y47025D01*
X28348Y47063D01*
X28350Y47102D01*
X28600D01*
X28602Y47063D01*
D02*
G37*
G36*
X29227Y45980D02*
X29170Y46036D01*
X29059Y46130D01*
X29005Y46169D01*
X28953Y46201D01*
X28945Y46205D01*
X28909Y46182D01*
X28871Y46153D01*
X28834Y46121D01*
X28796Y46085D01*
Y46264D01*
X28755Y46272D01*
X28708Y46275D01*
Y46525D01*
X28755Y46528D01*
X28796Y46536D01*
Y46715D01*
X28834Y46679D01*
X28871Y46647D01*
X28909Y46618D01*
X28945Y46595D01*
X28953Y46599D01*
X29005Y46631D01*
X29059Y46670D01*
X29113Y46714D01*
X29227Y46820D01*
Y45980D01*
D02*
G37*
G36*
X20349Y46839D02*
X20316Y46801D01*
X20288Y46763D01*
X20263Y46725D01*
X20241Y46687D01*
X20224Y46648D01*
X20211Y46610D01*
X20201Y46571D01*
X20195Y46532D01*
X20194Y46493D01*
X19944D01*
X19942Y46532D01*
X19936Y46571D01*
X19926Y46610D01*
X19913Y46648D01*
X19896Y46687D01*
X19874Y46725D01*
X19849Y46763D01*
X19821Y46801D01*
X19788Y46839D01*
X19752Y46877D01*
X20385D01*
X20349Y46839D01*
D02*
G37*
G36*
X21321Y44859D02*
X21352Y44836D01*
X21386Y44815D01*
X21422Y44797D01*
X21462Y44782D01*
X21503Y44770D01*
X21547Y44761D01*
X21594Y44755D01*
X21644Y44751D01*
X21695Y44750D01*
X21250Y44304D01*
X21249Y44356D01*
X21245Y44406D01*
X21239Y44453D01*
X21230Y44497D01*
X21218Y44538D01*
X21203Y44578D01*
X21185Y44614D01*
X21164Y44648D01*
X21141Y44679D01*
X21115Y44708D01*
X21292Y44885D01*
X21321Y44859D01*
D02*
G37*
G36*
X29227Y41310D02*
X29170Y41366D01*
X29059Y41460D01*
X29005Y41499D01*
X28953Y41531D01*
X28921Y41508D01*
X28886Y41478D01*
X28851Y41445D01*
X28817Y41407D01*
X28804Y41593D01*
X28802Y41593D01*
X28755Y41602D01*
X28708Y41605D01*
Y41855D01*
X28755Y41858D01*
X28786Y41864D01*
X28775Y42036D01*
X28815Y42001D01*
X28895Y41943D01*
X28935Y41920D01*
X28935Y41920D01*
X28953Y41929D01*
X29005Y41961D01*
X29059Y41999D01*
X29113Y42044D01*
X29227Y42150D01*
Y41310D01*
D02*
G37*
G36*
X30413Y42311D02*
X30382Y42276D01*
X30355Y42236D01*
X30331Y42191D01*
X30310Y42141D01*
X30293Y42086D01*
X30278Y42026D01*
X30268Y41961D01*
X30260Y41891D01*
X30255Y41736D01*
X29661Y42330D01*
X29741Y42331D01*
X29886Y42342D01*
X29952Y42353D01*
X30012Y42367D01*
X30067Y42385D01*
X30117Y42406D01*
X30161Y42430D01*
X30201Y42457D01*
X30236Y42488D01*
X30413Y42311D01*
D02*
G37*
G36*
X20553Y41862D02*
X20605Y41717D01*
X20624Y41675D01*
X20666Y41600D01*
X20688Y41568D01*
X20711Y41539D01*
X20735Y41513D01*
X20609Y41285D01*
X20579Y41312D01*
X20546Y41335D01*
X20512Y41354D01*
X20477Y41369D01*
X20439Y41379D01*
X20400Y41385D01*
X20359Y41386D01*
X20316Y41383D01*
X20271Y41376D01*
X20225Y41365D01*
X20538Y41916D01*
X20553Y41862D01*
D02*
G37*
G36*
X21379Y40985D02*
X21341Y41021D01*
X21304Y41053D01*
X21266Y41082D01*
X21228Y41107D01*
X21190Y41128D01*
X21152Y41145D01*
X21114Y41158D01*
X21075Y41167D01*
X21037Y41173D01*
X20998Y41175D01*
Y41425D01*
X21037Y41427D01*
X21075Y41433D01*
X21114Y41442D01*
X21152Y41455D01*
X21190Y41473D01*
X21228Y41493D01*
X21266Y41518D01*
X21304Y41547D01*
X21341Y41579D01*
X21379Y41615D01*
Y40985D01*
D02*
G37*
G36*
X25096Y37803D02*
X25062Y37835D01*
X25028Y37865D01*
X24993Y37890D01*
X24958Y37913D01*
X24923Y37932D01*
X24887Y37947D01*
X24850Y37959D01*
X24813Y37968D01*
X24776Y37973D01*
X24739Y37975D01*
Y38225D01*
X24776Y38227D01*
X24813Y38232D01*
X24850Y38241D01*
X24887Y38253D01*
X24923Y38268D01*
X24958Y38287D01*
X24993Y38310D01*
X25028Y38335D01*
X25062Y38365D01*
X25096Y38398D01*
Y37803D01*
D02*
G37*
G36*
X13626Y36439D02*
X13592Y36404D01*
X13562Y36368D01*
X13535Y36333D01*
X13512Y36297D01*
X13492Y36262D01*
X13476Y36227D01*
X13464Y36191D01*
X13455Y36156D01*
X13449Y36121D01*
X13448Y36086D01*
Y36793D01*
X13449Y36761D01*
X13455Y36736D01*
X13464Y36718D01*
X13476Y36707D01*
X13492Y36704D01*
X13512Y36707D01*
X13535Y36718D01*
X13562Y36736D01*
X13592Y36761D01*
X13626Y36793D01*
Y36439D01*
D02*
G37*
G36*
X11648Y36610D02*
X11714Y36571D01*
X11793Y36537D01*
X11886Y36507D01*
X11992Y36482D01*
X12112Y36462D01*
X12392Y36434D01*
X12552Y36427D01*
X12726Y36425D01*
Y36175D01*
X12552Y36173D01*
X12112Y36138D01*
X11992Y36118D01*
X11886Y36093D01*
X11793Y36063D01*
X11714Y36029D01*
X11648Y35990D01*
X11595Y35946D01*
Y36012D01*
X11565Y35983D01*
Y36617D01*
X11595Y36588D01*
Y36654D01*
X11648Y36610D01*
D02*
G37*
%LPC*%
G36*
X17713Y82758D02*
X17584Y82746D01*
X17461Y82708D01*
X17347Y82647D01*
X17298Y82607D01*
X17290Y82603D01*
X17235Y82558D01*
X17130Y82483D01*
X17083Y82455D01*
X17038Y82430D01*
X16995Y82411D01*
X16955Y82397D01*
X16919Y82387D01*
X16888Y82381D01*
X16856Y82387D01*
X16820Y82397D01*
X16780Y82411D01*
X16737Y82430D01*
X16692Y82455D01*
X16645Y82483D01*
X16540Y82558D01*
X16485Y82603D01*
X16477Y82607D01*
X16428Y82647D01*
X16314Y82708D01*
X16191Y82746D01*
X16063Y82758D01*
X15934Y82746D01*
X15811Y82708D01*
X15697Y82647D01*
X15597Y82565D01*
X15515Y82466D01*
X15454Y82352D01*
X15417Y82228D01*
X15416Y82215D01*
X15402Y82145D01*
X15387Y82079D01*
X15352Y81959D01*
X15334Y81909D01*
X15314Y81864D01*
X15295Y81825D01*
X15275Y81792D01*
X15257Y81768D01*
X12919Y79429D01*
X12110D01*
X12087Y79433D01*
X12058Y79440D01*
X12028Y79450D01*
X11998Y79464D01*
X11967Y79481D01*
X11935Y79502D01*
X11903Y79526D01*
X11870Y79554D01*
X11847Y79577D01*
X11835Y79592D01*
X11720Y79680D01*
X11586Y79736D01*
X11443Y79755D01*
X11299Y79736D01*
X11165Y79680D01*
X11050Y79592D01*
X10962Y79477D01*
X10907Y79344D01*
X10888Y79200D01*
X10907Y79056D01*
X10962Y78923D01*
X11050Y78808D01*
X11165Y78720D01*
X11299Y78664D01*
X11443Y78645D01*
X11586Y78664D01*
X11720Y78720D01*
X11835Y78808D01*
X11847Y78823D01*
X11870Y78846D01*
X11903Y78874D01*
X11935Y78898D01*
X11967Y78919D01*
X11998Y78936D01*
X12028Y78950D01*
X12058Y78960D01*
X12087Y78967D01*
X12110Y78971D01*
X13014D01*
X13102Y78988D01*
X13176Y79038D01*
X15547Y81409D01*
X15574Y81428D01*
X15605Y81444D01*
X15639Y81456D01*
X15677Y81466D01*
X15720Y81472D01*
X15766Y81474D01*
X15817Y81472D01*
X15872Y81466D01*
X15924Y81457D01*
X15934Y81454D01*
X16063Y81442D01*
X16191Y81454D01*
X16314Y81492D01*
X16428Y81553D01*
X16528Y81635D01*
X16564Y81679D01*
X16571Y81684D01*
X16614Y81735D01*
X16655Y81777D01*
X16695Y81814D01*
X16734Y81845D01*
X16772Y81871D01*
X16809Y81891D01*
X16844Y81906D01*
X16879Y81917D01*
X16888Y81918D01*
X16896Y81917D01*
X16931Y81906D01*
X16966Y81891D01*
X17003Y81871D01*
X17041Y81845D01*
X17080Y81814D01*
X17120Y81777D01*
X17161Y81735D01*
X17204Y81684D01*
X17211Y81679D01*
X17247Y81635D01*
X17347Y81553D01*
X17461Y81492D01*
X17584Y81454D01*
X17713Y81442D01*
X17724Y81443D01*
X17786Y81442D01*
X17848Y81439D01*
X17906Y81432D01*
X17958Y81423D01*
X18005Y81411D01*
X18047Y81397D01*
X18085Y81381D01*
X18117Y81363D01*
X18144Y81344D01*
X18650Y80838D01*
X18725Y80788D01*
X18813Y80771D01*
X22005D01*
X22444Y80331D01*
X22463Y80305D01*
X22481Y80272D01*
X22497Y80235D01*
X22511Y80193D01*
X22523Y80145D01*
X22532Y80094D01*
X22542Y79972D01*
X22543Y79912D01*
X22542Y79900D01*
X22554Y79772D01*
X22592Y79648D01*
X22653Y79534D01*
X22735Y79435D01*
X22834Y79353D01*
X22948Y79292D01*
X23072Y79254D01*
X23200Y79242D01*
X23328Y79254D01*
X23452Y79292D01*
X23566Y79353D01*
X23665Y79435D01*
X23747Y79534D01*
X23808Y79648D01*
X23846Y79772D01*
X23858Y79900D01*
X23846Y80028D01*
X23808Y80152D01*
X23747Y80266D01*
X23665Y80365D01*
X23566Y80447D01*
X23452Y80508D01*
X23328Y80546D01*
X23200Y80558D01*
X23188Y80557D01*
X23126Y80558D01*
X23064Y80561D01*
X23007Y80568D01*
X22955Y80577D01*
X22907Y80589D01*
X22865Y80603D01*
X22828Y80619D01*
X22795Y80637D01*
X22769Y80656D01*
X22262Y81162D01*
X22188Y81212D01*
X22100Y81229D01*
X18908D01*
X18468Y81669D01*
X18450Y81695D01*
X18432Y81728D01*
X18415Y81765D01*
X18401Y81807D01*
X18390Y81855D01*
X18381Y81906D01*
X18370Y82028D01*
X18370Y82088D01*
X18371Y82100D01*
X18358Y82228D01*
X18321Y82352D01*
X18260Y82466D01*
X18178Y82565D01*
X18078Y82647D01*
X17964Y82708D01*
X17841Y82746D01*
X17713Y82758D01*
D02*
G37*
G36*
X26500Y82728D02*
X26372Y82716D01*
X26248Y82678D01*
X26134Y82617D01*
X26035Y82535D01*
X25953Y82436D01*
X25892Y82322D01*
X25854Y82198D01*
X25842Y82070D01*
X25854Y81942D01*
X25892Y81818D01*
X25953Y81704D01*
X26035Y81605D01*
X26134Y81523D01*
X26248Y81462D01*
X26372Y81424D01*
X26500Y81412D01*
X26628Y81424D01*
X26752Y81462D01*
X26866Y81523D01*
X26965Y81605D01*
X27047Y81704D01*
X27108Y81818D01*
X27146Y81942D01*
X27158Y82070D01*
X27146Y82198D01*
X27108Y82322D01*
X27047Y82436D01*
X26965Y82535D01*
X26866Y82617D01*
X26752Y82678D01*
X26628Y82716D01*
X26500Y82728D01*
D02*
G37*
G36*
X16063Y80588D02*
X15934Y80576D01*
X15811Y80538D01*
X15697Y80477D01*
X15597Y80395D01*
X15515Y80296D01*
X15454Y80182D01*
X15417Y80058D01*
X15404Y79930D01*
X15417Y79802D01*
X15454Y79678D01*
X15515Y79564D01*
X15597Y79465D01*
X15697Y79383D01*
X15811Y79322D01*
X15934Y79284D01*
X16063Y79272D01*
X16191Y79284D01*
X16314Y79322D01*
X16428Y79383D01*
X16528Y79465D01*
X16610Y79564D01*
X16671Y79678D01*
X16708Y79802D01*
X16721Y79930D01*
X16708Y80058D01*
X16671Y80182D01*
X16610Y80296D01*
X16528Y80395D01*
X16428Y80477D01*
X16314Y80538D01*
X16191Y80576D01*
X16063Y80588D01*
D02*
G37*
%LPD*%
G36*
X17281Y81750D02*
X17237Y81803D01*
X17192Y81850D01*
X17147Y81891D01*
X17101Y81927D01*
X17056Y81958D01*
X17011Y81983D01*
X16966Y82002D01*
X16920Y82016D01*
X16888Y82022D01*
X16855Y82016D01*
X16809Y82002D01*
X16764Y81983D01*
X16719Y81958D01*
X16674Y81927D01*
X16628Y81891D01*
X16583Y81850D01*
X16538Y81803D01*
X16494Y81750D01*
X16421Y82524D01*
X16478Y82477D01*
X16588Y82398D01*
X16641Y82366D01*
X16692Y82339D01*
X16741Y82317D01*
X16789Y82299D01*
X16835Y82287D01*
X16879Y82280D01*
X16888Y82279D01*
X16896Y82280D01*
X16940Y82287D01*
X16986Y82299D01*
X17034Y82317D01*
X17083Y82339D01*
X17134Y82366D01*
X17187Y82398D01*
X17297Y82477D01*
X17354Y82524D01*
X17281Y81750D01*
D02*
G37*
G36*
X15952Y81556D02*
X15886Y81567D01*
X15824Y81574D01*
X15765Y81576D01*
X15710Y81573D01*
X15658Y81566D01*
X15609Y81554D01*
X15564Y81537D01*
X15522Y81515D01*
X15484Y81489D01*
X15449Y81458D01*
X15307Y81670D01*
X15334Y81700D01*
X15360Y81735D01*
X15384Y81776D01*
X15407Y81821D01*
X15428Y81871D01*
X15449Y81927D01*
X15485Y82053D01*
X15502Y82124D01*
X15517Y82200D01*
X15952Y81556D01*
D02*
G37*
G36*
X18268Y82023D02*
X18280Y81892D01*
X18290Y81834D01*
X18303Y81779D01*
X18320Y81729D01*
X18340Y81683D01*
X18363Y81641D01*
X18389Y81604D01*
X18419Y81571D01*
X18242Y81394D01*
X18209Y81423D01*
X18171Y81449D01*
X18130Y81472D01*
X18084Y81492D01*
X18033Y81509D01*
X17979Y81523D01*
X17920Y81533D01*
X17857Y81540D01*
X17790Y81544D01*
X17718Y81545D01*
X18267Y82094D01*
X18268Y82023D01*
D02*
G37*
G36*
X22704Y80577D02*
X22741Y80551D01*
X22783Y80528D01*
X22829Y80508D01*
X22879Y80491D01*
X22934Y80477D01*
X22992Y80467D01*
X23055Y80460D01*
X23123Y80456D01*
X23194Y80455D01*
X22645Y79906D01*
X22644Y79977D01*
X22633Y80108D01*
X22623Y80166D01*
X22609Y80221D01*
X22592Y80271D01*
X22572Y80317D01*
X22549Y80359D01*
X22523Y80396D01*
X22494Y80429D01*
X22671Y80606D01*
X22704Y80577D01*
D02*
G37*
G36*
X11801Y79479D02*
X11839Y79447D01*
X11876Y79418D01*
X11914Y79393D01*
X11952Y79373D01*
X11990Y79355D01*
X12029Y79342D01*
X12067Y79333D01*
X12106Y79327D01*
X12145Y79325D01*
Y79075D01*
X12106Y79073D01*
X12067Y79067D01*
X12029Y79058D01*
X11990Y79045D01*
X11952Y79028D01*
X11914Y79007D01*
X11876Y78982D01*
X11839Y78953D01*
X11801Y78921D01*
X11764Y78885D01*
Y79515D01*
X11801Y79479D01*
D02*
G37*
D38*
X22242Y30738D02*
Y34700D01*
X11242Y33178D02*
X13550Y30870D01*
X20100Y33625D02*
Y36300D01*
Y33625D02*
X20150Y33575D01*
Y30870D02*
Y33575D01*
X22242Y30738D02*
X24800Y28180D01*
X29700Y30380D02*
X29740Y30340D01*
X28100Y28180D02*
X29750D01*
X26450D02*
X28100D01*
X29750Y28210D02*
X31100Y29560D01*
X29750Y28180D02*
Y28210D01*
X11242Y33178D02*
Y36300D01*
X31100Y29560D02*
Y34700D01*
D39*
X27800Y54782D02*
Y55182D01*
X27100Y31015D02*
Y38000D01*
X28475Y46400D02*
Y58317D01*
X31600Y61442D01*
X25954Y78582D02*
X26022Y78513D01*
X25865Y78807D02*
X26022Y78650D01*
X22600Y42500D02*
X27100Y38000D01*
X17713Y79930D02*
X17728Y79915D01*
X21535D01*
X21550Y79900D01*
X16063Y82152D02*
X17713D01*
Y82100D02*
X18813Y81000D01*
X22100D01*
X23200Y79900D01*
Y82070D02*
X24170Y81100D01*
X26800D01*
X27949Y79951D01*
Y79400D02*
Y79951D01*
X26022Y78513D02*
Y78650D01*
X21550Y79900D02*
X22712Y78738D01*
X25797D01*
X25954Y78582D01*
X26022Y78000D02*
Y78513D01*
X25508Y79164D02*
X25865Y78807D01*
X25508Y79164D02*
Y79242D01*
X24850Y79900D02*
X25508Y79242D01*
X13014Y79200D02*
X16175Y82361D01*
X27949Y79400D02*
X28699Y78650D01*
X15200Y30870D02*
X15275Y30945D01*
X26450Y30365D02*
X27100Y31015D01*
X26450Y30350D02*
Y30365D01*
X27800Y31100D02*
X27935Y30965D01*
Y30515D02*
Y30965D01*
Y30515D02*
X28100Y30350D01*
X29750Y31400D02*
X30100Y31750D01*
X29750Y30350D02*
Y31400D01*
X26269Y70300D02*
X31600D01*
X22437Y74131D02*
X26269Y70300D01*
X30100Y63200D02*
X31200D01*
X34000Y60400D01*
X27858Y55240D02*
Y69400D01*
X27800Y55182D02*
X27858Y55240D01*
X30900Y50300D02*
X31800Y51200D01*
X30900Y42975D02*
Y50300D01*
X29655Y41730D02*
X30900Y42975D01*
X31400Y49664D02*
X31800Y50064D01*
X31400Y39150D02*
Y49664D01*
X30100Y37850D02*
X31400Y39150D01*
X31800Y50064D02*
Y50242D01*
X30100Y31750D02*
Y37850D01*
X27800Y54782D02*
X27800Y31100D01*
X28475Y41700D02*
X28505Y41730D01*
X28475Y46400D02*
X29655D01*
X28505Y41730D02*
X29655D01*
X19376Y57309D02*
X22600Y54085D01*
Y42500D02*
Y54085D01*
X34000Y40300D02*
Y60400D01*
X31100Y37400D02*
X34000Y40300D01*
X31100Y34700D02*
Y37400D01*
X20998Y63698D02*
X26700Y69400D01*
X27858D01*
X20069Y45931D02*
Y47200D01*
X31800Y51200D02*
Y59100D01*
X20998Y63698D02*
Y65623D01*
Y62975D02*
Y63698D01*
X11242Y36300D02*
X13310D01*
X15110Y38100D02*
X25400D01*
X13310Y36300D02*
X15110Y38100D01*
X20069Y49487D02*
X21700Y47855D01*
X20069Y49487D02*
Y52800D01*
Y45931D02*
X21700Y44300D01*
X20271Y41800D02*
X20771Y41300D01*
X20100Y41800D02*
X20271D01*
X20771Y41300D02*
X21700D01*
X17326Y71383D02*
X18243Y72300D01*
X17326Y66300D02*
Y71383D01*
X11443Y79200D02*
X13014D01*
X26022Y76571D02*
Y78000D01*
X26374Y76100D02*
Y76219D01*
X26022Y76571D02*
X26374Y76219D01*
X28343Y76100D02*
Y76219D01*
X28699Y76576D01*
Y78000D01*
X17825Y80191D02*
X17853Y80219D01*
X28699Y78000D02*
Y78650D01*
X20972Y65626D02*
X20995D01*
X11300Y63809D02*
Y64409D01*
X10704Y64904D02*
X12600D01*
X10500Y64700D02*
X10704Y64904D01*
X10500Y60300D02*
Y64700D01*
X12800Y66941D02*
X13982D01*
X15048Y65875D01*
Y65800D02*
Y65875D01*
X12000Y66141D02*
X12800Y66941D01*
X19723Y64500D02*
Y64568D01*
X20028Y64872D01*
Y65626D01*
X18176Y57309D02*
X19376D01*
X17376D02*
Y57359D01*
X17301Y57434D02*
X17376Y57359D01*
X17111Y57434D02*
X17301D01*
X16645Y57900D02*
X17111Y57434D01*
X16500Y57900D02*
X16645D01*
X15532Y58868D02*
X16500Y57900D01*
X15532Y58868D02*
Y60800D01*
X19376Y58491D02*
X19422Y58537D01*
Y60754D01*
X19468Y60800D01*
X16469Y62083D02*
X17752Y60800D01*
X16272Y62083D02*
X16469D01*
X16200Y62155D02*
X16272Y62083D01*
X16200Y62155D02*
Y62352D01*
X17752Y60800D02*
X19468D01*
X12450D02*
X15532D01*
X11300Y61950D02*
X12450Y60800D01*
X12900Y57900D02*
X15319D01*
X10500Y60300D02*
X12900Y57900D01*
X20473Y62450D02*
X20998Y62975D01*
X20995Y65626D02*
X20998Y65623D01*
X13900Y61950D02*
X14033Y62083D01*
X14947D01*
X15019Y62155D01*
Y62352D01*
X12600Y64904D02*
X13196Y65500D01*
X13327D01*
X13552Y65725D01*
Y65800D01*
X15048D02*
X15119Y65729D01*
X18076Y61700D02*
X19723D01*
X17326Y62450D02*
X18076Y61700D01*
X19723D02*
X20473Y62450D01*
X21700Y44300D02*
Y44400D01*
X14971Y62400D02*
X15019Y62352D01*
X20276Y63800D02*
X20473D01*
X18926Y62450D02*
X20276Y63800D01*
X18676Y65066D02*
X19468D01*
X20028Y65626D01*
X18676Y66300D02*
X19376Y67000D01*
X20346D01*
X20972Y66374D01*
X31100Y34700D02*
X33100D01*
D40*
X7400Y30700D02*
D03*
Y58350D02*
D03*
X5500Y22200D02*
D03*
X33150D02*
D03*
X25400Y65750D02*
D03*
Y38100D02*
D03*
D41*
X20100Y36300D02*
D03*
X11242D02*
D03*
X20100Y41800D02*
D03*
X11242D02*
D03*
X31600Y61442D02*
D03*
Y70300D02*
D03*
X31800Y59100D02*
D03*
Y50242D02*
D03*
X12000Y57283D02*
D03*
Y66141D02*
D03*
X22242Y34700D02*
D03*
X31100D02*
D03*
X11210Y47200D02*
D03*
X20069D02*
D03*
X11210Y52800D02*
D03*
X20069D02*
D03*
X19000Y69400D02*
D03*
X27858D02*
D03*
D42*
X13550Y28700D02*
D03*
Y30870D02*
D03*
X20150Y28700D02*
D03*
X18500D02*
D03*
X16850D02*
D03*
X15200D02*
D03*
Y30870D02*
D03*
X16850D02*
D03*
X18500D02*
D03*
X20150D02*
D03*
X16063Y82100D02*
D03*
X17713D02*
D03*
Y79930D02*
D03*
X16063D02*
D03*
X21550Y79900D02*
D03*
Y82070D02*
D03*
X23200Y79900D02*
D03*
X24850D02*
D03*
Y82070D02*
D03*
X23200D02*
D03*
X26500Y79900D02*
D03*
Y82070D02*
D03*
X29750Y30350D02*
D03*
Y28180D02*
D03*
X28100Y30350D02*
D03*
X26450D02*
D03*
Y28180D02*
D03*
X28100D02*
D03*
X24800Y30350D02*
D03*
Y28180D02*
D03*
D43*
X32256Y74131D02*
D03*
X22413D02*
D03*
X28319Y76100D02*
D03*
X26350D02*
D03*
D44*
X29655Y46400D02*
D03*
Y48030D02*
D03*
Y40100D02*
D03*
Y41730D02*
D03*
D45*
X16500Y57900D02*
D03*
X15319D02*
D03*
X19376Y57309D02*
D03*
Y58491D02*
D03*
X19468Y60800D02*
D03*
X15532D02*
D03*
D46*
X6000Y81810D02*
D03*
X32900D02*
D03*
X5900Y14800D02*
D03*
X32800D02*
D03*
D47*
X30100Y63200D02*
D03*
X11300Y64409D02*
D03*
X19723Y64500D02*
D03*
D48*
X28475Y41700D02*
D03*
X28475Y46400D02*
D03*
X15100Y69700D02*
D03*
X31400Y78300D02*
D03*
X14943Y77975D02*
D03*
X11443Y79200D02*
D03*
X21700Y41300D02*
D03*
Y44300D02*
D03*
X11900Y69700D02*
D03*
X33100Y34700D02*
D03*
X21700Y47855D02*
D03*
D49*
X32545Y47215D02*
D03*
Y40915D02*
D03*
D50*
X18243Y72300D02*
D03*
D51*
X26022Y78000D02*
D03*
X28699D02*
D03*
D52*
X13552Y65800D02*
D03*
X15048D02*
D03*
D53*
X17376Y57309D02*
D03*
X18176D02*
D03*
D54*
X20972Y65626D02*
D03*
Y66374D02*
D03*
X20028D02*
D03*
Y66000D02*
D03*
Y65626D02*
D03*
D55*
X17326Y63800D02*
D03*
Y62450D02*
D03*
X18926Y63800D02*
D03*
Y62450D02*
D03*
X20473D02*
D03*
Y63800D02*
D03*
X12600Y64904D02*
D03*
Y63554D02*
D03*
X11300Y63300D02*
D03*
Y61950D02*
D03*
X13900Y63300D02*
D03*
Y61950D02*
D03*
D56*
X18676Y66300D02*
D03*
X17326D02*
D03*
X18676Y65066D02*
D03*
X17326D02*
D03*
D57*
X16200Y62352D02*
D03*
X15609D02*
D03*
X15019D02*
D03*
D58*
X15609Y63809D02*
D03*
D59*
X20473Y63800D02*
Y66215D01*
X20314Y66374D02*
X20473Y66215D01*
X20028Y66374D02*
X20314D01*
M02*
