M48
;Layer_Color=9474304
;FILE_FORMAT=2:4
INCH,LZ
;TYPE=PLATED
T1F00S00C0.0170
T2F00S00C0.0280
T3F00S00C0.0461
T4F00S00C0.0472
T5F00S00C0.0500
T6F00S00C0.0570
T7F00S00C0.0600
T8F00S00C0.0630
T9F00S00C0.0810
T10F00S00C0.0830
T11F00S00C0.1400
T12F00S00C0.1540
%
T01
X018243Y0723
T02
X0113Y064409
X019723Y0645
X0301Y0632
T03
X022413Y074131
X02635Y0761
X028319
X032256Y074131
T04
X0165Y0579
X019376Y057309
Y058491
X015319Y0579
T05
X019468Y0608
X015532
T06
X03315Y0222
X0055
X0074Y0307
X0254Y0381
X0074Y05835
X0254Y06575
T07
X0217Y0413
Y0443
X028475Y0464
X028475Y0417
X0331Y0347
X0217Y047855
X0151Y0697
X0119
X014943Y077975
X0314Y0783
X011443Y0792
T08
X011242Y0363
Y0418
X0201
Y0363
X022242Y0347
X0311
X0318Y050242
Y0591
X0316Y061442
X020069Y0528
Y0472
X01121
Y0528
X012Y057283
Y066141
X019Y0694
X027858
X0316Y0703
T09
X01685Y0287
X0185
X02015
Y03087
X0185
X01685
X0248Y03035
X02645
X0281
X02975
Y02818
X0281
X02645
X0248
X0152Y0287
X01355
Y03087
X0152
X016063Y07993
X017713
Y0821
X016063
X02155Y08207
X0232
X02485
X0265
Y0799
X02485
X0232
X02155
T10
X029655Y0401
Y04173
Y0464
Y04803
T11
X0059Y0148
X0328
X0329Y08181
X006
T12
X032545Y040915
Y047215
M30
