G04*
G04 #@! TF.GenerationSoftware,Altium Limited,Altium Designer,22.3.1 (43)*
G04*
G04 Layer_Color=16711935*
%FSLAX24Y24*%
%MOIN*%
G70*
G04*
G04 #@! TF.SameCoordinates,61A4D5B3-3B2A-409B-9F35-3F3BF520A47B*
G04*
G04*
G04 #@! TF.FilePolarity,Negative*
G04*
G01*
G75*
%ADD27C,0.0910*%
%ADD28C,0.0966*%
%ADD29C,0.1170*%
%ADD30C,0.0751*%
%ADD31C,0.1260*%
%ADD32C,0.0847*%
%ADD33C,0.2060*%
%ADD34C,0.0560*%
%ADD35C,0.0960*%
%ADD36C,0.1760*%
%ADD37C,0.0370*%
%ADD60R,0.0760X0.2060*%
%ADD61R,0.0760X0.0910*%
%ADD62R,0.0460X0.0560*%
%ADD63R,0.0493X0.0316*%
%ADD64R,0.0660X0.0660*%
%ADD65R,0.0660X0.0660*%
%ADD66R,0.0454X0.0847*%
%ADD67R,0.0847X0.0454*%
D27*
X7400Y30700D02*
D03*
Y58350D02*
D03*
X5500Y22200D02*
D03*
X33150D02*
D03*
X25400Y65750D02*
D03*
Y38100D02*
D03*
D28*
X20100Y36300D02*
D03*
X11242D02*
D03*
X20100Y41800D02*
D03*
X11242D02*
D03*
X31600Y61442D02*
D03*
Y70300D02*
D03*
X31800Y59100D02*
D03*
Y50242D02*
D03*
X12000Y57283D02*
D03*
Y66141D02*
D03*
X22242Y34700D02*
D03*
X31100D02*
D03*
X11210Y47200D02*
D03*
X20069D02*
D03*
X11210Y52800D02*
D03*
X20069D02*
D03*
X19000Y69400D02*
D03*
X27858D02*
D03*
D29*
X13550Y28700D02*
D03*
Y30870D02*
D03*
X20150Y28700D02*
D03*
X18500D02*
D03*
X16850D02*
D03*
X15200D02*
D03*
Y30870D02*
D03*
X16850D02*
D03*
X18500D02*
D03*
X20150D02*
D03*
X16063Y82100D02*
D03*
X17713D02*
D03*
Y79930D02*
D03*
X16063D02*
D03*
X21550Y79900D02*
D03*
Y82070D02*
D03*
X23200Y79900D02*
D03*
X24850D02*
D03*
Y82070D02*
D03*
X23200D02*
D03*
X26500Y79900D02*
D03*
Y82070D02*
D03*
X29750Y30350D02*
D03*
Y28180D02*
D03*
X28100Y30350D02*
D03*
X26450D02*
D03*
Y28180D02*
D03*
X28100D02*
D03*
X24800Y30350D02*
D03*
Y28180D02*
D03*
D30*
X32256Y74131D02*
D03*
X22413D02*
D03*
X28319Y76100D02*
D03*
X26350D02*
D03*
D31*
X29655Y46400D02*
D03*
Y48030D02*
D03*
Y40100D02*
D03*
Y41730D02*
D03*
D32*
X16500Y57900D02*
D03*
X15319D02*
D03*
X19376Y57309D02*
D03*
Y58491D02*
D03*
X19468Y60800D02*
D03*
X15532D02*
D03*
D33*
X6000Y81810D02*
D03*
X32900D02*
D03*
X5900Y14800D02*
D03*
X32800D02*
D03*
D34*
X30100Y63200D02*
D03*
X11300Y64409D02*
D03*
X19723Y64500D02*
D03*
D35*
X28475Y41700D02*
D03*
X28475Y46400D02*
D03*
X15100Y69700D02*
D03*
X31400Y78300D02*
D03*
X14943Y77975D02*
D03*
X11443Y79200D02*
D03*
X21700Y41300D02*
D03*
Y44300D02*
D03*
X11900Y69700D02*
D03*
X33100Y34700D02*
D03*
X21700Y47855D02*
D03*
D36*
X32545Y47215D02*
D03*
Y40915D02*
D03*
D37*
X18243Y72300D02*
D03*
D60*
X26022Y78000D02*
D03*
X28699D02*
D03*
D61*
X13552Y65800D02*
D03*
X15048D02*
D03*
D62*
X17376Y57309D02*
D03*
X18176D02*
D03*
D63*
X20972Y65626D02*
D03*
Y66374D02*
D03*
X20028D02*
D03*
Y66000D02*
D03*
Y65626D02*
D03*
D64*
X17326Y63800D02*
D03*
Y62450D02*
D03*
X18926Y63800D02*
D03*
Y62450D02*
D03*
X20473D02*
D03*
Y63800D02*
D03*
X12600Y64904D02*
D03*
Y63554D02*
D03*
X11300Y63300D02*
D03*
Y61950D02*
D03*
X13900Y63300D02*
D03*
Y61950D02*
D03*
D65*
X18676Y66300D02*
D03*
X17326D02*
D03*
X18676Y65066D02*
D03*
X17326D02*
D03*
D66*
X16200Y62352D02*
D03*
X15609D02*
D03*
X15019D02*
D03*
D67*
X15609Y63809D02*
D03*
M02*
