G04*
G04 #@! TF.GenerationSoftware,Altium Limited,Altium Designer,22.3.1 (43)*
G04*
G04 Layer_Color=8388736*
%FSLAX24Y24*%
%MOIN*%
G70*
G04*
G04 #@! TF.SameCoordinates,EB2419D6-8F1E-4273-BF56-69E21729E32B*
G04*
G04*
G04 #@! TF.FilePolarity,Negative*
G04*
G01*
G75*
%ADD20R,0.0984X0.1181*%
%ADD29R,0.0394X0.0394*%
%ADD47R,0.0395X0.0435*%
%ADD48O,0.0179X0.0691*%
%ADD49O,0.0691X0.0179*%
%ADD50O,0.0651X0.0435*%
%ADD51R,0.1183X0.0671*%
%ADD52R,0.0533X0.0317*%
%ADD53R,0.1065X0.0750*%
%ADD54R,0.1458X0.1065*%
%ADD55R,0.0671X0.1183*%
%ADD56R,0.0435X0.0356*%
%ADD57R,0.0435X0.0395*%
%ADD58R,0.0671X0.0828*%
%ADD59R,0.0828X0.0671*%
%ADD60R,0.0395X0.0435*%
%ADD61R,0.0435X0.0395*%
%ADD62R,0.0592X0.0356*%
%ADD63R,0.0356X0.0435*%
%ADD64R,0.0513X0.0513*%
%ADD65R,0.0435X0.0474*%
%ADD66R,0.0706X0.1198*%
%ADD67R,0.0750X0.1065*%
%ADD68O,0.1065X0.0356*%
%ADD69O,0.0395X0.0572*%
%ADD70R,0.0561X0.0324*%
%ADD71R,0.1104X0.0513*%
%ADD72R,0.0671X0.0671*%
%ADD73C,0.0671*%
%ADD74C,0.0848*%
%ADD75R,0.0848X0.0848*%
%ADD76R,0.0848X0.0848*%
%ADD77C,0.0789*%
%ADD78C,0.1190*%
%ADD79R,0.0789X0.0789*%
%ADD80C,0.0380*%
%ADD81C,0.0330*%
%ADD82C,0.1860*%
%ADD83C,0.2580*%
D20*
X71060Y28389D02*
D03*
X73619D02*
D03*
D29*
X61600Y39135D02*
D03*
Y38465D02*
D03*
X44000Y46950D02*
D03*
Y46281D02*
D03*
X44750Y38120D02*
D03*
Y38789D02*
D03*
X44900Y33213D02*
D03*
Y32544D02*
D03*
Y27637D02*
D03*
Y26968D02*
D03*
Y22061D02*
D03*
Y21392D02*
D03*
X44800Y19065D02*
D03*
Y19735D02*
D03*
D47*
X71876Y29700D02*
D03*
X71324D02*
D03*
X73926D02*
D03*
X73374D02*
D03*
X60250Y39200D02*
D03*
X59699D02*
D03*
X107898Y43774D02*
D03*
X107347D02*
D03*
X77950Y36596D02*
D03*
X77399D02*
D03*
X100876Y22050D02*
D03*
X100324D02*
D03*
X100876Y23283D02*
D03*
X100324D02*
D03*
X107350Y37006D02*
D03*
X106799D02*
D03*
X106450Y22150D02*
D03*
X107001D02*
D03*
X106976Y23050D02*
D03*
X106424D02*
D03*
X106674Y25900D02*
D03*
X107226D02*
D03*
X106674Y26900D02*
D03*
X107226D02*
D03*
X106126Y35150D02*
D03*
X105574D02*
D03*
X105324Y32900D02*
D03*
X105876D02*
D03*
X105324Y31250D02*
D03*
X105876D02*
D03*
X105976Y33950D02*
D03*
X105424D02*
D03*
X106799Y36256D02*
D03*
X107350D02*
D03*
X70424Y38496D02*
D03*
X70976D02*
D03*
X67124Y33100D02*
D03*
X67676D02*
D03*
X69124Y38446D02*
D03*
X69676D02*
D03*
X70176Y30200D02*
D03*
X69624D02*
D03*
X70176Y30800D02*
D03*
X69624D02*
D03*
X55276Y27000D02*
D03*
X54724D02*
D03*
X55251Y28100D02*
D03*
X54700D02*
D03*
X75500Y41996D02*
D03*
X74949D02*
D03*
X79450D02*
D03*
X78899D02*
D03*
X77050Y34296D02*
D03*
X77601D02*
D03*
X47176Y22350D02*
D03*
X46624D02*
D03*
D48*
X69980Y31515D02*
D03*
X70177D02*
D03*
X70374D02*
D03*
X70570D02*
D03*
X70767D02*
D03*
X70964D02*
D03*
X71161D02*
D03*
X71358D02*
D03*
X71555D02*
D03*
X71752D02*
D03*
X71948D02*
D03*
X72145D02*
D03*
X72342D02*
D03*
X72539D02*
D03*
X72736D02*
D03*
X72933D02*
D03*
X73130D02*
D03*
X73326D02*
D03*
X73523D02*
D03*
X73720D02*
D03*
X73917D02*
D03*
X74114D02*
D03*
X74311D02*
D03*
X74507D02*
D03*
X74704D02*
D03*
Y37440D02*
D03*
X74507D02*
D03*
X74311D02*
D03*
X74114D02*
D03*
X73917D02*
D03*
X73720D02*
D03*
X73523D02*
D03*
X73326D02*
D03*
X73130D02*
D03*
X72933D02*
D03*
X72736D02*
D03*
X72539D02*
D03*
X72342D02*
D03*
X72145D02*
D03*
X71948D02*
D03*
X71752D02*
D03*
X71555D02*
D03*
X71358D02*
D03*
X71161D02*
D03*
X70964D02*
D03*
X70767D02*
D03*
X70570D02*
D03*
X70374D02*
D03*
X70177D02*
D03*
X69980D02*
D03*
D49*
X75305Y32115D02*
D03*
Y32312D02*
D03*
Y32509D02*
D03*
Y32706D02*
D03*
Y32903D02*
D03*
Y33100D02*
D03*
Y33296D02*
D03*
Y33493D02*
D03*
Y33690D02*
D03*
Y33887D02*
D03*
Y34084D02*
D03*
Y34281D02*
D03*
Y34478D02*
D03*
Y34674D02*
D03*
Y34871D02*
D03*
Y35068D02*
D03*
Y35265D02*
D03*
Y35462D02*
D03*
Y35659D02*
D03*
Y35856D02*
D03*
Y36052D02*
D03*
Y36249D02*
D03*
Y36446D02*
D03*
Y36643D02*
D03*
Y36840D02*
D03*
X69380D02*
D03*
Y36643D02*
D03*
Y36446D02*
D03*
Y36249D02*
D03*
Y36052D02*
D03*
Y35856D02*
D03*
Y35659D02*
D03*
Y35462D02*
D03*
Y35265D02*
D03*
Y35068D02*
D03*
Y34871D02*
D03*
Y34674D02*
D03*
Y34478D02*
D03*
Y34281D02*
D03*
Y34084D02*
D03*
Y33887D02*
D03*
Y33690D02*
D03*
Y33493D02*
D03*
Y33296D02*
D03*
Y33100D02*
D03*
Y32903D02*
D03*
Y32706D02*
D03*
Y32509D02*
D03*
Y32312D02*
D03*
Y32115D02*
D03*
D50*
X58127Y24796D02*
D03*
Y24296D02*
D03*
Y23796D02*
D03*
Y23296D02*
D03*
X60273Y24796D02*
D03*
Y24296D02*
D03*
Y23796D02*
D03*
Y23296D02*
D03*
X115245Y43768D02*
D03*
Y44268D02*
D03*
Y44768D02*
D03*
Y45268D02*
D03*
X113100Y43768D02*
D03*
Y44268D02*
D03*
Y44768D02*
D03*
Y45268D02*
D03*
D51*
X60050Y35870D02*
D03*
Y34650D02*
D03*
X47050Y18690D02*
D03*
Y19910D02*
D03*
X54400Y18640D02*
D03*
Y19860D02*
D03*
D52*
X107232Y33730D02*
D03*
Y32981D02*
D03*
X108117Y33356D02*
D03*
X107767Y38356D02*
D03*
X106882Y37981D02*
D03*
Y38730D02*
D03*
X109593Y26009D02*
D03*
X108707Y25635D02*
D03*
Y26383D02*
D03*
X109593Y22659D02*
D03*
X108707Y22285D02*
D03*
Y23033D02*
D03*
X110465Y44124D02*
D03*
X109580Y43750D02*
D03*
Y44498D02*
D03*
X65407Y22746D02*
D03*
X66293Y23120D02*
D03*
Y22372D02*
D03*
X102300Y23233D02*
D03*
Y22485D02*
D03*
X103186Y22859D02*
D03*
X103157Y33124D02*
D03*
Y32376D02*
D03*
X104043Y32750D02*
D03*
X81243Y41596D02*
D03*
X80357Y41222D02*
D03*
Y41970D02*
D03*
X78443Y22222D02*
D03*
Y22970D02*
D03*
X77557Y22596D02*
D03*
X76357Y41870D02*
D03*
Y41122D02*
D03*
X77243Y41496D02*
D03*
D53*
X111600Y21400D02*
D03*
X110025D02*
D03*
D54*
X54920Y34800D02*
D03*
X57480D02*
D03*
X49570Y19300D02*
D03*
X52130D02*
D03*
D55*
X55860Y30550D02*
D03*
X54640D02*
D03*
D56*
X44868Y41301D02*
D03*
Y40750D02*
D03*
X45018Y24573D02*
D03*
Y24021D02*
D03*
X105522Y45348D02*
D03*
Y45900D02*
D03*
X104622Y45348D02*
D03*
Y45900D02*
D03*
X45018Y29598D02*
D03*
Y30149D02*
D03*
X44068Y48845D02*
D03*
Y49396D02*
D03*
X45018Y35174D02*
D03*
Y35725D02*
D03*
D57*
X61650Y25822D02*
D03*
Y25271D02*
D03*
X67350Y23076D02*
D03*
Y22524D02*
D03*
X84650Y20996D02*
D03*
Y21548D02*
D03*
X84700Y25171D02*
D03*
Y25722D02*
D03*
X84900Y28871D02*
D03*
Y29422D02*
D03*
X82200Y34774D02*
D03*
Y35326D02*
D03*
X111261Y43692D02*
D03*
Y44243D02*
D03*
X76650Y37148D02*
D03*
Y36596D02*
D03*
X76750Y32476D02*
D03*
Y31924D02*
D03*
X75550Y30451D02*
D03*
Y29900D02*
D03*
X82200Y41599D02*
D03*
Y41047D02*
D03*
X74950Y29924D02*
D03*
Y30476D02*
D03*
X72750Y41026D02*
D03*
Y40474D02*
D03*
X64400Y24626D02*
D03*
Y24074D02*
D03*
X62500Y23226D02*
D03*
Y22674D02*
D03*
X61550Y23246D02*
D03*
Y22695D02*
D03*
X86154Y41047D02*
D03*
Y41599D02*
D03*
Y31999D02*
D03*
Y31447D02*
D03*
Y35322D02*
D03*
Y34771D02*
D03*
Y38432D02*
D03*
Y37881D02*
D03*
X87300Y25121D02*
D03*
Y25672D02*
D03*
X85850Y25171D02*
D03*
Y25722D02*
D03*
X62500Y28071D02*
D03*
Y28622D02*
D03*
X87550Y28871D02*
D03*
Y29422D02*
D03*
X85950Y28871D02*
D03*
Y29422D02*
D03*
X87100Y21522D02*
D03*
Y20971D02*
D03*
X85800Y20971D02*
D03*
Y21522D02*
D03*
X65050Y28672D02*
D03*
Y28121D02*
D03*
X63850Y28672D02*
D03*
Y28121D02*
D03*
X67800Y31524D02*
D03*
Y32076D02*
D03*
X70450Y40998D02*
D03*
Y40446D02*
D03*
X71900Y40998D02*
D03*
Y40446D02*
D03*
X75450Y41198D02*
D03*
Y40646D02*
D03*
X79500Y41322D02*
D03*
Y40771D02*
D03*
X82200Y31447D02*
D03*
Y31999D02*
D03*
X84177Y31447D02*
D03*
Y31999D02*
D03*
Y34771D02*
D03*
Y35322D02*
D03*
X82200Y37881D02*
D03*
Y38432D02*
D03*
X84250Y37881D02*
D03*
Y38432D02*
D03*
Y41047D02*
D03*
Y41599D02*
D03*
D58*
X78751Y20146D02*
D03*
X77609D02*
D03*
X77599Y18800D02*
D03*
X78741D02*
D03*
D59*
X75450Y20099D02*
D03*
Y21241D02*
D03*
X73750Y21238D02*
D03*
Y20096D02*
D03*
D60*
X82300Y20903D02*
D03*
X81926Y21690D02*
D03*
X82674D02*
D03*
X82250Y25103D02*
D03*
X81876Y25890D02*
D03*
X82624D02*
D03*
X82250Y28853D02*
D03*
X81876Y29640D02*
D03*
X82624D02*
D03*
X67026Y27853D02*
D03*
X67774D02*
D03*
X67400Y28640D02*
D03*
D61*
X88794Y31722D02*
D03*
Y32470D02*
D03*
X88006Y32096D02*
D03*
Y35313D02*
D03*
X88794Y35687D02*
D03*
Y34939D02*
D03*
X88006Y38530D02*
D03*
X88794Y38904D02*
D03*
Y38156D02*
D03*
X88006Y41746D02*
D03*
X88794Y42120D02*
D03*
Y41372D02*
D03*
D62*
X107150Y45348D02*
D03*
Y44974D02*
D03*
Y44600D02*
D03*
X108095D02*
D03*
Y44974D02*
D03*
Y45348D02*
D03*
D63*
X102024Y47400D02*
D03*
X102576D02*
D03*
X102024Y48350D02*
D03*
X102576D02*
D03*
X102526Y50050D02*
D03*
X101974D02*
D03*
D64*
X105672Y43570D02*
D03*
Y44278D02*
D03*
D65*
X103107Y44324D02*
D03*
X103737D02*
D03*
D66*
X41000Y48828D02*
D03*
Y46450D02*
D03*
X37102D02*
D03*
Y48828D02*
D03*
X37202Y29678D02*
D03*
Y27300D02*
D03*
X41100D02*
D03*
Y29678D02*
D03*
X37202Y35328D02*
D03*
Y32950D02*
D03*
X41100D02*
D03*
Y35328D02*
D03*
Y24028D02*
D03*
Y21650D02*
D03*
X37202D02*
D03*
Y24028D02*
D03*
Y40978D02*
D03*
Y38600D02*
D03*
X41100D02*
D03*
Y40978D02*
D03*
D67*
X111000Y26446D02*
D03*
Y24871D02*
D03*
X110274Y38306D02*
D03*
Y36731D02*
D03*
Y33281D02*
D03*
Y34856D02*
D03*
D68*
X75965Y22800D02*
D03*
Y23300D02*
D03*
Y23800D02*
D03*
Y24300D02*
D03*
X74035Y22800D02*
D03*
Y23300D02*
D03*
Y23800D02*
D03*
Y24300D02*
D03*
X70665Y24196D02*
D03*
Y24696D02*
D03*
Y25196D02*
D03*
Y25696D02*
D03*
X68735Y24196D02*
D03*
Y24696D02*
D03*
Y25196D02*
D03*
Y25696D02*
D03*
D69*
X72344Y43136D02*
D03*
X71950D02*
D03*
X71556D02*
D03*
Y44357D02*
D03*
X71950D02*
D03*
X72344D02*
D03*
D70*
X57366Y27176D02*
D03*
Y27550D02*
D03*
Y27924D02*
D03*
X56334D02*
D03*
Y27550D02*
D03*
Y27176D02*
D03*
D71*
X65700Y24815D02*
D03*
Y25878D02*
D03*
D72*
X60050Y45750D02*
D03*
D73*
X59050D02*
D03*
X58050D02*
D03*
X57050D02*
D03*
X56050D02*
D03*
X55050D02*
D03*
D74*
X97776Y42024D02*
D03*
Y40040D02*
D03*
Y38056D02*
D03*
X94824Y42024D02*
D03*
Y40040D02*
D03*
Y38056D02*
D03*
Y32048D02*
D03*
X96300D02*
D03*
X93957Y28576D02*
D03*
X95941D02*
D03*
X97926D02*
D03*
X93957Y25624D02*
D03*
X95941D02*
D03*
X97926D02*
D03*
X103933D02*
D03*
Y27100D02*
D03*
D75*
X97776Y32048D02*
D03*
D76*
X103933Y28576D02*
D03*
D77*
X57650Y39700D02*
D03*
X56650D02*
D03*
X55650D02*
D03*
X21305Y28392D02*
D03*
X18156D02*
D03*
Y46108D02*
D03*
X51850Y23500D02*
D03*
X50850D02*
D03*
X49850D02*
D03*
D78*
X55300Y47500D02*
D03*
Y49670D02*
D03*
X58600Y47500D02*
D03*
X56950D02*
D03*
Y49670D02*
D03*
X58600D02*
D03*
X77750Y49700D02*
D03*
X86000Y47530D02*
D03*
X84350D02*
D03*
X82700D02*
D03*
X81050D02*
D03*
X79400D02*
D03*
Y49700D02*
D03*
X81050D02*
D03*
X82700D02*
D03*
X84350D02*
D03*
X86000D02*
D03*
X69500Y47530D02*
D03*
Y49700D02*
D03*
X77750Y47530D02*
D03*
X76100D02*
D03*
X74450D02*
D03*
X72800D02*
D03*
X71150D02*
D03*
Y49700D02*
D03*
X72800D02*
D03*
X74450D02*
D03*
X76100D02*
D03*
X96850D02*
D03*
X95200D02*
D03*
Y47530D02*
D03*
X96850D02*
D03*
X113650Y49800D02*
D03*
X112000D02*
D03*
X110350D02*
D03*
X108700D02*
D03*
X107050D02*
D03*
Y47630D02*
D03*
X108700D02*
D03*
X110350D02*
D03*
X112000D02*
D03*
X113650D02*
D03*
X105400Y49800D02*
D03*
Y47630D02*
D03*
X115299Y49800D02*
D03*
Y47630D02*
D03*
X23850Y49800D02*
D03*
X22200D02*
D03*
X20550D02*
D03*
D79*
X26344Y46108D02*
D03*
D80*
X73600Y30800D02*
D03*
X71827Y30600D02*
D03*
X73000Y30650D02*
D03*
X73500Y30150D02*
D03*
X74550Y29100D02*
D03*
X67200Y22450D02*
D03*
X80400Y25268D02*
D03*
X81350Y25882D02*
D03*
X93150Y32447D02*
D03*
X99550Y31950D02*
D03*
X104950Y33600D02*
D03*
X70128Y27128D02*
D03*
X91550Y43100D02*
D03*
X105500Y36200D02*
D03*
X109300Y23650D02*
D03*
X105650Y22400D02*
D03*
X109800Y42850D02*
D03*
X90550Y30100D02*
D03*
X93200Y24450D02*
D03*
X93300Y19950D02*
D03*
X100200Y24750D02*
D03*
X106350Y45750D02*
D03*
X101600Y44350D02*
D03*
X107950Y46100D02*
D03*
X53150Y33050D02*
D03*
X72100Y33250D02*
D03*
X69300Y29350D02*
D03*
X57500Y43850D02*
D03*
X67150Y38600D02*
D03*
X58550Y43350D02*
D03*
X75000Y22750D02*
D03*
X88100Y21500D02*
D03*
X74399Y28250D02*
D03*
X72450Y34400D02*
D03*
X63000Y28050D02*
D03*
X102900Y44900D02*
D03*
X102900Y48850D02*
D03*
X92300Y45650D02*
D03*
X79150Y52707D02*
D03*
X77500D02*
D03*
X52850Y51800D02*
D03*
X74250Y27150D02*
D03*
X70150Y29000D02*
D03*
X71200Y27100D02*
D03*
X72150D02*
D03*
X73200D02*
D03*
X75900Y27950D02*
D03*
X70200Y28100D02*
D03*
X70850Y29550D02*
D03*
X80700Y37500D02*
D03*
X82700Y31350D02*
D03*
X38550Y23450D02*
D03*
X37750Y41800D02*
D03*
X44307Y46353D02*
D03*
X89400Y42200D02*
D03*
X77350Y32400D02*
D03*
X89300Y32650D02*
D03*
X82700Y37850D02*
D03*
X81750Y35650D02*
D03*
X114800Y43150D02*
D03*
X79450Y37518D02*
D03*
X88350Y25650D02*
D03*
X82750Y41050D02*
D03*
X87400Y30450D02*
D03*
X74100Y36600D02*
D03*
X88400Y29500D02*
D03*
X69250Y23350D02*
D03*
X60850Y25300D02*
D03*
X73200Y36550D02*
D03*
X82200Y34050D02*
D03*
D81*
X72542Y25421D02*
D03*
X71613Y26299D02*
D03*
X73842Y26321D02*
D03*
X68932Y26774D02*
D03*
X93548Y43260D02*
D03*
X92752Y40748D02*
D03*
X119980Y29882D02*
D03*
X115453Y42559D02*
D03*
X66555Y44370D02*
D03*
X72894Y22638D02*
D03*
X52972Y20827D02*
D03*
X39843Y18110D02*
D03*
X44370D02*
D03*
X62480Y45276D02*
D03*
X48445Y22638D02*
D03*
X110472Y28976D02*
D03*
X114547Y37126D02*
D03*
X35768D02*
D03*
X59764Y41654D02*
D03*
X116358Y28071D02*
D03*
X73799Y42559D02*
D03*
X76063Y30787D02*
D03*
X103228Y41654D02*
D03*
X82402Y45276D02*
D03*
X101870Y40748D02*
D03*
X115453Y26260D02*
D03*
X102323Y28976D02*
D03*
X69272Y44370D02*
D03*
X51614Y48898D02*
D03*
X76516Y35315D02*
D03*
X48898Y47087D02*
D03*
X54783Y20827D02*
D03*
X57500Y33504D02*
D03*
X117717Y25354D02*
D03*
X95532Y46181D02*
D03*
X93268Y50709D02*
D03*
X67913Y43465D02*
D03*
X97343Y35315D02*
D03*
X118622Y41654D02*
D03*
X114095Y32598D02*
D03*
X42559Y45276D02*
D03*
X54331Y41654D02*
D03*
X68366Y44370D02*
D03*
X34409Y34409D02*
D03*
X58858Y19921D02*
D03*
X46634Y24449D02*
D03*
X100965Y38937D02*
D03*
X88287Y22638D02*
D03*
X67461Y42559D02*
D03*
X50709Y18110D02*
D03*
X43917Y37126D02*
D03*
X108661Y41654D02*
D03*
X97343Y26260D02*
D03*
X39843Y39843D02*
D03*
X104587Y42559D02*
D03*
X52972Y38937D02*
D03*
X118622Y48898D02*
D03*
X102776Y20827D02*
D03*
X89193Y53425D02*
D03*
X54783Y42559D02*
D03*
X114095Y34409D02*
D03*
X38937Y28976D02*
D03*
X100059Y49803D02*
D03*
X105945Y18110D02*
D03*
X45728Y42559D02*
D03*
X115906Y23543D02*
D03*
X118169Y47992D02*
D03*
X100059Y20827D02*
D03*
X60669Y47087D02*
D03*
X39390Y38937D02*
D03*
X111378Y30787D02*
D03*
X39843Y43465D02*
D03*
X35768Y53425D02*
D03*
X90098D02*
D03*
X49350Y31693D02*
D03*
X74705Y33504D02*
D03*
X34862Y28071D02*
D03*
X64744Y35315D02*
D03*
X88287Y49803D02*
D03*
X110925Y51614D02*
D03*
X81496Y52520D02*
D03*
X98701Y28976D02*
D03*
X60669Y38031D02*
D03*
X94173Y23543D02*
D03*
X119528Y45276D02*
D03*
X110925Y40748D02*
D03*
X66555Y29882D02*
D03*
X83307Y34409D02*
D03*
X58858Y48898D02*
D03*
X55689Y40748D02*
D03*
X116811Y52520D02*
D03*
X69724Y19921D02*
D03*
X63386Y47087D02*
D03*
X114547Y29882D02*
D03*
X64291Y21732D02*
D03*
X72441D02*
D03*
X38484Y53425D02*
D03*
X64291Y19921D02*
D03*
X39843Y21732D02*
D03*
X114547Y38937D02*
D03*
X118169Y46181D02*
D03*
X53312Y47200D02*
D03*
X85118Y34409D02*
D03*
X95079Y36220D02*
D03*
X114095Y43465D02*
D03*
X74252Y34409D02*
D03*
X101870Y53425D02*
D03*
X118169Y42559D02*
D03*
X45728Y40748D02*
D03*
X82854Y53425D02*
D03*
X74705Y44370D02*
D03*
X116811Y38031D02*
D03*
X64291Y48898D02*
D03*
X81043Y28071D02*
D03*
X49803Y28976D02*
D03*
X78780D02*
D03*
X35315Y25354D02*
D03*
X95984Y45276D02*
D03*
X67913Y28976D02*
D03*
X102323Y21732D02*
D03*
X70630Y41654D02*
D03*
X47539Y44370D02*
D03*
X113189Y28976D02*
D03*
X52067Y29882D02*
D03*
X94626Y37126D02*
D03*
X47087Y27165D02*
D03*
X102323Y41654D02*
D03*
X105945Y39843D02*
D03*
X53878Y20827D02*
D03*
X39390Y31693D02*
D03*
X41654Y50709D02*
D03*
X48898Y34409D02*
D03*
X92815Y46181D02*
D03*
X116811Y25354D02*
D03*
X67913Y39843D02*
D03*
X48898Y36220D02*
D03*
X39390Y20827D02*
D03*
X57047Y30787D02*
D03*
X118622Y38031D02*
D03*
X117717Y30787D02*
D03*
Y43465D02*
D03*
X56595Y20827D02*
D03*
X102776Y28071D02*
D03*
X62933Y47992D02*
D03*
X119980Y46181D02*
D03*
X99154Y24449D02*
D03*
X44823Y42559D02*
D03*
X40295Y44370D02*
D03*
X36220Y34409D02*
D03*
X54331Y43465D02*
D03*
X70630Y50709D02*
D03*
X95984Y21732D02*
D03*
X58406Y29882D02*
D03*
X83760Y53425D02*
D03*
X107303Y40748D02*
D03*
X68366Y46181D02*
D03*
X54331Y21732D02*
D03*
X114095Y19921D02*
D03*
X39843Y36220D02*
D03*
X104134Y41654D02*
D03*
X71535Y19921D02*
D03*
X104134Y52520D02*
D03*
X99606Y34409D02*
D03*
X98248Y49803D02*
D03*
X48445Y20827D02*
D03*
X59764Y48898D02*
D03*
X93268Y21732D02*
D03*
X36220Y19921D02*
D03*
X111831Y33504D02*
D03*
X94626Y28071D02*
D03*
X102323Y27165D02*
D03*
X52972Y24449D02*
D03*
X100965Y31693D02*
D03*
X100059Y42559D02*
D03*
X98248Y53425D02*
D03*
X40295Y20827D02*
D03*
X96890Y25354D02*
D03*
X91457Y48898D02*
D03*
X50256Y37126D02*
D03*
X107756Y41654D02*
D03*
X53425Y36220D02*
D03*
X44370Y43465D02*
D03*
X90098Y20827D02*
D03*
X113189Y27165D02*
D03*
X61575Y28976D02*
D03*
X101417Y34409D02*
D03*
X76063Y18110D02*
D03*
X81043Y31693D02*
D03*
X116811Y50709D02*
D03*
X73799Y44370D02*
D03*
X71083D02*
D03*
X97795Y52520D02*
D03*
X85571Y33504D02*
D03*
X44370Y23543D02*
D03*
X43917Y53425D02*
D03*
X55236Y25354D02*
D03*
X52067Y35315D02*
D03*
X50256Y49803D02*
D03*
X36220Y50709D02*
D03*
X40295Y26260D02*
D03*
X62028Y46181D02*
D03*
X34409Y27165D02*
D03*
X48898Y39843D02*
D03*
X69724D02*
D03*
X42559Y50709D02*
D03*
X99154Y46181D02*
D03*
X91909Y49803D02*
D03*
X76516Y46181D02*
D03*
X82854Y35315D02*
D03*
X50256Y33504D02*
D03*
X70177Y44370D02*
D03*
X63839D02*
D03*
X76516Y42559D02*
D03*
X37579D02*
D03*
X51614Y28976D02*
D03*
X65197Y50709D02*
D03*
X63386Y25354D02*
D03*
X109114Y31693D02*
D03*
X100965Y24449D02*
D03*
X51614Y32598D02*
D03*
X65197Y19921D02*
D03*
X70177Y38937D02*
D03*
X118622Y28976D02*
D03*
X87382Y33504D02*
D03*
X75157Y43465D02*
D03*
X37126Y52520D02*
D03*
X103228Y27165D02*
D03*
X99154Y35315D02*
D03*
X81496Y50709D02*
D03*
X51161Y20827D02*
D03*
X56142Y19921D02*
D03*
X78327Y35315D02*
D03*
X63386Y52520D02*
D03*
X96437Y38937D02*
D03*
X80591Y28976D02*
D03*
X64744Y42559D02*
D03*
X97343Y22638D02*
D03*
X53425Y41654D02*
D03*
X95984Y23543D02*
D03*
X90098Y35315D02*
D03*
X119075Y44370D02*
D03*
X90098Y33504D02*
D03*
X119528Y28976D02*
D03*
X62028Y31693D02*
D03*
X86024Y43465D02*
D03*
X93268Y52520D02*
D03*
X73346Y45276D02*
D03*
X61575Y34409D02*
D03*
X34862Y19016D02*
D03*
X60669Y48898D02*
D03*
X73799Y35315D02*
D03*
X100059Y38937D02*
D03*
X57953Y43465D02*
D03*
X59764Y30787D02*
D03*
X39390Y33504D02*
D03*
X92815Y47992D02*
D03*
X61122Y20827D02*
D03*
X99606Y38031D02*
D03*
X42559Y30787D02*
D03*
X100059Y40748D02*
D03*
X36673Y31693D02*
D03*
X90551Y41654D02*
D03*
X34409Y48898D02*
D03*
X51161Y42559D02*
D03*
X95532Y28071D02*
D03*
X66555Y31693D02*
D03*
X65650Y29882D02*
D03*
X59764Y50709D02*
D03*
X76516Y38937D02*
D03*
X112283Y48898D02*
D03*
X57953Y28976D02*
D03*
X118622Y25354D02*
D03*
X38031Y52520D02*
D03*
X38937Y25354D02*
D03*
X111378Y38031D02*
D03*
X102776Y37126D02*
D03*
X88740Y45276D02*
D03*
X81949Y46181D02*
D03*
X34862Y33504D02*
D03*
X118622Y45276D02*
D03*
X114547Y26260D02*
D03*
X96890Y28976D02*
D03*
X119980Y24449D02*
D03*
X55791Y44472D02*
D03*
X58858Y36220D02*
D03*
X65197D02*
D03*
X50709Y38031D02*
D03*
X76516Y40748D02*
D03*
X118622Y47087D02*
D03*
X68819Y45276D02*
D03*
X35768Y46181D02*
D03*
X39390Y26260D02*
D03*
X77421Y38937D02*
D03*
X65650Y49803D02*
D03*
X102776Y35315D02*
D03*
X43917Y22638D02*
D03*
X107303Y31693D02*
D03*
X76969Y48898D02*
D03*
X59311Y31693D02*
D03*
X63839Y40748D02*
D03*
X59764Y32598D02*
D03*
X97343Y24449D02*
D03*
X103228Y52520D02*
D03*
X67461Y47992D02*
D03*
X43917Y35315D02*
D03*
X59764Y25354D02*
D03*
X115906Y36220D02*
D03*
X43917Y40748D02*
D03*
X34409Y36220D02*
D03*
X91004Y33504D02*
D03*
X97343D02*
D03*
X56142Y36220D02*
D03*
X74705Y35315D02*
D03*
X45728Y46181D02*
D03*
X119980Y35315D02*
D03*
X38031Y18110D02*
D03*
X106850Y43465D02*
D03*
X35315Y47087D02*
D03*
X91004Y28071D02*
D03*
X108209Y42559D02*
D03*
X113642Y44370D02*
D03*
X91909Y24449D02*
D03*
X109114Y28071D02*
D03*
X79685Y48898D02*
D03*
X93720Y49803D02*
D03*
X67913Y27165D02*
D03*
X119980Y44370D02*
D03*
X91004D02*
D03*
X35315Y23543D02*
D03*
X66102Y47087D02*
D03*
X115453Y22638D02*
D03*
X113189Y23543D02*
D03*
X101870Y20827D02*
D03*
X92362Y18110D02*
D03*
X58406Y33504D02*
D03*
X37579Y51614D02*
D03*
X86024Y27165D02*
D03*
X38484Y35315D02*
D03*
X49350Y42559D02*
D03*
X98701Y38031D02*
D03*
X95984Y41654D02*
D03*
X117717Y23543D02*
D03*
X115000Y38031D02*
D03*
X88287Y40748D02*
D03*
X64291Y34409D02*
D03*
X87382Y53425D02*
D03*
X94173Y36220D02*
D03*
X38484Y33504D02*
D03*
X60217Y29882D02*
D03*
X56142Y34409D02*
D03*
X107756Y52520D02*
D03*
X51161Y40748D02*
D03*
X51614Y27165D02*
D03*
X65197Y48898D02*
D03*
X60669Y30787D02*
D03*
X58858Y38031D02*
D03*
X90098Y22638D02*
D03*
X92815Y49803D02*
D03*
X43012Y47992D02*
D03*
X107756Y30787D02*
D03*
X101870Y24449D02*
D03*
X63839Y42559D02*
D03*
X60669Y19921D02*
D03*
X109114Y35315D02*
D03*
X34409Y23543D02*
D03*
X97795Y21732D02*
D03*
Y18110D02*
D03*
X115000Y39843D02*
D03*
X51161Y47992D02*
D03*
X39390Y29882D02*
D03*
X49803Y32598D02*
D03*
X51614Y30787D02*
D03*
X106398Y24449D02*
D03*
X83760Y42559D02*
D03*
Y29882D02*
D03*
X93720Y31693D02*
D03*
X118622Y43465D02*
D03*
X97343Y51614D02*
D03*
X115906Y19921D02*
D03*
X115000D02*
D03*
X61575Y30787D02*
D03*
X73346Y43465D02*
D03*
X48898Y32598D02*
D03*
X67913Y45276D02*
D03*
X80138Y44370D02*
D03*
X114547Y24449D02*
D03*
X84665Y33504D02*
D03*
X71535Y39843D02*
D03*
X43465Y19921D02*
D03*
X111378Y36220D02*
D03*
X109114Y29882D02*
D03*
X112736Y51614D02*
D03*
X63386Y36220D02*
D03*
X36220Y23543D02*
D03*
X75610Y46181D02*
D03*
X34862Y31693D02*
D03*
X42106D02*
D03*
X63839Y49803D02*
D03*
X38031Y38031D02*
D03*
X71535Y21732D02*
D03*
X63386Y48898D02*
D03*
X100965Y33504D02*
D03*
X113189Y21732D02*
D03*
X46181Y25354D02*
D03*
X110925Y28071D02*
D03*
X100512Y38031D02*
D03*
X56142Y21732D02*
D03*
X35768Y31693D02*
D03*
X90098Y46181D02*
D03*
X77874Y25354D02*
D03*
X43465Y18110D02*
D03*
X67008Y45276D02*
D03*
X40748Y18110D02*
D03*
X76969Y28976D02*
D03*
X105492Y42559D02*
D03*
X49803Y21732D02*
D03*
X83307Y27165D02*
D03*
X45276Y18110D02*
D03*
X111831Y26260D02*
D03*
X48445Y28071D02*
D03*
X85118Y30787D02*
D03*
X74252Y45276D02*
D03*
X58858Y39843D02*
D03*
X55236Y18110D02*
D03*
X61575Y27165D02*
D03*
X115453Y20827D02*
D03*
X111378Y32598D02*
D03*
X89646Y21732D02*
D03*
X88287Y28071D02*
D03*
X101870Y26260D02*
D03*
X114547Y51614D02*
D03*
X55689Y33504D02*
D03*
X49803Y52520D02*
D03*
X100059Y28071D02*
D03*
X82402Y48898D02*
D03*
X97343Y20827D02*
D03*
X111831Y53425D02*
D03*
X69724Y50709D02*
D03*
X43012Y40748D02*
D03*
X100965Y42559D02*
D03*
X83760Y46181D02*
D03*
X104587Y40748D02*
D03*
X42559Y18110D02*
D03*
X108661Y39843D02*
D03*
X113642Y46181D02*
D03*
X66102Y43465D02*
D03*
X64744Y29882D02*
D03*
X108661Y38031D02*
D03*
X113642Y28071D02*
D03*
X35315Y50709D02*
D03*
X91457Y52520D02*
D03*
X113189Y18110D02*
D03*
X61122Y28071D02*
D03*
X62480Y36220D02*
D03*
X59764Y27165D02*
D03*
X95079Y28976D02*
D03*
X96437Y20827D02*
D03*
X84213Y30787D02*
D03*
X86929D02*
D03*
X91909Y28071D02*
D03*
X112283Y18110D02*
D03*
X99606Y47087D02*
D03*
X93720Y26260D02*
D03*
X39843Y38031D02*
D03*
X52520Y39843D02*
D03*
X62480Y34409D02*
D03*
X76969Y52520D02*
D03*
X49350Y33504D02*
D03*
X53878Y22638D02*
D03*
X62028Y33504D02*
D03*
X107756Y28976D02*
D03*
X77421Y53425D02*
D03*
X36673Y51614D02*
D03*
X101870Y35315D02*
D03*
X86929Y38031D02*
D03*
X45728Y37126D02*
D03*
X64291Y47087D02*
D03*
X100965Y28071D02*
D03*
X42106Y38937D02*
D03*
X38937Y30787D02*
D03*
X45728Y38937D02*
D03*
X58858Y28976D02*
D03*
X34409Y38031D02*
D03*
X89193Y46181D02*
D03*
X53878Y42559D02*
D03*
X100059Y53425D02*
D03*
X53425Y45276D02*
D03*
X110472Y30787D02*
D03*
X91909Y53425D02*
D03*
X119075Y22638D02*
D03*
X81496Y39843D02*
D03*
X101870Y37126D02*
D03*
X105039Y41654D02*
D03*
X119980Y33504D02*
D03*
X95984Y18110D02*
D03*
X111378Y34409D02*
D03*
X87382Y28071D02*
D03*
X57500Y22638D02*
D03*
X115000Y48898D02*
D03*
X54331Y28976D02*
D03*
X91004Y26260D02*
D03*
X55236Y43465D02*
D03*
X42106Y42559D02*
D03*
X53425Y21732D02*
D03*
X66555Y49803D02*
D03*
X47992Y28976D02*
D03*
X89193Y20827D02*
D03*
X39843Y25354D02*
D03*
X67008D02*
D03*
X98248Y29882D02*
D03*
X34409Y30787D02*
D03*
X116811Y47087D02*
D03*
X94173Y39843D02*
D03*
X93720Y38937D02*
D03*
X56595Y31693D02*
D03*
X97795Y50709D02*
D03*
X81949Y53425D02*
D03*
X102323Y34409D02*
D03*
X119075Y31693D02*
D03*
X43012Y51614D02*
D03*
X99606Y43465D02*
D03*
X84665Y28071D02*
D03*
X52520Y34409D02*
D03*
X54783Y22638D02*
D03*
X50256Y40748D02*
D03*
X100965Y53425D02*
D03*
X117264Y51614D02*
D03*
X112283Y45276D02*
D03*
X41654Y34409D02*
D03*
X99154Y47992D02*
D03*
X62933Y37126D02*
D03*
X87835Y27165D02*
D03*
X80138Y38937D02*
D03*
X80591Y38031D02*
D03*
X76969Y27165D02*
D03*
X73346Y39843D02*
D03*
X35315Y36220D02*
D03*
X48445Y26260D02*
D03*
X66102Y41654D02*
D03*
X111378Y19921D02*
D03*
X79232Y24449D02*
D03*
X95984Y48898D02*
D03*
X40748Y52520D02*
D03*
X59311Y29882D02*
D03*
X118169Y37126D02*
D03*
X39843Y28976D02*
D03*
X68819Y39843D02*
D03*
X101417Y50709D02*
D03*
X108209Y53425D02*
D03*
X52520Y27165D02*
D03*
X48445Y47992D02*
D03*
X116811Y45276D02*
D03*
X77421Y44370D02*
D03*
X108209Y40748D02*
D03*
X118622Y23543D02*
D03*
X35768Y20827D02*
D03*
X67461Y44370D02*
D03*
X99606Y23543D02*
D03*
X119075Y33504D02*
D03*
X49350Y28071D02*
D03*
X51161Y24449D02*
D03*
X68819Y36220D02*
D03*
X101417Y18110D02*
D03*
X111831Y37126D02*
D03*
X52972Y40748D02*
D03*
X87835Y38031D02*
D03*
X34862Y37126D02*
D03*
X50709Y47087D02*
D03*
X48898Y45276D02*
D03*
X77874Y48898D02*
D03*
X38031Y50709D02*
D03*
X103228Y28976D02*
D03*
X62028Y29882D02*
D03*
X94173Y38031D02*
D03*
X78327Y24449D02*
D03*
X108661Y32598D02*
D03*
X117264Y26260D02*
D03*
X74252Y52520D02*
D03*
X42559Y25354D02*
D03*
X119980Y37126D02*
D03*
X61575Y36220D02*
D03*
X52520Y32598D02*
D03*
X112283Y41654D02*
D03*
X89646Y52520D02*
D03*
X49803Y41654D02*
D03*
X112736Y24449D02*
D03*
X60669Y27165D02*
D03*
X97795Y43465D02*
D03*
X113642Y20827D02*
D03*
X84213Y52520D02*
D03*
X52520Y36220D02*
D03*
X48898Y30787D02*
D03*
X113642Y35315D02*
D03*
X38484Y37126D02*
D03*
X115453Y28071D02*
D03*
X115000Y41654D02*
D03*
X89193Y26260D02*
D03*
X106398Y53425D02*
D03*
X64291Y45276D02*
D03*
X113642Y38937D02*
D03*
X44370Y28976D02*
D03*
X98701Y47087D02*
D03*
X71083Y35315D02*
D03*
X86476Y28071D02*
D03*
X118169Y29882D02*
D03*
X78327Y33504D02*
D03*
X47087Y52520D02*
D03*
X47992Y45276D02*
D03*
X95532Y35315D02*
D03*
X49803Y48898D02*
D03*
X40748Y50709D02*
D03*
X117264Y22638D02*
D03*
X62480Y30787D02*
D03*
X94173Y41654D02*
D03*
X51614Y52520D02*
D03*
X48445Y29882D02*
D03*
X48898Y28976D02*
D03*
X112736Y53425D02*
D03*
X114547Y22638D02*
D03*
X67008Y39843D02*
D03*
X90098Y26260D02*
D03*
X47992Y18110D02*
D03*
X99606Y52520D02*
D03*
X49350Y49803D02*
D03*
X39843Y23543D02*
D03*
X39390Y35315D02*
D03*
X112736Y20827D02*
D03*
X98248Y38937D02*
D03*
X101417Y28976D02*
D03*
X45728Y28071D02*
D03*
X103228Y38031D02*
D03*
X80591Y36220D02*
D03*
X54331Y25354D02*
D03*
X114547Y20827D02*
D03*
X85571Y42559D02*
D03*
X92362Y48898D02*
D03*
X68819Y21732D02*
D03*
X35768Y44370D02*
D03*
X112736Y19016D02*
D03*
X119980Y28071D02*
D03*
X53878Y40748D02*
D03*
X87382Y26260D02*
D03*
X70630Y45276D02*
D03*
X83307Y52520D02*
D03*
X53425Y43465D02*
D03*
X113642Y29882D02*
D03*
X51614Y47087D02*
D03*
X98248Y26260D02*
D03*
X76969Y45276D02*
D03*
X57047Y36220D02*
D03*
X106850Y41654D02*
D03*
X78327Y53425D02*
D03*
X38031Y48898D02*
D03*
X119528Y38031D02*
D03*
X45728Y35315D02*
D03*
X75610Y44370D02*
D03*
Y31693D02*
D03*
X76063Y25354D02*
D03*
X88740Y21732D02*
D03*
X76969Y47087D02*
D03*
X110020Y46181D02*
D03*
X39390Y49803D02*
D03*
X101870Y29882D02*
D03*
X67008Y47087D02*
D03*
X85118Y43465D02*
D03*
X43012Y49803D02*
D03*
X90098Y40748D02*
D03*
X38937Y43465D02*
D03*
X47539Y49803D02*
D03*
X56595Y24449D02*
D03*
X114547Y19016D02*
D03*
X41654Y18110D02*
D03*
X116811Y21732D02*
D03*
X85118Y47087D02*
D03*
X53878Y29882D02*
D03*
X35315Y39843D02*
D03*
X66555Y46181D02*
D03*
X50256Y47992D02*
D03*
X42559Y52520D02*
D03*
X48445Y46181D02*
D03*
X113642Y53425D02*
D03*
X90098Y29882D02*
D03*
X65197Y39843D02*
D03*
X62933Y49803D02*
D03*
X51161Y28071D02*
D03*
X70177Y22638D02*
D03*
X51614Y25354D02*
D03*
X113642Y24449D02*
D03*
X115453Y33504D02*
D03*
Y40748D02*
D03*
X55689Y42559D02*
D03*
X95532Y33504D02*
D03*
X98701Y18110D02*
D03*
X101870Y46181D02*
D03*
X116358Y22638D02*
D03*
X43012Y38937D02*
D03*
Y20827D02*
D03*
X61122Y33504D02*
D03*
X108209Y29882D02*
D03*
X106850Y30787D02*
D03*
X113189Y39843D02*
D03*
X52067Y31693D02*
D03*
X90551Y34409D02*
D03*
X34409Y18110D02*
D03*
X76516Y44370D02*
D03*
X104134Y21732D02*
D03*
X115453Y35315D02*
D03*
X43917Y29882D02*
D03*
X47992Y21732D02*
D03*
X108661Y28976D02*
D03*
X52067Y37126D02*
D03*
X97795Y47087D02*
D03*
X100059Y37126D02*
D03*
X48445Y40748D02*
D03*
X107756Y34409D02*
D03*
X99154Y33504D02*
D03*
X91457Y50709D02*
D03*
X35768Y29882D02*
D03*
X49350Y20827D02*
D03*
X89646Y27165D02*
D03*
X105945Y41654D02*
D03*
X92815Y20827D02*
D03*
X70630Y36220D02*
D03*
X57953Y18110D02*
D03*
X47992Y47087D02*
D03*
X115000Y28976D02*
D03*
X114095Y41654D02*
D03*
X53425Y25354D02*
D03*
X100965Y20827D02*
D03*
X118169Y31693D02*
D03*
X115906Y38031D02*
D03*
X51161Y49803D02*
D03*
X42106Y47992D02*
D03*
X93720Y40748D02*
D03*
X83760Y37126D02*
D03*
X50256Y35315D02*
D03*
X52520Y47087D02*
D03*
X117717Y32598D02*
D03*
X38484Y24449D02*
D03*
X83760Y33504D02*
D03*
X35315Y52520D02*
D03*
X59764Y28976D02*
D03*
X116811Y23543D02*
D03*
X93720Y33504D02*
D03*
X100965Y46181D02*
D03*
X43917Y20827D02*
D03*
X89193Y33504D02*
D03*
X108661Y34409D02*
D03*
X52067Y33504D02*
D03*
X81043Y37126D02*
D03*
X77421Y31693D02*
D03*
X107756Y21732D02*
D03*
X73346Y34409D02*
D03*
X35768Y35315D02*
D03*
X91457Y28976D02*
D03*
X60327Y48102D02*
D03*
X91909Y47992D02*
D03*
X56142Y32598D02*
D03*
X105492Y24449D02*
D03*
X50256Y31693D02*
D03*
X115453Y29882D02*
D03*
X62480Y50709D02*
D03*
X94173Y47087D02*
D03*
X104587Y37126D02*
D03*
X113642Y26260D02*
D03*
X68819Y43465D02*
D03*
X63839Y46181D02*
D03*
X87835Y34409D02*
D03*
X47992Y52520D02*
D03*
X38937Y47087D02*
D03*
X53930Y46233D02*
D03*
X69724Y45276D02*
D03*
X67913Y30787D02*
D03*
X50256Y44370D02*
D03*
X56595Y38937D02*
D03*
X47539Y20827D02*
D03*
X43012Y33504D02*
D03*
X95532Y22638D02*
D03*
X47087Y25354D02*
D03*
X97795Y23543D02*
D03*
X43465Y34409D02*
D03*
X54331Y48898D02*
D03*
X118169Y26260D02*
D03*
X99606Y48898D02*
D03*
X39843Y27165D02*
D03*
X84665Y53425D02*
D03*
X38484Y47992D02*
D03*
X63386Y30787D02*
D03*
X55857Y43180D02*
D03*
X57953Y30787D02*
D03*
X39843Y48898D02*
D03*
X65197Y34409D02*
D03*
X77874Y43465D02*
D03*
X38937Y39843D02*
D03*
X68819Y19921D02*
D03*
X36220Y38031D02*
D03*
X48898Y48898D02*
D03*
X117264Y37126D02*
D03*
X49803Y34409D02*
D03*
X85571Y37126D02*
D03*
X104134Y38031D02*
D03*
X95532Y40748D02*
D03*
X47539Y33504D02*
D03*
X117264Y40748D02*
D03*
X51161Y31693D02*
D03*
X89646Y47087D02*
D03*
X43917Y31693D02*
D03*
X67008Y41654D02*
D03*
X107756Y18110D02*
D03*
X59311Y24449D02*
D03*
X114547Y33504D02*
D03*
X54783Y40748D02*
D03*
X71988Y47992D02*
D03*
X94173Y34409D02*
D03*
X96437Y28071D02*
D03*
X37126Y43465D02*
D03*
X47539Y28071D02*
D03*
X67008Y27165D02*
D03*
X39390Y40748D02*
D03*
X93720Y22638D02*
D03*
X111831Y46181D02*
D03*
X115906Y50709D02*
D03*
X38937Y52520D02*
D03*
X91004Y35315D02*
D03*
X42559Y28976D02*
D03*
X72441Y19921D02*
D03*
X36673Y42559D02*
D03*
X42106Y40748D02*
D03*
X63386Y50709D02*
D03*
X54331Y18110D02*
D03*
X65197Y41654D02*
D03*
X35315Y32598D02*
D03*
X42106Y20827D02*
D03*
X117717Y36220D02*
D03*
X94626Y24449D02*
D03*
X67008Y32598D02*
D03*
X116358Y26260D02*
D03*
X36220Y39843D02*
D03*
X59764Y21732D02*
D03*
X77421Y24449D02*
D03*
X38031Y25354D02*
D03*
X57047Y52520D02*
D03*
X64744Y47992D02*
D03*
X94626Y35315D02*
D03*
X117264D02*
D03*
X47539Y37126D02*
D03*
X63386Y34409D02*
D03*
X114547Y35315D02*
D03*
X52972Y47992D02*
D03*
X35315Y48898D02*
D03*
X100512Y39843D02*
D03*
X110925Y29882D02*
D03*
X89193Y28071D02*
D03*
X54331Y38031D02*
D03*
X78780Y25354D02*
D03*
X43917Y28071D02*
D03*
X48445Y37126D02*
D03*
X39390Y24449D02*
D03*
X111831Y38937D02*
D03*
X117717Y38031D02*
D03*
X64291Y43465D02*
D03*
X52520Y38031D02*
D03*
X81043Y29882D02*
D03*
X35315Y19921D02*
D03*
X102776Y46181D02*
D03*
X58858Y30787D02*
D03*
X52520Y28976D02*
D03*
X107303Y22638D02*
D03*
X86024Y39843D02*
D03*
X49803D02*
D03*
X45728Y24449D02*
D03*
X60669Y32598D02*
D03*
X84665Y37126D02*
D03*
X47992Y39843D02*
D03*
X114547Y46181D02*
D03*
X102323Y52520D02*
D03*
X67461Y24449D02*
D03*
X93720Y35315D02*
D03*
X72441Y52520D02*
D03*
X96437Y46181D02*
D03*
X85571Y38937D02*
D03*
X102776Y53425D02*
D03*
X98248Y47992D02*
D03*
X116811Y39843D02*
D03*
Y28976D02*
D03*
X118169Y24449D02*
D03*
X81496Y34409D02*
D03*
X76969Y30787D02*
D03*
X100512Y18110D02*
D03*
X65197Y32598D02*
D03*
X119528Y34409D02*
D03*
X69724Y43465D02*
D03*
X65650Y42559D02*
D03*
X101870Y33504D02*
D03*
X60217Y20827D02*
D03*
X115906Y34409D02*
D03*
X71988Y22638D02*
D03*
X112283Y50709D02*
D03*
X109114Y40748D02*
D03*
X35315Y21732D02*
D03*
X114095Y36220D02*
D03*
X81949Y33504D02*
D03*
X116811Y27165D02*
D03*
X67008Y30787D02*
D03*
X61575Y50709D02*
D03*
X114095Y25354D02*
D03*
X45728Y47992D02*
D03*
X66102Y52520D02*
D03*
X97795Y34409D02*
D03*
X90551Y39843D02*
D03*
X72441Y50709D02*
D03*
X92362Y19921D02*
D03*
X47539Y40748D02*
D03*
X38937Y36220D02*
D03*
X95984Y43465D02*
D03*
X96437Y35315D02*
D03*
X52067Y28071D02*
D03*
X67008Y36220D02*
D03*
X67461Y29882D02*
D03*
X34409Y52520D02*
D03*
X57953Y19921D02*
D03*
X116811Y32598D02*
D03*
X110472Y39843D02*
D03*
X100059Y47992D02*
D03*
X110020Y19016D02*
D03*
X61575Y43465D02*
D03*
X97343Y28071D02*
D03*
X45728Y31693D02*
D03*
X108661Y18110D02*
D03*
X80591Y19921D02*
D03*
X35768Y19016D02*
D03*
X88287Y44370D02*
D03*
X55689Y20827D02*
D03*
X109114Y38937D02*
D03*
X49350Y46181D02*
D03*
X43012Y26260D02*
D03*
X76969Y25354D02*
D03*
X98248Y42559D02*
D03*
X49350Y44370D02*
D03*
X83760Y28071D02*
D03*
X52972Y46181D02*
D03*
X83760Y38937D02*
D03*
X117717Y34409D02*
D03*
X69272Y22638D02*
D03*
X109114Y24449D02*
D03*
X97795Y48898D02*
D03*
X107303Y42559D02*
D03*
X97795Y45276D02*
D03*
X53425Y39843D02*
D03*
X101417Y52520D02*
D03*
X102776Y26260D02*
D03*
X63386Y32598D02*
D03*
X50256Y20827D02*
D03*
X60217Y28071D02*
D03*
X52067Y49803D02*
D03*
X49350Y26260D02*
D03*
X118169Y49803D02*
D03*
X59311Y47992D02*
D03*
X39843Y50709D02*
D03*
X87835Y48898D02*
D03*
X106850Y18110D02*
D03*
X116358Y49803D02*
D03*
X76063Y28976D02*
D03*
X35768Y40748D02*
D03*
X49350D02*
D03*
X51161Y22638D02*
D03*
X60217Y33504D02*
D03*
X113189Y50709D02*
D03*
X34862Y22638D02*
D03*
X37126Y19921D02*
D03*
X100059Y35315D02*
D03*
X90551Y52520D02*
D03*
X50709Y34409D02*
D03*
X39390Y47992D02*
D03*
X49350Y24449D02*
D03*
X74705Y46181D02*
D03*
X57500Y20827D02*
D03*
X80591Y52520D02*
D03*
X64291D02*
D03*
X58858Y21732D02*
D03*
X78780Y50709D02*
D03*
X115000Y36220D02*
D03*
X91004Y47992D02*
D03*
X62933Y29882D02*
D03*
X116811Y34409D02*
D03*
X113642Y22638D02*
D03*
X34862Y40748D02*
D03*
X115000Y18110D02*
D03*
X42559Y48898D02*
D03*
X51614Y36220D02*
D03*
X51161Y37126D02*
D03*
X38937Y32598D02*
D03*
X43465Y30787D02*
D03*
X88287Y20827D02*
D03*
X66102Y19921D02*
D03*
X117264Y28071D02*
D03*
X56142Y48898D02*
D03*
X43012Y37126D02*
D03*
X56142Y25354D02*
D03*
Y18110D02*
D03*
X78780Y30787D02*
D03*
X66555Y42559D02*
D03*
X41201Y31693D02*
D03*
X65650Y46181D02*
D03*
X118622Y34409D02*
D03*
X115453Y31693D02*
D03*
X115000Y50709D02*
D03*
X113642Y31693D02*
D03*
X34862Y46181D02*
D03*
X63386Y43465D02*
D03*
X105492Y20827D02*
D03*
X116811Y30787D02*
D03*
X57047Y32598D02*
D03*
X50709Y27165D02*
D03*
X40748Y19921D02*
D03*
X84213Y21732D02*
D03*
X34409Y19921D02*
D03*
X52520Y43465D02*
D03*
X34862Y51614D02*
D03*
X90551Y38031D02*
D03*
X54331Y32598D02*
D03*
X105039Y18110D02*
D03*
X52972Y35315D02*
D03*
X43012Y53425D02*
D03*
X114095Y23543D02*
D03*
X104587Y31693D02*
D03*
X115453Y19016D02*
D03*
X111378Y18110D02*
D03*
X115000Y23543D02*
D03*
X63386Y28976D02*
D03*
X66102Y27165D02*
D03*
X63839Y33504D02*
D03*
X95079Y23543D02*
D03*
X55689Y22638D02*
D03*
X89193Y24449D02*
D03*
X97343Y46181D02*
D03*
X119528Y23543D02*
D03*
X71535Y36220D02*
D03*
X59311Y33504D02*
D03*
X111831Y31693D02*
D03*
X52520Y41654D02*
D03*
X118169Y35315D02*
D03*
X100512Y28976D02*
D03*
X119075Y24449D02*
D03*
X95984Y30787D02*
D03*
X97343Y42559D02*
D03*
X110472Y23543D02*
D03*
X94173Y52520D02*
D03*
X82402Y27165D02*
D03*
X111831Y42559D02*
D03*
X114095Y21732D02*
D03*
X44370Y34409D02*
D03*
X55689Y24449D02*
D03*
X58406Y20827D02*
D03*
X42559Y19921D02*
D03*
X100965Y26260D02*
D03*
X101417Y27165D02*
D03*
X78327Y28071D02*
D03*
X113189Y52520D02*
D03*
X109114Y19016D02*
D03*
X62480Y27165D02*
D03*
X46634Y20827D02*
D03*
X102323Y38031D02*
D03*
X112736Y22638D02*
D03*
X48445Y33504D02*
D03*
X85571Y44370D02*
D03*
X105945Y21732D02*
D03*
X61122Y47992D02*
D03*
X119528Y27165D02*
D03*
X47992Y30787D02*
D03*
X53878Y31693D02*
D03*
X84665Y46181D02*
D03*
X85118Y38031D02*
D03*
X108209Y35315D02*
D03*
X88740Y52520D02*
D03*
X88287Y37126D02*
D03*
X57953Y36220D02*
D03*
X78780Y45276D02*
D03*
X91004Y53425D02*
D03*
X59311Y35315D02*
D03*
X40295Y53425D02*
D03*
X87382Y42559D02*
D03*
X57500Y40748D02*
D03*
X48898Y25354D02*
D03*
X50709Y45276D02*
D03*
X107756Y23543D02*
D03*
X116358Y53425D02*
D03*
X111831Y28071D02*
D03*
X116811Y48898D02*
D03*
X95984Y34409D02*
D03*
X109114Y51614D02*
D03*
X52972Y26260D02*
D03*
X48898Y27165D02*
D03*
X91457Y45276D02*
D03*
X99154Y26260D02*
D03*
X61575Y45276D02*
D03*
X97343Y29882D02*
D03*
X103681Y40748D02*
D03*
Y20827D02*
D03*
X94626Y26260D02*
D03*
X61122Y35315D02*
D03*
X35768Y24449D02*
D03*
X60217Y31693D02*
D03*
X62028Y49803D02*
D03*
X85118Y21732D02*
D03*
X98248Y22638D02*
D03*
X67008Y48898D02*
D03*
X92815Y53425D02*
D03*
X35768Y42559D02*
D03*
X53878Y33504D02*
D03*
X119980Y38937D02*
D03*
X40748Y30787D02*
D03*
X34862Y47992D02*
D03*
X61575Y48898D02*
D03*
X63839Y35315D02*
D03*
X42106Y26260D02*
D03*
X95532Y38937D02*
D03*
X78327Y46181D02*
D03*
X119075Y28071D02*
D03*
X62933Y46181D02*
D03*
X47539Y31693D02*
D03*
X80138Y53425D02*
D03*
X41654Y30787D02*
D03*
X45728Y22638D02*
D03*
X67461Y40748D02*
D03*
X34409Y41654D02*
D03*
X43465Y38031D02*
D03*
X93720Y24449D02*
D03*
X49803Y18110D02*
D03*
X78780Y43465D02*
D03*
X117717Y39843D02*
D03*
X111831Y51614D02*
D03*
X106398Y20827D02*
D03*
X111378Y39843D02*
D03*
X93720Y46181D02*
D03*
X76063Y45276D02*
D03*
X110472Y41654D02*
D03*
X95079Y27165D02*
D03*
X100512Y34409D02*
D03*
X86929Y27165D02*
D03*
X88740Y34409D02*
D03*
X95079D02*
D03*
X113642Y42559D02*
D03*
X95532Y20827D02*
D03*
X55236Y21732D02*
D03*
X61122Y49803D02*
D03*
X94626Y33504D02*
D03*
X41654Y52520D02*
D03*
X96890Y30787D02*
D03*
X107303Y29882D02*
D03*
X43465Y47087D02*
D03*
X78780Y36220D02*
D03*
X90551Y21732D02*
D03*
X80591Y48898D02*
D03*
X107303Y24449D02*
D03*
X105492Y29882D02*
D03*
X102323Y39843D02*
D03*
X99154Y40748D02*
D03*
X38484Y29882D02*
D03*
X62028Y28071D02*
D03*
X65650Y38937D02*
D03*
X51161Y29882D02*
D03*
X65197Y47087D02*
D03*
X96890Y27165D02*
D03*
X88740Y47087D02*
D03*
X115000Y21732D02*
D03*
X108209Y31693D02*
D03*
X49803Y47087D02*
D03*
X119980Y40748D02*
D03*
X66102Y45276D02*
D03*
X35768Y51614D02*
D03*
X111378Y28976D02*
D03*
X57953Y38031D02*
D03*
X116811Y41654D02*
D03*
X109567Y52520D02*
D03*
X114095D02*
D03*
X67913Y41654D02*
D03*
X111378D02*
D03*
X47992Y27165D02*
D03*
X38484Y42559D02*
D03*
X43917Y44370D02*
D03*
X71535Y38031D02*
D03*
X97795Y30787D02*
D03*
X119075Y35315D02*
D03*
X75157Y52520D02*
D03*
X66102Y48898D02*
D03*
X119075Y40748D02*
D03*
X38484Y49803D02*
D03*
X45728Y33504D02*
D03*
X61575Y32598D02*
D03*
X59764Y19921D02*
D03*
X65197Y43465D02*
D03*
X54783Y38937D02*
D03*
X52972Y37126D02*
D03*
X52067Y47992D02*
D03*
X58406Y31693D02*
D03*
X99606Y27165D02*
D03*
X92362Y50709D02*
D03*
X118169Y22638D02*
D03*
X109114Y46181D02*
D03*
X66555Y40748D02*
D03*
X43465Y25354D02*
D03*
X115000Y30787D02*
D03*
X82854Y33504D02*
D03*
X99154Y28071D02*
D03*
X58347Y40690D02*
D03*
X93720Y47992D02*
D03*
X69272Y31693D02*
D03*
X42106Y49803D02*
D03*
X62028Y42559D02*
D03*
X105492Y28071D02*
D03*
X94626Y46181D02*
D03*
X34862Y49803D02*
D03*
X91909Y22638D02*
D03*
X115906Y21732D02*
D03*
X113189Y38031D02*
D03*
X39390Y44370D02*
D03*
X119528Y32598D02*
D03*
X108661Y30787D02*
D03*
X43465Y50709D02*
D03*
X47539Y46181D02*
D03*
X95984Y27165D02*
D03*
X98701Y39843D02*
D03*
X67008Y43465D02*
D03*
X42106Y37126D02*
D03*
X62480Y48898D02*
D03*
X94626Y20827D02*
D03*
X35315Y27165D02*
D03*
X64744Y44370D02*
D03*
X61122Y46181D02*
D03*
X34862Y20827D02*
D03*
X93720Y53425D02*
D03*
X95984Y38031D02*
D03*
X56595Y40748D02*
D03*
X43012Y42559D02*
D03*
X45728Y29882D02*
D03*
X81043Y53425D02*
D03*
X65197Y30787D02*
D03*
X96890Y18110D02*
D03*
X86476Y24449D02*
D03*
X44823Y53425D02*
D03*
X50709Y36220D02*
D03*
X109567Y18110D02*
D03*
X46181Y30787D02*
D03*
X70630Y21732D02*
D03*
X76969Y43465D02*
D03*
X112736Y42559D02*
D03*
X56595Y29882D02*
D03*
X34862Y35315D02*
D03*
X62933D02*
D03*
X78780Y21732D02*
D03*
X92362Y52520D02*
D03*
X119980Y42559D02*
D03*
X117264Y24449D02*
D03*
X43465Y43465D02*
D03*
X42559Y36220D02*
D03*
X43917Y26260D02*
D03*
X47992Y34409D02*
D03*
X40748Y43465D02*
D03*
X37126Y18110D02*
D03*
X84213Y27165D02*
D03*
X38484Y40748D02*
D03*
X59311Y46181D02*
D03*
X113189Y34409D02*
D03*
X56595Y33504D02*
D03*
X91457Y21732D02*
D03*
X86929Y43465D02*
D03*
X110472Y52520D02*
D03*
X115906Y25354D02*
D03*
X95079D02*
D03*
X90551Y27165D02*
D03*
X96437Y40748D02*
D03*
X67913Y25354D02*
D03*
X78327Y31693D02*
D03*
X76063Y50709D02*
D03*
X91909Y20827D02*
D03*
X42559Y47087D02*
D03*
X47539Y47992D02*
D03*
X95532Y26260D02*
D03*
X52067Y24449D02*
D03*
X88287Y53425D02*
D03*
X49350Y47992D02*
D03*
X41201Y44370D02*
D03*
X41654Y19921D02*
D03*
X38484Y26260D02*
D03*
X117264Y31693D02*
D03*
X65650Y44370D02*
D03*
X36220Y52520D02*
D03*
X54725Y44312D02*
D03*
X62480Y32598D02*
D03*
X71050Y32400D02*
D03*
X35315Y30787D02*
D03*
X119528Y39843D02*
D03*
X61575Y52520D02*
D03*
X96437Y24449D02*
D03*
X91004Y38937D02*
D03*
X118622Y39843D02*
D03*
X39390Y37126D02*
D03*
X116358Y24449D02*
D03*
X38484Y44370D02*
D03*
X57047Y18110D02*
D03*
X63839Y47992D02*
D03*
X58858Y27165D02*
D03*
X65197Y45276D02*
D03*
X84213Y48898D02*
D03*
Y43465D02*
D03*
X57953Y27165D02*
D03*
X49803D02*
D03*
X81043Y35315D02*
D03*
X89646Y28976D02*
D03*
X115906Y30787D02*
D03*
X95984Y47087D02*
D03*
X117717Y41654D02*
D03*
X93720Y37126D02*
D03*
X87382Y40748D02*
D03*
X103228Y18110D02*
D03*
X69272Y42559D02*
D03*
X119075Y26260D02*
D03*
X53425Y34409D02*
D03*
X85118Y39843D02*
D03*
X55236Y41654D02*
D03*
X42106Y28071D02*
D03*
X58858Y32598D02*
D03*
X34409Y47087D02*
D03*
X65650Y47992D02*
D03*
X38484Y31693D02*
D03*
X92815Y22638D02*
D03*
X119980Y31693D02*
D03*
X58406Y22638D02*
D03*
X117717Y28976D02*
D03*
X94626Y53425D02*
D03*
X114547Y47992D02*
D03*
X102776Y40748D02*
D03*
X84665D02*
D03*
X71535Y52520D02*
D03*
X41201Y26260D02*
D03*
X42106Y22638D02*
D03*
X114547Y44370D02*
D03*
X67913Y19921D02*
D03*
X100965Y35315D02*
D03*
X118622Y36220D02*
D03*
X45728Y44370D02*
D03*
X93268Y47087D02*
D03*
X52520Y52520D02*
D03*
X90098Y47992D02*
D03*
X72441Y36220D02*
D03*
X104587Y29882D02*
D03*
X105492Y38937D02*
D03*
X97343Y37126D02*
D03*
X95532Y29882D02*
D03*
X89193Y49803D02*
D03*
X41201Y51614D02*
D03*
X43465Y39843D02*
D03*
X68819Y32598D02*
D03*
X104134Y18110D02*
D03*
X78327Y44370D02*
D03*
X117264D02*
D03*
X98248Y33504D02*
D03*
X101417Y39843D02*
D03*
X41201Y53425D02*
D03*
X110472Y19921D02*
D03*
X66102Y50709D02*
D03*
X104587Y24449D02*
D03*
X114095Y18110D02*
D03*
X99606Y21732D02*
D03*
X86476Y44370D02*
D03*
X83307Y21732D02*
D03*
X95079Y18110D02*
D03*
X91909Y46181D02*
D03*
X102323Y18110D02*
D03*
X52972Y44370D02*
D03*
X119528Y43465D02*
D03*
X108209Y38937D02*
D03*
X102323Y25354D02*
D03*
X103228Y50709D02*
D03*
X99606D02*
D03*
X99154Y20827D02*
D03*
X109114Y42559D02*
D03*
X61575Y47087D02*
D03*
X53425Y52520D02*
D03*
X118169Y44370D02*
D03*
X89646Y48898D02*
D03*
X59311Y28071D02*
D03*
X34409Y25354D02*
D03*
X53878Y38937D02*
D03*
X99606Y41654D02*
D03*
X71083Y42559D02*
D03*
X53878Y37126D02*
D03*
X115000Y27165D02*
D03*
X39843Y52520D02*
D03*
X99154Y37126D02*
D03*
X62028Y44370D02*
D03*
X110925Y31693D02*
D03*
X88740Y43465D02*
D03*
X109567Y19921D02*
D03*
X101417Y25354D02*
D03*
X74252Y50709D02*
D03*
X61122Y37126D02*
D03*
X48445Y44370D02*
D03*
X114095Y48898D02*
D03*
X110472Y43465D02*
D03*
X49350Y22638D02*
D03*
X40295Y31693D02*
D03*
X115000Y34409D02*
D03*
X113189Y30787D02*
D03*
X112283Y19921D02*
D03*
X84213Y45276D02*
D03*
X76063Y52520D02*
D03*
X57953Y21732D02*
D03*
X54331Y36220D02*
D03*
X39843Y47087D02*
D03*
X49803Y43465D02*
D03*
X80591Y27165D02*
D03*
X57500Y37126D02*
D03*
X103228Y45276D02*
D03*
X112283Y52520D02*
D03*
X91004Y37126D02*
D03*
X102776Y31693D02*
D03*
X50709Y39843D02*
D03*
X94626Y22638D02*
D03*
X78780Y48898D02*
D03*
X48445Y35315D02*
D03*
X47539D02*
D03*
X80591Y34409D02*
D03*
X101417Y21732D02*
D03*
X86024Y30787D02*
D03*
X98701Y25354D02*
D03*
X101870Y28071D02*
D03*
X38484Y38937D02*
D03*
X118622Y32598D02*
D03*
X91004Y49803D02*
D03*
X73346Y52520D02*
D03*
X105039Y38031D02*
D03*
X52972Y49803D02*
D03*
X96890Y21732D02*
D03*
X90098Y37126D02*
D03*
X119528Y41654D02*
D03*
X56142D02*
D03*
X118169Y40748D02*
D03*
X37579Y53425D02*
D03*
X35768Y26260D02*
D03*
X47992Y48898D02*
D03*
X115906D02*
D03*
X57500Y31693D02*
D03*
X34862Y24449D02*
D03*
X36220Y21732D02*
D03*
X98701Y27165D02*
D03*
X114547Y40748D02*
D03*
X100512Y25354D02*
D03*
X90551Y48898D02*
D03*
X47992Y41654D02*
D03*
X53425Y38031D02*
D03*
X115453Y37126D02*
D03*
X48445Y31693D02*
D03*
X82854Y28071D02*
D03*
X44370Y52520D02*
D03*
X111831Y22638D02*
D03*
X114095Y30787D02*
D03*
X38031Y39843D02*
D03*
X35315Y28976D02*
D03*
X90551Y50709D02*
D03*
X83760Y44370D02*
D03*
X63386Y27165D02*
D03*
X119075Y38937D02*
D03*
X70177Y42559D02*
D03*
X35768Y33504D02*
D03*
X43465Y48898D02*
D03*
X42106Y51614D02*
D03*
X57500Y29882D02*
D03*
X58406Y37126D02*
D03*
X119528Y30787D02*
D03*
X103228Y39843D02*
D03*
X91909Y26260D02*
D03*
X96437Y22638D02*
D03*
X98248Y20827D02*
D03*
X93268Y18110D02*
D03*
X90551Y30787D02*
D03*
X38031D02*
D03*
X49803D02*
D03*
X39390Y42559D02*
D03*
X50256Y29882D02*
D03*
X59652Y47020D02*
D03*
X111831Y29882D02*
D03*
X38031Y43465D02*
D03*
X108661Y19921D02*
D03*
X35768Y47992D02*
D03*
X86476Y33504D02*
D03*
X91457Y27165D02*
D03*
X78327Y29882D02*
D03*
X64291Y50709D02*
D03*
X46634Y26260D02*
D03*
X40748Y25354D02*
D03*
X50709Y43465D02*
D03*
X38937Y50709D02*
D03*
X113189Y25354D02*
D03*
X91004Y40748D02*
D03*
X56142Y38031D02*
D03*
X100512Y41654D02*
D03*
X94173Y21732D02*
D03*
X36673Y19016D02*
D03*
X113642Y40748D02*
D03*
X54783Y24449D02*
D03*
X34862Y29882D02*
D03*
X95079Y48898D02*
D03*
X52520Y25354D02*
D03*
X38937Y34409D02*
D03*
X65197Y52520D02*
D03*
X42106Y33504D02*
D03*
X114095Y28976D02*
D03*
X57047Y19921D02*
D03*
X91004Y24449D02*
D03*
X38031Y34409D02*
D03*
X88287Y47992D02*
D03*
X62933Y31693D02*
D03*
X47992Y32598D02*
D03*
X99154Y22638D02*
D03*
X83760Y40748D02*
D03*
X43012Y28071D02*
D03*
X90551Y45276D02*
D03*
X40295Y37126D02*
D03*
X113189Y19921D02*
D03*
X56595Y37126D02*
D03*
X35768Y28071D02*
D03*
X48898Y43465D02*
D03*
X45728Y51614D02*
D03*
X65650Y40748D02*
D03*
X47992Y25354D02*
D03*
X95532Y37126D02*
D03*
X60669Y28976D02*
D03*
X99606Y25354D02*
D03*
X110472Y18110D02*
D03*
X84665Y24449D02*
D03*
X82854Y37126D02*
D03*
X94173Y45276D02*
D03*
X95532Y42559D02*
D03*
X34409Y21732D02*
D03*
X59311Y22638D02*
D03*
X36220Y32598D02*
D03*
X110925Y42559D02*
D03*
X45728Y49803D02*
D03*
X100965Y29882D02*
D03*
X43917Y24449D02*
D03*
X67461Y46181D02*
D03*
X119075Y37126D02*
D03*
X96890Y39843D02*
D03*
X67913Y47087D02*
D03*
X87382Y37126D02*
D03*
X60217Y44370D02*
D03*
X95079Y30787D02*
D03*
X63386Y41654D02*
D03*
X38484Y28071D02*
D03*
X34862Y26260D02*
D03*
X47539Y24449D02*
D03*
X86476Y37126D02*
D03*
X77874Y21732D02*
D03*
X104134Y43465D02*
D03*
X105492Y40748D02*
D03*
X50256Y26260D02*
D03*
X38937Y45276D02*
D03*
X62933Y44370D02*
D03*
X53425Y18110D02*
D03*
X117264Y42559D02*
D03*
X78327Y40748D02*
D03*
X100512Y27165D02*
D03*
X50709Y41654D02*
D03*
X96890Y23543D02*
D03*
X52520Y21732D02*
D03*
X68366Y35315D02*
D03*
X107303Y53425D02*
D03*
X34409Y39843D02*
D03*
X43917Y51614D02*
D03*
X119075Y42559D02*
D03*
X57602Y42661D02*
D03*
X72441Y45276D02*
D03*
X63386Y38031D02*
D03*
X82402Y52520D02*
D03*
X90098Y38937D02*
D03*
X64291Y27165D02*
D03*
X36673Y44370D02*
D03*
X64744Y49803D02*
D03*
X67008Y34409D02*
D03*
X53878Y49803D02*
D03*
X62028Y35315D02*
D03*
X70630Y43465D02*
D03*
X116358Y51614D02*
D03*
X103681Y53425D02*
D03*
X78327Y38937D02*
D03*
X86476Y46181D02*
D03*
X102776Y29882D02*
D03*
X71083Y22638D02*
D03*
X66555Y24449D02*
D03*
X52972Y22638D02*
D03*
X105945Y27165D02*
D03*
X41201Y37126D02*
D03*
X119980Y26260D02*
D03*
X110020Y51614D02*
D03*
X116811Y43465D02*
D03*
X87382Y38937D02*
D03*
X111831Y19016D02*
D03*
X104134Y39843D02*
D03*
X100965Y47992D02*
D03*
X98248Y24449D02*
D03*
X67913Y52520D02*
D03*
X111831Y40748D02*
D03*
X48898Y52520D02*
D03*
X34862Y53425D02*
D03*
X109114D02*
D03*
X93268Y45276D02*
D03*
X56536Y42501D02*
D03*
X92362Y47087D02*
D03*
X57500Y38937D02*
D03*
X95532Y24449D02*
D03*
X57047Y38031D02*
D03*
X113189Y36220D02*
D03*
X96890Y50709D02*
D03*
X75610Y38937D02*
D03*
X88740Y28976D02*
D03*
X71535Y45276D02*
D03*
X42559Y23543D02*
D03*
X52972Y42559D02*
D03*
X39843Y32598D02*
D03*
X71988Y35315D02*
D03*
X34862Y38937D02*
D03*
X113642Y51614D02*
D03*
X60217Y22638D02*
D03*
X59764Y52520D02*
D03*
X80591Y30787D02*
D03*
X47539Y26260D02*
D03*
X69272Y38937D02*
D03*
X117717Y45276D02*
D03*
X87835Y52520D02*
D03*
Y43465D02*
D03*
X64744Y46181D02*
D03*
X119075Y47992D02*
D03*
X43012Y31693D02*
D03*
X36673Y53425D02*
D03*
X50709Y48898D02*
D03*
X107303Y19016D02*
D03*
X86929Y48898D02*
D03*
X98248Y46181D02*
D03*
X40295Y42559D02*
D03*
X94626Y38937D02*
D03*
X81043D02*
D03*
X82402Y30787D02*
D03*
X86929Y45276D02*
D03*
X77421Y42559D02*
D03*
X117264Y33504D02*
D03*
X74527Y24664D02*
D03*
X64744Y33504D02*
D03*
X94173Y27165D02*
D03*
X90098Y24449D02*
D03*
X39390Y51614D02*
D03*
X106850Y52520D02*
D03*
X115453Y46181D02*
D03*
X39390Y53425D02*
D03*
X118169Y33504D02*
D03*
X47087Y18110D02*
D03*
X96890Y45276D02*
D03*
X106398Y29882D02*
D03*
X108209Y19016D02*
D03*
X43465Y23543D02*
D03*
X38937Y38031D02*
D03*
Y27165D02*
D03*
X103228Y34409D02*
D03*
X119528Y25354D02*
D03*
X39843Y30787D02*
D03*
X114095Y50709D02*
D03*
X100059Y26260D02*
D03*
X67913Y36220D02*
D03*
X43465Y28976D02*
D03*
X74252Y39843D02*
D03*
X73346Y41654D02*
D03*
X55236Y19921D02*
D03*
X50709Y32598D02*
D03*
Y30787D02*
D03*
X101870Y42559D02*
D03*
X103681Y38937D02*
D03*
X110020Y53425D02*
D03*
X54331Y39843D02*
D03*
X58406Y28071D02*
D03*
X49350Y38937D02*
D03*
X119528Y47087D02*
D03*
X62480Y52520D02*
D03*
X106398Y28071D02*
D03*
X65650Y31693D02*
D03*
X117717Y27165D02*
D03*
X90551Y36220D02*
D03*
X67913Y32598D02*
D03*
X114547Y31693D02*
D03*
X104587Y20827D02*
D03*
X63839Y31693D02*
D03*
X61122Y29882D02*
D03*
X80591Y43465D02*
D03*
X38484Y51614D02*
D03*
X62028Y20827D02*
D03*
X35315Y34409D02*
D03*
X53878Y47992D02*
D03*
X86929Y39843D02*
D03*
X85571Y40748D02*
D03*
X42559Y38031D02*
D03*
X77421Y29882D02*
D03*
X93720Y20827D02*
D03*
X50256Y42559D02*
D03*
X48898Y41654D02*
D03*
X103228Y21732D02*
D03*
X60217Y35315D02*
D03*
X46181Y28976D02*
D03*
X54331Y47087D02*
D03*
X41654Y25354D02*
D03*
X63386Y23543D02*
D03*
X46181Y52520D02*
D03*
X118169Y28071D02*
D03*
X57047Y41654D02*
D03*
X114095Y45276D02*
D03*
X39843Y34409D02*
D03*
X48898Y38031D02*
D03*
X113189Y32598D02*
D03*
X57047Y25354D02*
D03*
X85118Y45276D02*
D03*
X67008Y38031D02*
D03*
X38937Y18110D02*
D03*
X117264Y38937D02*
D03*
X91457Y47087D02*
D03*
X87382Y47992D02*
D03*
X93720Y42559D02*
D03*
X89193Y22638D02*
D03*
X38937Y48898D02*
D03*
X35768Y38937D02*
D03*
X84665Y44370D02*
D03*
X86929Y47087D02*
D03*
X34409Y45276D02*
D03*
X47539Y29882D02*
D03*
X48445Y38937D02*
D03*
X43465Y52520D02*
D03*
X50709Y28976D02*
D03*
X38031Y19921D02*
D03*
X44823Y44370D02*
D03*
X35315Y38031D02*
D03*
X68366Y42559D02*
D03*
X115000Y32598D02*
D03*
X91004Y22638D02*
D03*
X42559Y39843D02*
D03*
X113642Y33504D02*
D03*
X58858Y34409D02*
D03*
X46181Y18110D02*
D03*
X101870Y38937D02*
D03*
X115906Y32598D02*
D03*
X119075Y46181D02*
D03*
X47992Y43465D02*
D03*
X42106Y53425D02*
D03*
X93268Y48898D02*
D03*
X69724Y21732D02*
D03*
X37579Y44370D02*
D03*
X96437Y29882D02*
D03*
X50256Y38937D02*
D03*
X80591Y21732D02*
D03*
X57953Y32598D02*
D03*
X67913Y48898D02*
D03*
X70630Y19921D02*
D03*
X57668Y41369D02*
D03*
X116811Y36220D02*
D03*
X53425Y48898D02*
D03*
X50256Y24449D02*
D03*
X80591Y50709D02*
D03*
X74252Y41654D02*
D03*
X105039Y39843D02*
D03*
X49350Y35315D02*
D03*
X107303Y28071D02*
D03*
X40295Y33504D02*
D03*
X115000Y25354D02*
D03*
X62028Y37126D02*
D03*
X111378Y52520D02*
D03*
X47539Y42559D02*
D03*
X105945Y38031D02*
D03*
X67008Y52520D02*
D03*
X43917Y42559D02*
D03*
X59311Y20827D02*
D03*
X88740Y30787D02*
D03*
X66555Y47992D02*
D03*
X48898Y18110D02*
D03*
X63386Y45276D02*
D03*
X67461Y49803D02*
D03*
X65650Y33504D02*
D03*
X108661Y52520D02*
D03*
X56595Y22638D02*
D03*
X118622Y30787D02*
D03*
X38484Y19016D02*
D03*
X103681Y42559D02*
D03*
X85571Y24449D02*
D03*
X100512Y50709D02*
D03*
X64291Y32598D02*
D03*
X36220Y41654D02*
D03*
X84213Y39843D02*
D03*
X104587Y38937D02*
D03*
X113642Y19016D02*
D03*
X34409Y32598D02*
D03*
X118622Y27165D02*
D03*
X94173Y50709D02*
D03*
X91004Y20827D02*
D03*
X39390Y22638D02*
D03*
X107756Y27165D02*
D03*
X62933Y33504D02*
D03*
X35315Y43465D02*
D03*
X37126Y25354D02*
D03*
X98248Y51614D02*
D03*
X61122Y31693D02*
D03*
X95984Y36220D02*
D03*
X100512Y52520D02*
D03*
X98701Y43465D02*
D03*
X53878Y44370D02*
D03*
X68366Y40748D02*
D03*
X75157Y45276D02*
D03*
X94173Y30787D02*
D03*
X52520Y48898D02*
D03*
X99606Y18110D02*
D03*
X100965Y22638D02*
D03*
X37126Y50709D02*
D03*
X114095Y39843D02*
D03*
X70630Y34409D02*
D03*
X97795Y36220D02*
D03*
X40295Y51614D02*
D03*
X39843Y45276D02*
D03*
X115453Y24449D02*
D03*
X50256Y28071D02*
D03*
X117264Y29882D02*
D03*
X42106Y44370D02*
D03*
X52520Y30787D02*
D03*
X62480Y47087D02*
D03*
X94173Y18110D02*
D03*
X65197Y27165D02*
D03*
X57047Y21732D02*
D03*
X76063Y43465D02*
D03*
X48445Y42559D02*
D03*
X115906Y27165D02*
D03*
X119075Y29882D02*
D03*
X49803Y45276D02*
D03*
X110925Y53425D02*
D03*
X35315Y41654D02*
D03*
X43012Y22638D02*
D03*
X67008Y19921D02*
D03*
X83307Y30787D02*
D03*
X69272Y40748D02*
D03*
X59413Y40850D02*
D03*
X62480Y19921D02*
D03*
X50256Y46181D02*
D03*
X119528Y36220D02*
D03*
X87382Y44370D02*
D03*
X45728Y26260D02*
D03*
X67008Y50709D02*
D03*
X43917Y38937D02*
D03*
X118169D02*
D03*
X74252Y43465D02*
D03*
X63386Y19921D02*
D03*
X76969Y50709D02*
D03*
X42559Y34409D02*
D03*
X100512Y48898D02*
D03*
X110925Y19016D02*
D03*
X62028Y47992D02*
D03*
X103681Y37126D02*
D03*
X86929Y34409D02*
D03*
X73346Y50709D02*
D03*
X66102Y30787D02*
D03*
X95079Y21732D02*
D03*
X112283Y23543D02*
D03*
X34862Y42559D02*
D03*
X34409Y50709D02*
D03*
X102323D02*
D03*
X39390Y28071D02*
D03*
X36220Y43465D02*
D03*
X47992Y36220D02*
D03*
X103681Y29882D02*
D03*
X81043Y33504D02*
D03*
X95079Y45276D02*
D03*
X35768Y22638D02*
D03*
X67913Y50709D02*
D03*
X80138Y40748D02*
D03*
X49803Y38031D02*
D03*
X51161Y33504D02*
D03*
D82*
X58600Y52540D02*
D03*
X55300D02*
D03*
X86000Y52570D02*
D03*
X69500Y52570D02*
D03*
X96025D02*
D03*
X105400Y52670D02*
D03*
X115299Y52670D02*
D03*
X20550Y52670D02*
D03*
X23850D02*
D03*
D83*
X17650Y53150D02*
D03*
Y18650D02*
D03*
X119150Y53150D02*
D03*
Y18650D02*
D03*
M02*
