M48
;Layer_Color=9474304
;FILE_FORMAT=2:4
INCH,LZ
;TYPE=PLATED
T1F00S00C0.0167
T2F00S00C0.0300
T3F00S00C0.0354
T4F00S00C0.0394
T5F00S00C0.0512
T6F00S00C0.0810
T7F00S00C0.1280
T8F00S00C0.1370
%
T01
X109567Y01811
X110472
X111378
X112283
X113189
X114095
X115
X114547Y019016
X115453
X115906Y019921
X115
X114095
X113189
X112283
X111378
X110472
X109567
X11002Y019016
X110925
X111831
X112736
X113642
Y020827
X112736
X113189Y021732
X114095
X115
X115906
X116811
X117264Y022638
X116358
X115453
X114547
X113642
X112736
X111831
X112283Y023543
X113189
X114095
X115
X115906
X116811
X117717
X118622
X119528
X11998Y024449
X119075
X118169
X117264
X116358
X115453
X114547
X113642
X112736
X113189Y025354
X114095
X115
X115906
X116811
X117717
X118622
X119528
X119075Y02626
X118169
X117264
X116358
X115453
X114547
X113642
X113189Y027165
X113642Y028071
X113189Y028976
X114095
X115
X114547Y029882
X113642
X113189Y030787
X114095
X115
X115906
X116811
X117717
X118622
X119528
X11998Y029882
X119075
X118169
X117264
X116811Y028976
X117717
X118622
X119528
X11998Y028071
X119075
X118169
X117264
X116358
X115453
X115Y027165
X115906
X116811
X117717
X118622
X119528
X11998Y02626
X119075Y022638
X118169
X115453Y020827
X114547
X110472Y023543
X111831Y02626
Y028071
X110925
X110472Y028976
X111378
X110925Y029882
X111831
X111378Y030787
X110472
X115453Y029882
X109114
X108209
X107303
X106398
X105492
X104587
X103681
X102776
X10187
X100965
X101417Y028976
X102323
X103228
X102776Y028071
X10187
X100965
X100059
X099154
X098701Y028976
X098248Y029882
X097343
X096437
X095532
X095079Y028976
X094626Y028071
X095532
X096437
X097343
X09689Y028976
Y030787
X095984
X095079
X094173
X097795
X100512Y028976
Y027165
X101417
X102323
X103228
X102776Y02626
X10187
X100965
X100059
X099154
X098248
X097343
X09689Y025354
X097343Y024449
X096437
X095532
X094626
X094173Y023543
X095079
X095984
X09689
X097795
X097343Y022638
X098248
X099154
X099606Y023543
X099154Y024449
X098248
X098701Y025354
X099606
X100512
X101417
X102323
X10187Y024449
X100965
Y022638
X101417Y021732
X102323
X103228
X104134
X103681Y020827
X102776
X10187
X100965
X100059
X099154
X098248
X097343
X096437
X095532
X094626
X094173Y021732
X095079
X095984
X09689
X097795
X099606
Y01811
X098701
X097795
X09689
X095984
X095079
X094173
X094626Y022638
X095532
X096437
X095079Y025354
X094626Y02626
X095532
X095079Y027165
X095984
X09689
X098701
X099606
X094173
X105945
X105492Y028071
X106398
X107303
X107756Y028976
X108661
X109114Y028071
X107756Y027165
X107303Y024449
X106398
X105492
X104587
Y020827
X105492
X106398
X105945Y021732
X107756
X107303Y022638
X107756Y023543
X109114Y024449
X108661Y019921
X109114Y019016
X108209
X107303
X107756Y01811
X108661
X10685
X105945
X105039
X104134
X103228
X102323
X101417
X100512
X10685Y030787
X107756
X108661
X090551
X090098Y029882
X089646Y028976
X08874
X088287Y028071
X087382
X086476
X086024Y027165
X086929
X087835
X087382Y02626
X089193
X090098
X091004
X091909
X091457Y027165
X090551
X089646
X089193Y028071
X091004
X091909
X091457Y028976
X08874Y030787
X086929
X086024
X085118
X084213
X083307
X082402
X080591
X081043Y029882
X080591Y028976
X081043Y028071
X080591Y027165
X082402
X083307
X084213
X084665Y028071
X08376
X082854
X08376Y029882
X078327
X07878Y028976
X078327Y028071
X07878Y025354
X079232Y024449
X078327
X07878Y021732
X080591
Y019921
X083307Y021732
X084213
X085118
X084665Y024449
X085571
X086476
X089193
X090098
X091004
X091909
X09372
Y02626
Y022638
X092815
X091909
X091004
X090098
X089193
X088287
X08874Y021732
X089646
X090551
X091457
X091909Y020827
X092815
X09372
X093268Y021732
X092362Y019921
Y01811
X093268
X091004Y020827
X090098
X089193
X088287
X07878Y030787
X076969
X076063
Y028976
X076969
X077421Y029882
X076969Y027165
Y025354
X077874
X077421Y024449
X076063Y025354
X074527Y024664
X073842Y026321
X072542Y025421
X071613Y026299
X068932Y026774
X067913Y027165
X067008
X066102
X065197
X064291
X063386
Y025354
Y023543
X064291Y021732
Y019921
X065197
X066102
X067008
X067913
X068819
X069724
X07063
X071535
X072441
Y021732
X071535
X07063
X069724
X068819
X069272Y022638
X070177
X071083
X071988
X072894
X077874Y021732
X076063Y01811
X063386Y019921
X066555Y024449
X067461
X067008Y025354
X067913
Y028976
X067461Y029882
X066555
X06565
X064744
X065197Y030787
X066102
X067008
X067913
X063386
X062933Y029882
X063386Y028976
X061575
X060669
X059764
X058858
X057953
X058406Y029882
X059311
X060217
X061122
X062028
X061575Y030787
X060669
X059764
X058858
X057953
X057047
X056595Y029882
X0575
X058406Y028071
X059311
X060217
X061122
X062028
X061575Y027165
X060669
X059764
X058858
X057953
X057047Y025354
X056142
X055236
X054331
X053425
X05252
X051614
X051161Y024449
X052067
X052972
Y02626
X05252Y027165
X051614
X050709
X049803
X048898
X047992
X047087
X047539Y028071
X048445
X04935
X050256
X051161
X052067
X051614Y028976
X05252
X052067Y029882
X051161
X050256
X049803Y028976
X048898
X047992
X048445Y029882
X047539
X047992Y030787
X048898
X049803
X050709
X051614
X05252
X053878Y029882
X054331Y028976
X050709
X050256Y02626
X04935
X048445
X047539
X047087Y025354
X047992
X048898
X04935Y024449
X050256
X051161Y022638
Y020827
X050256
X04935
X048445
X047539
X047992Y021732
X048445Y022638
X04935
X049803Y021732
X05252
X053425
X054331
X055236
X056142
X057047
X057953
X058858
X059764
X060217Y020827
X061122
X062028
X06248Y019921
X060669
X059764
X058858
X057953
X057047
X056142
X055236
X054783Y020827
X053878
X052972
Y022638
X053878
X054783
X055689
X056595
X0575
X058406
X059311
X060217
X059311Y024449
X059764Y025354
X056595Y024449
X055689
X054783
X055689Y020827
X056595
X0575
X058406
X059311
X057953Y01811
X057047
X056142
X055236
X054331
X053425
X050709
X049803
X048898
X047992
X047087
X047539Y024449
X06248Y027165
Y030787
X046181
X045728Y029882
X046181Y028976
X045728Y028071
X043917
X043012
X042106
X042559Y028976
X043465
X04437
X043917Y029882
X043465Y030787
X042559
X041654
X040748
X039843
X038937
X038031
X038484Y029882
X03939
X038937Y028976
X039843
X03939Y028071
X038484
X038937Y027165
X039843
X040295Y02626
X03939
X038484
X038937Y025354
X039843
X040748
X041654
X042559
X043465
X043012Y02626
X042106
X041201
X043917
Y024449
X04437Y023543
X043465
X042559
X042106Y022638
X043012
X043917
Y020827
X043012
X042106
X042559Y019921
X043465
Y01811
X04437
X045276
X046181
X046634Y020827
X045728Y022638
Y024449
X046634
X046181Y025354
X046634Y02626
X045728
X03939Y024449
X038484
X038031Y025354
X037126
X035315
X034409
X034862Y024449
X035768
X035315Y023543
X034409
X034862Y022638
X035768
X03622Y023543
Y021732
X035315
X034409
X034862Y020827
X035768
X03622Y019921
X035315
X034409
X034862Y019016
X035768
X036673
X037126Y019921
X038031
X038484Y019016
X038031Y01811
X037126
X038937
X039843
X040748
X041654
X042559
X041654Y019921
X040748
X040295Y020827
X03939
X039843Y021732
X03939Y022638
X039843Y023543
X035768Y02626
X034862
X034409Y027165
X035315
X034862Y028071
X035768
X035315Y028976
X035768Y029882
X034862
X034409Y030787
X035315
X034409Y01811
X034862Y031693
X035768
X036673
X03622Y032598
X035315
X034409
X034862Y033504
X035768
X03622Y034409
X035315
X034409
X034862Y035315
X035768
X035315Y03622
X034409
X034862Y037126
X035768
X03622Y038031
X035315
X034409
X034862Y038937
X035768
X035315Y039843
X03622
X035768Y040748
X034862
X034409Y041654
X035315
X03622
X036673Y042559
X037579
X038484
X03939
X040295
X039843Y043465
X038937
X038031
X037126
X03622
X035315
X035768Y04437
X036673
X037579
X038484
X03939
X040295
X041201
X042106
X042559Y045276
X043917Y04437
X044823
X045728
Y042559
X044823
X043917
X043012
X042106
Y040748
X043012
X043917
X043465Y039843
X042559
X042106Y038937
X043012
X043917
X043465Y038031
X042559
X043012Y037126
X043917
Y035315
X043465Y034409
X04437
X042559
X041654
X042106Y033504
X043012
Y031693
X042106
X041201
X040295
X03939
X038484
X038937Y032598
X039843
X03939Y033504
X038484
X038937Y034409
X038031
X038484Y035315
X03939
X039843Y03622
X038937
X038484Y037126
X03939
X040295
X041201
X042106
X042559Y03622
X045728Y037126
Y038937
Y040748
X04437Y043465
X043465
X040748
X039843Y045276
X038937
X035768Y046181
X034862
X034409Y045276
X034862Y042559
X035768
X034409Y039843
X038031
X038937
X039843
X03939Y038937
X038484
X038031Y038031
X038937
X039843
X03939Y040748
X038484
X039843Y034409
X040295Y033504
X043917Y031693
X045728
Y033504
Y035315
Y046181
X047539
X048445
X04935
X050256
X050709Y045276
X049803
X048898
X047992
X047539Y04437
X048445
X04935
X050256
X049803Y043465
X050709
X051161Y042559
X050256
X04935
X048445
X047539
X047992Y041654
X048898
X049803
X050709
X051161Y040748
X050256
X04935
X048445
X047539
X047992Y039843
X048898
X049803
X050709
X050256Y038937
X04935
X048445
X048898Y038031
X049803
X050709
X050256Y037126
X051161
X052067
X052972
X053878
X053425Y03622
X05252
X051614
X050709
X050256Y035315
X04935
X048445
X047539
X047992Y034409
X048898
X049803
X050709
X050256Y033504
X04935
X048445
X047539
X047992Y032598
X048898
X049803
X050709
X051614
X05252
X052067Y031693
X051161
X050256
X04935
X048445
X047539
X047992Y03622
X048898
X048445Y037126
X047539
X05252Y038031
X053425
X054331
X054783Y038937
X053878
X052972
X05252Y039843
X053425
X054331
X053878Y040748
X052972
X053425Y041654
X054331
X055236
X056142
X057047
X057668Y041369
X0575Y040748
X058347Y04069
X059413Y04085
X059764Y041654
X058858Y039843
Y038031
X057953
X057047
X056142
X056595Y038937
X0575
Y037126
X058406
X058858Y03622
X057953
X057047
X056142
X056595Y037126
X056142Y034409
X055689Y033504
X056595
X0575
X058406
X059311
X060217
X061122
X062028
X061575Y034409
X06248
X062028Y035315
X061122
X060217
X059311
X058858Y034409
Y032598
X059764
X060669
X061575
X06248
X062028Y031693
X061122
X060217
X059311
X058406
X0575
X056595
X056142Y032598
X057047
X057953
X054331
X053878Y031693
Y033504
X053425Y034409
X05252
X052067Y035315
X052972
X054331Y03622
X052067Y033504
X051161
X05252Y041654
X052972Y042559
X053878
X054783
X055689
X055857Y04318
X055236Y043465
X054331
X053425
X05252
X052972Y04437
X053878
X054725Y044312
X055791Y044472
X056536Y042501
X057602Y042661
X057953Y043465
X060217Y04437
X062028
X06248Y045276
X061575
X062028Y046181
X061122
X059311
X061575Y043465
X062028Y042559
Y037126
X061122
X060669Y038031
X061575Y03622
X06248
X056595Y040748
X055689
X054783
X053425Y045276
X052972Y046181
X05393Y046233
X048898Y043465
X047992
X063386
X064291
X065197
X066102
X067008
X067913
X068819
X069724
X07063
X071083Y04437
X070177
X069272
X068366
X067461
X066555
X06565
X064744
X063839
X062933
X063386Y045276
X064291
X065197
X066102
X067008
X067913
X068819
X069724
X07063
X071535
X072441
X073346
X074252
X075157
X076063
X076969
X076516Y046181
X07561
X074705
Y04437
X073799
X073346Y043465
X074252
X075157
X076063
X076969
X077874
X077421Y04437
X076516
X07561
X076516Y042559
X077421
X076516Y040748
Y038937
X077421
X07561
X074252Y039843
X073346
X071535
X069724
X068819
X067913
X067008
X067461Y040748
X066555
X06565
X066102Y041654
X067008
X067913
X067461Y042559
X066555
X06565
X064744
X063839
X063386Y041654
X063839Y040748
X065197Y039843
X06565Y038937
X067008Y038031
Y03622
X067913
X068819
X068366Y035315
X067008Y034409
X065197
X064291
X063386
X063839Y033504
X064744
X06565
X065197Y032598
X064291
X063386
X062933Y031693
X063839
X06565
X066555
X067008Y032598
X067913
X068819
X069272Y031693
X07105Y0324
X07063Y034409
X071083Y035315
X071988
X071535Y03622
X07063
X072441
X073799Y035315
X074705
X074252Y034409
X073346
X074705Y033504
X07561Y031693
X077421
X076516Y035315
X071535Y038031
X070177Y038937
X069272
Y040748
X068366
Y042559
X069272
X070177
X071083
X07063Y041654
X073346
X074252
X073799Y042559
X068366Y046181
X067461
X066555
X06565
X064744
X063839
X062933
X065197Y041654
Y03622
X064744Y035315
X063839
X062933
X063386Y03622
X062933Y037126
X063386Y038031
X062933Y033504
X078327
Y035315
X07878Y03622
X080591
X081043Y037126
X080591Y038031
X080138Y038937
X081043
X081496Y039843
X080138Y040748
X078327
Y038937
X07878Y043465
X078327Y04437
X07878Y045276
X078327Y046181
X081949
X082402Y045276
X084213
X085118
X085571Y04437
X086476
X087382
X088287
X08874Y045276
X089193Y046181
X090098
X090551Y045276
X091457
X091004Y04437
X091909Y046181
X092815
X09372
X093268Y045276
X093548Y04326
X09372Y042559
Y040748
X092752
X091004
X090098
X090551Y041654
Y039843
X091004Y038937
X090098
X090551Y038031
X091004Y037126
X090098
X090551Y03622
X090098Y035315
X091004
X090551Y034409
X090098Y033504
X091004
X089193
X08874Y034409
X087835
X086929
X087382Y033504
X086476
X085571
X084665
X08376
X082854
X081949
X081043
X081496Y034409
X080591
X081043Y035315
X082854
X083307Y034409
X085118
X085571Y037126
X084665
X08376
X082854
X08376Y038937
X084213Y039843
X085118
X086024
X086929
X087382Y040748
X088287
X087382Y042559
X086929Y043465
X086024
X085118
X084213
X08376Y042559
X085571
Y040748
X084665
X08376
X085571Y038937
X085118Y038031
X086929
X087835
X088287Y037126
X087382
X086476
X087382Y038937
X087835Y043465
X08874
X086929Y045276
X086476Y046181
X084665
X08376
Y04437
X084665
X080138
X080591Y043465
X081043Y031693
X078327
X09372
Y033504
Y035315
Y037126
Y038937
X094626
X095532
X096437
X095984Y038031
X095532Y037126
X094626
X095079Y03622
X094173
X094626Y035315
X095532
X096437
X097343
X097795Y034409
X097343Y033504
X098248
X099154
X099606Y034409
X100512
X101417
X102323
X103228
X102776Y035315
X10187
X100965
X100059
X099154
Y037126
X100059
X099606Y038031
X098701
X098248Y038937
X098701Y039843
X099154Y040748
X100059
X100512Y039843
X101417
X102323
X103228
X104134
X105039
X105945
X105492Y038937
X104587
X103681
X103228Y038031
X104134
X105039
X105945
X104587Y037126
X103681
X102776
X10187
X102323Y038031
X10187Y038937
X100965
X100059
X100512Y038031
Y041654
X099606
X100059Y042559
X100965
X10187
X102323Y041654
X103228
X104134
X105039
X105945
X10685
X107756
X108661
X108209Y042559
X107303
X10685Y043465
X105492Y042559
X104587
X103681
X104134Y043465
X103228Y045276
X102776Y046181
X10187
X100965
X099154
X098248
X097343
X096437
X095532
X094626
X094173Y045276
X095079
X095984
X09689
X097795
Y043465
X098701
X099606
X098248Y042559
X097343
X095532
X095984Y041654
X095532Y040748
X096437
X09689Y039843
X094173
Y038031
Y041654
X095984Y043465
Y03622
Y034409
X095079
X094173
X094626Y033504
X095532
X097795Y03622
X097343Y037126
X100965Y033504
X10187
X100965Y031693
X102776
X104587
X107303
X108209
X109114
X108661Y032598
Y034409
X107756
X108209Y035315
X109114
X108661Y038031
X109114Y038937
X108209
X108661Y039843
X108209Y040748
X107303
X109114
Y042559
Y046181
X105492Y040748
X104587
X103681
X102776
X10187
X110925
X111831
X112283Y041654
X111378
X110472
X110925Y042559
X111831
X112736
X113642
X114095Y043465
X113642Y04437
X114547
X114095Y045276
X113642Y046181
X114547
X115453
X116811Y045276
X117717
X118622
X119528
X11998Y046181
X119075
X118169
Y04437
X119075
X11998
X119528Y043465
X118622
X117717
X116811
X117264Y04437
Y042559
X118169
X119075
X11998
X119528Y041654
X118622
X117717
X116811
X117264Y040748
X118169
X119075
X11998
X119528Y039843
X118622
X117717
X116811
X117264Y038937
X118169
X119075
X11998
X119528Y038031
X118622
X117717
X116811
X115906
X115
X114547Y037126
X115453
X115906Y03622
X115
X114095
X113189
X113642Y035315
X114547
X115453
X115906Y034409
X116811
X117717
X118622
X119528
X11998Y035315
X119075
X118169
X117264
X117717Y03622
X118622
X119528
X11998Y037126
X119075
X118169
X117264
X116811Y03622
X117264Y033504
X118169
X119075
X11998
X119528Y032598
X118622
X117717
X116811
X115906
X115
X114095
X113189
X113642Y031693
X114547
X115453
Y033504
X114547
X113642
X114095Y034409
X113189
X111378
X111831Y033504
X111378Y032598
X111831Y031693
X110925
X111378Y03622
X111831Y037126
X111378Y038031
X111831Y038937
X111378Y039843
X110472
X113189
X114095
X115
X114547Y038937
X113642
X113189Y038031
X113642Y040748
X114547
X115453
X115Y041654
X114095
X115453Y042559
X112283Y045276
X111831Y046181
X11002
X110472Y043465
X115Y034409
X117264Y031693
X118169
X119075
X11998
X119528Y047087
X118622
X118169Y047992
X119075
X118622Y048898
X118169Y049803
X116358
X116811Y050709
X115906
X115
X114095
X113189
X112283
X112736Y051614
X111831
X110925
X11002
X109567Y05252
X110472
X111378
X112283
X113189
X114095
X114547Y051614
X113642
Y053425
X112736
X111831
X110925
X11002
X116358
X116811Y05252
X117264Y051614
X116358
X116811Y048898
X115906
X115
X114095
X114547Y047992
X112283Y048898
X116811Y047087
X109114Y051614
X108661Y05252
X107756
X10685
X106398Y053425
X107303
X108209
X109114
X103681
X102776
X10187
X100965
X100059
X099606Y05252
X100512
X101417
X102323
X103228
X104134
X103228Y050709
X102323
X101417
X100512
X099606
X100059Y049803
X099606Y048898
X100512
X100059Y047992
X099154
X098248
X098701Y047087
X099606
X097795
Y048898
X098248Y049803
X097795Y050709
X09689
X097343Y051614
X098248
X097795Y05252
X098248Y053425
X094626
X094173Y05252
Y050709
X095079Y048898
X095984
Y047087
X094173
X100965Y047992
X09372
X092815
X091909
X091004
X090098
X089646Y047087
X08874
X088287Y047992
X087382
X087835Y048898
X086929
Y047087
X085118
X084213Y048898
X082402
X080591
X079685
X07878
Y050709
X080591
X081496
Y05252
X080591
X080138Y053425
X081043
X081949
X082854
X08376
X084665
X084213Y05252
X083307
X082402
X078327Y053425
X087382
X088287
X089193
X090098
X091004
X091909
X092815
X09372
X093268Y05252
X092362
X091457
X090551
X089646
X08874
X087835
X088287Y049803
X089193
X089646Y048898
X090551
X091457
X092362
X093268
X09372Y049803
X092815
X091909
X091004
X091457Y050709
X092362
X093268
X090551
X091457Y047087
X092362
X093268
X076969
Y048898
X077874
X076969Y050709
X076063
X074252
X073346
X072441
X07063
X069724
X067913
X067008
X066102
X065197
X064291
X063386
X063839Y049803
X062933
X063386Y048898
X064291
X065197
X066102
X067008
X067913
X067461Y047992
X066555
X06565
X064744
X063839
X062933
X063386Y047087
X064291
X065197
X066102
X067008
X067913
X067461Y049803
X066555
X06565
X064744
X064291Y05252
X063386
X065197
X066102
X067008
X067913
X071535
X072441
X073346
X074252
X075157
X076063
X076969
X077421Y053425
X071988Y047992
X062028
X061122
X060327Y048102
X059311Y047992
X059652Y04702
X060669Y047087
X061575
X06248
Y048898
X061575
X060669
X059764
X058858
X059764Y050709
X061575
X06248
X062028Y049803
X061122
X061575Y05252
X06248
X059764
X057047
X053425
X05252
X051614
X049803
X048898
X047992
X047087
X047539Y049803
X047992Y048898
X048898
X049803
X050709
X051614
X05252
X053425
X054331
X053878Y049803
X052972
X052067
X051161
X050256
X04935
Y047992
X048445
X047539
X047992Y047087
X048898
X049803
X050709
X051614
X05252
X053312Y0472
X052972Y047992
X052067
X051161
X050256
X053878
X054331Y047087
X056142Y048898
X045728Y047992
Y049803
Y051614
X046181Y05252
X04437
X043465
X042559
X041654
X040748
X039843
X038937
X038031
X037126
X03622
X035315
X034409
X034862Y051614
X035768
X036673
X037579
X038484
X03939
X040295
X041201
X042106
X043012
X043917
X043465Y050709
X042559
X041654
X040748
X039843
X038937
X038031
X037126
X03622
X035315
X034409
X034862Y049803
X034409Y048898
X035315
X034862Y047992
X035768
X035315Y047087
X034409
X038937
X039843
X03939Y047992
X038484
X038031Y048898
X038937
X039843
X03939Y049803
X038484
Y053425
X037579
X036673
X035768
X034862
X03939
X040295
X041201
X042106
X043012
X043917
X044823
X043012Y049803
X042106
X042559Y048898
X043465
X043012Y047992
X042106
X042559Y047087
X043465
T02
X1002Y02475
X10565Y0224
X1093Y02365
X0932Y02445
X0933Y01995
X0881Y0215
X08835Y02565
X0884Y0295
X0874Y03045
X09055Y0301
X08135Y025882
X0804Y025268
X0759Y02795
X074399Y02825
X07455Y0291
X0735Y03015
X0736Y0308
X073Y03065
X071827Y0306
X07085Y02955
X07015Y029
X0702Y0281
X070128Y027128
X0712Y0271
X07215
X0732
X07425Y02715
X075Y02275
X06925Y02335
X0672Y02245
X0693Y02935
X063Y02805
X06085Y0253
X03855Y02345
X03775Y0418
X044307Y046353
X0575Y04385
X05855Y04335
X05315Y03305
X0721Y03325
X07245Y0344
X0732Y03655
X0741Y0366
X07735Y0324
X06715Y0386
X07945Y037518
X0807Y0375
X0827Y03785
X08175Y03565
X0822Y03405
X0827Y03135
X0893Y03265
X09315Y032447
X09155Y0431
X0894Y0422
X0923Y04565
X08275Y04105
X1016Y04435
X1029Y0449
X10635Y04575
X10795Y0461
X1055Y0362
X10495Y0336
X09955Y03195
X1098Y04285
X1148Y04315
X1029Y04885
X07915Y052707
X0775
X05285Y0518
T03
X05505Y04575
X05605
X05705
X05805
X05905
X06005
T04
X04985Y0235
X05085
X05185
X05565Y0397
X05665
X05765
T05
X093957Y025624
X095941
X097926
Y028576
X095941
X093957
X103933
Y0271
Y025624
X021305Y028392
X018156
Y046108
X026344
X094824Y042024
Y04004
Y038056
X097776
Y04004
Y042024
Y032048
X0963
X094824
T06
X11035Y04763
X112
X11365
X115299
Y0498
X11365
X112
X11035
X1087
X10705
X1054
Y04763
X10705
X1087
X09685Y04753
X0952
Y0497
X09685
X086Y0497
X08435
X0827
X08105
X0794
Y04753
X08105
X0827
X08435
X086
X07775Y04753
X0761
X07445
X0728
X07115
X0695
Y0497
X07115
X0728
X07445
X0761
X07775
X0586Y04967
X05695
X0553
Y0475
X05695
X0586
X02385Y0498
X0222
X02055
T07
X115299Y05267
X1054Y05267
X096025Y05257
X086Y05257
X0695Y05257
X0586Y05254
X0553
X02385Y05267
X02055
T08
X11915Y01865
X01765
X11915Y05315
X01765
M30
