G04*
G04 #@! TF.GenerationSoftware,Altium Limited,Altium Designer,25.1.2 (22)*
G04*
G04 Layer_Physical_Order=2*
G04 Layer_Color=16711680*
%FSLAX44Y44*%
%MOMM*%
G71*
G04*
G04 #@! TF.SameCoordinates,6D4D92B4-A3DC-49D6-99F1-53D89A5D43F5*
G04*
G04*
G04 #@! TF.FilePolarity,Positive*
G04*
G01*
G75*
%ADD36R,1.2500X1.2500*%
%ADD37C,1.2500*%
%ADD39C,0.3810*%
%ADD40C,0.7620*%
%ADD41C,1.5000*%
%ADD42R,1.5500X1.5500*%
%ADD43R,1.5000X1.5000*%
%ADD44C,1.5500*%
%ADD45C,1.2700*%
%ADD46R,1.1062X1.3051*%
%ADD47R,1.3051X1.1062*%
G36*
X993140Y259080D02*
X289560D01*
Y703580D01*
X993140D01*
Y259080D01*
D02*
G37*
%LPC*%
G36*
X501650Y646403D02*
Y638810D01*
X509243D01*
X508664Y640971D01*
X507494Y642999D01*
X505839Y644654D01*
X503811Y645824D01*
X501650Y646403D01*
D02*
G37*
G36*
X499110D02*
X496949Y645824D01*
X494921Y644654D01*
X493266Y642999D01*
X492096Y640971D01*
X491517Y638810D01*
X499110D01*
Y646403D01*
D02*
G37*
G36*
X509243Y636270D02*
X501650D01*
Y628677D01*
X503811Y629256D01*
X505839Y630426D01*
X507494Y632081D01*
X508664Y634109D01*
X509243Y636270D01*
D02*
G37*
G36*
X499110D02*
X491517D01*
X492096Y634109D01*
X493266Y632081D01*
X494921Y630426D01*
X496949Y629256D01*
X499110Y628677D01*
Y636270D01*
D02*
G37*
G36*
X676797Y575210D02*
X674483D01*
X672247Y574611D01*
X670243Y573454D01*
X668606Y571817D01*
X667449Y569813D01*
X666850Y567577D01*
Y565263D01*
X667449Y563027D01*
X668606Y561023D01*
X670243Y559386D01*
X672247Y558229D01*
X674483Y557630D01*
X676797D01*
X679033Y558229D01*
X681037Y559386D01*
X682674Y561023D01*
X683831Y563027D01*
X684430Y565263D01*
Y567577D01*
X683831Y569813D01*
X682674Y571817D01*
X681037Y573454D01*
X679033Y574611D01*
X676797Y575210D01*
D02*
G37*
G36*
X651397Y549810D02*
X649083D01*
X646847Y549211D01*
X644843Y548054D01*
X643206Y546417D01*
X642049Y544413D01*
X641450Y542177D01*
Y539863D01*
X642049Y537627D01*
X643206Y535623D01*
X644843Y533986D01*
X646847Y532829D01*
X649083Y532230D01*
X651397D01*
X653633Y532829D01*
X655637Y533986D01*
X657274Y535623D01*
X658431Y537627D01*
X659030Y539863D01*
Y542177D01*
X658431Y544413D01*
X657274Y546417D01*
X655637Y548054D01*
X653633Y549211D01*
X651397Y549810D01*
D02*
G37*
G36*
X633630Y575210D02*
X616050D01*
Y564039D01*
X602482Y550471D01*
X591369D01*
Y532340D01*
Y526664D01*
X599440D01*
X607511D01*
Y532340D01*
Y542728D01*
X607651Y542821D01*
X622459Y557630D01*
X633630D01*
Y575210D01*
D02*
G37*
G36*
X598170Y524124D02*
X591369D01*
Y516329D01*
X598170D01*
Y524124D01*
D02*
G37*
G36*
X607511D02*
X600710D01*
Y516329D01*
X602628D01*
X603066Y516242D01*
X604060D01*
X604498Y516329D01*
X607511D01*
Y517938D01*
X608247Y519040D01*
X608592Y520774D01*
X608247Y522508D01*
X607511Y523610D01*
Y524124D01*
D02*
G37*
G36*
X358591Y519991D02*
X351790D01*
Y512196D01*
X358591D01*
Y519991D01*
D02*
G37*
G36*
X349250D02*
X342449D01*
Y512196D01*
X349250D01*
Y519991D01*
D02*
G37*
G36*
X725170Y504163D02*
Y496570D01*
X732763D01*
X732184Y498731D01*
X731014Y500759D01*
X729359Y502414D01*
X727331Y503584D01*
X725170Y504163D01*
D02*
G37*
G36*
X722630D02*
X720469Y503584D01*
X718441Y502414D01*
X716786Y500759D01*
X715616Y498731D01*
X715037Y496570D01*
X722630D01*
Y504163D01*
D02*
G37*
G36*
X425502Y502800D02*
X425450D01*
Y494030D01*
X434220D01*
Y494082D01*
X433536Y496635D01*
X432214Y498925D01*
X430345Y500794D01*
X428055Y502116D01*
X425502Y502800D01*
D02*
G37*
G36*
X422910D02*
X422858D01*
X420305Y502116D01*
X418015Y500794D01*
X416146Y498925D01*
X414824Y496635D01*
X414140Y494082D01*
Y494030D01*
X422910D01*
Y502800D01*
D02*
G37*
G36*
X732763Y494030D02*
X725170D01*
Y486437D01*
X727331Y487016D01*
X729359Y488186D01*
X731014Y489841D01*
X732184Y491869D01*
X732763Y494030D01*
D02*
G37*
G36*
X722630D02*
X715037D01*
X715616Y491869D01*
X716786Y489841D01*
X718441Y488186D01*
X720469Y487016D01*
X722630Y486437D01*
Y494030D01*
D02*
G37*
G36*
X434220Y491490D02*
X425450D01*
Y482720D01*
X425502D01*
X428055Y483404D01*
X430345Y484726D01*
X432214Y486595D01*
X433536Y488885D01*
X434220Y491438D01*
Y491490D01*
D02*
G37*
G36*
X422910D02*
X414140D01*
Y491438D01*
X414824Y488885D01*
X416146Y486595D01*
X418015Y484726D01*
X420305Y483404D01*
X422858Y482720D01*
X422910D01*
Y491490D01*
D02*
G37*
G36*
X358591Y509656D02*
X350520D01*
X342449D01*
Y501860D01*
Y485849D01*
X358591D01*
Y488228D01*
X389803D01*
X390746Y486595D01*
X392615Y484726D01*
X394905Y483404D01*
X397458Y482720D01*
X400102D01*
X402655Y483404D01*
X404945Y484726D01*
X406814Y486595D01*
X408136Y488885D01*
X408820Y491438D01*
Y494082D01*
X408136Y496635D01*
X406814Y498925D01*
X404945Y500794D01*
X402655Y502116D01*
X400102Y502800D01*
X397458D01*
X394905Y502116D01*
X392615Y500794D01*
X390746Y498925D01*
X389803Y497292D01*
X358591D01*
Y501860D01*
Y509656D01*
D02*
G37*
G36*
X414904Y450031D02*
X407109D01*
Y443230D01*
X414904D01*
Y450031D01*
D02*
G37*
G36*
X459620Y502800D02*
X439540D01*
Y482720D01*
X443106D01*
Y461042D01*
X432095Y450031D01*
X417444D01*
Y441960D01*
Y433889D01*
X441251D01*
Y440875D01*
X454158Y453782D01*
X455562Y455882D01*
X456054Y458360D01*
Y482720D01*
X459620D01*
Y502800D01*
D02*
G37*
G36*
X414904Y440690D02*
X407109D01*
Y433889D01*
X414904D01*
Y440690D01*
D02*
G37*
G36*
X570230Y420343D02*
Y412750D01*
X577823D01*
X577244Y414911D01*
X576074Y416939D01*
X574419Y418594D01*
X572391Y419764D01*
X570230Y420343D01*
D02*
G37*
G36*
X567690D02*
X565529Y419764D01*
X563501Y418594D01*
X561846Y416939D01*
X560676Y414911D01*
X560097Y412750D01*
X567690D01*
Y420343D01*
D02*
G37*
G36*
X577823Y410210D02*
X570230D01*
Y402617D01*
X572391Y403196D01*
X574419Y404366D01*
X576074Y406021D01*
X577244Y408049D01*
X577823Y410210D01*
D02*
G37*
G36*
X567690D02*
X560097D01*
X560676Y408049D01*
X561846Y406021D01*
X563501Y404366D01*
X565529Y403196D01*
X567690Y402617D01*
Y410210D01*
D02*
G37*
G36*
X410520Y337950D02*
X401500D01*
Y328930D01*
X410520D01*
Y337950D01*
D02*
G37*
G36*
X398960D02*
X389940D01*
Y328930D01*
X398960D01*
Y337950D01*
D02*
G37*
G36*
X426985D02*
X424275D01*
X421658Y337249D01*
X419312Y335894D01*
X417396Y333978D01*
X416041Y331632D01*
X415340Y329015D01*
Y326305D01*
X416041Y323688D01*
X417396Y321342D01*
X419312Y319426D01*
X421658Y318071D01*
X424275Y317370D01*
X426985D01*
X429602Y318071D01*
X431948Y319426D01*
X433864Y321342D01*
X435219Y323688D01*
X435920Y326305D01*
Y329015D01*
X435219Y331632D01*
X433864Y333978D01*
X431948Y335894D01*
X429602Y337249D01*
X426985Y337950D01*
D02*
G37*
G36*
X410520Y326390D02*
X401500D01*
Y317370D01*
X410520D01*
Y326390D01*
D02*
G37*
G36*
X398960D02*
X389940D01*
Y317370D01*
X398960D01*
Y326390D01*
D02*
G37*
%LPD*%
D36*
X624840Y566420D02*
D03*
D37*
X675640D02*
D03*
X650240Y541020D02*
D03*
D39*
X599440Y524400D02*
Y525394D01*
Y524400D02*
X603066Y520774D01*
X604060D01*
X599440Y541406D02*
Y542400D01*
X603066Y546026D01*
X604446D01*
X624840Y566420D01*
X352241Y492760D02*
X398780D01*
D40*
X350520Y494481D02*
X352241Y492760D01*
X350520Y494481D02*
Y494914D01*
X432186Y441960D02*
X433180D01*
X449580Y458360D01*
Y492760D01*
D41*
X424180D02*
D03*
X398780D02*
D03*
D42*
X400230Y327660D02*
D03*
D43*
X449580Y492760D02*
D03*
D44*
X425630Y327660D02*
D03*
D45*
X568960Y411480D02*
D03*
X500380Y637540D02*
D03*
X723900Y495300D02*
D03*
D46*
X599440Y525394D02*
D03*
X350520Y510926D02*
D03*
Y494914D02*
D03*
X599440Y541406D02*
D03*
D47*
X416174Y441960D02*
D03*
X432186D02*
D03*
M02*
