G04*
G04 #@! TF.GenerationSoftware,Altium Limited,Altium Designer,25.1.2 (22)*
G04*
G04 Layer_Color=65535*
%FSLAX44Y44*%
%MOMM*%
G71*
G04*
G04 #@! TF.SameCoordinates,6D4D92B4-A3DC-49D6-99F1-53D89A5D43F5*
G04*
G04*
G04 #@! TF.FilePolarity,Positive*
G04*
G01*
G75*
%ADD10C,0.6000*%
%ADD11C,0.2500*%
%ADD12C,0.1000*%
%ADD13C,0.2000*%
%ADD14C,0.4000*%
%ADD15C,0.2540*%
%ADD16C,0.4572*%
G36*
X570267Y369261D02*
Y369120D01*
X571394D01*
Y368979D01*
Y368838D01*
X573649D01*
Y368697D01*
Y368556D01*
X582103D01*
Y368697D01*
Y368838D01*
X593939D01*
Y368697D01*
Y368556D01*
X596194D01*
Y368415D01*
Y368274D01*
X600139D01*
Y368133D01*
Y367992D01*
X602112D01*
Y367851D01*
Y367711D01*
X603521D01*
Y367570D01*
Y367429D01*
X604930D01*
Y367288D01*
Y367147D01*
X606339D01*
Y367006D01*
Y366865D01*
X607466D01*
Y366724D01*
Y366583D01*
X608593D01*
Y366442D01*
Y366302D01*
X609439D01*
Y366161D01*
Y366020D01*
X610566D01*
Y365879D01*
Y365738D01*
X611130D01*
Y365597D01*
Y365456D01*
X611975D01*
Y365315D01*
Y365174D01*
X612539D01*
Y365033D01*
Y364893D01*
X613102D01*
Y364752D01*
Y364611D01*
X613666D01*
Y364470D01*
Y364329D01*
X614230D01*
Y364188D01*
Y364047D01*
X614511D01*
Y363906D01*
Y363765D01*
X615075D01*
Y363624D01*
Y363483D01*
X615357D01*
Y363343D01*
Y363202D01*
X615921D01*
Y363061D01*
Y362920D01*
X616202D01*
Y362779D01*
Y362638D01*
X616766D01*
Y362497D01*
Y362356D01*
X617048D01*
Y362215D01*
Y362074D01*
X617330D01*
Y361934D01*
Y361792D01*
X617611D01*
Y361652D01*
Y361511D01*
X617893D01*
Y361370D01*
Y361229D01*
X618175D01*
Y361088D01*
Y360947D01*
Y360806D01*
Y360665D01*
X618457D01*
Y360524D01*
Y360383D01*
X618739D01*
Y360243D01*
Y360102D01*
Y359961D01*
Y359820D01*
X619021D01*
Y359679D01*
Y359538D01*
Y359397D01*
Y359256D01*
X619302D01*
Y359115D01*
Y358974D01*
Y358834D01*
Y358693D01*
X619584D01*
Y358552D01*
Y358411D01*
Y358270D01*
Y358129D01*
Y357988D01*
Y357847D01*
Y357706D01*
Y357565D01*
X619866D01*
Y357425D01*
Y357284D01*
Y357143D01*
Y357002D01*
Y356861D01*
Y356720D01*
Y356579D01*
Y356438D01*
Y356297D01*
Y356156D01*
Y356015D01*
Y355874D01*
Y355734D01*
Y355593D01*
Y355452D01*
Y355311D01*
Y355170D01*
Y355029D01*
Y354888D01*
Y354747D01*
Y354606D01*
Y354465D01*
Y354324D01*
Y354184D01*
Y354043D01*
Y353902D01*
X619584D01*
Y353761D01*
Y353620D01*
Y353479D01*
Y353338D01*
Y353197D01*
Y353056D01*
Y352915D01*
Y352775D01*
Y352634D01*
Y352493D01*
X619302D01*
Y352352D01*
Y352211D01*
Y352070D01*
Y351929D01*
X619021D01*
Y351788D01*
Y351647D01*
Y351506D01*
Y351366D01*
Y351225D01*
Y351084D01*
X618739D01*
Y350943D01*
Y350802D01*
Y350661D01*
Y350520D01*
Y350379D01*
Y350238D01*
X618457D01*
Y350097D01*
Y349956D01*
Y349815D01*
Y349675D01*
X618175D01*
Y349534D01*
Y349393D01*
Y349252D01*
Y349111D01*
X617893D01*
Y348970D01*
Y348829D01*
Y348688D01*
Y348547D01*
X617611D01*
Y348406D01*
Y348265D01*
Y348125D01*
Y347984D01*
X617330D01*
Y347843D01*
Y347702D01*
Y347561D01*
Y347420D01*
X617048D01*
Y347279D01*
Y347138D01*
Y346997D01*
Y346856D01*
X616766D01*
Y346716D01*
Y346575D01*
Y346434D01*
Y346293D01*
X616484D01*
Y346152D01*
Y346011D01*
X616202D01*
Y345870D01*
Y345729D01*
Y345588D01*
Y345447D01*
X615921D01*
Y345307D01*
Y345166D01*
X615639D01*
Y345025D01*
Y344884D01*
Y344743D01*
Y344602D01*
X615357D01*
Y344461D01*
Y344320D01*
X615075D01*
Y344179D01*
Y344038D01*
X614793D01*
Y343897D01*
Y343756D01*
Y343616D01*
Y343475D01*
X614511D01*
Y343334D01*
Y343193D01*
X614230D01*
Y343052D01*
Y342911D01*
Y342770D01*
Y342629D01*
X613948D01*
Y342488D01*
Y342347D01*
X613666D01*
Y342207D01*
Y342066D01*
X613384D01*
Y341925D01*
Y341784D01*
X613102D01*
Y341643D01*
Y341502D01*
Y341361D01*
Y341220D01*
X612821D01*
Y341079D01*
Y340938D01*
X612539D01*
Y340798D01*
Y340657D01*
X612257D01*
Y340516D01*
Y340375D01*
X611975D01*
Y340234D01*
Y340093D01*
X611693D01*
Y339952D01*
Y339811D01*
X611412D01*
Y339670D01*
Y339529D01*
X611130D01*
Y339389D01*
Y339248D01*
Y339107D01*
Y338966D01*
X610848D01*
Y338825D01*
Y338684D01*
X610566D01*
Y338543D01*
Y338402D01*
X610284D01*
Y338261D01*
Y338120D01*
X610003D01*
Y337979D01*
Y337838D01*
X609721D01*
Y337697D01*
Y337557D01*
X609439D01*
Y337416D01*
Y337275D01*
X609157D01*
Y337134D01*
Y336993D01*
X608875D01*
Y336852D01*
Y336711D01*
X608593D01*
Y336570D01*
Y336429D01*
X608312D01*
Y336288D01*
Y336148D01*
X608030D01*
Y336007D01*
Y335866D01*
X607748D01*
Y335725D01*
Y335584D01*
X607466D01*
Y335443D01*
Y335302D01*
X607184D01*
Y335161D01*
Y335020D01*
Y334879D01*
Y334739D01*
X606903D01*
Y334598D01*
Y334457D01*
X606621D01*
Y334316D01*
Y334175D01*
X606339D01*
Y334034D01*
Y333893D01*
X605775D01*
Y333752D01*
Y333611D01*
X605494D01*
Y333470D01*
Y333329D01*
X605212D01*
Y333189D01*
Y333048D01*
X604930D01*
Y332907D01*
Y332766D01*
X604648D01*
Y332625D01*
Y332484D01*
X604366D01*
Y332343D01*
Y332202D01*
X604084D01*
Y332061D01*
Y331920D01*
X603803D01*
Y331779D01*
Y331639D01*
X603521D01*
Y331498D01*
Y331357D01*
X603239D01*
Y331216D01*
Y331075D01*
X602957D01*
Y330934D01*
Y330793D01*
X602675D01*
Y330652D01*
Y330511D01*
X602393D01*
Y330370D01*
Y330229D01*
X602112D01*
Y330089D01*
Y329948D01*
X601830D01*
Y329807D01*
Y329666D01*
X601548D01*
Y329525D01*
Y329384D01*
X600984D01*
Y329243D01*
Y329102D01*
X600703D01*
Y328961D01*
Y328820D01*
X600421D01*
Y328680D01*
Y328539D01*
X600139D01*
Y328398D01*
Y328257D01*
X599857D01*
Y328116D01*
Y327975D01*
X599575D01*
Y327834D01*
Y327693D01*
X599294D01*
Y327552D01*
Y327411D01*
X599012D01*
Y327271D01*
Y327130D01*
X598448D01*
Y326989D01*
Y326848D01*
X598166D01*
Y326707D01*
Y326566D01*
X597884D01*
Y326425D01*
Y326284D01*
X597603D01*
Y326143D01*
Y326002D01*
X597321D01*
Y325861D01*
Y325720D01*
X596757D01*
Y325580D01*
Y325439D01*
X596475D01*
Y325298D01*
Y325157D01*
X596194D01*
Y325016D01*
Y324875D01*
X595630D01*
Y324734D01*
Y324593D01*
X595348D01*
Y324452D01*
Y324311D01*
X595066D01*
Y324170D01*
Y324030D01*
X594785D01*
Y323889D01*
Y323748D01*
X594503D01*
Y323607D01*
Y323466D01*
X593939D01*
Y323325D01*
Y323184D01*
X593657D01*
Y323043D01*
Y322902D01*
X593376D01*
Y322761D01*
Y322621D01*
X593094D01*
Y322480D01*
Y322339D01*
X592530D01*
Y322198D01*
Y322057D01*
X592248D01*
Y321916D01*
Y321775D01*
X591967D01*
Y321634D01*
Y321493D01*
X591685D01*
Y321352D01*
Y321212D01*
X591121D01*
Y321071D01*
Y320930D01*
X590839D01*
Y320789D01*
Y320648D01*
X590276D01*
Y320507D01*
Y320366D01*
X589994D01*
Y320225D01*
Y320084D01*
X589712D01*
Y319943D01*
Y319802D01*
X589430D01*
Y319662D01*
Y319521D01*
X588867D01*
Y319380D01*
Y319239D01*
X588585D01*
Y319098D01*
Y318957D01*
X588303D01*
Y318816D01*
Y318675D01*
X588021D01*
Y318534D01*
Y318393D01*
X587457D01*
Y318252D01*
Y318112D01*
X586894D01*
Y317971D01*
Y317830D01*
X586612D01*
Y317689D01*
Y317548D01*
X586330D01*
Y317407D01*
Y317266D01*
X586048D01*
Y317125D01*
Y316984D01*
X585485D01*
Y316843D01*
Y316702D01*
X585203D01*
Y316562D01*
Y316421D01*
X584921D01*
Y316280D01*
Y316139D01*
X584357D01*
Y315998D01*
Y315857D01*
X584076D01*
Y315716D01*
Y315575D01*
X583794D01*
Y315434D01*
Y315293D01*
X583230D01*
Y315152D01*
Y315012D01*
X582948D01*
Y314871D01*
Y314730D01*
X582385D01*
Y314589D01*
Y314448D01*
X582103D01*
Y314307D01*
Y314166D01*
X581821D01*
Y314025D01*
Y313884D01*
X581258D01*
Y313743D01*
Y313603D01*
X580976D01*
Y313462D01*
Y313321D01*
X580412D01*
Y313180D01*
Y313039D01*
X580130D01*
Y312898D01*
Y312757D01*
X579567D01*
Y312616D01*
Y312475D01*
X579285D01*
Y312334D01*
Y312194D01*
X579003D01*
Y312053D01*
Y311912D01*
X578439D01*
Y311771D01*
Y311630D01*
X578158D01*
Y311489D01*
Y311348D01*
X577594D01*
Y311207D01*
Y311066D01*
X577312D01*
Y310925D01*
Y310784D01*
X577030D01*
Y310644D01*
Y310503D01*
X576467D01*
Y310362D01*
Y310221D01*
X576185D01*
Y310080D01*
Y309939D01*
X575621D01*
Y309798D01*
Y309657D01*
X575340D01*
Y309516D01*
Y309375D01*
X574776D01*
Y309234D01*
Y309093D01*
X574494D01*
Y308953D01*
Y308812D01*
X573930D01*
Y308671D01*
Y308530D01*
X573649D01*
Y308389D01*
Y308248D01*
X573085D01*
Y308107D01*
Y307966D01*
X572803D01*
Y307825D01*
Y307684D01*
X572239D01*
Y307544D01*
Y307403D01*
X571958D01*
Y307262D01*
Y307121D01*
X571394D01*
Y306980D01*
Y306839D01*
X571112D01*
Y306698D01*
Y306557D01*
X570549D01*
Y306416D01*
Y306275D01*
X570267D01*
Y306134D01*
Y305994D01*
X569703D01*
Y305853D01*
Y305712D01*
X569421D01*
Y305571D01*
Y305430D01*
X568858D01*
Y305289D01*
Y305148D01*
X568576D01*
Y305007D01*
Y304866D01*
X568012D01*
Y304725D01*
Y304585D01*
X567730D01*
Y304444D01*
Y304303D01*
X567167D01*
Y304162D01*
Y304021D01*
X566885D01*
Y303880D01*
Y303739D01*
X566321D01*
Y303598D01*
Y303457D01*
X565758D01*
Y303316D01*
Y303176D01*
X565476D01*
Y303034D01*
Y302894D01*
X565194D01*
Y302753D01*
Y302612D01*
X564631D01*
Y302471D01*
Y302330D01*
X564067D01*
Y302189D01*
Y302048D01*
X563785D01*
Y301907D01*
Y301766D01*
X563222D01*
Y301625D01*
Y301485D01*
X562658D01*
Y301344D01*
Y301203D01*
X562376D01*
Y301062D01*
Y300921D01*
X561812D01*
Y300780D01*
Y300639D01*
X561531D01*
Y300498D01*
Y300357D01*
X560967D01*
Y300216D01*
Y300075D01*
X560685D01*
Y299935D01*
Y299794D01*
X560122D01*
Y299653D01*
Y299512D01*
X559558D01*
Y299371D01*
Y299230D01*
X559276D01*
Y299089D01*
Y298948D01*
X558713D01*
Y298807D01*
Y298666D01*
X558149D01*
Y298526D01*
Y298385D01*
X557867D01*
Y298244D01*
Y298103D01*
X557304D01*
Y297962D01*
Y297821D01*
X557022D01*
Y297680D01*
Y297539D01*
X556458D01*
Y297398D01*
Y297257D01*
X555894D01*
Y297116D01*
Y296976D01*
X555613D01*
Y296835D01*
Y296694D01*
X555049D01*
Y296553D01*
Y296412D01*
X554485D01*
Y296271D01*
Y296130D01*
X553922D01*
Y295989D01*
Y295848D01*
X553640D01*
Y295707D01*
Y295567D01*
X553076D01*
Y295426D01*
Y295285D01*
X552794D01*
Y295144D01*
Y295003D01*
X552231D01*
Y294862D01*
Y294721D01*
X551667D01*
Y294580D01*
Y294439D01*
X551104D01*
Y294298D01*
Y294158D01*
X550822D01*
Y294016D01*
Y293876D01*
X550258D01*
Y293735D01*
Y293594D01*
X549695D01*
Y293453D01*
Y293312D01*
X549413D01*
Y293171D01*
Y293030D01*
X548849D01*
Y292889D01*
Y292748D01*
X548285D01*
Y292607D01*
Y292467D01*
X547722D01*
Y292326D01*
Y292185D01*
X547440D01*
Y292044D01*
Y291903D01*
X546876D01*
Y291762D01*
Y291621D01*
X546313D01*
Y291480D01*
Y291339D01*
X546031D01*
Y291198D01*
Y291057D01*
X545467D01*
Y290917D01*
Y290776D01*
X544622D01*
Y290635D01*
Y290494D01*
X544340D01*
Y290353D01*
Y290212D01*
X543776D01*
Y290071D01*
Y289930D01*
X543495D01*
Y289789D01*
Y289648D01*
X542931D01*
Y289508D01*
Y289367D01*
X542367D01*
Y289226D01*
Y289085D01*
X541804D01*
Y288944D01*
Y288803D01*
X541240D01*
Y288662D01*
Y288521D01*
X540958D01*
Y288380D01*
Y288239D01*
X540395D01*
Y288098D01*
Y287957D01*
X539831D01*
Y287817D01*
Y287676D01*
X539267D01*
Y287535D01*
Y287394D01*
X538704D01*
Y287253D01*
Y287112D01*
X538140D01*
Y286971D01*
Y286830D01*
X537576D01*
Y286689D01*
Y286549D01*
X537295D01*
Y286408D01*
Y286267D01*
X536731D01*
Y286126D01*
Y285985D01*
X536167D01*
Y285844D01*
Y285703D01*
X535604D01*
Y285562D01*
Y285421D01*
X535322D01*
Y285280D01*
Y285139D01*
X534758D01*
Y284998D01*
Y284858D01*
X534195D01*
Y284717D01*
Y284576D01*
X533631D01*
Y284435D01*
Y284294D01*
X533068D01*
Y284153D01*
Y284012D01*
X532504D01*
Y283871D01*
Y283730D01*
X531940D01*
Y283589D01*
Y283449D01*
X531377D01*
Y283308D01*
Y283167D01*
X531095D01*
Y283026D01*
Y282885D01*
X530531D01*
Y282744D01*
Y282603D01*
X529968D01*
Y282462D01*
Y282321D01*
X529404D01*
Y282180D01*
Y282040D01*
X528840D01*
Y281899D01*
Y281758D01*
X528277D01*
Y281617D01*
Y281476D01*
X527713D01*
Y281335D01*
Y281194D01*
X527149D01*
Y281053D01*
Y280912D01*
X526586D01*
Y280771D01*
Y280630D01*
X526022D01*
Y280490D01*
Y280349D01*
X525459D01*
Y280208D01*
Y280067D01*
X524895D01*
Y279926D01*
Y279785D01*
X524331D01*
Y279644D01*
Y279503D01*
X523768D01*
Y279362D01*
Y279221D01*
X523204D01*
Y279080D01*
Y278939D01*
X522640D01*
Y278799D01*
Y278658D01*
X522077D01*
Y278517D01*
Y278376D01*
X521513D01*
Y278235D01*
Y278094D01*
X520950D01*
Y277953D01*
Y277812D01*
X520386D01*
Y277671D01*
Y277530D01*
X519822D01*
Y277390D01*
Y277249D01*
X519259D01*
Y277108D01*
Y276967D01*
X518695D01*
Y276826D01*
Y276685D01*
X518131D01*
Y276544D01*
Y276403D01*
X517568D01*
Y276262D01*
Y276121D01*
X517004D01*
Y275980D01*
Y275840D01*
X516441D01*
Y275699D01*
Y275558D01*
X515877D01*
Y275417D01*
Y275276D01*
X515313D01*
Y275135D01*
Y274994D01*
X514750D01*
Y274853D01*
Y274712D01*
X514186D01*
Y274571D01*
Y274431D01*
X513622D01*
Y274290D01*
Y274149D01*
X512777D01*
Y274008D01*
Y273867D01*
X512213D01*
Y273726D01*
Y273585D01*
X511650D01*
Y273444D01*
Y273303D01*
X511086D01*
Y273162D01*
Y273022D01*
X510522D01*
Y272881D01*
Y272740D01*
X509677D01*
Y272599D01*
Y272458D01*
X509113D01*
Y272317D01*
Y272176D01*
X508268D01*
Y272035D01*
Y271894D01*
X507704D01*
Y271753D01*
Y271612D01*
X507141D01*
Y271472D01*
Y271331D01*
X506577D01*
Y271190D01*
Y271049D01*
X505732D01*
Y270908D01*
Y270767D01*
X505168D01*
Y270626D01*
Y270485D01*
X504604D01*
Y270344D01*
Y270203D01*
X503759D01*
Y270062D01*
Y269921D01*
X502914D01*
Y269781D01*
Y269640D01*
X502350D01*
Y269499D01*
Y269358D01*
X501786D01*
Y269217D01*
Y269076D01*
X500941D01*
Y268935D01*
Y268794D01*
X500095D01*
Y268653D01*
Y268512D01*
X499532D01*
Y268372D01*
Y268231D01*
X498968D01*
Y268090D01*
Y267949D01*
X497841D01*
Y267808D01*
Y267667D01*
X496995D01*
Y267526D01*
Y267385D01*
X496432D01*
Y267244D01*
Y267103D01*
X495586D01*
Y266963D01*
Y266821D01*
X494741D01*
Y266963D01*
Y267103D01*
X495305D01*
Y267244D01*
Y267385D01*
X495868D01*
Y267526D01*
Y267667D01*
X496432D01*
Y267808D01*
Y267949D01*
X496995D01*
Y268090D01*
Y268231D01*
X497559D01*
Y268372D01*
Y268512D01*
X498123D01*
Y268653D01*
Y268794D01*
X498686D01*
Y268935D01*
Y269076D01*
X499250D01*
Y269217D01*
Y269358D01*
X499814D01*
Y269499D01*
Y269640D01*
X500377D01*
Y269781D01*
Y269921D01*
X500941D01*
Y270062D01*
Y270203D01*
X501505D01*
Y270344D01*
Y270485D01*
X502068D01*
Y270626D01*
Y270767D01*
X502632D01*
Y270908D01*
Y271049D01*
X503195D01*
Y271190D01*
Y271331D01*
X503759D01*
Y271472D01*
Y271612D01*
X504323D01*
Y271753D01*
Y271894D01*
X504886D01*
Y272035D01*
Y272176D01*
X505450D01*
Y272317D01*
Y272458D01*
X506013D01*
Y272599D01*
Y272740D01*
X506577D01*
Y272881D01*
Y273022D01*
X507141D01*
Y273162D01*
Y273303D01*
X507704D01*
Y273444D01*
Y273585D01*
X508268D01*
Y273726D01*
Y273867D01*
X508832D01*
Y274008D01*
Y274149D01*
X509395D01*
Y274290D01*
Y274431D01*
X509959D01*
Y274571D01*
Y274712D01*
X510522D01*
Y274853D01*
Y274994D01*
X511086D01*
Y275135D01*
Y275276D01*
X511650D01*
Y275417D01*
Y275558D01*
X511931D01*
Y275699D01*
Y275840D01*
X512495D01*
Y275980D01*
Y276121D01*
X513059D01*
Y276262D01*
Y276403D01*
X513622D01*
Y276544D01*
Y276685D01*
X514186D01*
Y276826D01*
Y276967D01*
X514750D01*
Y277108D01*
Y277249D01*
X515313D01*
Y277390D01*
Y277530D01*
X515877D01*
Y277671D01*
Y277812D01*
X516159D01*
Y277953D01*
Y278094D01*
X516722D01*
Y278235D01*
Y278376D01*
X517286D01*
Y278517D01*
Y278658D01*
X517568D01*
Y278799D01*
Y278939D01*
X518131D01*
Y279080D01*
Y279221D01*
X518695D01*
Y279362D01*
Y279503D01*
X519259D01*
Y279644D01*
Y279785D01*
X519822D01*
Y279926D01*
Y280067D01*
X520104D01*
Y280208D01*
Y280349D01*
X520668D01*
Y280490D01*
Y280630D01*
X521231D01*
Y280771D01*
Y280912D01*
X521795D01*
Y281053D01*
Y281194D01*
X522359D01*
Y281335D01*
Y281476D01*
X522640D01*
Y281617D01*
Y281758D01*
X523204D01*
Y281899D01*
Y282040D01*
X523768D01*
Y282180D01*
Y282321D01*
X524049D01*
Y282462D01*
Y282603D01*
X524613D01*
Y282744D01*
Y282885D01*
X525177D01*
Y283026D01*
Y283167D01*
X525740D01*
Y283308D01*
Y283449D01*
X526022D01*
Y283589D01*
Y283730D01*
X526586D01*
Y283871D01*
Y284012D01*
X527149D01*
Y284153D01*
Y284294D01*
X527431D01*
Y284435D01*
Y284576D01*
X527995D01*
Y284717D01*
Y284858D01*
X528559D01*
Y284998D01*
Y285139D01*
X528840D01*
Y285280D01*
Y285421D01*
X529404D01*
Y285562D01*
Y285703D01*
X529686D01*
Y285844D01*
Y285985D01*
X530249D01*
Y286126D01*
Y286267D01*
X530813D01*
Y286408D01*
Y286549D01*
X531095D01*
Y286689D01*
Y286830D01*
X531658D01*
Y286971D01*
Y287112D01*
X532222D01*
Y287253D01*
Y287394D01*
X532786D01*
Y287535D01*
Y287676D01*
X533068D01*
Y287817D01*
Y287957D01*
X533631D01*
Y288098D01*
Y288239D01*
X533913D01*
Y288380D01*
Y288521D01*
X534477D01*
Y288662D01*
Y288803D01*
X534758D01*
Y288944D01*
Y289085D01*
X535322D01*
Y289226D01*
Y289367D01*
X535886D01*
Y289508D01*
Y289648D01*
X536167D01*
Y289789D01*
Y289930D01*
X536731D01*
Y290071D01*
Y290212D01*
X537013D01*
Y290353D01*
Y290494D01*
X537576D01*
Y290635D01*
Y290776D01*
X538140D01*
Y290917D01*
Y291057D01*
X538422D01*
Y291198D01*
Y291339D01*
X538986D01*
Y291480D01*
Y291621D01*
X539267D01*
Y291762D01*
Y291903D01*
X539831D01*
Y292044D01*
Y292185D01*
X540113D01*
Y292326D01*
Y292467D01*
X540676D01*
Y292607D01*
Y292748D01*
X540958D01*
Y292889D01*
Y293030D01*
X541522D01*
Y293171D01*
Y293312D01*
X541804D01*
Y293453D01*
Y293594D01*
X542367D01*
Y293735D01*
Y293876D01*
X542649D01*
Y294016D01*
Y294158D01*
X543213D01*
Y294298D01*
Y294439D01*
X543495D01*
Y294580D01*
Y294721D01*
X544058D01*
Y294862D01*
Y295003D01*
X544340D01*
Y295144D01*
Y295285D01*
X544904D01*
Y295426D01*
Y295567D01*
X545186D01*
Y295707D01*
Y295848D01*
X545749D01*
Y295989D01*
Y296130D01*
X546031D01*
Y296271D01*
Y296412D01*
X546313D01*
Y296553D01*
Y296694D01*
X546876D01*
Y296835D01*
Y296976D01*
X547440D01*
Y297116D01*
Y297257D01*
X547722D01*
Y297398D01*
Y297539D01*
X548285D01*
Y297680D01*
Y297821D01*
X548567D01*
Y297962D01*
Y298103D01*
X548849D01*
Y298244D01*
Y298385D01*
X549413D01*
Y298526D01*
Y298666D01*
X549695D01*
Y298807D01*
Y298948D01*
X550258D01*
Y299089D01*
Y299230D01*
X550540D01*
Y299371D01*
Y299512D01*
X551104D01*
Y299653D01*
Y299794D01*
X551385D01*
Y299935D01*
Y300075D01*
X551667D01*
Y300216D01*
Y300357D01*
X552231D01*
Y300498D01*
Y300639D01*
X552513D01*
Y300780D01*
Y300921D01*
X552794D01*
Y301062D01*
Y301203D01*
X553358D01*
Y301344D01*
Y301485D01*
X553922D01*
Y301625D01*
Y301766D01*
X554203D01*
Y301907D01*
Y302048D01*
X554485D01*
Y302189D01*
Y302330D01*
X554767D01*
Y302471D01*
Y302612D01*
X555331D01*
Y302753D01*
Y302894D01*
X555613D01*
Y303034D01*
Y303176D01*
X555894D01*
Y303316D01*
Y303457D01*
X556458D01*
Y303598D01*
Y303739D01*
X556740D01*
Y303880D01*
Y304021D01*
X557304D01*
Y304162D01*
Y304303D01*
X557585D01*
Y304444D01*
Y304585D01*
X557867D01*
Y304725D01*
Y304866D01*
X558431D01*
Y305007D01*
Y305148D01*
X558713D01*
Y305289D01*
Y305430D01*
X558994D01*
Y305571D01*
Y305712D01*
X559558D01*
Y305853D01*
Y305994D01*
X559840D01*
Y306134D01*
Y306275D01*
X560122D01*
Y306416D01*
Y306557D01*
X560685D01*
Y306698D01*
Y306839D01*
X560967D01*
Y306980D01*
Y307121D01*
X561249D01*
Y307262D01*
Y307403D01*
X561812D01*
Y307544D01*
Y307684D01*
X562094D01*
Y307825D01*
Y307966D01*
X562376D01*
Y308107D01*
Y308248D01*
X562940D01*
Y308389D01*
Y308530D01*
X563222D01*
Y308671D01*
Y308812D01*
X563503D01*
Y308953D01*
Y309093D01*
X563785D01*
Y309234D01*
Y309375D01*
X564349D01*
Y309516D01*
Y309657D01*
X564631D01*
Y309798D01*
Y309939D01*
X564912D01*
Y310080D01*
Y310221D01*
X565476D01*
Y310362D01*
Y310503D01*
X565758D01*
Y310644D01*
Y310784D01*
X566040D01*
Y310925D01*
Y311066D01*
X566603D01*
Y311207D01*
Y311348D01*
X566885D01*
Y311489D01*
Y311630D01*
X567167D01*
Y311771D01*
Y311912D01*
X567449D01*
Y312053D01*
Y312194D01*
X567730D01*
Y312334D01*
Y312475D01*
X568294D01*
Y312616D01*
Y312757D01*
X568576D01*
Y312898D01*
Y313039D01*
X568858D01*
Y313180D01*
Y313321D01*
X569140D01*
Y313462D01*
Y313603D01*
X569421D01*
Y313743D01*
Y313884D01*
X569985D01*
Y314025D01*
Y314166D01*
X570267D01*
Y314307D01*
Y314448D01*
X570830D01*
Y314589D01*
Y314730D01*
X571112D01*
Y314871D01*
Y315012D01*
X571394D01*
Y315152D01*
Y315293D01*
X571676D01*
Y315434D01*
Y315575D01*
X571958D01*
Y315716D01*
Y315857D01*
X572239D01*
Y315998D01*
Y316139D01*
X572521D01*
Y316280D01*
Y316421D01*
X573085D01*
Y316562D01*
Y316702D01*
X573367D01*
Y316843D01*
Y316984D01*
X573649D01*
Y317125D01*
Y317266D01*
X573930D01*
Y317407D01*
Y317548D01*
X574212D01*
Y317689D01*
Y317830D01*
X574494D01*
Y317971D01*
Y318112D01*
X574776D01*
Y318252D01*
Y318393D01*
X575058D01*
Y318534D01*
Y318675D01*
X575340D01*
Y318816D01*
Y318957D01*
X575903D01*
Y319098D01*
Y319239D01*
X576185D01*
Y319380D01*
Y319521D01*
X576467D01*
Y319662D01*
Y319802D01*
X576749D01*
Y319943D01*
Y320084D01*
X577030D01*
Y320225D01*
Y320366D01*
X577312D01*
Y320507D01*
Y320648D01*
X577594D01*
Y320789D01*
Y320930D01*
X577876D01*
Y321071D01*
Y321212D01*
X578439D01*
Y321352D01*
Y321493D01*
Y321634D01*
Y321775D01*
X578721D01*
Y321916D01*
Y322057D01*
X579003D01*
Y322198D01*
Y322339D01*
X579567D01*
Y322480D01*
Y322621D01*
Y322761D01*
Y322902D01*
X579849D01*
Y323043D01*
Y323184D01*
X580130D01*
Y323325D01*
Y323466D01*
X580412D01*
Y323607D01*
Y323748D01*
X580694D01*
Y323889D01*
Y324030D01*
X580976D01*
Y324170D01*
Y324311D01*
X581539D01*
Y324452D01*
Y324593D01*
Y324734D01*
Y324875D01*
X581821D01*
Y325016D01*
Y325157D01*
X582385D01*
Y325298D01*
Y325439D01*
Y325580D01*
Y325720D01*
X582667D01*
Y325861D01*
Y326002D01*
X582948D01*
Y326143D01*
Y326284D01*
X583230D01*
Y326425D01*
Y326566D01*
X583512D01*
Y326707D01*
Y326848D01*
X583794D01*
Y326989D01*
Y327130D01*
X584076D01*
Y327271D01*
Y327411D01*
X584357D01*
Y327552D01*
Y327693D01*
X584639D01*
Y327834D01*
Y327975D01*
Y328116D01*
Y328257D01*
X584921D01*
Y328398D01*
Y328539D01*
X585203D01*
Y328680D01*
Y328820D01*
X585485D01*
Y328961D01*
Y329102D01*
X585766D01*
Y329243D01*
Y329384D01*
X586048D01*
Y329525D01*
Y329666D01*
X586330D01*
Y329807D01*
Y329948D01*
X586612D01*
Y330089D01*
Y330229D01*
X586894D01*
Y330370D01*
Y330511D01*
Y330652D01*
Y330793D01*
X587176D01*
Y330934D01*
Y331075D01*
X587457D01*
Y331216D01*
Y331357D01*
X587739D01*
Y331498D01*
Y331639D01*
X588021D01*
Y331779D01*
Y331920D01*
X588303D01*
Y332061D01*
Y332202D01*
Y332343D01*
Y332484D01*
X588585D01*
Y332625D01*
Y332766D01*
X588867D01*
Y332907D01*
Y333048D01*
Y333189D01*
Y333329D01*
X589148D01*
Y333470D01*
Y333611D01*
X589430D01*
Y333752D01*
Y333893D01*
X589712D01*
Y334034D01*
Y334175D01*
X589994D01*
Y334316D01*
Y334457D01*
Y334598D01*
Y334739D01*
X590276D01*
Y334879D01*
Y335020D01*
X590557D01*
Y335161D01*
Y335302D01*
Y335443D01*
Y335584D01*
X590839D01*
Y335725D01*
Y335866D01*
X591121D01*
Y336007D01*
Y336148D01*
X591403D01*
Y336288D01*
Y336429D01*
Y336570D01*
Y336711D01*
X591685D01*
Y336852D01*
Y336993D01*
Y337134D01*
Y337275D01*
X591967D01*
Y337416D01*
Y337557D01*
X592248D01*
Y337697D01*
Y337838D01*
Y337979D01*
Y338120D01*
X592530D01*
Y338261D01*
Y338402D01*
Y338543D01*
Y338684D01*
X592812D01*
Y338825D01*
Y338966D01*
Y339107D01*
Y339248D01*
X593094D01*
Y339389D01*
Y339529D01*
Y339670D01*
Y339811D01*
X593376D01*
Y339952D01*
Y340093D01*
Y340234D01*
Y340375D01*
X593657D01*
Y340516D01*
Y340657D01*
Y340798D01*
Y340938D01*
X593939D01*
Y341079D01*
Y341220D01*
Y341361D01*
Y341502D01*
X594221D01*
Y341643D01*
Y341784D01*
Y341925D01*
Y342066D01*
X594503D01*
Y342207D01*
Y342347D01*
Y342488D01*
Y342629D01*
Y342770D01*
Y342911D01*
X594785D01*
Y343052D01*
Y343193D01*
Y343334D01*
Y343475D01*
X595066D01*
Y343616D01*
Y343756D01*
Y343897D01*
Y344038D01*
Y344179D01*
Y344320D01*
Y344461D01*
Y344602D01*
X595348D01*
Y344743D01*
Y344884D01*
Y345025D01*
Y345166D01*
Y345307D01*
Y345447D01*
Y345588D01*
Y345729D01*
Y345870D01*
Y346011D01*
X595630D01*
Y346152D01*
Y346293D01*
Y346434D01*
Y346575D01*
Y346716D01*
Y346856D01*
Y346997D01*
Y347138D01*
Y347279D01*
Y347420D01*
Y347561D01*
Y347702D01*
Y347843D01*
Y347984D01*
Y348125D01*
Y348265D01*
Y348406D01*
Y348547D01*
Y348688D01*
Y348829D01*
Y348970D01*
Y349111D01*
Y349252D01*
Y349393D01*
Y349534D01*
Y349675D01*
Y349815D01*
Y349956D01*
Y350097D01*
Y350238D01*
Y350379D01*
Y350520D01*
X595348D01*
Y350661D01*
Y350802D01*
Y350943D01*
Y351084D01*
Y351225D01*
Y351366D01*
Y351506D01*
Y351647D01*
Y351788D01*
Y351929D01*
X595066D01*
Y352070D01*
Y352211D01*
Y352352D01*
Y352493D01*
X594785D01*
Y352634D01*
Y352775D01*
Y352915D01*
Y353056D01*
X594503D01*
Y353197D01*
Y353338D01*
Y353479D01*
Y353620D01*
X594221D01*
Y353761D01*
Y353902D01*
Y354043D01*
Y354184D01*
X593939D01*
Y354324D01*
Y354465D01*
X593657D01*
Y354606D01*
Y354747D01*
Y354888D01*
Y355029D01*
X593376D01*
Y355170D01*
Y355311D01*
X593094D01*
Y355452D01*
Y355593D01*
X592812D01*
Y355734D01*
Y355874D01*
X592530D01*
Y356015D01*
Y356156D01*
X592248D01*
Y356297D01*
Y356438D01*
X591685D01*
Y356579D01*
Y356720D01*
X591403D01*
Y356861D01*
Y357002D01*
X591121D01*
Y357143D01*
Y357284D01*
X590839D01*
Y357425D01*
Y357565D01*
X590276D01*
Y357706D01*
Y357847D01*
X589712D01*
Y357988D01*
Y358129D01*
X589148D01*
Y358270D01*
Y358411D01*
X588867D01*
Y358552D01*
Y358693D01*
X588021D01*
Y358834D01*
Y358974D01*
X587457D01*
Y359115D01*
Y359256D01*
X586894D01*
Y359397D01*
Y359538D01*
X586048D01*
Y359679D01*
Y359820D01*
X585485D01*
Y359961D01*
Y360102D01*
X584639D01*
Y360243D01*
Y360383D01*
X583512D01*
Y360524D01*
Y360665D01*
X582385D01*
Y360806D01*
Y360947D01*
X581539D01*
Y361088D01*
Y361229D01*
X580412D01*
Y361370D01*
Y361511D01*
X578439D01*
Y361652D01*
Y361792D01*
X577312D01*
Y361934D01*
Y362074D01*
X574776D01*
Y362215D01*
Y362356D01*
X573085D01*
Y362497D01*
Y362638D01*
X571394D01*
Y362779D01*
Y362920D01*
X570549D01*
Y363061D01*
Y363202D01*
X562940D01*
Y363061D01*
Y362920D01*
X561812D01*
Y362779D01*
Y362638D01*
X560403D01*
Y362497D01*
Y362356D01*
X559276D01*
Y362215D01*
Y362074D01*
X558149D01*
Y361934D01*
Y361792D01*
X557304D01*
Y361652D01*
Y361511D01*
X556176D01*
Y361370D01*
Y361229D01*
X555049D01*
Y361088D01*
Y360947D01*
X554485D01*
Y360806D01*
Y360665D01*
X553358D01*
Y360524D01*
Y360383D01*
X552231D01*
Y360243D01*
Y360102D01*
X551667D01*
Y359961D01*
Y359820D01*
Y359679D01*
Y359538D01*
X552231D01*
Y359397D01*
Y359256D01*
X552513D01*
Y359115D01*
Y358974D01*
X552794D01*
Y358834D01*
Y358693D01*
X553076D01*
Y358552D01*
Y358411D01*
X553358D01*
Y358270D01*
Y358129D01*
X553640D01*
Y357988D01*
Y357847D01*
X553922D01*
Y357706D01*
Y357565D01*
Y357425D01*
Y357284D01*
X554203D01*
Y357143D01*
Y357002D01*
X554485D01*
Y356861D01*
Y356720D01*
Y356579D01*
Y356438D01*
X554767D01*
Y356297D01*
Y356156D01*
X555049D01*
Y356015D01*
Y355874D01*
Y355734D01*
Y355593D01*
X555331D01*
Y355452D01*
Y355311D01*
Y355170D01*
Y355029D01*
Y354888D01*
Y354747D01*
Y354606D01*
Y354465D01*
X555613D01*
Y354324D01*
Y354184D01*
Y354043D01*
Y353902D01*
Y353761D01*
Y353620D01*
Y353479D01*
Y353338D01*
Y353197D01*
Y353056D01*
Y352915D01*
Y352775D01*
Y352634D01*
Y352493D01*
Y352352D01*
Y352211D01*
Y352070D01*
Y351929D01*
Y351788D01*
Y351647D01*
Y351506D01*
Y351366D01*
Y351225D01*
Y351084D01*
Y350943D01*
Y350802D01*
Y350661D01*
Y350520D01*
X555331D01*
Y350379D01*
Y350238D01*
Y350097D01*
Y349956D01*
Y349815D01*
Y349675D01*
Y349534D01*
Y349393D01*
X555049D01*
Y349252D01*
Y349111D01*
Y348970D01*
Y348829D01*
Y348688D01*
Y348547D01*
X554767D01*
Y348406D01*
Y348265D01*
Y348125D01*
Y347984D01*
X554485D01*
Y347843D01*
Y347702D01*
Y347561D01*
Y347420D01*
X554203D01*
Y347279D01*
Y347138D01*
Y346997D01*
Y346856D01*
X553922D01*
Y346716D01*
Y346575D01*
X553640D01*
Y346434D01*
Y346293D01*
Y346152D01*
Y346011D01*
X553358D01*
Y345870D01*
Y345729D01*
X553076D01*
Y345588D01*
Y345447D01*
Y345307D01*
Y345166D01*
X552794D01*
Y345025D01*
Y344884D01*
X552513D01*
Y344743D01*
Y344602D01*
X552231D01*
Y344461D01*
Y344320D01*
X551949D01*
Y344179D01*
Y344038D01*
X551385D01*
Y343897D01*
Y343756D01*
X551104D01*
Y343616D01*
Y343475D01*
X550540D01*
Y343334D01*
Y343193D01*
X550258D01*
Y343052D01*
Y342911D01*
X549976D01*
Y342770D01*
Y342629D01*
X549413D01*
Y342488D01*
Y342347D01*
X548849D01*
Y342207D01*
Y342066D01*
X548004D01*
Y341925D01*
Y341784D01*
X547158D01*
Y341643D01*
Y341502D01*
X546313D01*
Y341643D01*
Y341784D01*
Y341925D01*
Y342066D01*
Y342207D01*
Y342347D01*
Y342488D01*
Y342629D01*
X546595D01*
Y342770D01*
Y342911D01*
Y343052D01*
Y343193D01*
Y343334D01*
Y343475D01*
Y343616D01*
Y343756D01*
Y343897D01*
Y344038D01*
Y344179D01*
Y344320D01*
Y344461D01*
Y344602D01*
Y344743D01*
Y344884D01*
Y345025D01*
Y345166D01*
Y345307D01*
Y345447D01*
Y345588D01*
Y345729D01*
Y345870D01*
Y346011D01*
Y346152D01*
Y346293D01*
Y346434D01*
Y346575D01*
X546313D01*
Y346716D01*
Y346856D01*
Y346997D01*
Y347138D01*
Y347279D01*
Y347420D01*
X546031D01*
Y347561D01*
Y347702D01*
Y347843D01*
Y347984D01*
X545749D01*
Y348125D01*
Y348265D01*
Y348406D01*
Y348547D01*
X545467D01*
Y348688D01*
Y348829D01*
Y348970D01*
Y349111D01*
X545186D01*
Y349252D01*
Y349393D01*
X544904D01*
Y349534D01*
Y349675D01*
X544622D01*
Y349815D01*
Y349956D01*
X544340D01*
Y350097D01*
Y350238D01*
X543776D01*
Y350379D01*
Y350520D01*
X543213D01*
Y350661D01*
Y350802D01*
X542931D01*
Y350943D01*
Y351084D01*
X542367D01*
Y351225D01*
Y351366D01*
X541804D01*
Y351506D01*
Y351647D01*
X541240D01*
Y351788D01*
Y351929D01*
X540676D01*
Y352070D01*
Y352211D01*
X540113D01*
Y352352D01*
Y352493D01*
X539267D01*
Y352634D01*
Y352775D01*
X538704D01*
Y352915D01*
Y353056D01*
X538140D01*
Y353197D01*
Y353338D01*
X537295D01*
Y353479D01*
Y353620D01*
X537013D01*
Y353761D01*
Y353902D01*
X537576D01*
Y354043D01*
Y354184D01*
X538140D01*
Y354324D01*
Y354465D01*
X539831D01*
Y354606D01*
Y354747D01*
X540676D01*
Y354606D01*
Y354465D01*
X542367D01*
Y354324D01*
Y354184D01*
X543213D01*
Y354043D01*
Y353902D01*
X543495D01*
Y353761D01*
Y353620D01*
X544058D01*
Y353479D01*
Y353338D01*
X544622D01*
Y353197D01*
Y353056D01*
X544904D01*
Y352915D01*
Y352775D01*
X545186D01*
Y352634D01*
Y352493D01*
X545467D01*
Y352352D01*
Y352211D01*
X545749D01*
Y352070D01*
Y351929D01*
X546031D01*
Y351788D01*
Y351647D01*
X546313D01*
Y351506D01*
Y351366D01*
X546595D01*
Y351225D01*
Y351084D01*
Y350943D01*
Y350802D01*
X546876D01*
Y350661D01*
Y350520D01*
X547158D01*
Y350379D01*
Y350238D01*
Y350097D01*
Y349956D01*
X547440D01*
Y349815D01*
Y349675D01*
Y349534D01*
Y349393D01*
X547722D01*
Y349252D01*
Y349111D01*
Y348970D01*
Y348829D01*
X548004D01*
Y348688D01*
Y348547D01*
Y348406D01*
Y348265D01*
X548285D01*
Y348125D01*
Y347984D01*
Y347843D01*
Y347702D01*
X548567D01*
Y347561D01*
Y347420D01*
X549131D01*
Y347561D01*
Y347702D01*
X549413D01*
Y347843D01*
Y347984D01*
X549695D01*
Y348125D01*
Y348265D01*
X549976D01*
Y348406D01*
Y348547D01*
Y348688D01*
Y348829D01*
X550258D01*
Y348970D01*
Y349111D01*
X550540D01*
Y349252D01*
Y349393D01*
Y349534D01*
Y349675D01*
X550822D01*
Y349815D01*
Y349956D01*
Y350097D01*
Y350238D01*
X551104D01*
Y350379D01*
Y350520D01*
Y350661D01*
Y350802D01*
Y350943D01*
Y351084D01*
Y351225D01*
Y351366D01*
X551385D01*
Y351506D01*
Y351647D01*
Y351788D01*
Y351929D01*
Y352070D01*
Y352211D01*
Y352352D01*
Y352493D01*
Y352634D01*
Y352775D01*
Y352915D01*
Y353056D01*
Y353197D01*
Y353338D01*
Y353479D01*
Y353620D01*
X551104D01*
Y353761D01*
Y353902D01*
Y354043D01*
Y354184D01*
Y354324D01*
Y354465D01*
X550822D01*
Y354606D01*
Y354747D01*
Y354888D01*
Y355029D01*
X550540D01*
Y355170D01*
Y355311D01*
Y355452D01*
Y355593D01*
X550258D01*
Y355734D01*
Y355874D01*
Y356015D01*
Y356156D01*
X549976D01*
Y356297D01*
Y356438D01*
X549695D01*
Y356579D01*
Y356720D01*
X549413D01*
Y356861D01*
Y357002D01*
X549131D01*
Y357143D01*
Y357284D01*
X548849D01*
Y357425D01*
Y357565D01*
X548567D01*
Y357706D01*
Y357847D01*
X548004D01*
Y357988D01*
Y358129D01*
X547440D01*
Y358270D01*
Y358411D01*
X546876D01*
Y358552D01*
Y358693D01*
X545467D01*
Y358834D01*
Y358974D01*
X544058D01*
Y358834D01*
Y358693D01*
X536449D01*
Y358834D01*
Y358974D01*
X535604D01*
Y359115D01*
Y359256D01*
X534195D01*
Y359397D01*
Y359538D01*
X532786D01*
Y359679D01*
Y359820D01*
X531940D01*
Y359961D01*
Y360102D01*
X530813D01*
Y360243D01*
Y360383D01*
X529404D01*
Y360524D01*
Y360665D01*
X527713D01*
Y360806D01*
Y360947D01*
X526304D01*
Y361088D01*
Y361229D01*
X521231D01*
Y361088D01*
Y360947D01*
X519822D01*
Y360806D01*
Y360665D01*
X518695D01*
Y360524D01*
Y360383D01*
X517568D01*
Y360243D01*
Y360102D01*
X517004D01*
Y359961D01*
Y359820D01*
X516159D01*
Y359679D01*
Y359538D01*
X515595D01*
Y359397D01*
Y359256D01*
X515032D01*
Y359115D01*
Y358974D01*
X514468D01*
Y358834D01*
Y358693D01*
X514186D01*
Y358552D01*
Y358411D01*
X513622D01*
Y358270D01*
Y358129D01*
X513341D01*
Y357988D01*
Y357847D01*
X512777D01*
Y357706D01*
Y357565D01*
X512213D01*
Y357425D01*
Y357284D01*
X511650D01*
Y357143D01*
Y357002D01*
X511086D01*
Y356861D01*
Y356720D01*
X510804D01*
Y356579D01*
Y356438D01*
X509959D01*
Y356297D01*
Y356156D01*
X509395D01*
Y356015D01*
Y355874D01*
X508550D01*
Y355734D01*
Y355593D01*
X507986D01*
Y355452D01*
Y355311D01*
X507141D01*
Y355170D01*
Y355029D01*
X506577D01*
Y354888D01*
Y354747D01*
X505732D01*
Y354606D01*
Y354465D01*
X504886D01*
Y354324D01*
Y354184D01*
X503759D01*
Y354043D01*
Y353902D01*
X503195D01*
Y353761D01*
Y353620D01*
X502068D01*
Y353479D01*
Y353338D01*
X500941D01*
Y353197D01*
Y353056D01*
X500095D01*
Y352915D01*
Y352775D01*
X498968D01*
Y352634D01*
Y352493D01*
X497841D01*
Y352352D01*
Y352211D01*
X496714D01*
Y352070D01*
Y351929D01*
X495868D01*
Y351788D01*
Y351647D01*
X495023D01*
Y351506D01*
Y351366D01*
X493614D01*
Y351225D01*
Y351084D01*
X493050D01*
Y350943D01*
Y350802D01*
X492205D01*
Y350661D01*
Y350520D01*
X491077D01*
Y350379D01*
Y350238D01*
X489950D01*
Y350097D01*
Y349956D01*
X489386D01*
Y349815D01*
Y349675D01*
X488259D01*
Y349534D01*
Y349393D01*
X487414D01*
Y349252D01*
Y349111D01*
X486287D01*
Y348970D01*
Y348829D01*
X485441D01*
Y348688D01*
Y348547D01*
Y348406D01*
Y348265D01*
X486005D01*
Y348125D01*
Y347984D01*
X486287D01*
Y347843D01*
Y347702D01*
X486850D01*
Y347561D01*
Y347420D01*
X487132D01*
Y347279D01*
Y347138D01*
X487696D01*
Y346997D01*
Y346856D01*
X487977D01*
Y346716D01*
Y346575D01*
X488541D01*
Y346434D01*
X488682D01*
Y346293D01*
X487696D01*
Y346434D01*
Y346575D01*
X479241D01*
Y346434D01*
Y346293D01*
X477268D01*
Y346152D01*
Y346011D01*
X476423D01*
Y345870D01*
Y345729D01*
X475296D01*
Y345588D01*
Y345447D01*
X474450D01*
Y345307D01*
Y345166D01*
X473605D01*
Y345025D01*
Y344884D01*
X473041D01*
Y344743D01*
Y344602D01*
X472478D01*
Y344461D01*
Y344320D01*
X471914D01*
Y344179D01*
Y344038D01*
X471632D01*
Y343897D01*
Y343756D01*
X471069D01*
Y343616D01*
Y343475D01*
X470787D01*
Y343334D01*
Y343193D01*
Y343052D01*
Y342911D01*
Y342770D01*
Y342629D01*
X474450D01*
Y342488D01*
Y342347D01*
X475296D01*
Y342207D01*
Y342066D01*
X475578D01*
Y341925D01*
Y341784D01*
X475859D01*
Y341643D01*
Y341502D01*
X476141D01*
Y341361D01*
Y341220D01*
Y341079D01*
Y340938D01*
X476423D01*
Y340798D01*
Y340657D01*
Y340516D01*
Y340375D01*
Y340234D01*
Y340093D01*
Y339952D01*
Y339811D01*
Y339670D01*
Y339529D01*
Y339389D01*
Y339248D01*
Y339107D01*
Y338966D01*
Y338825D01*
Y338684D01*
Y338543D01*
Y338402D01*
X476141D01*
Y338261D01*
Y338120D01*
Y337979D01*
Y337838D01*
Y337697D01*
Y337557D01*
Y337416D01*
Y337275D01*
X475859D01*
Y337134D01*
Y336993D01*
Y336852D01*
Y336711D01*
Y336570D01*
Y336429D01*
X475578D01*
Y336288D01*
Y336148D01*
Y336007D01*
Y335866D01*
X475296D01*
Y335725D01*
Y335584D01*
Y335443D01*
Y335302D01*
X475014D01*
Y335161D01*
Y335020D01*
X474732D01*
Y334879D01*
Y334739D01*
Y334598D01*
Y334457D01*
X474450D01*
Y334316D01*
Y334175D01*
X474169D01*
Y334034D01*
Y333893D01*
Y333752D01*
Y333611D01*
X473887D01*
Y333470D01*
Y333329D01*
X473605D01*
Y333189D01*
Y333048D01*
X473041D01*
Y332907D01*
Y332766D01*
X472478D01*
Y332625D01*
Y332484D01*
X471632D01*
Y332625D01*
Y332766D01*
X471350D01*
Y332907D01*
Y333048D01*
X471069D01*
Y333189D01*
Y333329D01*
X470787D01*
Y333470D01*
Y333611D01*
Y333752D01*
Y333893D01*
Y334034D01*
Y334175D01*
Y334316D01*
Y334457D01*
Y334598D01*
Y334739D01*
X471350D01*
Y334879D01*
Y335020D01*
X471632D01*
Y335161D01*
Y335302D01*
X471914D01*
Y335443D01*
Y335584D01*
Y335725D01*
Y335866D01*
X471632D01*
Y336007D01*
Y336148D01*
X471069D01*
Y336288D01*
Y336429D01*
X469660D01*
Y336288D01*
Y336148D01*
X469096D01*
Y336007D01*
Y335866D01*
X468532D01*
Y335725D01*
Y335584D01*
X468251D01*
Y335443D01*
Y335302D01*
X467969D01*
Y335161D01*
Y335020D01*
Y334879D01*
Y334739D01*
X467687D01*
Y334598D01*
Y334457D01*
Y334316D01*
Y334175D01*
Y334034D01*
Y333893D01*
Y333752D01*
Y333611D01*
Y333470D01*
Y333329D01*
Y333189D01*
Y333048D01*
X467969D01*
Y332907D01*
Y332766D01*
Y332625D01*
Y332484D01*
X468251D01*
Y332343D01*
Y332202D01*
X468532D01*
Y332061D01*
Y331920D01*
X468814D01*
Y331779D01*
Y331639D01*
X469096D01*
Y331498D01*
Y331357D01*
X469378D01*
Y331216D01*
Y331075D01*
X469941D01*
Y330934D01*
Y330793D01*
X471069D01*
Y330652D01*
Y330511D01*
X473041D01*
Y330652D01*
Y330793D01*
X475014D01*
Y330934D01*
Y331075D01*
X476141D01*
Y331216D01*
Y331357D01*
X477832D01*
Y331498D01*
Y331639D01*
X479523D01*
Y331779D01*
Y331920D01*
X480932D01*
Y332061D01*
Y332202D01*
X482623D01*
Y332343D01*
Y332484D01*
X485441D01*
Y332625D01*
Y332766D01*
X489105D01*
Y332625D01*
Y332484D01*
X491359D01*
Y332343D01*
Y332202D01*
X492486D01*
Y332061D01*
Y331920D01*
X493332D01*
Y331779D01*
Y331639D01*
X493895D01*
Y331498D01*
Y331357D01*
X494459D01*
Y331216D01*
Y331075D01*
X495023D01*
Y330934D01*
Y330793D01*
X495586D01*
Y330652D01*
Y330511D01*
X496150D01*
Y330370D01*
Y330229D01*
X496714D01*
Y330089D01*
Y329948D01*
X496995D01*
Y329807D01*
Y329666D01*
X497559D01*
Y329525D01*
Y329384D01*
Y329243D01*
Y329102D01*
X498123D01*
Y328961D01*
Y328820D01*
X498405D01*
Y328680D01*
Y328539D01*
X498686D01*
Y328398D01*
Y328257D01*
X498968D01*
Y328116D01*
Y327975D01*
X499250D01*
Y327834D01*
Y327693D01*
X499532D01*
Y327552D01*
Y327411D01*
X499814D01*
Y327271D01*
Y327130D01*
X500095D01*
Y326989D01*
Y326848D01*
X500377D01*
Y326707D01*
Y326566D01*
Y326425D01*
Y326284D01*
X500659D01*
Y326143D01*
Y326002D01*
X500941D01*
Y325861D01*
Y325720D01*
X501223D01*
Y325580D01*
Y325439D01*
Y325298D01*
Y325157D01*
X501505D01*
Y325016D01*
Y324875D01*
X501786D01*
Y324734D01*
Y324593D01*
Y324452D01*
Y324311D01*
X502068D01*
Y324170D01*
Y324030D01*
X502350D01*
Y323889D01*
Y323748D01*
Y323607D01*
Y323466D01*
X502632D01*
Y323325D01*
Y323184D01*
Y323043D01*
Y322902D01*
X502914D01*
Y322761D01*
Y322621D01*
X503195D01*
Y322480D01*
Y322339D01*
X503477D01*
Y322198D01*
Y322057D01*
Y321916D01*
Y321775D01*
X503759D01*
Y321634D01*
Y321493D01*
Y321352D01*
Y321212D01*
X504041D01*
Y321071D01*
Y320930D01*
Y320789D01*
Y320648D01*
X504323D01*
Y320507D01*
Y320366D01*
Y320225D01*
Y320084D01*
X504604D01*
Y319943D01*
Y319802D01*
Y319662D01*
Y319521D01*
X504886D01*
Y319380D01*
Y319239D01*
X505168D01*
Y319098D01*
Y318957D01*
Y318816D01*
Y318675D01*
X505450D01*
Y318534D01*
Y318393D01*
Y318252D01*
Y318112D01*
X505732D01*
Y317971D01*
Y317830D01*
Y317689D01*
Y317548D01*
Y317407D01*
Y317266D01*
X506013D01*
Y317125D01*
Y316984D01*
X506295D01*
Y316843D01*
Y316702D01*
Y316562D01*
Y316421D01*
Y316280D01*
Y316139D01*
X506577D01*
Y315998D01*
Y315857D01*
Y315716D01*
Y315575D01*
X506859D01*
Y315434D01*
Y315293D01*
Y315152D01*
Y315012D01*
Y314871D01*
Y314730D01*
X507141D01*
Y314589D01*
Y314448D01*
Y314307D01*
Y314166D01*
X507422D01*
Y314025D01*
Y313884D01*
Y313743D01*
Y313603D01*
Y313462D01*
Y313321D01*
Y313180D01*
Y313039D01*
X507704D01*
Y312898D01*
Y312757D01*
Y312616D01*
Y312475D01*
Y312334D01*
Y312194D01*
X507986D01*
Y312053D01*
Y311912D01*
Y311771D01*
Y311630D01*
Y311489D01*
Y311348D01*
X508268D01*
Y311207D01*
Y311066D01*
Y310925D01*
Y310784D01*
Y310644D01*
Y310503D01*
Y310362D01*
Y310221D01*
X508550D01*
Y310080D01*
Y309939D01*
Y309798D01*
Y309657D01*
Y309516D01*
Y309375D01*
Y309234D01*
Y309093D01*
Y308953D01*
Y308812D01*
Y308671D01*
Y308530D01*
X508832D01*
Y308389D01*
Y308248D01*
Y308107D01*
Y307966D01*
Y307825D01*
Y307684D01*
Y307544D01*
Y307403D01*
Y307262D01*
Y307121D01*
Y306980D01*
Y306839D01*
Y306698D01*
Y306557D01*
Y306416D01*
Y306275D01*
Y306134D01*
Y305994D01*
Y305853D01*
Y305712D01*
Y305571D01*
Y305430D01*
Y305289D01*
Y305148D01*
Y305007D01*
Y304866D01*
Y304725D01*
Y304585D01*
Y304444D01*
Y304303D01*
Y304162D01*
Y304021D01*
Y303880D01*
Y303739D01*
Y303598D01*
Y303457D01*
Y303316D01*
Y303176D01*
Y303034D01*
Y302894D01*
Y302753D01*
Y302612D01*
Y302471D01*
Y302330D01*
X508550D01*
Y302189D01*
Y302048D01*
Y301907D01*
Y301766D01*
Y301625D01*
Y301485D01*
Y301344D01*
Y301203D01*
Y301062D01*
Y300921D01*
X508268D01*
Y300780D01*
Y300639D01*
Y300498D01*
Y300357D01*
Y300216D01*
Y300075D01*
X507986D01*
Y299935D01*
Y299794D01*
Y299653D01*
Y299512D01*
Y299371D01*
Y299230D01*
X507704D01*
Y299089D01*
Y298948D01*
Y298807D01*
Y298666D01*
Y298526D01*
Y298385D01*
X507422D01*
Y298244D01*
Y298103D01*
Y297962D01*
Y297821D01*
X507141D01*
Y297680D01*
Y297539D01*
Y297398D01*
Y297257D01*
X506859D01*
Y297116D01*
Y296976D01*
Y296835D01*
Y296694D01*
X506577D01*
Y296553D01*
Y296412D01*
X506295D01*
Y296271D01*
Y296130D01*
Y295989D01*
Y295848D01*
X506013D01*
Y295707D01*
Y295567D01*
X505732D01*
Y295426D01*
Y295285D01*
X505450D01*
Y295144D01*
Y295003D01*
Y294862D01*
Y294721D01*
X505168D01*
Y294580D01*
Y294439D01*
X504886D01*
Y294298D01*
Y294158D01*
X504604D01*
Y294016D01*
Y293876D01*
X504323D01*
Y293735D01*
Y293594D01*
X504041D01*
Y293453D01*
Y293312D01*
Y293171D01*
Y293030D01*
X503477D01*
Y292889D01*
Y292748D01*
X503195D01*
Y292607D01*
Y292467D01*
X502914D01*
Y292326D01*
Y292185D01*
X502632D01*
Y292044D01*
Y291903D01*
X502350D01*
Y291762D01*
Y291621D01*
X501786D01*
Y291480D01*
Y291339D01*
X501505D01*
Y291198D01*
Y291057D01*
X501223D01*
Y290917D01*
Y290776D01*
X500659D01*
Y290635D01*
Y290494D01*
X500377D01*
Y290353D01*
Y290212D01*
X499814D01*
Y290071D01*
Y289930D01*
X499532D01*
Y289789D01*
Y289648D01*
X498686D01*
Y289508D01*
Y289367D01*
X498405D01*
Y289226D01*
Y289085D01*
X497841D01*
Y288944D01*
Y288803D01*
X497277D01*
Y288662D01*
Y288521D01*
X496714D01*
Y288380D01*
Y288239D01*
X496150D01*
Y288098D01*
Y287957D01*
X495305D01*
Y287817D01*
Y287676D01*
X494459D01*
Y287535D01*
Y287394D01*
X493614D01*
Y287253D01*
Y287112D01*
X492486D01*
Y286971D01*
Y286830D01*
X491077D01*
Y286689D01*
Y286549D01*
Y286408D01*
Y286267D01*
X491359D01*
Y286126D01*
Y285985D01*
X492768D01*
Y285844D01*
Y285703D01*
X495868D01*
Y285844D01*
Y285985D01*
X496995D01*
Y286126D01*
Y286267D01*
X497559D01*
Y286408D01*
Y286549D01*
X498123D01*
Y286689D01*
Y286830D01*
X498686D01*
Y286971D01*
Y287112D01*
X499250D01*
Y287253D01*
Y287394D01*
X499532D01*
Y287535D01*
Y287676D01*
X500377D01*
Y287817D01*
Y287957D01*
X500659D01*
Y288098D01*
Y288239D01*
X501223D01*
Y288380D01*
Y288521D01*
X501505D01*
Y288662D01*
Y288803D01*
X502068D01*
Y288944D01*
Y289085D01*
X502632D01*
Y289226D01*
Y289367D01*
X502914D01*
Y289508D01*
Y289648D01*
X503477D01*
Y289789D01*
Y289930D01*
X503759D01*
Y290071D01*
Y290212D01*
X504041D01*
Y290353D01*
Y290494D01*
X504604D01*
Y290635D01*
Y290776D01*
X504886D01*
Y290917D01*
Y291057D01*
X505450D01*
Y291198D01*
Y291339D01*
X505732D01*
Y291480D01*
Y291621D01*
X506295D01*
Y291762D01*
Y291903D01*
X506577D01*
Y292044D01*
Y292185D01*
X506859D01*
Y292326D01*
Y292467D01*
X507141D01*
Y292607D01*
Y292748D01*
X507704D01*
Y292889D01*
Y293030D01*
X507986D01*
Y293171D01*
Y293312D01*
X508268D01*
Y293453D01*
Y293594D01*
X508550D01*
Y293735D01*
Y293876D01*
X508832D01*
Y294016D01*
Y294158D01*
X509395D01*
Y294298D01*
Y294439D01*
X509677D01*
Y294580D01*
Y294721D01*
X509959D01*
Y294862D01*
Y295003D01*
X510241D01*
Y295144D01*
Y295285D01*
X510804D01*
Y295426D01*
Y295567D01*
X511086D01*
Y295707D01*
Y295848D01*
Y295989D01*
Y296130D01*
X511650D01*
Y296271D01*
Y296412D01*
X511931D01*
Y296553D01*
Y296694D01*
X512213D01*
Y296835D01*
Y296976D01*
X512495D01*
Y297116D01*
Y297257D01*
X513059D01*
Y297398D01*
Y297539D01*
X513341D01*
Y297680D01*
Y297821D01*
X513622D01*
Y297962D01*
Y298103D01*
X513904D01*
Y298244D01*
Y298385D01*
X514186D01*
Y298526D01*
Y298666D01*
X514468D01*
Y298807D01*
Y298948D01*
X515032D01*
Y299089D01*
Y299230D01*
X515313D01*
Y299371D01*
Y299512D01*
X515595D01*
Y299653D01*
Y299794D01*
X515877D01*
Y299935D01*
Y300075D01*
X516159D01*
Y300216D01*
Y300357D01*
X516441D01*
Y300498D01*
Y300639D01*
X517004D01*
Y300780D01*
Y300921D01*
X517286D01*
Y301062D01*
Y301203D01*
X517568D01*
Y301344D01*
Y301485D01*
X518131D01*
Y301625D01*
Y301766D01*
X518413D01*
Y301907D01*
Y302048D01*
X518695D01*
Y302189D01*
Y302330D01*
X518977D01*
Y302471D01*
Y302612D01*
X519259D01*
Y302753D01*
Y302894D01*
X519822D01*
Y303034D01*
Y303176D01*
X520104D01*
Y303316D01*
Y303457D01*
X520386D01*
Y303598D01*
Y303739D01*
X520668D01*
Y303880D01*
Y304021D01*
X520950D01*
Y304162D01*
Y304303D01*
X521513D01*
Y304444D01*
Y304585D01*
X521795D01*
Y304725D01*
Y304866D01*
X522077D01*
Y305007D01*
Y305148D01*
X522640D01*
Y305289D01*
Y305430D01*
X522922D01*
Y305571D01*
Y305712D01*
X523204D01*
Y305853D01*
Y305994D01*
X523486D01*
Y306134D01*
Y306275D01*
X523768D01*
Y306416D01*
Y306557D01*
X524331D01*
Y306698D01*
Y306839D01*
X524613D01*
Y306980D01*
Y307121D01*
X524895D01*
Y307262D01*
Y307403D01*
X525177D01*
Y307544D01*
Y307684D01*
X525459D01*
Y307825D01*
Y307966D01*
X526022D01*
Y308107D01*
Y308248D01*
X526304D01*
Y308389D01*
Y308530D01*
X526586D01*
Y308671D01*
Y308812D01*
X526868D01*
Y308953D01*
Y309093D01*
X527149D01*
Y309234D01*
Y309375D01*
X527713D01*
Y309516D01*
Y309657D01*
X527995D01*
Y309798D01*
Y309939D01*
X528277D01*
Y310080D01*
Y310221D01*
X528559D01*
Y310362D01*
Y310503D01*
X529122D01*
Y310362D01*
Y310221D01*
X528840D01*
Y310080D01*
Y309939D01*
X528559D01*
Y309798D01*
Y309657D01*
Y309516D01*
Y309375D01*
X528277D01*
Y309234D01*
Y309093D01*
X527995D01*
Y308953D01*
Y308812D01*
X527713D01*
Y308671D01*
Y308530D01*
X527431D01*
Y308389D01*
Y308248D01*
X527149D01*
Y308107D01*
Y307966D01*
X526868D01*
Y307825D01*
Y307684D01*
X526586D01*
Y307544D01*
Y307403D01*
X526304D01*
Y307262D01*
Y307121D01*
X526022D01*
Y306980D01*
Y306839D01*
X525740D01*
Y306698D01*
Y306557D01*
Y306416D01*
Y306275D01*
X525459D01*
Y306134D01*
Y305994D01*
X525177D01*
Y305853D01*
Y305712D01*
X524895D01*
Y305571D01*
Y305430D01*
X524613D01*
Y305289D01*
Y305148D01*
X524331D01*
Y305007D01*
Y304866D01*
X524049D01*
Y304725D01*
Y304585D01*
X523768D01*
Y304444D01*
Y304303D01*
X523486D01*
Y304162D01*
Y304021D01*
X523204D01*
Y303880D01*
Y303739D01*
Y303598D01*
Y303457D01*
Y303316D01*
Y303176D01*
X524895D01*
Y303316D01*
Y303457D01*
X526304D01*
Y303598D01*
Y303739D01*
X526868D01*
Y303880D01*
Y304021D01*
X527149D01*
Y304162D01*
Y304303D01*
X527713D01*
Y304444D01*
Y304585D01*
X527995D01*
Y304725D01*
Y304866D01*
X528277D01*
Y305007D01*
Y305148D01*
X528559D01*
Y305289D01*
Y305430D01*
X528840D01*
Y305571D01*
Y305712D01*
Y305853D01*
Y305994D01*
X529122D01*
Y306134D01*
Y306275D01*
X529404D01*
Y306416D01*
Y306557D01*
X529686D01*
Y306698D01*
Y306839D01*
Y306980D01*
Y307121D01*
X529968D01*
Y307262D01*
Y307403D01*
X530531D01*
Y307262D01*
Y307121D01*
Y306980D01*
Y306839D01*
Y306698D01*
Y306557D01*
Y306416D01*
Y306275D01*
X530813D01*
Y306134D01*
Y305994D01*
Y305853D01*
Y305712D01*
Y305571D01*
Y305430D01*
Y305289D01*
Y305148D01*
X531095D01*
Y305007D01*
Y304866D01*
X531377D01*
Y304725D01*
Y304585D01*
X532504D01*
Y304725D01*
Y304866D01*
X533068D01*
Y305007D01*
Y305148D01*
X533349D01*
Y305289D01*
Y305430D01*
X533913D01*
Y305571D01*
Y305712D01*
X534195D01*
Y305853D01*
Y305994D01*
X534477D01*
Y306134D01*
Y306275D01*
X535040D01*
Y306416D01*
Y306557D01*
X535322D01*
Y306698D01*
Y306839D01*
X535604D01*
Y306980D01*
Y307121D01*
X535886D01*
Y307262D01*
Y307403D01*
Y307544D01*
Y307684D01*
X536167D01*
Y307825D01*
Y307966D01*
Y308107D01*
Y308248D01*
X536449D01*
Y308389D01*
Y308530D01*
Y308671D01*
Y308812D01*
X536731D01*
Y308953D01*
Y309093D01*
Y309234D01*
Y309375D01*
X537013D01*
Y309516D01*
Y309657D01*
Y309798D01*
Y309939D01*
X537295D01*
Y310080D01*
Y310221D01*
Y310362D01*
Y310503D01*
X537576D01*
Y310644D01*
Y310784D01*
Y310925D01*
Y311066D01*
Y311207D01*
Y311348D01*
X537858D01*
Y311489D01*
Y311630D01*
Y311771D01*
Y311912D01*
Y312053D01*
Y312194D01*
Y312334D01*
Y312475D01*
X538140D01*
Y312616D01*
Y312757D01*
Y312898D01*
Y313039D01*
Y313180D01*
Y313321D01*
X538422D01*
Y313462D01*
Y313603D01*
Y313743D01*
Y313884D01*
Y314025D01*
Y314166D01*
Y314307D01*
Y314448D01*
Y314589D01*
Y314730D01*
Y314871D01*
Y315012D01*
Y315152D01*
Y315293D01*
Y315434D01*
Y315575D01*
Y315716D01*
Y315857D01*
Y315998D01*
Y316139D01*
Y316280D01*
Y316421D01*
Y316562D01*
Y316702D01*
Y316843D01*
Y316984D01*
Y317125D01*
Y317266D01*
Y317407D01*
Y317548D01*
Y317689D01*
Y317830D01*
Y317971D01*
Y318112D01*
X538140D01*
Y318252D01*
Y318393D01*
Y318534D01*
Y318675D01*
Y318816D01*
Y318957D01*
Y319098D01*
Y319239D01*
Y319380D01*
Y319521D01*
X537858D01*
Y319662D01*
Y319802D01*
Y319943D01*
Y320084D01*
X537576D01*
Y320225D01*
Y320366D01*
Y320507D01*
Y320648D01*
Y320789D01*
Y320930D01*
X537295D01*
Y321071D01*
Y321212D01*
Y321352D01*
Y321493D01*
X537013D01*
Y321634D01*
Y321775D01*
Y321916D01*
Y322057D01*
X536731D01*
Y322198D01*
Y322339D01*
Y322480D01*
Y322621D01*
X536449D01*
Y322761D01*
Y322902D01*
X536167D01*
Y323043D01*
Y323184D01*
Y323325D01*
Y323466D01*
X535886D01*
Y323607D01*
Y323748D01*
X535604D01*
Y323889D01*
Y324030D01*
Y324170D01*
Y324311D01*
X535322D01*
Y324452D01*
X535181D01*
Y324593D01*
X535040D01*
Y324734D01*
X535181D01*
Y324593D01*
X535886D01*
Y324452D01*
Y324311D01*
X536449D01*
Y324170D01*
Y324030D01*
X537013D01*
Y323889D01*
Y323748D01*
X537295D01*
Y323607D01*
Y323466D01*
X537858D01*
Y323325D01*
Y323184D01*
X538140D01*
Y323043D01*
Y322902D01*
X538422D01*
Y322761D01*
Y322621D01*
X538704D01*
Y322480D01*
Y322339D01*
X538986D01*
Y322198D01*
Y322057D01*
X539267D01*
Y321916D01*
Y321775D01*
X539549D01*
Y321634D01*
Y321493D01*
X539831D01*
Y321352D01*
Y321212D01*
X540113D01*
Y321071D01*
Y320930D01*
X540395D01*
Y320789D01*
Y320648D01*
X540676D01*
Y320507D01*
Y320366D01*
Y320225D01*
Y320084D01*
X540958D01*
Y319943D01*
Y319802D01*
X541240D01*
Y319662D01*
Y319521D01*
Y319380D01*
Y319239D01*
X541522D01*
Y319098D01*
Y318957D01*
Y318816D01*
Y318675D01*
X541804D01*
Y318534D01*
Y318393D01*
X542085D01*
Y318252D01*
Y318112D01*
Y317971D01*
Y317830D01*
X542367D01*
Y317689D01*
Y317548D01*
Y317407D01*
Y317266D01*
Y317125D01*
Y316984D01*
X542649D01*
Y316843D01*
Y316702D01*
Y316562D01*
Y316421D01*
X542931D01*
Y316280D01*
Y316139D01*
X543213D01*
Y315998D01*
Y315857D01*
Y315716D01*
Y315575D01*
Y315434D01*
Y315293D01*
X543495D01*
Y315152D01*
Y315012D01*
Y314871D01*
Y314730D01*
Y314589D01*
Y314448D01*
X544058D01*
Y314589D01*
Y314730D01*
X544340D01*
Y314871D01*
Y315012D01*
Y315152D01*
Y315293D01*
X544622D01*
Y315434D01*
Y315575D01*
Y315716D01*
Y315857D01*
X544904D01*
Y315998D01*
Y316139D01*
X545186D01*
Y316280D01*
Y316421D01*
Y316562D01*
Y316702D01*
X545467D01*
Y316843D01*
Y316984D01*
X545749D01*
Y317125D01*
Y317266D01*
Y317407D01*
Y317548D01*
X546031D01*
Y317689D01*
Y317830D01*
X546313D01*
Y317971D01*
Y318112D01*
Y318252D01*
Y318393D01*
X546595D01*
Y318534D01*
Y318675D01*
Y318816D01*
Y318957D01*
X546876D01*
Y319098D01*
Y319239D01*
X547158D01*
Y319380D01*
Y319521D01*
Y319662D01*
Y319802D01*
Y319943D01*
Y320084D01*
X547440D01*
Y320225D01*
Y320366D01*
Y320507D01*
Y320648D01*
X547722D01*
Y320789D01*
Y320930D01*
Y321071D01*
Y321212D01*
X548004D01*
Y321352D01*
Y321493D01*
Y321634D01*
Y321775D01*
X548285D01*
Y321916D01*
Y322057D01*
Y322198D01*
Y322339D01*
Y322480D01*
Y322621D01*
X548567D01*
Y322761D01*
Y322902D01*
Y323043D01*
Y323184D01*
X548849D01*
Y323325D01*
Y323466D01*
Y323607D01*
Y323748D01*
X549131D01*
Y323889D01*
Y324030D01*
X549413D01*
Y323889D01*
Y323748D01*
X549695D01*
Y323607D01*
Y323466D01*
Y323325D01*
Y323184D01*
X549976D01*
Y323043D01*
Y322902D01*
Y322761D01*
Y322621D01*
Y322480D01*
Y322339D01*
X550258D01*
Y322198D01*
Y322057D01*
Y321916D01*
Y321775D01*
Y321634D01*
Y321493D01*
Y321352D01*
Y321212D01*
Y321071D01*
Y320930D01*
X550540D01*
Y320789D01*
Y320648D01*
Y320507D01*
Y320366D01*
Y320225D01*
Y320084D01*
Y319943D01*
Y319802D01*
Y319662D01*
Y319521D01*
Y319380D01*
Y319239D01*
Y319098D01*
Y318957D01*
Y318816D01*
Y318675D01*
Y318534D01*
Y318393D01*
X550258D01*
Y318252D01*
Y318112D01*
Y317971D01*
Y317830D01*
Y317689D01*
Y317548D01*
Y317407D01*
Y317266D01*
Y317125D01*
Y316984D01*
Y316843D01*
Y316702D01*
Y316562D01*
Y316421D01*
X549976D01*
Y316280D01*
Y316139D01*
Y315998D01*
Y315857D01*
Y315716D01*
Y315575D01*
X549695D01*
Y315434D01*
Y315293D01*
Y315152D01*
Y315012D01*
Y314871D01*
Y314730D01*
Y314589D01*
Y314448D01*
Y314307D01*
Y314166D01*
X549413D01*
Y314025D01*
Y313884D01*
Y313743D01*
Y313603D01*
Y313462D01*
Y313321D01*
Y313180D01*
Y313039D01*
X549131D01*
Y312898D01*
Y312757D01*
Y312616D01*
Y312475D01*
X548849D01*
Y312334D01*
Y312194D01*
Y312053D01*
Y311912D01*
Y311771D01*
Y311630D01*
X548567D01*
Y311489D01*
Y311348D01*
Y311207D01*
Y311066D01*
X548285D01*
Y310925D01*
Y310784D01*
X548004D01*
Y310644D01*
Y310503D01*
Y310362D01*
Y310221D01*
X547722D01*
Y310080D01*
Y309939D01*
X547440D01*
Y309798D01*
Y309657D01*
X547158D01*
Y309516D01*
Y309375D01*
X546876D01*
Y309234D01*
Y309093D01*
X546595D01*
Y308953D01*
Y308812D01*
X546313D01*
Y308671D01*
Y308530D01*
X546031D01*
Y308389D01*
Y308248D01*
X545749D01*
Y308107D01*
Y307966D01*
Y307825D01*
Y307684D01*
X545467D01*
Y307544D01*
Y307403D01*
X545186D01*
Y307262D01*
Y307121D01*
X544904D01*
Y306980D01*
Y306839D01*
X544622D01*
Y306698D01*
Y306557D01*
X544340D01*
Y306416D01*
Y306275D01*
X544058D01*
Y306134D01*
Y305994D01*
X543776D01*
Y305853D01*
Y305712D01*
X543495D01*
Y305571D01*
Y305430D01*
X543213D01*
Y305289D01*
Y305148D01*
X542931D01*
Y305007D01*
Y304866D01*
X542649D01*
Y304725D01*
Y304585D01*
X542367D01*
Y304444D01*
Y304303D01*
X542085D01*
Y304162D01*
Y304021D01*
X541804D01*
Y303880D01*
Y303739D01*
X541522D01*
Y303598D01*
Y303457D01*
X541240D01*
Y303316D01*
Y303176D01*
X540958D01*
Y303034D01*
Y302894D01*
X540676D01*
Y302753D01*
Y302612D01*
X540395D01*
Y302471D01*
Y302330D01*
X540113D01*
Y302189D01*
Y302048D01*
X539831D01*
Y301907D01*
Y301766D01*
X539549D01*
Y301625D01*
Y301485D01*
X538986D01*
Y301344D01*
Y301203D01*
X538704D01*
Y301062D01*
Y300921D01*
X538422D01*
Y300780D01*
Y300639D01*
X538140D01*
Y300498D01*
Y300357D01*
X537858D01*
Y300216D01*
Y300075D01*
X537576D01*
Y299935D01*
Y299794D01*
X537295D01*
Y299653D01*
Y299512D01*
X537013D01*
Y299371D01*
Y299230D01*
X536731D01*
Y299089D01*
Y298948D01*
X536449D01*
Y298807D01*
Y298666D01*
X535886D01*
Y298526D01*
Y298385D01*
X535604D01*
Y298244D01*
Y298103D01*
X535322D01*
Y297962D01*
Y297821D01*
X535040D01*
Y297680D01*
Y297539D01*
X534758D01*
Y297398D01*
Y297257D01*
X534195D01*
Y297116D01*
Y296976D01*
X533913D01*
Y296835D01*
Y296694D01*
X533631D01*
Y296553D01*
Y296412D01*
X533349D01*
Y296271D01*
Y296130D01*
X533068D01*
Y295989D01*
Y295848D01*
X532786D01*
Y295707D01*
Y295567D01*
X532222D01*
Y295426D01*
Y295285D01*
X531940D01*
Y295144D01*
Y295003D01*
X531658D01*
Y294862D01*
Y294721D01*
X531377D01*
Y294580D01*
Y294439D01*
X531095D01*
Y294298D01*
Y294158D01*
X530813D01*
Y294016D01*
Y293876D01*
X530249D01*
Y293735D01*
Y293594D01*
X529968D01*
Y293453D01*
Y293312D01*
X529404D01*
Y293171D01*
Y293030D01*
X529122D01*
Y292889D01*
Y292748D01*
X528840D01*
Y292607D01*
Y292467D01*
X528559D01*
Y292326D01*
Y292185D01*
X528277D01*
Y292044D01*
Y291903D01*
X527713D01*
Y291762D01*
Y291621D01*
X527431D01*
Y291480D01*
Y291339D01*
X527149D01*
Y291198D01*
Y291057D01*
X526586D01*
Y290917D01*
Y290776D01*
X526304D01*
Y290635D01*
Y290494D01*
X526022D01*
Y290353D01*
Y290212D01*
X525740D01*
Y290071D01*
Y289930D01*
X525177D01*
Y289789D01*
Y289648D01*
X524895D01*
Y289508D01*
Y289367D01*
X524331D01*
Y289226D01*
Y289085D01*
X524049D01*
Y289226D01*
Y289367D01*
Y289508D01*
Y289648D01*
Y289789D01*
Y289930D01*
X523768D01*
Y290071D01*
Y290212D01*
Y290353D01*
Y290494D01*
Y290635D01*
Y290776D01*
Y290917D01*
Y291057D01*
Y291198D01*
Y291339D01*
Y291480D01*
Y291621D01*
X523486D01*
Y291762D01*
Y291903D01*
Y292044D01*
Y292185D01*
X523204D01*
Y292326D01*
Y292467D01*
X522922D01*
Y292607D01*
Y292748D01*
Y292889D01*
Y293030D01*
X522359D01*
Y293171D01*
Y293312D01*
X521795D01*
Y293453D01*
Y293594D01*
X520104D01*
Y293453D01*
Y293312D01*
X519540D01*
Y293171D01*
Y293030D01*
X518695D01*
Y292889D01*
Y292748D01*
X518131D01*
Y292607D01*
Y292467D01*
X517286D01*
Y292326D01*
Y292185D01*
X516441D01*
Y292044D01*
Y291903D01*
X515877D01*
Y291762D01*
Y291621D01*
X515032D01*
Y291480D01*
Y291339D01*
X514468D01*
Y291198D01*
Y291057D01*
X513622D01*
Y290917D01*
Y290776D01*
X512777D01*
Y290635D01*
Y290494D01*
X512213D01*
Y290353D01*
Y290212D01*
X511368D01*
Y290071D01*
Y289930D01*
X510804D01*
Y289789D01*
Y289648D01*
X509959D01*
Y289508D01*
Y289367D01*
X509395D01*
Y289226D01*
Y289085D01*
X508550D01*
Y288944D01*
Y288803D01*
X507986D01*
Y288662D01*
Y288521D01*
X507141D01*
Y288380D01*
Y288239D01*
X506577D01*
Y288098D01*
Y287957D01*
X505732D01*
Y287817D01*
Y287676D01*
X505168D01*
Y287535D01*
Y287394D01*
X504604D01*
Y287253D01*
Y287112D01*
X504323D01*
Y286971D01*
Y286830D01*
X503759D01*
Y286689D01*
Y286549D01*
X503477D01*
Y286408D01*
Y286267D01*
X503195D01*
Y286126D01*
Y285985D01*
X502914D01*
Y285844D01*
Y285703D01*
X502350D01*
Y285562D01*
Y285421D01*
X502068D01*
Y285280D01*
Y285139D01*
X501505D01*
Y284998D01*
Y284858D01*
X500941D01*
Y284717D01*
Y284576D01*
X500377D01*
Y284435D01*
Y284294D01*
X500095D01*
Y284153D01*
Y284012D01*
X499250D01*
Y283871D01*
Y283730D01*
X498405D01*
Y283589D01*
Y283449D01*
X497559D01*
Y283308D01*
Y283167D01*
X495868D01*
Y283026D01*
Y282885D01*
X493614D01*
Y283026D01*
Y283167D01*
X491923D01*
Y283308D01*
Y283449D01*
X490796D01*
Y283589D01*
Y283730D01*
X489950D01*
Y283871D01*
Y284012D01*
X489105D01*
Y284153D01*
Y284294D01*
X488541D01*
Y284435D01*
Y284576D01*
X487977D01*
Y284717D01*
Y284858D01*
X487414D01*
Y284998D01*
Y285139D01*
X486850D01*
Y285280D01*
Y285421D01*
X486287D01*
Y285562D01*
Y285703D01*
X485723D01*
Y285844D01*
Y285985D01*
X484032D01*
Y286126D01*
Y286267D01*
Y286408D01*
Y286549D01*
Y286689D01*
Y286830D01*
X484878D01*
Y286971D01*
Y287112D01*
X485441D01*
Y287253D01*
Y287394D01*
X486287D01*
Y287535D01*
Y287676D01*
X487132D01*
Y287817D01*
Y287957D01*
X487977D01*
Y288098D01*
Y288239D01*
X488823D01*
Y288380D01*
Y288521D01*
X489668D01*
Y288662D01*
Y288803D01*
X490232D01*
Y288944D01*
Y289085D01*
X491077D01*
Y289226D01*
Y289367D01*
X491923D01*
Y289508D01*
Y289648D01*
X492486D01*
Y289789D01*
Y289930D01*
X493050D01*
Y290071D01*
Y290212D01*
X493895D01*
Y290353D01*
Y290494D01*
X494459D01*
Y290635D01*
Y290776D01*
X495023D01*
Y290917D01*
Y291057D01*
X495305D01*
Y291198D01*
Y291339D01*
X495868D01*
Y291480D01*
Y291621D01*
X496432D01*
Y291762D01*
Y291903D01*
X496995D01*
Y292044D01*
Y292185D01*
X497277D01*
Y292326D01*
Y292467D01*
X497559D01*
Y292607D01*
Y292748D01*
X498123D01*
Y292889D01*
Y293030D01*
X498686D01*
Y293171D01*
Y293312D01*
X498968D01*
Y293453D01*
Y293594D01*
X499250D01*
Y293735D01*
Y293876D01*
X499532D01*
Y294016D01*
Y294158D01*
X499814D01*
Y294298D01*
Y294439D01*
X500095D01*
Y294580D01*
Y294721D01*
X500659D01*
Y294862D01*
Y295003D01*
X500941D01*
Y295144D01*
Y295285D01*
Y295426D01*
Y295567D01*
X501223D01*
Y295707D01*
Y295848D01*
X501505D01*
Y295989D01*
Y296130D01*
X501786D01*
Y296271D01*
Y296412D01*
X502068D01*
Y296553D01*
Y296694D01*
X502350D01*
Y296835D01*
Y296976D01*
Y297116D01*
Y297257D01*
X502632D01*
Y297398D01*
Y297539D01*
X502914D01*
Y297680D01*
Y297821D01*
Y297962D01*
Y298103D01*
X503195D01*
Y298244D01*
Y298385D01*
X503477D01*
Y298526D01*
Y298666D01*
Y298807D01*
Y298948D01*
X503759D01*
Y299089D01*
Y299230D01*
Y299371D01*
Y299512D01*
X504041D01*
Y299653D01*
Y299794D01*
Y299935D01*
Y300075D01*
X504323D01*
Y300216D01*
Y300357D01*
Y300498D01*
Y300639D01*
X504604D01*
Y300780D01*
Y300921D01*
Y301062D01*
Y301203D01*
Y301344D01*
Y301485D01*
Y301625D01*
Y301766D01*
X504886D01*
Y301907D01*
Y302048D01*
Y302189D01*
Y302330D01*
Y302471D01*
Y302612D01*
Y302753D01*
Y302894D01*
Y303034D01*
Y303176D01*
X505168D01*
Y303316D01*
Y303457D01*
Y303598D01*
Y303739D01*
Y303880D01*
Y304021D01*
Y304162D01*
Y304303D01*
Y304444D01*
Y304585D01*
Y304725D01*
Y304866D01*
Y305007D01*
Y305148D01*
Y305289D01*
Y305430D01*
Y305571D01*
Y305712D01*
Y305853D01*
Y305994D01*
Y306134D01*
Y306275D01*
Y306416D01*
Y306557D01*
Y306698D01*
Y306839D01*
Y306980D01*
Y307121D01*
Y307262D01*
Y307403D01*
Y307544D01*
Y307684D01*
Y307825D01*
Y307966D01*
Y308107D01*
Y308248D01*
Y308389D01*
Y308530D01*
Y308671D01*
Y308812D01*
Y308953D01*
Y309093D01*
Y309234D01*
Y309375D01*
X504886D01*
Y309516D01*
Y309657D01*
Y309798D01*
Y309939D01*
Y310080D01*
Y310221D01*
Y310362D01*
Y310503D01*
Y310644D01*
Y310784D01*
Y310925D01*
Y311066D01*
Y311207D01*
Y311348D01*
Y311489D01*
Y311630D01*
X504604D01*
Y311771D01*
Y311912D01*
Y312053D01*
Y312194D01*
Y312334D01*
Y312475D01*
Y312616D01*
Y312757D01*
Y312898D01*
Y313039D01*
Y313180D01*
Y313321D01*
Y313462D01*
Y313603D01*
X504323D01*
Y313743D01*
Y313884D01*
Y314025D01*
Y314166D01*
Y314307D01*
Y314448D01*
Y314589D01*
Y314730D01*
X504041D01*
Y314871D01*
Y315012D01*
Y315152D01*
Y315293D01*
Y315434D01*
Y315575D01*
Y315716D01*
Y315857D01*
Y315998D01*
Y316139D01*
X503759D01*
Y316280D01*
Y316421D01*
Y316562D01*
Y316702D01*
Y316843D01*
Y316984D01*
X503477D01*
Y317125D01*
Y317266D01*
Y317407D01*
Y317548D01*
Y317689D01*
Y317830D01*
Y317971D01*
Y318112D01*
X503195D01*
Y318252D01*
Y318393D01*
Y318534D01*
Y318675D01*
Y318816D01*
Y318957D01*
X502914D01*
Y319098D01*
Y319239D01*
Y319380D01*
Y319521D01*
Y319662D01*
Y319802D01*
X502632D01*
Y319943D01*
Y320084D01*
Y320225D01*
Y320366D01*
Y320507D01*
Y320648D01*
X502350D01*
Y320789D01*
Y320930D01*
Y321071D01*
Y321212D01*
Y321352D01*
Y321493D01*
X502068D01*
Y321634D01*
Y321775D01*
Y321916D01*
Y322057D01*
X501786D01*
Y322198D01*
Y322339D01*
Y322480D01*
Y322621D01*
Y322761D01*
Y322902D01*
X501505D01*
Y323043D01*
Y323184D01*
X501223D01*
Y323325D01*
Y323466D01*
Y323607D01*
Y323748D01*
X500941D01*
Y323889D01*
Y324030D01*
X500659D01*
Y324170D01*
Y324311D01*
Y324452D01*
Y324593D01*
X500377D01*
Y324734D01*
Y324875D01*
X500095D01*
Y325016D01*
Y325157D01*
X499814D01*
Y325298D01*
Y325439D01*
X499532D01*
Y325580D01*
Y325720D01*
X499250D01*
Y325861D01*
Y326002D01*
X498968D01*
Y326143D01*
Y326284D01*
X498686D01*
Y326425D01*
Y326566D01*
X498405D01*
Y326707D01*
Y326848D01*
X498123D01*
Y326989D01*
Y327130D01*
X497841D01*
Y327271D01*
Y327411D01*
X497559D01*
Y327552D01*
Y327693D01*
X496995D01*
Y327834D01*
Y327975D01*
X496714D01*
Y328116D01*
Y328257D01*
X496432D01*
Y328398D01*
Y328539D01*
X496150D01*
Y328680D01*
Y328820D01*
X495586D01*
Y328961D01*
Y329102D01*
X495305D01*
Y329243D01*
Y329384D01*
X494741D01*
Y329525D01*
Y329666D01*
X494177D01*
Y329807D01*
Y329948D01*
X493614D01*
Y330089D01*
Y330229D01*
X493050D01*
Y330370D01*
Y330511D01*
X491641D01*
Y330652D01*
Y330793D01*
X487132D01*
Y330652D01*
Y330511D01*
X482905D01*
Y330370D01*
Y330229D01*
X478959D01*
Y330089D01*
Y329948D01*
Y329807D01*
Y329666D01*
X480368D01*
Y329525D01*
Y329384D01*
X489386D01*
Y329243D01*
Y329102D01*
X491077D01*
Y328961D01*
Y328820D01*
X491923D01*
Y328680D01*
Y328539D01*
X492768D01*
Y328398D01*
Y328257D01*
X493050D01*
Y328116D01*
Y327975D01*
X493614D01*
Y327834D01*
Y327693D01*
X493895D01*
Y327552D01*
Y327411D01*
X494459D01*
Y327271D01*
Y327130D01*
X494741D01*
Y326989D01*
Y326848D01*
X495023D01*
Y326707D01*
Y326566D01*
X495305D01*
Y326425D01*
Y326284D01*
X495586D01*
Y326143D01*
Y326002D01*
X495868D01*
Y325861D01*
Y325720D01*
X496150D01*
Y325580D01*
Y325439D01*
X496432D01*
Y325298D01*
Y325157D01*
X496714D01*
Y325016D01*
Y324875D01*
Y324734D01*
Y324593D01*
X496995D01*
Y324452D01*
Y324311D01*
X497277D01*
Y324170D01*
Y324030D01*
X497559D01*
Y323889D01*
Y323748D01*
X497841D01*
Y323607D01*
Y323466D01*
X498123D01*
Y323325D01*
Y323184D01*
Y323043D01*
Y322902D01*
X498405D01*
Y322761D01*
Y322621D01*
X498686D01*
Y322480D01*
Y322339D01*
Y322198D01*
Y322057D01*
X498968D01*
Y321916D01*
Y321775D01*
X499250D01*
Y321634D01*
Y321493D01*
Y321352D01*
Y321212D01*
X499532D01*
Y321071D01*
Y320930D01*
X499814D01*
Y320789D01*
Y320648D01*
Y320507D01*
Y320366D01*
X500095D01*
Y320225D01*
Y320084D01*
Y319943D01*
Y319802D01*
X500377D01*
Y319662D01*
Y319521D01*
Y319380D01*
Y319239D01*
X500659D01*
Y319098D01*
Y318957D01*
Y318816D01*
Y318675D01*
X500941D01*
Y318534D01*
Y318393D01*
Y318252D01*
Y318112D01*
X501223D01*
Y317971D01*
Y317830D01*
Y317689D01*
Y317548D01*
X501505D01*
Y317407D01*
Y317266D01*
Y317125D01*
Y316984D01*
X501786D01*
Y316843D01*
Y316702D01*
Y316562D01*
Y316421D01*
Y316280D01*
Y316139D01*
X502068D01*
Y315998D01*
Y315857D01*
Y315716D01*
Y315575D01*
X502350D01*
Y315434D01*
Y315293D01*
Y315152D01*
Y315012D01*
Y314871D01*
Y314730D01*
Y314589D01*
Y314448D01*
X502632D01*
Y314307D01*
Y314166D01*
Y314025D01*
Y313884D01*
Y313743D01*
Y313603D01*
X502914D01*
Y313462D01*
Y313321D01*
Y313180D01*
Y313039D01*
Y312898D01*
Y312757D01*
Y312616D01*
Y312475D01*
Y312334D01*
Y312194D01*
X503195D01*
Y312053D01*
Y311912D01*
Y311771D01*
Y311630D01*
Y311489D01*
Y311348D01*
X503477D01*
Y311207D01*
Y311066D01*
Y310925D01*
Y310784D01*
Y310644D01*
Y310503D01*
Y310362D01*
Y310221D01*
Y310080D01*
Y309939D01*
Y309798D01*
Y309657D01*
Y309516D01*
Y309375D01*
Y309234D01*
Y309093D01*
Y308953D01*
Y308812D01*
X503759D01*
Y308671D01*
Y308530D01*
Y308389D01*
Y308248D01*
Y308107D01*
Y307966D01*
Y307825D01*
Y307684D01*
Y307544D01*
Y307403D01*
Y307262D01*
Y307121D01*
Y306980D01*
Y306839D01*
Y306698D01*
Y306557D01*
X503195D01*
Y306698D01*
Y306839D01*
Y306980D01*
Y307121D01*
X502914D01*
Y307262D01*
Y307403D01*
Y307544D01*
Y307684D01*
Y307825D01*
Y307966D01*
Y308107D01*
Y308248D01*
X502632D01*
Y308389D01*
Y308530D01*
Y308671D01*
Y308812D01*
Y308953D01*
Y309093D01*
X502350D01*
Y309234D01*
Y309375D01*
Y309516D01*
Y309657D01*
Y309798D01*
Y309939D01*
X502068D01*
Y310080D01*
Y310221D01*
Y310362D01*
Y310503D01*
X501786D01*
Y310644D01*
Y310784D01*
Y310925D01*
Y311066D01*
Y311207D01*
Y311348D01*
Y311489D01*
Y311630D01*
X501505D01*
Y311771D01*
Y311912D01*
Y312053D01*
Y312194D01*
X501223D01*
Y312334D01*
Y312475D01*
Y312616D01*
Y312757D01*
Y312898D01*
Y313039D01*
X500941D01*
Y313180D01*
Y313321D01*
Y313462D01*
Y313603D01*
Y313743D01*
Y313884D01*
X500659D01*
Y314025D01*
Y314166D01*
Y314307D01*
Y314448D01*
Y314589D01*
Y314730D01*
X500377D01*
Y314871D01*
Y315012D01*
Y315152D01*
Y315293D01*
X500095D01*
Y315434D01*
Y315575D01*
Y315716D01*
Y315857D01*
Y315998D01*
Y316139D01*
X499814D01*
Y316280D01*
Y316421D01*
Y316562D01*
Y316702D01*
X499532D01*
Y316843D01*
Y316984D01*
Y317125D01*
Y317266D01*
X499250D01*
Y317407D01*
Y317548D01*
Y317689D01*
Y317830D01*
X498968D01*
Y317971D01*
Y318112D01*
Y318252D01*
Y318393D01*
X498686D01*
Y318534D01*
Y318675D01*
Y318816D01*
Y318957D01*
X498405D01*
Y319098D01*
Y319239D01*
Y319380D01*
Y319521D01*
X498123D01*
Y319662D01*
Y319802D01*
X497841D01*
Y319943D01*
Y320084D01*
Y320225D01*
Y320366D01*
X497559D01*
Y320507D01*
Y320648D01*
Y320789D01*
Y320930D01*
X497277D01*
Y321071D01*
Y321212D01*
X496995D01*
Y321352D01*
Y321493D01*
Y321634D01*
Y321775D01*
X496714D01*
Y321916D01*
Y322057D01*
Y322198D01*
Y322339D01*
X496432D01*
Y322480D01*
Y322621D01*
X496150D01*
Y322761D01*
Y322902D01*
X495868D01*
Y323043D01*
Y323184D01*
X495586D01*
Y323325D01*
Y323466D01*
Y323607D01*
Y323748D01*
X495305D01*
Y323889D01*
Y324030D01*
X495023D01*
Y324170D01*
Y324311D01*
X494741D01*
Y324452D01*
Y324593D01*
X494459D01*
Y324734D01*
Y324875D01*
X494177D01*
Y325016D01*
Y325157D01*
X493895D01*
Y325298D01*
Y325439D01*
X493614D01*
Y325580D01*
Y325720D01*
X493332D01*
Y325861D01*
Y326002D01*
X493050D01*
Y326143D01*
Y326284D01*
X492768D01*
Y326425D01*
Y326566D01*
X492486D01*
Y326707D01*
Y326848D01*
X491923D01*
Y326989D01*
Y327130D01*
X491641D01*
Y327271D01*
Y327411D01*
X491359D01*
Y327552D01*
Y327693D01*
X490796D01*
Y327834D01*
Y327975D01*
X490232D01*
Y328116D01*
Y328257D01*
X489105D01*
Y328116D01*
Y327975D01*
X488541D01*
Y327834D01*
Y327693D01*
Y327552D01*
Y327411D01*
X488259D01*
Y327271D01*
Y327130D01*
X487977D01*
Y326989D01*
Y326848D01*
Y326707D01*
Y326566D01*
X487696D01*
Y326425D01*
Y326284D01*
Y326143D01*
Y326002D01*
X487414D01*
Y325861D01*
Y325720D01*
X487132D01*
Y325580D01*
Y325439D01*
X486850D01*
Y325298D01*
Y325157D01*
Y325016D01*
Y324875D01*
X486568D01*
Y324734D01*
Y324593D01*
Y324452D01*
Y324311D01*
X486287D01*
Y324170D01*
Y324030D01*
X486005D01*
Y324170D01*
Y324311D01*
X485723D01*
Y324452D01*
Y324593D01*
Y324734D01*
Y324875D01*
X485441D01*
Y325016D01*
Y325157D01*
Y325298D01*
Y325439D01*
Y325580D01*
Y325720D01*
X485159D01*
Y325861D01*
Y326002D01*
X484878D01*
Y326143D01*
Y326284D01*
Y326425D01*
Y326566D01*
X484596D01*
Y326707D01*
Y326848D01*
X484314D01*
Y326989D01*
Y327130D01*
X484032D01*
Y327271D01*
Y327411D01*
X483750D01*
Y327552D01*
Y327693D01*
X483187D01*
Y327834D01*
Y327975D01*
X482905D01*
Y328116D01*
Y328257D01*
X482341D01*
Y328398D01*
Y328539D01*
X481496D01*
Y328680D01*
Y328820D01*
X480368D01*
Y328961D01*
Y329102D01*
X479241D01*
Y329243D01*
Y329384D01*
X476987D01*
Y329525D01*
Y329666D01*
X471914D01*
Y329525D01*
Y329384D01*
X468814D01*
Y329525D01*
Y329666D01*
X467687D01*
Y329807D01*
Y329948D01*
X467123D01*
Y330089D01*
Y330229D01*
X466842D01*
Y330370D01*
Y330511D01*
X466278D01*
Y330652D01*
Y330793D01*
X465996D01*
Y330934D01*
Y331075D01*
X465714D01*
Y331216D01*
Y331357D01*
X465432D01*
Y331498D01*
Y331639D01*
X465151D01*
Y331779D01*
Y331920D01*
Y332061D01*
Y332202D01*
X464869D01*
Y332343D01*
Y332484D01*
X464587D01*
Y332625D01*
Y332766D01*
X464305D01*
Y332907D01*
Y333048D01*
X464023D01*
Y333189D01*
Y333329D01*
X463741D01*
Y333470D01*
Y333611D01*
Y333752D01*
Y333893D01*
X463460D01*
Y334034D01*
Y334175D01*
Y334316D01*
Y334457D01*
X463178D01*
Y334598D01*
Y334739D01*
Y334879D01*
Y335020D01*
X462896D01*
Y335161D01*
Y335302D01*
Y335443D01*
Y335584D01*
X462614D01*
Y335725D01*
Y335866D01*
X462332D01*
Y336007D01*
Y336148D01*
Y336288D01*
Y336429D01*
X462051D01*
Y336570D01*
Y336711D01*
Y336852D01*
Y336993D01*
Y337134D01*
Y337275D01*
Y337416D01*
Y337557D01*
Y337697D01*
Y337838D01*
Y337979D01*
Y338120D01*
Y338261D01*
Y338402D01*
X462332D01*
Y338543D01*
Y338684D01*
Y338825D01*
Y338966D01*
X462614D01*
Y339107D01*
Y339248D01*
X462896D01*
Y339389D01*
Y339529D01*
Y339670D01*
Y339811D01*
X463178D01*
Y339952D01*
Y340093D01*
X463460D01*
Y340234D01*
Y340375D01*
X463741D01*
Y340516D01*
Y340657D01*
X464023D01*
Y340798D01*
Y340938D01*
X464305D01*
Y341079D01*
Y341220D01*
X464587D01*
Y341361D01*
Y341502D01*
X464869D01*
Y341643D01*
Y341784D01*
X465432D01*
Y341925D01*
Y342066D01*
X465714D01*
Y342207D01*
Y342347D01*
X465996D01*
Y342488D01*
Y342629D01*
X466278D01*
Y342770D01*
Y342911D01*
X466842D01*
Y343052D01*
Y343193D01*
X467123D01*
Y343334D01*
Y343475D01*
X467687D01*
Y343616D01*
Y343756D01*
X467969D01*
Y343897D01*
Y344038D01*
X468532D01*
Y344179D01*
Y344320D01*
X469096D01*
Y344461D01*
Y344602D01*
X469378D01*
Y344743D01*
Y344884D01*
X469941D01*
Y345025D01*
Y345166D01*
X470505D01*
Y345307D01*
Y345447D01*
X471069D01*
Y345588D01*
Y345729D01*
X471632D01*
Y345870D01*
Y346011D01*
X472196D01*
Y346152D01*
Y346293D01*
X472760D01*
Y346434D01*
Y346575D01*
X473323D01*
Y346716D01*
Y346856D01*
X473887D01*
Y346997D01*
Y347138D01*
X474450D01*
Y347279D01*
Y347420D01*
X475014D01*
Y347561D01*
Y347702D01*
X475578D01*
Y347843D01*
Y347984D01*
X476423D01*
Y348125D01*
Y348265D01*
X476987D01*
Y348406D01*
Y348547D01*
X477550D01*
Y348688D01*
Y348829D01*
X478396D01*
Y348970D01*
Y349111D01*
X478959D01*
Y349252D01*
Y349393D01*
X479805D01*
Y349534D01*
Y349675D01*
X480368D01*
Y349815D01*
Y349956D01*
X481214D01*
Y350097D01*
Y350238D01*
X482059D01*
Y350379D01*
Y350520D01*
X482905D01*
Y350661D01*
Y350802D01*
X483468D01*
Y350943D01*
Y351084D01*
X484314D01*
Y351225D01*
Y351366D01*
X485159D01*
Y351506D01*
Y351647D01*
X486287D01*
Y351788D01*
Y351929D01*
X486850D01*
Y352070D01*
Y352211D01*
X487696D01*
Y352352D01*
Y352493D01*
X488823D01*
Y352634D01*
Y352775D01*
X489386D01*
Y352915D01*
Y353056D01*
X490514D01*
Y353197D01*
Y353338D01*
X491359D01*
Y353479D01*
Y353620D01*
X492486D01*
Y353761D01*
Y353902D01*
X493332D01*
Y354043D01*
Y354184D01*
X494459D01*
Y354324D01*
Y354465D01*
X495305D01*
Y354606D01*
Y354747D01*
X496432D01*
Y354888D01*
Y355029D01*
X497277D01*
Y355170D01*
Y355311D01*
X498405D01*
Y355452D01*
Y355593D01*
X499532D01*
Y355734D01*
Y355874D01*
X500377D01*
Y356015D01*
Y356156D01*
X501223D01*
Y356297D01*
Y356438D01*
X502068D01*
Y356579D01*
Y356720D01*
X502914D01*
Y356861D01*
Y357002D01*
X503759D01*
Y357143D01*
Y357284D01*
X504604D01*
Y357425D01*
Y357565D01*
X505168D01*
Y357706D01*
Y357847D01*
X506013D01*
Y357988D01*
Y358129D01*
X506577D01*
Y358270D01*
Y358411D01*
X507141D01*
Y358552D01*
Y358693D01*
X507986D01*
Y358834D01*
Y358974D01*
X508550D01*
Y359115D01*
Y359256D01*
X509113D01*
Y359397D01*
Y359538D01*
X509959D01*
Y359679D01*
Y359820D01*
X510241D01*
Y359961D01*
Y360102D01*
X510804D01*
Y360243D01*
Y360383D01*
X511368D01*
Y360524D01*
Y360665D01*
X511931D01*
Y360806D01*
Y360947D01*
X512495D01*
Y361088D01*
Y361229D01*
X512777D01*
Y361370D01*
Y361511D01*
X513341D01*
Y361652D01*
Y361792D01*
X513904D01*
Y361934D01*
Y362074D01*
X514186D01*
Y362215D01*
Y362356D01*
X514750D01*
Y362497D01*
Y362638D01*
X515313D01*
Y362779D01*
Y362920D01*
X516159D01*
Y363061D01*
Y363202D01*
X516722D01*
Y363343D01*
Y363483D01*
X517850D01*
Y363624D01*
Y363765D01*
X518695D01*
Y363906D01*
Y364047D01*
X524331D01*
Y363906D01*
Y363765D01*
X525177D01*
Y363624D01*
Y363483D01*
X526586D01*
Y363343D01*
Y363202D01*
X527995D01*
Y363061D01*
Y362920D01*
X529686D01*
Y362779D01*
Y362638D01*
X531095D01*
Y362497D01*
Y362356D01*
X533631D01*
Y362215D01*
Y362074D01*
X542085D01*
Y362215D01*
Y362356D01*
X544622D01*
Y362497D01*
Y362638D01*
X546031D01*
Y362779D01*
Y362920D01*
X547158D01*
Y363061D01*
Y363202D01*
X548849D01*
Y363343D01*
Y363483D01*
X549976D01*
Y363624D01*
Y363765D01*
X550822D01*
Y363906D01*
Y364047D01*
X551667D01*
Y364188D01*
Y364329D01*
X552513D01*
Y364470D01*
Y364611D01*
X553358D01*
Y364752D01*
Y364893D01*
X554203D01*
Y365033D01*
Y365174D01*
X555049D01*
Y365315D01*
Y365456D01*
X555613D01*
Y365597D01*
Y365738D01*
X556176D01*
Y365879D01*
Y366020D01*
X557022D01*
Y366161D01*
Y366302D01*
X557585D01*
Y366442D01*
Y366583D01*
X558431D01*
Y366724D01*
Y366865D01*
X558994D01*
Y367006D01*
Y367147D01*
X559840D01*
Y367288D01*
Y367429D01*
X560685D01*
Y367570D01*
Y367711D01*
X561249D01*
Y367851D01*
Y367992D01*
X562094D01*
Y368133D01*
Y368274D01*
X562940D01*
Y368415D01*
Y368556D01*
X563503D01*
Y368697D01*
Y368838D01*
X564631D01*
Y368979D01*
Y369120D01*
X565476D01*
Y369261D01*
Y369402D01*
X570267D01*
Y369261D01*
D02*
G37*
D10*
X682480Y386760D02*
G03*
X682480Y386760I-3000J0D01*
G01*
D11*
X703980Y376060D02*
G03*
X703980Y376060I-1250J0D01*
G01*
X502288Y608330D02*
G03*
X502288Y608330I-1250J0D01*
G01*
X879480Y454968D02*
G03*
X879480Y454968I-1250J0D01*
G01*
Y420442D02*
G03*
X879480Y420442I-1250J0D01*
G01*
Y385917D02*
G03*
X879480Y385917I-1250J0D01*
G01*
D12*
X449580Y474760D02*
G03*
X449580Y473760I0J-500D01*
G01*
D02*
G03*
X449580Y474760I0J500D01*
G01*
D13*
X370430Y430520D02*
Y456520D01*
X370430Y371520D02*
Y397520D01*
X370430Y456520D02*
X442930D01*
X455430Y430520D02*
Y444020D01*
X370430Y371520D02*
X442930D01*
X455430Y384020D02*
Y397520D01*
X442930Y456520D02*
X455430Y444020D01*
X442930Y371520D02*
X455430Y384020D01*
X641480Y481760D02*
X689480D01*
X641480Y376760D02*
X689480D01*
X641480D02*
Y481760D01*
X689480Y376760D02*
Y481760D01*
X372180Y479760D02*
X476180D01*
Y644760D01*
X372180D02*
X476180D01*
X372180Y479760D02*
Y644760D01*
X533230Y613805D02*
X548810D01*
Y564755D02*
Y613805D01*
X533230Y564755D02*
X548810D01*
X533230D02*
Y613805D01*
X440230Y314960D02*
Y340360D01*
X385630Y314960D02*
X440230D01*
X385630D02*
Y340360D01*
X440230D01*
X593860Y419430D02*
X594860D01*
X593860Y428930D02*
X594860D01*
X593860Y394030D02*
X594860D01*
X593860Y403530D02*
X594860D01*
X957200Y423300D02*
Y440300D01*
X973273Y423353D02*
Y440353D01*
X854720Y275690D02*
X855740D01*
X854720Y288190D02*
X855740D01*
X854720Y310215D02*
X855740D01*
X854720Y322715D02*
X855740D01*
X855230Y448218D02*
X856730D01*
X855230Y461718D02*
X856730D01*
X855230Y413692D02*
X856730D01*
X855230Y427192D02*
X856730D01*
X854720Y344741D02*
X855740D01*
X854720Y357241D02*
X855740D01*
X855230Y379167D02*
X856730D01*
X855230Y392667D02*
X856730D01*
X851150Y498043D02*
Y510743D01*
Y498043D02*
X857500Y504393D01*
X851150Y510743D02*
X857500Y504393D01*
Y498043D02*
Y510743D01*
X854720Y494493D02*
X855740D01*
X854720Y481993D02*
X855740D01*
X851150Y532569D02*
Y545269D01*
Y532569D02*
X857500Y538919D01*
X851150Y545269D02*
X857500Y538919D01*
Y532569D02*
Y545269D01*
X854720Y529019D02*
X855740D01*
X854720Y516519D02*
X855740D01*
X851150Y567094D02*
Y579794D01*
Y567094D02*
X857500Y573444D01*
X851150Y579794D02*
X857500Y573444D01*
Y567094D02*
Y579794D01*
X854720Y563544D02*
X855740D01*
X854720Y551044D02*
X855740D01*
X851150Y601620D02*
Y614320D01*
Y601620D02*
X857500Y607970D01*
X851150Y614320D02*
X857500Y607970D01*
Y601620D02*
Y614320D01*
X854720Y598070D02*
X855740D01*
X854720Y585570D02*
X855740D01*
X320400Y552180D02*
X333100D01*
X326750Y558530D02*
X333100Y552180D01*
X320400D02*
X326750Y558530D01*
X320400D02*
X333100D01*
X336650Y555750D02*
Y556770D01*
X349150Y555750D02*
Y556770D01*
X561920Y647450D02*
Y647950D01*
X570920Y647450D02*
Y647950D01*
X601340Y615470D02*
X699140D01*
Y517670D02*
Y615470D01*
X601340Y517670D02*
X699140D01*
X601340D02*
Y615470D01*
X590129Y631548D02*
Y658772D01*
X608751Y631548D02*
Y658772D01*
X333609Y488879D02*
Y516961D01*
X352191Y488879D02*
Y516961D01*
D14*
X876820Y275590D02*
Y288290D01*
Y310116D02*
Y322816D01*
Y344641D02*
Y357341D01*
D15*
X302260Y665477D02*
Y655320D01*
Y660398D01*
X304799Y662937D01*
X307338Y665477D01*
X309877D01*
X325113Y655320D02*
X320034D01*
X317495Y657859D01*
Y662937D01*
X320034Y665477D01*
X325113D01*
X327652Y662937D01*
Y660398D01*
X317495D01*
X332730Y665477D02*
X337808Y655320D01*
X342887Y665477D01*
X347965Y668016D02*
X350504Y670555D01*
X355583D01*
X358122Y668016D01*
Y657859D01*
X355583Y655320D01*
X350504D01*
X347965Y657859D01*
Y668016D01*
X363200Y655320D02*
X368279D01*
X365740D01*
Y670555D01*
X363200Y668016D01*
X302260Y679701D02*
Y694936D01*
X309877D01*
X312417Y692397D01*
Y687318D01*
X309877Y684779D01*
X302260D01*
X327652Y692397D02*
X325113Y694936D01*
X320034D01*
X317495Y692397D01*
Y682240D01*
X320034Y679701D01*
X325113D01*
X327652Y682240D01*
X332730Y694936D02*
Y679701D01*
X340348D01*
X342887Y682240D01*
Y684779D01*
X340348Y687318D01*
X332730D01*
X340348D01*
X342887Y689857D01*
Y692397D01*
X340348Y694936D01*
X332730D01*
X347965Y677161D02*
X358122D01*
X370818Y694936D02*
X365740D01*
X363200Y692397D01*
Y682240D01*
X365740Y679701D01*
X370818D01*
X373357Y682240D01*
Y692397D01*
X370818Y694936D01*
X378435Y679701D02*
Y694936D01*
X388592Y679701D01*
Y694936D01*
X393670D02*
Y679701D01*
X401288D01*
X403827Y682240D01*
Y684779D01*
X401288Y687318D01*
X393670D01*
X401288D01*
X403827Y689857D01*
Y692397D01*
X401288Y694936D01*
X393670D01*
X416523D02*
X411445D01*
X408905Y692397D01*
Y682240D01*
X411445Y679701D01*
X416523D01*
X419062Y682240D01*
Y692397D01*
X416523Y694936D01*
X424141Y679701D02*
Y689857D01*
X429219Y694936D01*
X434297Y689857D01*
Y679701D01*
Y687318D01*
X424141D01*
X439376Y679701D02*
Y694936D01*
X446993D01*
X449532Y692397D01*
Y687318D01*
X446993Y684779D01*
X439376D01*
X444454D02*
X449532Y679701D01*
X454611Y694936D02*
Y679701D01*
X462228D01*
X464767Y682240D01*
Y692397D01*
X462228Y694936D01*
X454611D01*
X469846D02*
X474924D01*
X472385D01*
Y679701D01*
X469846D01*
X474924D01*
X482542D02*
Y694936D01*
X492698Y679701D01*
Y694936D01*
X507934Y692397D02*
X505394Y694936D01*
X500316D01*
X497777Y692397D01*
Y682240D01*
X500316Y679701D01*
X505394D01*
X507934Y682240D01*
Y687318D01*
X502855D01*
X889000Y274320D02*
X894078D01*
X891539D01*
Y289555D01*
X889000Y287016D01*
X901696D02*
X904235Y289555D01*
X909313D01*
X911853Y287016D01*
Y276859D01*
X909313Y274320D01*
X904235D01*
X901696Y276859D01*
Y287016D01*
X916931D02*
X919470Y289555D01*
X924548D01*
X927088Y287016D01*
Y276859D01*
X924548Y274320D01*
X919470D01*
X916931Y276859D01*
Y287016D01*
X932166Y276859D02*
X944862Y289555D01*
X932166D02*
Y292094D01*
X934705D01*
Y289555D01*
X932166D01*
X942323Y274320D02*
Y276859D01*
X944862D01*
Y274320D01*
X942323D01*
X899157Y549769D02*
X889000D01*
X899157Y559925D01*
Y562465D01*
X896618Y565004D01*
X891539D01*
X889000Y562465D01*
X904235D02*
X906774Y565004D01*
X911853D01*
X914392Y562465D01*
Y552308D01*
X911853Y549769D01*
X906774D01*
X904235Y552308D01*
Y562465D01*
X919470Y552308D02*
X932166Y565004D01*
X919470D02*
Y567543D01*
X922009D01*
Y565004D01*
X919470D01*
X929627Y549769D02*
Y552308D01*
X932166D01*
Y549769D01*
X929627D01*
X889000Y392848D02*
X899157D01*
Y390309D01*
X889000Y380153D01*
Y377613D01*
X904235Y390309D02*
X906774Y392848D01*
X911853D01*
X914392Y390309D01*
Y380153D01*
X911853Y377613D01*
X906774D01*
X904235Y380153D01*
Y390309D01*
X919470Y380153D02*
X932166Y392848D01*
X919470D02*
Y395388D01*
X922009D01*
Y392848D01*
X919470D01*
X929627Y377613D02*
Y380153D01*
X932166D01*
Y377613D01*
X929627D01*
X889000Y584200D02*
X894078D01*
X891539D01*
Y599435D01*
X889000Y596896D01*
X901696D02*
X904235Y599435D01*
X909313D01*
X911853Y596896D01*
Y586739D01*
X909313Y584200D01*
X904235D01*
X901696Y586739D01*
Y596896D01*
X916931Y586739D02*
X929627Y599435D01*
X916931D02*
Y601974D01*
X919470D01*
Y599435D01*
X916931D01*
X927088Y584200D02*
Y586739D01*
X929627D01*
Y584200D01*
X927088D01*
X899157Y461711D02*
X889000D01*
Y454093D01*
X894078Y456632D01*
X896618D01*
X899157Y454093D01*
Y449015D01*
X896618Y446475D01*
X891539D01*
X889000Y449015D01*
X904235Y459171D02*
X906774Y461711D01*
X911853D01*
X914392Y459171D01*
Y449015D01*
X911853Y446475D01*
X906774D01*
X904235Y449015D01*
Y459171D01*
X919470Y449015D02*
X932166Y461711D01*
X919470D02*
Y464250D01*
X922009D01*
Y461711D01*
X919470D01*
X929627Y446475D02*
Y449015D01*
X932166D01*
Y446475D01*
X929627D01*
X896618Y480907D02*
Y496142D01*
X889000Y488524D01*
X899157D01*
X904235Y493602D02*
X906774Y496142D01*
X911853D01*
X914392Y493602D01*
Y483446D01*
X911853Y480907D01*
X906774D01*
X904235Y483446D01*
Y493602D01*
X919470Y483446D02*
X932166Y496142D01*
X919470D02*
Y498681D01*
X922009D01*
Y496142D01*
X919470D01*
X929627Y480907D02*
Y483446D01*
X932166D01*
Y480907D01*
X929627D01*
X899157Y427280D02*
X894078Y424740D01*
X889000Y419662D01*
Y414584D01*
X891539Y412044D01*
X896618D01*
X899157Y414584D01*
Y417123D01*
X896618Y419662D01*
X889000D01*
X904235Y424740D02*
X906774Y427280D01*
X911853D01*
X914392Y424740D01*
Y414584D01*
X911853Y412044D01*
X906774D01*
X904235Y414584D01*
Y424740D01*
X919470Y414584D02*
X932166Y427280D01*
X919470D02*
Y429819D01*
X922009D01*
Y427280D01*
X919470D01*
X929627Y412044D02*
Y414584D01*
X932166D01*
Y412044D01*
X929627D01*
X889000Y528034D02*
X891539Y530573D01*
X896618D01*
X899157Y528034D01*
Y525494D01*
X896618Y522955D01*
X894078D01*
X896618D01*
X899157Y520416D01*
Y517877D01*
X896618Y515338D01*
X891539D01*
X889000Y517877D01*
X904235Y528034D02*
X906774Y530573D01*
X911853D01*
X914392Y528034D01*
Y517877D01*
X911853Y515338D01*
X906774D01*
X904235Y517877D01*
Y528034D01*
X919470Y517877D02*
X932166Y530573D01*
X919470D02*
Y533112D01*
X922009D01*
Y530573D01*
X919470D01*
X929627Y515338D02*
Y517877D01*
X932166D01*
Y515338D01*
X929627D01*
X889000Y311290D02*
X891539Y308751D01*
X896618D01*
X899157Y311290D01*
Y321447D01*
X896618Y323986D01*
X891539D01*
X889000Y321447D01*
Y318908D01*
X891539Y316369D01*
X899157D01*
X904235Y321447D02*
X906774Y323986D01*
X911853D01*
X914392Y321447D01*
Y311290D01*
X911853Y308751D01*
X906774D01*
X904235Y311290D01*
Y321447D01*
X919470Y311290D02*
X932166Y323986D01*
X919470D02*
Y326525D01*
X922009D01*
Y323986D01*
X919470D01*
X929627Y308751D02*
Y311290D01*
X932166D01*
Y308751D01*
X929627D01*
X889000Y355878D02*
X891539Y358417D01*
X896618D01*
X899157Y355878D01*
Y353339D01*
X896618Y350800D01*
X899157Y348260D01*
Y345721D01*
X896618Y343182D01*
X891539D01*
X889000Y345721D01*
Y348260D01*
X891539Y350800D01*
X889000Y353339D01*
Y355878D01*
X891539Y350800D02*
X896618D01*
X904235Y355878D02*
X906774Y358417D01*
X911853D01*
X914392Y355878D01*
Y345721D01*
X911853Y343182D01*
X906774D01*
X904235Y345721D01*
Y355878D01*
X919470Y345721D02*
X932166Y358417D01*
X919470D02*
Y360956D01*
X922009D01*
Y358417D01*
X919470D01*
X929627Y343182D02*
Y345721D01*
X932166D01*
Y343182D01*
X929627D01*
X548644Y386082D02*
Y401317D01*
X556262D01*
X558801Y398778D01*
Y393700D01*
X556262Y391161D01*
X548644D01*
X553722D02*
X558801Y386082D01*
X563879Y401317D02*
X574036D01*
Y398778D01*
X563879Y388622D01*
Y386082D01*
X548644Y424183D02*
Y439417D01*
X556262D01*
X558801Y436878D01*
Y431800D01*
X556262Y429261D01*
X548644D01*
X553722D02*
X558801Y424183D01*
X574036Y439417D02*
X568957Y436878D01*
X563879Y431800D01*
Y426722D01*
X566418Y424183D01*
X571497D01*
X574036Y426722D01*
Y429261D01*
X571497Y431800D01*
X563879D01*
X652784Y505457D02*
Y492762D01*
X655323Y490223D01*
X660402D01*
X662941Y492762D01*
Y505457D01*
X678176Y490223D02*
X668019D01*
X678176Y500379D01*
Y502918D01*
X675637Y505457D01*
X670558D01*
X668019Y502918D01*
X508003Y553717D02*
Y541022D01*
X510542Y538483D01*
X515621D01*
X518160Y541022D01*
Y553717D01*
X523238Y538483D02*
X528317D01*
X525778D01*
Y553717D01*
X523238Y551178D01*
X972818Y452124D02*
X957582D01*
Y459742D01*
X960122Y462281D01*
X965200D01*
X967739Y459742D01*
Y452124D01*
Y457202D02*
X972818Y462281D01*
X957582Y477516D02*
Y467359D01*
X965200D01*
X962661Y472438D01*
Y474977D01*
X965200Y477516D01*
X970278D01*
X972818Y474977D01*
Y469898D01*
X970278Y467359D01*
X711204Y594362D02*
Y609598D01*
X718822D01*
X721361Y607058D01*
Y601980D01*
X718822Y599441D01*
X711204D01*
X716283D02*
X721361Y594362D01*
X734057D02*
Y609598D01*
X726439Y601980D01*
X736596D01*
X617224Y627383D02*
Y642617D01*
X624842D01*
X627381Y640078D01*
Y635000D01*
X624842Y632461D01*
X617224D01*
X622303D02*
X627381Y627383D01*
X632459Y640078D02*
X634998Y642617D01*
X640077D01*
X642616Y640078D01*
Y637539D01*
X640077Y635000D01*
X637537D01*
X640077D01*
X642616Y632461D01*
Y629922D01*
X640077Y627383D01*
X634998D01*
X632459Y629922D01*
X525784Y637542D02*
Y652777D01*
X533402D01*
X535941Y650238D01*
Y645160D01*
X533402Y642621D01*
X525784D01*
X530863D02*
X535941Y637542D01*
X551176D02*
X541019D01*
X551176Y647699D01*
Y650238D01*
X548637Y652777D01*
X543558D01*
X541019Y650238D01*
X304803Y495303D02*
Y510537D01*
X312421D01*
X314960Y507998D01*
Y502920D01*
X312421Y500381D01*
X304803D01*
X309882D02*
X314960Y495303D01*
X320038D02*
X325117D01*
X322578D01*
Y510537D01*
X320038Y507998D01*
X482606Y492762D02*
Y507998D01*
X490223D01*
X492762Y505458D01*
Y500380D01*
X490223Y497841D01*
X482606D01*
X507998Y505458D02*
X505458Y507998D01*
X500380D01*
X497841Y505458D01*
Y502919D01*
X500380Y500380D01*
X505458D01*
X507998Y497841D01*
Y495302D01*
X505458Y492762D01*
X500380D01*
X497841Y495302D01*
X513076Y492762D02*
X518154D01*
X515615D01*
Y507998D01*
X513076Y505458D01*
X359593Y320042D02*
Y335277D01*
X367211D01*
X369750Y332738D01*
Y327660D01*
X367211Y325121D01*
X359593D01*
X374828Y320042D02*
X379907D01*
X377368D01*
Y335277D01*
X374828Y332738D01*
X780308Y292097D02*
Y276863D01*
X787925D01*
X790464Y279402D01*
Y289558D01*
X787925Y292097D01*
X780308D01*
X805700Y289558D02*
X803160Y292097D01*
X798082D01*
X795543Y289558D01*
Y287019D01*
X798082Y284480D01*
X803160D01*
X805700Y281941D01*
Y279402D01*
X803160Y276863D01*
X798082D01*
X795543Y279402D01*
X810778Y276863D02*
X815856D01*
X813317D01*
Y292097D01*
X810778Y289558D01*
X823474Y276863D02*
X828552D01*
X826013D01*
Y292097D01*
X823474Y289558D01*
X777769Y326623D02*
Y311388D01*
X785386D01*
X787925Y313927D01*
Y324084D01*
X785386Y326623D01*
X777769D01*
X803160Y324084D02*
X800621Y326623D01*
X795543D01*
X793004Y324084D01*
Y321545D01*
X795543Y319006D01*
X800621D01*
X803160Y316466D01*
Y313927D01*
X800621Y311388D01*
X795543D01*
X793004Y313927D01*
X808239Y311388D02*
X813317D01*
X810778D01*
Y326623D01*
X808239Y324084D01*
X820935D02*
X823474Y326623D01*
X828552D01*
X831091Y324084D01*
Y313927D01*
X828552Y311388D01*
X823474D01*
X820935Y313927D01*
Y324084D01*
X789197Y361149D02*
Y345914D01*
X796814D01*
X799353Y348453D01*
Y358609D01*
X796814Y361149D01*
X789197D01*
X814588Y358609D02*
X812049Y361149D01*
X806971D01*
X804432Y358609D01*
Y356070D01*
X806971Y353531D01*
X812049D01*
X814588Y350992D01*
Y348453D01*
X812049Y345914D01*
X806971D01*
X804432Y348453D01*
X819667D02*
X822206Y345914D01*
X827284D01*
X829823Y348453D01*
Y358609D01*
X827284Y361149D01*
X822206D01*
X819667Y358609D01*
Y356070D01*
X822206Y353531D01*
X829823D01*
X789197Y498401D02*
Y483166D01*
X796814D01*
X799353Y485705D01*
Y495862D01*
X796814Y498401D01*
X789197D01*
X814588Y495862D02*
X812049Y498401D01*
X806971D01*
X804432Y495862D01*
Y493322D01*
X806971Y490783D01*
X812049D01*
X814588Y488244D01*
Y485705D01*
X812049Y483166D01*
X806971D01*
X804432Y485705D01*
X829823Y498401D02*
X819667D01*
Y490783D01*
X824745Y493322D01*
X827284D01*
X829823Y490783D01*
Y485705D01*
X827284Y483166D01*
X822206D01*
X819667Y485705D01*
X789197Y535466D02*
Y520231D01*
X796814D01*
X799353Y522770D01*
Y532927D01*
X796814Y535466D01*
X789197D01*
X814588Y532927D02*
X812049Y535466D01*
X806971D01*
X804432Y532927D01*
Y530388D01*
X806971Y527849D01*
X812049D01*
X814588Y525309D01*
Y522770D01*
X812049Y520231D01*
X806971D01*
X804432Y522770D01*
X827284Y520231D02*
Y535466D01*
X819667Y527849D01*
X829823D01*
X789197Y569992D02*
Y554757D01*
X796814D01*
X799353Y557296D01*
Y567453D01*
X796814Y569992D01*
X789197D01*
X814588Y567453D02*
X812049Y569992D01*
X806971D01*
X804432Y567453D01*
Y564913D01*
X806971Y562374D01*
X812049D01*
X814588Y559835D01*
Y557296D01*
X812049Y554757D01*
X806971D01*
X804432Y557296D01*
X819667Y567453D02*
X822206Y569992D01*
X827284D01*
X829823Y567453D01*
Y564913D01*
X827284Y562374D01*
X824745D01*
X827284D01*
X829823Y559835D01*
Y557296D01*
X827284Y554757D01*
X822206D01*
X819667Y557296D01*
X789197Y604517D02*
Y589282D01*
X796814D01*
X799353Y591821D01*
Y601978D01*
X796814Y604517D01*
X789197D01*
X814588Y601978D02*
X812049Y604517D01*
X806971D01*
X804432Y601978D01*
Y599439D01*
X806971Y596900D01*
X812049D01*
X814588Y594361D01*
Y591821D01*
X812049Y589282D01*
X806971D01*
X804432Y591821D01*
X829823Y589282D02*
X819667D01*
X829823Y599439D01*
Y601978D01*
X827284Y604517D01*
X822206D01*
X819667Y601978D01*
X320046Y596898D02*
Y581662D01*
X327663D01*
X330202Y584202D01*
Y594358D01*
X327663Y596898D01*
X320046D01*
X345438Y594358D02*
X342898Y596898D01*
X337820D01*
X335281Y594358D01*
Y591819D01*
X337820Y589280D01*
X342898D01*
X345438Y586741D01*
Y584202D01*
X342898Y581662D01*
X337820D01*
X335281Y584202D01*
X350516Y581662D02*
X355594D01*
X353055D01*
Y596898D01*
X350516Y594358D01*
X807724Y393534D02*
Y378299D01*
X815342D01*
X817881Y380838D01*
Y390995D01*
X815342Y393534D01*
X807724D01*
X822959Y390995D02*
X825498Y393534D01*
X830577D01*
X833116Y390995D01*
Y388456D01*
X830577Y385917D01*
X833116Y383377D01*
Y380838D01*
X830577Y378299D01*
X825498D01*
X822959Y380838D01*
Y383377D01*
X825498Y385917D01*
X822959Y388456D01*
Y390995D01*
X825498Y385917D02*
X830577D01*
X804844Y428060D02*
Y412825D01*
X812462D01*
X815001Y415364D01*
Y425521D01*
X812462Y428060D01*
X804844D01*
X820079D02*
X830236D01*
Y425521D01*
X820079Y415364D01*
Y412825D01*
X805184Y462585D02*
Y447350D01*
X812802D01*
X815341Y449889D01*
Y460046D01*
X812802Y462585D01*
X805184D01*
X830576D02*
X825498Y460046D01*
X820419Y454968D01*
Y449889D01*
X822958Y447350D01*
X828037D01*
X830576Y449889D01*
Y452429D01*
X828037Y454968D01*
X820419D01*
X341291Y454658D02*
X338752Y457197D01*
X333673D01*
X331134Y454658D01*
Y444502D01*
X333673Y441963D01*
X338752D01*
X341291Y444502D01*
X356526Y441963D02*
X346369D01*
X356526Y452119D01*
Y454658D01*
X353987Y457197D01*
X348908D01*
X346369Y454658D01*
D16*
X649732Y692904D02*
Y671744D01*
X653964Y667512D01*
X662428D01*
X666660Y671744D01*
Y692904D01*
X675124Y667512D02*
Y692904D01*
X683588Y684440D01*
X692052Y692904D01*
Y667512D01*
X717443Y688672D02*
X713212Y692904D01*
X704748D01*
X700516Y688672D01*
Y684440D01*
X704748Y680208D01*
X713212D01*
X717443Y675976D01*
Y671744D01*
X713212Y667512D01*
X704748D01*
X700516Y671744D01*
X725907Y667512D02*
Y684440D01*
X734371Y692904D01*
X742835Y684440D01*
Y667512D01*
Y680208D01*
X725907D01*
X768227Y692904D02*
X751299D01*
Y667512D01*
X768227D01*
X751299Y680208D02*
X759763D01*
X819011Y692904D02*
X802083D01*
Y667512D01*
X819011D01*
X802083Y680208D02*
X810547D01*
X827475Y667512D02*
X835938D01*
X831706D01*
Y692904D01*
X827475D01*
X861330Y667512D02*
X852866D01*
X848634Y671744D01*
Y680208D01*
X852866Y684440D01*
X861330D01*
X865562Y680208D01*
Y675976D01*
X848634D01*
X890954Y684440D02*
X878258D01*
X874026Y680208D01*
Y671744D01*
X878258Y667512D01*
X890954D01*
X903650Y688672D02*
Y684440D01*
X899418D01*
X907882D01*
X903650D01*
Y671744D01*
X907882Y667512D01*
X920578Y684440D02*
Y667512D01*
Y675976D01*
X924810Y680208D01*
X929042Y684440D01*
X933274D01*
X945970Y667512D02*
X954434D01*
X950202D01*
Y684440D01*
X945970D01*
X984057D02*
X971361D01*
X967129Y680208D01*
Y671744D01*
X971361Y667512D01*
X984057D01*
M02*
