G04*
G04 #@! TF.GenerationSoftware,Altium Limited,Altium Designer,25.1.2 (22)*
G04*
G04 Layer_Color=8421504*
%FSLAX44Y44*%
%MOMM*%
G71*
G04*
G04 #@! TF.SameCoordinates,6D4D92B4-A3DC-49D6-99F1-53D89A5D43F5*
G04*
G04*
G04 #@! TF.FilePolarity,Positive*
G04*
G01*
G75*
G04:AMPARAMS|DCode=17|XSize=0.65mm|YSize=1.85mm|CornerRadius=0.0488mm|HoleSize=0mm|Usage=FLASHONLY|Rotation=270.000|XOffset=0mm|YOffset=0mm|HoleType=Round|Shape=RoundedRectangle|*
%AMROUNDEDRECTD17*
21,1,0.6500,1.7525,0,0,270.0*
21,1,0.5525,1.8500,0,0,270.0*
1,1,0.0975,-0.8762,-0.2763*
1,1,0.0975,-0.8762,0.2763*
1,1,0.0975,0.8762,0.2763*
1,1,0.0975,0.8762,-0.2763*
%
%ADD17ROUNDEDRECTD17*%
%ADD18R,1.2000X1.2000*%
%ADD19R,3.5000X2.5000*%
%ADD20R,0.6500X0.9000*%
G04:AMPARAMS|DCode=21|XSize=2.1692mm|YSize=0.5821mm|CornerRadius=0.2911mm|HoleSize=0mm|Usage=FLASHONLY|Rotation=0.000|XOffset=0mm|YOffset=0mm|HoleType=Round|Shape=RoundedRectangle|*
%AMROUNDEDRECTD21*
21,1,2.1692,0.0000,0,0,0.0*
21,1,1.5870,0.5821,0,0,0.0*
1,1,0.5821,0.7935,0.0000*
1,1,0.5821,-0.7935,0.0000*
1,1,0.5821,-0.7935,0.0000*
1,1,0.5821,0.7935,0.0000*
%
%ADD21ROUNDEDRECTD21*%
%ADD22R,1.2000X1.2000*%
%ADD23R,0.8000X0.9000*%
%ADD24R,2.1692X0.5821*%
%ADD25R,1.0582X1.2061*%
%ADD26R,0.9000X1.0000*%
%ADD27R,1.0621X1.0637*%
D17*
X702730Y461010D02*
D03*
X628230Y473710D02*
D03*
Y461010D02*
D03*
Y448310D02*
D03*
Y435610D02*
D03*
Y422910D02*
D03*
Y410210D02*
D03*
Y397510D02*
D03*
Y384810D02*
D03*
X702730Y473710D02*
D03*
Y448310D02*
D03*
Y435610D02*
D03*
Y422910D02*
D03*
Y410210D02*
D03*
Y397510D02*
D03*
Y384810D02*
D03*
D18*
X844730Y488243D02*
D03*
X845480Y385917D02*
D03*
X844730Y316465D02*
D03*
Y522769D02*
D03*
Y281940D02*
D03*
X845480Y454968D02*
D03*
X844730Y591820D02*
D03*
X845480Y420442D02*
D03*
X844730Y350991D02*
D03*
Y557294D02*
D03*
X865730Y281940D02*
D03*
Y316465D02*
D03*
X866480Y454968D02*
D03*
Y420442D02*
D03*
X865730Y350991D02*
D03*
X866480Y385917D02*
D03*
X865730Y488243D02*
D03*
Y522769D02*
D03*
Y557294D02*
D03*
Y591820D02*
D03*
D19*
X445430Y414020D02*
D03*
X380430D02*
D03*
D20*
X601860Y398780D02*
D03*
X586860D02*
D03*
Y424180D02*
D03*
X601860D02*
D03*
D21*
X517384Y582930D02*
D03*
Y570230D02*
D03*
X564656Y608330D02*
D03*
X517384Y595630D02*
D03*
X564656Y570230D02*
D03*
Y582930D02*
D03*
Y595630D02*
D03*
D22*
X342900Y566760D02*
D03*
Y545760D02*
D03*
D23*
X965200Y440300D02*
D03*
Y423300D02*
D03*
D24*
X517384Y608330D02*
D03*
D25*
X342900Y494909D02*
D03*
Y510931D02*
D03*
D26*
X566420Y638700D02*
D03*
Y656700D02*
D03*
D27*
X599440Y653454D02*
D03*
Y636866D02*
D03*
M02*
