G04*
G04 #@! TF.GenerationSoftware,Altium Limited,Altium Designer,25.8.1 (18)*
G04*
G04 Layer_Physical_Order=2*
G04 Layer_Color=16711680*
%FSLAX25Y25*%
%MOIN*%
G70*
G04*
G04 #@! TF.SameCoordinates,388448DE-4009-46C6-BC9F-7F365E803C92*
G04*
G04*
G04 #@! TF.FilePolarity,Positive*
G04*
G01*
G75*
%ADD44C,0.03000*%
%ADD45C,0.01500*%
%ADD46C,0.05906*%
%ADD47R,0.05906X0.05906*%
%ADD48R,0.04921X0.04921*%
%ADD49C,0.04921*%
%ADD50R,0.06102X0.06102*%
%ADD51C,0.06102*%
%ADD52C,0.05000*%
%ADD53C,0.20000*%
%ADD54R,0.05138X0.04355*%
%ADD55R,0.04355X0.05138*%
G36*
X414000Y78000D02*
X101000D01*
Y287000D01*
X414000D01*
Y78000D01*
D02*
G37*
%LPC*%
G36*
X394866Y278000D02*
X394500D01*
Y267500D01*
X405000D01*
Y267866D01*
X404729Y269576D01*
X404194Y271222D01*
X403408Y272765D01*
X402390Y274166D01*
X401166Y275390D01*
X399765Y276408D01*
X398222Y277194D01*
X396576Y277729D01*
X394866Y278000D01*
D02*
G37*
G36*
X393500D02*
X393134D01*
X391424Y277729D01*
X389777Y277194D01*
X388235Y276408D01*
X386834Y275390D01*
X385610Y274166D01*
X384592Y272765D01*
X383806Y271222D01*
X383271Y269576D01*
X383000Y267866D01*
Y267500D01*
X393500D01*
Y278000D01*
D02*
G37*
G36*
X121866D02*
X121500D01*
Y267500D01*
X132000D01*
Y267866D01*
X131729Y269576D01*
X131194Y271222D01*
X130408Y272765D01*
X129390Y274166D01*
X128166Y275390D01*
X126765Y276408D01*
X125223Y277194D01*
X123576Y277729D01*
X121866Y278000D01*
D02*
G37*
G36*
X120500D02*
X120134D01*
X118424Y277729D01*
X116778Y277194D01*
X115235Y276408D01*
X113834Y275390D01*
X112610Y274166D01*
X111592Y272765D01*
X110806Y271222D01*
X110271Y269576D01*
X110000Y267866D01*
Y267500D01*
X120500D01*
Y278000D01*
D02*
G37*
G36*
X405000Y266500D02*
X394500D01*
Y256000D01*
X394866D01*
X396576Y256271D01*
X398222Y256806D01*
X399765Y257592D01*
X401166Y258610D01*
X402390Y259834D01*
X403408Y261235D01*
X404194Y262777D01*
X404729Y264424D01*
X405000Y266134D01*
Y266500D01*
D02*
G37*
G36*
X393500D02*
X383000D01*
Y266134D01*
X383271Y264424D01*
X383806Y262777D01*
X384592Y261235D01*
X385610Y259834D01*
X386834Y258610D01*
X388235Y257592D01*
X389777Y256806D01*
X391424Y256271D01*
X393134Y256000D01*
X393500D01*
Y266500D01*
D02*
G37*
G36*
X132000D02*
X121500D01*
Y256000D01*
X121866D01*
X123576Y256271D01*
X125223Y256806D01*
X126765Y257592D01*
X128166Y258610D01*
X129390Y259834D01*
X130408Y261235D01*
X131194Y262777D01*
X131729Y264424D01*
X132000Y266134D01*
Y266500D01*
D02*
G37*
G36*
X120500D02*
X110000D01*
Y266134D01*
X110271Y264424D01*
X110806Y262777D01*
X111592Y261235D01*
X112610Y259834D01*
X113834Y258610D01*
X115235Y257592D01*
X116778Y256806D01*
X118424Y256271D01*
X120134Y256000D01*
X120500D01*
Y266500D01*
D02*
G37*
G36*
X197500Y254489D02*
Y251500D01*
X200489D01*
X200261Y252351D01*
X199801Y253149D01*
X199149Y253801D01*
X198351Y254261D01*
X197500Y254489D01*
D02*
G37*
G36*
X196500D02*
X195649Y254261D01*
X194851Y253801D01*
X194199Y253149D01*
X193738Y252351D01*
X193510Y251500D01*
X196500D01*
Y254489D01*
D02*
G37*
G36*
X200489Y250500D02*
X197500D01*
Y247511D01*
X198351Y247739D01*
X199149Y248199D01*
X199801Y248851D01*
X200261Y249649D01*
X200489Y250500D01*
D02*
G37*
G36*
X196500D02*
X193510D01*
X193738Y249649D01*
X194199Y248851D01*
X194851Y248199D01*
X195649Y247739D01*
X196500Y247511D01*
Y250500D01*
D02*
G37*
G36*
X256318Y236461D02*
X255407D01*
X254526Y236225D01*
X253737Y235769D01*
X253093Y235125D01*
X252637Y234336D01*
X252402Y233456D01*
Y232544D01*
X252637Y231664D01*
X253093Y230875D01*
X253737Y230231D01*
X254526Y229775D01*
X255407Y229539D01*
X256318D01*
X257198Y229775D01*
X257987Y230231D01*
X258631Y230875D01*
X259087Y231664D01*
X259323Y232544D01*
Y233456D01*
X259087Y234336D01*
X258631Y235125D01*
X257987Y235769D01*
X257198Y236225D01*
X256318Y236461D01*
D02*
G37*
G36*
X259323Y216461D02*
X252402D01*
Y209539D01*
X259323D01*
Y216461D01*
D02*
G37*
G36*
X246318Y226461D02*
X245407D01*
X244527Y226225D01*
X243737Y225769D01*
X243093Y225125D01*
X242637Y224336D01*
X242402Y223456D01*
Y222951D01*
X242385Y222860D01*
X242389Y222630D01*
X242380Y222449D01*
X242360Y222284D01*
X242330Y222134D01*
X242290Y221999D01*
X242242Y221876D01*
X242186Y221762D01*
X242120Y221657D01*
X242079Y221603D01*
X237737Y217260D01*
X237648Y217185D01*
X237488Y217065D01*
X237336Y216966D01*
X237193Y216887D01*
X237058Y216826D01*
X236931Y216782D01*
X236812Y216752D01*
X236698Y216735D01*
X236537Y216727D01*
X236511Y216721D01*
X232822D01*
Y209583D01*
Y207348D01*
X236000D01*
X239178D01*
Y209583D01*
Y212952D01*
X239182Y212970D01*
X239193Y213119D01*
X239215Y213223D01*
X239260Y213358D01*
X239334Y213523D01*
X239439Y213714D01*
X239578Y213928D01*
X239744Y214154D01*
X240142Y214618D01*
X244652Y219128D01*
X244705Y219169D01*
X244817Y219241D01*
X244939Y219305D01*
X245073Y219362D01*
X245220Y219412D01*
X245383Y219453D01*
X245561Y219486D01*
X245755Y219509D01*
X245994Y219523D01*
X246059Y219539D01*
X246318D01*
X247198Y219775D01*
X247987Y220231D01*
X248631Y220875D01*
X249087Y221664D01*
X249323Y222544D01*
Y223456D01*
X249087Y224336D01*
X248631Y225125D01*
X247987Y225769D01*
X247198Y226225D01*
X246318Y226461D01*
D02*
G37*
G36*
X164721Y209178D02*
X161652D01*
Y206500D01*
X164721D01*
Y209178D01*
D02*
G37*
G36*
X235500Y206348D02*
X232822D01*
Y203279D01*
X235500D01*
Y206348D01*
D02*
G37*
G36*
X239178D02*
X236500D01*
Y203279D01*
X237255D01*
X237428Y203245D01*
X237819D01*
X237991Y203279D01*
X239178D01*
Y203912D01*
X239468Y204346D01*
X239603Y205029D01*
X239468Y205712D01*
X239178Y206146D01*
Y206348D01*
D02*
G37*
G36*
X164721Y205500D02*
X161652D01*
Y202822D01*
X164721D01*
Y205500D01*
D02*
G37*
G36*
X285500Y198489D02*
Y195500D01*
X288490D01*
X288262Y196351D01*
X287801Y197149D01*
X287149Y197801D01*
X286351Y198261D01*
X285500Y198489D01*
D02*
G37*
G36*
X284500D02*
X283649Y198261D01*
X282851Y197801D01*
X282199Y197149D01*
X281738Y196351D01*
X281510Y195500D01*
X284500D01*
Y198489D01*
D02*
G37*
G36*
X167520Y197953D02*
X167500D01*
Y194500D01*
X170953D01*
Y194520D01*
X170683Y195526D01*
X170163Y196427D01*
X169427Y197163D01*
X168526Y197683D01*
X167520Y197953D01*
D02*
G37*
G36*
X166500D02*
X166480D01*
X165474Y197683D01*
X164573Y197163D01*
X163837Y196427D01*
X163317Y195526D01*
X163047Y194520D01*
Y194500D01*
X166500D01*
Y197953D01*
D02*
G37*
G36*
X288490Y194500D02*
X285500D01*
Y191510D01*
X286351Y191738D01*
X287149Y192199D01*
X287801Y192851D01*
X288262Y193649D01*
X288490Y194500D01*
D02*
G37*
G36*
X284500D02*
X281510D01*
X281738Y193649D01*
X282199Y192851D01*
X282851Y192199D01*
X283649Y191738D01*
X284500Y191510D01*
Y194500D01*
D02*
G37*
G36*
X170953Y193500D02*
X167500D01*
Y190047D01*
X167520D01*
X168526Y190317D01*
X169427Y190837D01*
X170163Y191573D01*
X170683Y192474D01*
X170953Y193480D01*
Y193500D01*
D02*
G37*
G36*
X166500D02*
X163047D01*
Y193480D01*
X163317Y192474D01*
X163837Y191573D01*
X164573Y190837D01*
X165474Y190317D01*
X166480Y190047D01*
X166500D01*
Y193500D01*
D02*
G37*
G36*
X160652Y209178D02*
X151279D01*
Y202822D01*
X154862D01*
X154875Y202746D01*
X154883Y202656D01*
Y200470D01*
X155019Y199787D01*
X155216Y199493D01*
Y198453D01*
X155199Y198345D01*
X155158Y198193D01*
X155098Y198030D01*
X155016Y197856D01*
X154910Y197671D01*
X154778Y197475D01*
X154620Y197271D01*
X154433Y197057D01*
X154202Y196819D01*
X154151Y196742D01*
X153837Y196427D01*
X153317Y195526D01*
X153047Y194520D01*
Y193480D01*
X153317Y192474D01*
X153837Y191573D01*
X154573Y190837D01*
X155474Y190317D01*
X156480Y190047D01*
X157520D01*
X158526Y190317D01*
X159427Y190837D01*
X160163Y191573D01*
X160683Y192474D01*
X160953Y193480D01*
Y194520D01*
X160683Y195526D01*
X160163Y196427D01*
X159848Y196742D01*
X159798Y196819D01*
X159567Y197057D01*
X159380Y197271D01*
X159222Y197475D01*
X159090Y197671D01*
X158984Y197856D01*
X158902Y198030D01*
X158842Y198193D01*
X158801Y198345D01*
X158784Y198453D01*
Y200137D01*
X158784Y200137D01*
X158649Y200820D01*
X158455Y201110D01*
X158451Y201115D01*
Y202822D01*
X160652D01*
Y206000D01*
Y209178D01*
D02*
G37*
G36*
X207461Y189500D02*
X206539D01*
X205649Y189261D01*
X204851Y188801D01*
X204199Y188149D01*
X203738Y187351D01*
X203500Y186461D01*
Y185539D01*
X203738Y184649D01*
X204199Y183851D01*
X204851Y183199D01*
X205649Y182738D01*
X206539Y182500D01*
X207461D01*
X208351Y182738D01*
X209149Y183199D01*
X209801Y183851D01*
X210262Y184649D01*
X210500Y185539D01*
Y186461D01*
X210262Y187351D01*
X209801Y188149D01*
X209149Y188801D01*
X208351Y189261D01*
X207461Y189500D01*
D02*
G37*
G36*
X169348Y184178D02*
X166279D01*
Y181500D01*
X169348D01*
Y184178D01*
D02*
G37*
G36*
X180953Y197953D02*
X173047D01*
Y191175D01*
X173046Y191170D01*
X173047Y191153D01*
Y191097D01*
X173040Y191059D01*
X173047Y191021D01*
Y190047D01*
X173943D01*
X173948Y190046D01*
X174098Y190029D01*
X174104Y190027D01*
X174114Y190021D01*
X174153Y189976D01*
X174220Y189862D01*
X174298Y189664D01*
X174371Y189381D01*
X174430Y189015D01*
X174451Y188763D01*
Y185477D01*
X174428Y185214D01*
X174367Y184852D01*
X174292Y184572D01*
X174212Y184377D01*
X174143Y184264D01*
X174100Y184217D01*
X174081Y184205D01*
X174059Y184197D01*
X173893Y184179D01*
X173887Y184178D01*
X170348D01*
Y181000D01*
Y177822D01*
X179721D01*
Y183127D01*
X179728Y183166D01*
X179721Y183204D01*
Y184178D01*
X179604D01*
X179549Y185145D01*
Y188763D01*
X179570Y189015D01*
X179629Y189381D01*
X179702Y189664D01*
X179780Y189862D01*
X179847Y189976D01*
X179886Y190021D01*
X179896Y190027D01*
X179902Y190029D01*
X180052Y190046D01*
X180057Y190047D01*
X180953D01*
Y191021D01*
X180960Y191059D01*
X180953Y191097D01*
Y191153D01*
X180954Y191170D01*
X180953Y191175D01*
Y197953D01*
D02*
G37*
G36*
X169348Y180500D02*
X166279D01*
Y177822D01*
X169348D01*
Y180500D01*
D02*
G37*
G36*
X224500Y165489D02*
Y162500D01*
X227489D01*
X227261Y163351D01*
X226801Y164149D01*
X226149Y164801D01*
X225351Y165261D01*
X224500Y165489D01*
D02*
G37*
G36*
X223500D02*
X222649Y165261D01*
X221851Y164801D01*
X221199Y164149D01*
X220739Y163351D01*
X220511Y162500D01*
X223500D01*
Y165489D01*
D02*
G37*
G36*
X227489Y161500D02*
X224500D01*
Y158510D01*
X225351Y158739D01*
X226149Y159199D01*
X226801Y159851D01*
X227261Y160649D01*
X227489Y161500D01*
D02*
G37*
G36*
X223500D02*
X220511D01*
X220739Y160649D01*
X221199Y159851D01*
X221851Y159199D01*
X222649Y158739D01*
X223500Y158510D01*
Y161500D01*
D02*
G37*
G36*
X122461Y162500D02*
X121539D01*
X120649Y162261D01*
X119851Y161801D01*
X119199Y161149D01*
X118738Y160351D01*
X118500Y159461D01*
Y158539D01*
X118738Y157649D01*
X119199Y156851D01*
X119851Y156199D01*
X120649Y155738D01*
X121539Y155500D01*
X122461D01*
X123351Y155738D01*
X124149Y156199D01*
X124801Y156851D01*
X125261Y157649D01*
X125500Y158539D01*
Y159461D01*
X125261Y160351D01*
X124801Y161149D01*
X124149Y161801D01*
X123351Y162261D01*
X122461Y162500D01*
D02*
G37*
G36*
X161622Y133051D02*
X158071D01*
Y129500D01*
X161622D01*
Y133051D01*
D02*
G37*
G36*
X157071D02*
X153520D01*
Y129500D01*
X157071D01*
Y133051D01*
D02*
G37*
G36*
X168104D02*
X167037D01*
X166007Y132775D01*
X165083Y132242D01*
X164329Y131488D01*
X163796Y130564D01*
X163520Y129533D01*
Y128467D01*
X163796Y127436D01*
X164329Y126513D01*
X165083Y125758D01*
X166007Y125225D01*
X167037Y124949D01*
X168104D01*
X169135Y125225D01*
X170058Y125758D01*
X170813Y126513D01*
X171346Y127436D01*
X171622Y128467D01*
Y129533D01*
X171346Y130564D01*
X170813Y131488D01*
X170058Y132242D01*
X169135Y132775D01*
X168104Y133051D01*
D02*
G37*
G36*
X161622Y128500D02*
X158071D01*
Y124949D01*
X161622D01*
Y128500D01*
D02*
G37*
G36*
X157071D02*
X153520D01*
Y124949D01*
X157071D01*
Y128500D01*
D02*
G37*
G36*
X394866Y108000D02*
X394500D01*
Y97500D01*
X405000D01*
Y97866D01*
X404729Y99576D01*
X404194Y101223D01*
X403408Y102765D01*
X402390Y104166D01*
X401166Y105390D01*
X399765Y106408D01*
X398222Y107194D01*
X396576Y107729D01*
X394866Y108000D01*
D02*
G37*
G36*
X393500D02*
X393134D01*
X391424Y107729D01*
X389777Y107194D01*
X388235Y106408D01*
X386834Y105390D01*
X385610Y104166D01*
X384592Y102765D01*
X383806Y101223D01*
X383271Y99576D01*
X383000Y97866D01*
Y97500D01*
X393500D01*
Y108000D01*
D02*
G37*
G36*
X121866D02*
X121500D01*
Y97500D01*
X132000D01*
Y97866D01*
X131729Y99576D01*
X131194Y101223D01*
X130408Y102765D01*
X129390Y104166D01*
X128166Y105390D01*
X126765Y106408D01*
X125223Y107194D01*
X123576Y107729D01*
X121866Y108000D01*
D02*
G37*
G36*
X120500D02*
X120134D01*
X118424Y107729D01*
X116778Y107194D01*
X115235Y106408D01*
X113834Y105390D01*
X112610Y104166D01*
X111592Y102765D01*
X110806Y101223D01*
X110271Y99576D01*
X110000Y97866D01*
Y97500D01*
X120500D01*
Y108000D01*
D02*
G37*
G36*
X405000Y96500D02*
X394500D01*
Y86000D01*
X394866D01*
X396576Y86271D01*
X398222Y86806D01*
X399765Y87592D01*
X401166Y88610D01*
X402390Y89834D01*
X403408Y91235D01*
X404194Y92778D01*
X404729Y94424D01*
X405000Y96134D01*
Y96500D01*
D02*
G37*
G36*
X393500D02*
X383000D01*
Y96134D01*
X383271Y94424D01*
X383806Y92778D01*
X384592Y91235D01*
X385610Y89834D01*
X386834Y88610D01*
X388235Y87592D01*
X389777Y86806D01*
X391424Y86271D01*
X393134Y86000D01*
X393500D01*
Y96500D01*
D02*
G37*
G36*
X132000D02*
X121500D01*
Y86000D01*
X121866D01*
X123576Y86271D01*
X125223Y86806D01*
X126765Y87592D01*
X128166Y88610D01*
X129390Y89834D01*
X130408Y91235D01*
X131194Y92778D01*
X131729Y94424D01*
X132000Y96134D01*
Y96500D01*
D02*
G37*
G36*
X120500D02*
X110000D01*
Y96134D01*
X110271Y94424D01*
X110806Y92778D01*
X111592Y91235D01*
X112610Y89834D01*
X113834Y88610D01*
X115235Y87592D01*
X116778Y86806D01*
X118424Y86271D01*
X120134Y86000D01*
X120500D01*
Y96500D01*
D02*
G37*
%LPD*%
G36*
X245935Y220540D02*
X245666Y220525D01*
X245409Y220495D01*
X245164Y220450D01*
X244931Y220390D01*
X244710Y220316D01*
X244501Y220227D01*
X244304Y220123D01*
X244118Y220005D01*
X243945Y219871D01*
X243784Y219723D01*
X242679Y220740D01*
X242829Y220904D01*
X242962Y221079D01*
X243077Y221265D01*
X243176Y221462D01*
X243257Y221671D01*
X243321Y221890D01*
X243367Y222120D01*
X243397Y222362D01*
X243409Y222614D01*
X243405Y222878D01*
X245935Y220540D01*
D02*
G37*
G36*
X239757Y215696D02*
X239454Y215383D01*
X238945Y214789D01*
X238738Y214508D01*
X238563Y214237D01*
X238420Y213978D01*
X238309Y213728D01*
X238229Y213490D01*
X238181Y213262D01*
X238166Y213044D01*
X236588Y215709D01*
X236800Y215720D01*
X237012Y215751D01*
X237224Y215804D01*
X237436Y215879D01*
X237648Y215974D01*
X237860Y216091D01*
X238072Y216229D01*
X238285Y216388D01*
X238497Y216568D01*
X238709Y216770D01*
X239757Y215696D01*
D02*
G37*
G36*
X157417Y202334D02*
X155917D01*
X155910Y202619D01*
X155887Y202874D01*
X155850Y203099D01*
X155797Y203294D01*
X155730Y203459D01*
X155647Y203594D01*
X155550Y203699D01*
X155437Y203774D01*
X155310Y203819D01*
X155167Y203834D01*
X157405D01*
X157417Y202334D01*
D02*
G37*
G36*
X157763Y198381D02*
X157803Y198134D01*
X157869Y197885D01*
X157961Y197635D01*
X158079Y197384D01*
X158224Y197131D01*
X158395Y196878D01*
X158593Y196623D01*
X158817Y196366D01*
X159067Y196109D01*
X154933D01*
X155183Y196366D01*
X155407Y196623D01*
X155605Y196878D01*
X155776Y197131D01*
X155921Y197384D01*
X156039Y197635D01*
X156131Y197885D01*
X156197Y198134D01*
X156237Y198381D01*
X156250Y198628D01*
X157750D01*
X157763Y198381D01*
D02*
G37*
G36*
X179667Y191029D02*
X179422Y190939D01*
X179206Y190789D01*
X179019Y190579D01*
X178860Y190309D01*
X178730Y189979D01*
X178630Y189589D01*
X178558Y189139D01*
X178514Y188629D01*
X178500Y188059D01*
X175500D01*
X175486Y188629D01*
X175442Y189139D01*
X175370Y189589D01*
X175269Y189979D01*
X175140Y190309D01*
X174981Y190579D01*
X174794Y190789D01*
X174578Y190939D01*
X174333Y191029D01*
X174059Y191059D01*
X179941D01*
X179667Y191029D01*
D02*
G37*
G36*
X178502Y185596D02*
X178634Y183286D01*
X178669Y183196D01*
X178709Y183166D01*
X174000D01*
X174285Y183196D01*
X174540Y183286D01*
X174765Y183436D01*
X174960Y183646D01*
X175125Y183916D01*
X175260Y184246D01*
X175365Y184636D01*
X175440Y185086D01*
X175485Y185596D01*
X175500Y186166D01*
X178500D01*
X178502Y185596D01*
D02*
G37*
D44*
X176152Y181000D02*
X176322D01*
X177000Y181678D01*
Y194000D01*
D45*
X154848Y206000D02*
X155240D01*
X156667Y204572D01*
Y200470D02*
X157000Y200137D01*
X156667Y200470D02*
Y204572D01*
X157000Y194000D02*
Y200137D01*
X236000Y206457D02*
Y206848D01*
Y206457D02*
X237428Y205029D01*
X237819D01*
X236000Y213152D02*
Y213543D01*
X237428Y214971D01*
X237971D01*
X246000Y223000D01*
D46*
X157000Y194000D02*
D03*
X167000D02*
D03*
D47*
X177000D02*
D03*
D48*
X255862Y213000D02*
D03*
D49*
X245862Y223000D02*
D03*
X255862Y233000D02*
D03*
D50*
X157571Y129000D02*
D03*
D51*
X167571D02*
D03*
D52*
X122000Y159000D02*
D03*
X207000Y186000D02*
D03*
X224000Y162000D02*
D03*
X197000Y251000D02*
D03*
X285000Y195000D02*
D03*
D53*
X121000Y97000D02*
D03*
X394000D02*
D03*
Y267000D02*
D03*
X121000D02*
D03*
D54*
X154848Y206000D02*
D03*
X169848Y181000D02*
D03*
X161152Y206000D02*
D03*
X176152Y181000D02*
D03*
D55*
X236000Y206848D02*
D03*
Y213152D02*
D03*
M02*
