G04*
G04 #@! TF.GenerationSoftware,Altium Limited,Altium Designer,25.8.1 (18)*
G04*
G04 Layer_Color=8421504*
%FSLAX25Y25*%
%MOIN*%
G70*
G04*
G04 #@! TF.SameCoordinates,388448DE-4009-46C6-BC9F-7F365E803C92*
G04*
G04*
G04 #@! TF.FilePolarity,Positive*
G04*
G01*
G75*
%ADD18R,0.03543X0.03150*%
G04:AMPARAMS|DCode=19|XSize=25.59mil|YSize=72.84mil|CornerRadius=1.92mil|HoleSize=0mil|Usage=FLASHONLY|Rotation=270.000|XOffset=0mil|YOffset=0mil|HoleType=Round|Shape=RoundedRectangle|*
%AMROUNDEDRECTD19*
21,1,0.02559,0.06900,0,0,270.0*
21,1,0.02175,0.07284,0,0,270.0*
1,1,0.00384,-0.03450,-0.01088*
1,1,0.00384,-0.03450,0.01088*
1,1,0.00384,0.03450,0.01088*
1,1,0.00384,0.03450,-0.01088*
%
%ADD19ROUNDEDRECTD19*%
%ADD20R,0.04724X0.04724*%
%ADD21R,0.03543X0.03937*%
G04:AMPARAMS|DCode=22|XSize=85.4mil|YSize=22.92mil|CornerRadius=11.46mil|HoleSize=0mil|Usage=FLASHONLY|Rotation=0.000|XOffset=0mil|YOffset=0mil|HoleType=Round|Shape=RoundedRectangle|*
%AMROUNDEDRECTD22*
21,1,0.08540,0.00000,0,0,0.0*
21,1,0.06248,0.02292,0,0,0.0*
1,1,0.02292,0.03124,0.00000*
1,1,0.02292,-0.03124,0.00000*
1,1,0.02292,-0.03124,0.00000*
1,1,0.02292,0.03124,0.00000*
%
%ADD22ROUNDEDRECTD22*%
%ADD23R,0.04166X0.04748*%
%ADD24R,0.03150X0.03543*%
%ADD25R,0.02559X0.03543*%
%ADD26R,0.04724X0.04724*%
%ADD27R,0.13780X0.09843*%
%ADD28R,0.08540X0.02292*%
%ADD29R,0.04182X0.04188*%
D18*
X251000Y140461D02*
D03*
Y135539D02*
D03*
D19*
X276665Y181500D02*
D03*
X247335Y186500D02*
D03*
Y181500D02*
D03*
Y176500D02*
D03*
Y171500D02*
D03*
Y166500D02*
D03*
Y161500D02*
D03*
Y156500D02*
D03*
Y151500D02*
D03*
X276665Y186500D02*
D03*
Y176500D02*
D03*
Y171500D02*
D03*
Y166500D02*
D03*
Y161500D02*
D03*
Y156500D02*
D03*
Y151500D02*
D03*
D20*
X332571Y111000D02*
D03*
Y233000D02*
D03*
Y138186D02*
D03*
X332866Y165528D02*
D03*
X332571Y219407D02*
D03*
X332866Y151936D02*
D03*
X332571Y124593D02*
D03*
Y205815D02*
D03*
X332866Y179121D02*
D03*
X332571Y192222D02*
D03*
X341134Y151936D02*
D03*
Y165528D02*
D03*
Y179121D02*
D03*
X340839Y111000D02*
D03*
Y124593D02*
D03*
Y138186D02*
D03*
Y192222D02*
D03*
Y205815D02*
D03*
Y219407D02*
D03*
Y233000D02*
D03*
D21*
X223000Y251457D02*
D03*
Y258543D02*
D03*
D22*
X222305Y239500D02*
D03*
X203695Y224500D02*
D03*
Y229500D02*
D03*
Y234500D02*
D03*
X222305Y224500D02*
D03*
Y229500D02*
D03*
Y234500D02*
D03*
D23*
X135000Y194846D02*
D03*
Y201154D02*
D03*
D24*
X227461Y215000D02*
D03*
X222539D02*
D03*
X380000Y173346D02*
D03*
Y166654D02*
D03*
D25*
X236953Y167000D02*
D03*
Y157000D02*
D03*
X231047D02*
D03*
Y167000D02*
D03*
D26*
X135000Y214866D02*
D03*
Y223134D02*
D03*
D27*
X175366Y163000D02*
D03*
X149776D02*
D03*
D28*
X203695Y239500D02*
D03*
D29*
X236000Y257265D02*
D03*
Y250735D02*
D03*
M02*
