G04*
G04 #@! TF.GenerationSoftware,Altium Limited,Altium Designer,25.8.1 (18)*
G04*
G04 Layer_Color=65535*
%FSLAX25Y25*%
%MOIN*%
G70*
G04*
G04 #@! TF.SameCoordinates,388448DE-4009-46C6-BC9F-7F365E803C92*
G04*
G04*
G04 #@! TF.FilePolarity,Positive*
G04*
G01*
G75*
%ADD10C,0.02362*%
%ADD11C,0.00984*%
%ADD12C,0.00394*%
%ADD13C,0.00787*%
%ADD14C,0.01575*%
%ADD15C,0.01000*%
%ADD16C,0.01800*%
%ADD17C,0.01300*%
G36*
X224515Y145378D02*
Y145323D01*
X224958D01*
Y145267D01*
Y145212D01*
X225846D01*
Y145156D01*
Y145101D01*
X229174D01*
Y145156D01*
Y145212D01*
X233834D01*
Y145156D01*
Y145101D01*
X234722D01*
Y145045D01*
Y144990D01*
X236275D01*
Y144934D01*
Y144879D01*
X237052D01*
Y144823D01*
Y144768D01*
X237607D01*
Y144712D01*
Y144657D01*
X238161D01*
Y144602D01*
Y144546D01*
X238716D01*
Y144491D01*
Y144435D01*
X239160D01*
Y144380D01*
Y144324D01*
X239604D01*
Y144269D01*
Y144213D01*
X239936D01*
Y144158D01*
Y144102D01*
X240380D01*
Y144047D01*
Y143991D01*
X240602D01*
Y143936D01*
Y143880D01*
X240935D01*
Y143825D01*
Y143769D01*
X241157D01*
Y143714D01*
Y143658D01*
X241379D01*
Y143603D01*
Y143547D01*
X241601D01*
Y143492D01*
Y143437D01*
X241823D01*
Y143381D01*
Y143326D01*
X241934D01*
Y143270D01*
Y143215D01*
X242156D01*
Y143159D01*
Y143104D01*
X242267D01*
Y143048D01*
Y142993D01*
X242488D01*
Y142937D01*
Y142882D01*
X242599D01*
Y142826D01*
Y142771D01*
X242821D01*
Y142715D01*
Y142660D01*
X242932D01*
Y142604D01*
Y142549D01*
X243043D01*
Y142493D01*
Y142438D01*
X243154D01*
Y142383D01*
Y142327D01*
X243265D01*
Y142272D01*
Y142216D01*
X243376D01*
Y142161D01*
Y142105D01*
Y142050D01*
Y141994D01*
X243487D01*
Y141939D01*
Y141883D01*
X243598D01*
Y141828D01*
Y141772D01*
Y141717D01*
Y141661D01*
X243709D01*
Y141606D01*
Y141550D01*
Y141495D01*
Y141439D01*
X243820D01*
Y141384D01*
Y141329D01*
Y141273D01*
Y141218D01*
X243931D01*
Y141162D01*
Y141107D01*
Y141051D01*
Y140996D01*
Y140940D01*
Y140885D01*
Y140829D01*
Y140774D01*
X244042D01*
Y140718D01*
Y140663D01*
Y140607D01*
Y140552D01*
Y140496D01*
Y140441D01*
Y140385D01*
Y140330D01*
Y140275D01*
Y140219D01*
Y140164D01*
Y140108D01*
Y140053D01*
Y139997D01*
Y139942D01*
Y139886D01*
Y139831D01*
Y139775D01*
Y139720D01*
Y139664D01*
Y139609D01*
Y139553D01*
Y139498D01*
Y139442D01*
Y139387D01*
Y139331D01*
X243931D01*
Y139276D01*
Y139220D01*
Y139165D01*
Y139110D01*
Y139054D01*
Y138999D01*
Y138943D01*
Y138888D01*
Y138832D01*
Y138777D01*
X243820D01*
Y138721D01*
Y138666D01*
Y138610D01*
Y138555D01*
X243709D01*
Y138499D01*
Y138444D01*
Y138388D01*
Y138333D01*
Y138277D01*
Y138222D01*
X243598D01*
Y138166D01*
Y138111D01*
Y138056D01*
Y138000D01*
Y137944D01*
Y137889D01*
X243487D01*
Y137834D01*
Y137778D01*
Y137723D01*
Y137667D01*
X243376D01*
Y137612D01*
Y137556D01*
Y137501D01*
Y137445D01*
X243265D01*
Y137390D01*
Y137334D01*
Y137279D01*
Y137223D01*
X243154D01*
Y137168D01*
Y137112D01*
Y137057D01*
Y137002D01*
X243043D01*
Y136946D01*
Y136890D01*
Y136835D01*
Y136780D01*
X242932D01*
Y136724D01*
Y136669D01*
Y136613D01*
Y136558D01*
X242821D01*
Y136502D01*
Y136447D01*
Y136391D01*
Y136336D01*
X242710D01*
Y136280D01*
Y136225D01*
X242599D01*
Y136169D01*
Y136114D01*
Y136058D01*
Y136003D01*
X242488D01*
Y135947D01*
Y135892D01*
X242377D01*
Y135837D01*
Y135781D01*
Y135725D01*
Y135670D01*
X242267D01*
Y135615D01*
Y135559D01*
X242156D01*
Y135504D01*
Y135448D01*
X242045D01*
Y135393D01*
Y135337D01*
Y135282D01*
Y135226D01*
X241934D01*
Y135171D01*
Y135115D01*
X241823D01*
Y135060D01*
Y135004D01*
Y134949D01*
Y134893D01*
X241712D01*
Y134838D01*
Y134783D01*
X241601D01*
Y134727D01*
Y134671D01*
X241490D01*
Y134616D01*
Y134561D01*
X241379D01*
Y134505D01*
Y134450D01*
Y134394D01*
Y134339D01*
X241268D01*
Y134283D01*
Y134228D01*
X241157D01*
Y134172D01*
Y134117D01*
X241046D01*
Y134061D01*
Y134006D01*
X240935D01*
Y133950D01*
Y133895D01*
X240824D01*
Y133839D01*
Y133784D01*
X240713D01*
Y133728D01*
Y133673D01*
X240602D01*
Y133617D01*
Y133562D01*
Y133507D01*
Y133451D01*
X240491D01*
Y133396D01*
Y133340D01*
X240380D01*
Y133285D01*
Y133229D01*
X240269D01*
Y133174D01*
Y133118D01*
X240158D01*
Y133063D01*
Y133007D01*
X240048D01*
Y132952D01*
Y132896D01*
X239936D01*
Y132841D01*
Y132785D01*
X239826D01*
Y132730D01*
Y132674D01*
X239715D01*
Y132619D01*
Y132563D01*
X239604D01*
Y132508D01*
Y132452D01*
X239493D01*
Y132397D01*
Y132342D01*
X239382D01*
Y132286D01*
Y132231D01*
X239271D01*
Y132175D01*
Y132120D01*
X239160D01*
Y132064D01*
Y132009D01*
X239049D01*
Y131953D01*
Y131898D01*
Y131842D01*
Y131787D01*
X238938D01*
Y131731D01*
Y131676D01*
X238827D01*
Y131620D01*
Y131565D01*
X238716D01*
Y131509D01*
Y131454D01*
X238494D01*
Y131398D01*
Y131343D01*
X238383D01*
Y131288D01*
Y131232D01*
X238272D01*
Y131177D01*
Y131121D01*
X238161D01*
Y131066D01*
Y131010D01*
X238050D01*
Y130955D01*
Y130899D01*
X237939D01*
Y130844D01*
Y130788D01*
X237828D01*
Y130733D01*
Y130677D01*
X237718D01*
Y130622D01*
Y130566D01*
X237607D01*
Y130511D01*
Y130455D01*
X237496D01*
Y130400D01*
Y130344D01*
X237385D01*
Y130289D01*
Y130234D01*
X237274D01*
Y130178D01*
Y130123D01*
X237163D01*
Y130067D01*
Y130012D01*
X237052D01*
Y129956D01*
Y129901D01*
X236941D01*
Y129845D01*
Y129790D01*
X236830D01*
Y129734D01*
Y129679D01*
X236608D01*
Y129623D01*
Y129568D01*
X236497D01*
Y129512D01*
Y129457D01*
X236386D01*
Y129401D01*
Y129346D01*
X236275D01*
Y129290D01*
Y129235D01*
X236164D01*
Y129180D01*
Y129124D01*
X236053D01*
Y129069D01*
Y129013D01*
X235942D01*
Y128958D01*
Y128902D01*
X235831D01*
Y128847D01*
Y128791D01*
X235610D01*
Y128736D01*
Y128680D01*
X235499D01*
Y128625D01*
Y128569D01*
X235388D01*
Y128514D01*
Y128458D01*
X235277D01*
Y128403D01*
Y128347D01*
X235166D01*
Y128292D01*
Y128236D01*
X234944D01*
Y128181D01*
Y128126D01*
X234833D01*
Y128070D01*
Y128015D01*
X234722D01*
Y127959D01*
Y127904D01*
X234500D01*
Y127848D01*
Y127793D01*
X234389D01*
Y127737D01*
Y127682D01*
X234278D01*
Y127626D01*
Y127571D01*
X234167D01*
Y127515D01*
Y127460D01*
X234056D01*
Y127404D01*
Y127349D01*
X233834D01*
Y127293D01*
Y127238D01*
X233723D01*
Y127182D01*
Y127127D01*
X233612D01*
Y127071D01*
Y127016D01*
X233501D01*
Y126961D01*
Y126905D01*
X233279D01*
Y126849D01*
Y126794D01*
X233169D01*
Y126739D01*
Y126683D01*
X233058D01*
Y126628D01*
Y126572D01*
X232947D01*
Y126517D01*
Y126461D01*
X232725D01*
Y126406D01*
Y126350D01*
X232614D01*
Y126295D01*
Y126239D01*
X232392D01*
Y126184D01*
Y126128D01*
X232281D01*
Y126073D01*
Y126017D01*
X232170D01*
Y125962D01*
Y125906D01*
X232059D01*
Y125851D01*
Y125795D01*
X231837D01*
Y125740D01*
Y125684D01*
X231726D01*
Y125629D01*
Y125574D01*
X231615D01*
Y125518D01*
Y125463D01*
X231504D01*
Y125407D01*
Y125352D01*
X231282D01*
Y125296D01*
Y125241D01*
X231061D01*
Y125185D01*
Y125130D01*
X230950D01*
Y125074D01*
Y125019D01*
X230839D01*
Y124963D01*
Y124908D01*
X230728D01*
Y124852D01*
Y124797D01*
X230506D01*
Y124741D01*
Y124686D01*
X230395D01*
Y124630D01*
Y124575D01*
X230284D01*
Y124520D01*
Y124464D01*
X230062D01*
Y124409D01*
Y124353D01*
X229951D01*
Y124298D01*
Y124242D01*
X229840D01*
Y124187D01*
Y124131D01*
X229618D01*
Y124076D01*
Y124020D01*
X229507D01*
Y123965D01*
Y123909D01*
X229285D01*
Y123854D01*
Y123798D01*
X229174D01*
Y123743D01*
Y123688D01*
X229064D01*
Y123632D01*
Y123576D01*
X228842D01*
Y123521D01*
Y123466D01*
X228731D01*
Y123410D01*
Y123355D01*
X228509D01*
Y123299D01*
Y123244D01*
X228398D01*
Y123188D01*
Y123133D01*
X228176D01*
Y123077D01*
Y123022D01*
X228065D01*
Y122966D01*
Y122911D01*
X227954D01*
Y122855D01*
Y122800D01*
X227732D01*
Y122744D01*
Y122689D01*
X227621D01*
Y122633D01*
Y122578D01*
X227399D01*
Y122522D01*
Y122467D01*
X227288D01*
Y122412D01*
Y122356D01*
X227177D01*
Y122301D01*
Y122245D01*
X226955D01*
Y122190D01*
Y122134D01*
X226844D01*
Y122079D01*
Y122023D01*
X226623D01*
Y121968D01*
Y121912D01*
X226512D01*
Y121857D01*
Y121801D01*
X226290D01*
Y121746D01*
Y121690D01*
X226179D01*
Y121635D01*
Y121579D01*
X225957D01*
Y121524D01*
Y121468D01*
X225846D01*
Y121413D01*
Y121358D01*
X225624D01*
Y121302D01*
Y121247D01*
X225513D01*
Y121191D01*
Y121136D01*
X225291D01*
Y121080D01*
Y121025D01*
X225180D01*
Y120969D01*
Y120914D01*
X224958D01*
Y120858D01*
Y120803D01*
X224847D01*
Y120747D01*
Y120692D01*
X224625D01*
Y120636D01*
Y120581D01*
X224515D01*
Y120525D01*
Y120470D01*
X224293D01*
Y120414D01*
Y120359D01*
X224182D01*
Y120303D01*
Y120248D01*
X223960D01*
Y120193D01*
Y120137D01*
X223849D01*
Y120082D01*
Y120026D01*
X223627D01*
Y119971D01*
Y119915D01*
X223516D01*
Y119860D01*
Y119804D01*
X223294D01*
Y119749D01*
Y119693D01*
X223183D01*
Y119638D01*
Y119582D01*
X222961D01*
Y119527D01*
Y119471D01*
X222739D01*
Y119416D01*
Y119360D01*
X222628D01*
Y119305D01*
Y119249D01*
X222517D01*
Y119194D01*
Y119139D01*
X222295D01*
Y119083D01*
Y119027D01*
X222074D01*
Y118972D01*
Y118917D01*
X221963D01*
Y118861D01*
Y118806D01*
X221741D01*
Y118750D01*
Y118695D01*
X221519D01*
Y118639D01*
Y118584D01*
X221408D01*
Y118528D01*
Y118473D01*
X221186D01*
Y118417D01*
Y118362D01*
X221075D01*
Y118306D01*
Y118251D01*
X220853D01*
Y118195D01*
Y118140D01*
X220742D01*
Y118085D01*
Y118029D01*
X220520D01*
Y117973D01*
Y117918D01*
X220298D01*
Y117863D01*
Y117807D01*
X220187D01*
Y117752D01*
Y117696D01*
X219966D01*
Y117641D01*
Y117585D01*
X219744D01*
Y117530D01*
Y117474D01*
X219633D01*
Y117419D01*
Y117363D01*
X219411D01*
Y117308D01*
Y117252D01*
X219300D01*
Y117197D01*
Y117141D01*
X219078D01*
Y117086D01*
Y117031D01*
X218856D01*
Y116975D01*
Y116920D01*
X218745D01*
Y116864D01*
Y116809D01*
X218523D01*
Y116753D01*
Y116698D01*
X218301D01*
Y116642D01*
Y116587D01*
X218079D01*
Y116531D01*
Y116476D01*
X217969D01*
Y116420D01*
Y116365D01*
X217747D01*
Y116309D01*
Y116254D01*
X217636D01*
Y116198D01*
Y116143D01*
X217414D01*
Y116087D01*
Y116032D01*
X217192D01*
Y115976D01*
Y115921D01*
X216970D01*
Y115866D01*
Y115810D01*
X216859D01*
Y115754D01*
Y115699D01*
X216637D01*
Y115644D01*
Y115588D01*
X216415D01*
Y115533D01*
Y115477D01*
X216304D01*
Y115422D01*
Y115366D01*
X216082D01*
Y115311D01*
Y115255D01*
X215860D01*
Y115200D01*
Y115144D01*
X215638D01*
Y115089D01*
Y115033D01*
X215528D01*
Y114978D01*
Y114922D01*
X215306D01*
Y114867D01*
Y114812D01*
X215084D01*
Y114756D01*
Y114700D01*
X214973D01*
Y114645D01*
Y114590D01*
X214751D01*
Y114534D01*
Y114479D01*
X214418D01*
Y114423D01*
Y114368D01*
X214307D01*
Y114312D01*
Y114257D01*
X214085D01*
Y114201D01*
Y114146D01*
X213974D01*
Y114090D01*
Y114035D01*
X213752D01*
Y113979D01*
Y113924D01*
X213530D01*
Y113868D01*
Y113813D01*
X213309D01*
Y113757D01*
Y113702D01*
X213087D01*
Y113646D01*
Y113591D01*
X212976D01*
Y113535D01*
Y113480D01*
X212754D01*
Y113425D01*
Y113369D01*
X212532D01*
Y113314D01*
Y113258D01*
X212310D01*
Y113203D01*
Y113147D01*
X212088D01*
Y113092D01*
Y113036D01*
X211866D01*
Y112981D01*
Y112925D01*
X211644D01*
Y112870D01*
Y112814D01*
X211533D01*
Y112759D01*
Y112703D01*
X211312D01*
Y112648D01*
Y112592D01*
X211090D01*
Y112537D01*
Y112481D01*
X210868D01*
Y112426D01*
Y112371D01*
X210757D01*
Y112315D01*
Y112260D01*
X210535D01*
Y112204D01*
Y112149D01*
X210313D01*
Y112093D01*
Y112038D01*
X210091D01*
Y111982D01*
Y111927D01*
X209869D01*
Y111871D01*
Y111816D01*
X209647D01*
Y111760D01*
Y111705D01*
X209425D01*
Y111649D01*
Y111594D01*
X209203D01*
Y111538D01*
Y111483D01*
X209092D01*
Y111427D01*
Y111372D01*
X208871D01*
Y111317D01*
Y111261D01*
X208649D01*
Y111206D01*
Y111150D01*
X208427D01*
Y111095D01*
Y111039D01*
X208205D01*
Y110984D01*
Y110928D01*
X207983D01*
Y110873D01*
Y110817D01*
X207761D01*
Y110762D01*
Y110706D01*
X207539D01*
Y110651D01*
Y110595D01*
X207317D01*
Y110540D01*
Y110484D01*
X207095D01*
Y110429D01*
Y110373D01*
X206873D01*
Y110318D01*
Y110263D01*
X206651D01*
Y110207D01*
Y110152D01*
X206430D01*
Y110096D01*
Y110041D01*
X206208D01*
Y109985D01*
Y109930D01*
X205986D01*
Y109874D01*
Y109819D01*
X205764D01*
Y109763D01*
Y109708D01*
X205542D01*
Y109652D01*
Y109597D01*
X205320D01*
Y109541D01*
Y109486D01*
X205098D01*
Y109430D01*
Y109375D01*
X204876D01*
Y109319D01*
Y109264D01*
X204654D01*
Y109209D01*
Y109153D01*
X204433D01*
Y109098D01*
Y109042D01*
X204211D01*
Y108987D01*
Y108931D01*
X203989D01*
Y108876D01*
Y108820D01*
X203767D01*
Y108765D01*
Y108709D01*
X203545D01*
Y108654D01*
Y108598D01*
X203323D01*
Y108543D01*
Y108487D01*
X203101D01*
Y108432D01*
Y108376D01*
X202879D01*
Y108321D01*
Y108265D01*
X202657D01*
Y108210D01*
Y108154D01*
X202435D01*
Y108099D01*
Y108044D01*
X202214D01*
Y107988D01*
Y107932D01*
X201881D01*
Y107877D01*
Y107822D01*
X201659D01*
Y107766D01*
Y107711D01*
X201437D01*
Y107655D01*
Y107600D01*
X201215D01*
Y107544D01*
Y107489D01*
X200993D01*
Y107433D01*
Y107378D01*
X200660D01*
Y107322D01*
Y107267D01*
X200438D01*
Y107211D01*
Y107156D01*
X200106D01*
Y107100D01*
Y107045D01*
X199884D01*
Y106990D01*
Y106934D01*
X199662D01*
Y106878D01*
Y106823D01*
X199440D01*
Y106768D01*
Y106712D01*
X199107D01*
Y106657D01*
Y106601D01*
X198885D01*
Y106546D01*
Y106490D01*
X198663D01*
Y106435D01*
Y106379D01*
X198330D01*
Y106324D01*
Y106268D01*
X197997D01*
Y106213D01*
Y106157D01*
X197775D01*
Y106102D01*
Y106046D01*
X197554D01*
Y105991D01*
Y105936D01*
X197221D01*
Y105880D01*
Y105824D01*
X196888D01*
Y105769D01*
Y105714D01*
X196666D01*
Y105658D01*
Y105603D01*
X196444D01*
Y105547D01*
Y105492D01*
X196000D01*
Y105436D01*
Y105381D01*
X195668D01*
Y105325D01*
Y105270D01*
X195446D01*
Y105214D01*
Y105159D01*
X195113D01*
Y105103D01*
Y105048D01*
X194780D01*
Y105103D01*
Y105159D01*
X195002D01*
Y105214D01*
Y105270D01*
X195224D01*
Y105325D01*
Y105381D01*
X195446D01*
Y105436D01*
Y105492D01*
X195668D01*
Y105547D01*
Y105603D01*
X195889D01*
Y105658D01*
Y105714D01*
X196111D01*
Y105769D01*
Y105824D01*
X196333D01*
Y105880D01*
Y105936D01*
X196555D01*
Y105991D01*
Y106046D01*
X196777D01*
Y106102D01*
Y106157D01*
X196999D01*
Y106213D01*
Y106268D01*
X197221D01*
Y106324D01*
Y106379D01*
X197443D01*
Y106435D01*
Y106490D01*
X197665D01*
Y106546D01*
Y106601D01*
X197887D01*
Y106657D01*
Y106712D01*
X198108D01*
Y106768D01*
Y106823D01*
X198330D01*
Y106878D01*
Y106934D01*
X198552D01*
Y106990D01*
Y107045D01*
X198774D01*
Y107100D01*
Y107156D01*
X198996D01*
Y107211D01*
Y107267D01*
X199218D01*
Y107322D01*
Y107378D01*
X199440D01*
Y107433D01*
Y107489D01*
X199662D01*
Y107544D01*
Y107600D01*
X199884D01*
Y107655D01*
Y107711D01*
X200106D01*
Y107766D01*
Y107822D01*
X200327D01*
Y107877D01*
Y107932D01*
X200549D01*
Y107988D01*
Y108044D01*
X200771D01*
Y108099D01*
Y108154D01*
X200993D01*
Y108210D01*
Y108265D01*
X201215D01*
Y108321D01*
Y108376D01*
X201437D01*
Y108432D01*
Y108487D01*
X201548D01*
Y108543D01*
Y108598D01*
X201770D01*
Y108654D01*
Y108709D01*
X201992D01*
Y108765D01*
Y108820D01*
X202214D01*
Y108876D01*
Y108931D01*
X202435D01*
Y108987D01*
Y109042D01*
X202657D01*
Y109098D01*
Y109153D01*
X202879D01*
Y109209D01*
Y109264D01*
X203101D01*
Y109319D01*
Y109375D01*
X203212D01*
Y109430D01*
Y109486D01*
X203434D01*
Y109541D01*
Y109597D01*
X203656D01*
Y109652D01*
Y109708D01*
X203767D01*
Y109763D01*
Y109819D01*
X203989D01*
Y109874D01*
Y109930D01*
X204211D01*
Y109985D01*
Y110041D01*
X204433D01*
Y110096D01*
Y110152D01*
X204654D01*
Y110207D01*
Y110263D01*
X204765D01*
Y110318D01*
Y110373D01*
X204987D01*
Y110429D01*
Y110484D01*
X205209D01*
Y110540D01*
Y110595D01*
X205431D01*
Y110651D01*
Y110706D01*
X205653D01*
Y110762D01*
Y110817D01*
X205764D01*
Y110873D01*
Y110928D01*
X205986D01*
Y110984D01*
Y111039D01*
X206208D01*
Y111095D01*
Y111150D01*
X206319D01*
Y111206D01*
Y111261D01*
X206541D01*
Y111317D01*
Y111372D01*
X206763D01*
Y111427D01*
Y111483D01*
X206984D01*
Y111538D01*
Y111594D01*
X207095D01*
Y111649D01*
Y111705D01*
X207317D01*
Y111760D01*
Y111816D01*
X207539D01*
Y111871D01*
Y111927D01*
X207650D01*
Y111982D01*
Y112038D01*
X207872D01*
Y112093D01*
Y112149D01*
X208094D01*
Y112204D01*
Y112260D01*
X208205D01*
Y112315D01*
Y112371D01*
X208427D01*
Y112426D01*
Y112481D01*
X208538D01*
Y112537D01*
Y112592D01*
X208760D01*
Y112648D01*
Y112703D01*
X208981D01*
Y112759D01*
Y112814D01*
X209092D01*
Y112870D01*
Y112925D01*
X209314D01*
Y112981D01*
Y113036D01*
X209536D01*
Y113092D01*
Y113147D01*
X209758D01*
Y113203D01*
Y113258D01*
X209869D01*
Y113314D01*
Y113369D01*
X210091D01*
Y113425D01*
Y113480D01*
X210202D01*
Y113535D01*
Y113591D01*
X210424D01*
Y113646D01*
Y113702D01*
X210535D01*
Y113757D01*
Y113813D01*
X210757D01*
Y113868D01*
Y113924D01*
X210979D01*
Y113979D01*
Y114035D01*
X211090D01*
Y114090D01*
Y114146D01*
X211312D01*
Y114201D01*
Y114257D01*
X211422D01*
Y114312D01*
Y114368D01*
X211644D01*
Y114423D01*
Y114479D01*
X211866D01*
Y114534D01*
Y114590D01*
X211977D01*
Y114645D01*
Y114700D01*
X212199D01*
Y114756D01*
Y114812D01*
X212310D01*
Y114867D01*
Y114922D01*
X212532D01*
Y114978D01*
Y115033D01*
X212643D01*
Y115089D01*
Y115144D01*
X212865D01*
Y115200D01*
Y115255D01*
X212976D01*
Y115311D01*
Y115366D01*
X213198D01*
Y115422D01*
Y115477D01*
X213309D01*
Y115533D01*
Y115588D01*
X213530D01*
Y115644D01*
Y115699D01*
X213641D01*
Y115754D01*
Y115810D01*
X213863D01*
Y115866D01*
Y115921D01*
X213974D01*
Y115976D01*
Y116032D01*
X214196D01*
Y116087D01*
Y116143D01*
X214307D01*
Y116198D01*
Y116254D01*
X214529D01*
Y116309D01*
Y116365D01*
X214640D01*
Y116420D01*
Y116476D01*
X214862D01*
Y116531D01*
Y116587D01*
X214973D01*
Y116642D01*
Y116698D01*
X215084D01*
Y116753D01*
Y116809D01*
X215306D01*
Y116864D01*
Y116920D01*
X215528D01*
Y116975D01*
Y117031D01*
X215638D01*
Y117086D01*
Y117141D01*
X215860D01*
Y117197D01*
Y117252D01*
X215971D01*
Y117308D01*
Y117363D01*
X216082D01*
Y117419D01*
Y117474D01*
X216304D01*
Y117530D01*
Y117585D01*
X216415D01*
Y117641D01*
Y117696D01*
X216637D01*
Y117752D01*
Y117807D01*
X216748D01*
Y117863D01*
Y117918D01*
X216970D01*
Y117973D01*
Y118029D01*
X217081D01*
Y118085D01*
Y118140D01*
X217192D01*
Y118195D01*
Y118251D01*
X217414D01*
Y118306D01*
Y118362D01*
X217525D01*
Y118417D01*
Y118473D01*
X217636D01*
Y118528D01*
Y118584D01*
X217858D01*
Y118639D01*
Y118695D01*
X218079D01*
Y118750D01*
Y118806D01*
X218190D01*
Y118861D01*
Y118917D01*
X218301D01*
Y118972D01*
Y119027D01*
X218412D01*
Y119083D01*
Y119139D01*
X218634D01*
Y119194D01*
Y119249D01*
X218745D01*
Y119305D01*
Y119360D01*
X218856D01*
Y119416D01*
Y119471D01*
X219078D01*
Y119527D01*
Y119582D01*
X219189D01*
Y119638D01*
Y119693D01*
X219411D01*
Y119749D01*
Y119804D01*
X219522D01*
Y119860D01*
Y119915D01*
X219633D01*
Y119971D01*
Y120026D01*
X219855D01*
Y120082D01*
Y120137D01*
X219966D01*
Y120193D01*
Y120248D01*
X220076D01*
Y120303D01*
Y120359D01*
X220298D01*
Y120414D01*
Y120470D01*
X220409D01*
Y120525D01*
Y120581D01*
X220520D01*
Y120636D01*
Y120692D01*
X220742D01*
Y120747D01*
Y120803D01*
X220853D01*
Y120858D01*
Y120914D01*
X220964D01*
Y120969D01*
Y121025D01*
X221186D01*
Y121080D01*
Y121136D01*
X221297D01*
Y121191D01*
Y121247D01*
X221408D01*
Y121302D01*
Y121358D01*
X221630D01*
Y121413D01*
Y121468D01*
X221741D01*
Y121524D01*
Y121579D01*
X221852D01*
Y121635D01*
Y121690D01*
X221963D01*
Y121746D01*
Y121801D01*
X222184D01*
Y121857D01*
Y121912D01*
X222295D01*
Y121968D01*
Y122023D01*
X222407D01*
Y122079D01*
Y122134D01*
X222628D01*
Y122190D01*
Y122245D01*
X222739D01*
Y122301D01*
Y122356D01*
X222850D01*
Y122412D01*
Y122467D01*
X223072D01*
Y122522D01*
Y122578D01*
X223183D01*
Y122633D01*
Y122689D01*
X223294D01*
Y122744D01*
Y122800D01*
X223405D01*
Y122855D01*
Y122911D01*
X223516D01*
Y122966D01*
Y123022D01*
X223738D01*
Y123077D01*
Y123133D01*
X223849D01*
Y123188D01*
Y123244D01*
X223960D01*
Y123299D01*
Y123355D01*
X224071D01*
Y123410D01*
Y123466D01*
X224182D01*
Y123521D01*
Y123576D01*
X224404D01*
Y123632D01*
Y123688D01*
X224515D01*
Y123743D01*
Y123798D01*
X224736D01*
Y123854D01*
Y123909D01*
X224847D01*
Y123965D01*
Y124020D01*
X224958D01*
Y124076D01*
Y124131D01*
X225069D01*
Y124187D01*
Y124242D01*
X225180D01*
Y124298D01*
Y124353D01*
X225291D01*
Y124409D01*
Y124464D01*
X225402D01*
Y124520D01*
Y124575D01*
X225624D01*
Y124630D01*
Y124686D01*
X225735D01*
Y124741D01*
Y124797D01*
X225846D01*
Y124852D01*
Y124908D01*
X225957D01*
Y124963D01*
Y125019D01*
X226068D01*
Y125074D01*
Y125130D01*
X226179D01*
Y125185D01*
Y125241D01*
X226290D01*
Y125296D01*
Y125352D01*
X226401D01*
Y125407D01*
Y125463D01*
X226512D01*
Y125518D01*
Y125574D01*
X226733D01*
Y125629D01*
Y125684D01*
X226844D01*
Y125740D01*
Y125795D01*
X226955D01*
Y125851D01*
Y125906D01*
X227066D01*
Y125962D01*
Y126017D01*
X227177D01*
Y126073D01*
Y126128D01*
X227288D01*
Y126184D01*
Y126239D01*
X227399D01*
Y126295D01*
Y126350D01*
X227510D01*
Y126406D01*
Y126461D01*
X227732D01*
Y126517D01*
Y126572D01*
Y126628D01*
Y126683D01*
X227843D01*
Y126739D01*
Y126794D01*
X227954D01*
Y126849D01*
Y126905D01*
X228176D01*
Y126961D01*
Y127016D01*
Y127071D01*
Y127127D01*
X228287D01*
Y127182D01*
Y127238D01*
X228398D01*
Y127293D01*
Y127349D01*
X228509D01*
Y127404D01*
Y127460D01*
X228620D01*
Y127515D01*
Y127571D01*
X228731D01*
Y127626D01*
Y127682D01*
X228953D01*
Y127737D01*
Y127793D01*
Y127848D01*
Y127904D01*
X229064D01*
Y127959D01*
Y128015D01*
X229285D01*
Y128070D01*
Y128126D01*
Y128181D01*
Y128236D01*
X229396D01*
Y128292D01*
Y128347D01*
X229507D01*
Y128403D01*
Y128458D01*
X229618D01*
Y128514D01*
Y128569D01*
X229729D01*
Y128625D01*
Y128680D01*
X229840D01*
Y128736D01*
Y128791D01*
X229951D01*
Y128847D01*
Y128902D01*
X230062D01*
Y128958D01*
Y129013D01*
X230173D01*
Y129069D01*
Y129124D01*
Y129180D01*
Y129235D01*
X230284D01*
Y129290D01*
Y129346D01*
X230395D01*
Y129401D01*
Y129457D01*
X230506D01*
Y129512D01*
Y129568D01*
X230617D01*
Y129623D01*
Y129679D01*
X230728D01*
Y129734D01*
Y129790D01*
X230839D01*
Y129845D01*
Y129901D01*
X230950D01*
Y129956D01*
Y130012D01*
X231061D01*
Y130067D01*
Y130123D01*
Y130178D01*
Y130234D01*
X231171D01*
Y130289D01*
Y130344D01*
X231282D01*
Y130400D01*
Y130455D01*
X231393D01*
Y130511D01*
Y130566D01*
X231504D01*
Y130622D01*
Y130677D01*
X231615D01*
Y130733D01*
Y130788D01*
Y130844D01*
Y130899D01*
X231726D01*
Y130955D01*
Y131010D01*
X231837D01*
Y131066D01*
Y131121D01*
Y131177D01*
Y131232D01*
X231948D01*
Y131288D01*
Y131343D01*
X232059D01*
Y131398D01*
Y131454D01*
X232170D01*
Y131509D01*
Y131565D01*
X232281D01*
Y131620D01*
Y131676D01*
Y131731D01*
Y131787D01*
X232392D01*
Y131842D01*
Y131898D01*
X232503D01*
Y131953D01*
Y132009D01*
Y132064D01*
Y132120D01*
X232614D01*
Y132175D01*
Y132231D01*
X232725D01*
Y132286D01*
Y132342D01*
X232836D01*
Y132397D01*
Y132452D01*
Y132508D01*
Y132563D01*
X232947D01*
Y132619D01*
Y132674D01*
Y132730D01*
Y132785D01*
X233058D01*
Y132841D01*
Y132896D01*
X233169D01*
Y132952D01*
Y133007D01*
Y133063D01*
Y133118D01*
X233279D01*
Y133174D01*
Y133229D01*
Y133285D01*
Y133340D01*
X233390D01*
Y133396D01*
Y133451D01*
Y133507D01*
Y133562D01*
X233501D01*
Y133617D01*
Y133673D01*
Y133728D01*
Y133784D01*
X233612D01*
Y133839D01*
Y133895D01*
Y133950D01*
Y134006D01*
X233723D01*
Y134061D01*
Y134117D01*
Y134172D01*
Y134228D01*
X233834D01*
Y134283D01*
Y134339D01*
Y134394D01*
Y134450D01*
X233945D01*
Y134505D01*
Y134561D01*
Y134616D01*
Y134671D01*
X234056D01*
Y134727D01*
Y134783D01*
Y134838D01*
Y134893D01*
Y134949D01*
Y135004D01*
X234167D01*
Y135060D01*
Y135115D01*
Y135171D01*
Y135226D01*
X234278D01*
Y135282D01*
Y135337D01*
Y135393D01*
Y135448D01*
Y135504D01*
Y135559D01*
Y135615D01*
Y135670D01*
X234389D01*
Y135725D01*
Y135781D01*
Y135837D01*
Y135892D01*
Y135947D01*
Y136003D01*
Y136058D01*
Y136114D01*
Y136169D01*
Y136225D01*
X234500D01*
Y136280D01*
Y136336D01*
Y136391D01*
Y136447D01*
Y136502D01*
Y136558D01*
Y136613D01*
Y136669D01*
Y136724D01*
Y136780D01*
Y136835D01*
Y136890D01*
Y136946D01*
Y137002D01*
Y137057D01*
Y137112D01*
Y137168D01*
Y137223D01*
Y137279D01*
Y137334D01*
Y137390D01*
Y137445D01*
Y137501D01*
Y137556D01*
Y137612D01*
Y137667D01*
Y137723D01*
Y137778D01*
Y137834D01*
Y137889D01*
Y137944D01*
Y138000D01*
X234389D01*
Y138056D01*
Y138111D01*
Y138166D01*
Y138222D01*
Y138277D01*
Y138333D01*
Y138388D01*
Y138444D01*
Y138499D01*
Y138555D01*
X234278D01*
Y138610D01*
Y138666D01*
Y138721D01*
Y138777D01*
X234167D01*
Y138832D01*
Y138888D01*
Y138943D01*
Y138999D01*
X234056D01*
Y139054D01*
Y139110D01*
Y139165D01*
Y139220D01*
X233945D01*
Y139276D01*
Y139331D01*
Y139387D01*
Y139442D01*
X233834D01*
Y139498D01*
Y139553D01*
X233723D01*
Y139609D01*
Y139664D01*
Y139720D01*
Y139775D01*
X233612D01*
Y139831D01*
Y139886D01*
X233501D01*
Y139942D01*
Y139997D01*
X233390D01*
Y140053D01*
Y140108D01*
X233279D01*
Y140164D01*
Y140219D01*
X233169D01*
Y140275D01*
Y140330D01*
X232947D01*
Y140385D01*
Y140441D01*
X232836D01*
Y140496D01*
Y140552D01*
X232725D01*
Y140607D01*
Y140663D01*
X232614D01*
Y140718D01*
Y140774D01*
X232392D01*
Y140829D01*
Y140885D01*
X232170D01*
Y140940D01*
Y140996D01*
X231948D01*
Y141051D01*
Y141107D01*
X231837D01*
Y141162D01*
Y141218D01*
X231504D01*
Y141273D01*
Y141329D01*
X231282D01*
Y141384D01*
Y141439D01*
X231061D01*
Y141495D01*
Y141550D01*
X230728D01*
Y141606D01*
Y141661D01*
X230506D01*
Y141717D01*
Y141772D01*
X230173D01*
Y141828D01*
Y141883D01*
X229729D01*
Y141939D01*
Y141994D01*
X229285D01*
Y142050D01*
Y142105D01*
X228953D01*
Y142161D01*
Y142216D01*
X228509D01*
Y142272D01*
Y142327D01*
X227732D01*
Y142383D01*
Y142438D01*
X227288D01*
Y142493D01*
Y142549D01*
X226290D01*
Y142604D01*
Y142660D01*
X225624D01*
Y142715D01*
Y142771D01*
X224958D01*
Y142826D01*
Y142882D01*
X224625D01*
Y142937D01*
Y142993D01*
X221630D01*
Y142937D01*
Y142882D01*
X221186D01*
Y142826D01*
Y142771D01*
X220631D01*
Y142715D01*
Y142660D01*
X220187D01*
Y142604D01*
Y142549D01*
X219744D01*
Y142493D01*
Y142438D01*
X219411D01*
Y142383D01*
Y142327D01*
X218967D01*
Y142272D01*
Y142216D01*
X218523D01*
Y142161D01*
Y142105D01*
X218301D01*
Y142050D01*
Y141994D01*
X217858D01*
Y141939D01*
Y141883D01*
X217414D01*
Y141828D01*
Y141772D01*
X217192D01*
Y141717D01*
Y141661D01*
Y141606D01*
Y141550D01*
X217414D01*
Y141495D01*
Y141439D01*
X217525D01*
Y141384D01*
Y141329D01*
X217636D01*
Y141273D01*
Y141218D01*
X217747D01*
Y141162D01*
Y141107D01*
X217858D01*
Y141051D01*
Y140996D01*
X217969D01*
Y140940D01*
Y140885D01*
X218079D01*
Y140829D01*
Y140774D01*
Y140718D01*
Y140663D01*
X218190D01*
Y140607D01*
Y140552D01*
X218301D01*
Y140496D01*
Y140441D01*
Y140385D01*
Y140330D01*
X218412D01*
Y140275D01*
Y140219D01*
X218523D01*
Y140164D01*
Y140108D01*
Y140053D01*
Y139997D01*
X218634D01*
Y139942D01*
Y139886D01*
Y139831D01*
Y139775D01*
Y139720D01*
Y139664D01*
Y139609D01*
Y139553D01*
X218745D01*
Y139498D01*
Y139442D01*
Y139387D01*
Y139331D01*
Y139276D01*
Y139220D01*
Y139165D01*
Y139110D01*
Y139054D01*
Y138999D01*
Y138943D01*
Y138888D01*
Y138832D01*
Y138777D01*
Y138721D01*
Y138666D01*
Y138610D01*
Y138555D01*
Y138499D01*
Y138444D01*
Y138388D01*
Y138333D01*
Y138277D01*
Y138222D01*
Y138166D01*
Y138111D01*
Y138056D01*
Y138000D01*
X218634D01*
Y137944D01*
Y137889D01*
Y137834D01*
Y137778D01*
Y137723D01*
Y137667D01*
Y137612D01*
Y137556D01*
X218523D01*
Y137501D01*
Y137445D01*
Y137390D01*
Y137334D01*
Y137279D01*
Y137223D01*
X218412D01*
Y137168D01*
Y137112D01*
Y137057D01*
Y137002D01*
X218301D01*
Y136946D01*
Y136890D01*
Y136835D01*
Y136780D01*
X218190D01*
Y136724D01*
Y136669D01*
Y136613D01*
Y136558D01*
X218079D01*
Y136502D01*
Y136447D01*
X217969D01*
Y136391D01*
Y136336D01*
Y136280D01*
Y136225D01*
X217858D01*
Y136169D01*
Y136114D01*
X217747D01*
Y136058D01*
Y136003D01*
Y135947D01*
Y135892D01*
X217636D01*
Y135837D01*
Y135781D01*
X217525D01*
Y135725D01*
Y135670D01*
X217414D01*
Y135615D01*
Y135559D01*
X217303D01*
Y135504D01*
Y135448D01*
X217081D01*
Y135393D01*
Y135337D01*
X216970D01*
Y135282D01*
Y135226D01*
X216748D01*
Y135171D01*
Y135115D01*
X216637D01*
Y135060D01*
Y135004D01*
X216526D01*
Y134949D01*
Y134893D01*
X216304D01*
Y134838D01*
Y134783D01*
X216082D01*
Y134727D01*
Y134671D01*
X215749D01*
Y134616D01*
Y134561D01*
X215417D01*
Y134505D01*
Y134450D01*
X215084D01*
Y134505D01*
Y134561D01*
Y134616D01*
Y134671D01*
Y134727D01*
Y134783D01*
Y134838D01*
Y134893D01*
X215195D01*
Y134949D01*
Y135004D01*
Y135060D01*
Y135115D01*
Y135171D01*
Y135226D01*
Y135282D01*
Y135337D01*
Y135393D01*
Y135448D01*
Y135504D01*
Y135559D01*
Y135615D01*
Y135670D01*
Y135725D01*
Y135781D01*
Y135837D01*
Y135892D01*
Y135947D01*
Y136003D01*
Y136058D01*
Y136114D01*
Y136169D01*
Y136225D01*
Y136280D01*
Y136336D01*
Y136391D01*
Y136447D01*
X215084D01*
Y136502D01*
Y136558D01*
Y136613D01*
Y136669D01*
Y136724D01*
Y136780D01*
X214973D01*
Y136835D01*
Y136890D01*
Y136946D01*
Y137002D01*
X214862D01*
Y137057D01*
Y137112D01*
Y137168D01*
Y137223D01*
X214751D01*
Y137279D01*
Y137334D01*
Y137390D01*
Y137445D01*
X214640D01*
Y137501D01*
Y137556D01*
X214529D01*
Y137612D01*
Y137667D01*
X214418D01*
Y137723D01*
Y137778D01*
X214307D01*
Y137834D01*
Y137889D01*
X214085D01*
Y137944D01*
Y138000D01*
X213863D01*
Y138056D01*
Y138111D01*
X213752D01*
Y138166D01*
Y138222D01*
X213530D01*
Y138277D01*
Y138333D01*
X213309D01*
Y138388D01*
Y138444D01*
X213087D01*
Y138499D01*
Y138555D01*
X212865D01*
Y138610D01*
Y138666D01*
X212643D01*
Y138721D01*
Y138777D01*
X212310D01*
Y138832D01*
Y138888D01*
X212088D01*
Y138943D01*
Y138999D01*
X211866D01*
Y139054D01*
Y139110D01*
X211533D01*
Y139165D01*
Y139220D01*
X211422D01*
Y139276D01*
Y139331D01*
X211644D01*
Y139387D01*
Y139442D01*
X211866D01*
Y139498D01*
Y139553D01*
X212532D01*
Y139609D01*
Y139664D01*
X212865D01*
Y139609D01*
Y139553D01*
X213530D01*
Y139498D01*
Y139442D01*
X213863D01*
Y139387D01*
Y139331D01*
X213974D01*
Y139276D01*
Y139220D01*
X214196D01*
Y139165D01*
Y139110D01*
X214418D01*
Y139054D01*
Y138999D01*
X214529D01*
Y138943D01*
Y138888D01*
X214640D01*
Y138832D01*
Y138777D01*
X214751D01*
Y138721D01*
Y138666D01*
X214862D01*
Y138610D01*
Y138555D01*
X214973D01*
Y138499D01*
Y138444D01*
X215084D01*
Y138388D01*
Y138333D01*
X215195D01*
Y138277D01*
Y138222D01*
Y138166D01*
Y138111D01*
X215306D01*
Y138056D01*
Y138000D01*
X215417D01*
Y137944D01*
Y137889D01*
Y137834D01*
Y137778D01*
X215528D01*
Y137723D01*
Y137667D01*
Y137612D01*
Y137556D01*
X215638D01*
Y137501D01*
Y137445D01*
Y137390D01*
Y137334D01*
X215749D01*
Y137279D01*
Y137223D01*
Y137168D01*
Y137112D01*
X215860D01*
Y137057D01*
Y137002D01*
Y136946D01*
Y136890D01*
X215971D01*
Y136835D01*
Y136780D01*
X216193D01*
Y136835D01*
Y136890D01*
X216304D01*
Y136946D01*
Y137002D01*
X216415D01*
Y137057D01*
Y137112D01*
X216526D01*
Y137168D01*
Y137223D01*
Y137279D01*
Y137334D01*
X216637D01*
Y137390D01*
Y137445D01*
X216748D01*
Y137501D01*
Y137556D01*
Y137612D01*
Y137667D01*
X216859D01*
Y137723D01*
Y137778D01*
Y137834D01*
Y137889D01*
X216970D01*
Y137944D01*
Y138000D01*
Y138056D01*
Y138111D01*
Y138166D01*
Y138222D01*
Y138277D01*
Y138333D01*
X217081D01*
Y138388D01*
Y138444D01*
Y138499D01*
Y138555D01*
Y138610D01*
Y138666D01*
Y138721D01*
Y138777D01*
Y138832D01*
Y138888D01*
Y138943D01*
Y138999D01*
Y139054D01*
Y139110D01*
Y139165D01*
Y139220D01*
X216970D01*
Y139276D01*
Y139331D01*
Y139387D01*
Y139442D01*
Y139498D01*
Y139553D01*
X216859D01*
Y139609D01*
Y139664D01*
Y139720D01*
Y139775D01*
X216748D01*
Y139831D01*
Y139886D01*
Y139942D01*
Y139997D01*
X216637D01*
Y140053D01*
Y140108D01*
Y140164D01*
Y140219D01*
X216526D01*
Y140275D01*
Y140330D01*
X216415D01*
Y140385D01*
Y140441D01*
X216304D01*
Y140496D01*
Y140552D01*
X216193D01*
Y140607D01*
Y140663D01*
X216082D01*
Y140718D01*
Y140774D01*
X215971D01*
Y140829D01*
Y140885D01*
X215749D01*
Y140940D01*
Y140996D01*
X215528D01*
Y141051D01*
Y141107D01*
X215306D01*
Y141162D01*
Y141218D01*
X214751D01*
Y141273D01*
Y141329D01*
X214196D01*
Y141273D01*
Y141218D01*
X211200D01*
Y141273D01*
Y141329D01*
X210868D01*
Y141384D01*
Y141439D01*
X210313D01*
Y141495D01*
Y141550D01*
X209758D01*
Y141606D01*
Y141661D01*
X209425D01*
Y141717D01*
Y141772D01*
X208981D01*
Y141828D01*
Y141883D01*
X208427D01*
Y141939D01*
Y141994D01*
X207761D01*
Y142050D01*
Y142105D01*
X207206D01*
Y142161D01*
Y142216D01*
X205209D01*
Y142161D01*
Y142105D01*
X204654D01*
Y142050D01*
Y141994D01*
X204211D01*
Y141939D01*
Y141883D01*
X203767D01*
Y141828D01*
Y141772D01*
X203545D01*
Y141717D01*
Y141661D01*
X203212D01*
Y141606D01*
Y141550D01*
X202990D01*
Y141495D01*
Y141439D01*
X202768D01*
Y141384D01*
Y141329D01*
X202546D01*
Y141273D01*
Y141218D01*
X202435D01*
Y141162D01*
Y141107D01*
X202214D01*
Y141051D01*
Y140996D01*
X202103D01*
Y140940D01*
Y140885D01*
X201881D01*
Y140829D01*
Y140774D01*
X201659D01*
Y140718D01*
Y140663D01*
X201437D01*
Y140607D01*
Y140552D01*
X201215D01*
Y140496D01*
Y140441D01*
X201104D01*
Y140385D01*
Y140330D01*
X200771D01*
Y140275D01*
Y140219D01*
X200549D01*
Y140164D01*
Y140108D01*
X200216D01*
Y140053D01*
Y139997D01*
X199995D01*
Y139942D01*
Y139886D01*
X199662D01*
Y139831D01*
Y139775D01*
X199440D01*
Y139720D01*
Y139664D01*
X199107D01*
Y139609D01*
Y139553D01*
X198774D01*
Y139498D01*
Y139442D01*
X198330D01*
Y139387D01*
Y139331D01*
X198108D01*
Y139276D01*
Y139220D01*
X197665D01*
Y139165D01*
Y139110D01*
X197221D01*
Y139054D01*
Y138999D01*
X196888D01*
Y138943D01*
Y138888D01*
X196444D01*
Y138832D01*
Y138777D01*
X196000D01*
Y138721D01*
Y138666D01*
X195556D01*
Y138610D01*
Y138555D01*
X195224D01*
Y138499D01*
Y138444D01*
X194891D01*
Y138388D01*
Y138333D01*
X194336D01*
Y138277D01*
Y138222D01*
X194114D01*
Y138166D01*
Y138111D01*
X193781D01*
Y138056D01*
Y138000D01*
X193338D01*
Y137944D01*
Y137889D01*
X192894D01*
Y137834D01*
Y137778D01*
X192672D01*
Y137723D01*
Y137667D01*
X192228D01*
Y137612D01*
Y137556D01*
X191895D01*
Y137501D01*
Y137445D01*
X191451D01*
Y137390D01*
Y137334D01*
X191119D01*
Y137279D01*
Y137223D01*
Y137168D01*
Y137112D01*
X191340D01*
Y137057D01*
Y137002D01*
X191451D01*
Y136946D01*
Y136890D01*
X191673D01*
Y136835D01*
Y136780D01*
X191784D01*
Y136724D01*
Y136669D01*
X192006D01*
Y136613D01*
Y136558D01*
X192117D01*
Y136502D01*
Y136447D01*
X192339D01*
Y136391D01*
X192394D01*
Y136336D01*
X192006D01*
Y136391D01*
Y136447D01*
X188678D01*
Y136391D01*
Y136336D01*
X187901D01*
Y136280D01*
Y136225D01*
X187568D01*
Y136169D01*
Y136114D01*
X187124D01*
Y136058D01*
Y136003D01*
X186792D01*
Y135947D01*
Y135892D01*
X186459D01*
Y135837D01*
Y135781D01*
X186237D01*
Y135725D01*
Y135670D01*
X186015D01*
Y135615D01*
Y135559D01*
X185793D01*
Y135504D01*
Y135448D01*
X185682D01*
Y135393D01*
Y135337D01*
X185460D01*
Y135282D01*
Y135226D01*
X185349D01*
Y135171D01*
Y135115D01*
Y135060D01*
Y135004D01*
Y134949D01*
Y134893D01*
X186792D01*
Y134838D01*
Y134783D01*
X187124D01*
Y134727D01*
Y134671D01*
X187235D01*
Y134616D01*
Y134561D01*
X187346D01*
Y134505D01*
Y134450D01*
X187457D01*
Y134394D01*
Y134339D01*
Y134283D01*
Y134228D01*
X187568D01*
Y134172D01*
Y134117D01*
Y134061D01*
Y134006D01*
Y133950D01*
Y133895D01*
Y133839D01*
Y133784D01*
Y133728D01*
Y133673D01*
Y133617D01*
Y133562D01*
Y133507D01*
Y133451D01*
Y133396D01*
Y133340D01*
Y133285D01*
Y133229D01*
X187457D01*
Y133174D01*
Y133118D01*
Y133063D01*
Y133007D01*
Y132952D01*
Y132896D01*
Y132841D01*
Y132785D01*
X187346D01*
Y132730D01*
Y132674D01*
Y132619D01*
Y132563D01*
Y132508D01*
Y132452D01*
X187235D01*
Y132397D01*
Y132342D01*
Y132286D01*
Y132231D01*
X187124D01*
Y132175D01*
Y132120D01*
Y132064D01*
Y132009D01*
X187013D01*
Y131953D01*
Y131898D01*
X186902D01*
Y131842D01*
Y131787D01*
Y131731D01*
Y131676D01*
X186792D01*
Y131620D01*
Y131565D01*
X186680D01*
Y131509D01*
Y131454D01*
Y131398D01*
Y131343D01*
X186570D01*
Y131288D01*
Y131232D01*
X186459D01*
Y131177D01*
Y131121D01*
X186237D01*
Y131066D01*
Y131010D01*
X186015D01*
Y130955D01*
Y130899D01*
X185682D01*
Y130955D01*
Y131010D01*
X185571D01*
Y131066D01*
Y131121D01*
X185460D01*
Y131177D01*
Y131232D01*
X185349D01*
Y131288D01*
Y131343D01*
Y131398D01*
Y131454D01*
Y131509D01*
Y131565D01*
Y131620D01*
Y131676D01*
Y131731D01*
Y131787D01*
X185571D01*
Y131842D01*
Y131898D01*
X185682D01*
Y131953D01*
Y132009D01*
X185793D01*
Y132064D01*
Y132120D01*
Y132175D01*
Y132231D01*
X185682D01*
Y132286D01*
Y132342D01*
X185460D01*
Y132397D01*
Y132452D01*
X184905D01*
Y132397D01*
Y132342D01*
X184683D01*
Y132286D01*
Y132231D01*
X184462D01*
Y132175D01*
Y132120D01*
X184351D01*
Y132064D01*
Y132009D01*
X184240D01*
Y131953D01*
Y131898D01*
Y131842D01*
Y131787D01*
X184129D01*
Y131731D01*
Y131676D01*
Y131620D01*
Y131565D01*
Y131509D01*
Y131454D01*
Y131398D01*
Y131343D01*
Y131288D01*
Y131232D01*
Y131177D01*
Y131121D01*
X184240D01*
Y131066D01*
Y131010D01*
Y130955D01*
Y130899D01*
X184351D01*
Y130844D01*
Y130788D01*
X184462D01*
Y130733D01*
Y130677D01*
X184573D01*
Y130622D01*
Y130566D01*
X184683D01*
Y130511D01*
Y130455D01*
X184794D01*
Y130400D01*
Y130344D01*
X185016D01*
Y130289D01*
Y130234D01*
X185460D01*
Y130178D01*
Y130123D01*
X186237D01*
Y130178D01*
Y130234D01*
X187013D01*
Y130289D01*
Y130344D01*
X187457D01*
Y130400D01*
Y130455D01*
X188123D01*
Y130511D01*
Y130566D01*
X188789D01*
Y130622D01*
Y130677D01*
X189343D01*
Y130733D01*
Y130788D01*
X190009D01*
Y130844D01*
Y130899D01*
X191119D01*
Y130955D01*
Y131010D01*
X192561D01*
Y130955D01*
Y130899D01*
X193448D01*
Y130844D01*
Y130788D01*
X193892D01*
Y130733D01*
Y130677D01*
X194225D01*
Y130622D01*
Y130566D01*
X194447D01*
Y130511D01*
Y130455D01*
X194669D01*
Y130400D01*
Y130344D01*
X194891D01*
Y130289D01*
Y130234D01*
X195113D01*
Y130178D01*
Y130123D01*
X195335D01*
Y130067D01*
Y130012D01*
X195556D01*
Y129956D01*
Y129901D01*
X195668D01*
Y129845D01*
Y129790D01*
X195889D01*
Y129734D01*
Y129679D01*
Y129623D01*
Y129568D01*
X196111D01*
Y129512D01*
Y129457D01*
X196222D01*
Y129401D01*
Y129346D01*
X196333D01*
Y129290D01*
Y129235D01*
X196444D01*
Y129180D01*
Y129124D01*
X196555D01*
Y129069D01*
Y129013D01*
X196666D01*
Y128958D01*
Y128902D01*
X196777D01*
Y128847D01*
Y128791D01*
X196888D01*
Y128736D01*
Y128680D01*
X196999D01*
Y128625D01*
Y128569D01*
Y128514D01*
Y128458D01*
X197110D01*
Y128403D01*
Y128347D01*
X197221D01*
Y128292D01*
Y128236D01*
X197332D01*
Y128181D01*
Y128126D01*
Y128070D01*
Y128015D01*
X197443D01*
Y127959D01*
Y127904D01*
X197554D01*
Y127848D01*
Y127793D01*
Y127737D01*
Y127682D01*
X197665D01*
Y127626D01*
Y127571D01*
X197775D01*
Y127515D01*
Y127460D01*
Y127404D01*
Y127349D01*
X197887D01*
Y127293D01*
Y127238D01*
Y127182D01*
Y127127D01*
X197997D01*
Y127071D01*
Y127016D01*
X198108D01*
Y126961D01*
Y126905D01*
X198219D01*
Y126849D01*
Y126794D01*
Y126739D01*
Y126683D01*
X198330D01*
Y126628D01*
Y126572D01*
Y126517D01*
Y126461D01*
X198441D01*
Y126406D01*
Y126350D01*
Y126295D01*
Y126239D01*
X198552D01*
Y126184D01*
Y126128D01*
Y126073D01*
Y126017D01*
X198663D01*
Y125962D01*
Y125906D01*
Y125851D01*
Y125795D01*
X198774D01*
Y125740D01*
Y125684D01*
X198885D01*
Y125629D01*
Y125574D01*
Y125518D01*
Y125463D01*
X198996D01*
Y125407D01*
Y125352D01*
Y125296D01*
Y125241D01*
X199107D01*
Y125185D01*
Y125130D01*
Y125074D01*
Y125019D01*
Y124963D01*
Y124908D01*
X199218D01*
Y124852D01*
Y124797D01*
X199329D01*
Y124741D01*
Y124686D01*
Y124630D01*
Y124575D01*
Y124520D01*
Y124464D01*
X199440D01*
Y124409D01*
Y124353D01*
Y124298D01*
Y124242D01*
X199551D01*
Y124187D01*
Y124131D01*
Y124076D01*
Y124020D01*
Y123965D01*
Y123909D01*
X199662D01*
Y123854D01*
Y123798D01*
Y123743D01*
Y123688D01*
X199773D01*
Y123632D01*
Y123576D01*
Y123521D01*
Y123466D01*
Y123410D01*
Y123355D01*
Y123299D01*
Y123244D01*
X199884D01*
Y123188D01*
Y123133D01*
Y123077D01*
Y123022D01*
Y122966D01*
Y122911D01*
X199995D01*
Y122855D01*
Y122800D01*
Y122744D01*
Y122689D01*
Y122633D01*
Y122578D01*
X200106D01*
Y122522D01*
Y122467D01*
Y122412D01*
Y122356D01*
Y122301D01*
Y122245D01*
Y122190D01*
Y122134D01*
X200216D01*
Y122079D01*
Y122023D01*
Y121968D01*
Y121912D01*
Y121857D01*
Y121801D01*
Y121746D01*
Y121690D01*
Y121635D01*
Y121579D01*
Y121524D01*
Y121468D01*
X200327D01*
Y121413D01*
Y121358D01*
Y121302D01*
Y121247D01*
Y121191D01*
Y121136D01*
Y121080D01*
Y121025D01*
Y120969D01*
Y120914D01*
Y120858D01*
Y120803D01*
Y120747D01*
Y120692D01*
Y120636D01*
Y120581D01*
Y120525D01*
Y120470D01*
Y120414D01*
Y120359D01*
Y120303D01*
Y120248D01*
Y120193D01*
Y120137D01*
Y120082D01*
Y120026D01*
Y119971D01*
Y119915D01*
Y119860D01*
Y119804D01*
Y119749D01*
Y119693D01*
Y119638D01*
Y119582D01*
Y119527D01*
Y119471D01*
Y119416D01*
Y119360D01*
Y119305D01*
Y119249D01*
Y119194D01*
Y119139D01*
Y119083D01*
Y119027D01*
X200216D01*
Y118972D01*
Y118917D01*
Y118861D01*
Y118806D01*
Y118750D01*
Y118695D01*
Y118639D01*
Y118584D01*
Y118528D01*
Y118473D01*
X200106D01*
Y118417D01*
Y118362D01*
Y118306D01*
Y118251D01*
Y118195D01*
Y118140D01*
X199995D01*
Y118085D01*
Y118029D01*
Y117973D01*
Y117918D01*
Y117863D01*
Y117807D01*
X199884D01*
Y117752D01*
Y117696D01*
Y117641D01*
Y117585D01*
Y117530D01*
Y117474D01*
X199773D01*
Y117419D01*
Y117363D01*
Y117308D01*
Y117252D01*
X199662D01*
Y117197D01*
Y117141D01*
Y117086D01*
Y117031D01*
X199551D01*
Y116975D01*
Y116920D01*
Y116864D01*
Y116809D01*
X199440D01*
Y116753D01*
Y116698D01*
X199329D01*
Y116642D01*
Y116587D01*
Y116531D01*
Y116476D01*
X199218D01*
Y116420D01*
Y116365D01*
X199107D01*
Y116309D01*
Y116254D01*
X198996D01*
Y116198D01*
Y116143D01*
Y116087D01*
Y116032D01*
X198885D01*
Y115976D01*
Y115921D01*
X198774D01*
Y115866D01*
Y115810D01*
X198663D01*
Y115754D01*
Y115699D01*
X198552D01*
Y115644D01*
Y115588D01*
X198441D01*
Y115533D01*
Y115477D01*
Y115422D01*
Y115366D01*
X198219D01*
Y115311D01*
Y115255D01*
X198108D01*
Y115200D01*
Y115144D01*
X197997D01*
Y115089D01*
Y115033D01*
X197887D01*
Y114978D01*
Y114922D01*
X197775D01*
Y114867D01*
Y114812D01*
X197554D01*
Y114756D01*
Y114700D01*
X197443D01*
Y114645D01*
Y114590D01*
X197332D01*
Y114534D01*
Y114479D01*
X197110D01*
Y114423D01*
Y114368D01*
X196999D01*
Y114312D01*
Y114257D01*
X196777D01*
Y114201D01*
Y114146D01*
X196666D01*
Y114090D01*
Y114035D01*
X196333D01*
Y113979D01*
Y113924D01*
X196222D01*
Y113868D01*
Y113813D01*
X196000D01*
Y113757D01*
Y113702D01*
X195778D01*
Y113646D01*
Y113591D01*
X195556D01*
Y113535D01*
Y113480D01*
X195335D01*
Y113425D01*
Y113369D01*
X195002D01*
Y113314D01*
Y113258D01*
X194669D01*
Y113203D01*
Y113147D01*
X194336D01*
Y113092D01*
Y113036D01*
X193892D01*
Y112981D01*
Y112925D01*
X193338D01*
Y112870D01*
Y112814D01*
Y112759D01*
Y112703D01*
X193448D01*
Y112648D01*
Y112592D01*
X194003D01*
Y112537D01*
Y112481D01*
X195224D01*
Y112537D01*
Y112592D01*
X195668D01*
Y112648D01*
Y112703D01*
X195889D01*
Y112759D01*
Y112814D01*
X196111D01*
Y112870D01*
Y112925D01*
X196333D01*
Y112981D01*
Y113036D01*
X196555D01*
Y113092D01*
Y113147D01*
X196666D01*
Y113203D01*
Y113258D01*
X196999D01*
Y113314D01*
Y113369D01*
X197110D01*
Y113425D01*
Y113480D01*
X197332D01*
Y113535D01*
Y113591D01*
X197443D01*
Y113646D01*
Y113702D01*
X197665D01*
Y113757D01*
Y113813D01*
X197887D01*
Y113868D01*
Y113924D01*
X197997D01*
Y113979D01*
Y114035D01*
X198219D01*
Y114090D01*
Y114146D01*
X198330D01*
Y114201D01*
Y114257D01*
X198441D01*
Y114312D01*
Y114368D01*
X198663D01*
Y114423D01*
Y114479D01*
X198774D01*
Y114534D01*
Y114590D01*
X198996D01*
Y114645D01*
Y114700D01*
X199107D01*
Y114756D01*
Y114812D01*
X199329D01*
Y114867D01*
Y114922D01*
X199440D01*
Y114978D01*
Y115033D01*
X199551D01*
Y115089D01*
Y115144D01*
X199662D01*
Y115200D01*
Y115255D01*
X199884D01*
Y115311D01*
Y115366D01*
X199995D01*
Y115422D01*
Y115477D01*
X200106D01*
Y115533D01*
Y115588D01*
X200216D01*
Y115644D01*
Y115699D01*
X200327D01*
Y115754D01*
Y115810D01*
X200549D01*
Y115866D01*
Y115921D01*
X200660D01*
Y115976D01*
Y116032D01*
X200771D01*
Y116087D01*
Y116143D01*
X200882D01*
Y116198D01*
Y116254D01*
X201104D01*
Y116309D01*
Y116365D01*
X201215D01*
Y116420D01*
Y116476D01*
Y116531D01*
Y116587D01*
X201437D01*
Y116642D01*
Y116698D01*
X201548D01*
Y116753D01*
Y116809D01*
X201659D01*
Y116864D01*
Y116920D01*
X201770D01*
Y116975D01*
Y117031D01*
X201992D01*
Y117086D01*
Y117141D01*
X202103D01*
Y117197D01*
Y117252D01*
X202214D01*
Y117308D01*
Y117363D01*
X202325D01*
Y117419D01*
Y117474D01*
X202435D01*
Y117530D01*
Y117585D01*
X202546D01*
Y117641D01*
Y117696D01*
X202768D01*
Y117752D01*
Y117807D01*
X202879D01*
Y117863D01*
Y117918D01*
X202990D01*
Y117973D01*
Y118029D01*
X203101D01*
Y118085D01*
Y118140D01*
X203212D01*
Y118195D01*
Y118251D01*
X203323D01*
Y118306D01*
Y118362D01*
X203545D01*
Y118417D01*
Y118473D01*
X203656D01*
Y118528D01*
Y118584D01*
X203767D01*
Y118639D01*
Y118695D01*
X203989D01*
Y118750D01*
Y118806D01*
X204100D01*
Y118861D01*
Y118917D01*
X204211D01*
Y118972D01*
Y119027D01*
X204322D01*
Y119083D01*
Y119139D01*
X204433D01*
Y119194D01*
Y119249D01*
X204654D01*
Y119305D01*
Y119360D01*
X204765D01*
Y119416D01*
Y119471D01*
X204876D01*
Y119527D01*
Y119582D01*
X204987D01*
Y119638D01*
Y119693D01*
X205098D01*
Y119749D01*
Y119804D01*
X205320D01*
Y119860D01*
Y119915D01*
X205431D01*
Y119971D01*
Y120026D01*
X205542D01*
Y120082D01*
Y120137D01*
X205764D01*
Y120193D01*
Y120248D01*
X205875D01*
Y120303D01*
Y120359D01*
X205986D01*
Y120414D01*
Y120470D01*
X206097D01*
Y120525D01*
Y120581D01*
X206208D01*
Y120636D01*
Y120692D01*
X206430D01*
Y120747D01*
Y120803D01*
X206541D01*
Y120858D01*
Y120914D01*
X206651D01*
Y120969D01*
Y121025D01*
X206763D01*
Y121080D01*
Y121136D01*
X206873D01*
Y121191D01*
Y121247D01*
X207095D01*
Y121302D01*
Y121358D01*
X207206D01*
Y121413D01*
Y121468D01*
X207317D01*
Y121524D01*
Y121579D01*
X207428D01*
Y121635D01*
Y121690D01*
X207539D01*
Y121746D01*
Y121801D01*
X207761D01*
Y121857D01*
Y121912D01*
X207872D01*
Y121968D01*
Y122023D01*
X207983D01*
Y122079D01*
Y122134D01*
X208094D01*
Y122190D01*
Y122245D01*
X208316D01*
Y122190D01*
Y122134D01*
X208205D01*
Y122079D01*
Y122023D01*
X208094D01*
Y121968D01*
Y121912D01*
Y121857D01*
Y121801D01*
X207983D01*
Y121746D01*
Y121690D01*
X207872D01*
Y121635D01*
Y121579D01*
X207761D01*
Y121524D01*
Y121468D01*
X207650D01*
Y121413D01*
Y121358D01*
X207539D01*
Y121302D01*
Y121247D01*
X207428D01*
Y121191D01*
Y121136D01*
X207317D01*
Y121080D01*
Y121025D01*
X207206D01*
Y120969D01*
Y120914D01*
X207095D01*
Y120858D01*
Y120803D01*
X206984D01*
Y120747D01*
Y120692D01*
Y120636D01*
Y120581D01*
X206873D01*
Y120525D01*
Y120470D01*
X206763D01*
Y120414D01*
Y120359D01*
X206651D01*
Y120303D01*
Y120248D01*
X206541D01*
Y120193D01*
Y120137D01*
X206430D01*
Y120082D01*
Y120026D01*
X206319D01*
Y119971D01*
Y119915D01*
X206208D01*
Y119860D01*
Y119804D01*
X206097D01*
Y119749D01*
Y119693D01*
X205986D01*
Y119638D01*
Y119582D01*
Y119527D01*
Y119471D01*
Y119416D01*
Y119360D01*
X206651D01*
Y119416D01*
Y119471D01*
X207206D01*
Y119527D01*
Y119582D01*
X207428D01*
Y119638D01*
Y119693D01*
X207539D01*
Y119749D01*
Y119804D01*
X207761D01*
Y119860D01*
Y119915D01*
X207872D01*
Y119971D01*
Y120026D01*
X207983D01*
Y120082D01*
Y120137D01*
X208094D01*
Y120193D01*
Y120248D01*
X208205D01*
Y120303D01*
Y120359D01*
Y120414D01*
Y120470D01*
X208316D01*
Y120525D01*
Y120581D01*
X208427D01*
Y120636D01*
Y120692D01*
X208538D01*
Y120747D01*
Y120803D01*
Y120858D01*
Y120914D01*
X208649D01*
Y120969D01*
Y121025D01*
X208871D01*
Y120969D01*
Y120914D01*
Y120858D01*
Y120803D01*
Y120747D01*
Y120692D01*
Y120636D01*
Y120581D01*
X208981D01*
Y120525D01*
Y120470D01*
Y120414D01*
Y120359D01*
Y120303D01*
Y120248D01*
Y120193D01*
Y120137D01*
X209092D01*
Y120082D01*
Y120026D01*
X209203D01*
Y119971D01*
Y119915D01*
X209647D01*
Y119971D01*
Y120026D01*
X209869D01*
Y120082D01*
Y120137D01*
X209980D01*
Y120193D01*
Y120248D01*
X210202D01*
Y120303D01*
Y120359D01*
X210313D01*
Y120414D01*
Y120470D01*
X210424D01*
Y120525D01*
Y120581D01*
X210646D01*
Y120636D01*
Y120692D01*
X210757D01*
Y120747D01*
Y120803D01*
X210868D01*
Y120858D01*
Y120914D01*
X210979D01*
Y120969D01*
Y121025D01*
Y121080D01*
Y121136D01*
X211090D01*
Y121191D01*
Y121247D01*
Y121302D01*
Y121358D01*
X211200D01*
Y121413D01*
Y121468D01*
Y121524D01*
Y121579D01*
X211312D01*
Y121635D01*
Y121690D01*
Y121746D01*
Y121801D01*
X211422D01*
Y121857D01*
Y121912D01*
Y121968D01*
Y122023D01*
X211533D01*
Y122079D01*
Y122134D01*
Y122190D01*
Y122245D01*
X211644D01*
Y122301D01*
Y122356D01*
Y122412D01*
Y122467D01*
Y122522D01*
Y122578D01*
X211755D01*
Y122633D01*
Y122689D01*
Y122744D01*
Y122800D01*
Y122855D01*
Y122911D01*
Y122966D01*
Y123022D01*
X211866D01*
Y123077D01*
Y123133D01*
Y123188D01*
Y123244D01*
Y123299D01*
Y123355D01*
X211977D01*
Y123410D01*
Y123466D01*
Y123521D01*
Y123576D01*
Y123632D01*
Y123688D01*
Y123743D01*
Y123798D01*
Y123854D01*
Y123909D01*
Y123965D01*
Y124020D01*
Y124076D01*
Y124131D01*
Y124187D01*
Y124242D01*
Y124298D01*
Y124353D01*
Y124409D01*
Y124464D01*
Y124520D01*
Y124575D01*
Y124630D01*
Y124686D01*
Y124741D01*
Y124797D01*
Y124852D01*
Y124908D01*
Y124963D01*
Y125019D01*
Y125074D01*
Y125130D01*
Y125185D01*
Y125241D01*
X211866D01*
Y125296D01*
Y125352D01*
Y125407D01*
Y125463D01*
Y125518D01*
Y125574D01*
Y125629D01*
Y125684D01*
Y125740D01*
Y125795D01*
X211755D01*
Y125851D01*
Y125906D01*
Y125962D01*
Y126017D01*
X211644D01*
Y126073D01*
Y126128D01*
Y126184D01*
Y126239D01*
Y126295D01*
Y126350D01*
X211533D01*
Y126406D01*
Y126461D01*
Y126517D01*
Y126572D01*
X211422D01*
Y126628D01*
Y126683D01*
Y126739D01*
Y126794D01*
X211312D01*
Y126849D01*
Y126905D01*
Y126961D01*
Y127016D01*
X211200D01*
Y127071D01*
Y127127D01*
X211090D01*
Y127182D01*
Y127238D01*
Y127293D01*
Y127349D01*
X210979D01*
Y127404D01*
Y127460D01*
X210868D01*
Y127515D01*
Y127571D01*
Y127626D01*
Y127682D01*
X210757D01*
Y127737D01*
X210701D01*
Y127793D01*
X210646D01*
Y127848D01*
X210701D01*
Y127793D01*
X210979D01*
Y127737D01*
Y127682D01*
X211200D01*
Y127626D01*
Y127571D01*
X211422D01*
Y127515D01*
Y127460D01*
X211533D01*
Y127404D01*
Y127349D01*
X211755D01*
Y127293D01*
Y127238D01*
X211866D01*
Y127182D01*
Y127127D01*
X211977D01*
Y127071D01*
Y127016D01*
X212088D01*
Y126961D01*
Y126905D01*
X212199D01*
Y126849D01*
Y126794D01*
X212310D01*
Y126739D01*
Y126683D01*
X212421D01*
Y126628D01*
Y126572D01*
X212532D01*
Y126517D01*
Y126461D01*
X212643D01*
Y126406D01*
Y126350D01*
X212754D01*
Y126295D01*
Y126239D01*
X212865D01*
Y126184D01*
Y126128D01*
Y126073D01*
Y126017D01*
X212976D01*
Y125962D01*
Y125906D01*
X213087D01*
Y125851D01*
Y125795D01*
Y125740D01*
Y125684D01*
X213198D01*
Y125629D01*
Y125574D01*
Y125518D01*
Y125463D01*
X213309D01*
Y125407D01*
Y125352D01*
X213420D01*
Y125296D01*
Y125241D01*
Y125185D01*
Y125130D01*
X213530D01*
Y125074D01*
Y125019D01*
Y124963D01*
Y124908D01*
Y124852D01*
Y124797D01*
X213641D01*
Y124741D01*
Y124686D01*
Y124630D01*
Y124575D01*
X213752D01*
Y124520D01*
Y124464D01*
X213863D01*
Y124409D01*
Y124353D01*
Y124298D01*
Y124242D01*
Y124187D01*
Y124131D01*
X213974D01*
Y124076D01*
Y124020D01*
Y123965D01*
Y123909D01*
Y123854D01*
Y123798D01*
X214196D01*
Y123854D01*
Y123909D01*
X214307D01*
Y123965D01*
Y124020D01*
Y124076D01*
Y124131D01*
X214418D01*
Y124187D01*
Y124242D01*
Y124298D01*
Y124353D01*
X214529D01*
Y124409D01*
Y124464D01*
X214640D01*
Y124520D01*
Y124575D01*
Y124630D01*
Y124686D01*
X214751D01*
Y124741D01*
Y124797D01*
X214862D01*
Y124852D01*
Y124908D01*
Y124963D01*
Y125019D01*
X214973D01*
Y125074D01*
Y125130D01*
X215084D01*
Y125185D01*
Y125241D01*
Y125296D01*
Y125352D01*
X215195D01*
Y125407D01*
Y125463D01*
Y125518D01*
Y125574D01*
X215306D01*
Y125629D01*
Y125684D01*
X215417D01*
Y125740D01*
Y125795D01*
Y125851D01*
Y125906D01*
Y125962D01*
Y126017D01*
X215528D01*
Y126073D01*
Y126128D01*
Y126184D01*
Y126239D01*
X215638D01*
Y126295D01*
Y126350D01*
Y126406D01*
Y126461D01*
X215749D01*
Y126517D01*
Y126572D01*
Y126628D01*
Y126683D01*
X215860D01*
Y126739D01*
Y126794D01*
Y126849D01*
Y126905D01*
Y126961D01*
Y127016D01*
X215971D01*
Y127071D01*
Y127127D01*
Y127182D01*
Y127238D01*
X216082D01*
Y127293D01*
Y127349D01*
Y127404D01*
Y127460D01*
X216193D01*
Y127515D01*
Y127571D01*
X216304D01*
Y127515D01*
Y127460D01*
X216415D01*
Y127404D01*
Y127349D01*
Y127293D01*
Y127238D01*
X216526D01*
Y127182D01*
Y127127D01*
Y127071D01*
Y127016D01*
Y126961D01*
Y126905D01*
X216637D01*
Y126849D01*
Y126794D01*
Y126739D01*
Y126683D01*
Y126628D01*
Y126572D01*
Y126517D01*
Y126461D01*
Y126406D01*
Y126350D01*
X216748D01*
Y126295D01*
Y126239D01*
Y126184D01*
Y126128D01*
Y126073D01*
Y126017D01*
Y125962D01*
Y125906D01*
Y125851D01*
Y125795D01*
Y125740D01*
Y125684D01*
Y125629D01*
Y125574D01*
Y125518D01*
Y125463D01*
Y125407D01*
Y125352D01*
X216637D01*
Y125296D01*
Y125241D01*
Y125185D01*
Y125130D01*
Y125074D01*
Y125019D01*
Y124963D01*
Y124908D01*
Y124852D01*
Y124797D01*
Y124741D01*
Y124686D01*
Y124630D01*
Y124575D01*
X216526D01*
Y124520D01*
Y124464D01*
Y124409D01*
Y124353D01*
Y124298D01*
Y124242D01*
X216415D01*
Y124187D01*
Y124131D01*
Y124076D01*
Y124020D01*
Y123965D01*
Y123909D01*
Y123854D01*
Y123798D01*
Y123743D01*
Y123688D01*
X216304D01*
Y123632D01*
Y123576D01*
Y123521D01*
Y123466D01*
Y123410D01*
Y123355D01*
Y123299D01*
Y123244D01*
X216193D01*
Y123188D01*
Y123133D01*
Y123077D01*
Y123022D01*
X216082D01*
Y122966D01*
Y122911D01*
Y122855D01*
Y122800D01*
Y122744D01*
Y122689D01*
X215971D01*
Y122633D01*
Y122578D01*
Y122522D01*
Y122467D01*
X215860D01*
Y122412D01*
Y122356D01*
X215749D01*
Y122301D01*
Y122245D01*
Y122190D01*
Y122134D01*
X215638D01*
Y122079D01*
Y122023D01*
X215528D01*
Y121968D01*
Y121912D01*
X215417D01*
Y121857D01*
Y121801D01*
X215306D01*
Y121746D01*
Y121690D01*
X215195D01*
Y121635D01*
Y121579D01*
X215084D01*
Y121524D01*
Y121468D01*
X214973D01*
Y121413D01*
Y121358D01*
X214862D01*
Y121302D01*
Y121247D01*
Y121191D01*
Y121136D01*
X214751D01*
Y121080D01*
Y121025D01*
X214640D01*
Y120969D01*
Y120914D01*
X214529D01*
Y120858D01*
Y120803D01*
X214418D01*
Y120747D01*
Y120692D01*
X214307D01*
Y120636D01*
Y120581D01*
X214196D01*
Y120525D01*
Y120470D01*
X214085D01*
Y120414D01*
Y120359D01*
X213974D01*
Y120303D01*
Y120248D01*
X213863D01*
Y120193D01*
Y120137D01*
X213752D01*
Y120082D01*
Y120026D01*
X213641D01*
Y119971D01*
Y119915D01*
X213530D01*
Y119860D01*
Y119804D01*
X213420D01*
Y119749D01*
Y119693D01*
X213309D01*
Y119638D01*
Y119582D01*
X213198D01*
Y119527D01*
Y119471D01*
X213087D01*
Y119416D01*
Y119360D01*
X212976D01*
Y119305D01*
Y119249D01*
X212865D01*
Y119194D01*
Y119139D01*
X212754D01*
Y119083D01*
Y119027D01*
X212643D01*
Y118972D01*
Y118917D01*
X212532D01*
Y118861D01*
Y118806D01*
X212421D01*
Y118750D01*
Y118695D01*
X212199D01*
Y118639D01*
Y118584D01*
X212088D01*
Y118528D01*
Y118473D01*
X211977D01*
Y118417D01*
Y118362D01*
X211866D01*
Y118306D01*
Y118251D01*
X211755D01*
Y118195D01*
Y118140D01*
X211644D01*
Y118085D01*
Y118029D01*
X211533D01*
Y117973D01*
Y117918D01*
X211422D01*
Y117863D01*
Y117807D01*
X211312D01*
Y117752D01*
Y117696D01*
X211200D01*
Y117641D01*
Y117585D01*
X210979D01*
Y117530D01*
Y117474D01*
X210868D01*
Y117419D01*
Y117363D01*
X210757D01*
Y117308D01*
Y117252D01*
X210646D01*
Y117197D01*
Y117141D01*
X210535D01*
Y117086D01*
Y117031D01*
X210313D01*
Y116975D01*
Y116920D01*
X210202D01*
Y116864D01*
Y116809D01*
X210091D01*
Y116753D01*
Y116698D01*
X209980D01*
Y116642D01*
Y116587D01*
X209869D01*
Y116531D01*
Y116476D01*
X209758D01*
Y116420D01*
Y116365D01*
X209536D01*
Y116309D01*
Y116254D01*
X209425D01*
Y116198D01*
Y116143D01*
X209314D01*
Y116087D01*
Y116032D01*
X209203D01*
Y115976D01*
Y115921D01*
X209092D01*
Y115866D01*
Y115810D01*
X208981D01*
Y115754D01*
Y115699D01*
X208760D01*
Y115644D01*
Y115588D01*
X208649D01*
Y115533D01*
Y115477D01*
X208427D01*
Y115422D01*
Y115366D01*
X208316D01*
Y115311D01*
Y115255D01*
X208205D01*
Y115200D01*
Y115144D01*
X208094D01*
Y115089D01*
Y115033D01*
X207983D01*
Y114978D01*
Y114922D01*
X207761D01*
Y114867D01*
Y114812D01*
X207650D01*
Y114756D01*
Y114700D01*
X207539D01*
Y114645D01*
Y114590D01*
X207317D01*
Y114534D01*
Y114479D01*
X207206D01*
Y114423D01*
Y114368D01*
X207095D01*
Y114312D01*
Y114257D01*
X206984D01*
Y114201D01*
Y114146D01*
X206763D01*
Y114090D01*
Y114035D01*
X206651D01*
Y113979D01*
Y113924D01*
X206430D01*
Y113868D01*
Y113813D01*
X206319D01*
Y113868D01*
Y113924D01*
Y113979D01*
Y114035D01*
Y114090D01*
Y114146D01*
X206208D01*
Y114201D01*
Y114257D01*
Y114312D01*
Y114368D01*
Y114423D01*
Y114479D01*
Y114534D01*
Y114590D01*
Y114645D01*
Y114700D01*
Y114756D01*
Y114812D01*
X206097D01*
Y114867D01*
Y114922D01*
Y114978D01*
Y115033D01*
X205986D01*
Y115089D01*
Y115144D01*
X205875D01*
Y115200D01*
Y115255D01*
Y115311D01*
Y115366D01*
X205653D01*
Y115422D01*
Y115477D01*
X205431D01*
Y115533D01*
Y115588D01*
X204765D01*
Y115533D01*
Y115477D01*
X204543D01*
Y115422D01*
Y115366D01*
X204211D01*
Y115311D01*
Y115255D01*
X203989D01*
Y115200D01*
Y115144D01*
X203656D01*
Y115089D01*
Y115033D01*
X203323D01*
Y114978D01*
Y114922D01*
X203101D01*
Y114867D01*
Y114812D01*
X202768D01*
Y114756D01*
Y114700D01*
X202546D01*
Y114645D01*
Y114590D01*
X202214D01*
Y114534D01*
Y114479D01*
X201881D01*
Y114423D01*
Y114368D01*
X201659D01*
Y114312D01*
Y114257D01*
X201326D01*
Y114201D01*
Y114146D01*
X201104D01*
Y114090D01*
Y114035D01*
X200771D01*
Y113979D01*
Y113924D01*
X200549D01*
Y113868D01*
Y113813D01*
X200216D01*
Y113757D01*
Y113702D01*
X199995D01*
Y113646D01*
Y113591D01*
X199662D01*
Y113535D01*
Y113480D01*
X199440D01*
Y113425D01*
Y113369D01*
X199107D01*
Y113314D01*
Y113258D01*
X198885D01*
Y113203D01*
Y113147D01*
X198663D01*
Y113092D01*
Y113036D01*
X198552D01*
Y112981D01*
Y112925D01*
X198330D01*
Y112870D01*
Y112814D01*
X198219D01*
Y112759D01*
Y112703D01*
X198108D01*
Y112648D01*
Y112592D01*
X197997D01*
Y112537D01*
Y112481D01*
X197775D01*
Y112426D01*
Y112371D01*
X197665D01*
Y112315D01*
Y112260D01*
X197443D01*
Y112204D01*
Y112149D01*
X197221D01*
Y112093D01*
Y112038D01*
X196999D01*
Y111982D01*
Y111927D01*
X196888D01*
Y111871D01*
Y111816D01*
X196555D01*
Y111760D01*
Y111705D01*
X196222D01*
Y111649D01*
Y111594D01*
X195889D01*
Y111538D01*
Y111483D01*
X195224D01*
Y111427D01*
Y111372D01*
X194336D01*
Y111427D01*
Y111483D01*
X193670D01*
Y111538D01*
Y111594D01*
X193227D01*
Y111649D01*
Y111705D01*
X192894D01*
Y111760D01*
Y111816D01*
X192561D01*
Y111871D01*
Y111927D01*
X192339D01*
Y111982D01*
Y112038D01*
X192117D01*
Y112093D01*
Y112149D01*
X191895D01*
Y112204D01*
Y112260D01*
X191673D01*
Y112315D01*
Y112371D01*
X191451D01*
Y112426D01*
Y112481D01*
X191229D01*
Y112537D01*
Y112592D01*
X190564D01*
Y112648D01*
Y112703D01*
Y112759D01*
Y112814D01*
Y112870D01*
Y112925D01*
X190897D01*
Y112981D01*
Y113036D01*
X191119D01*
Y113092D01*
Y113147D01*
X191451D01*
Y113203D01*
Y113258D01*
X191784D01*
Y113314D01*
Y113369D01*
X192117D01*
Y113425D01*
Y113480D01*
X192450D01*
Y113535D01*
Y113591D01*
X192783D01*
Y113646D01*
Y113702D01*
X193005D01*
Y113757D01*
Y113813D01*
X193338D01*
Y113868D01*
Y113924D01*
X193670D01*
Y113979D01*
Y114035D01*
X193892D01*
Y114090D01*
Y114146D01*
X194114D01*
Y114201D01*
Y114257D01*
X194447D01*
Y114312D01*
Y114368D01*
X194669D01*
Y114423D01*
Y114479D01*
X194891D01*
Y114534D01*
Y114590D01*
X195002D01*
Y114645D01*
Y114700D01*
X195224D01*
Y114756D01*
Y114812D01*
X195446D01*
Y114867D01*
Y114922D01*
X195668D01*
Y114978D01*
Y115033D01*
X195778D01*
Y115089D01*
Y115144D01*
X195889D01*
Y115200D01*
Y115255D01*
X196111D01*
Y115311D01*
Y115366D01*
X196333D01*
Y115422D01*
Y115477D01*
X196444D01*
Y115533D01*
Y115588D01*
X196555D01*
Y115644D01*
Y115699D01*
X196666D01*
Y115754D01*
Y115810D01*
X196777D01*
Y115866D01*
Y115921D01*
X196888D01*
Y115976D01*
Y116032D01*
X197110D01*
Y116087D01*
Y116143D01*
X197221D01*
Y116198D01*
Y116254D01*
Y116309D01*
Y116365D01*
X197332D01*
Y116420D01*
Y116476D01*
X197443D01*
Y116531D01*
Y116587D01*
X197554D01*
Y116642D01*
Y116698D01*
X197665D01*
Y116753D01*
Y116809D01*
X197775D01*
Y116864D01*
Y116920D01*
Y116975D01*
Y117031D01*
X197887D01*
Y117086D01*
Y117141D01*
X197997D01*
Y117197D01*
Y117252D01*
Y117308D01*
Y117363D01*
X198108D01*
Y117419D01*
Y117474D01*
X198219D01*
Y117530D01*
Y117585D01*
Y117641D01*
Y117696D01*
X198330D01*
Y117752D01*
Y117807D01*
Y117863D01*
Y117918D01*
X198441D01*
Y117973D01*
Y118029D01*
Y118085D01*
Y118140D01*
X198552D01*
Y118195D01*
Y118251D01*
Y118306D01*
Y118362D01*
X198663D01*
Y118417D01*
Y118473D01*
Y118528D01*
Y118584D01*
Y118639D01*
Y118695D01*
Y118750D01*
Y118806D01*
X198774D01*
Y118861D01*
Y118917D01*
Y118972D01*
Y119027D01*
Y119083D01*
Y119139D01*
Y119194D01*
Y119249D01*
Y119305D01*
Y119360D01*
X198885D01*
Y119416D01*
Y119471D01*
Y119527D01*
Y119582D01*
Y119638D01*
Y119693D01*
Y119749D01*
Y119804D01*
Y119860D01*
Y119915D01*
Y119971D01*
Y120026D01*
Y120082D01*
Y120137D01*
Y120193D01*
Y120248D01*
Y120303D01*
Y120359D01*
Y120414D01*
Y120470D01*
Y120525D01*
Y120581D01*
Y120636D01*
Y120692D01*
Y120747D01*
Y120803D01*
Y120858D01*
Y120914D01*
Y120969D01*
Y121025D01*
Y121080D01*
Y121136D01*
Y121191D01*
Y121247D01*
Y121302D01*
Y121358D01*
Y121413D01*
Y121468D01*
Y121524D01*
Y121579D01*
Y121635D01*
Y121690D01*
Y121746D01*
Y121801D01*
X198774D01*
Y121857D01*
Y121912D01*
Y121968D01*
Y122023D01*
Y122079D01*
Y122134D01*
Y122190D01*
Y122245D01*
Y122301D01*
Y122356D01*
Y122412D01*
Y122467D01*
Y122522D01*
Y122578D01*
Y122633D01*
Y122689D01*
X198663D01*
Y122744D01*
Y122800D01*
Y122855D01*
Y122911D01*
Y122966D01*
Y123022D01*
Y123077D01*
Y123133D01*
Y123188D01*
Y123244D01*
Y123299D01*
Y123355D01*
Y123410D01*
Y123466D01*
X198552D01*
Y123521D01*
Y123576D01*
Y123632D01*
Y123688D01*
Y123743D01*
Y123798D01*
Y123854D01*
Y123909D01*
X198441D01*
Y123965D01*
Y124020D01*
Y124076D01*
Y124131D01*
Y124187D01*
Y124242D01*
Y124298D01*
Y124353D01*
Y124409D01*
Y124464D01*
X198330D01*
Y124520D01*
Y124575D01*
Y124630D01*
Y124686D01*
Y124741D01*
Y124797D01*
X198219D01*
Y124852D01*
Y124908D01*
Y124963D01*
Y125019D01*
Y125074D01*
Y125130D01*
Y125185D01*
Y125241D01*
X198108D01*
Y125296D01*
Y125352D01*
Y125407D01*
Y125463D01*
Y125518D01*
Y125574D01*
X197997D01*
Y125629D01*
Y125684D01*
Y125740D01*
Y125795D01*
Y125851D01*
Y125906D01*
X197887D01*
Y125962D01*
Y126017D01*
Y126073D01*
Y126128D01*
Y126184D01*
Y126239D01*
X197775D01*
Y126295D01*
Y126350D01*
Y126406D01*
Y126461D01*
Y126517D01*
Y126572D01*
X197665D01*
Y126628D01*
Y126683D01*
Y126739D01*
Y126794D01*
X197554D01*
Y126849D01*
Y126905D01*
Y126961D01*
Y127016D01*
Y127071D01*
Y127127D01*
X197443D01*
Y127182D01*
Y127238D01*
X197332D01*
Y127293D01*
Y127349D01*
Y127404D01*
Y127460D01*
X197221D01*
Y127515D01*
Y127571D01*
X197110D01*
Y127626D01*
Y127682D01*
Y127737D01*
Y127793D01*
X196999D01*
Y127848D01*
Y127904D01*
X196888D01*
Y127959D01*
Y128015D01*
X196777D01*
Y128070D01*
Y128126D01*
X196666D01*
Y128181D01*
Y128236D01*
X196555D01*
Y128292D01*
Y128347D01*
X196444D01*
Y128403D01*
Y128458D01*
X196333D01*
Y128514D01*
Y128569D01*
X196222D01*
Y128625D01*
Y128680D01*
X196111D01*
Y128736D01*
Y128791D01*
X196000D01*
Y128847D01*
Y128902D01*
X195889D01*
Y128958D01*
Y129013D01*
X195668D01*
Y129069D01*
Y129124D01*
X195556D01*
Y129180D01*
Y129235D01*
X195446D01*
Y129290D01*
Y129346D01*
X195335D01*
Y129401D01*
Y129457D01*
X195113D01*
Y129512D01*
Y129568D01*
X195002D01*
Y129623D01*
Y129679D01*
X194780D01*
Y129734D01*
Y129790D01*
X194558D01*
Y129845D01*
Y129901D01*
X194336D01*
Y129956D01*
Y130012D01*
X194114D01*
Y130067D01*
Y130123D01*
X193559D01*
Y130178D01*
Y130234D01*
X191784D01*
Y130178D01*
Y130123D01*
X190120D01*
Y130067D01*
Y130012D01*
X188567D01*
Y129956D01*
Y129901D01*
Y129845D01*
Y129790D01*
X189121D01*
Y129734D01*
Y129679D01*
X192672D01*
Y129623D01*
Y129568D01*
X193338D01*
Y129512D01*
Y129457D01*
X193670D01*
Y129401D01*
Y129346D01*
X194003D01*
Y129290D01*
Y129235D01*
X194114D01*
Y129180D01*
Y129124D01*
X194336D01*
Y129069D01*
Y129013D01*
X194447D01*
Y128958D01*
Y128902D01*
X194669D01*
Y128847D01*
Y128791D01*
X194780D01*
Y128736D01*
Y128680D01*
X194891D01*
Y128625D01*
Y128569D01*
X195002D01*
Y128514D01*
Y128458D01*
X195113D01*
Y128403D01*
Y128347D01*
X195224D01*
Y128292D01*
Y128236D01*
X195335D01*
Y128181D01*
Y128126D01*
X195446D01*
Y128070D01*
Y128015D01*
X195556D01*
Y127959D01*
Y127904D01*
Y127848D01*
Y127793D01*
X195668D01*
Y127737D01*
Y127682D01*
X195778D01*
Y127626D01*
Y127571D01*
X195889D01*
Y127515D01*
Y127460D01*
X196000D01*
Y127404D01*
Y127349D01*
X196111D01*
Y127293D01*
Y127238D01*
Y127182D01*
Y127127D01*
X196222D01*
Y127071D01*
Y127016D01*
X196333D01*
Y126961D01*
Y126905D01*
Y126849D01*
Y126794D01*
X196444D01*
Y126739D01*
Y126683D01*
X196555D01*
Y126628D01*
Y126572D01*
Y126517D01*
Y126461D01*
X196666D01*
Y126406D01*
Y126350D01*
X196777D01*
Y126295D01*
Y126239D01*
Y126184D01*
Y126128D01*
X196888D01*
Y126073D01*
Y126017D01*
Y125962D01*
Y125906D01*
X196999D01*
Y125851D01*
Y125795D01*
Y125740D01*
Y125684D01*
X197110D01*
Y125629D01*
Y125574D01*
Y125518D01*
Y125463D01*
X197221D01*
Y125407D01*
Y125352D01*
Y125296D01*
Y125241D01*
X197332D01*
Y125185D01*
Y125130D01*
Y125074D01*
Y125019D01*
X197443D01*
Y124963D01*
Y124908D01*
Y124852D01*
Y124797D01*
X197554D01*
Y124741D01*
Y124686D01*
Y124630D01*
Y124575D01*
Y124520D01*
Y124464D01*
X197665D01*
Y124409D01*
Y124353D01*
Y124298D01*
Y124242D01*
X197775D01*
Y124187D01*
Y124131D01*
Y124076D01*
Y124020D01*
Y123965D01*
Y123909D01*
Y123854D01*
Y123798D01*
X197887D01*
Y123743D01*
Y123688D01*
Y123632D01*
Y123576D01*
Y123521D01*
Y123466D01*
X197997D01*
Y123410D01*
Y123355D01*
Y123299D01*
Y123244D01*
Y123188D01*
Y123133D01*
Y123077D01*
Y123022D01*
Y122966D01*
Y122911D01*
X198108D01*
Y122855D01*
Y122800D01*
Y122744D01*
Y122689D01*
Y122633D01*
Y122578D01*
X198219D01*
Y122522D01*
Y122467D01*
Y122412D01*
Y122356D01*
Y122301D01*
Y122245D01*
Y122190D01*
Y122134D01*
Y122079D01*
Y122023D01*
Y121968D01*
Y121912D01*
Y121857D01*
Y121801D01*
Y121746D01*
Y121690D01*
Y121635D01*
Y121579D01*
X198330D01*
Y121524D01*
Y121468D01*
Y121413D01*
Y121358D01*
Y121302D01*
Y121247D01*
Y121191D01*
Y121136D01*
Y121080D01*
Y121025D01*
Y120969D01*
Y120914D01*
Y120858D01*
Y120803D01*
Y120747D01*
Y120692D01*
X198108D01*
Y120747D01*
Y120803D01*
Y120858D01*
Y120914D01*
X197997D01*
Y120969D01*
Y121025D01*
Y121080D01*
Y121136D01*
Y121191D01*
Y121247D01*
Y121302D01*
Y121358D01*
X197887D01*
Y121413D01*
Y121468D01*
Y121524D01*
Y121579D01*
Y121635D01*
Y121690D01*
X197775D01*
Y121746D01*
Y121801D01*
Y121857D01*
Y121912D01*
Y121968D01*
Y122023D01*
X197665D01*
Y122079D01*
Y122134D01*
Y122190D01*
Y122245D01*
X197554D01*
Y122301D01*
Y122356D01*
Y122412D01*
Y122467D01*
Y122522D01*
Y122578D01*
Y122633D01*
Y122689D01*
X197443D01*
Y122744D01*
Y122800D01*
Y122855D01*
Y122911D01*
X197332D01*
Y122966D01*
Y123022D01*
Y123077D01*
Y123133D01*
Y123188D01*
Y123244D01*
X197221D01*
Y123299D01*
Y123355D01*
Y123410D01*
Y123466D01*
Y123521D01*
Y123576D01*
X197110D01*
Y123632D01*
Y123688D01*
Y123743D01*
Y123798D01*
Y123854D01*
Y123909D01*
X196999D01*
Y123965D01*
Y124020D01*
Y124076D01*
Y124131D01*
X196888D01*
Y124187D01*
Y124242D01*
Y124298D01*
Y124353D01*
Y124409D01*
Y124464D01*
X196777D01*
Y124520D01*
Y124575D01*
Y124630D01*
Y124686D01*
X196666D01*
Y124741D01*
Y124797D01*
Y124852D01*
Y124908D01*
X196555D01*
Y124963D01*
Y125019D01*
Y125074D01*
Y125130D01*
X196444D01*
Y125185D01*
Y125241D01*
Y125296D01*
Y125352D01*
X196333D01*
Y125407D01*
Y125463D01*
Y125518D01*
Y125574D01*
X196222D01*
Y125629D01*
Y125684D01*
Y125740D01*
Y125795D01*
X196111D01*
Y125851D01*
Y125906D01*
X196000D01*
Y125962D01*
Y126017D01*
Y126073D01*
Y126128D01*
X195889D01*
Y126184D01*
Y126239D01*
Y126295D01*
Y126350D01*
X195778D01*
Y126406D01*
Y126461D01*
X195668D01*
Y126517D01*
Y126572D01*
Y126628D01*
Y126683D01*
X195556D01*
Y126739D01*
Y126794D01*
Y126849D01*
Y126905D01*
X195446D01*
Y126961D01*
Y127016D01*
X195335D01*
Y127071D01*
Y127127D01*
X195224D01*
Y127182D01*
Y127238D01*
X195113D01*
Y127293D01*
Y127349D01*
Y127404D01*
Y127460D01*
X195002D01*
Y127515D01*
Y127571D01*
X194891D01*
Y127626D01*
Y127682D01*
X194780D01*
Y127737D01*
Y127793D01*
X194669D01*
Y127848D01*
Y127904D01*
X194558D01*
Y127959D01*
Y128015D01*
X194447D01*
Y128070D01*
Y128126D01*
X194336D01*
Y128181D01*
Y128236D01*
X194225D01*
Y128292D01*
Y128347D01*
X194114D01*
Y128403D01*
Y128458D01*
X194003D01*
Y128514D01*
Y128569D01*
X193892D01*
Y128625D01*
Y128680D01*
X193670D01*
Y128736D01*
Y128791D01*
X193559D01*
Y128847D01*
Y128902D01*
X193448D01*
Y128958D01*
Y129013D01*
X193227D01*
Y129069D01*
Y129124D01*
X193005D01*
Y129180D01*
Y129235D01*
X192561D01*
Y129180D01*
Y129124D01*
X192339D01*
Y129069D01*
Y129013D01*
Y128958D01*
Y128902D01*
X192228D01*
Y128847D01*
Y128791D01*
X192117D01*
Y128736D01*
Y128680D01*
Y128625D01*
Y128569D01*
X192006D01*
Y128514D01*
Y128458D01*
Y128403D01*
Y128347D01*
X191895D01*
Y128292D01*
Y128236D01*
X191784D01*
Y128181D01*
Y128126D01*
X191673D01*
Y128070D01*
Y128015D01*
Y127959D01*
Y127904D01*
X191562D01*
Y127848D01*
Y127793D01*
Y127737D01*
Y127682D01*
X191451D01*
Y127626D01*
Y127571D01*
X191340D01*
Y127626D01*
Y127682D01*
X191229D01*
Y127737D01*
Y127793D01*
Y127848D01*
Y127904D01*
X191119D01*
Y127959D01*
Y128015D01*
Y128070D01*
Y128126D01*
Y128181D01*
Y128236D01*
X191008D01*
Y128292D01*
Y128347D01*
X190897D01*
Y128403D01*
Y128458D01*
Y128514D01*
Y128569D01*
X190786D01*
Y128625D01*
Y128680D01*
X190675D01*
Y128736D01*
Y128791D01*
X190564D01*
Y128847D01*
Y128902D01*
X190453D01*
Y128958D01*
Y129013D01*
X190231D01*
Y129069D01*
Y129124D01*
X190120D01*
Y129180D01*
Y129235D01*
X189898D01*
Y129290D01*
Y129346D01*
X189565D01*
Y129401D01*
Y129457D01*
X189121D01*
Y129512D01*
Y129568D01*
X188678D01*
Y129623D01*
Y129679D01*
X187790D01*
Y129734D01*
Y129790D01*
X185793D01*
Y129734D01*
Y129679D01*
X184573D01*
Y129734D01*
Y129790D01*
X184129D01*
Y129845D01*
Y129901D01*
X183907D01*
Y129956D01*
Y130012D01*
X183796D01*
Y130067D01*
Y130123D01*
X183574D01*
Y130178D01*
Y130234D01*
X183463D01*
Y130289D01*
Y130344D01*
X183352D01*
Y130400D01*
Y130455D01*
X183241D01*
Y130511D01*
Y130566D01*
X183130D01*
Y130622D01*
Y130677D01*
Y130733D01*
Y130788D01*
X183019D01*
Y130844D01*
Y130899D01*
X182908D01*
Y130955D01*
Y131010D01*
X182797D01*
Y131066D01*
Y131121D01*
X182686D01*
Y131177D01*
Y131232D01*
X182575D01*
Y131288D01*
Y131343D01*
Y131398D01*
Y131454D01*
X182465D01*
Y131509D01*
Y131565D01*
Y131620D01*
Y131676D01*
X182353D01*
Y131731D01*
Y131787D01*
Y131842D01*
Y131898D01*
X182243D01*
Y131953D01*
Y132009D01*
Y132064D01*
Y132120D01*
X182132D01*
Y132175D01*
Y132231D01*
X182021D01*
Y132286D01*
Y132342D01*
Y132397D01*
Y132452D01*
X181910D01*
Y132508D01*
Y132563D01*
Y132619D01*
Y132674D01*
Y132730D01*
Y132785D01*
Y132841D01*
Y132896D01*
Y132952D01*
Y133007D01*
Y133063D01*
Y133118D01*
Y133174D01*
Y133229D01*
X182021D01*
Y133285D01*
Y133340D01*
Y133396D01*
Y133451D01*
X182132D01*
Y133507D01*
Y133562D01*
X182243D01*
Y133617D01*
Y133673D01*
Y133728D01*
Y133784D01*
X182353D01*
Y133839D01*
Y133895D01*
X182465D01*
Y133950D01*
Y134006D01*
X182575D01*
Y134061D01*
Y134117D01*
X182686D01*
Y134172D01*
Y134228D01*
X182797D01*
Y134283D01*
Y134339D01*
X182908D01*
Y134394D01*
Y134450D01*
X183019D01*
Y134505D01*
Y134561D01*
X183241D01*
Y134616D01*
Y134671D01*
X183352D01*
Y134727D01*
Y134783D01*
X183463D01*
Y134838D01*
Y134893D01*
X183574D01*
Y134949D01*
Y135004D01*
X183796D01*
Y135060D01*
Y135115D01*
X183907D01*
Y135171D01*
Y135226D01*
X184129D01*
Y135282D01*
Y135337D01*
X184240D01*
Y135393D01*
Y135448D01*
X184462D01*
Y135504D01*
Y135559D01*
X184683D01*
Y135615D01*
Y135670D01*
X184794D01*
Y135725D01*
Y135781D01*
X185016D01*
Y135837D01*
Y135892D01*
X185238D01*
Y135947D01*
Y136003D01*
X185460D01*
Y136058D01*
Y136114D01*
X185682D01*
Y136169D01*
Y136225D01*
X185904D01*
Y136280D01*
Y136336D01*
X186126D01*
Y136391D01*
Y136447D01*
X186348D01*
Y136502D01*
Y136558D01*
X186570D01*
Y136613D01*
Y136669D01*
X186792D01*
Y136724D01*
Y136780D01*
X187013D01*
Y136835D01*
Y136890D01*
X187235D01*
Y136946D01*
Y137002D01*
X187568D01*
Y137057D01*
Y137112D01*
X187790D01*
Y137168D01*
Y137223D01*
X188012D01*
Y137279D01*
Y137334D01*
X188345D01*
Y137390D01*
Y137445D01*
X188567D01*
Y137501D01*
Y137556D01*
X188900D01*
Y137612D01*
Y137667D01*
X189121D01*
Y137723D01*
Y137778D01*
X189454D01*
Y137834D01*
Y137889D01*
X189787D01*
Y137944D01*
Y138000D01*
X190120D01*
Y138056D01*
Y138111D01*
X190342D01*
Y138166D01*
Y138222D01*
X190675D01*
Y138277D01*
Y138333D01*
X191008D01*
Y138388D01*
Y138444D01*
X191451D01*
Y138499D01*
Y138555D01*
X191673D01*
Y138610D01*
Y138666D01*
X192006D01*
Y138721D01*
Y138777D01*
X192450D01*
Y138832D01*
Y138888D01*
X192672D01*
Y138943D01*
Y138999D01*
X193116D01*
Y139054D01*
Y139110D01*
X193448D01*
Y139165D01*
Y139220D01*
X193892D01*
Y139276D01*
Y139331D01*
X194225D01*
Y139387D01*
Y139442D01*
X194669D01*
Y139498D01*
Y139553D01*
X195002D01*
Y139609D01*
Y139664D01*
X195446D01*
Y139720D01*
Y139775D01*
X195778D01*
Y139831D01*
Y139886D01*
X196222D01*
Y139942D01*
Y139997D01*
X196666D01*
Y140053D01*
Y140108D01*
X196999D01*
Y140164D01*
Y140219D01*
X197332D01*
Y140275D01*
Y140330D01*
X197665D01*
Y140385D01*
Y140441D01*
X197997D01*
Y140496D01*
Y140552D01*
X198330D01*
Y140607D01*
Y140663D01*
X198663D01*
Y140718D01*
Y140774D01*
X198885D01*
Y140829D01*
Y140885D01*
X199218D01*
Y140940D01*
Y140996D01*
X199440D01*
Y141051D01*
Y141107D01*
X199662D01*
Y141162D01*
Y141218D01*
X199995D01*
Y141273D01*
Y141329D01*
X200216D01*
Y141384D01*
Y141439D01*
X200438D01*
Y141495D01*
Y141550D01*
X200771D01*
Y141606D01*
Y141661D01*
X200882D01*
Y141717D01*
Y141772D01*
X201104D01*
Y141828D01*
Y141883D01*
X201326D01*
Y141939D01*
Y141994D01*
X201548D01*
Y142050D01*
Y142105D01*
X201770D01*
Y142161D01*
Y142216D01*
X201881D01*
Y142272D01*
Y142327D01*
X202103D01*
Y142383D01*
Y142438D01*
X202325D01*
Y142493D01*
Y142549D01*
X202435D01*
Y142604D01*
Y142660D01*
X202657D01*
Y142715D01*
Y142771D01*
X202879D01*
Y142826D01*
Y142882D01*
X203212D01*
Y142937D01*
Y142993D01*
X203434D01*
Y143048D01*
Y143104D01*
X203878D01*
Y143159D01*
Y143215D01*
X204211D01*
Y143270D01*
Y143326D01*
X206430D01*
Y143270D01*
Y143215D01*
X206763D01*
Y143159D01*
Y143104D01*
X207317D01*
Y143048D01*
Y142993D01*
X207872D01*
Y142937D01*
Y142882D01*
X208538D01*
Y142826D01*
Y142771D01*
X209092D01*
Y142715D01*
Y142660D01*
X210091D01*
Y142604D01*
Y142549D01*
X213420D01*
Y142604D01*
Y142660D01*
X214418D01*
Y142715D01*
Y142771D01*
X214973D01*
Y142826D01*
Y142882D01*
X215417D01*
Y142937D01*
Y142993D01*
X216082D01*
Y143048D01*
Y143104D01*
X216526D01*
Y143159D01*
Y143215D01*
X216859D01*
Y143270D01*
Y143326D01*
X217192D01*
Y143381D01*
Y143437D01*
X217525D01*
Y143492D01*
Y143547D01*
X217858D01*
Y143603D01*
Y143658D01*
X218190D01*
Y143714D01*
Y143769D01*
X218523D01*
Y143825D01*
Y143880D01*
X218745D01*
Y143936D01*
Y143991D01*
X218967D01*
Y144047D01*
Y144102D01*
X219300D01*
Y144158D01*
Y144213D01*
X219522D01*
Y144269D01*
Y144324D01*
X219855D01*
Y144380D01*
Y144435D01*
X220076D01*
Y144491D01*
Y144546D01*
X220409D01*
Y144602D01*
Y144657D01*
X220742D01*
Y144712D01*
Y144768D01*
X220964D01*
Y144823D01*
Y144879D01*
X221297D01*
Y144934D01*
Y144990D01*
X221630D01*
Y145045D01*
Y145101D01*
X221852D01*
Y145156D01*
Y145212D01*
X222295D01*
Y145267D01*
Y145323D01*
X222628D01*
Y145378D01*
Y145434D01*
X224515D01*
Y145378D01*
D02*
G37*
D10*
X268693Y152268D02*
G03*
X268693Y152268I-1181J0D01*
G01*
D11*
X277157Y148055D02*
G03*
X277157Y148055I-492J0D01*
G01*
X256354Y207646D02*
G03*
X256354Y207646I-492J0D01*
G01*
X346153Y151936D02*
G03*
X346153Y151936I-492J0D01*
G01*
Y165528D02*
G03*
X346153Y165528I-492J0D01*
G01*
Y179121D02*
G03*
X346153Y179121I-492J0D01*
G01*
X197751Y239500D02*
G03*
X197751Y239500I-492J0D01*
G01*
D12*
X177000Y186520D02*
G03*
X177000Y186913I0J197D01*
G01*
D02*
G03*
X177000Y186520I0J-197D01*
G01*
D13*
X252551Y189669D02*
X271449D01*
X252551Y148331D02*
X271449D01*
X252551D02*
Y189669D01*
X271449Y148331D02*
Y189669D01*
X137461Y218799D02*
Y219201D01*
X132539Y218799D02*
Y219201D01*
X126142Y219894D02*
X131142D01*
X126142Y217394D02*
X128642Y219894D01*
X131142Y217394D01*
X126142D02*
X131142D01*
X146528Y188882D02*
Y253842D01*
X187472D01*
Y188882D02*
Y253842D01*
X146528Y188882D02*
X187472D01*
X242240Y227035D02*
Y235992D01*
Y210008D02*
Y218965D01*
X259898Y235992D02*
X269760D01*
X242240D02*
X251827D01*
X242240Y210008D02*
X251827D01*
X259898D02*
X269760D01*
Y235992D01*
X332866Y148097D02*
X341134D01*
X332866Y155774D02*
X341134D01*
X332866Y161690D02*
X341134D01*
X332866Y169367D02*
X341134D01*
X332866Y175283D02*
X341134D01*
X332866Y182960D02*
X341134D01*
X145839Y169496D02*
Y179732D01*
X145839Y146268D02*
Y156504D01*
X145839Y179732D02*
X174382D01*
X179303Y169496D02*
Y174811D01*
X145839Y146268D02*
X174382D01*
X179303Y151189D02*
Y156504D01*
X174382Y179732D02*
X179303Y174811D01*
X174382Y146268D02*
X179303Y151189D01*
X209933Y241655D02*
X216067D01*
Y222344D02*
Y241655D01*
X209933Y222344D02*
X216067D01*
X209933D02*
Y241655D01*
X173319Y124000D02*
Y134000D01*
X151823Y124000D02*
X173319D01*
X151823D02*
Y134000D01*
X173319D01*
X233803Y165130D02*
X234197D01*
X233803Y168870D02*
X234197D01*
X233803Y155130D02*
X234197D01*
X233803Y158870D02*
X234197D01*
X376850Y166654D02*
Y173346D01*
X383178Y166674D02*
Y173368D01*
X336504Y108539D02*
X336906D01*
X336504Y113461D02*
X336906D01*
X336504Y122132D02*
X336906D01*
X336504Y127053D02*
X336906D01*
X336504Y135725D02*
X336906D01*
X336504Y140646D02*
X336906D01*
X335098Y196080D02*
Y201080D01*
Y196080D02*
X337598Y198580D01*
X335098Y201080D02*
X337598Y198580D01*
Y196080D02*
Y201080D01*
X336504Y194682D02*
X336906D01*
X336504Y189761D02*
X336906D01*
X335098Y209673D02*
Y214673D01*
Y209673D02*
X337598Y212173D01*
X335098Y214673D02*
X337598Y212173D01*
Y209673D02*
Y214673D01*
X336504Y208275D02*
X336906D01*
X336504Y203354D02*
X336906D01*
X335098Y223266D02*
Y228266D01*
Y223266D02*
X337598Y225765D01*
X335098Y228266D02*
X337598Y225765D01*
Y223266D02*
Y228266D01*
X336504Y221868D02*
X336906D01*
X336504Y216947D02*
X336906D01*
X335098Y236858D02*
Y241858D01*
Y236858D02*
X337598Y239358D01*
X335098Y241858D02*
X337598Y239358D01*
Y236858D02*
Y241858D01*
X336504Y235461D02*
X336906D01*
X336504Y230539D02*
X336906D01*
X221228Y254902D02*
Y255098D01*
X224772Y254902D02*
Y255098D01*
X232334Y248641D02*
Y259359D01*
X239666Y248641D02*
Y259359D01*
X131342Y192472D02*
Y203528D01*
X138658Y192472D02*
Y203528D01*
D14*
X345205Y108500D02*
Y113500D01*
Y122093D02*
Y127093D01*
Y135686D02*
Y140685D01*
D15*
X250000Y129999D02*
X249001Y130999D01*
X247001D01*
X246002Y129999D01*
Y126001D01*
X247001Y125001D01*
X249001D01*
X250000Y126001D01*
X255998Y130999D02*
X253999Y129999D01*
X252000Y128000D01*
Y126001D01*
X252999Y125001D01*
X254999D01*
X255998Y126001D01*
Y127000D01*
X254999Y128000D01*
X252000D01*
X257002Y198999D02*
Y194001D01*
X258001Y193001D01*
X260001D01*
X261000Y194001D01*
Y198999D01*
X266998Y193001D02*
X263000D01*
X266998Y197000D01*
Y197999D01*
X265999Y198999D01*
X263999D01*
X263000Y197999D01*
X216999Y189498D02*
X215999Y190498D01*
X214000D01*
X213000Y189498D01*
Y185500D01*
X214000Y184500D01*
X215999D01*
X216999Y185500D01*
X218998Y190498D02*
Y184500D01*
X222997D01*
X224996Y190498D02*
Y184500D01*
Y186499D01*
X228995Y190498D01*
X225996Y187499D01*
X228995Y184500D01*
X114003Y151998D02*
X115002Y152998D01*
X117002D01*
X118001Y151998D01*
Y150999D01*
X117002Y149999D01*
X116002D01*
X117002D01*
X118001Y148999D01*
Y148000D01*
X117002Y147000D01*
X115002D01*
X114003Y148000D01*
X120001Y152998D02*
Y148999D01*
X122000Y147000D01*
X123999Y148999D01*
Y152998D01*
X125999Y151998D02*
X126998Y152998D01*
X128998D01*
X129997Y151998D01*
Y150999D01*
X128998Y149999D01*
X127998D01*
X128998D01*
X129997Y148999D01*
Y148000D01*
X128998Y147000D01*
X126998D01*
X125999Y148000D01*
X350000Y108000D02*
X351999D01*
X351000D01*
Y113998D01*
X350000Y112998D01*
X354998D02*
X355998Y113998D01*
X357997D01*
X358997Y112998D01*
Y109000D01*
X357997Y108000D01*
X355998D01*
X354998Y109000D01*
Y112998D01*
X360996D02*
X361996Y113998D01*
X363996D01*
X364995Y112998D01*
Y109000D01*
X363996Y108000D01*
X361996D01*
X360996Y109000D01*
Y112998D01*
X366995Y109000D02*
X371993Y113998D01*
X366995D02*
Y114998D01*
X367994D01*
Y113998D01*
X366995D01*
X370993Y108000D02*
Y109000D01*
X371993D01*
Y108000D01*
X370993D01*
X353999Y216444D02*
X350000D01*
X353999Y220443D01*
Y221443D01*
X352999Y222443D01*
X351000D01*
X350000Y221443D01*
X355998D02*
X356998Y222443D01*
X358997D01*
X359997Y221443D01*
Y217444D01*
X358997Y216444D01*
X356998D01*
X355998Y217444D01*
Y221443D01*
X361996Y217444D02*
X366995Y222443D01*
X361996D02*
Y223442D01*
X362996D01*
Y222443D01*
X361996D01*
X365995Y216444D02*
Y217444D01*
X366995D01*
Y216444D01*
X365995D01*
X350000Y154665D02*
X353999D01*
Y153665D01*
X350000Y149666D01*
Y148667D01*
X355998Y153665D02*
X356998Y154665D01*
X358997D01*
X359997Y153665D01*
Y149666D01*
X358997Y148667D01*
X356998D01*
X355998Y149666D01*
Y153665D01*
X361996Y149666D02*
X366995Y154665D01*
X361996D02*
Y155664D01*
X362996D01*
Y154665D01*
X361996D01*
X365995Y148667D02*
Y149666D01*
X366995D01*
Y148667D01*
X365995D01*
X350000Y230000D02*
X351999D01*
X351000D01*
Y235998D01*
X350000Y234998D01*
X354998D02*
X355998Y235998D01*
X357997D01*
X358997Y234998D01*
Y231000D01*
X357997Y230000D01*
X355998D01*
X354998Y231000D01*
Y234998D01*
X360996Y231000D02*
X365995Y235998D01*
X360996D02*
Y236998D01*
X361996D01*
Y235998D01*
X360996D01*
X364995Y230000D02*
Y231000D01*
X365995D01*
Y230000D01*
X364995D01*
X353999Y181776D02*
X350000D01*
Y178777D01*
X351999Y179777D01*
X352999D01*
X353999Y178777D01*
Y176777D01*
X352999Y175778D01*
X351000D01*
X350000Y176777D01*
X355998Y180776D02*
X356998Y181776D01*
X358997D01*
X359997Y180776D01*
Y176777D01*
X358997Y175778D01*
X356998D01*
X355998Y176777D01*
Y180776D01*
X361996Y176777D02*
X366995Y181776D01*
X361996D02*
Y182775D01*
X362996D01*
Y181776D01*
X361996D01*
X365995Y175778D02*
Y176777D01*
X366995D01*
Y175778D01*
X365995D01*
X352999Y189333D02*
Y195331D01*
X350000Y192332D01*
X353999D01*
X355998Y194332D02*
X356998Y195331D01*
X358997D01*
X359997Y194332D01*
Y190333D01*
X358997Y189333D01*
X356998D01*
X355998Y190333D01*
Y194332D01*
X361996Y190333D02*
X366995Y195331D01*
X361996D02*
Y196331D01*
X362996D01*
Y195331D01*
X361996D01*
X365995Y189333D02*
Y190333D01*
X366995D01*
Y189333D01*
X365995D01*
X353999Y168220D02*
X351999Y167221D01*
X350000Y165221D01*
Y163222D01*
X351000Y162222D01*
X352999D01*
X353999Y163222D01*
Y164222D01*
X352999Y165221D01*
X350000D01*
X355998Y167221D02*
X356998Y168220D01*
X358997D01*
X359997Y167221D01*
Y163222D01*
X358997Y162222D01*
X356998D01*
X355998Y163222D01*
Y167221D01*
X361996Y163222D02*
X366995Y168220D01*
X361996D02*
Y169220D01*
X362996D01*
Y168220D01*
X361996D01*
X365995Y162222D02*
Y163222D01*
X366995D01*
Y162222D01*
X365995D01*
X350000Y207887D02*
X351000Y208887D01*
X352999D01*
X353999Y207887D01*
Y206888D01*
X352999Y205888D01*
X351999D01*
X352999D01*
X353999Y204888D01*
Y203889D01*
X352999Y202889D01*
X351000D01*
X350000Y203889D01*
X355998Y207887D02*
X356998Y208887D01*
X358997D01*
X359997Y207887D01*
Y203889D01*
X358997Y202889D01*
X356998D01*
X355998Y203889D01*
Y207887D01*
X361996Y203889D02*
X366995Y208887D01*
X361996D02*
Y209887D01*
X362996D01*
Y208887D01*
X361996D01*
X365995Y202889D02*
Y203889D01*
X366995D01*
Y202889D01*
X365995D01*
X350000Y122555D02*
X351000Y121555D01*
X352999D01*
X353999Y122555D01*
Y126554D01*
X352999Y127554D01*
X351000D01*
X350000Y126554D01*
Y125554D01*
X351000Y124555D01*
X353999D01*
X355998Y126554D02*
X356998Y127554D01*
X358997D01*
X359997Y126554D01*
Y122555D01*
X358997Y121555D01*
X356998D01*
X355998Y122555D01*
Y126554D01*
X361996Y122555D02*
X366995Y127554D01*
X361996D02*
Y128553D01*
X362996D01*
Y127554D01*
X361996D01*
X365995Y121555D02*
Y122555D01*
X366995D01*
Y121555D01*
X365995D01*
X350000Y140110D02*
X351000Y141109D01*
X352999D01*
X353999Y140110D01*
Y139110D01*
X352999Y138110D01*
X353999Y137110D01*
Y136111D01*
X352999Y135111D01*
X351000D01*
X350000Y136111D01*
Y137110D01*
X351000Y138110D01*
X350000Y139110D01*
Y140110D01*
X351000Y138110D02*
X352999D01*
X355998Y140110D02*
X356998Y141109D01*
X358997D01*
X359997Y140110D01*
Y136111D01*
X358997Y135111D01*
X356998D01*
X355998Y136111D01*
Y140110D01*
X361996Y136111D02*
X366995Y141109D01*
X361996D02*
Y142109D01*
X362996D01*
Y141109D01*
X361996D01*
X365995Y135111D02*
Y136111D01*
X366995D01*
Y135111D01*
X365995D01*
X224000Y208999D02*
X223001Y209999D01*
X221001D01*
X220002Y208999D01*
Y205001D01*
X221001Y204001D01*
X223001D01*
X224000Y205001D01*
X229998Y209999D02*
X226000D01*
Y207000D01*
X227999Y208000D01*
X228999D01*
X229998Y207000D01*
Y205001D01*
X228999Y204001D01*
X226999D01*
X226000Y205001D01*
X273002Y234999D02*
Y231000D01*
X275002Y229001D01*
X277001Y231000D01*
Y234999D01*
X279000Y229001D02*
Y234999D01*
X281999D01*
X282999Y233999D01*
Y232000D01*
X281999Y231000D01*
X279000D01*
X281000D02*
X282999Y229001D01*
X284998D02*
X286998D01*
X285998D01*
Y234999D01*
X284998Y233999D01*
X216002Y152001D02*
Y157999D01*
X219001D01*
X220000Y156999D01*
Y155000D01*
X219001Y154000D01*
X216002D01*
X218001D02*
X220000Y152001D01*
X222000Y157999D02*
X225998D01*
Y156999D01*
X222000Y153001D01*
Y152001D01*
X216002Y167001D02*
Y172999D01*
X219001D01*
X220000Y171999D01*
Y170000D01*
X219001Y169000D01*
X216002D01*
X218001D02*
X220000Y167001D01*
X225998Y172999D02*
X223999Y171999D01*
X222000Y170000D01*
Y168001D01*
X222999Y167001D01*
X224999D01*
X225998Y168001D01*
Y169000D01*
X224999Y170000D01*
X222000D01*
X200001Y217999D02*
Y213001D01*
X201001Y212001D01*
X203000D01*
X204000Y213001D01*
Y217999D01*
X205999Y212001D02*
X207999D01*
X206999D01*
Y217999D01*
X205999Y216999D01*
X382999Y178002D02*
X377001D01*
Y181001D01*
X378001Y182000D01*
X380000D01*
X381000Y181001D01*
Y178002D01*
Y180001D02*
X382999Y182000D01*
X377001Y187998D02*
Y184000D01*
X380000D01*
X379000Y185999D01*
Y186999D01*
X380000Y187998D01*
X381999D01*
X382999Y186999D01*
Y184999D01*
X381999Y184000D01*
X243002Y247001D02*
Y252999D01*
X246001D01*
X247000Y251999D01*
Y250000D01*
X246001Y249000D01*
X243002D01*
X245001D02*
X247000Y247001D01*
X249000Y251999D02*
X249999Y252999D01*
X251999D01*
X252998Y251999D01*
Y251000D01*
X251999Y250000D01*
X250999D01*
X251999D01*
X252998Y249000D01*
Y248001D01*
X251999Y247001D01*
X249999D01*
X249000Y248001D01*
X207002Y251001D02*
Y256999D01*
X210001D01*
X211000Y255999D01*
Y254000D01*
X210001Y253000D01*
X207002D01*
X209001D02*
X211000Y251001D01*
X216998D02*
X213000D01*
X216998Y255000D01*
Y255999D01*
X215999Y256999D01*
X213999D01*
X213000Y255999D01*
X120001Y195001D02*
Y200999D01*
X123000D01*
X124000Y199999D01*
Y198000D01*
X123000Y197000D01*
X120001D01*
X122001D02*
X124000Y195001D01*
X125999D02*
X127999D01*
X126999D01*
Y200999D01*
X125999Y199999D01*
X190002Y194001D02*
Y199999D01*
X193001D01*
X194001Y198999D01*
Y197000D01*
X193001Y196000D01*
X190002D01*
X199999Y198999D02*
X198999Y199999D01*
X197000D01*
X196000Y198999D01*
Y198000D01*
X197000Y197000D01*
X198999D01*
X199999Y196000D01*
Y195001D01*
X198999Y194001D01*
X197000D01*
X196000Y195001D01*
X201998Y194001D02*
X203998D01*
X202998D01*
Y199999D01*
X201998Y198999D01*
X141572Y126001D02*
Y131999D01*
X144571D01*
X145571Y130999D01*
Y129000D01*
X144571Y128000D01*
X141572D01*
X147570Y126001D02*
X149570D01*
X148570D01*
Y131999D01*
X147570Y130999D01*
X307208Y114999D02*
Y109001D01*
X310207D01*
X311207Y110001D01*
Y113999D01*
X310207Y114999D01*
X307208D01*
X317205Y113999D02*
X316205Y114999D01*
X314206D01*
X313206Y113999D01*
Y113000D01*
X314206Y112000D01*
X316205D01*
X317205Y111000D01*
Y110001D01*
X316205Y109001D01*
X314206D01*
X313206Y110001D01*
X319204Y109001D02*
X321203D01*
X320204D01*
Y114999D01*
X319204Y113999D01*
X324202Y109001D02*
X326202D01*
X325202D01*
Y114999D01*
X324202Y113999D01*
X306208Y128592D02*
Y122594D01*
X309207D01*
X310207Y123593D01*
Y127592D01*
X309207Y128592D01*
X306208D01*
X316205Y127592D02*
X315205Y128592D01*
X313206D01*
X312206Y127592D01*
Y126592D01*
X313206Y125593D01*
X315205D01*
X316205Y124593D01*
Y123593D01*
X315205Y122594D01*
X313206D01*
X312206Y123593D01*
X318204Y122594D02*
X320204D01*
X319204D01*
Y128592D01*
X318204Y127592D01*
X323203D02*
X324202Y128592D01*
X326202D01*
X327201Y127592D01*
Y123593D01*
X326202Y122594D01*
X324202D01*
X323203Y123593D01*
Y127592D01*
X310707Y142184D02*
Y136186D01*
X313706D01*
X314706Y137186D01*
Y141185D01*
X313706Y142184D01*
X310707D01*
X320704Y141185D02*
X319704Y142184D01*
X317705D01*
X316705Y141185D01*
Y140185D01*
X317705Y139186D01*
X319704D01*
X320704Y138186D01*
Y137186D01*
X319704Y136186D01*
X317705D01*
X316705Y137186D01*
X322703D02*
X323703Y136186D01*
X325703D01*
X326702Y137186D01*
Y141185D01*
X325703Y142184D01*
X323703D01*
X322703Y141185D01*
Y140185D01*
X323703Y139186D01*
X326702D01*
X310707Y196221D02*
Y190223D01*
X313706D01*
X314706Y191222D01*
Y195221D01*
X313706Y196221D01*
X310707D01*
X320704Y195221D02*
X319704Y196221D01*
X317705D01*
X316705Y195221D01*
Y194221D01*
X317705Y193222D01*
X319704D01*
X320704Y192222D01*
Y191222D01*
X319704Y190223D01*
X317705D01*
X316705Y191222D01*
X326702Y196221D02*
X322703D01*
Y193222D01*
X324703Y194221D01*
X325703D01*
X326702Y193222D01*
Y191222D01*
X325703Y190223D01*
X323703D01*
X322703Y191222D01*
X310707Y210813D02*
Y204815D01*
X313706D01*
X314706Y205815D01*
Y209814D01*
X313706Y210813D01*
X310707D01*
X320704Y209814D02*
X319704Y210813D01*
X317705D01*
X316705Y209814D01*
Y208814D01*
X317705Y207815D01*
X319704D01*
X320704Y206815D01*
Y205815D01*
X319704Y204815D01*
X317705D01*
X316705Y205815D01*
X325703Y204815D02*
Y210813D01*
X322703Y207815D01*
X326702D01*
X310707Y224406D02*
Y218408D01*
X313706D01*
X314706Y219408D01*
Y223407D01*
X313706Y224406D01*
X310707D01*
X320704Y223407D02*
X319704Y224406D01*
X317705D01*
X316705Y223407D01*
Y222407D01*
X317705Y221407D01*
X319704D01*
X320704Y220408D01*
Y219408D01*
X319704Y218408D01*
X317705D01*
X316705Y219408D01*
X322703Y223407D02*
X323703Y224406D01*
X325703D01*
X326702Y223407D01*
Y222407D01*
X325703Y221407D01*
X324703D01*
X325703D01*
X326702Y220408D01*
Y219408D01*
X325703Y218408D01*
X323703D01*
X322703Y219408D01*
X310707Y237999D02*
Y232001D01*
X313706D01*
X314706Y233001D01*
Y236999D01*
X313706Y237999D01*
X310707D01*
X320704Y236999D02*
X319704Y237999D01*
X317705D01*
X316705Y236999D01*
Y236000D01*
X317705Y235000D01*
X319704D01*
X320704Y234000D01*
Y233001D01*
X319704Y232001D01*
X317705D01*
X316705Y233001D01*
X326702Y232001D02*
X322703D01*
X326702Y236000D01*
Y236999D01*
X325703Y237999D01*
X323703D01*
X322703Y236999D01*
X126002Y234999D02*
Y229001D01*
X129001D01*
X130001Y230001D01*
Y233999D01*
X129001Y234999D01*
X126002D01*
X135999Y233999D02*
X134999Y234999D01*
X133000D01*
X132000Y233999D01*
Y233000D01*
X133000Y232000D01*
X134999D01*
X135999Y231000D01*
Y230001D01*
X134999Y229001D01*
X133000D01*
X132000Y230001D01*
X137998Y229001D02*
X139998D01*
X138998D01*
Y234999D01*
X137998Y233999D01*
X318002Y154935D02*
Y148937D01*
X321001D01*
X322000Y149936D01*
Y153935D01*
X321001Y154935D01*
X318002D01*
X324000Y153935D02*
X324999Y154935D01*
X326999D01*
X327998Y153935D01*
Y152935D01*
X326999Y151936D01*
X327998Y150936D01*
Y149936D01*
X326999Y148937D01*
X324999D01*
X324000Y149936D01*
Y150936D01*
X324999Y151936D01*
X324000Y152935D01*
Y153935D01*
X324999Y151936D02*
X326999D01*
X316868Y168527D02*
Y162529D01*
X319867D01*
X320866Y163529D01*
Y167528D01*
X319867Y168527D01*
X316868D01*
X322866D02*
X326865D01*
Y167528D01*
X322866Y163529D01*
Y162529D01*
X317002Y182120D02*
Y176122D01*
X320001D01*
X321000Y177122D01*
Y181121D01*
X320001Y182120D01*
X317002D01*
X326998D02*
X324999Y181121D01*
X323000Y179121D01*
Y177122D01*
X323999Y176122D01*
X325999D01*
X326998Y177122D01*
Y178121D01*
X325999Y179121D01*
X323000D01*
X134367Y178999D02*
X133367Y179999D01*
X131368D01*
X130368Y178999D01*
Y175001D01*
X131368Y174001D01*
X133367D01*
X134367Y175001D01*
X140365Y174001D02*
X136366D01*
X140365Y178000D01*
Y178999D01*
X139365Y179999D01*
X137365D01*
X136366Y178999D01*
D16*
X190800Y281797D02*
Y273466D01*
X192466Y271800D01*
X195798D01*
X197465Y273466D01*
Y281797D01*
X200797Y271800D02*
Y281797D01*
X204129Y278465D01*
X207461Y281797D01*
Y271800D01*
X217458Y280131D02*
X215792Y281797D01*
X212460D01*
X210793Y280131D01*
Y278465D01*
X212460Y276798D01*
X215792D01*
X217458Y275132D01*
Y273466D01*
X215792Y271800D01*
X212460D01*
X210793Y273466D01*
X220790Y271800D02*
Y278465D01*
X224123Y281797D01*
X227455Y278465D01*
Y271800D01*
Y276798D01*
X220790D01*
X237452Y281797D02*
X230787D01*
Y271800D01*
X237452D01*
X230787Y276798D02*
X234119D01*
X257445Y281797D02*
X250781D01*
Y271800D01*
X257445D01*
X250781Y276798D02*
X254113D01*
X260777Y271800D02*
X264110D01*
X262443D01*
Y281797D01*
X260777D01*
X274106Y271800D02*
X270774D01*
X269108Y273466D01*
Y276798D01*
X270774Y278465D01*
X274106D01*
X275773Y276798D01*
Y275132D01*
X269108D01*
X285769Y278465D02*
X280771D01*
X279105Y276798D01*
Y273466D01*
X280771Y271800D01*
X285769D01*
X290768Y280131D02*
Y278465D01*
X289102D01*
X292434D01*
X290768D01*
Y273466D01*
X292434Y271800D01*
X297432Y278465D02*
Y271800D01*
Y275132D01*
X299098Y276798D01*
X300764Y278465D01*
X302431D01*
X307429Y271800D02*
X310761D01*
X309095D01*
Y278465D01*
X307429D01*
X322424D02*
X317426D01*
X315760Y276798D01*
Y273466D01*
X317426Y271800D01*
X322424D01*
D17*
X230300Y98299D02*
Y94300D01*
Y96299D01*
X231300Y97299D01*
X232299Y98299D01*
X233299D01*
X239297Y94300D02*
X237298D01*
X236298Y95300D01*
Y97299D01*
X237298Y98299D01*
X239297D01*
X240297Y97299D01*
Y96299D01*
X236298D01*
X242296Y98299D02*
X244296Y94300D01*
X246295Y98299D01*
X248294Y99298D02*
X249294Y100298D01*
X251293D01*
X252293Y99298D01*
Y95300D01*
X251293Y94300D01*
X249294D01*
X248294Y95300D01*
Y99298D01*
X254292Y94300D02*
X256292D01*
X255292D01*
Y100298D01*
X254292Y99298D01*
X138300Y95300D02*
Y101298D01*
X141299D01*
X142299Y100298D01*
Y98299D01*
X141299Y97299D01*
X138300D01*
X148297Y100298D02*
X147297Y101298D01*
X145298D01*
X144298Y100298D01*
Y96299D01*
X145298Y95300D01*
X147297D01*
X148297Y96299D01*
X150296Y101298D02*
Y95300D01*
X153295D01*
X154295Y96299D01*
Y97299D01*
X153295Y98299D01*
X150296D01*
X153295D01*
X154295Y99298D01*
Y100298D01*
X153295Y101298D01*
X150296D01*
X156294Y94300D02*
X160293D01*
X165291Y101298D02*
X163292D01*
X162292Y100298D01*
Y96299D01*
X163292Y95300D01*
X165291D01*
X166291Y96299D01*
Y100298D01*
X165291Y101298D01*
X168290Y95300D02*
Y101298D01*
X172289Y95300D01*
Y101298D01*
X174288D02*
Y95300D01*
X177287D01*
X178287Y96299D01*
Y97299D01*
X177287Y98299D01*
X174288D01*
X177287D01*
X178287Y99298D01*
Y100298D01*
X177287Y101298D01*
X174288D01*
X183285D02*
X181286D01*
X180286Y100298D01*
Y96299D01*
X181286Y95300D01*
X183285D01*
X184285Y96299D01*
Y100298D01*
X183285Y101298D01*
X186284Y95300D02*
Y99298D01*
X188284Y101298D01*
X190283Y99298D01*
Y95300D01*
Y98299D01*
X186284D01*
X192282Y95300D02*
Y101298D01*
X195282D01*
X196281Y100298D01*
Y98299D01*
X195282Y97299D01*
X192282D01*
X194282D02*
X196281Y95300D01*
X198281Y101298D02*
Y95300D01*
X201280D01*
X202279Y96299D01*
Y100298D01*
X201280Y101298D01*
X198281D01*
X204279D02*
X206278D01*
X205278D01*
Y95300D01*
X204279D01*
X206278D01*
X209277D02*
Y101298D01*
X213276Y95300D01*
Y101298D01*
X219274Y100298D02*
X218274Y101298D01*
X216275D01*
X215275Y100298D01*
Y96299D01*
X216275Y95300D01*
X218274D01*
X219274Y96299D01*
Y98299D01*
X217274D01*
M02*
