G04*
G04 #@! TF.GenerationSoftware,Altium Limited,Altium Designer,25.8.1 (18)*
G04*
G04 Layer_Color=16711935*
%FSLAX25Y25*%
%MOIN*%
G70*
G04*
G04 #@! TF.SameCoordinates,388448DE-4009-46C6-BC9F-7F365E803C92*
G04*
G04*
G04 #@! TF.FilePolarity,Negative*
G04*
G01*
G75*
%ADD36C,0.06706*%
%ADD37R,0.06706X0.06706*%
%ADD38R,0.05721X0.05721*%
%ADD39C,0.05721*%
%ADD40R,0.06902X0.06902*%
%ADD41C,0.06902*%
%ADD42C,0.05800*%
%ADD43C,0.20800*%
%ADD54R,0.05138X0.04355*%
%ADD55R,0.04355X0.05138*%
D36*
X157000Y194000D02*
D03*
X167000D02*
D03*
D37*
X177000D02*
D03*
D38*
X255862Y213000D02*
D03*
D39*
X245862Y223000D02*
D03*
X255862Y233000D02*
D03*
D40*
X157571Y129000D02*
D03*
D41*
X167571D02*
D03*
D42*
X122000Y159000D02*
D03*
X207000Y186000D02*
D03*
X224000Y162000D02*
D03*
X197000Y251000D02*
D03*
X285000Y195000D02*
D03*
D43*
X121000Y97000D02*
D03*
X394000D02*
D03*
Y267000D02*
D03*
X121000D02*
D03*
D54*
X154848Y206000D02*
D03*
X169848Y181000D02*
D03*
X161152Y206000D02*
D03*
X176152Y181000D02*
D03*
D55*
X236000Y206848D02*
D03*
Y213152D02*
D03*
M02*
