G04*
G04 #@! TF.GenerationSoftware,Altium Limited,Altium Designer,25.8.1 (18)*
G04*
G04 Layer_Color=32896*
%FSLAX25Y25*%
%MOIN*%
G70*
G04*
G04 #@! TF.SameCoordinates,388448DE-4009-46C6-BC9F-7F365E803C92*
G04*
G04*
G04 #@! TF.FilePolarity,Positive*
G04*
G01*
G75*
%ADD13C,0.00787*%
%ADD15C,0.01000*%
D13*
X239752Y204279D02*
Y215721D01*
X232248Y204279D02*
Y215721D01*
X167279Y177248D02*
X178721D01*
X167279Y184752D02*
X178721D01*
X152279Y202248D02*
X163721D01*
X152279Y209752D02*
X163721D01*
D15*
X225000Y207999D02*
X225999Y208999D01*
X227999D01*
X228998Y207999D01*
Y204001D01*
X227999Y203001D01*
X225999D01*
X225000Y204001D01*
X220001Y203001D02*
Y208999D01*
X223000Y206000D01*
X219002D01*
X173999Y207000D02*
X174999Y206001D01*
Y204001D01*
X173999Y203002D01*
X170001D01*
X169001Y204001D01*
Y206001D01*
X170001Y207000D01*
X173999Y209000D02*
X174999Y209999D01*
Y211999D01*
X173999Y212998D01*
X173000D01*
X172000Y211999D01*
Y210999D01*
Y211999D01*
X171000Y212998D01*
X170001D01*
X169001Y211999D01*
Y209999D01*
X170001Y209000D01*
X187000Y183999D02*
X188000Y184999D01*
X189999D01*
X190999Y183999D01*
Y180001D01*
X189999Y179001D01*
X188000D01*
X187000Y180001D01*
X185001Y179001D02*
X183001D01*
X184001D01*
Y184999D01*
X185001Y183999D01*
M02*
