G04*
G04 #@! TF.GenerationSoftware,Altium Limited,Altium Designer,22.11.1 (43)*
G04*
G04 Layer_Color=8388736*
%FSLAX23Y23*%
%MOIN*%
G70*
G04*
G04 #@! TF.SameCoordinates,04B4AB74-AA84-4CEB-9DF3-F5B4E246035C*
G04*
G04*
G04 #@! TF.FilePolarity,Negative*
G04*
G01*
G75*
%ADD30R,0.039X0.039*%
%ADD32R,0.041X0.034*%
%ADD33R,0.051X0.030*%
%ADD34R,0.041X0.037*%
%ADD35R,0.037X0.041*%
%ADD36R,0.037X0.041*%
%ADD37R,0.028X0.096*%
G04:AMPARAMS|DCode=38|XSize=32mil|YSize=71mil|CornerRadius=5mil|HoleSize=0mil|Usage=FLASHONLY|Rotation=90.000|XOffset=0mil|YOffset=0mil|HoleType=Round|Shape=RoundedRectangle|*
%AMROUNDEDRECTD38*
21,1,0.032,0.061,0,0,90.0*
21,1,0.022,0.071,0,0,90.0*
1,1,0.010,0.031,0.011*
1,1,0.010,0.031,-0.011*
1,1,0.010,-0.031,-0.011*
1,1,0.010,-0.031,0.011*
%
%ADD38ROUNDEDRECTD38*%
%ADD39R,0.034X0.041*%
%ADD40R,0.041X0.037*%
%ADD41C,0.065*%
%ADD42C,0.256*%
%ADD43R,0.065X0.065*%
%ADD44C,0.083*%
%ADD45R,0.083X0.083*%
%ADD46C,0.039*%
%ADD47C,0.061*%
%ADD48C,0.037*%
G36*
X4847Y4152D02*
X4854Y4149D01*
X4860Y4145D01*
X4864Y4139D01*
X4867Y4132D01*
X4868Y4125D01*
X4867Y4118D01*
X4864Y4111D01*
X4860Y4105D01*
X4854Y4101D01*
X4847Y4098D01*
X4840Y4097D01*
X4833Y4098D01*
X4826Y4101D01*
X4820Y4105D01*
X4816Y4111D01*
X4813Y4118D01*
X4812Y4125D01*
X4813Y4132D01*
X4816Y4139D01*
X4820Y4145D01*
X4826Y4149D01*
X4833Y4152D01*
X4840Y4153D01*
X4847Y4152D01*
D02*
G37*
G36*
X5442Y2707D02*
X5449Y2704D01*
X5455Y2700D01*
X5459Y2694D01*
X5462Y2687D01*
X5463Y2680D01*
X5462Y2673D01*
X5459Y2666D01*
X5455Y2660D01*
X5449Y2656D01*
X5442Y2653D01*
X5435Y2652D01*
X5428Y2653D01*
X5421Y2656D01*
X5415Y2660D01*
X5411Y2666D01*
X5408Y2673D01*
X5407Y2680D01*
X5408Y2687D01*
X5411Y2694D01*
X5415Y2700D01*
X5421Y2704D01*
X5428Y2707D01*
X5435Y2708D01*
X5442Y2707D01*
D02*
G37*
G36*
X5342D02*
X5349Y2704D01*
X5355Y2700D01*
X5359Y2694D01*
X5362Y2687D01*
X5363Y2680D01*
X5362Y2673D01*
X5359Y2666D01*
X5355Y2660D01*
X5349Y2656D01*
X5342Y2653D01*
X5335Y2652D01*
X5328Y2653D01*
X5321Y2656D01*
X5315Y2660D01*
X5311Y2666D01*
X5308Y2673D01*
X5307Y2680D01*
X5308Y2687D01*
X5311Y2694D01*
X5315Y2700D01*
X5321Y2704D01*
X5328Y2707D01*
X5335Y2708D01*
X5342Y2707D01*
D02*
G37*
G36*
X5242D02*
X5249Y2704D01*
X5255Y2700D01*
X5259Y2694D01*
X5262Y2687D01*
X5263Y2680D01*
X5262Y2673D01*
X5259Y2666D01*
X5255Y2660D01*
X5249Y2656D01*
X5242Y2653D01*
X5235Y2652D01*
X5228Y2653D01*
X5221Y2656D01*
X5215Y2660D01*
X5211Y2666D01*
X5208Y2673D01*
X5207Y2680D01*
X5208Y2687D01*
X5211Y2694D01*
X5215Y2700D01*
X5221Y2704D01*
X5228Y2707D01*
X5235Y2708D01*
X5242Y2707D01*
D02*
G37*
G36*
X5142D02*
X5149Y2704D01*
X5155Y2700D01*
X5159Y2694D01*
X5162Y2687D01*
X5163Y2680D01*
X5162Y2673D01*
X5159Y2666D01*
X5155Y2660D01*
X5149Y2656D01*
X5142Y2653D01*
X5135Y2652D01*
X5128Y2653D01*
X5121Y2656D01*
X5115Y2660D01*
X5111Y2666D01*
X5108Y2673D01*
X5107Y2680D01*
X5108Y2687D01*
X5111Y2694D01*
X5115Y2700D01*
X5121Y2704D01*
X5128Y2707D01*
X5135Y2708D01*
X5142Y2707D01*
D02*
G37*
G36*
X5042D02*
X5049Y2704D01*
X5055Y2700D01*
X5059Y2694D01*
X5062Y2687D01*
X5063Y2680D01*
X5062Y2673D01*
X5059Y2666D01*
X5055Y2660D01*
X5049Y2656D01*
X5042Y2653D01*
X5035Y2652D01*
X5028Y2653D01*
X5021Y2656D01*
X5015Y2660D01*
X5011Y2666D01*
X5008Y2673D01*
X5007Y2680D01*
X5008Y2687D01*
X5011Y2694D01*
X5015Y2700D01*
X5021Y2704D01*
X5028Y2707D01*
X5035Y2708D01*
X5042Y2707D01*
D02*
G37*
G36*
X5535Y2652D02*
X5528Y2653D01*
X5521Y2656D01*
X5515Y2660D01*
X5511Y2666D01*
X5508Y2673D01*
X5507Y2680D01*
X5508Y2687D01*
X5511Y2694D01*
X5515Y2700D01*
X5521Y2704D01*
X5528Y2707D01*
X5535Y2708D01*
D01*
X5542Y2707D01*
X5549Y2704D01*
X5555Y2700D01*
X5559Y2694D01*
X5562Y2687D01*
X5563Y2680D01*
X5562Y2673D01*
X5559Y2666D01*
X5555Y2660D01*
X5549Y2656D01*
X5542Y2653D01*
X5535Y2652D01*
D01*
D02*
G37*
G36*
X5870Y2708D02*
X5877Y2707D01*
X5884Y2704D01*
X5890Y2700D01*
X5894Y2694D01*
X5897Y2687D01*
X5898Y2680D01*
X5897Y2673D01*
X5894Y2666D01*
X5890Y2660D01*
X5884Y2656D01*
X5877Y2653D01*
X5870Y2652D01*
D01*
X5863Y2653D01*
X5856Y2656D01*
X5850Y2660D01*
X5846Y2666D01*
X5843Y2673D01*
X5842Y2680D01*
X5843Y2687D01*
X5846Y2694D01*
X5850Y2700D01*
X5856Y2704D01*
X5863Y2707D01*
X5870Y2708D01*
D01*
D02*
G37*
G36*
X5970D02*
X5977Y2707D01*
X5984Y2704D01*
X5990Y2700D01*
X5994Y2694D01*
X5997Y2687D01*
X5998Y2680D01*
X5997Y2673D01*
X5994Y2666D01*
X5990Y2660D01*
X5984Y2656D01*
X5977Y2653D01*
X5970Y2652D01*
D01*
X5963Y2653D01*
X5956Y2656D01*
X5950Y2660D01*
X5946Y2666D01*
X5943Y2673D01*
X5942Y2680D01*
X5943Y2687D01*
X5946Y2694D01*
X5950Y2700D01*
X5956Y2704D01*
X5963Y2707D01*
X5970Y2708D01*
D01*
D02*
G37*
G36*
X6070D02*
X6077Y2707D01*
X6084Y2704D01*
X6090Y2700D01*
X6094Y2694D01*
X6097Y2687D01*
X6098Y2680D01*
X6097Y2673D01*
X6094Y2666D01*
X6090Y2660D01*
X6084Y2656D01*
X6077Y2653D01*
X6070Y2652D01*
D01*
X6063Y2653D01*
X6056Y2656D01*
X6050Y2660D01*
X6046Y2666D01*
X6043Y2673D01*
X6042Y2680D01*
X6043Y2687D01*
X6046Y2694D01*
X6050Y2700D01*
X6056Y2704D01*
X6063Y2707D01*
X6070Y2708D01*
D01*
D02*
G37*
G36*
X6170D02*
X6177Y2707D01*
X6184Y2704D01*
X6190Y2700D01*
X6194Y2694D01*
X6197Y2687D01*
X6198Y2680D01*
X6197Y2673D01*
X6194Y2666D01*
X6190Y2660D01*
X6184Y2656D01*
X6177Y2653D01*
X6170Y2652D01*
D01*
X6163Y2653D01*
X6156Y2656D01*
X6150Y2660D01*
X6146Y2666D01*
X6143Y2673D01*
X6142Y2680D01*
X6143Y2687D01*
X6146Y2694D01*
X6150Y2700D01*
X6156Y2704D01*
X6163Y2707D01*
X6170Y2708D01*
D01*
D02*
G37*
G36*
X6270D02*
X6277Y2707D01*
X6284Y2704D01*
X6290Y2700D01*
X6294Y2694D01*
X6297Y2687D01*
X6298Y2680D01*
X6297Y2673D01*
X6294Y2666D01*
X6290Y2660D01*
X6284Y2656D01*
X6277Y2653D01*
X6270Y2652D01*
D01*
X6263Y2653D01*
X6256Y2656D01*
X6250Y2660D01*
X6246Y2666D01*
X6243Y2673D01*
X6242Y2680D01*
X6243Y2687D01*
X6246Y2694D01*
X6250Y2700D01*
X6256Y2704D01*
X6263Y2707D01*
X6270Y2708D01*
D01*
D02*
G37*
G36*
X6370D02*
X6377Y2707D01*
X6384Y2704D01*
X6390Y2700D01*
X6394Y2694D01*
X6397Y2687D01*
X6398Y2680D01*
X6397Y2673D01*
X6394Y2666D01*
X6390Y2660D01*
X6384Y2656D01*
X6377Y2653D01*
X6370Y2652D01*
D01*
X6363Y2653D01*
X6356Y2656D01*
X6350Y2660D01*
X6346Y2666D01*
X6343Y2673D01*
X6342Y2680D01*
X6343Y2687D01*
X6346Y2694D01*
X6350Y2700D01*
X6356Y2704D01*
X6363Y2707D01*
X6370Y2708D01*
D01*
D02*
G37*
G36*
X5727Y4699D02*
X5734Y4696D01*
X5740Y4691D01*
X5745Y4685D01*
X5748Y4678D01*
X5749Y4670D01*
X5748Y4662D01*
X5745Y4655D01*
X5740Y4649D01*
X5734Y4644D01*
X5727Y4641D01*
X5719Y4640D01*
X5711Y4641D01*
X5704Y4644D01*
X5697Y4649D01*
X5693Y4655D01*
X5690Y4662D01*
X5689Y4670D01*
X5690Y4678D01*
X5693Y4685D01*
X5697Y4691D01*
X5704Y4696D01*
X5711Y4699D01*
X5719Y4700D01*
X5727Y4699D01*
D02*
G37*
G36*
X5627D02*
X5634Y4696D01*
X5640Y4691D01*
X5645Y4685D01*
X5648Y4678D01*
X5649Y4670D01*
X5648Y4662D01*
X5645Y4655D01*
X5640Y4649D01*
X5634Y4644D01*
X5627Y4641D01*
X5619Y4640D01*
X5611Y4641D01*
X5604Y4644D01*
X5597Y4649D01*
X5593Y4655D01*
X5590Y4662D01*
X5589Y4670D01*
X5590Y4678D01*
X5593Y4685D01*
X5597Y4691D01*
X5604Y4696D01*
X5611Y4699D01*
X5619Y4700D01*
X5627Y4699D01*
D02*
G37*
G36*
X4847Y4652D02*
X4854Y4649D01*
X4860Y4645D01*
X4864Y4639D01*
X4867Y4632D01*
X4868Y4625D01*
X4867Y4618D01*
X4864Y4611D01*
X4860Y4605D01*
X4854Y4601D01*
X4847Y4598D01*
X4840Y4597D01*
X4833Y4598D01*
X4826Y4601D01*
X4820Y4605D01*
X4816Y4611D01*
X4813Y4618D01*
X4812Y4625D01*
X4813Y4632D01*
X4816Y4639D01*
X4820Y4645D01*
X4826Y4649D01*
X4833Y4652D01*
X4840Y4653D01*
X4847Y4652D01*
D02*
G37*
G36*
Y4552D02*
X4854Y4549D01*
X4860Y4545D01*
X4864Y4539D01*
X4867Y4532D01*
X4868Y4525D01*
X4867Y4518D01*
X4864Y4511D01*
X4860Y4505D01*
X4854Y4501D01*
X4847Y4498D01*
X4840Y4497D01*
X4833Y4498D01*
X4826Y4501D01*
X4820Y4505D01*
X4816Y4511D01*
X4813Y4518D01*
X4812Y4525D01*
X4813Y4532D01*
X4816Y4539D01*
X4820Y4545D01*
X4826Y4549D01*
X4833Y4552D01*
X4840Y4553D01*
X4847Y4552D01*
D02*
G37*
G36*
Y4452D02*
X4854Y4449D01*
X4860Y4445D01*
X4864Y4439D01*
X4867Y4432D01*
X4868Y4425D01*
X4867Y4418D01*
X4864Y4411D01*
X4860Y4405D01*
X4854Y4401D01*
X4847Y4398D01*
X4840Y4397D01*
X4833Y4398D01*
X4826Y4401D01*
X4820Y4405D01*
X4816Y4411D01*
X4813Y4418D01*
X4812Y4425D01*
X4813Y4432D01*
X4816Y4439D01*
X4820Y4445D01*
X4826Y4449D01*
X4833Y4452D01*
X4840Y4453D01*
X4847Y4452D01*
D02*
G37*
G36*
Y4352D02*
X4854Y4349D01*
X4860Y4345D01*
X4864Y4339D01*
X4867Y4332D01*
X4868Y4325D01*
X4867Y4318D01*
X4864Y4311D01*
X4860Y4305D01*
X4854Y4301D01*
X4847Y4298D01*
X4840Y4297D01*
X4833Y4298D01*
X4826Y4301D01*
X4820Y4305D01*
X4816Y4311D01*
X4813Y4318D01*
X4812Y4325D01*
X4813Y4332D01*
X4816Y4339D01*
X4820Y4345D01*
X4826Y4349D01*
X4833Y4352D01*
X4840Y4353D01*
X4847Y4352D01*
D02*
G37*
G36*
Y4252D02*
X4854Y4249D01*
X4860Y4245D01*
X4864Y4239D01*
X4867Y4232D01*
X4868Y4225D01*
X4867Y4218D01*
X4864Y4211D01*
X4860Y4205D01*
X4854Y4201D01*
X4847Y4198D01*
X4840Y4197D01*
X4833Y4198D01*
X4826Y4201D01*
X4820Y4205D01*
X4816Y4211D01*
X4813Y4218D01*
X4812Y4225D01*
X4813Y4232D01*
X4816Y4239D01*
X4820Y4245D01*
X4826Y4249D01*
X4833Y4252D01*
X4840Y4253D01*
X4847Y4252D01*
D02*
G37*
G36*
X6072Y4350D02*
X6073Y4357D01*
X6076Y4364D01*
X6080Y4370D01*
X6086Y4374D01*
X6093Y4377D01*
X6100Y4378D01*
X6107Y4377D01*
X6114Y4374D01*
X6120Y4370D01*
X6124Y4364D01*
X6127Y4357D01*
X6128Y4350D01*
D01*
X6127Y4343D01*
X6124Y4336D01*
X6120Y4330D01*
X6114Y4326D01*
X6107Y4323D01*
X6100Y4322D01*
X6093Y4323D01*
X6086Y4326D01*
X6080Y4330D01*
X6076Y4336D01*
X6073Y4343D01*
X6072Y4350D01*
D01*
D02*
G37*
G36*
Y4450D02*
X6073Y4457D01*
X6076Y4464D01*
X6080Y4470D01*
X6086Y4474D01*
X6093Y4477D01*
X6100Y4478D01*
X6107Y4477D01*
X6114Y4474D01*
X6120Y4470D01*
X6124Y4464D01*
X6127Y4457D01*
X6128Y4450D01*
D01*
X6127Y4443D01*
X6124Y4436D01*
X6120Y4430D01*
X6114Y4426D01*
X6107Y4423D01*
X6100Y4422D01*
X6093Y4423D01*
X6086Y4426D01*
X6080Y4430D01*
X6076Y4436D01*
X6073Y4443D01*
X6072Y4450D01*
D01*
D02*
G37*
G36*
Y4550D02*
X6073Y4557D01*
X6076Y4564D01*
X6080Y4570D01*
X6086Y4574D01*
X6093Y4577D01*
X6100Y4578D01*
X6107Y4577D01*
X6114Y4574D01*
X6120Y4570D01*
X6124Y4564D01*
X6127Y4557D01*
X6128Y4550D01*
D01*
X6127Y4543D01*
X6124Y4536D01*
X6120Y4530D01*
X6114Y4526D01*
X6107Y4523D01*
X6100Y4522D01*
X6093Y4523D01*
X6086Y4526D01*
X6080Y4530D01*
X6076Y4536D01*
X6073Y4543D01*
X6072Y4550D01*
D01*
D02*
G37*
G36*
Y4650D02*
X6073Y4657D01*
X6076Y4664D01*
X6080Y4670D01*
X6086Y4674D01*
X6093Y4677D01*
X6100Y4678D01*
X6107Y4677D01*
X6114Y4674D01*
X6120Y4670D01*
X6124Y4664D01*
X6127Y4657D01*
X6128Y4650D01*
D01*
X6127Y4643D01*
X6124Y4636D01*
X6120Y4630D01*
X6114Y4626D01*
X6107Y4623D01*
X6100Y4622D01*
X6093Y4623D01*
X6086Y4626D01*
X6080Y4630D01*
X6076Y4636D01*
X6073Y4643D01*
X6072Y4650D01*
D01*
D02*
G37*
G36*
Y4750D02*
X6073Y4757D01*
X6076Y4764D01*
X6080Y4770D01*
X6086Y4774D01*
X6093Y4777D01*
X6100Y4778D01*
X6107Y4777D01*
X6114Y4774D01*
X6120Y4770D01*
X6124Y4764D01*
X6127Y4757D01*
X6128Y4750D01*
D01*
X6127Y4743D01*
X6124Y4736D01*
X6120Y4730D01*
X6114Y4726D01*
X6107Y4723D01*
X6100Y4722D01*
X6093Y4723D01*
X6086Y4726D01*
X6080Y4730D01*
X6076Y4736D01*
X6073Y4743D01*
X6072Y4750D01*
D01*
D02*
G37*
G36*
Y4850D02*
X6073Y4857D01*
X6076Y4864D01*
X6080Y4870D01*
X6086Y4874D01*
X6093Y4877D01*
X6100Y4878D01*
X6107Y4877D01*
X6114Y4874D01*
X6120Y4870D01*
X6124Y4864D01*
X6127Y4857D01*
X6128Y4850D01*
D01*
X6127Y4843D01*
X6124Y4836D01*
X6120Y4830D01*
X6114Y4826D01*
X6107Y4823D01*
X6100Y4822D01*
X6093Y4823D01*
X6086Y4826D01*
X6080Y4830D01*
X6076Y4836D01*
X6073Y4843D01*
X6072Y4850D01*
D01*
D02*
G37*
D30*
X4819Y4015D02*
D03*
X4886D02*
D03*
X6246D02*
D03*
X6179D02*
D03*
X5566D02*
D03*
X5499D02*
D03*
D32*
X5867Y4855D02*
D03*
Y4800D02*
D03*
D33*
X6421Y4635D02*
D03*
X6509Y4672D02*
D03*
Y4598D02*
D03*
X6332D02*
D03*
Y4672D02*
D03*
X6244Y4635D02*
D03*
X6509Y4438D02*
D03*
Y4512D02*
D03*
X6421Y4475D02*
D03*
D34*
X5927Y4800D02*
D03*
Y4855D02*
D03*
X5362Y4260D02*
D03*
Y4315D02*
D03*
X5137Y4845D02*
D03*
Y4790D02*
D03*
X5362D02*
D03*
Y4845D02*
D03*
X5287D02*
D03*
Y4790D02*
D03*
X5212Y4790D02*
D03*
Y4845D02*
D03*
X5437Y4790D02*
D03*
Y4845D02*
D03*
X5212Y4315D02*
D03*
Y4260D02*
D03*
X5437Y4315D02*
D03*
Y4260D02*
D03*
X5137Y4315D02*
D03*
Y4260D02*
D03*
X5287Y4260D02*
D03*
Y4315D02*
D03*
X5062Y4260D02*
D03*
Y4315D02*
D03*
Y4790D02*
D03*
Y4845D02*
D03*
D35*
X5925Y4527D02*
D03*
X5870D02*
D03*
X6655Y4350D02*
D03*
X6600D02*
D03*
X6655Y4425D02*
D03*
X6600D02*
D03*
X6600Y4650D02*
D03*
X6655D02*
D03*
X6235Y4370D02*
D03*
X6290D02*
D03*
X6235Y4295D02*
D03*
X6290D02*
D03*
X6290Y4220D02*
D03*
X6235D02*
D03*
D36*
X5897Y4613D02*
D03*
X5860Y4692D02*
D03*
X5934D02*
D03*
D37*
X5197Y4442D02*
D03*
X5147D02*
D03*
X5097D02*
D03*
X5047D02*
D03*
Y4662D02*
D03*
X5097D02*
D03*
X5147D02*
D03*
X5197D02*
D03*
X5297Y4442D02*
D03*
X5347D02*
D03*
X5397D02*
D03*
X5447D02*
D03*
Y4662D02*
D03*
X5397D02*
D03*
X5347D02*
D03*
X5297D02*
D03*
D38*
X5944Y4280D02*
D03*
Y4330D02*
D03*
Y4380D02*
D03*
Y4430D02*
D03*
X5722Y4280D02*
D03*
Y4330D02*
D03*
Y4380D02*
D03*
Y4430D02*
D03*
D39*
X6390Y4015D02*
D03*
X6335D02*
D03*
X5030D02*
D03*
X4975D02*
D03*
X5710D02*
D03*
X5655D02*
D03*
X6600Y4575D02*
D03*
X6655D02*
D03*
X6288Y4445D02*
D03*
X6233D02*
D03*
X6233Y4520D02*
D03*
X6288D02*
D03*
X6600Y4275D02*
D03*
X6655D02*
D03*
Y4500D02*
D03*
X6600D02*
D03*
X6602Y4190D02*
D03*
X6658D02*
D03*
D40*
X6504Y4293D02*
D03*
Y4367D02*
D03*
X6426Y4330D02*
D03*
D41*
X5627Y4400D02*
D03*
X6563Y4060D02*
D03*
X5883D02*
D03*
X5203D02*
D03*
D42*
X6640Y4815D02*
D03*
Y2695D02*
D03*
X4775D02*
D03*
Y4815D02*
D03*
D43*
X6663Y4060D02*
D03*
X5983D02*
D03*
X5303D02*
D03*
D44*
X6363Y2899D02*
D03*
X6215D02*
D03*
Y3499D02*
D03*
Y3698D02*
D03*
Y3896D02*
D03*
X6511Y3499D02*
D03*
Y3698D02*
D03*
Y3896D02*
D03*
X5683Y2899D02*
D03*
X5535D02*
D03*
Y3499D02*
D03*
Y3698D02*
D03*
Y3896D02*
D03*
X5831Y3499D02*
D03*
Y3698D02*
D03*
Y3896D02*
D03*
X5003Y2899D02*
D03*
X4855D02*
D03*
Y3499D02*
D03*
Y3698D02*
D03*
Y3896D02*
D03*
X5151Y3499D02*
D03*
Y3698D02*
D03*
Y3896D02*
D03*
D45*
X6511Y2899D02*
D03*
X5831D02*
D03*
X5151D02*
D03*
D46*
X6713Y4650D02*
D03*
Y4500D02*
D03*
Y4350D02*
D03*
Y4200D02*
D03*
X6675Y4125D02*
D03*
X6713Y3900D02*
D03*
Y3750D02*
D03*
X6675Y3675D02*
D03*
X6713Y3600D02*
D03*
X6675Y3525D02*
D03*
X6713Y3450D02*
D03*
X6675Y3375D02*
D03*
X6713Y3300D02*
D03*
X6675Y3225D02*
D03*
X6713Y3150D02*
D03*
Y3000D02*
D03*
X6675Y2925D02*
D03*
X6713Y2850D02*
D03*
X6600Y4125D02*
D03*
Y3675D02*
D03*
X6637Y3600D02*
D03*
Y3450D02*
D03*
Y3300D02*
D03*
Y3150D02*
D03*
Y2850D02*
D03*
X6525Y4125D02*
D03*
Y3975D02*
D03*
X6450Y4875D02*
D03*
X6488Y4800D02*
D03*
X6450Y4725D02*
D03*
Y4575D02*
D03*
Y4125D02*
D03*
X6488Y4050D02*
D03*
X6450Y3975D02*
D03*
Y3825D02*
D03*
X6488Y3600D02*
D03*
Y2700D02*
D03*
X6450Y2625D02*
D03*
X6412Y4800D02*
D03*
X6375Y4275D02*
D03*
Y4125D02*
D03*
X6412Y3900D02*
D03*
X6375Y3825D02*
D03*
Y3675D02*
D03*
Y3525D02*
D03*
Y3075D02*
D03*
Y2625D02*
D03*
X6300Y4125D02*
D03*
Y3975D02*
D03*
X6338Y3900D02*
D03*
X6300Y3825D02*
D03*
X6338Y3750D02*
D03*
X6300Y2925D02*
D03*
Y2775D02*
D03*
Y2625D02*
D03*
X6225Y4875D02*
D03*
Y4725D02*
D03*
Y4125D02*
D03*
Y2775D02*
D03*
Y2625D02*
D03*
X6150Y4875D02*
D03*
Y4575D02*
D03*
X6188Y4500D02*
D03*
X6150Y4275D02*
D03*
X6188Y4200D02*
D03*
X6150Y4125D02*
D03*
Y3525D02*
D03*
Y2925D02*
D03*
Y2775D02*
D03*
Y2625D02*
D03*
X6113Y4500D02*
D03*
X6075Y4275D02*
D03*
X6113Y4200D02*
D03*
X6075Y4125D02*
D03*
X6113Y3900D02*
D03*
Y3750D02*
D03*
X6075Y3675D02*
D03*
Y2625D02*
D03*
X6037Y4800D02*
D03*
X6000Y4725D02*
D03*
X6037Y4650D02*
D03*
X6000Y4575D02*
D03*
X6037Y4500D02*
D03*
X6000Y4425D02*
D03*
X6037Y4350D02*
D03*
X6000Y4275D02*
D03*
X6037Y4200D02*
D03*
Y3750D02*
D03*
X6000Y3525D02*
D03*
Y3225D02*
D03*
X6037Y3150D02*
D03*
X6000Y2925D02*
D03*
Y2625D02*
D03*
X5963Y4200D02*
D03*
Y3600D02*
D03*
X5925Y3525D02*
D03*
Y3375D02*
D03*
X5963Y3300D02*
D03*
Y3150D02*
D03*
X5925Y2775D02*
D03*
Y2625D02*
D03*
X5850Y4425D02*
D03*
Y4275D02*
D03*
X5887Y4200D02*
D03*
X5850Y3975D02*
D03*
X5887Y3750D02*
D03*
Y3600D02*
D03*
X5850Y2775D02*
D03*
Y2625D02*
D03*
X5812Y4800D02*
D03*
X5775Y4725D02*
D03*
X5812Y4650D02*
D03*
X5775Y4575D02*
D03*
X5812Y4050D02*
D03*
X5775Y3975D02*
D03*
Y3825D02*
D03*
X5812Y3600D02*
D03*
X5775Y2775D02*
D03*
X5812Y2700D02*
D03*
X5775Y2625D02*
D03*
X5700Y4575D02*
D03*
X5738Y4500D02*
D03*
Y3900D02*
D03*
X5700Y3825D02*
D03*
Y3675D02*
D03*
Y3525D02*
D03*
Y3075D02*
D03*
X5738Y2700D02*
D03*
X5700Y2625D02*
D03*
X5662Y4800D02*
D03*
X5625Y4725D02*
D03*
Y4575D02*
D03*
X5662Y4500D02*
D03*
Y4200D02*
D03*
X5625Y3975D02*
D03*
X5662Y3900D02*
D03*
X5625Y3825D02*
D03*
X5662Y3750D02*
D03*
X5625Y3675D02*
D03*
Y3525D02*
D03*
Y2775D02*
D03*
X5588Y4800D02*
D03*
X5550Y4725D02*
D03*
Y4575D02*
D03*
X5588Y4500D02*
D03*
X5550Y4125D02*
D03*
Y3825D02*
D03*
X5588Y3750D02*
D03*
Y2850D02*
D03*
X5550Y2775D02*
D03*
X5588Y2700D02*
D03*
X5512Y4800D02*
D03*
X5475Y4125D02*
D03*
Y3375D02*
D03*
Y2925D02*
D03*
X5438Y4200D02*
D03*
X5400Y4125D02*
D03*
Y3975D02*
D03*
Y3825D02*
D03*
X5438Y3750D02*
D03*
X5400Y3675D02*
D03*
Y3525D02*
D03*
X5438Y3300D02*
D03*
Y2850D02*
D03*
X5363Y4200D02*
D03*
X5325Y4125D02*
D03*
X5363Y4050D02*
D03*
Y3900D02*
D03*
Y3750D02*
D03*
X5325Y3525D02*
D03*
Y3225D02*
D03*
Y2925D02*
D03*
Y2775D02*
D03*
X5287Y3600D02*
D03*
X5250Y3525D02*
D03*
X5287Y3300D02*
D03*
Y3150D02*
D03*
X5250Y2925D02*
D03*
X5287Y2850D02*
D03*
X5213Y4200D02*
D03*
X5175Y3975D02*
D03*
X5213Y3750D02*
D03*
Y3600D02*
D03*
X5175Y2625D02*
D03*
X5137Y4050D02*
D03*
X5100Y3975D02*
D03*
X5137Y3600D02*
D03*
X5100Y2625D02*
D03*
X5062Y3900D02*
D03*
Y3450D02*
D03*
X5025Y2625D02*
D03*
X4950Y4875D02*
D03*
X4988Y4650D02*
D03*
X4950Y3825D02*
D03*
Y3675D02*
D03*
Y3525D02*
D03*
Y3375D02*
D03*
Y2625D02*
D03*
X4912Y4500D02*
D03*
X4875Y3825D02*
D03*
X4912Y3750D02*
D03*
Y3600D02*
D03*
Y3450D02*
D03*
X4800Y4575D02*
D03*
Y4275D02*
D03*
Y3825D02*
D03*
X4838Y3600D02*
D03*
X4762Y4650D02*
D03*
X4725Y4575D02*
D03*
X4762Y4500D02*
D03*
X4725Y4425D02*
D03*
X4762Y4350D02*
D03*
X4725Y4275D02*
D03*
X4762Y4200D02*
D03*
X4725Y4125D02*
D03*
X4762Y4050D02*
D03*
X4725Y3975D02*
D03*
Y3825D02*
D03*
Y3675D02*
D03*
Y3525D02*
D03*
Y3375D02*
D03*
Y2925D02*
D03*
X4762Y2850D02*
D03*
D47*
X6504Y4185D02*
D03*
X4970Y4198D02*
D03*
X4930Y4380D02*
D03*
X6330Y4850D02*
D03*
X5545Y4207D02*
D03*
D48*
X5245Y4355D02*
D03*
X5383Y4742D02*
D03*
X6000Y4906D02*
D03*
X5775D02*
D03*
X5619D02*
D03*
X5128D02*
D03*
X5545Y4840D02*
D03*
X5902Y4477D02*
D03*
X6335Y4475D02*
D03*
X6414Y4689D02*
D03*
X6355Y4334D02*
D03*
X5525Y4397D02*
D03*
X5239Y4644D02*
D03*
X5645Y4330D02*
D03*
X5627Y4255D02*
D03*
X5343Y4568D02*
D03*
X5239Y4475D02*
D03*
X5155Y4530D02*
D03*
X6355Y4380D02*
D03*
X5170Y4570D02*
D03*
X5220Y4745D02*
D03*
X5015Y4733D02*
D03*
X5298Y4895D02*
D03*
X6558Y4405D02*
D03*
X6425Y4525D02*
D03*
X6420Y4415D02*
D03*
X5247Y4420D02*
D03*
X6030Y3322D02*
D03*
X4955Y3250D02*
D03*
X5660D02*
D03*
X5755Y3245D02*
D03*
X6165Y3365D02*
D03*
X6355Y3260D02*
D03*
X5315Y4213D02*
D03*
X6210Y3805D02*
D03*
X6285Y3400D02*
D03*
X4895Y3100D02*
D03*
X5855D02*
D03*
X6495Y3255D02*
D03*
X6348Y4220D02*
D03*
M02*
