M48
;Layer_Color=9474304
;FILE_FORMAT=2:3
INCH,LZ
;TYPE=PLATED
T1F00S00C0.017
T2F00S00C0.028
T3F00S00C0.031
T4F00S00C0.035
T5F00S00C0.039
T6F00S00C0.040
T7F00S00C0.057
T8F00S00C0.060
T9F00S00C0.061
T10F00S00C0.063
T11F00S00C0.114
T12F00S00C0.128
T13F00S00C0.137
%
T01
X003Y0105
X00525
X006
X00675
X0075
X00825
X009
X00975
X0105
X01125
X012
X01275
X0135
X01425
X015
X01462Y01425
X01388
X01312
X01237
X012Y015
X01125
X00975
X009
X00825
X00863Y01425
X00938
X00788Y01125
X00712
X00637
X00562
X006Y012
X00675
X00637Y01275
X00562
X00525Y0135
X0045
X00375
X003
X00338Y01425
X00412
X00488
X003Y015
X01425
X01612Y01425
X01688
X01763
X01837
X01913
X01987
X02062
X02138
X02213
X02287
X02362
X02438
X02513
X02588
X02625Y0135
X0255
X02475
X024
X02325
X0225
X02175
X021
X02025
X0195
Y015
X02025
X021
X02175
X0225
X02325
X024
X02475
X0255
X02588Y01275
X02662
X02737
X02812
X02963
X03037
X03112
X03075Y0135
X03
X03092Y01411
Y01453
Y01509
Y01554
X02513Y01275
X02438
X02362
X02287
X02213
X02138
X02062
X01875Y015
Y0105
X018
X01725
X0165
X01575
X01612Y01125
X01688
X03188Y01275
X03263
X03338
X03412
X03525Y0135
X03516Y01526
X03225Y015
X03263Y01425
X03188
X03225Y0135
X0315
X03706Y01329
X038Y01344
X03791Y01296
X03915Y01396
X0406Y01484
X04057Y01542
X04193Y01401
X04463Y01275
X04004Y01188
X03968
Y01151
X04004
Y01108
X03968
Y01066
X04004
X0525Y0105
X05325
X054
X05475
X0555
X05625
X057
X05775
X0585
X05925
X06
X06075
X0615
X06225
X06188Y01125
X06113
X06037
X05963
X05887
X05812
X05738
X05662
X05588
X05512
X05438
X05363
X05287
X06262
X06338
X06412
X0645Y0105
X06525
X066
X06675
X0675
X06825
X069
X06975
X0705
X07125
X072
X07275
X0735
X07425
X075
X07575
X0765
X07725
X078
X0775Y01384
X07762Y01425
X078Y015
X07725
X07575
X075
X07425
X0735
X07387Y01425
X07463
X07537
X07613
X07312
X0705Y015
X06975
X06375Y0105
X063
X07875
X0795
X08025
X081
X08175
X0825
X08325
X08363Y01125
X08288
X08137
X08062
X07988
X07912
X08025Y012
X08062Y01275
X07838Y01425
X07875Y015
X08363Y01425
Y01575
Y01725
Y01875
Y02025
Y02175
Y02325
Y02475
Y02625
Y02775
Y02925
Y03075
X08062
X07988
X07912
X0795Y03
X08025
X081
X08062Y02925
X07988
X07912
X07838
X07875Y03
Y0285
X0795
X08025
X081
X08062Y02775
X07988
X07912
X0795Y027
X08025
X081
X08062Y02625
X07988
X07912
X0795Y0255
X08025
X081
X08062Y02475
X07988
X07912
X07838
X07875Y024
X0795
X08025
X081
X08062Y02325
X07988
X07912
X0795Y0225
X08025
X081
X08062Y02175
X07988
X08025Y021
X081
X08062Y02025
X07988
X08025Y0195
X081
X08062Y01875
X07988
X08025Y018
X081
X08062Y01725
X07988
X07912
X0795Y018
Y0195
Y021
X07838Y01875
X07875Y0165
X0795
X08025
X07988Y01575
X07912
X07688
X07725Y0165
Y018
X078
X07762Y01875
X07688
X07613
X0765Y0195
X07725
X078
X07762Y02025
X07688
X07725Y021
X07762Y02175
X07688
X07463
X07387
X07425Y021
X0735
X07312Y02025
X07162
X07108Y01985
X0705Y0195
X06975
X07012Y02025
X06938
X06713
X0675Y0195
X06609Y0198
X06562Y02025
X06338Y02175
X065Y02422
Y02514
X06529Y02598
X06577Y02455
X06598Y02389
X06938Y02325
X07012
X07005Y0247
X07088Y02475
X07125Y0255
X07162Y02625
X07088
X07038Y02648
X07012Y02775
X07088
X0705Y0285
X07238Y02775
X07312
Y02625
X0735Y0255
X07575
X07613Y02475
X07688
X07762
X078Y024
X07725
Y0255
X07762Y02625
X07688
X07725Y027
X07688Y02775
X07725Y0285
X078
X07762Y02925
X07688
X07613
X0765Y0285
X07575
X07537Y02775
X07575Y027
X07537Y02625
X07463Y02925
X07425Y03
X0735
X07387Y03075
X07463
X07312
X07012
X06938
X06863
X06787
X06713
X06412
X06338
X06262
X0645Y0285
X06488Y02775
X0675Y027
X06825
X069
X07125Y024
X07099Y01652
X07088Y01575
X07012
X06938
X06975Y0165
X06713Y01575
X06412Y01725
X07387
X0735Y0165
X07387Y01575
X07463
X07537
X07575Y018
X0765
X075
X07575Y03
X07725
X078
X07762Y03075
X07688
X0615Y03
X06037Y03075
X05963
X05887
X05812
X0585Y03
X05925
X05887Y02925
X05812
X05662
Y03075
X05588
X05512
X05438
X05475Y03
X05476Y02895
X05512Y02925
X05287
X05213
X05137
X05062
X04988
X04912
X0495Y03
X05025
X051
X05137Y03075
X05213
X05287
X0525Y03
X05287Y02775
X05062
X04988
X04912
X04838
X04762
X04725Y0285
X04688Y02925
X048Y03
X04875
X04912Y03075
X04988
X05062
X04838
X04762
X04695Y02705
X0474Y02525
X04762Y02475
X04838
X04912
X04988
X05025Y024
X051
X05062Y02325
X04988
X04912
X04838
X04762
X04688
X04725Y024
X048
X04875
X0495
Y0225
X05025
X051
X05175
X05325
X054
X0555
X05512Y02118
X05512Y02025
X05438
X05425Y0209
X05325Y021
X0525
X051
X05025
X0495
X04875
X048
X04838Y02175
X04912
X04988
X05062
X04875Y0225
X048
X04725
X04762Y02175
X04688
Y02475
X05287
X05325Y024
X057Y02395
X05738Y02325
X05812
X05887
X05963
X06188
Y02625
X05963
X05887
X05925Y027
X06
X05963Y02775
X06Y0285
X0585Y027
X0573Y0272
X0577Y02765
X057Y0255
Y018
X05775
X0585
X05925
X06
X06075
X06113Y01725
X06188
X06037
X05963
X05887
X05812
X05738
X05588Y01875
X05287
X05213
X04387
X04425Y024
X045
X04575
X0465
X04613Y02475
X04537
X046Y02552
X04645Y0256
X04685Y02576
X0465Y0285
X04613Y02925
X04575Y03
X045
X04425
X0435
X04275
X0435Y0285
X04425
X04463Y02775
X04537
X045Y027
X04425
X0435
X04387Y02775
X0413Y0288
X0407Y02875
X0409Y0292
X04003Y03032
X0396Y03095
X03635Y03032
X03525Y03
X0345
X03375
X033
X03338Y02925
X03412
X03487
X0345Y0285
X03375
X033
X03225
X03263Y02925
X03188
Y03075
X03263
X03412
Y02775
X03487
X03338
X03263
X0345Y0225
X036
X03651Y02207
X03562Y02175
X036Y021
X03638Y02025
X03713
X0375Y0195
X039
X03938Y02149
X03977Y02269
X0407Y02296
X04239Y02373
X04537Y02325
X04613
X0465Y0225
X0405Y0255
X04056Y02632
X0392Y0244
X03827Y02356
X0378Y02366
X03747Y02517
X03487Y02025
X03412
X0312Y02117
X03027
X02925Y021
X02888Y02025
X0285Y0195
X02792Y01933
Y01892
X02747
Y01933
X02703
Y01892
X02655
Y01933
X02588Y01875
X02513
X02438
X02475Y018
X02438Y01725
X02475Y0165
X0255
X02588Y01575
X02513
X02438
X02362
X02287
X02213
X02138
X02062
X01987
X01913
X01837
X01875Y0165
X0195
X02025
X021
X02175
X0225
X02325
X024
X02287Y01725
X02213
X02062
X018Y0165
X01725
X0165
Y0195
X01575
X01612Y02025
X01725Y021
X0165Y0225
X01725Y024
X018
X01875
X01913Y02325
X01987
X02025Y0225
X02062Y02175
X02213Y02325
Y02475
X02287
X0225Y0255
Y027
X02213Y02775
X02438
X02372Y02667
X02625Y027
X02662Y02775
X027Y0285
X02774Y02886
X02789Y02927
X02795Y02972
X0282Y0307
X02935Y03095
X03112Y03075
Y02925
X0312Y02705
X03075Y0273
X03054Y0269
X0301Y027
X02955Y02704
X02895Y02715
X02805Y0269
X0279Y0265
X02765Y02735
X02775Y0255
X027
X02737Y02475
X02812
X02888
X02905Y02565
X0285Y02595
X02662Y02475
X02588
X02513
X02475Y024
X02438Y02325
X02475Y0225
X024
X02325
X02625
X02525Y02062
X02475Y021
X02287Y01875
X02138Y02475
X02062
X01987
X02025Y0255
X0195
X01987Y02625
X02062
X02025Y027
X0195
X01875
X018
X01837Y02625
X01913
X01837Y02475
X01763
X01688
X01725Y0255
X01688Y02625
X01597Y0253
Y02775
X01641Y02859
X0167Y02834
X01612Y02925
X0162Y03
X018
X01763Y02775
X02025Y0285
X0225Y03
X02475
X015
X01425
X0135
X01275
X012
X01125
X01087Y02925
X01125Y0285
X01163Y02775
X01087
X0113Y02725
X01087Y02625
X01013
X00938
X00863
X00788
X00712
X00637
X00562
X00488
X00412
X00338
X00375Y027
X0045
X00525
X006
X00675
X0075
X00825
Y0255
X009
X00975
X0105
X01125
X01163Y02475
X01237
X01312
X01388
X01462
X01425Y024
X0135
X01275
X012
X01237Y02325
X01388
X01467Y0234
X015Y0225
X01425
Y021
X0135
X01275
X012
X01087Y02025
X01125Y0195
X0105
X01275
X01425
X01462Y02025
X01517Y02067
X01548Y02099
X01425Y0165
X01462Y01575
X01163
X012Y0165
X00975
X00938Y01575
X00863
X00488Y01725
X00412
X00338
X00375Y018
X0045
X00525
X00562Y01875
X00488
X00412
X00338
X00375Y0195
X0045
X00525
X006
X00637Y02025
X00562
X00488
X00412
X00338
X00375Y021
X0045
X00525
X006
X00675
X0075
X00788Y02175
X00825Y0225
X009
X00938Y02325
X00863
X00788
X00825Y024
X009
X00938Y02475
X00863
X00788
X00712
X00637
X00562
X00488
X00412
X00338
X00375Y0255
X0045
X00525
X006
X00675
X0075
X00712Y02775
X00637
X00562
X00488
X00412
X00338
X00375Y0285
X0045
X00525
X006
X00675
X00712Y02925
X00637
X00562
X00488
X00412
X00338
X00375Y03
X0045
X00525
X006
X00675
X00712Y03075
X00637
X00562
X00488
X00412
X00338
X003Y03
Y0285
Y027
Y0255
Y024
X00375
X0045
X00525
X00562Y02325
X00488
X00338
X003Y0225
X00338Y02175
X003Y021
Y0195
Y018
Y0165
X00338Y01575
X00562Y02175
X00825Y03
X01237Y02925
X01312
X01388
X01462
X015Y0285
X01425
X0135
X01388Y02775
X01462
X01312
Y03225
X01388
X01538
X01462Y03375
X01388
Y03525
X01312
X01237
X01163
X01087
X00938
X00712
X00637
X00562
X00488
X00412
X00338
X00375Y036
X0045
X00525
X006
X00675
X00637Y03675
X00562
X00488
X00412
X00338
X00375Y0375
X0045
X00525
X006
X00675
X0075
X00788Y03825
X00712
X00637
X00562
X00488
X00412
X00338
X00375Y039
X0045
X00525
X006
X00675
X0075
X00788Y03975
X00712
X00637
X00562
X00488
X00412
X00338
X00375Y0405
X0045
X00525
X006
X00675
X0075
X00712Y04125
X00637
X00562
X00488
X00412
X00338
X00375Y042
X0045
X00525
X006
X00675
X0075
X00712Y04275
X00637
X00562
X00488
X00412
X00338
X00375Y0435
X0045
X00525
X006
X00675
X0075
X00712Y04425
X00637
X00562
X00488
X00412
X00338
X00375Y045
X0045
X00525
X006
X00675
X0075
X00712Y04575
X00637
X00562
X00488
X00412
X00338
X00375Y0465
X0045
X00525
X006
X003
Y045
Y0435
Y042
Y0405
Y039
Y0375
Y036
Y0345
X00375
X0045
X00525
X006
X00675
X00712Y03375
X00637
X00562
X00488
X00412
X00338
X00375Y033
X0045
X00525
X006
X00675
X00712Y03225
X00637
X00562
X00488
X00412
X00338
X00375Y0315
X0045
X00525
X006
X00675
X00938Y03225
X01087
X01163
X01237
X012Y0375
X01125
X0105
Y039
X01125
X0135
X01425
X01462Y03825
X01388
X015Y0375
X01538Y03675
X01462Y04125
X01538Y04275
X015Y0435
X01425
X01462Y04425
X01538
X015Y045
X01425
X01462Y04575
X01538
X015Y0465
X01388Y04575
X01312Y04275
X01182Y04241
X01155Y04214
X01163Y04125
X012Y0405
X01275
X00938Y04125
Y03825
X0105Y0435
X01013Y04575
X003Y033
Y0315
X01575
X0165
X01612Y03225
X01763
X018Y0315
X01875
X02025Y0345
X02062Y03525
X02138
X01971Y03536
X02025Y036
X01987Y03675
X01913
X0195Y0375
X02025
X01987Y03825
X01913
X01837
X01763
X018Y039
X01875
X0195
X021
X02175
X0225
X02325
X024
X02475
X0255
X02438Y03975
X02475Y0405
X02513Y04125
X02588
X02662
X02737
X02812
X02888
X02963
X03Y0405
X03075
X03037Y03975
X02963
X02888
X02812
X0285Y0405
X02925
Y042
X0285
X02775
X027
Y0405
X02775
X02769Y03906
X02729Y0392
X027Y03955
X02775Y0375
X0285
X02925
X03
X03075
X03112Y03675
X03037
X02963
X02888
X02812
X0285Y036
X02925
X03
X03075
Y0345
X03
X02925
X0285
X02888Y03375
X02963
X03037
X03112
X03075Y033
X03112Y03225
X03055Y03195
X0302Y03165
X02975Y03172
X02945Y0314
X02895Y03125
X0284Y03145
X02812Y03375
X02757Y03385
X027Y0339
X02729Y0342
X0267Y03421
X02665Y03575
X02662Y03675
X02513
X02475Y036
Y0345
X0225
Y036
X02287Y03675
X02213
X0225Y0375
X02175
X02213Y03825
Y03975
X0225Y0405
X02362Y04125
X02438
X02475Y042
X02513Y04275
X02438
X02475Y0435
X0255
X02588Y04425
X02662
X02625Y045
X0255
X02475
X024
X02325
X02362Y04425
X02438
X02513
Y04575
X02588
X02662
X02625Y0465
X0255Y0468
X02505Y04675
X02438Y04575
X024Y0435
X02325
X021
X02025
X0195
X01875
X018
X01725
X0165
X01575
X01612Y04425
X01688
X01763
X01837
X01913
X01987
X02062
X02138
X021Y045
X02025
X0195
X01875
X018
X01725
X0165
X01575
X01612Y04575
X01688
X01763
X01837
X01913
X01987
X02062
X02138
X02175Y0465
X0225
X021
X02025
X0195
X01875
X018
X01725
X0165
X01575
X01612Y04275
X01688
X01763
X01837
X01913
X01987
X02062
X02025Y042
X0195
X01875
X018
X01725
X0165
X01575
X01688Y04125
X01763
X01837
X01913
X01987
X02062
X02138
X02025Y0405
X0195
X02062Y03975
X01837
X01724Y03991
X01694Y03967
X01612Y03975
X01575Y0375
X01612Y03675
X0165Y036
X01763Y03525
X01875Y0375
X024
X02438Y03825
X02775Y036
X02812Y04275
X02888
X02925Y0435
X0285
X02888Y04425
X02963
X03Y045
X02925
X0285
X02888Y04575
X02963
X03Y0465
X02925
X0285
X03112Y04575
Y04425
X03188
X0315Y045
X03188Y04575
X0332Y0459
X03475Y04615
X03526Y04614
X03562Y04575
X03638
X03713
X03787
X03862
X039Y045
X03825
X03862Y04425
X03938
X03975Y0435
X039
X03825
X0375
X03675
X03787Y04425
Y04275
X03862
X03938
X04012
X04088
X0405Y042
X03975
X039
X03938Y04125
X04012
X04088
X04238
X04312
X04387
X04425Y042
X0435
X04275
X04312Y04275
X04387
X04463
X04537
Y04425
X04613
X04575Y045
X04537Y04575
X04463
X04387
X04425Y0465
X0435
Y045
X04425
X04093Y04436
X04012Y04575
X0405Y0465
X04088Y03975
X04012
X03938
X03862
X039Y039
X03975
X0405
X04012Y03825
X03938
X039Y0375
X03825
X03862Y03675
X03938
X03975Y036
X039
X03938Y03525
X03975Y0345
X039
X0388Y03385
X03915Y03335
X0397Y03315
X0398Y0322
X03932Y03225
X03862
X039Y0315
X0375
X03525
X03412Y03225
X03338
X03263
X03188
X03225Y033
X033
X03375
X03412Y03375
X03338
X03263
X03188
X03225Y0345
X033
X03375
X03462Y03435
Y03615
X03525Y036
X03375
X033
X03225
X0315
X03188Y03675
X03263
X03338
X03412
X0345Y0375
X03375
X033
X03225
X0315
Y0345
Y033
Y0315
X03225
X033
X03375Y039
X0345
X03535Y03765
X03787Y03675
X0382Y03635
X042Y0375
X04275
X0435
X04387Y03825
X04312
X04238
Y03975
X04387
X04463
X04537
X04575Y0405
X0465
X04613Y04125
X04537
X045Y0405
Y039
X04425
X0435
X04387Y03525
X04463
X04537
X04613
X0465Y036
X04575
X045
Y0345
X04575
X0465
Y033
X04575
X045
X04425
X0435
X04275
X04312Y03375
X04387
X04238
X04275Y0345
X04238Y03525
X04275Y0315
X0435
X04425
X045
X04575
X0465
X04613Y03675
X0465Y042
X03862Y04125
X03802Y04116
X03562Y04275
X03425Y04265
X033Y0435
X03188Y04275
X03338Y04125
X03375Y0405
X033
X03263Y03975
X0349Y04495
X03562Y04425
X04688
Y04275
X04762
X04838
X04912
X04988
X05062
X05025Y042
X0495
X04875
X048
X04725
X04762Y04125
X04838
X04912
X04988
X051Y0405
X05062Y03975
X0494Y03956
X04875Y0405
X048
X04725
X04688Y04125
Y03675
X04762
X04838
X04912
X04988
X04985Y0378
X05025Y0375
X0525
X05325
X05287Y03825
X05325Y039
X054
X0525
X05287Y03975
X05325Y0405
X0525
X05287Y04125
X05363
X05213
X0525Y042
X05213Y04275
Y04575
X05287
X05363
X05438
X05512
X0555Y0465
X05625
X057
X05775
X0585
X05925
X06
X06075
Y045
X06113Y04425
X06188
X06037
X05963
X05887
X05925Y042
X06
X06075
X0615
X06225
X06188Y04125
X06113
X06037
X05963
X05887
X05812
X05738
X05662
X05588
X057Y042
X05775
X0585
Y0405
X05925
X06
X06075
X0615
X06225
X06188Y03975
X06113
X06037
X05963
X05887
X05812
X05738
X05775Y0405
X057
Y039
X05775
X0585
X05925
X06
X06075
X0615
X06225
X06188Y03825
X06113
X06037
X05963
X05887
X05812
X05738
X05625Y039
X05609Y03725
X057Y036
X05775
X0585
X05925
X06
X06075
X0615
X06225
X06188Y03675
X06113
X06037
X05963
X06Y0375
X06075
X0615
X06225
X06188Y03525
X06113
X06037
X05963
X05887
X05812
X05738
X05662
X05588
X05438
Y03675
X05287
X0525Y036
X05287Y03525
X05213
X0525Y0345
X05325
X05287Y03375
X0525Y033
X05287Y03225
X0525Y0315
X051
X05025
X0495
X04875
X048
X04725
Y033
X048
X04875
X0495
X05025
X051
X05062Y03375
X04988
X04912
Y03525
X04838
X04762
X04688
X04725Y036
X048
X04875
X0495
X05062Y03525
X051Y0345
X05025
X048
X04725
X05475Y033
X0555
X05625
X057
X05775
X05738Y03225
X0585Y0315
X05925
X06
X06075
X06225
Y0345
X0615
X06075
X06
X05925
X0585
X05775
X057
X05625Y0315
X0555
X05475
X05512Y03225
X05501Y04254
X05475Y0465
X054
X05325
X0525
X05175
X051
X05025
X0495
X04875
X048
X04725
X04762Y04575
X04838
X04912
X04988
X05062
X05137
X06562
X066Y0465
X0675
X06787Y04575
X06713
X0675Y045
X066
X06525Y0435
X0645
X06488Y04275
X06562
X06637
X06713
X06787
X06863
X06938
X07012
X07088
X07162
X07125Y042
X0705
X06975
X07012Y04125
X07088
X07162
X07125Y0405
X0705
X06975
X07012Y03975
X07088
X07162
X072Y039
X07275
X07335Y03935
X07312Y03975
X07387
X07425Y039
Y03835
X07335Y03815
X0735Y0375
X07387Y03675
X07312
X07162
X07143Y03726
X07162Y03825
X07238
X07125Y039
X0705
X06975
X069
X06825
X0675
X06675
X066
Y0405
X0675
X06787Y04125
X06713
Y03975
X06787
X06863
X06938
Y04125
X07312
X0735Y0405
X07575
X07537Y04125
X07688
X07762
X07725Y0405
X07762Y03975
X07688
X07725Y039
X078
X07762Y03825
X07688
X0765Y039
X075
X07425Y042
X07537Y04275
X07613
X07688
X07762
X078Y045
X07762Y04575
X078Y0465
X07725
X0765
Y045
X07537Y04425
X0746Y0439
X07387Y04425
X07425Y045
X0735
X07387Y04575
X07463
X07425Y0465
X0735
X07125
X0705
X06975
X07012Y04575
X07088
X07162
X07125Y045
X0705
X06975
X06938Y04575
X066Y042
X06412Y04125
X06338
X06262
X063Y042
Y0405
X06375
X06412Y03975
X06338
X06262
X063Y039
X06375
X06412Y03825
X06338
X06262
X063Y0375
X06375
X06412Y03675
X06338
X06262
X063Y036
X06375
X06412Y03525
X06338
X06262
X063Y0345
X06375
X06412Y03225
X06375Y0315
X063
X0675
X06713Y03225
Y03375
X06787
X06863
X06938
X07012
X07088
X07162
X07125Y033
X0705
X06975
X07088Y03225
X07162
X07387
X07463
X07425Y033
Y0315
X0735
X07575
X07725
Y033
X078
X0765
X07688Y03525
X07762
X07725Y036
X07762Y03675
X07688
X07463Y03525
X07387
X07162
X07088
X07012
X06938
X06975Y036
X0705
X07125
X07012Y03675
X06938
X06975Y0375
X06787Y03675
X06713
X0675Y036
X06787Y03525
X06713
X06637Y03375
X07875Y033
X0795
X08025
X081
X08062Y03225
X07988
X07912
X0795Y0315
X08025
X081
X07875
X07912Y03525
X07988
X08062
X081Y036
X08025
X0795
X07988Y03675
X08062
X081Y0375
X08025
X0795
X07988Y03825
X08062
X081Y039
X08025
X0795
X07875
X07912Y03975
X07988
X08062
X081Y0405
X08025
X0795
X07988Y04125
X08062
X081Y042
X08025
X0795
X07988Y04275
X08062
Y04425
X08137
X08212
X08288
X08363
X08325Y0435
X0825
X08175
X081Y045
X08025
X08062Y04575
X081Y0465
X08025
X07875
X07838Y04575
X07875Y045
X07912Y04425
Y04275
X07838
X07912Y04125
X07838Y03975
Y03825
X07912
Y03675
X08363
Y03825
Y03975
Y04125
Y04275
Y03525
Y03375
Y03225
Y04725
X08325Y048
X0825
X08175
X081
X08025
X0795
X07875
X07838Y04725
X08062
X08137
X07762
X07688
X07613
X0765Y048
X07725
X078
X07463Y04725
X07387
X07312
X07162
X07088
X07012
X06938
X06562
X04714Y04832
X04625Y0479
X0465Y04755
X04625Y04722
X0466Y0469
X03366Y04705
X02287Y04725
X02213
X02138
X02062
X01987
X01913
X01837
X01763
X01688
X01612
X01538
X01388
X01312
X01237
X01163
X0105Y048
X00975
X00938Y04725
X00562
X00488
X00412
X00338
X00375Y048
X0045
X00525
X006
X003
T02
X03139Y01484
X06319Y01428
X06541Y01423
X06319Y018
X07038Y02231
X07581Y0236
X06662Y02671
X06492Y03121
X03075Y02143
X02895Y01913
X02724Y01981
X08225Y0339
T03
X01442Y01189
T04
X03328Y01396
X03428
Y01524
X03328
X04081Y01137
X04415Y01419
X05915Y0118
X03784Y01603
X03819Y01964
X04185Y03005
Y03105
X0124Y02832
X00756Y03657
X04185Y03505
Y03405
Y03305
Y03205
Y0384
Y0394
Y0404
Y0414
Y0424
Y0434
X03954Y0468
X0563Y04535
X0573
X0583
X0593
X0603
X0613
X06155Y03275
X06055
X05955
X05855
X06255
X06355
T05
X03436Y01943
X03536
X03636
X01931Y02211
X01831
X01731
T06
X03618Y0309
X03718
X00989
X00889
Y0319
X00989
Y0329
Y0339
Y0349
Y0359
Y0369
Y0379
X00889
Y0389
Y0399
X00989
Y0409
Y0419
Y0429
Y0439
Y0449
X00889
Y0439
Y0429
Y0419
Y0409
X00989Y0389
X00889Y0369
Y0359
Y0349
Y0339
Y0329
X03618
Y0339
X03718
Y0349
Y0359
Y0369
Y0379
Y0389
Y0399
Y0409
Y0419
Y0429
Y0439
Y0449
X03618
Y0439
Y0429
Y0419
Y0409
Y0399
Y0389
Y0379
Y0369
Y0359
Y0349
X03718Y0329
Y0319
X03618
T07
X06944Y02846
X0716
T08
X06286Y02287
X06086
T09
X05176Y01768
Y01964
Y02161
Y02358
Y02555
Y02752
X05393
Y02555
Y02358
Y02161
Y01964
Y01768
X05609
Y01964
Y02161
Y02358
Y02555
Y02752
Y02988
X05393
X05176
X02568
X02352
X02135
Y02752
Y02555
Y02358
Y02161
Y01964
Y01768
X02352
Y01964
Y02161
Y02358
Y02555
Y02752
X02568
Y02555
Y02358
Y02161
Y01964
Y01768
Y03224
Y03421
Y03618
Y03815
Y04012
Y04208
X02352
Y04012
Y03815
Y03618
Y03421
Y03224
X02135
Y03421
Y03618
Y03815
Y04012
Y04208
X05176
Y04012
Y03815
Y03618
Y03421
Y03224
X05393
Y03421
Y03618
Y03815
Y04012
Y04208
X05609
Y04012
Y03815
Y03618
Y03421
Y03224
T10
X06832Y01499
X07222
X0783Y0159
Y01723
Y0209
Y02223
X07831Y02601
Y02735
Y03085
X08221
Y02735
Y02601
X0822Y02223
Y0209
Y01723
Y0159
X07222Y01633
X07223Y01951
Y02085
Y02413
Y02547
X06833
Y02413
Y02085
Y01951
X06832Y01633
X06854Y03152
Y03286
X0686Y0359
Y03723
Y0405
Y04184
X06859Y04543
Y04677
X07249
Y04543
X07555
Y04677
X0725Y04184
Y0405
Y03723
Y0359
X07244Y03286
Y03152
X07831Y03219
X07831Y03581
Y03715
X07835Y0405
Y04184
X08225
Y0405
X08221Y03715
Y03581
X08221Y03219
X07945Y04543
Y04677
T11
X00678Y01412
X01072
Y01585
X00678
Y02211
Y02384
X01072
Y02211
T12
X00453Y01571
Y02225
X01298
X01298Y01571
T13
X00421Y01163
X08215Y01265
X06319Y02752
X042Y02735
X03657Y0288
X00928Y02878
X01206Y04459
X042Y04595
X0632Y046
X0825Y0461
X00771Y04722
M30
