G04*
G04 #@! TF.GenerationSoftware,Altium Limited,Altium Designer,22.11.1 (43)*
G04*
G04 Layer_Color=32896*
%FSLAX23Y23*%
%MOIN*%
G70*
G04*
G04 #@! TF.SameCoordinates,FD0B0D1A-97A4-46D0-9F7C-2B5E2F8B1952*
G04*
G04*
G04 #@! TF.FilePolarity,Positive*
G04*
G01*
G75*
%ADD11C,0.008*%
%ADD12C,0.010*%
%ADD13C,0.024*%
%ADD14C,0.010*%
%ADD15C,0.006*%
%ADD16C,0.005*%
%ADD17C,0.007*%
%ADD18C,0.004*%
D11*
X7049Y1696D02*
Y1700D01*
X7021Y1696D02*
Y1700D01*
X7174Y1225D02*
Y1229D01*
X7202Y1225D02*
Y1229D01*
X7072Y3696D02*
Y3700D01*
X7044Y3696D02*
Y3700D01*
X7082Y2059D02*
Y2063D01*
X7054Y2059D02*
Y2063D01*
X1349Y1983D02*
Y1987D01*
X1321Y1983D02*
Y1987D01*
X1179Y1989D02*
X1191D01*
X1185Y1979D02*
X1205Y1999D01*
X1165D02*
X1185Y1979D01*
X1165Y1999D02*
X1205D01*
X1173Y1995D02*
X1197D01*
X1165Y1975D02*
X1205D01*
X3633Y1361D02*
Y1558D01*
X3759Y1361D02*
Y1558D01*
X3633Y1361D02*
X3759D01*
X3633Y1558D02*
X3759D01*
X3727Y1258D02*
Y1262D01*
X3755Y1258D02*
Y1262D01*
X3694Y1597D02*
X3698D01*
X3694Y1625D02*
X3698D01*
X3453Y4157D02*
X3484D01*
Y4193D01*
X3366Y4157D02*
X3397D01*
X3366D02*
Y4193D01*
D12*
X3590Y1350D02*
G03*
X3590Y1350I-5J0D01*
G01*
X3359Y4229D02*
G03*
X3359Y4229I-5J0D01*
G01*
D13*
X3685Y1401D02*
G03*
X3685Y1401I-12J0D01*
G01*
D14*
X7614Y1669D02*
Y1953D01*
X7427Y2006D02*
X7557D01*
X7370Y1669D02*
Y1953D01*
X7369Y1173D02*
X7653D01*
X7316Y1230D02*
Y1360D01*
X7369Y1417D02*
X7653D01*
D15*
X7521Y1125D02*
Y1155D01*
X7536D01*
X7541Y1150D01*
Y1130D01*
X7536Y1125D01*
X7521D01*
X7571Y1155D02*
X7551D01*
X7571Y1135D01*
Y1130D01*
X7566Y1125D01*
X7556D01*
X7551Y1130D01*
X7581D02*
X7586Y1125D01*
X7596D01*
X7601Y1130D01*
Y1135D01*
X7596Y1140D01*
X7591D01*
X7596D01*
X7601Y1145D01*
Y1150D01*
X7596Y1155D01*
X7586D01*
X7581Y1150D01*
X3595Y2405D02*
X3625D01*
Y2420D01*
X3620Y2425D01*
X3610D01*
X3605Y2420D01*
Y2405D01*
Y2415D02*
X3595Y2425D01*
Y2435D02*
Y2445D01*
Y2440D01*
X3625D01*
X3620Y2435D01*
X3625Y2480D02*
Y2460D01*
X3610D01*
X3615Y2470D01*
Y2475D01*
X3610Y2480D01*
X3600D01*
X3595Y2475D01*
Y2465D01*
X3600Y2460D01*
X3354Y4370D02*
Y4400D01*
X3339D01*
X3334Y4395D01*
Y4385D01*
X3339Y4380D01*
X3354D01*
X3344D02*
X3334Y4370D01*
X3309D02*
Y4400D01*
X3324Y4385D01*
X3304D01*
X3274Y4400D02*
X3294D01*
Y4385D01*
X3284Y4390D01*
X3279D01*
X3274Y4385D01*
Y4375D01*
X3279Y4370D01*
X3289D01*
X3294Y4375D01*
X3628Y1599D02*
Y1629D01*
X3613D01*
X3608Y1624D01*
Y1614D01*
X3613Y1609D01*
X3628D01*
X3618D02*
X3608Y1599D01*
X3583D02*
Y1629D01*
X3598Y1614D01*
X3578D01*
X3568Y1599D02*
X3558D01*
X3563D01*
Y1629D01*
X3568Y1624D01*
X1375Y1999D02*
X1405D01*
Y2013D01*
X1400Y2018D01*
X1390D01*
X1385Y2013D01*
Y1999D01*
Y2009D02*
X1375Y2018D01*
Y2043D02*
X1405D01*
X1390Y2028D01*
Y2048D01*
X1405Y2058D02*
Y2078D01*
X1400D01*
X1380Y2058D01*
X1375D01*
X1275Y1950D02*
X1245D01*
Y1965D01*
X1250Y1970D01*
X1270D01*
X1275Y1965D01*
Y1950D01*
X1245Y2000D02*
Y1980D01*
X1265Y2000D01*
X1270D01*
X1275Y1995D01*
Y1985D01*
X1270Y1980D01*
X1275Y2030D02*
Y2010D01*
X1260D01*
X1265Y2020D01*
Y2025D01*
X1260Y2030D01*
X1250D01*
X1245Y2025D01*
Y2015D01*
X1250Y2010D01*
X3778Y1337D02*
Y1312D01*
X3773Y1307D01*
X3763D01*
X3758Y1312D01*
Y1337D01*
X3748Y1332D02*
X3743Y1337D01*
X3733D01*
X3728Y1332D01*
Y1327D01*
X3733Y1322D01*
X3728Y1317D01*
Y1312D01*
X3733Y1307D01*
X3743D01*
X3748Y1312D01*
Y1317D01*
X3743Y1322D01*
X3748Y1327D01*
Y1332D01*
X3743Y1322D02*
X3733D01*
X7000Y1735D02*
X6970D01*
Y1720D01*
X6975Y1715D01*
X6985D01*
X6990Y1720D01*
Y1735D01*
Y1725D02*
X7000Y1715D01*
X6975Y1705D02*
X6970Y1700D01*
Y1690D01*
X6975Y1685D01*
X6980D01*
X6985Y1690D01*
Y1695D01*
Y1690D01*
X6990Y1685D01*
X6995D01*
X7000Y1690D01*
Y1700D01*
X6995Y1705D01*
X6970Y1675D02*
Y1655D01*
X6975D01*
X6995Y1675D01*
X7000D01*
X7148Y1170D02*
Y1140D01*
X7163D01*
X7168Y1145D01*
Y1155D01*
X7163Y1160D01*
X7148D01*
X7158D02*
X7168Y1170D01*
X7178Y1145D02*
X7183Y1140D01*
X7193D01*
X7198Y1145D01*
Y1150D01*
X7193Y1155D01*
X7188D01*
X7193D01*
X7198Y1160D01*
Y1165D01*
X7193Y1170D01*
X7183D01*
X7178Y1165D01*
X7208Y1145D02*
X7213Y1140D01*
X7223D01*
X7228Y1145D01*
Y1150D01*
X7223Y1155D01*
X7228Y1160D01*
Y1165D01*
X7223Y1170D01*
X7213D01*
X7208Y1165D01*
Y1160D01*
X7213Y1155D01*
X7208Y1150D01*
Y1145D01*
X7213Y1155D02*
X7223D01*
X7133Y2116D02*
X7103D01*
Y2101D01*
X7108Y2096D01*
X7118D01*
X7123Y2101D01*
Y2116D01*
Y2106D02*
X7133Y2096D01*
X7108Y2086D02*
X7103Y2081D01*
Y2071D01*
X7108Y2066D01*
X7113D01*
X7118Y2071D01*
Y2076D01*
Y2071D01*
X7123Y2066D01*
X7128D01*
X7133Y2071D01*
Y2081D01*
X7128Y2086D01*
Y2056D02*
X7133Y2051D01*
Y2041D01*
X7128Y2036D01*
X7108D01*
X7103Y2041D01*
Y2051D01*
X7108Y2056D01*
X7113D01*
X7118Y2051D01*
Y2036D01*
X6988Y3676D02*
X7018D01*
Y3691D01*
X7013Y3696D01*
X7003D01*
X6998Y3691D01*
Y3676D01*
Y3686D02*
X6988Y3696D01*
X7013Y3706D02*
X7018Y3711D01*
Y3721D01*
X7013Y3726D01*
X7008D01*
X7003Y3721D01*
Y3716D01*
Y3721D01*
X6998Y3726D01*
X6993D01*
X6988Y3721D01*
Y3711D01*
X6993Y3706D01*
X7018Y3756D02*
X7013Y3746D01*
X7003Y3736D01*
X6993D01*
X6988Y3741D01*
Y3751D01*
X6993Y3756D01*
X6998D01*
X7003Y3751D01*
Y3736D01*
X3354Y4280D02*
Y4310D01*
X3339D01*
X3334Y4305D01*
Y4295D01*
X3339Y4290D01*
X3354D01*
X3344D02*
X3334Y4280D01*
X3309D02*
Y4310D01*
X3324Y4295D01*
X3304D01*
X3279Y4280D02*
Y4310D01*
X3294Y4295D01*
X3274D01*
X3358Y4520D02*
Y4550D01*
X3343D01*
X3338Y4545D01*
Y4535D01*
X3343Y4530D01*
X3358D01*
X3348D02*
X3338Y4520D01*
X3313D02*
Y4550D01*
X3328Y4535D01*
X3308D01*
X3278Y4550D02*
X3288Y4545D01*
X3298Y4535D01*
Y4525D01*
X3293Y4520D01*
X3283D01*
X3278Y4525D01*
Y4530D01*
X3283Y4535D01*
X3298D01*
X3354Y4450D02*
Y4480D01*
X3339D01*
X3334Y4475D01*
Y4465D01*
X3339Y4460D01*
X3354D01*
X3344D02*
X3334Y4450D01*
X3309D02*
Y4480D01*
X3324Y4465D01*
X3304D01*
X3294Y4475D02*
X3289Y4480D01*
X3279D01*
X3274Y4475D01*
Y4470D01*
X3279Y4465D01*
X3284D01*
X3279D01*
X3274Y4460D01*
Y4455D01*
X3279Y4450D01*
X3289D01*
X3294Y4455D01*
X3525Y2410D02*
X3555D01*
Y2425D01*
X3550Y2430D01*
X3540D01*
X3535Y2425D01*
Y2410D01*
Y2420D02*
X3525Y2430D01*
Y2440D02*
Y2450D01*
Y2445D01*
X3555D01*
X3550Y2440D01*
Y2465D02*
X3555Y2470D01*
Y2480D01*
X3550Y2485D01*
X3530D01*
X3525Y2480D01*
Y2470D01*
X3530Y2465D01*
X3550D01*
X3755Y1197D02*
X3725D01*
Y1182D01*
X3730Y1177D01*
X3740D01*
X3745Y1182D01*
Y1197D01*
Y1187D02*
X3755Y1177D01*
Y1152D02*
X3725D01*
X3740Y1167D01*
Y1147D01*
X3755Y1117D02*
Y1137D01*
X3735Y1117D01*
X3730D01*
X3725Y1122D01*
Y1132D01*
X3730Y1137D01*
X3340Y4180D02*
X3320D01*
X3315Y4185D01*
Y4195D01*
X3320Y4200D01*
X3340D01*
X3345Y4195D01*
Y4185D01*
X3335Y4190D02*
X3345Y4180D01*
Y4185D02*
X3340Y4180D01*
X3345Y4170D02*
Y4160D01*
Y4165D01*
X3315D01*
X3320Y4170D01*
X3345Y4145D02*
Y4135D01*
Y4140D01*
X3315D01*
X3320Y4145D01*
X7317Y1771D02*
X7347D01*
Y1756D01*
X7342Y1751D01*
X7322D01*
X7317Y1756D01*
Y1771D01*
X7347Y1721D02*
Y1741D01*
X7327Y1721D01*
X7322D01*
X7317Y1726D01*
Y1736D01*
X7322Y1741D01*
X7347Y1691D02*
Y1711D01*
X7327Y1691D01*
X7322D01*
X7317Y1696D01*
Y1706D01*
X7322Y1711D01*
X4086Y2331D02*
X4091Y2326D01*
Y2316D01*
X4086Y2311D01*
X4066D01*
X4061Y2316D01*
Y2326D01*
X4066Y2331D01*
X4061Y2341D02*
Y2351D01*
Y2346D01*
X4091D01*
X4086Y2341D01*
X4091Y2366D02*
Y2386D01*
X4086D01*
X4066Y2366D01*
X4061D01*
X3995Y2593D02*
X4000Y2598D01*
X4010D01*
X4015Y2593D01*
Y2573D01*
X4010Y2568D01*
X4000D01*
X3995Y2573D01*
X3985Y2568D02*
X3975D01*
X3980D01*
Y2598D01*
X3985Y2593D01*
X3960D02*
X3955Y2598D01*
X3945D01*
X3940Y2593D01*
Y2588D01*
X3945Y2583D01*
X3940Y2578D01*
Y2573D01*
X3945Y2568D01*
X3955D01*
X3960Y2573D01*
Y2578D01*
X3955Y2583D01*
X3960Y2588D01*
Y2593D01*
X3955Y2583D02*
X3945D01*
X3687Y2431D02*
X3692Y2426D01*
Y2416D01*
X3687Y2411D01*
X3667D01*
X3662Y2416D01*
Y2426D01*
X3667Y2431D01*
X3662Y2441D02*
Y2451D01*
Y2446D01*
X3692D01*
X3687Y2441D01*
Y2466D02*
X3692Y2471D01*
Y2481D01*
X3687Y2486D01*
X3682D01*
X3677Y2481D01*
Y2476D01*
Y2481D01*
X3672Y2486D01*
X3667D01*
X3662Y2481D01*
Y2471D01*
X3667Y2466D01*
X3425Y2418D02*
X3430Y2413D01*
Y2403D01*
X3425Y2398D01*
X3405D01*
X3400Y2403D01*
Y2413D01*
X3405Y2418D01*
X3400Y2428D02*
Y2438D01*
Y2433D01*
X3430D01*
X3425Y2428D01*
X3400Y2453D02*
Y2463D01*
Y2458D01*
X3430D01*
X3425Y2453D01*
X3660Y1177D02*
X3655Y1182D01*
Y1192D01*
X3660Y1197D01*
X3680D01*
X3685Y1192D01*
Y1182D01*
X3680Y1177D01*
X3685Y1167D02*
Y1157D01*
Y1162D01*
X3655D01*
X3660Y1167D01*
X3680Y1142D02*
X3685Y1137D01*
Y1127D01*
X3680Y1122D01*
X3660D01*
X3655Y1127D01*
Y1137D01*
X3660Y1142D01*
X3665D01*
X3670Y1137D01*
Y1122D01*
D16*
X3392Y2280D02*
X3438D01*
X3392Y2381D02*
X3438D01*
X3392Y2280D02*
Y2381D01*
X3438Y2280D02*
Y2381D01*
X3662Y2393D02*
X3708D01*
X3662Y2292D02*
X3708D01*
Y2393D01*
X3662Y2292D02*
Y2393D01*
D17*
X3528Y1197D02*
X3498D01*
Y1182D01*
X3503Y1177D01*
X3513D01*
X3518Y1182D01*
Y1197D01*
Y1187D02*
X3528Y1177D01*
X3498Y1147D02*
Y1167D01*
X3513D01*
X3508Y1157D01*
Y1152D01*
X3513Y1147D01*
X3523D01*
X3528Y1152D01*
Y1162D01*
X3523Y1167D01*
X3503Y1137D02*
X3498Y1132D01*
Y1122D01*
X3503Y1117D01*
X3523D01*
X3528Y1122D01*
Y1132D01*
X3523Y1137D01*
X3503D01*
X3579Y1180D02*
X3574Y1185D01*
Y1195D01*
X3579Y1200D01*
X3599D01*
X3604Y1195D01*
Y1185D01*
X3599Y1180D01*
X3579Y1170D02*
X3574Y1165D01*
Y1155D01*
X3579Y1150D01*
X3584D01*
X3589Y1155D01*
Y1160D01*
Y1155D01*
X3594Y1150D01*
X3599D01*
X3604Y1155D01*
Y1165D01*
X3599Y1170D01*
D18*
X1145Y1900D02*
Y2070D01*
X1225D01*
Y1900D02*
Y2070D01*
X1145Y1900D02*
X1225D01*
M02*
