G04*
G04 #@! TF.GenerationSoftware,Altium Limited,Altium Designer,25.1.2 (22)*
G04*
G04 Layer_Physical_Order=2*
G04 Layer_Color=16711680*
%FSLAX44Y44*%
%MOMM*%
G71*
G04*
G04 #@! TF.SameCoordinates,B7D9D61E-E531-4C97-95C7-BE20352FD60D*
G04*
G04*
G04 #@! TF.FilePolarity,Positive*
G04*
G01*
G75*
%ADD26C,1.0160*%
%ADD28C,0.7620*%
%ADD29R,1.9500X1.9500*%
%ADD30C,1.9500*%
%ADD31R,2.8950X2.8950*%
%ADD32C,2.8950*%
%ADD33C,3.5500*%
%ADD34C,1.2700*%
D26*
X624840Y648970D02*
X911860D01*
X539472Y734338D02*
X624840Y648970D01*
X525170Y741740D02*
X530255D01*
X537656Y734338D01*
X539472D01*
X899743Y853440D02*
X911173Y864870D01*
X641442Y853440D02*
X899743D01*
X911173Y864870D02*
X911860D01*
X905908Y739779D02*
X912404Y746274D01*
X572181Y739779D02*
X905908D01*
X912404Y746274D02*
X912644D01*
X572181Y784179D02*
X641442Y853440D01*
D28*
X682822Y763270D02*
X685801Y766249D01*
X551180Y763270D02*
X682822D01*
X530271Y784179D02*
X551180Y763270D01*
X527681Y784179D02*
X530271D01*
D29*
X685801Y766249D02*
D03*
D30*
Y821249D02*
D03*
D31*
X569670Y830640D02*
D03*
D32*
Y786140D02*
D03*
Y741740D02*
D03*
X525170Y830640D02*
D03*
Y786140D02*
D03*
Y741740D02*
D03*
D33*
X547370Y890290D02*
D03*
Y681990D02*
D03*
D34*
X913130Y775970D02*
D03*
Y802640D02*
D03*
X911860Y927100D02*
D03*
Y894080D02*
D03*
Y864870D02*
D03*
Y702310D02*
D03*
Y678180D02*
D03*
Y648970D02*
D03*
X913130Y746760D02*
D03*
M02*
