G04*
G04 #@! TF.GenerationSoftware,Altium Limited,Altium Designer,25.1.2 (22)*
G04*
G04 Layer_Color=8421504*
%FSLAX44Y44*%
%MOMM*%
G71*
G04*
G04 #@! TF.SameCoordinates,B7D9D61E-E531-4C97-95C7-BE20352FD60D*
G04*
G04*
G04 #@! TF.FilePolarity,Positive*
G04*
G01*
G75*
%ADD14R,1.7700X1.2300*%
%ADD15R,0.9000X0.8000*%
G04:AMPARAMS|DCode=16|XSize=2.15mm|YSize=1.3mm|CornerRadius=0.052mm|HoleSize=0mm|Usage=FLASHONLY|Rotation=0.000|XOffset=0mm|YOffset=0mm|HoleType=Round|Shape=RoundedRectangle|*
%AMROUNDEDRECTD16*
21,1,2.1500,1.1960,0,0,0.0*
21,1,2.0460,1.3000,0,0,0.0*
1,1,0.1040,1.0230,-0.5980*
1,1,0.1040,-1.0230,-0.5980*
1,1,0.1040,-1.0230,0.5980*
1,1,0.1040,1.0230,0.5980*
%
%ADD16ROUNDEDRECTD16*%
G36*
X740463Y701734D02*
X740604Y701593D01*
X740680Y701409D01*
Y701310D01*
Y691110D01*
Y691011D01*
X740604Y690827D01*
X740463Y690686D01*
X740279Y690610D01*
X729581D01*
X729397Y690686D01*
X729256Y690827D01*
X729180Y691011D01*
Y691110D01*
Y701310D01*
Y701409D01*
X729256Y701593D01*
X729397Y701734D01*
X729581Y701810D01*
X740279D01*
X740463Y701734D01*
D02*
G37*
G36*
X726963D02*
X727104Y701593D01*
X727180Y701409D01*
Y701310D01*
Y691110D01*
Y691011D01*
X727104Y690827D01*
X726963Y690686D01*
X726779Y690610D01*
X716180D01*
X716080Y690610D01*
X715897Y690686D01*
X715756Y690827D01*
X715680Y691011D01*
X715680Y691110D01*
Y701310D01*
Y701409D01*
X715756Y701593D01*
X715897Y701734D01*
X716080Y701810D01*
X726779D01*
X726963Y701734D01*
D02*
G37*
G36*
X740463Y688534D02*
X740604Y688393D01*
X740680Y688209D01*
X740680Y688110D01*
X740680Y688110D01*
Y677910D01*
Y677811D01*
X740604Y677627D01*
X740463Y677486D01*
X740279Y677410D01*
X729581D01*
X729397Y677486D01*
X729256Y677627D01*
X729180Y677811D01*
Y677910D01*
Y688110D01*
Y688209D01*
X729256Y688393D01*
X729397Y688534D01*
X729581Y688610D01*
X729680D01*
X740180Y688610D01*
X740279Y688610D01*
X740463Y688534D01*
D02*
G37*
G36*
X726963D02*
X727104Y688393D01*
X727180Y688209D01*
Y688110D01*
Y677910D01*
Y677811D01*
X727104Y677627D01*
X726963Y677486D01*
X726779Y677410D01*
X716080D01*
X715897Y677486D01*
X715756Y677627D01*
X715680Y677811D01*
Y677910D01*
Y688110D01*
Y688209D01*
X715756Y688393D01*
X715897Y688534D01*
X716080Y688610D01*
X726779D01*
X726963Y688534D01*
D02*
G37*
G36*
X740463Y675334D02*
X740604Y675193D01*
X740680Y675009D01*
Y674910D01*
Y664710D01*
Y664611D01*
X740604Y664427D01*
X740463Y664286D01*
X740279Y664210D01*
X729581D01*
X729397Y664286D01*
X729256Y664427D01*
X729180Y664611D01*
Y664710D01*
Y674910D01*
Y675009D01*
X729256Y675193D01*
X729397Y675334D01*
X729581Y675410D01*
X740279D01*
X740463Y675334D01*
D02*
G37*
G36*
X726963D02*
X727104Y675193D01*
X727180Y675009D01*
Y674910D01*
Y664710D01*
Y664611D01*
X727104Y664427D01*
X726963Y664286D01*
X726779Y664210D01*
X716080D01*
X715897Y664286D01*
X715756Y664427D01*
X715680Y664611D01*
Y664710D01*
Y674910D01*
Y675009D01*
X715756Y675193D01*
X715897Y675334D01*
X716080Y675410D01*
X726779D01*
X726963Y675334D01*
D02*
G37*
G36*
X767180Y701810D02*
X767279D01*
X767463Y701734D01*
X767604Y701593D01*
X767680Y701409D01*
Y701310D01*
X767680Y701310D01*
Y691110D01*
Y691011D01*
X767604Y690827D01*
X767463Y690686D01*
X767279Y690610D01*
X756581D01*
X756397Y690686D01*
X756256Y690827D01*
X756180Y691011D01*
Y691110D01*
Y701310D01*
Y701409D01*
X756256Y701593D01*
X756397Y701734D01*
X756581Y701810D01*
X756680D01*
X767180Y701810D01*
D02*
G37*
G36*
X753963Y701734D02*
X754104Y701593D01*
X754180Y701409D01*
Y701310D01*
Y691110D01*
Y691011D01*
X754104Y690827D01*
X753963Y690686D01*
X753779Y690610D01*
X743081D01*
X742897Y690686D01*
X742756Y690827D01*
X742680Y691011D01*
Y691110D01*
Y701310D01*
Y701409D01*
X742756Y701593D01*
X742897Y701734D01*
X743081Y701810D01*
X753779D01*
X753963Y701734D01*
D02*
G37*
G36*
Y688534D02*
X754104Y688393D01*
X754180Y688209D01*
Y688110D01*
Y677910D01*
Y677811D01*
X754104Y677627D01*
X753963Y677486D01*
X753779Y677410D01*
X743081D01*
X742897Y677486D01*
X742756Y677627D01*
X742680Y677811D01*
Y677910D01*
X742680Y688110D01*
X742680Y688209D01*
X742756Y688393D01*
X742897Y688534D01*
X743081Y688610D01*
X743180Y688610D01*
Y688610D01*
X753779D01*
X753963Y688534D01*
D02*
G37*
G36*
X767463D02*
X767604Y688393D01*
X767680Y688209D01*
Y688110D01*
Y677910D01*
Y677811D01*
X767604Y677627D01*
X767463Y677486D01*
X767279Y677410D01*
X756581D01*
X756397Y677486D01*
X756256Y677627D01*
X756180Y677811D01*
Y677910D01*
Y688110D01*
Y688209D01*
X756256Y688393D01*
X756397Y688534D01*
X756581Y688610D01*
X767279D01*
X767463Y688534D01*
D02*
G37*
G36*
Y675334D02*
X767604Y675193D01*
X767680Y675009D01*
Y674910D01*
X767680Y664710D01*
Y664611D01*
X767604Y664427D01*
X767463Y664286D01*
X767279Y664210D01*
X756581D01*
X756397Y664286D01*
X756256Y664427D01*
X756180Y664611D01*
Y664710D01*
Y674910D01*
Y675009D01*
X756256Y675193D01*
X756397Y675334D01*
X756581Y675410D01*
X767279D01*
X767463Y675334D01*
D02*
G37*
G36*
X753963D02*
X754104Y675193D01*
X754180Y675009D01*
Y674910D01*
X754180Y664710D01*
Y664611D01*
X754104Y664427D01*
X753963Y664286D01*
X753779Y664210D01*
X743081D01*
X742897Y664286D01*
X742756Y664427D01*
X742680Y664611D01*
Y664710D01*
Y674910D01*
Y675009D01*
X742756Y675193D01*
X742897Y675334D01*
X743081Y675410D01*
X753779D01*
X753963Y675334D01*
D02*
G37*
G36*
X804423Y795214D02*
X804564Y795073D01*
X804640Y794889D01*
Y794790D01*
Y784590D01*
Y784491D01*
X804564Y784307D01*
X804423Y784166D01*
X804239Y784090D01*
X793540D01*
X793357Y784166D01*
X793216Y784307D01*
X793140Y784491D01*
Y784590D01*
Y794790D01*
Y794889D01*
X793216Y795073D01*
X793357Y795214D01*
X793540Y795290D01*
X804239D01*
X804423Y795214D01*
D02*
G37*
G36*
Y782014D02*
X804564Y781873D01*
X804640Y781689D01*
Y781590D01*
Y771390D01*
Y771291D01*
X804564Y771107D01*
X804423Y770966D01*
X804239Y770890D01*
X793540D01*
X793357Y770966D01*
X793216Y771107D01*
X793140Y771291D01*
Y771390D01*
Y781590D01*
Y781689D01*
X793216Y781873D01*
X793357Y782014D01*
X793540Y782090D01*
X804239D01*
X804423Y782014D01*
D02*
G37*
G36*
X767463Y714934D02*
X767604Y714793D01*
X767680Y714609D01*
Y714510D01*
Y704310D01*
Y704211D01*
X767604Y704027D01*
X767463Y703886D01*
X767279Y703810D01*
X756581D01*
X756397Y703886D01*
X756256Y704027D01*
X756180Y704211D01*
Y704310D01*
X756180Y714510D01*
X756180Y714609D01*
X756256Y714793D01*
X756397Y714934D01*
X756581Y715010D01*
X756680Y715010D01*
Y715010D01*
X767279D01*
X767463Y714934D01*
D02*
G37*
G36*
X740463D02*
X740604Y714793D01*
X740680Y714609D01*
Y714510D01*
Y704310D01*
Y704211D01*
X740604Y704027D01*
X740463Y703886D01*
X740279Y703810D01*
X729581D01*
X729397Y703886D01*
X729256Y704027D01*
X729180Y704211D01*
Y704310D01*
X729180Y714510D01*
X729180Y714609D01*
X729256Y714793D01*
X729397Y714934D01*
X729581Y715010D01*
X729680Y715010D01*
Y715010D01*
X740279D01*
X740463Y714934D01*
D02*
G37*
G36*
X753680Y715010D02*
X753779D01*
X753963Y714934D01*
X754104Y714793D01*
X754180Y714609D01*
Y714510D01*
Y704310D01*
Y704211D01*
X754104Y704027D01*
X753963Y703886D01*
X753779Y703810D01*
X743081D01*
X742897Y703886D01*
X742756Y704027D01*
X742680Y704211D01*
Y704310D01*
Y714510D01*
Y714609D01*
X742756Y714793D01*
X742897Y714934D01*
X743081Y715010D01*
X743180D01*
X753680Y715010D01*
D02*
G37*
G36*
X726963Y714934D02*
X727104Y714793D01*
X727180Y714609D01*
Y714510D01*
Y704310D01*
Y704211D01*
X727104Y704027D01*
X726963Y703886D01*
X726779Y703810D01*
X716180D01*
X716080Y703810D01*
X715897Y703886D01*
X715756Y704027D01*
X715680Y704211D01*
X715680Y704310D01*
Y714510D01*
Y714609D01*
X715756Y714793D01*
X715897Y714934D01*
X716080Y715010D01*
X726779D01*
X726963Y714934D01*
D02*
G37*
G36*
X831423Y795214D02*
X831564Y795073D01*
X831640Y794889D01*
Y794790D01*
Y784590D01*
Y784491D01*
X831564Y784307D01*
X831423Y784166D01*
X831239Y784090D01*
X820540D01*
X820357Y784166D01*
X820216Y784307D01*
X820140Y784491D01*
Y784590D01*
X820140Y794790D01*
X820140Y794889D01*
X820216Y795073D01*
X820357Y795214D01*
X820540Y795290D01*
X820640Y795290D01*
Y795290D01*
X831239D01*
X831423Y795214D01*
D02*
G37*
G36*
X817923D02*
X818064Y795073D01*
X818140Y794889D01*
X818140Y794790D01*
X818140Y794790D01*
Y784590D01*
Y784491D01*
X818064Y784307D01*
X817923Y784166D01*
X817739Y784090D01*
X807040D01*
X806857Y784166D01*
X806716Y784307D01*
X806640Y784491D01*
Y784590D01*
Y794790D01*
Y794889D01*
X806716Y795073D01*
X806857Y795214D01*
X807040Y795290D01*
X807140D01*
X817640Y795290D01*
X817739Y795290D01*
X817923Y795214D01*
D02*
G37*
G36*
X844923D02*
X845064Y795073D01*
X845140Y794889D01*
Y794790D01*
Y784590D01*
Y784491D01*
X845064Y784307D01*
X844923Y784166D01*
X844739Y784090D01*
X834041D01*
X833857Y784166D01*
X833716Y784307D01*
X833640Y784491D01*
Y784590D01*
Y794790D01*
Y794889D01*
X833716Y795073D01*
X833857Y795214D01*
X834041Y795290D01*
X844739D01*
X844923Y795214D01*
D02*
G37*
G36*
Y782014D02*
X845064Y781873D01*
X845140Y781689D01*
Y781590D01*
X845140Y771390D01*
Y771291D01*
X845064Y771107D01*
X844923Y770966D01*
X844739Y770890D01*
X834041D01*
X833857Y770966D01*
X833716Y771107D01*
X833640Y771291D01*
Y771390D01*
Y781590D01*
Y781689D01*
X833716Y781873D01*
X833857Y782014D01*
X834041Y782090D01*
X844739D01*
X844923Y782014D01*
D02*
G37*
G36*
X831423D02*
X831564Y781873D01*
X831640Y781689D01*
Y781590D01*
X831640Y771390D01*
Y771291D01*
X831564Y771107D01*
X831423Y770966D01*
X831239Y770890D01*
X820540D01*
X820357Y770966D01*
X820216Y771107D01*
X820140Y771291D01*
Y771390D01*
Y781590D01*
Y781689D01*
X820216Y781873D01*
X820357Y782014D01*
X820540Y782090D01*
X831239D01*
X831423Y782014D01*
D02*
G37*
G36*
X817923D02*
X818064Y781873D01*
X818140Y781689D01*
Y781590D01*
Y771390D01*
Y771291D01*
X818064Y771107D01*
X817923Y770966D01*
X817739Y770890D01*
X807040D01*
X806857Y770966D01*
X806716Y771107D01*
X806640Y771291D01*
Y771390D01*
Y781590D01*
Y781689D01*
X806716Y781873D01*
X806857Y782014D01*
X807040Y782090D01*
X817739D01*
X817923Y782014D01*
D02*
G37*
G36*
X716940Y872990D02*
Y883190D01*
Y883289D01*
X717016Y883473D01*
X717157Y883614D01*
X717340Y883690D01*
X717440D01*
D01*
X727940D01*
X728039D01*
X728223Y883614D01*
X728364Y883473D01*
X728440Y883289D01*
Y883190D01*
D01*
Y872990D01*
Y872890D01*
X728364Y872707D01*
X728223Y872566D01*
X728039Y872490D01*
X727940D01*
D01*
X717440D01*
X717340D01*
X717157Y872566D01*
X717016Y872707D01*
X716940Y872890D01*
Y872990D01*
D01*
D02*
G37*
G36*
X741940D02*
Y872890D01*
X741864Y872707D01*
X741723Y872566D01*
X741539Y872490D01*
X741440D01*
D01*
X730940D01*
X730841D01*
X730657Y872566D01*
X730516Y872707D01*
X730440Y872890D01*
Y872990D01*
D01*
Y883190D01*
Y883289D01*
X730516Y883473D01*
X730657Y883614D01*
X730841Y883690D01*
X730940D01*
D01*
X741440D01*
X741539D01*
X741723Y883614D01*
X741864Y883473D01*
X741940Y883289D01*
Y883190D01*
D01*
Y872990D01*
D02*
G37*
G36*
X744440Y883690D02*
X754940D01*
X755039D01*
X755223Y883614D01*
X755364Y883473D01*
X755440Y883289D01*
Y883190D01*
D01*
X755440Y872990D01*
Y872890D01*
X755364Y872707D01*
X755223Y872566D01*
X755039Y872490D01*
X754940D01*
D01*
X744440D01*
X744341D01*
X744157Y872566D01*
X744016Y872707D01*
X743940Y872890D01*
Y872990D01*
D01*
Y883190D01*
Y883289D01*
X744016Y883473D01*
X744157Y883614D01*
X744341Y883690D01*
X744440D01*
D01*
D02*
G37*
G36*
X793640Y808490D02*
X804140D01*
X804239D01*
X804423Y808414D01*
X804564Y808273D01*
X804640Y808089D01*
Y807990D01*
D01*
Y797790D01*
Y797691D01*
X804564Y797507D01*
X804423Y797366D01*
X804239Y797290D01*
X804140D01*
D01*
X793640D01*
X793540Y797290D01*
X793357Y797366D01*
X793216Y797507D01*
X793140Y797691D01*
X793140Y797790D01*
D01*
Y807990D01*
Y808089D01*
X793216Y808273D01*
X793357Y808414D01*
X793540Y808490D01*
X793640D01*
D01*
D02*
G37*
G36*
Y810490D02*
X793540Y810490D01*
X793357Y810566D01*
X793216Y810707D01*
X793140Y810891D01*
X793140Y810990D01*
D01*
Y821190D01*
Y821289D01*
X793216Y821473D01*
X793357Y821614D01*
X793540Y821690D01*
X793640D01*
D01*
X804140D01*
X804239D01*
X804423Y821614D01*
X804564Y821473D01*
X804640Y821289D01*
Y821190D01*
D01*
Y810990D01*
Y810891D01*
X804564Y810707D01*
X804423Y810566D01*
X804239Y810490D01*
X804140D01*
D01*
X793640D01*
D02*
G37*
G36*
X768940Y872990D02*
Y872890D01*
X768864Y872707D01*
X768723Y872566D01*
X768539Y872490D01*
X768440D01*
X768440D01*
X757940D01*
X757840D01*
X757657Y872566D01*
X757516Y872707D01*
X757440Y872890D01*
Y872990D01*
D01*
Y883190D01*
Y883289D01*
X757516Y883473D01*
X757657Y883614D01*
X757840Y883690D01*
X757940D01*
D01*
X768440D01*
X768539D01*
X768723Y883614D01*
X768864Y883473D01*
X768940Y883289D01*
Y883190D01*
D01*
X768940Y872990D01*
D02*
G37*
G36*
X844923Y821614D02*
X845064Y821473D01*
X845140Y821289D01*
Y821190D01*
Y810990D01*
Y810891D01*
X845064Y810707D01*
X844923Y810566D01*
X844739Y810490D01*
X834041D01*
X833857Y810566D01*
X833716Y810707D01*
X833640Y810891D01*
Y810990D01*
X833640Y821190D01*
X833640Y821289D01*
X833716Y821473D01*
X833857Y821614D01*
X834041Y821690D01*
X834140Y821690D01*
Y821690D01*
X844739D01*
X844923Y821614D01*
D02*
G37*
G36*
X817923D02*
X818064Y821473D01*
X818140Y821289D01*
Y821190D01*
Y810990D01*
Y810891D01*
X818064Y810707D01*
X817923Y810566D01*
X817739Y810490D01*
X807040D01*
X806857Y810566D01*
X806716Y810707D01*
X806640Y810891D01*
Y810990D01*
X806640Y821190D01*
X806640Y821289D01*
X806716Y821473D01*
X806857Y821614D01*
X807040Y821690D01*
X807140Y821690D01*
Y821690D01*
X817739D01*
X817923Y821614D01*
D02*
G37*
G36*
X831140Y821690D02*
X831239D01*
X831423Y821614D01*
X831564Y821473D01*
X831640Y821289D01*
Y821190D01*
Y810990D01*
Y810891D01*
X831564Y810707D01*
X831423Y810566D01*
X831239Y810490D01*
X820540D01*
X820357Y810566D01*
X820216Y810707D01*
X820140Y810891D01*
Y810990D01*
Y821190D01*
Y821289D01*
X820216Y821473D01*
X820357Y821614D01*
X820540Y821690D01*
X820640D01*
X831140Y821690D01*
D02*
G37*
G36*
X844640Y808490D02*
X844739D01*
X844923Y808414D01*
X845064Y808273D01*
X845140Y808089D01*
Y807990D01*
X845140Y807990D01*
Y797790D01*
Y797691D01*
X845064Y797507D01*
X844923Y797366D01*
X844739Y797290D01*
X834041D01*
X833857Y797366D01*
X833716Y797507D01*
X833640Y797691D01*
Y797790D01*
Y807990D01*
Y808089D01*
X833716Y808273D01*
X833857Y808414D01*
X834041Y808490D01*
X834140D01*
X844640Y808490D01*
D02*
G37*
G36*
X831423Y808414D02*
X831564Y808273D01*
X831640Y808089D01*
Y807990D01*
Y797790D01*
Y797691D01*
X831564Y797507D01*
X831423Y797366D01*
X831239Y797290D01*
X820540D01*
X820357Y797366D01*
X820216Y797507D01*
X820140Y797691D01*
Y797790D01*
Y807990D01*
Y808089D01*
X820216Y808273D01*
X820357Y808414D01*
X820540Y808490D01*
X831239D01*
X831423Y808414D01*
D02*
G37*
G36*
X817923D02*
X818064Y808273D01*
X818140Y808089D01*
Y807990D01*
Y797790D01*
Y797691D01*
X818064Y797507D01*
X817923Y797366D01*
X817739Y797290D01*
X807040D01*
X806857Y797366D01*
X806716Y797507D01*
X806640Y797691D01*
Y797790D01*
Y807990D01*
Y808089D01*
X806716Y808273D01*
X806857Y808414D01*
X807040Y808490D01*
X817739D01*
X817923Y808414D01*
D02*
G37*
G36*
X741723Y923214D02*
X741864Y923073D01*
X741940Y922889D01*
Y922790D01*
Y912590D01*
Y912490D01*
X741864Y912307D01*
X741723Y912166D01*
X741539Y912090D01*
X730841D01*
X730657Y912166D01*
X730516Y912307D01*
X730440Y912490D01*
Y912590D01*
X730440Y922790D01*
X730440Y922889D01*
X730516Y923073D01*
X730657Y923214D01*
X730841Y923290D01*
X730940Y923290D01*
Y923290D01*
X741539D01*
X741723Y923214D01*
D02*
G37*
G36*
X728223D02*
X728364Y923073D01*
X728440Y922889D01*
Y922790D01*
Y912590D01*
Y912490D01*
X728364Y912307D01*
X728223Y912166D01*
X728039Y912090D01*
X717440D01*
X717340Y912090D01*
X717157Y912166D01*
X717016Y912307D01*
X716940Y912490D01*
X716940Y912590D01*
Y922790D01*
Y922889D01*
X717016Y923073D01*
X717157Y923214D01*
X717340Y923290D01*
X728039D01*
X728223Y923214D01*
D02*
G37*
G36*
X741723Y910014D02*
X741864Y909873D01*
X741940Y909689D01*
Y909590D01*
Y899390D01*
Y899290D01*
X741864Y899107D01*
X741723Y898966D01*
X741539Y898890D01*
X730841D01*
X730657Y898966D01*
X730516Y899107D01*
X730440Y899290D01*
Y899390D01*
Y909590D01*
Y909689D01*
X730516Y909873D01*
X730657Y910014D01*
X730841Y910090D01*
X741539D01*
X741723Y910014D01*
D02*
G37*
G36*
X728223D02*
X728364Y909873D01*
X728440Y909689D01*
Y909590D01*
Y899390D01*
Y899290D01*
X728364Y899107D01*
X728223Y898966D01*
X728039Y898890D01*
X717440D01*
X717340Y898890D01*
X717157Y898966D01*
X717016Y899107D01*
X716940Y899290D01*
X716940Y899390D01*
Y909590D01*
Y909689D01*
X717016Y909873D01*
X717157Y910014D01*
X717340Y910090D01*
X728039D01*
X728223Y910014D01*
D02*
G37*
G36*
X741723Y896814D02*
X741864Y896673D01*
X741940Y896489D01*
X741940Y896390D01*
X741940Y896390D01*
Y886190D01*
Y886090D01*
X741864Y885907D01*
X741723Y885766D01*
X741539Y885690D01*
X730841D01*
X730657Y885766D01*
X730516Y885907D01*
X730440Y886090D01*
Y886190D01*
Y896390D01*
Y896489D01*
X730516Y896673D01*
X730657Y896814D01*
X730841Y896890D01*
X730940D01*
X741440Y896890D01*
X741539Y896890D01*
X741723Y896814D01*
D02*
G37*
G36*
X728223D02*
X728364Y896673D01*
X728440Y896489D01*
Y896390D01*
Y886190D01*
Y886090D01*
X728364Y885907D01*
X728223Y885766D01*
X728039Y885690D01*
X717340D01*
X717157Y885766D01*
X717016Y885907D01*
X716940Y886090D01*
Y886190D01*
Y896390D01*
Y896489D01*
X717016Y896673D01*
X717157Y896814D01*
X717340Y896890D01*
X728039D01*
X728223Y896814D01*
D02*
G37*
G36*
X768723Y923214D02*
X768864Y923073D01*
X768940Y922889D01*
Y922790D01*
Y912590D01*
Y912490D01*
X768864Y912307D01*
X768723Y912166D01*
X768539Y912090D01*
X757840D01*
X757657Y912166D01*
X757516Y912307D01*
X757440Y912490D01*
Y912590D01*
X757440Y922790D01*
X757440Y922889D01*
X757516Y923073D01*
X757657Y923214D01*
X757840Y923290D01*
X757940Y923290D01*
Y923290D01*
X768539D01*
X768723Y923214D01*
D02*
G37*
G36*
X754940Y923290D02*
X755039D01*
X755223Y923214D01*
X755364Y923073D01*
X755440Y922889D01*
Y922790D01*
Y912590D01*
Y912490D01*
X755364Y912307D01*
X755223Y912166D01*
X755039Y912090D01*
X744341D01*
X744157Y912166D01*
X744016Y912307D01*
X743940Y912490D01*
Y912590D01*
Y922790D01*
Y922889D01*
X744016Y923073D01*
X744157Y923214D01*
X744341Y923290D01*
X744440D01*
X754940Y923290D01*
D02*
G37*
G36*
X768440Y910090D02*
X768539D01*
X768723Y910014D01*
X768864Y909873D01*
X768940Y909689D01*
Y909590D01*
X768940Y909590D01*
Y899390D01*
Y899290D01*
X768864Y899107D01*
X768723Y898966D01*
X768539Y898890D01*
X757840D01*
X757657Y898966D01*
X757516Y899107D01*
X757440Y899290D01*
Y899390D01*
Y909590D01*
Y909689D01*
X757516Y909873D01*
X757657Y910014D01*
X757840Y910090D01*
X757940D01*
X768440Y910090D01*
D02*
G37*
G36*
X755223Y910014D02*
X755364Y909873D01*
X755440Y909689D01*
Y909590D01*
Y899390D01*
Y899290D01*
X755364Y899107D01*
X755223Y898966D01*
X755039Y898890D01*
X744341D01*
X744157Y898966D01*
X744016Y899107D01*
X743940Y899290D01*
Y899390D01*
Y909590D01*
Y909689D01*
X744016Y909873D01*
X744157Y910014D01*
X744341Y910090D01*
X755039D01*
X755223Y910014D01*
D02*
G37*
G36*
Y896814D02*
X755364Y896673D01*
X755440Y896489D01*
Y896390D01*
Y886190D01*
Y886090D01*
X755364Y885907D01*
X755223Y885766D01*
X755039Y885690D01*
X744341D01*
X744157Y885766D01*
X744016Y885907D01*
X743940Y886090D01*
Y886190D01*
X743940Y896390D01*
X743940Y896489D01*
X744016Y896673D01*
X744157Y896814D01*
X744341Y896890D01*
X744440Y896890D01*
Y896890D01*
X755039D01*
X755223Y896814D01*
D02*
G37*
G36*
X768723D02*
X768864Y896673D01*
X768940Y896489D01*
Y896390D01*
Y886190D01*
Y886090D01*
X768864Y885907D01*
X768723Y885766D01*
X768539Y885690D01*
X757840D01*
X757657Y885766D01*
X757516Y885907D01*
X757440Y886090D01*
Y886190D01*
Y896390D01*
Y896489D01*
X757516Y896673D01*
X757657Y896814D01*
X757840Y896890D01*
X768539D01*
X768723Y896814D01*
D02*
G37*
D14*
X875030Y808300D02*
D03*
Y837620D02*
D03*
X801370Y700460D02*
D03*
Y671140D02*
D03*
X805180Y884610D02*
D03*
Y855290D02*
D03*
D15*
X875030Y861680D02*
D03*
Y875680D02*
D03*
X861060Y702960D02*
D03*
Y688960D02*
D03*
X836930Y927750D02*
D03*
Y913750D02*
D03*
X627380Y874380D02*
D03*
Y888380D02*
D03*
X626110Y798180D02*
D03*
Y812180D02*
D03*
X623570Y705470D02*
D03*
Y719470D02*
D03*
D16*
X675030Y712460D02*
D03*
Y666760D02*
D03*
X752490Y819140D02*
D03*
Y773440D02*
D03*
X676290Y920740D02*
D03*
Y875040D02*
D03*
M02*
