G04*
G04 #@! TF.GenerationSoftware,Altium Limited,Altium Designer,25.1.2 (22)*
G04*
G04 Layer_Color=8388736*
%FSLAX44Y44*%
%MOMM*%
G71*
G04*
G04 #@! TF.SameCoordinates,B7D9D61E-E531-4C97-95C7-BE20352FD60D*
G04*
G04*
G04 #@! TF.FilePolarity,Negative*
G04*
G01*
G75*
G04:AMPARAMS|DCode=16|XSize=2.15mm|YSize=1.3mm|CornerRadius=0.052mm|HoleSize=0mm|Usage=FLASHONLY|Rotation=0.000|XOffset=0mm|YOffset=0mm|HoleType=Round|Shape=RoundedRectangle|*
%AMROUNDEDRECTD16*
21,1,2.1500,1.1960,0,0,0.0*
21,1,2.0460,1.3000,0,0,0.0*
1,1,0.1040,1.0230,-0.5980*
1,1,0.1040,-1.0230,-0.5980*
1,1,0.1040,-1.0230,0.5980*
1,1,0.1040,1.0230,0.5980*
%
%ADD16ROUNDEDRECTD16*%
%ADD17R,1.9732X1.4332*%
%ADD18R,1.1032X1.0032*%
G04:AMPARAMS|DCode=19|XSize=5.7mm|YSize=5.5mm|CornerRadius=0.055mm|HoleSize=0mm|Usage=FLASHONLY|Rotation=0.000|XOffset=0mm|YOffset=0mm|HoleType=Round|Shape=RoundedRectangle|*
%AMROUNDEDRECTD19*
21,1,5.7000,5.3900,0,0,0.0*
21,1,5.5900,5.5000,0,0,0.0*
1,1,0.1100,2.7950,-2.6950*
1,1,0.1100,-2.7950,-2.6950*
1,1,0.1100,-2.7950,2.6950*
1,1,0.1100,2.7950,2.6950*
%
%ADD19ROUNDEDRECTD19*%
%ADD20R,2.1532X2.1532*%
%ADD21C,2.1532*%
%ADD22R,3.0982X3.0982*%
%ADD23C,3.0982*%
%ADD24C,3.7532*%
%ADD25C,1.4732*%
D16*
X675030Y712460D02*
D03*
Y666760D02*
D03*
X752490Y819140D02*
D03*
Y773440D02*
D03*
X676290Y920740D02*
D03*
Y875040D02*
D03*
D17*
X875030Y808300D02*
D03*
Y837620D02*
D03*
X801370Y700460D02*
D03*
Y671140D02*
D03*
X805180Y884610D02*
D03*
Y855290D02*
D03*
D18*
X875030Y861680D02*
D03*
Y875680D02*
D03*
X861060Y702960D02*
D03*
Y688960D02*
D03*
X836930Y927750D02*
D03*
Y913750D02*
D03*
X627380Y874380D02*
D03*
Y888380D02*
D03*
X626110Y798180D02*
D03*
Y812180D02*
D03*
X623570Y705470D02*
D03*
Y719470D02*
D03*
D19*
X741680Y689610D02*
D03*
X819140Y796290D02*
D03*
X742940Y897890D02*
D03*
D20*
X685801Y766249D02*
D03*
D21*
Y821249D02*
D03*
D22*
X569670Y830640D02*
D03*
D23*
Y786140D02*
D03*
Y741740D02*
D03*
X525170Y830640D02*
D03*
Y786140D02*
D03*
Y741740D02*
D03*
D24*
X547370Y890290D02*
D03*
Y681990D02*
D03*
D25*
X913130Y775970D02*
D03*
Y802640D02*
D03*
X911860Y927100D02*
D03*
Y894080D02*
D03*
Y864870D02*
D03*
Y702310D02*
D03*
Y678180D02*
D03*
Y648970D02*
D03*
X913130Y746760D02*
D03*
M02*
