G04*
G04 #@! TF.GenerationSoftware,Altium Limited,Altium Designer,25.1.2 (22)*
G04*
G04 Layer_Color=65535*
%FSLAX44Y44*%
%MOMM*%
G71*
G04*
G04 #@! TF.SameCoordinates,B7D9D61E-E531-4C97-95C7-BE20352FD60D*
G04*
G04*
G04 #@! TF.FilePolarity,Positive*
G04*
G01*
G75*
%ADD10C,0.2000*%
%ADD11C,0.1270*%
%ADD12C,0.2540*%
%ADD13C,0.1778*%
D10*
X712801Y762250D02*
G03*
X712801Y770250I0J4000D01*
G01*
X603020Y830640D02*
G03*
X603020Y830640I-1000J0D01*
G01*
X658800Y839750D02*
X668801Y839749D01*
X702801D02*
X712800Y839750D01*
X712801Y770250D01*
X658801Y743749D02*
X712801D01*
X668801Y853749D02*
X702801D01*
Y839749D02*
Y853749D01*
X668801Y839749D02*
Y853749D01*
X712801Y743749D02*
Y762250D01*
X658800Y839750D02*
X658801Y743749D01*
X694755Y723260D02*
X756955D01*
Y655960D02*
Y658360D01*
Y720860D02*
Y723260D01*
X694755Y655960D02*
X756955D01*
X694755D02*
Y656510D01*
Y722710D02*
Y723260D01*
X772215Y829940D02*
X834415D01*
Y762640D02*
Y765040D01*
Y827540D02*
Y829940D01*
X772215Y762640D02*
X834415D01*
X772215D02*
Y763190D01*
Y829390D02*
Y829940D01*
X696015Y931540D02*
X758215D01*
Y864240D02*
Y866640D01*
Y929140D02*
Y931540D01*
X696015Y864240D02*
X758215D01*
X696015D02*
Y864790D01*
Y930990D02*
Y931540D01*
D11*
X866230Y817660D02*
Y828260D01*
X883830Y817660D02*
Y828260D01*
X293970Y650240D02*
Y927340D01*
Y650240D02*
X589870D01*
Y922040D01*
X446370D02*
X589870D01*
X446370D02*
Y927340D01*
X293970D02*
X446370D01*
X810170Y680500D02*
Y691100D01*
X792570Y680500D02*
Y691100D01*
X813980Y864650D02*
Y875250D01*
X796380Y864650D02*
Y875250D01*
D12*
X698501Y734057D02*
X693422D01*
X695962D01*
Y721362D01*
X693422Y718822D01*
X690883D01*
X688344Y721362D01*
X713736Y718822D02*
X703579D01*
X713736Y728979D01*
Y731518D01*
X711197Y734057D01*
X706118D01*
X703579Y731518D01*
X788674Y709932D02*
Y725167D01*
X796292D01*
X798831Y722628D01*
Y717550D01*
X796292Y715011D01*
X788674D01*
X793753D02*
X798831Y709932D01*
X803909Y722628D02*
X806448Y725167D01*
X811527D01*
X814066Y722628D01*
Y720089D01*
X811527Y717550D01*
X808988D01*
X811527D01*
X814066Y715011D01*
Y712472D01*
X811527Y709932D01*
X806448D01*
X803909Y712472D01*
X863604Y779092D02*
Y794327D01*
X871222D01*
X873761Y791788D01*
Y786710D01*
X871222Y784171D01*
X863604D01*
X868682D02*
X873761Y779092D01*
X888996D02*
X878839D01*
X888996Y789249D01*
Y791788D01*
X886457Y794327D01*
X881378D01*
X878839Y791788D01*
X795023Y901702D02*
Y916937D01*
X802641D01*
X805180Y914398D01*
Y909320D01*
X802641Y906781D01*
X795023D01*
X800102D02*
X805180Y901702D01*
X810258D02*
X815337D01*
X812798D01*
Y916937D01*
X810258Y914398D01*
D13*
X663956Y739645D02*
Y733298D01*
X665226Y732028D01*
X667765D01*
X669034Y733298D01*
Y739645D01*
X671573Y738376D02*
X672843Y739645D01*
X675382D01*
X676652Y738376D01*
Y737106D01*
X675382Y735837D01*
X674113D01*
X675382D01*
X676652Y734567D01*
Y733298D01*
X675382Y732028D01*
X672843D01*
X671573Y733298D01*
X741426Y846326D02*
Y839978D01*
X742696Y838708D01*
X745235D01*
X746504Y839978D01*
Y846326D01*
X754122Y838708D02*
X749044D01*
X754122Y843786D01*
Y845056D01*
X752852Y846326D01*
X750313D01*
X749044Y845056D01*
X861820Y721612D02*
X860551Y722881D01*
X858012D01*
X856742Y721612D01*
Y716534D01*
X858012Y715264D01*
X860551D01*
X861820Y716534D01*
X869438Y722881D02*
X866899Y721612D01*
X864360Y719073D01*
Y716534D01*
X865629Y715264D01*
X868168D01*
X869438Y716534D01*
Y717803D01*
X868168Y719073D01*
X864360D01*
X872490Y890269D02*
X871221Y891539D01*
X868682D01*
X867412Y890269D01*
Y885191D01*
X868682Y883921D01*
X871221D01*
X872490Y885191D01*
X878838Y883921D02*
Y891539D01*
X875030Y887730D01*
X880108D01*
X837690Y946402D02*
X836421Y947672D01*
X833882D01*
X832612Y946402D01*
Y941324D01*
X833882Y940054D01*
X836421D01*
X837690Y941324D01*
X845308Y940054D02*
X840229D01*
X845308Y945132D01*
Y946402D01*
X844038Y947672D01*
X841499D01*
X840229Y946402D01*
X665226Y947925D02*
Y941578D01*
X666496Y940308D01*
X669035D01*
X670304Y941578D01*
Y947925D01*
X672843Y940308D02*
X675383D01*
X674113D01*
Y947925D01*
X672843Y946656D01*
X298194Y944623D02*
X295655D01*
X296925D01*
Y938276D01*
X295655Y937006D01*
X294386D01*
X293116Y938276D01*
X300734Y937006D02*
X303273D01*
X302003D01*
Y944623D01*
X300734Y943354D01*
X624330Y738122D02*
X623061Y739391D01*
X620522D01*
X619252Y738122D01*
Y733044D01*
X620522Y731774D01*
X623061D01*
X624330Y733044D01*
X631948Y739391D02*
X626870D01*
Y735583D01*
X629409Y736852D01*
X630678D01*
X631948Y735583D01*
Y733044D01*
X630678Y731774D01*
X628139D01*
X626870Y733044D01*
X626870Y830832D02*
X625601Y832102D01*
X623062D01*
X621792Y830832D01*
Y825754D01*
X623062Y824484D01*
X625601D01*
X626870Y825754D01*
X629409Y830832D02*
X630679Y832102D01*
X633218D01*
X634488Y830832D01*
Y829562D01*
X633218Y828293D01*
X631949D01*
X633218D01*
X634488Y827023D01*
Y825754D01*
X633218Y824484D01*
X630679D01*
X629409Y825754D01*
X628140Y907032D02*
X626871Y908301D01*
X624332D01*
X623062Y907032D01*
Y901954D01*
X624332Y900684D01*
X626871D01*
X628140Y901954D01*
X630680Y900684D02*
X633219D01*
X631949D01*
Y908301D01*
X630680Y907032D01*
M02*
