G04*
G04 #@! TF.GenerationSoftware,Altium Limited,Altium Designer,21.8.1 (53)*
G04*
G04 Layer_Color=16711935*
%FSLAX23Y23*%
%MOIN*%
G70*
G04*
G04 #@! TF.SameCoordinates,5902FB8D-61F4-4A33-80A6-77BEAA8E0702*
G04*
G04*
G04 #@! TF.FilePolarity,Negative*
G04*
G01*
G75*
%ADD52R,0.041X0.034*%
%ADD53R,0.034X0.041*%
%ADD54R,0.037X0.041*%
%ADD58R,0.174X0.182*%
%ADD59R,0.031X0.032*%
G04:AMPARAMS|DCode=64|XSize=32mil|YSize=71mil|CornerRadius=5mil|HoleSize=0mil|Usage=FLASHONLY|Rotation=270.000|XOffset=0mil|YOffset=0mil|HoleType=Round|Shape=RoundedRectangle|*
%AMROUNDEDRECTD64*
21,1,0.032,0.061,0,0,270.0*
21,1,0.022,0.071,0,0,270.0*
1,1,0.010,-0.031,-0.011*
1,1,0.010,-0.031,0.011*
1,1,0.010,0.031,0.011*
1,1,0.010,0.031,-0.011*
%
%ADD64ROUNDEDRECTD64*%
%ADD68R,0.041X0.037*%
%ADD75R,0.030X0.051*%
%ADD78C,0.086*%
%ADD79C,0.093*%
%ADD80C,0.066*%
%ADD81R,0.066X0.066*%
%ADD82C,0.065*%
%ADD83O,0.065X0.065*%
%ADD84R,0.065X0.065*%
%ADD85C,0.061*%
%ADD86R,0.061X0.061*%
%ADD87R,0.061X0.061*%
%ADD88C,0.077*%
%ADD89C,0.144*%
%ADD90C,0.037*%
%ADD91C,0.036*%
%ADD92C,0.056*%
%ADD93C,0.256*%
%ADD94C,0.176*%
%ADD148R,0.136X0.106*%
%ADD149R,0.053X0.041*%
%ADD150R,0.053X0.041*%
%ADD151R,0.106X0.136*%
D52*
X7100Y2568D02*
D03*
Y2512D02*
D03*
X1335Y2013D02*
D03*
Y1957D02*
D03*
X7110Y1673D02*
D03*
Y1617D02*
D03*
X3741Y1232D02*
D03*
Y1288D02*
D03*
D53*
X7280Y3300D02*
D03*
X7225D02*
D03*
X7313Y2825D02*
D03*
X7257D02*
D03*
X7697Y4550D02*
D03*
X7753D02*
D03*
X6502Y1566D02*
D03*
X6558D02*
D03*
X3721Y1622D02*
D03*
X3666D02*
D03*
D54*
X4032Y2160D02*
D03*
X4088D02*
D03*
X4003Y2530D02*
D03*
X3947D02*
D03*
X3397Y4310D02*
D03*
X3453D02*
D03*
X3397Y4535D02*
D03*
X3453D02*
D03*
X3453Y4460D02*
D03*
X3397D02*
D03*
X3453Y4385D02*
D03*
X3397D02*
D03*
D58*
X4221Y1542D02*
D03*
D59*
X4317Y1467D02*
D03*
Y1517D02*
D03*
Y1567D02*
D03*
Y1617D02*
D03*
X4102D02*
D03*
Y1567D02*
D03*
Y1517D02*
D03*
Y1467D02*
D03*
D64*
X3585Y1385D02*
D03*
Y1435D02*
D03*
Y1485D02*
D03*
Y1535D02*
D03*
X3808Y1385D02*
D03*
Y1435D02*
D03*
Y1485D02*
D03*
Y1535D02*
D03*
D68*
X3516Y1232D02*
D03*
Y1288D02*
D03*
X3591Y1232D02*
D03*
Y1288D02*
D03*
X3666Y1288D02*
D03*
Y1232D02*
D03*
D75*
X3425Y4141D02*
D03*
X3462Y4229D02*
D03*
X3388D02*
D03*
D78*
X6086Y2287D02*
D03*
X6286D02*
D03*
D79*
X5176Y2752D02*
D03*
X5393Y3815D02*
D03*
Y4012D02*
D03*
X5176Y4208D02*
D03*
X5393D02*
D03*
X5609D02*
D03*
X5176Y4012D02*
D03*
X5609D02*
D03*
X5176Y3815D02*
D03*
X5609D02*
D03*
X5176Y3618D02*
D03*
X5393D02*
D03*
X5609D02*
D03*
X5176Y3421D02*
D03*
X5393D02*
D03*
X5609D02*
D03*
X5176Y3224D02*
D03*
X5393D02*
D03*
X5609D02*
D03*
X5176Y2988D02*
D03*
X5393D02*
D03*
X5609D02*
D03*
X5393Y2752D02*
D03*
X5609D02*
D03*
X5176Y2555D02*
D03*
X5393D02*
D03*
X5609D02*
D03*
X5176Y2358D02*
D03*
X5393D02*
D03*
X5609D02*
D03*
X5176Y2161D02*
D03*
X5393D02*
D03*
X5609D02*
D03*
X5176Y1964D02*
D03*
X5393D02*
D03*
X5609D02*
D03*
X5176Y1768D02*
D03*
X5393D02*
D03*
X5609D02*
D03*
X2352Y2988D02*
D03*
Y1768D02*
D03*
X2135D02*
D03*
X2568Y1964D02*
D03*
X2135Y3224D02*
D03*
Y4208D02*
D03*
X2352D02*
D03*
X2568D02*
D03*
X2135Y4012D02*
D03*
X2352D02*
D03*
X2568D02*
D03*
X2135Y3815D02*
D03*
X2352D02*
D03*
X2568D02*
D03*
X2135Y3618D02*
D03*
X2352D02*
D03*
X2568D02*
D03*
X2135Y3421D02*
D03*
X2352D02*
D03*
X2568D02*
D03*
X2352Y3224D02*
D03*
X2568D02*
D03*
X2135Y2988D02*
D03*
X2568D02*
D03*
X2135Y2752D02*
D03*
X2352D02*
D03*
X2568D02*
D03*
X2135Y2555D02*
D03*
X2352D02*
D03*
X2568D02*
D03*
X2135Y2358D02*
D03*
X2352D02*
D03*
X2568D02*
D03*
X2135Y2161D02*
D03*
X2352D02*
D03*
X2568D02*
D03*
X2135Y1964D02*
D03*
X2352D02*
D03*
X2568Y1768D02*
D03*
D80*
X3718Y4490D02*
D03*
Y4390D02*
D03*
X3618Y4490D02*
D03*
Y4390D02*
D03*
X3718Y4290D02*
D03*
Y4190D02*
D03*
Y4090D02*
D03*
Y3990D02*
D03*
Y3890D02*
D03*
Y3790D02*
D03*
Y3690D02*
D03*
Y3590D02*
D03*
Y3490D02*
D03*
Y3390D02*
D03*
Y3290D02*
D03*
Y3190D02*
D03*
Y3090D02*
D03*
X3618Y4290D02*
D03*
Y4190D02*
D03*
Y4090D02*
D03*
Y3990D02*
D03*
Y3890D02*
D03*
Y3790D02*
D03*
Y3690D02*
D03*
Y3590D02*
D03*
Y3490D02*
D03*
Y3390D02*
D03*
Y3290D02*
D03*
Y3190D02*
D03*
X989Y4490D02*
D03*
Y4390D02*
D03*
X889Y4490D02*
D03*
Y4390D02*
D03*
X989Y4290D02*
D03*
Y4190D02*
D03*
Y4090D02*
D03*
Y3990D02*
D03*
Y3890D02*
D03*
Y3790D02*
D03*
Y3690D02*
D03*
Y3590D02*
D03*
Y3490D02*
D03*
Y3390D02*
D03*
Y3290D02*
D03*
Y3190D02*
D03*
Y3090D02*
D03*
X889Y4290D02*
D03*
Y4190D02*
D03*
Y4090D02*
D03*
Y3990D02*
D03*
Y3890D02*
D03*
Y3790D02*
D03*
Y3690D02*
D03*
Y3590D02*
D03*
Y3490D02*
D03*
Y3390D02*
D03*
Y3290D02*
D03*
Y3190D02*
D03*
D81*
X3618Y3090D02*
D03*
X889D02*
D03*
D82*
X3954Y4680D02*
D03*
X1442Y1189D02*
D03*
X3488Y1850D02*
D03*
X1240Y2832D02*
D03*
X756Y3657D02*
D03*
X5915Y1180D02*
D03*
X4230Y1393D02*
D03*
X4082Y1221D02*
D03*
X3270Y1630D02*
D03*
X3370D02*
D03*
X3415Y1400D02*
D03*
X3315Y1515D02*
D03*
D83*
X3690Y1710D02*
D03*
D84*
X3470Y1630D02*
D03*
X3315Y1400D02*
D03*
X3415Y1515D02*
D03*
D85*
X4185Y3505D02*
D03*
Y3405D02*
D03*
Y3305D02*
D03*
Y3205D02*
D03*
Y3105D02*
D03*
X6130Y4535D02*
D03*
X6030D02*
D03*
X5930D02*
D03*
X5830D02*
D03*
X5730D02*
D03*
X5855Y3275D02*
D03*
X5955D02*
D03*
X6055D02*
D03*
X6155D02*
D03*
X6255D02*
D03*
X4185Y3840D02*
D03*
Y3940D02*
D03*
Y4040D02*
D03*
Y4140D02*
D03*
Y4240D02*
D03*
D86*
Y3005D02*
D03*
Y4340D02*
D03*
D87*
X5630Y4535D02*
D03*
X6355Y3275D02*
D03*
D88*
X1932Y2095D02*
D03*
X1832D02*
D03*
X1732D02*
D03*
X3440Y2020D02*
D03*
X3540D02*
D03*
X3640D02*
D03*
D89*
X1187Y1803D02*
D03*
X1360D02*
D03*
X1187Y2197D02*
D03*
X1360D02*
D03*
D90*
X3010Y2700D02*
D03*
X2945Y3140D02*
D03*
X3054Y2690D02*
D03*
X2975Y3172D02*
D03*
X2372Y2667D02*
D03*
X3535Y3765D02*
D03*
X2795Y2972D02*
D03*
X2789Y2927D02*
D03*
X2774Y2886D02*
D03*
X3366Y4705D02*
D03*
X3526Y4614D02*
D03*
X4093Y4436D02*
D03*
X4714Y4832D02*
D03*
X5501Y4254D02*
D03*
X1724Y3991D02*
D03*
X1694Y3967D02*
D03*
X1641Y2859D02*
D03*
X1670Y2834D02*
D03*
X1971Y3536D02*
D03*
X3120Y2705D02*
D03*
X3055Y3195D02*
D03*
X3075Y2730D02*
D03*
X3020Y3165D02*
D03*
X1182Y4241D02*
D03*
X1155Y4214D02*
D03*
X2890Y2605D02*
D03*
X2885Y3165D02*
D03*
X2840Y3145D02*
D03*
X2850Y2595D02*
D03*
X4130Y2880D02*
D03*
X4600Y2552D02*
D03*
X2895Y3125D02*
D03*
Y2715D02*
D03*
X4645Y2560D02*
D03*
X2935Y3095D02*
D03*
X4070Y2875D02*
D03*
X2955Y2704D02*
D03*
X2905Y2565D02*
D03*
X2820Y3070D02*
D03*
X2920Y3048D02*
D03*
X2895Y2660D02*
D03*
X2805Y2690D02*
D03*
X2790Y2650D02*
D03*
X3776Y2773D02*
D03*
X3893Y2986D02*
D03*
X3635Y3032D02*
D03*
X3901Y4000D02*
D03*
X3862D02*
D03*
X4003Y3032D02*
D03*
X4940Y3956D02*
D03*
X3980Y3220D02*
D03*
X3960Y3095D02*
D03*
X3802Y4116D02*
D03*
X4041Y1478D02*
D03*
X2729Y3920D02*
D03*
X2700Y3955D02*
D03*
X3800Y1344D02*
D03*
X2386Y1443D02*
D03*
X3304Y1987D02*
D03*
X2769Y3906D02*
D03*
X2757Y3385D02*
D03*
X2700Y3390D02*
D03*
X2729Y3420D02*
D03*
X1550Y2112D02*
D03*
X1517Y2067D02*
D03*
X1602Y2584D02*
D03*
X1597Y2530D02*
D03*
X1513Y3016D02*
D03*
X1610Y2940D02*
D03*
X2611Y2265D02*
D03*
X2681Y2027D02*
D03*
X3916Y1395D02*
D03*
X3938Y1627D02*
D03*
X3879Y1622D02*
D03*
X3920Y1577D02*
D03*
X2799Y1961D02*
D03*
X4041Y1520D02*
D03*
X4005Y1478D02*
D03*
Y1520D02*
D03*
Y1561D02*
D03*
Y1603D02*
D03*
X4041Y1561D02*
D03*
Y1603D02*
D03*
X4006Y1278D02*
D03*
Y1241D02*
D03*
X3970Y1278D02*
D03*
Y1241D02*
D03*
Y1198D02*
D03*
Y1156D02*
D03*
X4006Y1198D02*
D03*
Y1156D02*
D03*
X3309Y1795D02*
D03*
X3052Y1682D02*
D03*
X2703Y1474D02*
D03*
X3108Y1655D02*
D03*
X3147Y1671D02*
D03*
X2014Y1400D02*
D03*
X3705Y1345D02*
D03*
X5609Y3725D02*
D03*
X5700Y2395D02*
D03*
X5515Y2115D02*
D03*
X5476Y2895D02*
D03*
X5425Y2090D02*
D03*
X7425Y3835D02*
D03*
X5770Y2765D02*
D03*
X3970Y2030D02*
D03*
X4025Y2080D02*
D03*
X4056Y2115D02*
D03*
X4080Y2075D02*
D03*
X3927Y2025D02*
D03*
X3882Y2175D02*
D03*
X3520Y1350D02*
D03*
X1130Y2725D02*
D03*
X1285Y2570D02*
D03*
X3970Y3315D02*
D03*
X3571Y2415D02*
D03*
X3335D02*
D03*
X3915Y3335D02*
D03*
X3880Y3385D02*
D03*
X3932Y3225D02*
D03*
X4090Y2920D02*
D03*
X4695Y2705D02*
D03*
X4985Y3780D02*
D03*
X4660Y4690D02*
D03*
X4650Y4755D02*
D03*
X4625Y4790D02*
D03*
Y4722D02*
D03*
X3320Y4590D02*
D03*
X3475Y4615D02*
D03*
X2550Y4680D02*
D03*
X2505Y4675D02*
D03*
X4685Y2576D02*
D03*
X4740Y2525D02*
D03*
X3462Y3435D02*
D03*
Y3615D02*
D03*
X3820Y3635D02*
D03*
X2670Y3421D02*
D03*
X2665Y3575D02*
D03*
X3650Y2430D02*
D03*
X6965Y2435D02*
D03*
X7085D02*
D03*
X6530Y2515D02*
D03*
X6975Y2550D02*
D03*
X6570D02*
D03*
X6775Y2480D02*
D03*
X7005Y2470D02*
D03*
X7040Y2595D02*
D03*
X7335Y3815D02*
D03*
Y3935D02*
D03*
X4085Y2525D02*
D03*
X3885Y2266D02*
D03*
X3830Y2328D02*
D03*
X3858Y2381D02*
D03*
X3645Y2285D02*
D03*
X3490Y4495D02*
D03*
X3135Y2430D02*
D03*
X3425Y4265D02*
D03*
X3065Y2345D02*
D03*
X2765Y2735D02*
D03*
X3920Y2440D02*
D03*
X7460Y4390D02*
D03*
X5730Y2720D02*
D03*
X7225Y3355D02*
D03*
X6555Y2675D02*
D03*
X7250Y2885D02*
D03*
X6600Y2635D02*
D03*
X6425Y2598D02*
D03*
X7155Y2505D02*
D03*
X1467Y2340D02*
D03*
X7750Y4465D02*
D03*
X1620Y3000D02*
D03*
D91*
X2287Y2700D02*
D03*
X8438Y4800D02*
D03*
X8400Y4725D02*
D03*
X8438Y4650D02*
D03*
X8400Y4575D02*
D03*
X8438Y4500D02*
D03*
X8400Y4425D02*
D03*
X8438Y4350D02*
D03*
X8400Y4275D02*
D03*
X8438Y4200D02*
D03*
X8400Y4125D02*
D03*
X8438Y4050D02*
D03*
X8400Y3975D02*
D03*
X8438Y3900D02*
D03*
X8400Y3825D02*
D03*
X8438Y3750D02*
D03*
X8400Y3675D02*
D03*
X8438Y3600D02*
D03*
X8400Y3525D02*
D03*
X8438Y3450D02*
D03*
X8400Y3375D02*
D03*
X8438Y3300D02*
D03*
X8400Y3225D02*
D03*
X8438Y3150D02*
D03*
X8400Y3075D02*
D03*
X8438Y3000D02*
D03*
X8400Y2925D02*
D03*
X8438Y2850D02*
D03*
X8400Y2775D02*
D03*
X8438Y2700D02*
D03*
X8400Y2625D02*
D03*
X8438Y2550D02*
D03*
X8400Y2475D02*
D03*
X8438Y2400D02*
D03*
X8400Y2325D02*
D03*
X8438Y2250D02*
D03*
X8400Y2175D02*
D03*
X8438Y2100D02*
D03*
X8400Y2025D02*
D03*
X8438Y1950D02*
D03*
X8400Y1875D02*
D03*
X8438Y1800D02*
D03*
X8400Y1725D02*
D03*
X8438Y1650D02*
D03*
X8400Y1575D02*
D03*
X8438Y1500D02*
D03*
X8400Y1425D02*
D03*
X8438Y1350D02*
D03*
X8400Y1275D02*
D03*
X8438Y1200D02*
D03*
X8400Y1125D02*
D03*
X8363Y4800D02*
D03*
Y4500D02*
D03*
X8325Y4425D02*
D03*
X8363Y4350D02*
D03*
Y1350D02*
D03*
Y1200D02*
D03*
X8325Y1125D02*
D03*
X8288Y4800D02*
D03*
X8250Y4425D02*
D03*
X8288Y4350D02*
D03*
X8212Y4800D02*
D03*
X8175Y4425D02*
D03*
X8212Y4350D02*
D03*
X8175Y1125D02*
D03*
X8137Y4800D02*
D03*
X8100Y4725D02*
D03*
Y4575D02*
D03*
X8137Y4500D02*
D03*
X8100Y4425D02*
D03*
Y1125D02*
D03*
X8062Y4800D02*
D03*
X8025Y4725D02*
D03*
X8062Y4650D02*
D03*
X8025Y4575D02*
D03*
X8062Y4500D02*
D03*
X8025Y4275D02*
D03*
X8062Y4200D02*
D03*
X8025Y4125D02*
D03*
X8062Y4050D02*
D03*
X8025Y3975D02*
D03*
X8062Y3900D02*
D03*
X8025Y3825D02*
D03*
X8062Y3750D02*
D03*
X8025Y3675D02*
D03*
X8062Y3600D02*
D03*
X8025Y3525D02*
D03*
X8062Y3450D02*
D03*
X8025Y3375D02*
D03*
X8062Y3300D02*
D03*
X8025Y3225D02*
D03*
X8062Y3150D02*
D03*
X8025Y3075D02*
D03*
X8062Y3000D02*
D03*
X8025Y2925D02*
D03*
X8062Y2850D02*
D03*
X8025Y2775D02*
D03*
X8062Y2700D02*
D03*
X8025Y2625D02*
D03*
X8062Y2550D02*
D03*
X8025Y2475D02*
D03*
X8062Y2400D02*
D03*
X8025Y2325D02*
D03*
X8062Y2250D02*
D03*
X8025Y2175D02*
D03*
X8062Y2100D02*
D03*
X8025Y2025D02*
D03*
X8062Y1950D02*
D03*
X8025Y1875D02*
D03*
X8062Y1800D02*
D03*
X8025Y1725D02*
D03*
X8062Y1200D02*
D03*
X8025Y1125D02*
D03*
X7950Y4275D02*
D03*
X7988Y4200D02*
D03*
X7950Y4125D02*
D03*
X7988Y4050D02*
D03*
X7950Y3975D02*
D03*
X7988Y3900D02*
D03*
X7950Y3825D02*
D03*
X7988Y3750D02*
D03*
X7950Y3675D02*
D03*
X7988Y3600D02*
D03*
X7950Y3525D02*
D03*
X7988Y3450D02*
D03*
X7950Y3375D02*
D03*
X7988Y3300D02*
D03*
X7950Y3225D02*
D03*
X7988Y3150D02*
D03*
X7950Y3075D02*
D03*
X7988Y3000D02*
D03*
X7950Y2925D02*
D03*
X7988Y2850D02*
D03*
X7950Y2775D02*
D03*
X7988Y2700D02*
D03*
X7950Y2625D02*
D03*
X7988Y2550D02*
D03*
X7950Y2475D02*
D03*
X7988Y2400D02*
D03*
X7950Y2325D02*
D03*
X7988Y2250D02*
D03*
X7950Y2175D02*
D03*
X7988Y2100D02*
D03*
X7950Y2025D02*
D03*
X7988Y1950D02*
D03*
X7950Y1875D02*
D03*
X7988Y1800D02*
D03*
X7950Y1725D02*
D03*
X7988Y1650D02*
D03*
X7950Y1575D02*
D03*
Y1125D02*
D03*
X7912Y4200D02*
D03*
X7875Y4125D02*
D03*
X7912Y4050D02*
D03*
Y3900D02*
D03*
X7875Y3825D02*
D03*
X7912Y3750D02*
D03*
Y3600D02*
D03*
Y3450D02*
D03*
X7875Y3375D02*
D03*
X7912Y3300D02*
D03*
Y3150D02*
D03*
X7875Y3075D02*
D03*
X7912Y3000D02*
D03*
Y2850D02*
D03*
Y2700D02*
D03*
X7875Y2625D02*
D03*
X7912Y2550D02*
D03*
Y2400D02*
D03*
Y1650D02*
D03*
X7875Y1575D02*
D03*
X7838Y4800D02*
D03*
X7800Y4725D02*
D03*
X7838Y4650D02*
D03*
X7800Y4575D02*
D03*
X7838Y4500D02*
D03*
X7800Y4425D02*
D03*
Y4125D02*
D03*
X7838Y3900D02*
D03*
X7800Y3825D02*
D03*
Y3375D02*
D03*
Y3075D02*
D03*
X7838Y2850D02*
D03*
X7800Y2625D02*
D03*
X7838Y2400D02*
D03*
X7800Y1875D02*
D03*
Y1575D02*
D03*
X7762Y4800D02*
D03*
X7725Y4725D02*
D03*
X7762Y4650D02*
D03*
X7725Y4275D02*
D03*
Y4125D02*
D03*
X7762Y4050D02*
D03*
X7725Y3975D02*
D03*
X7762Y3900D02*
D03*
X7725Y3825D02*
D03*
Y3675D02*
D03*
X7762Y3600D02*
D03*
X7725Y3525D02*
D03*
X7762Y3450D02*
D03*
X7725Y3375D02*
D03*
X7762Y3300D02*
D03*
Y3150D02*
D03*
X7725Y3075D02*
D03*
X7762Y3000D02*
D03*
X7725Y2925D02*
D03*
X7762Y2850D02*
D03*
X7725Y2775D02*
D03*
Y2625D02*
D03*
X7762Y2550D02*
D03*
X7725Y2475D02*
D03*
X7762Y2400D02*
D03*
X7725Y2175D02*
D03*
X7762Y2100D02*
D03*
X7725Y2025D02*
D03*
X7762Y1950D02*
D03*
X7725Y1875D02*
D03*
X7762Y1800D02*
D03*
Y1650D02*
D03*
X7725Y1575D02*
D03*
X7762Y1500D02*
D03*
X7688Y4800D02*
D03*
X7650Y4725D02*
D03*
X7688Y4650D02*
D03*
X7650Y4575D02*
D03*
X7688Y4500D02*
D03*
X7650Y4275D02*
D03*
X7688Y4050D02*
D03*
Y3900D02*
D03*
X7650Y3825D02*
D03*
X7688Y3600D02*
D03*
Y3450D02*
D03*
X7650Y3375D02*
D03*
X7688Y3300D02*
D03*
Y3150D02*
D03*
Y3000D02*
D03*
X7650Y2925D02*
D03*
X7688Y2850D02*
D03*
X7650Y2775D02*
D03*
X7688Y2550D02*
D03*
Y2400D02*
D03*
Y2100D02*
D03*
Y1950D02*
D03*
X7650Y1875D02*
D03*
X7688Y1800D02*
D03*
Y1650D02*
D03*
Y1500D02*
D03*
X7650Y1425D02*
D03*
X7613Y4800D02*
D03*
Y4650D02*
D03*
X7575Y4575D02*
D03*
X7613Y4500D02*
D03*
X7575Y4275D02*
D03*
Y4125D02*
D03*
X7613Y3450D02*
D03*
Y3300D02*
D03*
X7575Y3225D02*
D03*
Y3075D02*
D03*
Y2925D02*
D03*
X7613Y2850D02*
D03*
X7575Y2625D02*
D03*
Y2475D02*
D03*
X7613Y2400D02*
D03*
X7575Y2175D02*
D03*
Y2025D02*
D03*
X7613Y1950D02*
D03*
X7575Y1875D02*
D03*
X7613Y1800D02*
D03*
X7575Y1725D02*
D03*
Y1575D02*
D03*
Y1425D02*
D03*
X7500Y4575D02*
D03*
Y4275D02*
D03*
Y4125D02*
D03*
Y3825D02*
D03*
X7537Y2700D02*
D03*
Y2550D02*
D03*
Y2400D02*
D03*
X7500Y2175D02*
D03*
X7537Y2100D02*
D03*
X7500Y2025D02*
D03*
X7537Y1950D02*
D03*
X7425Y4725D02*
D03*
X7463Y4650D02*
D03*
X7425Y4575D02*
D03*
X7463Y4500D02*
D03*
X7425Y4425D02*
D03*
Y3975D02*
D03*
X7463Y3600D02*
D03*
X7425Y3525D02*
D03*
X7463Y3450D02*
D03*
X7425Y3375D02*
D03*
X7463Y3300D02*
D03*
X7425Y3225D02*
D03*
X7463Y3150D02*
D03*
X7425Y3075D02*
D03*
X7463Y3000D02*
D03*
X7425Y2925D02*
D03*
X7463Y2850D02*
D03*
X7425Y2775D02*
D03*
X7463Y2700D02*
D03*
X7425Y2625D02*
D03*
X7463Y2550D02*
D03*
X7425Y2475D02*
D03*
X7463Y2250D02*
D03*
X7425Y2175D02*
D03*
X7463Y2100D02*
D03*
X7425Y2025D02*
D03*
X7463Y1950D02*
D03*
X7350Y4725D02*
D03*
X7387Y4650D02*
D03*
X7350Y4575D02*
D03*
X7387Y4500D02*
D03*
Y4050D02*
D03*
X7350Y3975D02*
D03*
X7387Y3900D02*
D03*
Y3600D02*
D03*
X7350Y3525D02*
D03*
X7387Y3450D02*
D03*
X7350Y3375D02*
D03*
X7387Y3300D02*
D03*
X7350Y3225D02*
D03*
X7387Y3150D02*
D03*
X7350Y3075D02*
D03*
X7387Y3000D02*
D03*
X7350Y2925D02*
D03*
X7387Y2850D02*
D03*
X7350Y2775D02*
D03*
X7387Y2700D02*
D03*
X7350Y2625D02*
D03*
X7387Y2550D02*
D03*
X7350Y2475D02*
D03*
X7387Y2250D02*
D03*
Y2100D02*
D03*
X7312Y4650D02*
D03*
Y4050D02*
D03*
X7275Y3825D02*
D03*
X7312Y3750D02*
D03*
Y3450D02*
D03*
X7275Y3375D02*
D03*
X7312Y3150D02*
D03*
Y3000D02*
D03*
Y2700D02*
D03*
Y2550D02*
D03*
X7200Y4125D02*
D03*
X7238Y3900D02*
D03*
X7200Y3825D02*
D03*
Y2625D02*
D03*
X7125Y4725D02*
D03*
X7162Y4650D02*
D03*
X7125Y4575D02*
D03*
X7162Y4500D02*
D03*
X7125Y4275D02*
D03*
X7162Y4200D02*
D03*
X7125Y4125D02*
D03*
X7162Y4050D02*
D03*
X7125Y3975D02*
D03*
X7162Y3900D02*
D03*
X7125Y3825D02*
D03*
X7162Y3750D02*
D03*
X7125Y3675D02*
D03*
X7162Y3600D02*
D03*
X7125Y3525D02*
D03*
X7162Y3300D02*
D03*
X7125Y3225D02*
D03*
X7162Y3150D02*
D03*
X7125Y3075D02*
D03*
X7162Y3000D02*
D03*
X7125Y2925D02*
D03*
X7162Y2850D02*
D03*
X7125Y2775D02*
D03*
X7162Y2550D02*
D03*
X7125Y2475D02*
D03*
Y2175D02*
D03*
Y2025D02*
D03*
Y1875D02*
D03*
X7162Y1800D02*
D03*
X7125Y1725D02*
D03*
X7050Y4725D02*
D03*
X7088Y4650D02*
D03*
X7050Y4575D02*
D03*
X7088Y4500D02*
D03*
X7050Y4275D02*
D03*
X7088Y4200D02*
D03*
X7050Y4125D02*
D03*
X7088Y4050D02*
D03*
X7050Y3975D02*
D03*
X7088Y3900D02*
D03*
X7050Y3825D02*
D03*
X7088Y3750D02*
D03*
X7050Y3675D02*
D03*
X7088Y3600D02*
D03*
X7050Y3525D02*
D03*
X7088Y3300D02*
D03*
X7050Y3225D02*
D03*
X7088Y3150D02*
D03*
X7050Y3075D02*
D03*
X7088Y3000D02*
D03*
X7050Y2925D02*
D03*
X7088Y2850D02*
D03*
X7050Y2775D02*
D03*
Y2325D02*
D03*
X7088Y2250D02*
D03*
X7050Y2175D02*
D03*
X7088Y2100D02*
D03*
X7050Y2025D02*
D03*
X7088Y1950D02*
D03*
X7050Y1875D02*
D03*
X7088Y1800D02*
D03*
X7050Y1725D02*
D03*
X7088Y1500D02*
D03*
X6975Y4725D02*
D03*
X7012Y4650D02*
D03*
X6975Y4575D02*
D03*
X7012Y4500D02*
D03*
X6975Y4275D02*
D03*
X7012Y4200D02*
D03*
X6975Y4125D02*
D03*
X7012Y4050D02*
D03*
X6975Y3975D02*
D03*
X7012Y3900D02*
D03*
X6975Y3825D02*
D03*
X7012Y3750D02*
D03*
X6975Y3675D02*
D03*
X7012Y3600D02*
D03*
X6975Y3525D02*
D03*
X7012Y3450D02*
D03*
X6975Y3375D02*
D03*
X7012Y3150D02*
D03*
Y3000D02*
D03*
Y2850D02*
D03*
X6975Y2325D02*
D03*
X7012Y2250D02*
D03*
X6975Y2175D02*
D03*
X7012Y2100D02*
D03*
X6975Y2025D02*
D03*
X7012Y1950D02*
D03*
X6975Y1875D02*
D03*
X7012Y1800D02*
D03*
X6975Y1725D02*
D03*
X7012Y1500D02*
D03*
X6938Y4650D02*
D03*
X6900Y4575D02*
D03*
X6938Y4500D02*
D03*
Y4200D02*
D03*
X6900Y4125D02*
D03*
X6938Y4050D02*
D03*
Y3900D02*
D03*
X6900Y3825D02*
D03*
X6938Y3750D02*
D03*
Y3600D02*
D03*
Y3450D02*
D03*
X6900Y3075D02*
D03*
Y2325D02*
D03*
X6938Y2250D02*
D03*
Y2100D02*
D03*
Y1950D02*
D03*
X6900Y1875D02*
D03*
X6938Y1800D02*
D03*
X6825Y4575D02*
D03*
Y4125D02*
D03*
X6863Y3900D02*
D03*
X6825Y3825D02*
D03*
Y3375D02*
D03*
Y3075D02*
D03*
X6863Y2850D02*
D03*
X6825Y2325D02*
D03*
Y1875D02*
D03*
X6787Y4650D02*
D03*
X6750Y4575D02*
D03*
X6787Y4500D02*
D03*
X6750Y4275D02*
D03*
Y4125D02*
D03*
X6787Y4050D02*
D03*
X6750Y3975D02*
D03*
X6787Y3900D02*
D03*
X6750Y3825D02*
D03*
Y3675D02*
D03*
X6787Y3600D02*
D03*
X6750Y3525D02*
D03*
X6787Y3450D02*
D03*
X6750Y3375D02*
D03*
X6787Y3150D02*
D03*
X6750Y3075D02*
D03*
X6787Y3000D02*
D03*
X6750Y2925D02*
D03*
X6787Y2850D02*
D03*
X6750Y2775D02*
D03*
Y2325D02*
D03*
Y2025D02*
D03*
X6787Y1950D02*
D03*
X6713Y4650D02*
D03*
Y4500D02*
D03*
X6675Y4275D02*
D03*
X6713Y4050D02*
D03*
Y3900D02*
D03*
X6675Y3825D02*
D03*
X6713Y3600D02*
D03*
Y3450D02*
D03*
X6675Y3375D02*
D03*
X6713Y3150D02*
D03*
Y3000D02*
D03*
X6675Y2925D02*
D03*
X6713Y2850D02*
D03*
X6675Y2775D02*
D03*
X6713Y2100D02*
D03*
Y1950D02*
D03*
Y1500D02*
D03*
X6600Y4725D02*
D03*
Y4575D02*
D03*
Y4275D02*
D03*
Y4125D02*
D03*
Y3975D02*
D03*
X6637Y3900D02*
D03*
X6600Y3825D02*
D03*
Y3675D02*
D03*
Y3525D02*
D03*
X6637Y3450D02*
D03*
X6600Y3375D02*
D03*
Y3225D02*
D03*
Y3075D02*
D03*
Y2925D02*
D03*
X6637Y2850D02*
D03*
X6600Y2775D02*
D03*
Y2175D02*
D03*
Y1725D02*
D03*
Y1575D02*
D03*
X6525Y4725D02*
D03*
X6562Y4650D02*
D03*
Y4350D02*
D03*
X6525Y4275D02*
D03*
X6562Y4200D02*
D03*
X6525Y4125D02*
D03*
X6562Y4050D02*
D03*
X6525Y3975D02*
D03*
X6562Y3900D02*
D03*
X6525Y3825D02*
D03*
X6562Y3750D02*
D03*
X6525Y3675D02*
D03*
X6562Y3600D02*
D03*
Y3000D02*
D03*
X6525Y2925D02*
D03*
X6562Y2850D02*
D03*
X6525Y2775D02*
D03*
Y2175D02*
D03*
X6562Y2100D02*
D03*
X6488Y4350D02*
D03*
X6450Y4275D02*
D03*
X6488Y4200D02*
D03*
X6450Y4125D02*
D03*
X6488Y4050D02*
D03*
X6450Y3975D02*
D03*
X6488Y3900D02*
D03*
X6450Y3825D02*
D03*
X6488Y3750D02*
D03*
X6450Y3675D02*
D03*
X6488Y3600D02*
D03*
X6450Y2925D02*
D03*
X6488Y2850D02*
D03*
Y2700D02*
D03*
X6450Y1875D02*
D03*
X6488Y1800D02*
D03*
X6412Y4350D02*
D03*
X6375Y4275D02*
D03*
X6412Y4200D02*
D03*
X6375Y4125D02*
D03*
X6412Y4050D02*
D03*
X6375Y3975D02*
D03*
X6412Y3900D02*
D03*
X6375Y3825D02*
D03*
X6412Y3750D02*
D03*
X6375Y3225D02*
D03*
X6412Y3150D02*
D03*
X6375Y2925D02*
D03*
X6412Y2850D02*
D03*
X6375Y1875D02*
D03*
X6338Y4350D02*
D03*
X6300Y4275D02*
D03*
X6338Y4200D02*
D03*
X6300Y4125D02*
D03*
X6338Y4050D02*
D03*
X6300Y3975D02*
D03*
X6338Y3900D02*
D03*
X6300Y3825D02*
D03*
X6338Y3750D02*
D03*
X6300Y3525D02*
D03*
X6338Y3450D02*
D03*
X6300Y3225D02*
D03*
X6338Y3150D02*
D03*
X6300Y2925D02*
D03*
X6262Y4350D02*
D03*
X6225Y4275D02*
D03*
X6262Y4200D02*
D03*
X6225Y4125D02*
D03*
X6262Y4050D02*
D03*
X6225Y3975D02*
D03*
X6262Y3900D02*
D03*
X6225Y3525D02*
D03*
X6262Y3450D02*
D03*
X6225Y3225D02*
D03*
X6262Y3150D02*
D03*
X6225Y3075D02*
D03*
Y2625D02*
D03*
X6150Y4425D02*
D03*
X6188Y4350D02*
D03*
X6150Y4275D02*
D03*
X6188Y4200D02*
D03*
X6150Y4125D02*
D03*
X6188Y4050D02*
D03*
X6150Y3975D02*
D03*
X6188Y3900D02*
D03*
X6150Y3675D02*
D03*
X6188Y3600D02*
D03*
X6150Y3525D02*
D03*
X6188Y3450D02*
D03*
Y2250D02*
D03*
Y1950D02*
D03*
X6113Y4650D02*
D03*
X6075Y4425D02*
D03*
X6113Y4350D02*
D03*
X6075Y4275D02*
D03*
X6113Y4200D02*
D03*
X6075Y4125D02*
D03*
X6113Y4050D02*
D03*
X6075Y3675D02*
D03*
X6113Y3600D02*
D03*
X6075Y3525D02*
D03*
X6113Y3450D02*
D03*
X6075Y3225D02*
D03*
Y2925D02*
D03*
X6037Y4650D02*
D03*
X6000Y4425D02*
D03*
X6037Y4350D02*
D03*
X6000Y4275D02*
D03*
X6037Y4200D02*
D03*
X6000Y4125D02*
D03*
X6037Y4050D02*
D03*
X6000Y3825D02*
D03*
X6037Y3750D02*
D03*
X6000Y3675D02*
D03*
X6037Y3600D02*
D03*
X6000Y3525D02*
D03*
X6037Y3450D02*
D03*
X6000Y3225D02*
D03*
X6037Y3150D02*
D03*
X6000Y3075D02*
D03*
Y2775D02*
D03*
Y2625D02*
D03*
Y2325D02*
D03*
Y1725D02*
D03*
X5963Y4650D02*
D03*
X5925Y4425D02*
D03*
X5963Y4350D02*
D03*
X5925Y4275D02*
D03*
X5963Y4200D02*
D03*
X5925Y3825D02*
D03*
X5963Y3750D02*
D03*
Y3600D02*
D03*
X5925Y3525D02*
D03*
X5963Y3450D02*
D03*
Y3150D02*
D03*
X5925Y3075D02*
D03*
X5963Y3000D02*
D03*
X5925Y2775D02*
D03*
X5963Y2700D02*
D03*
X5925Y2625D02*
D03*
Y2325D02*
D03*
X5963Y2250D02*
D03*
X5925Y1725D02*
D03*
X5887Y4650D02*
D03*
Y4350D02*
D03*
X5850Y4275D02*
D03*
X5887Y4200D02*
D03*
X5850Y3975D02*
D03*
X5887Y3900D02*
D03*
X5850Y3825D02*
D03*
Y3675D02*
D03*
X5887Y3600D02*
D03*
X5850Y3525D02*
D03*
X5887Y3450D02*
D03*
Y3150D02*
D03*
X5850Y3075D02*
D03*
X5887Y3000D02*
D03*
X5850Y2925D02*
D03*
X5887Y2700D02*
D03*
X5850Y2625D02*
D03*
Y2325D02*
D03*
X5887Y2250D02*
D03*
Y1800D02*
D03*
X5850Y1725D02*
D03*
X5812Y4650D02*
D03*
Y4350D02*
D03*
X5775Y3975D02*
D03*
X5812Y3900D02*
D03*
X5775Y3825D02*
D03*
X5812Y3600D02*
D03*
X5775Y3525D02*
D03*
X5812Y3450D02*
D03*
Y3300D02*
D03*
X5775Y3225D02*
D03*
X5812Y3150D02*
D03*
Y3000D02*
D03*
Y2700D02*
D03*
X5775Y2325D02*
D03*
X5812Y2250D02*
D03*
Y1800D02*
D03*
X5775Y1725D02*
D03*
X5738Y4650D02*
D03*
Y4350D02*
D03*
X5700Y4125D02*
D03*
X5738Y4050D02*
D03*
X5700Y3975D02*
D03*
X5738Y3900D02*
D03*
X5700Y3825D02*
D03*
X5738Y3600D02*
D03*
X5700Y3525D02*
D03*
X5738Y3450D02*
D03*
Y3300D02*
D03*
X5700Y2325D02*
D03*
X5738Y2250D02*
D03*
Y1800D02*
D03*
X5700Y1725D02*
D03*
X5662Y4650D02*
D03*
X5625Y4125D02*
D03*
X5662Y4050D02*
D03*
Y3900D02*
D03*
Y3750D02*
D03*
X5625Y3525D02*
D03*
X5662Y3300D02*
D03*
Y3150D02*
D03*
X5625Y3075D02*
D03*
X5662Y2250D02*
D03*
X5588Y4650D02*
D03*
X5550Y4575D02*
D03*
X5588Y3900D02*
D03*
X5550Y3675D02*
D03*
Y3525D02*
D03*
Y3375D02*
D03*
X5588Y3300D02*
D03*
Y3150D02*
D03*
X5550Y3075D02*
D03*
Y2925D02*
D03*
Y2325D02*
D03*
Y1875D02*
D03*
Y1725D02*
D03*
X5512Y4650D02*
D03*
X5475Y4575D02*
D03*
X5512Y3300D02*
D03*
X5475Y3225D02*
D03*
X5512Y3150D02*
D03*
X5475Y3075D02*
D03*
X5512Y3000D02*
D03*
Y1950D02*
D03*
Y1800D02*
D03*
X5438Y4650D02*
D03*
X5400Y4575D02*
D03*
Y4275D02*
D03*
Y4125D02*
D03*
X5438Y3750D02*
D03*
Y3150D02*
D03*
Y2250D02*
D03*
X5363Y4650D02*
D03*
X5325Y4575D02*
D03*
Y4125D02*
D03*
Y3825D02*
D03*
X5363Y3750D02*
D03*
X5325Y3675D02*
D03*
Y3525D02*
D03*
Y3375D02*
D03*
Y3075D02*
D03*
Y2925D02*
D03*
Y2775D02*
D03*
Y2475D02*
D03*
Y2325D02*
D03*
X5363Y2250D02*
D03*
X5325Y1875D02*
D03*
X5287Y4650D02*
D03*
X5250Y4575D02*
D03*
Y4275D02*
D03*
X5287Y4200D02*
D03*
X5250Y3975D02*
D03*
X5287Y3900D02*
D03*
X5250Y3825D02*
D03*
X5287Y3750D02*
D03*
X5250Y3525D02*
D03*
X5287Y3450D02*
D03*
X5250Y3375D02*
D03*
X5287Y3300D02*
D03*
Y3150D02*
D03*
X5250Y3075D02*
D03*
X5287Y3000D02*
D03*
X5250Y2925D02*
D03*
Y2775D02*
D03*
Y2175D02*
D03*
X5287Y2100D02*
D03*
Y1950D02*
D03*
X5250Y1875D02*
D03*
X5213Y4650D02*
D03*
X5175Y4575D02*
D03*
Y4275D02*
D03*
X5213Y3900D02*
D03*
Y3750D02*
D03*
Y2250D02*
D03*
Y2100D02*
D03*
X5137Y4650D02*
D03*
X5100Y4575D02*
D03*
Y4275D02*
D03*
Y3975D02*
D03*
X5137Y3750D02*
D03*
X5100Y3375D02*
D03*
X5137Y3150D02*
D03*
X5100Y3075D02*
D03*
Y2925D02*
D03*
Y2775D02*
D03*
X5062Y4650D02*
D03*
X5025Y4575D02*
D03*
Y4275D02*
D03*
X5062Y4200D02*
D03*
X5025Y3975D02*
D03*
Y3675D02*
D03*
X5062Y3450D02*
D03*
X5025Y3375D02*
D03*
X5062Y3300D02*
D03*
Y3150D02*
D03*
X5025Y3075D02*
D03*
X5062Y3000D02*
D03*
X5025Y2925D02*
D03*
Y2775D02*
D03*
Y2175D02*
D03*
X5062Y2100D02*
D03*
X4988Y4650D02*
D03*
X4950Y4575D02*
D03*
Y4275D02*
D03*
X4988Y4200D02*
D03*
X4950Y3675D02*
D03*
X4988Y3600D02*
D03*
Y3450D02*
D03*
X4950Y3375D02*
D03*
X4988Y3300D02*
D03*
Y3150D02*
D03*
X4950Y3075D02*
D03*
X4988Y3000D02*
D03*
X4950Y2925D02*
D03*
Y2775D02*
D03*
X4988Y2400D02*
D03*
X4950Y2175D02*
D03*
X4988Y2100D02*
D03*
X4912Y4650D02*
D03*
X4875Y4575D02*
D03*
Y4275D02*
D03*
X4912Y4200D02*
D03*
Y4050D02*
D03*
X4875Y3675D02*
D03*
X4912Y3600D02*
D03*
X4875Y3525D02*
D03*
X4912Y3300D02*
D03*
Y3150D02*
D03*
X4875Y3075D02*
D03*
X4912Y3000D02*
D03*
X4875Y2925D02*
D03*
Y2775D02*
D03*
X4912Y2400D02*
D03*
X4875Y2175D02*
D03*
X4912Y2100D02*
D03*
X4838Y4650D02*
D03*
X4800Y4575D02*
D03*
Y4275D02*
D03*
X4838Y4200D02*
D03*
Y4050D02*
D03*
X4800Y3675D02*
D03*
X4838Y3600D02*
D03*
X4800Y3525D02*
D03*
X4838Y3450D02*
D03*
Y3300D02*
D03*
Y3150D02*
D03*
X4800Y3075D02*
D03*
X4838Y3000D02*
D03*
X4800Y2775D02*
D03*
X4838Y2400D02*
D03*
Y2100D02*
D03*
X4800Y2025D02*
D03*
X4762Y4650D02*
D03*
X4725Y4275D02*
D03*
X4762Y4200D02*
D03*
Y4050D02*
D03*
X4725Y3675D02*
D03*
X4762Y3600D02*
D03*
X4725Y3525D02*
D03*
X4762Y3450D02*
D03*
Y3300D02*
D03*
Y3150D02*
D03*
X4725Y3075D02*
D03*
Y2925D02*
D03*
X4762Y2850D02*
D03*
X4725Y2775D02*
D03*
Y2475D02*
D03*
X4762Y2400D02*
D03*
Y2100D02*
D03*
X4725Y2025D02*
D03*
X4650Y4425D02*
D03*
X4688Y4200D02*
D03*
Y4050D02*
D03*
X4650Y3675D02*
D03*
X4688Y3600D02*
D03*
X4650Y3525D02*
D03*
X4688Y3450D02*
D03*
Y3300D02*
D03*
Y3150D02*
D03*
X4650Y2925D02*
D03*
X4688Y2850D02*
D03*
X4650Y2475D02*
D03*
X4688Y2400D02*
D03*
X4650Y2325D02*
D03*
X4688Y2100D02*
D03*
X4650Y2025D02*
D03*
X4688Y1950D02*
D03*
X4613Y4500D02*
D03*
X4575Y4425D02*
D03*
X4613Y4200D02*
D03*
X4575Y3975D02*
D03*
Y3675D02*
D03*
X4613Y3600D02*
D03*
X4575Y3525D02*
D03*
X4613Y3450D02*
D03*
Y3300D02*
D03*
Y3150D02*
D03*
Y3000D02*
D03*
X4575Y2925D02*
D03*
Y2475D02*
D03*
X4613Y2400D02*
D03*
X4575Y2325D02*
D03*
Y2025D02*
D03*
X4500Y4575D02*
D03*
Y4425D02*
D03*
Y4275D02*
D03*
X4537Y3600D02*
D03*
X4500Y3525D02*
D03*
X4537Y3450D02*
D03*
Y3300D02*
D03*
Y3150D02*
D03*
Y3000D02*
D03*
X4500Y2775D02*
D03*
X4537Y2700D02*
D03*
Y2400D02*
D03*
Y2100D02*
D03*
X4463Y4650D02*
D03*
X4425Y4575D02*
D03*
X4463Y4500D02*
D03*
X4425Y4275D02*
D03*
X4463Y4200D02*
D03*
Y4050D02*
D03*
X4425Y3825D02*
D03*
Y3525D02*
D03*
X4463Y3450D02*
D03*
Y3300D02*
D03*
Y3150D02*
D03*
Y3000D02*
D03*
Y2850D02*
D03*
X4425Y2775D02*
D03*
X4463Y2700D02*
D03*
X4425Y2625D02*
D03*
X4387Y4650D02*
D03*
X4350Y4575D02*
D03*
X4387Y4500D02*
D03*
X4350Y4275D02*
D03*
X4387Y4200D02*
D03*
X4350Y4125D02*
D03*
Y3375D02*
D03*
X4387Y3300D02*
D03*
Y3150D02*
D03*
Y3000D02*
D03*
Y2850D02*
D03*
X4350Y2775D02*
D03*
X4387Y2700D02*
D03*
X4350Y2625D02*
D03*
X4387Y2550D02*
D03*
X4312Y4500D02*
D03*
X4275Y4275D02*
D03*
X4312Y4200D02*
D03*
X4275Y4125D02*
D03*
X4312Y3900D02*
D03*
Y3450D02*
D03*
X4275Y3375D02*
D03*
X4312Y3300D02*
D03*
Y3150D02*
D03*
Y3000D02*
D03*
Y2850D02*
D03*
Y2550D02*
D03*
X4238Y3450D02*
D03*
Y3300D02*
D03*
Y3150D02*
D03*
Y3000D02*
D03*
Y2550D02*
D03*
X4125Y3975D02*
D03*
Y3825D02*
D03*
X4162Y3150D02*
D03*
Y1350D02*
D03*
X4050Y4575D02*
D03*
X4088Y4500D02*
D03*
X4050Y4275D02*
D03*
X4088Y4200D02*
D03*
X4050Y4125D02*
D03*
Y3975D02*
D03*
Y2625D02*
D03*
X4012Y4650D02*
D03*
Y4350D02*
D03*
X3975Y4275D02*
D03*
X4012Y4200D02*
D03*
X3975Y4125D02*
D03*
Y3975D02*
D03*
X4012Y3900D02*
D03*
Y3750D02*
D03*
X3975Y3675D02*
D03*
Y3525D02*
D03*
X3900Y4575D02*
D03*
Y4425D02*
D03*
X3938Y4350D02*
D03*
X3900Y4275D02*
D03*
X3938Y4200D02*
D03*
X3900Y3675D02*
D03*
X3938Y3600D02*
D03*
X3900Y3525D02*
D03*
X3938Y3450D02*
D03*
Y3300D02*
D03*
Y3150D02*
D03*
X3825Y4575D02*
D03*
X3862Y4500D02*
D03*
X3825Y4425D02*
D03*
X3862Y4350D02*
D03*
Y3900D02*
D03*
X3825Y3825D02*
D03*
X3862Y3750D02*
D03*
X3825Y3675D02*
D03*
X3862Y3600D02*
D03*
Y1500D02*
D03*
X3750Y4575D02*
D03*
X3787Y4500D02*
D03*
Y4350D02*
D03*
X3675Y4575D02*
D03*
Y1875D02*
D03*
X3713Y1800D02*
D03*
X3675Y1575D02*
D03*
X3600Y4575D02*
D03*
X3638Y1950D02*
D03*
X3600Y1875D02*
D03*
X3562Y4500D02*
D03*
Y4350D02*
D03*
Y3900D02*
D03*
X3525Y3225D02*
D03*
X3562Y3000D02*
D03*
X3525Y2775D02*
D03*
Y1725D02*
D03*
X3450Y3975D02*
D03*
Y3075D02*
D03*
X3487Y3000D02*
D03*
X3450Y2925D02*
D03*
X3487Y2850D02*
D03*
X3450Y2775D02*
D03*
X3487Y1950D02*
D03*
X3450Y1725D02*
D03*
Y1575D02*
D03*
X3375Y4125D02*
D03*
X3412Y3900D02*
D03*
Y3750D02*
D03*
X3375Y3675D02*
D03*
X3412Y3600D02*
D03*
Y3450D02*
D03*
X3375Y3375D02*
D03*
X3412Y3300D02*
D03*
X3375Y3225D02*
D03*
Y3075D02*
D03*
X3412Y3000D02*
D03*
X3375Y2925D02*
D03*
X3412Y2850D02*
D03*
X3375Y2775D02*
D03*
Y2025D02*
D03*
Y1875D02*
D03*
X3412Y1800D02*
D03*
X3375Y1725D02*
D03*
Y1575D02*
D03*
X3338Y4050D02*
D03*
X3300Y3975D02*
D03*
X3338Y3750D02*
D03*
X3300Y3675D02*
D03*
X3338Y3600D02*
D03*
Y3450D02*
D03*
X3300Y3375D02*
D03*
X3338Y3300D02*
D03*
X3300Y3225D02*
D03*
X3338Y3150D02*
D03*
Y3000D02*
D03*
X3300Y2925D02*
D03*
X3338Y2850D02*
D03*
X3300Y2775D02*
D03*
X3338Y1950D02*
D03*
X3300Y1875D02*
D03*
X3225Y4575D02*
D03*
Y4425D02*
D03*
X3263Y4350D02*
D03*
Y4050D02*
D03*
Y3750D02*
D03*
X3225Y3675D02*
D03*
X3263Y3600D02*
D03*
Y3450D02*
D03*
X3225Y3375D02*
D03*
X3263Y3300D02*
D03*
X3225Y3225D02*
D03*
X3263Y3150D02*
D03*
X3225Y3075D02*
D03*
Y2925D02*
D03*
X3263Y2850D02*
D03*
X3225Y2775D02*
D03*
Y1575D02*
D03*
Y1425D02*
D03*
X3150Y4575D02*
D03*
X3188Y4500D02*
D03*
X3150Y4425D02*
D03*
Y4275D02*
D03*
X3188Y4200D02*
D03*
X3150Y4125D02*
D03*
X3188Y3750D02*
D03*
X3150Y3675D02*
D03*
X3188Y3600D02*
D03*
Y3450D02*
D03*
X3150Y3375D02*
D03*
X3188Y3300D02*
D03*
X3150Y3225D02*
D03*
X3188Y3150D02*
D03*
X3150Y3075D02*
D03*
Y2925D02*
D03*
X3188Y2850D02*
D03*
X3150Y1725D02*
D03*
X3112Y4500D02*
D03*
X3075Y3975D02*
D03*
X3112Y3750D02*
D03*
X3075Y3675D02*
D03*
X3112Y3600D02*
D03*
Y3450D02*
D03*
X3075Y3375D02*
D03*
X3112Y3300D02*
D03*
Y3150D02*
D03*
Y1800D02*
D03*
X3075Y1725D02*
D03*
Y1575D02*
D03*
X3037Y4650D02*
D03*
X3000Y4575D02*
D03*
Y4425D02*
D03*
X3037Y4050D02*
D03*
X3000Y3975D02*
D03*
X3037Y3750D02*
D03*
X3000Y3675D02*
D03*
X3037Y3600D02*
D03*
Y3450D02*
D03*
X3000Y3375D02*
D03*
X3037Y3300D02*
D03*
X2963Y4650D02*
D03*
X2925Y4575D02*
D03*
X2963Y4500D02*
D03*
X2925Y4425D02*
D03*
X2963Y4350D02*
D03*
X2925Y4275D02*
D03*
Y4125D02*
D03*
X2963Y4050D02*
D03*
X2925Y3975D02*
D03*
X2963Y3750D02*
D03*
X2925Y3675D02*
D03*
X2963Y3600D02*
D03*
Y3450D02*
D03*
X2925Y3375D02*
D03*
X2963Y1950D02*
D03*
Y1800D02*
D03*
Y1650D02*
D03*
X2888Y4650D02*
D03*
X2850Y4575D02*
D03*
X2888Y4500D02*
D03*
X2850Y4425D02*
D03*
X2888Y4350D02*
D03*
X2850Y4275D02*
D03*
X2888Y4200D02*
D03*
X2850Y4125D02*
D03*
X2888Y4050D02*
D03*
X2850Y3975D02*
D03*
X2888Y3750D02*
D03*
X2850Y3675D02*
D03*
X2888Y3600D02*
D03*
Y3450D02*
D03*
X2850Y3375D02*
D03*
Y2475D02*
D03*
Y2325D02*
D03*
X2888Y1950D02*
D03*
X2812Y4350D02*
D03*
X2775Y4275D02*
D03*
X2812Y4200D02*
D03*
X2775Y4125D02*
D03*
X2812Y4050D02*
D03*
Y3750D02*
D03*
X2775Y3675D02*
D03*
X2812Y3600D02*
D03*
Y3450D02*
D03*
Y2550D02*
D03*
X2775Y2475D02*
D03*
X2812Y2400D02*
D03*
X2775Y2325D02*
D03*
X2737Y4200D02*
D03*
X2700Y4125D02*
D03*
X2737Y4050D02*
D03*
Y2550D02*
D03*
X2700Y2475D02*
D03*
X2737Y2400D02*
D03*
X2700Y2325D02*
D03*
X2737Y1950D02*
D03*
X2662Y4650D02*
D03*
X2625Y4575D02*
D03*
X2662Y4500D02*
D03*
X2625Y4425D02*
D03*
Y4125D02*
D03*
X2662Y4050D02*
D03*
X2625Y3975D02*
D03*
X2662Y3900D02*
D03*
Y3750D02*
D03*
X2625Y3675D02*
D03*
X2662Y2700D02*
D03*
Y2550D02*
D03*
X2625Y2475D02*
D03*
X2662Y2400D02*
D03*
Y1950D02*
D03*
X2588Y4650D02*
D03*
X2550Y4575D02*
D03*
X2588Y4500D02*
D03*
X2550Y4425D02*
D03*
X2588Y4350D02*
D03*
X2550Y4125D02*
D03*
Y2475D02*
D03*
X2475Y4575D02*
D03*
X2513Y4500D02*
D03*
X2475Y4425D02*
D03*
X2513Y4350D02*
D03*
X2475Y4275D02*
D03*
Y4125D02*
D03*
X2513Y4050D02*
D03*
X2475Y3975D02*
D03*
X2513Y3900D02*
D03*
X2475Y3825D02*
D03*
Y3675D02*
D03*
Y2475D02*
D03*
X2513Y2400D02*
D03*
X2475Y2325D02*
D03*
X2400Y4575D02*
D03*
X2438Y4500D02*
D03*
X2400Y4425D02*
D03*
X2438Y4350D02*
D03*
X2400Y4275D02*
D03*
X2438Y4200D02*
D03*
X2400Y4125D02*
D03*
X2438Y4050D02*
D03*
Y3900D02*
D03*
Y3750D02*
D03*
Y3600D02*
D03*
Y3450D02*
D03*
Y3300D02*
D03*
Y3000D02*
D03*
Y2400D02*
D03*
Y2250D02*
D03*
X2400Y1875D02*
D03*
X2438Y1800D02*
D03*
X2400Y1575D02*
D03*
X2325Y4725D02*
D03*
X2362Y4500D02*
D03*
X2325Y4425D02*
D03*
X2362Y4350D02*
D03*
X2325Y4125D02*
D03*
X2362Y3900D02*
D03*
Y3750D02*
D03*
Y3300D02*
D03*
Y2250D02*
D03*
Y1650D02*
D03*
X2250Y4725D02*
D03*
Y3975D02*
D03*
X2287Y3900D02*
D03*
X2250Y3825D02*
D03*
X2287Y3750D02*
D03*
X2250Y3675D02*
D03*
X2287Y3600D02*
D03*
Y3450D02*
D03*
Y3300D02*
D03*
X2250Y2775D02*
D03*
Y2475D02*
D03*
Y1875D02*
D03*
X2175Y4725D02*
D03*
X2213Y4650D02*
D03*
X2175Y4575D02*
D03*
Y4125D02*
D03*
X2213Y4050D02*
D03*
Y3900D02*
D03*
Y3750D02*
D03*
X2175Y3675D02*
D03*
X2213Y3600D02*
D03*
X2175Y3525D02*
D03*
X2213Y3450D02*
D03*
Y3000D02*
D03*
Y2700D02*
D03*
Y2550D02*
D03*
X2175Y2475D02*
D03*
X2213Y2400D02*
D03*
Y2250D02*
D03*
Y1800D02*
D03*
X2100Y4725D02*
D03*
X2138Y4650D02*
D03*
X2100Y4575D02*
D03*
X2138Y4500D02*
D03*
X2100Y4425D02*
D03*
X2138Y4350D02*
D03*
X2100Y4275D02*
D03*
Y4125D02*
D03*
X2138Y3900D02*
D03*
X2100Y3525D02*
D03*
Y2625D02*
D03*
Y2475D02*
D03*
X2025Y4725D02*
D03*
X2062Y4650D02*
D03*
X2025Y4575D02*
D03*
X2062Y4500D02*
D03*
X2025Y4425D02*
D03*
X2062Y4350D02*
D03*
X2025Y4275D02*
D03*
X2062Y4200D02*
D03*
X2025Y4125D02*
D03*
X2062Y4050D02*
D03*
X2025Y3975D02*
D03*
Y3825D02*
D03*
Y3675D02*
D03*
X2062Y3600D02*
D03*
X2025Y3525D02*
D03*
X2062Y3450D02*
D03*
Y2700D02*
D03*
X2025Y2625D02*
D03*
X2062Y2550D02*
D03*
X2025Y2475D02*
D03*
X2062Y2400D02*
D03*
Y2250D02*
D03*
X2025Y2175D02*
D03*
X2062Y1800D02*
D03*
X1950Y4725D02*
D03*
X1987Y4650D02*
D03*
X1950Y4575D02*
D03*
X1987Y4500D02*
D03*
X1950Y4425D02*
D03*
X1987Y4350D02*
D03*
X1950Y4275D02*
D03*
X1987Y4200D02*
D03*
X1950Y4125D02*
D03*
X1987Y4050D02*
D03*
X1950Y3825D02*
D03*
X1987Y3750D02*
D03*
X1950Y3675D02*
D03*
X1987Y3600D02*
D03*
Y2850D02*
D03*
Y2700D02*
D03*
X1950Y2625D02*
D03*
X1987Y2550D02*
D03*
X1950Y2325D02*
D03*
X1987Y2250D02*
D03*
X1875Y4725D02*
D03*
X1913Y4650D02*
D03*
X1875Y4575D02*
D03*
X1913Y4500D02*
D03*
X1875Y4425D02*
D03*
X1913Y4350D02*
D03*
X1875Y4275D02*
D03*
X1913Y4200D02*
D03*
X1875Y4125D02*
D03*
Y3975D02*
D03*
X1913Y3900D02*
D03*
X1875Y3825D02*
D03*
X1913Y3750D02*
D03*
X1875Y2775D02*
D03*
X1913Y2700D02*
D03*
X1875Y2625D02*
D03*
X1913Y2550D02*
D03*
Y2400D02*
D03*
X1875Y2325D02*
D03*
X1913Y2250D02*
D03*
X1800Y4725D02*
D03*
X1837Y4650D02*
D03*
X1800Y4575D02*
D03*
X1837Y4500D02*
D03*
X1800Y4425D02*
D03*
X1837Y4350D02*
D03*
X1800Y4275D02*
D03*
X1837Y4200D02*
D03*
X1800Y4125D02*
D03*
Y3975D02*
D03*
X1837Y3900D02*
D03*
X1800Y3825D02*
D03*
X1837Y3750D02*
D03*
X1800Y3525D02*
D03*
Y3225D02*
D03*
X1837Y3150D02*
D03*
Y3000D02*
D03*
X1800Y2925D02*
D03*
Y2775D02*
D03*
X1837Y2700D02*
D03*
X1800Y2475D02*
D03*
X1837Y2400D02*
D03*
X1800Y2325D02*
D03*
X1837Y2250D02*
D03*
X1800Y1725D02*
D03*
X1725Y4725D02*
D03*
X1763Y4650D02*
D03*
X1725Y4575D02*
D03*
X1763Y4500D02*
D03*
X1725Y4425D02*
D03*
X1763Y4350D02*
D03*
X1725Y4275D02*
D03*
X1763Y4200D02*
D03*
X1725Y4125D02*
D03*
X1763Y3900D02*
D03*
Y3150D02*
D03*
X1725Y2775D02*
D03*
X1763Y2700D02*
D03*
Y2550D02*
D03*
X1725Y2475D02*
D03*
X1763Y2400D02*
D03*
X1725Y2325D02*
D03*
X1763Y2250D02*
D03*
X1725Y2175D02*
D03*
X1763Y1650D02*
D03*
X1650Y4725D02*
D03*
X1688Y4650D02*
D03*
X1650Y4575D02*
D03*
X1688Y4500D02*
D03*
X1650Y4425D02*
D03*
X1688Y4350D02*
D03*
X1650Y4275D02*
D03*
X1688Y4200D02*
D03*
X1650Y4125D02*
D03*
Y3675D02*
D03*
Y3225D02*
D03*
Y2625D02*
D03*
X1688Y2550D02*
D03*
Y2400D02*
D03*
Y2250D02*
D03*
Y1650D02*
D03*
X1575Y4725D02*
D03*
X1612Y4650D02*
D03*
X1575Y4575D02*
D03*
X1612Y4500D02*
D03*
X1575Y4425D02*
D03*
X1612Y4350D02*
D03*
X1575Y4275D02*
D03*
X1612Y4200D02*
D03*
X1575Y3675D02*
D03*
X1612Y3600D02*
D03*
X1575Y3225D02*
D03*
X1612Y3150D02*
D03*
X1575Y2025D02*
D03*
X1612Y1950D02*
D03*
Y1650D02*
D03*
X1538Y4650D02*
D03*
X1500Y4575D02*
D03*
X1538Y4500D02*
D03*
X1500Y4425D02*
D03*
X1538Y4350D02*
D03*
X1500Y4275D02*
D03*
Y3825D02*
D03*
X1538Y3750D02*
D03*
X1500Y2925D02*
D03*
Y2775D02*
D03*
Y2475D02*
D03*
Y2175D02*
D03*
X1462Y4650D02*
D03*
X1425Y4575D02*
D03*
X1462Y4500D02*
D03*
X1425Y4425D02*
D03*
X1462Y4350D02*
D03*
X1425Y3825D02*
D03*
X1462Y3750D02*
D03*
X1425Y3375D02*
D03*
Y3225D02*
D03*
X1462Y3000D02*
D03*
X1425Y2925D02*
D03*
X1462Y2850D02*
D03*
X1425Y2775D02*
D03*
Y2475D02*
D03*
X1462Y2400D02*
D03*
X1425Y2325D02*
D03*
X1462Y1950D02*
D03*
X1350Y4725D02*
D03*
Y4575D02*
D03*
X1388Y4200D02*
D03*
Y3900D02*
D03*
X1350Y3225D02*
D03*
X1388Y3000D02*
D03*
X1350Y2925D02*
D03*
X1388Y2850D02*
D03*
X1350Y2775D02*
D03*
Y2475D02*
D03*
X1388Y2400D02*
D03*
X1350Y2325D02*
D03*
X1388Y2100D02*
D03*
X1350Y1125D02*
D03*
X1275Y4725D02*
D03*
X1312Y4350D02*
D03*
Y3900D02*
D03*
X1275Y3225D02*
D03*
X1312Y3000D02*
D03*
X1275Y2925D02*
D03*
X1312Y2850D02*
D03*
X1275Y2775D02*
D03*
X1312Y2400D02*
D03*
X1275Y2325D02*
D03*
X1312Y2100D02*
D03*
X1275Y1275D02*
D03*
X1312Y1200D02*
D03*
X1275Y1125D02*
D03*
X1200Y4725D02*
D03*
Y4125D02*
D03*
X1237Y4050D02*
D03*
X1200Y3225D02*
D03*
X1237Y3000D02*
D03*
X1200Y2925D02*
D03*
Y2775D02*
D03*
X1237Y2100D02*
D03*
X1200Y1425D02*
D03*
X1237Y1350D02*
D03*
X1200Y1275D02*
D03*
X1237Y1200D02*
D03*
X1200Y1125D02*
D03*
X1125Y4725D02*
D03*
Y4125D02*
D03*
X1163Y4050D02*
D03*
Y3750D02*
D03*
X1125Y3225D02*
D03*
X1163Y3000D02*
D03*
Y2850D02*
D03*
X1125Y2775D02*
D03*
X1163Y2550D02*
D03*
X1125Y2325D02*
D03*
X1163Y2100D02*
D03*
X1125Y2025D02*
D03*
Y1425D02*
D03*
X1163Y1350D02*
D03*
X1125Y1275D02*
D03*
X1163Y1200D02*
D03*
X1125Y1125D02*
D03*
X1050Y4575D02*
D03*
Y4425D02*
D03*
X1087Y4200D02*
D03*
Y3750D02*
D03*
X1050Y3225D02*
D03*
X1087Y2850D02*
D03*
X1050Y2775D02*
D03*
Y2625D02*
D03*
X1087Y2550D02*
D03*
X1050Y2475D02*
D03*
X1087Y2400D02*
D03*
X1050Y2325D02*
D03*
X1087Y2250D02*
D03*
X1050Y2175D02*
D03*
X1087Y2100D02*
D03*
X1050Y2025D02*
D03*
X1087Y1950D02*
D03*
X1050Y1875D02*
D03*
Y1725D02*
D03*
X1087Y1650D02*
D03*
X1050Y1575D02*
D03*
X1087Y1500D02*
D03*
X1050Y1425D02*
D03*
X1087Y1350D02*
D03*
Y1200D02*
D03*
X1050Y1125D02*
D03*
X1013Y4800D02*
D03*
X975Y2625D02*
D03*
X1013Y2550D02*
D03*
X975Y2475D02*
D03*
X1013Y2400D02*
D03*
X975Y2325D02*
D03*
X1013Y2250D02*
D03*
X975Y2175D02*
D03*
X1013Y2100D02*
D03*
X975Y2025D02*
D03*
X1013Y1950D02*
D03*
X975Y1875D02*
D03*
X1013Y1800D02*
D03*
X975Y1725D02*
D03*
X1013Y1650D02*
D03*
X975Y1575D02*
D03*
X1013Y1500D02*
D03*
X975Y1125D02*
D03*
X938Y4350D02*
D03*
Y3750D02*
D03*
X900Y2625D02*
D03*
X938Y2550D02*
D03*
X900Y2475D02*
D03*
X938Y2400D02*
D03*
X900Y2325D02*
D03*
X938Y2250D02*
D03*
X900Y2175D02*
D03*
X938Y2100D02*
D03*
X900Y2025D02*
D03*
X938Y1950D02*
D03*
X900Y1875D02*
D03*
X938Y1800D02*
D03*
X900Y1725D02*
D03*
X938Y1650D02*
D03*
X900Y1575D02*
D03*
X938Y1500D02*
D03*
X900Y1125D02*
D03*
X825Y3375D02*
D03*
Y2625D02*
D03*
X863Y2550D02*
D03*
X825Y2475D02*
D03*
X863Y2400D02*
D03*
X825Y2325D02*
D03*
X863Y2250D02*
D03*
X825Y2175D02*
D03*
X863Y2100D02*
D03*
X825Y2025D02*
D03*
X863Y1950D02*
D03*
X825Y1875D02*
D03*
X863Y1800D02*
D03*
X825Y1725D02*
D03*
X863Y1650D02*
D03*
X825Y1575D02*
D03*
X863Y1500D02*
D03*
X825Y1425D02*
D03*
Y1125D02*
D03*
X750Y4575D02*
D03*
Y4425D02*
D03*
Y4275D02*
D03*
Y4125D02*
D03*
Y3975D02*
D03*
X788Y3900D02*
D03*
X750Y3825D02*
D03*
X788Y3750D02*
D03*
X750Y2775D02*
D03*
X788Y2700D02*
D03*
X750Y2625D02*
D03*
X788Y2550D02*
D03*
X750Y2475D02*
D03*
X788Y2400D02*
D03*
X750Y2325D02*
D03*
X788Y2250D02*
D03*
X750Y2175D02*
D03*
X788Y2100D02*
D03*
X750Y2025D02*
D03*
X788Y1950D02*
D03*
X750Y1875D02*
D03*
X788Y1800D02*
D03*
X750Y1725D02*
D03*
X788Y1650D02*
D03*
X750Y1575D02*
D03*
X788Y1500D02*
D03*
X750Y1425D02*
D03*
Y1275D02*
D03*
X788Y1200D02*
D03*
X750Y1125D02*
D03*
D92*
X6492Y3030D02*
D03*
X6361Y1463D02*
D03*
X7220Y1610D02*
D03*
X4495Y2194D02*
D03*
X4890Y1885D02*
D03*
D93*
X4200Y4595D02*
D03*
X846Y4727D02*
D03*
X3657Y2880D02*
D03*
X4200Y2735D02*
D03*
X914Y1303D02*
D03*
X8250Y4610D02*
D03*
X8215Y1265D02*
D03*
X1206Y4459D02*
D03*
X928Y2878D02*
D03*
X6320Y2735D02*
D03*
Y4600D02*
D03*
D94*
X1201Y1578D02*
D03*
Y2422D02*
D03*
D148*
X6504Y1962D02*
D03*
Y1694D02*
D03*
X4265Y2462D02*
D03*
Y2194D02*
D03*
D149*
X1185Y2045D02*
D03*
D150*
Y1925D02*
D03*
D151*
X6959Y1600D02*
D03*
X6691D02*
D03*
M02*
