M48
;Layer_Color=9474304
;FILE_FORMAT=2:3
INCH,LZ
;TYPE=PLATED
T1F00S00C0.015
T2F00S00C0.017
T3F00S00C0.028
T4F00S00C0.035
T5F00S00C0.039
T6F00S00C0.040
T7F00S00C0.060
T8F00S00C0.061
T9F00S00C0.114
T10F00S00C0.128
T11F00S00C0.137
%
T01
X0075Y01125
X00825
X009
X00975
X0105
X01125
X012
X01275
X0135
X01312Y012
X01237
X01163
X01087
X01125Y01275
X012
X01275
X01237Y0135
X01163
X01087
X01125Y01425
X012
X0105
X01087Y015
X01013
X00938
X00863
X00788
X00825Y01425
X0075
Y01275
X00788Y012
X03225Y01425
X03862Y015
X04162Y0135
X06713Y015
X07012
X07088
X07575Y01425
X0765
X07688Y015
X07762
X0795Y01125
X08025
X081
X08175
X08325
X084
X08438Y012
X08363
X084Y01275
X08438Y0135
X08363
X084Y01425
X08438Y015
X08062Y012
X0795Y01575
X07875
X07912Y0165
X07988
X08025Y01725
X0795
X07988Y018
X08062
X08025Y01875
X0795
X07988Y0195
X08062
X08025Y02025
X0795
X07988Y021
X08062
X08025Y02175
X0795
X07988Y0225
X08062
X08025Y02325
X0795
X07988Y024
X08062
X08025Y02475
X0795
X07988Y0255
X08062
X08025Y02625
X0795
X07875
X07912Y027
X07988
X08062
X08025Y02775
X0795
X07988Y0285
X08062
X08025Y02925
X0795
X07988Y03
X08062
X08025Y03075
X0795
X07875
X07912Y03
Y0285
X07838
X07912Y0255
Y024
X07838
X08438
X084Y02475
X08438Y0255
X084Y02625
X08438Y027
X084Y02775
X08438Y0285
X084Y02925
X08438Y03
X084Y03075
Y02325
X08438Y0225
X084Y02175
X08438Y021
X084Y02025
X08438Y0195
X084Y01875
X08438Y018
X084Y01725
X08438Y0165
X084Y01575
X078
X07725
X07762Y0165
X07688
Y018
X07762
X078Y01875
X07725
X0765
X07575
X07613Y0195
X07688
X07762
X07725Y02025
X07762Y021
X07688
X07725Y02175
X07575
X075
X07425
X07463Y0225
X07387
Y021
X07463
X07537
X07575Y02025
X075
X07425
X07463Y0195
X07537
X07613Y018
X07575Y01725
Y01575
X07125Y01725
X0705
X06975
X07012Y018
X07088
X07162
X07125Y01875
X0705
X06975
X069
X06825
X06787Y0195
X06713
X0675Y02025
X06713Y021
X06562
X066Y02175
X06525
X0675Y02325
X06825
X069
X06975
X0705
X07088Y0225
X07012
X06938
X06975Y02175
X0705
X07125
X07088Y021
X07012
X06938
X06975Y02025
X0705
X07125
X07088Y0195
X07012
X06938
Y018
X066Y01725
Y01575
X06488Y018
X0645Y01875
X06375
X06488Y027
X06525Y02775
X066
X06675
X0675
X06787Y0285
X06863
X07012
X07088
X07162
X07125Y02925
X0705
X07088Y03
X07162
X07125Y03075
X0705
X07012Y03
X069Y03075
X06825
X0675
X06787Y03
X06713
X0675Y02925
X06675
X066
X06525
X0645
X06375
X063
X06412Y0285
X06488
X06562
X06637
X06713
X06562Y03
X066Y03075
X0735
X07425
X07463Y03
X07387
X07312
X0735Y02925
X07425
X07463Y0285
X07387
X07425Y02775
X0735
X07387Y027
X07463
X07537
X07575Y02625
X07537Y0255
X07463
X07387
X07312
X0735Y02625
X07425
Y02475
X0735
X07575
X07613Y024
X07688
X07762
X07725Y02475
X07762Y0255
X07688
X07725Y02625
X078
X07725Y02775
X0765
X07688Y0285
X07762
X07725Y02925
X0765
X07575
X07613Y0285
X07688Y03
X07762
X078Y03075
X07725
X07575
X07312Y027
X072Y02625
X07162Y0255
X07125Y02475
Y02775
X0705
X07537Y024
X06188Y0225
X05963
X05887
X05812
X05738
X05662
X057Y02325
X05775
X0585
X05925
X06
Y02625
X05925
X0585
X05887Y027
X05963
X06Y02775
X05925
X05812Y027
X0585Y02925
X05887Y03
X05963
X06Y03075
X05925
X0585
X05812Y03
X05625Y03075
X0555
X05475
X05512Y03
X0555Y02925
X05325
X0525
X05287Y03
X05325Y03075
X0525
X051
X05025
X0495
X04875
X048
X04725
Y02925
X04762Y0285
X04688
X04725Y02775
X048
X04875
X0495
X05025
X051
X0525
X05325
Y02475
Y02325
X05363Y0225
X05438
X0555Y02325
X05512Y0195
X0555Y01875
X05512Y018
X0555Y01725
X057
X05775
X0585
X05925
X06
X05887Y018
X05812
X05738
X05325Y01875
X0525
X05287Y0195
Y021
X05213
X0525Y02175
X05213Y0225
X05025Y02175
X0495
X04875
X04912Y021
X04988
X05062
X04838
X04762
X04688
X04725Y02025
X048
X04688Y0195
Y024
X04762
X04838
X04912
X04988
X04725Y02475
X04875Y02925
X0495
X05025
X051
X05062Y03
X04988
X04912
X04838
X06075Y02925
X06225Y03075
Y02625
X06188Y0195
X0465Y02025
X04575
X04537Y021
X04575Y02325
X0465
X04613Y024
X04537
X04575Y02475
X0465
X04537Y027
X04463
X04387
X04425Y02775
X045
X04463Y0285
X04387
X04312
X0435Y02775
Y02625
X04425
X04387Y0255
X04312
X04238
X0405Y02625
X04238Y03
X04312
X04387
X04463
X04537
X04613
X0465Y02925
X04575
X03562Y03
X03487
X03412
X03338
X03375Y03075
X0345
Y02925
X03375
X033
X03225
X0315
X03188Y0285
X03263
X03338
X03412
X03487
X03525Y02775
X0345
X03375
X033
X03225
Y03075
X0315
X03375Y02025
X03338Y0195
X03375Y01875
X033
X03412Y018
X0345Y01725
X03525
X03375
Y01575
X0345
X03675
X03713Y018
X03675Y01875
X036
X03638Y0195
X03487
X0315Y01725
X03225Y01575
X03075
Y01725
X03112Y018
X02963
Y0195
X02888
X02737
X02662
X024Y01875
X02438Y018
X02362Y0165
X024Y01575
X02213Y018
X0225Y01875
X02062Y018
X018Y01725
X01763Y0165
X01688
X01612
Y0195
X01575Y02025
X01725Y02175
X01763Y0225
X01837
X01913
X01987
X02062
X02025Y02175
X0195Y02325
X01875
X018
X01725
X01763Y024
X01837
X01913
X02062
X021Y02475
X02175
X0225
X02213Y0255
Y027
X02287
X0225Y02775
X02213Y03
X02438
X02662Y027
Y0255
X02737
X02812
X0285Y02475
X02775
X027
X02625
X0255
X02475
X02513Y024
X02438
X02475Y02325
X02438Y0225
X02362
X02213
Y024
X02025Y02475
X02062Y0255
X01987
X01913
X0195Y02625
X02025
X021
X02062Y027
X01987
X01913
X01837
X01763
X018Y02775
X01875
Y02625
X01763Y0255
X01688
X01725Y02475
X018
X01688Y024
Y0225
X0165Y02625
X01725Y02775
X018Y02925
X01837Y03
X01987Y0285
X02662Y024
X02737
X02812
X0285Y02325
X02775
X027
X02963Y0165
X01462Y0195
X01388Y021
X01312
X01237
X01163
X01087
X01013
X00938
X00863
X00788
X00825Y02175
X009
X00975
X0105
X01087Y0225
X01013
X00938
X00863
X00788
X00825Y02325
X009
X00975
X0105
X01125
X01087Y024
X01013
X00938
X00863
X00788
X00825Y02475
X009
X00975
X0105
X01087Y0255
X01163
X01013
X00938
X00863
X00788
X00825Y02625
X009
X00975
X0105
Y02775
X01125
X012
X01275
X0135
X01425
X015
X01462Y0285
X01388
X01312
X0135Y02925
X01425
X015
X01462Y03
X01388
X01312
X01237
X01163
X012Y02925
X01275
X01163Y0285
X01087
X0075Y02775
X00788Y027
X0075Y02625
Y02475
Y02325
Y02175
Y02025
X00825
X009
X00975
X0105
X01125
X01087Y0195
X01013
X00938
X00863
X00788
X00825Y01875
X009
X00975
X0105
X01013Y018
X00938
X00863
X00788
X00825Y01725
X009
X00975
X0105
X01087Y0165
X01013
X00938
X00863
X00788
X00825Y01575
X009
X00975
X0105
X0075
Y01725
Y01875
X01275Y02325
X0135
X01425
X01462Y024
X01388
X01312
X0135Y02475
X01425
X015
Y02175
X01425Y03225
X0135
X01275
X012
X01125
X0105
X00825Y03375
X00788Y0375
X0075Y03825
X00788Y039
X0075Y03975
Y04125
Y04275
Y04425
Y04575
X0105
Y04425
X00938Y0435
X01087Y042
X01125Y04125
X012
X01237Y0405
X01163
X01312Y039
X01388
X01425Y03825
X015
X01538Y0375
X01462
X01163
X01087
X00938
X01425Y03375
X01388Y042
X015Y04275
X01538Y0435
X01462
X015Y04425
X01425
X01462Y045
X01538
X015Y04575
X01425
X0135
X01462Y0465
X01538
X01312Y0435
X01612
X01688
X01763
X01837
X01913
X01987
X02062
X02138
X021Y04425
X02025
X0195
X01875
X018
X01725
X0165
X01575
X01612Y045
X01688
X01763
X01837
X01913
X01987
X02062
X02138
X02175Y04575
X021
X02025
X0195
X01875
X018
X01725
X0165
X01575
X01612Y0465
X01688
X01763
X01837
X01913
X01987
X02062
X02138
X02213
X024Y04575
X02475
X0255
X02625
X02662Y0465
X02588
Y045
X02662
X02625Y04425
X0255
X02475
X024
X02325
X02362Y045
X02438
X02513
Y0435
X02588
X02438
X02362
X024Y04275
X02475
X02438Y042
X02475Y04125
X0255
X02625
X027
X02775
X0285
X02925
X02963Y0405
X03037
X03075Y03975
X03
X02925
X0285
X02888Y0405
X02812
X02737
X02662
X02625Y03975
X02662Y039
Y0375
X02625Y03675
X02775
X0285
X02925
X03
X03075
X03112Y0375
X03037
X02963
X02888
X02812
Y036
X02888
X02963
X03037
X03112
Y0345
X03037
X02963
X02888
X02812
X0285Y03375
X02925
X03
X03075
X03112Y033
X03037
X03112Y0315
X02438Y033
X02362
X02287
Y0345
X02213
X02175Y03525
X021
X02025
X02062Y036
X01987
X02025Y03675
X0195
X01987Y0375
X01913
X01837
X01875Y03825
X0195
X02025
Y03975
X02062Y0405
X01987
X02025Y04125
X021
X02175
X02213Y0405
X0225Y03975
X02287Y039
X02362
X02438
X02513
X02475Y03975
X02513Y0405
X02438
X024Y04125
X02325
X02213Y039
X02138
X0225Y03825
X02287Y0375
X02362
X02438
X02475Y03825
Y03675
X02438Y036
Y0345
X02287Y036
X02213
X0225Y03675
X02175
X02213Y0375
X02062Y0345
X018Y03525
X01612Y036
X0165Y03675
X01575
X018Y03825
X01837Y039
X01913
X01875Y03975
X018
X01763Y039
X018Y04125
X01875
X0195
X01987Y042
X02062
X021Y04275
X02025
X0195
X01875
X018
X01725
X0165
X01575
X01612Y042
X01688
X01763
X01837
X01913
X01725Y04125
X0165
Y03225
X01575
X01612Y0315
X01763
X01837
X018Y03225
X02737Y042
X02812
X02888
X02925Y04275
X0285
X02775
X02812Y0435
X02888
X02963
X03Y04425
X02925
X0285
X02888Y045
X02963
X03Y04575
X02925
X0285
X02888Y0465
X02963
X03037
X03112Y045
X03188
X03225Y04575
X0315
Y04425
X03225
X03263Y0435
X0315Y04275
X03188Y042
X0315Y04125
X03263Y0405
X03338
X03375Y04125
X0345Y03975
X03412Y039
X03562
X03862
X03825Y03825
X03862Y0375
X039Y03675
X03975
X04012Y0375
Y039
X0405Y03975
X04125
Y03825
X04312Y039
X04425Y03825
X04463Y0405
Y042
X04387
X04312
X0435Y04275
X04425
X045
Y04425
X04575
X0465
X04613Y045
X04463
X04387
X04312
X0435Y04575
X04425
X045
X04463Y0465
X04387
X04012
X0405Y04575
X04088Y045
X04012Y0435
X03938
X03862
X03787
X03825Y04425
X039
X03862Y045
X03787
X03825Y04575
X039
X0375
X03675
X036
X03562Y045
Y0435
X039Y04275
X03975
X0405
X04088Y042
X04012
X03938
X03975Y04125
X0405
X04275
X0435
X04275Y04275
X04613Y042
X04575Y03975
Y03675
X0465
X04613Y036
X04537
X04575Y03525
X0465
X04613Y0345
X04537
X04463
X045Y03525
X04425
X04312Y0345
X04238
X04275Y03375
X0435
X04387Y033
X04463
X04537
X04613
Y0315
X04537
X04463
X04387
X04312
X04238
X04162
X04238Y033
X04312
X03938
Y0345
X03975Y03525
X039
X03938Y036
X03862
X03825Y03675
X03975Y03975
X033
X03338Y0375
X03412
X03375Y03675
X033
X03225
X0315
X03188Y0375
X03263
Y036
X03338
X03412
Y0345
X03338
X03263
X03188
X03225Y03375
X033
X03375
X03412Y033
X03338
X03263
X03188
X03225Y03225
X033
X03375
X03338Y0315
X03263
X03188
X0315Y03225
Y03375
X03188Y036
X03525Y03225
X03938Y0315
X04688
X04762
X04838
X04912
X04988
X05062
X05137
X05287
X05438
X05512
X05588
X05662
X05812
X05887
X05963
X06037
X06075Y03225
X06
X06225
X06188Y0345
X06113
X06037
X05963
X05887
X05812
X05738
X05775Y03525
X0585
X05925
X06
X06075
X0615
X06225
X06188Y036
X06113
X06037
X05963
X05887
X05812
X05738
X057Y03525
X05625
X0555
Y03675
X05662Y0375
X057Y03825
X05775
X0585
X05925
X06
X06037Y0375
X05963
X06Y03675
X06075
X0615
X06188Y039
X06225Y03975
X0615
X06188Y0405
X06113
X06037
X06075Y04125
X0615
X06225
X06188Y042
X06113
X06037
X05963
X05887
X05925Y04275
X06
X06075
X0615
X06225
X06188Y0435
X06113
X06037
X05963
X05887
X05812
X05738
X0585Y04275
X05925Y04425
X06
X06075
X0615
X06113Y0465
X06037
X05963
X05887
X05812
X05738
X05662
X05588
X05512
X05438
X05363
X05287
X05213
X05137
X05062
X04988
X04912
X04838
X04762
X048Y04575
X04875
X0495
X05025
X051
X05175
X0525
X05325
X054
X05475
X0555
X054Y04275
Y04125
X05325
X05287Y042
X0525Y04275
X05175
X051
X05025
X0495
X04875
X048
X04725
X04762Y042
X04838
X04912
X04988
X05062
X051Y03975
X05025
X04912Y0405
X04838
X04762
X04688
Y042
X04725Y03675
X048
X04875
X0495
X05025
X04988Y036
X04912
X04838
X04762
X04688
X04725Y03525
X048
X04875
X04838Y0345
X04762
X04688
Y033
X04762
X04838
X04912
X04988
X05062
X051Y03375
X05025
X0495
X04988Y0345
X05062
X05287
X05325Y03525
X0525
Y03375
X05325
X05287Y033
X05512
X05588
X05662
X05738
X05812
X05775Y03225
X05475
X0555Y03375
X05438Y0375
X05363
X05287
X05213
X05137
X0525Y03825
X05325
X05287Y039
X05213
X0525Y03975
X05325Y03675
X05588Y039
X05662
X05738
X05812
X05887
X0585Y03975
X05775
X057
X05738Y0405
X05662
X057Y04125
X05625
X06
X0585Y03675
X06338Y0375
X06412
X06488
X06562
X066Y03825
X06675
X0675
X06825
X069
X06975
X0705
X07125
X072
X07275
X07312Y0375
X07162
X07088
X07012
X06938
X06975Y03675
X0705
X07125
X07162Y036
X07088
X07012
X06938
X06975Y03525
X0705
X07125
X07012Y0345
X06938
X06975Y03375
X06825
X0675
X06675
X066
X06637Y0345
X06713
X06787
X0675Y03525
X06787Y036
X06713
X0675Y03675
X066
X06525
X0645
X06488Y036
X06562
X066Y03525
Y03225
X06713Y0315
X06787
X07012
X07088
X07162
X07125Y03225
X0705
X07088Y033
X07162
X07275Y03375
X0735
X07425
X07463Y0345
X07387
X07312
X0735Y03525
X07425
X07463Y036
X07387
X07688
X07762
X07725Y03675
Y03825
X078
X07762Y039
X07688
X07725Y03975
X07762Y0405
X07688
X07725Y04125
X078
X07725Y04275
X0765
X07575
X075
Y04125
X07575
X07387Y0405
X07312
X0735Y03975
X07425
X07387Y039
X07238
X07162
X07088
X07012
X06938
X06863
X06787
X06713
X06637
X06562
X06488
X06412
X06338
X06262
X063Y03975
X06375
X0645
X06525
X066
X06562Y0405
X06488
X06412
X06338
X06262
X063Y04125
X06375
X0645
X06525
X066
X06562Y042
X06488
X06412
X06338
X06262
X063Y04275
X06375
X0645
X06525
X066
X06675
X0675
Y04125
X06825
X069
X06975
X0705
X07125
X072
X07162Y042
X07088
X07012
X06938
X06975Y04275
X0705
X07125
X07162Y045
X07088
X07012
X06938
X06975Y04575
X0705
X07125
X07162Y0465
X07088
X07012
X06938
X069Y04575
X06825
X0675
X06787Y0465
X06713
Y045
X06787
X066Y04575
X06562Y0465
Y0435
X06488
X06412
X06338
X06262
X063Y03825
X06375
X0645
X06525
X0675Y03975
X06787Y0405
X06713
X06938
X07012
X07088
X07162
X07125Y03975
X0705
X06975
X075Y03825
X0765
X07725Y03525
X07762Y0345
X07688
X07613
X0765Y03375
X07725
X078
X07762Y033
X07688
X07613
X07575Y03225
X07425
X0735
X07387Y033
X07463
Y0315
X07387
X07312
X07688
X07762
X078Y04425
Y04575
X07762Y0465
X07688
X07613
X0765Y04575
X07575
X075
X07425
X0735
X07387Y0465
X07463
Y045
X07387
X07425Y04425
X07613Y045
X07688
X07312Y0465
X063Y03525
X06338Y0345
X06262
X063Y03225
X06375
X06412Y0315
X06338
X06262
X07912
X07988
X08062
X08025Y03225
X0795
X07988Y033
X08062
X08025Y03375
X0795
X07875
X07912Y0345
X07988
X08062
X08025Y03525
X0795
X07988Y036
X08062
X08025Y03675
X0795
X07988Y0375
X08062
X08025Y03825
X0795
X07875
X07912Y039
X07988
X08062
X08025Y03975
X0795
X07988Y0405
X08062
X08025Y04125
X0795
X07875
X07912Y042
X07988
X08062
X08025Y04275
X0795
X07912Y0405
X07838Y039
X07912Y0375
Y036
Y033
X08438
X084Y03375
X08438Y0345
X084Y03525
X08438Y036
X084Y03675
X08438Y0375
X084Y03825
X08438Y039
X084Y03975
X08438Y0405
X084Y04125
X08438Y042
X084Y04275
X08438Y0435
X08363
X08288
X08212
X0825Y04425
X08325
X084
X08438Y045
X08363
X084Y04575
X08438Y0465
X08062
X081Y04575
X08025
X08062Y045
X08137
X08175Y04425
X081
X07838Y045
Y0465
X084Y03225
X08438Y0315
X084Y04725
X08438Y048
X08363
X08288
X08212
X08137
X08062
X081Y04725
X08025
X07838Y048
X07762
X07688
X07613
X0765Y04725
X07725
X078
X07425
X0735
X07125
X0705
X06975
X066
X06525
X02325
X0225
X02175
X021
X02025
X0195
X01875
X018
X01725
X0165
X01575
X0135
X01275
X012
X01125
X01013Y048
T02
X02014Y014
X02386Y01443
X02703Y01474
X0352Y0135
X03705Y01345
X038Y01344
X03916Y01395
X0397Y01278
X04006
Y01241
X0397
Y01198
X04006
Y01156
X0397
X04005Y01478
X04041
Y0152
X04005
Y01561
X04041
X06425Y02598
X0653Y02515
X0657Y0255
X066Y02635
X06555Y02675
X06775Y0248
X06965Y02435
X07005Y0247
X06975Y0255
X0704Y02595
X07085Y02435
X07155Y02505
X0725Y02885
X0577Y02765
X0573Y0272
X057Y02395
X05515Y02115
X05425Y0209
X05476Y02895
X04695Y02705
X0474Y02525
X04685Y02576
X04645Y0256
X046Y02552
X04085Y02525
X0392Y0244
X03858Y02381
X0383Y02328
X03885Y02266
X03882Y02175
X03927Y02025
X0397Y0203
X04025Y0208
X0408Y02075
X04056Y02115
X04041Y01603
X04005
X03938Y01627
X03879Y01622
X0392Y01577
X03309Y01795
X03304Y01987
X03335Y02415
X03135Y0243
X03571Y02415
X0365Y0243
X03645Y02285
X03776Y02773
X03893Y02986
X04003Y03032
X0396Y03095
X0409Y0292
X0407Y02875
X0413Y0288
X03635Y03032
X03147Y01671
X03108Y01655
X03052Y01682
X02799Y01961
X02681Y02027
X02611Y02265
X03065Y02345
X03054Y0269
X0301Y027
X02955Y02704
X02895Y02715
Y0266
X0289Y02605
X0285Y02595
X02905Y02565
X0279Y0265
X02805Y0269
X02765Y02735
X02774Y02886
X02789Y02927
X02795Y02972
X0282Y0307
X0292Y03048
X02935Y03095
X03075Y0273
X0312Y02705
X02372Y02667
X01602Y02584
X01597Y0253
X01641Y02859
X0167Y02834
X0161Y0294
X0162Y03
X01513Y03016
X0113Y02725
X01285Y0257
X01467Y0234
X0155Y02112
X01517Y02067
X01182Y04241
X01155Y04214
X01694Y03967
X01724Y03991
X01971Y03536
X02665Y03575
X0267Y03421
X02729Y0342
X027Y0339
X02757Y03385
X0284Y03145
X02885Y03165
X02895Y03125
X02945Y0314
X02975Y03172
X0302Y03165
X03055Y03195
X02769Y03906
X02729Y0392
X027Y03955
X0255Y0468
X02505Y04675
X0332Y0459
X03475Y04615
X03526Y04614
X0349Y04495
X03425Y04265
X03802Y04116
X03862Y04
X03901
X0382Y03635
X0388Y03385
X03915Y03335
X0397Y03315
X0398Y0322
X03932Y03225
X03462Y03435
Y03615
X03535Y03765
X04093Y04436
X0494Y03956
X04985Y0378
X05609Y03725
X05501Y04254
X0746Y0439
X0775Y04465
X07335Y03935
Y03815
X07425Y03835
X07225Y03355
X04714Y04832
X04625Y0479
X0465Y04755
X04625Y04722
X0466Y0469
X03366Y04705
T03
X06361Y01463
X0722Y0161
X06492Y0303
X0489Y01885
X04495Y02194
T04
X01442Y01189
X03315Y014
X03415
Y01515
X03315
X0423Y01393
X04082Y01221
X05915Y0118
X0369Y0171
X0347Y0163
X0337
X0327
X03488Y0185
X04185Y03005
Y03105
X0124Y02832
X00756Y03657
X04185Y03505
Y03405
Y03305
Y03205
Y0384
Y0394
Y0404
Y0414
Y0424
Y0434
X03954Y0468
X0563Y04535
X0573
X0583
X0593
X0603
X0613
X06155Y03275
X06055
X05955
X05855
X06255
X06355
T05
X0344Y0202
X0354
X0364
X01932Y02095
X01832
X01732
T06
X03618Y0309
X03718
X00989
X00889
Y0319
X00989
Y0329
Y0339
Y0349
Y0359
Y0369
Y0379
Y0389
Y0399
Y0409
Y0419
Y0429
Y0439
Y0449
X00889
Y0439
Y0429
Y0419
Y0409
Y0399
Y0389
Y0379
Y0369
Y0359
Y0349
Y0339
Y0329
X03618
X03718
Y0339
Y0349
Y0359
Y0369
Y0379
Y0389
Y0399
Y0409
Y0419
Y0429
Y0439
Y0449
X03618
Y0439
Y0429
Y0419
Y0409
Y0399
Y0389
Y0379
Y0369
Y0359
Y0349
Y0339
Y0319
X03718
T07
X06286Y02287
X06086
T08
X05176Y01768
Y01964
Y02161
Y02358
Y02555
Y02752
X05393
Y02555
Y02358
Y02161
Y01964
Y01768
X05609
Y01964
Y02161
Y02358
Y02555
Y02752
Y02988
X05393
X05176
X02568
X02352
X02135
Y02752
Y02555
Y02358
Y02161
Y01964
Y01768
X02352
Y01964
Y02161
Y02358
Y02555
Y02752
X02568
Y02555
Y02358
Y02161
Y01964
Y01768
Y03224
Y03421
Y03618
Y03815
Y04012
Y04208
X02352
Y04012
Y03815
Y03618
Y03421
Y03224
X02135
Y03421
Y03618
Y03815
Y04012
Y04208
X05176
Y04012
Y03815
Y03618
Y03421
Y03224
X05393
Y03421
Y03618
Y03815
Y04012
Y04208
X05609
Y04012
Y03815
Y03618
Y03421
Y03224
T09
X01187Y01803
X0136
Y02197
X01187
T10
X01201Y01578
Y02422
T11
X00914Y01303
X08215Y01265
X0632Y02735
X042
X03657Y0288
X00928Y02878
X01206Y04459
X042Y04595
X0632Y046
X0825Y0461
X00846Y04727
M30
