G04*
G04 #@! TF.GenerationSoftware,Altium Limited,Altium Designer,21.8.1 (53)*
G04*
G04 Layer_Color=32896*
%FSLAX23Y23*%
%MOIN*%
G70*
G04*
G04 #@! TF.SameCoordinates,5902FB8D-61F4-4A33-80A6-77BEAA8E0702*
G04*
G04*
G04 #@! TF.FilePolarity,Positive*
G04*
G01*
G75*
%ADD10C,0.008*%
%ADD12C,0.010*%
%ADD13C,0.006*%
%ADD14C,0.024*%
%ADD15C,0.010*%
%ADD17C,0.007*%
%ADD152C,0.004*%
D10*
X7251Y3286D02*
X7255D01*
X7251Y3314D02*
X7255D01*
X7283Y2811D02*
X7287D01*
X7283Y2839D02*
X7287D01*
X7114Y2538D02*
Y2542D01*
X7086Y2538D02*
Y2542D01*
X1349Y1983D02*
Y1987D01*
X1321Y1983D02*
Y1987D01*
X1179Y1989D02*
X1191D01*
X1185Y1979D02*
X1205Y1999D01*
X1165D02*
X1185Y1979D01*
X1165Y1999D02*
X1205D01*
X1173Y1995D02*
X1197D01*
X1165Y1975D02*
X1205D01*
X7723Y4564D02*
X7727D01*
X7723Y4536D02*
X7727D01*
X7124Y1643D02*
Y1647D01*
X7096Y1643D02*
Y1647D01*
X6528Y1580D02*
X6532D01*
X6528Y1552D02*
X6532D01*
X3633Y1361D02*
Y1558D01*
X3759Y1361D02*
Y1558D01*
X3633Y1361D02*
X3759D01*
X3633Y1558D02*
X3759D01*
X3727Y1258D02*
Y1262D01*
X3755Y1258D02*
Y1262D01*
X3691Y1608D02*
X3695D01*
X3691Y1636D02*
X3695D01*
X3453Y4157D02*
X3484D01*
Y4193D01*
X3366Y4157D02*
X3397D01*
X3366D02*
Y4193D01*
D12*
X3590Y1350D02*
G03*
X3590Y1350I-5J0D01*
G01*
X3359Y4229D02*
G03*
X3359Y4229I-5J0D01*
G01*
D13*
X4052Y1467D02*
G03*
X4052Y1467I-3J0D01*
G01*
X4091Y1439D02*
X4329D01*
X4091Y1645D02*
X4329D01*
X4148Y2068D02*
Y2098D01*
X4162D01*
X4167Y2093D01*
Y2073D01*
X4162Y2068D01*
X4148D01*
X4197Y2098D02*
X4177D01*
X4197Y2078D01*
Y2073D01*
X4192Y2068D01*
X4182D01*
X4177Y2073D01*
X4222Y2098D02*
Y2068D01*
X4207Y2083D01*
X4227D01*
X6815Y1770D02*
Y1740D01*
X6800D01*
X6795Y1745D01*
Y1765D01*
X6800Y1770D01*
X6815D01*
X6765Y1740D02*
X6785D01*
X6765Y1760D01*
Y1765D01*
X6770Y1770D01*
X6780D01*
X6785Y1765D01*
X6755D02*
X6750Y1770D01*
X6740D01*
X6735Y1765D01*
Y1760D01*
X6740Y1755D01*
X6745D01*
X6740D01*
X6735Y1750D01*
Y1745D01*
X6740Y1740D01*
X6750D01*
X6755Y1745D01*
X3354Y4370D02*
Y4400D01*
X3339D01*
X3334Y4395D01*
Y4385D01*
X3339Y4380D01*
X3354D01*
X3344D02*
X3334Y4370D01*
X3309D02*
Y4400D01*
X3324Y4385D01*
X3304D01*
X3274Y4400D02*
X3294D01*
Y4385D01*
X3284Y4390D01*
X3279D01*
X3274Y4385D01*
Y4375D01*
X3279Y4370D01*
X3289D01*
X3294Y4375D01*
X3625Y1610D02*
Y1640D01*
X3610D01*
X3605Y1635D01*
Y1625D01*
X3610Y1620D01*
X3625D01*
X3615D02*
X3605Y1610D01*
X3580D02*
Y1640D01*
X3595Y1625D01*
X3575D01*
X3565Y1610D02*
X3555D01*
X3560D01*
Y1640D01*
X3565Y1635D01*
X1375Y1999D02*
X1405D01*
Y2013D01*
X1400Y2018D01*
X1390D01*
X1385Y2013D01*
Y1999D01*
Y2009D02*
X1375Y2018D01*
Y2043D02*
X1405D01*
X1390Y2028D01*
Y2048D01*
X1405Y2058D02*
Y2078D01*
X1400D01*
X1380Y2058D01*
X1375D01*
X1275Y1950D02*
X1245D01*
Y1965D01*
X1250Y1970D01*
X1270D01*
X1275Y1965D01*
Y1950D01*
X1245Y2000D02*
Y1980D01*
X1265Y2000D01*
X1270D01*
X1275Y1995D01*
Y1985D01*
X1270Y1980D01*
X1275Y2030D02*
Y2010D01*
X1260D01*
X1265Y2020D01*
Y2025D01*
X1260Y2030D01*
X1250D01*
X1245Y2025D01*
Y2015D01*
X1250Y2010D01*
X3820Y1614D02*
Y1589D01*
X3815Y1584D01*
X3805D01*
X3800Y1589D01*
Y1614D01*
X3790Y1609D02*
X3785Y1614D01*
X3775D01*
X3770Y1609D01*
Y1604D01*
X3775Y1599D01*
X3770Y1594D01*
Y1589D01*
X3775Y1584D01*
X3785D01*
X3790Y1589D01*
Y1594D01*
X3785Y1599D01*
X3790Y1604D01*
Y1609D01*
X3785Y1599D02*
X3775D01*
X6540Y1526D02*
Y1496D01*
X6555D01*
X6560Y1501D01*
Y1511D01*
X6555Y1516D01*
X6540D01*
X6550D02*
X6560Y1526D01*
X6570Y1501D02*
X6575Y1496D01*
X6585D01*
X6590Y1501D01*
Y1506D01*
X6585Y1511D01*
X6580D01*
X6585D01*
X6590Y1516D01*
Y1521D01*
X6585Y1526D01*
X6575D01*
X6570Y1521D01*
X6600Y1496D02*
X6620D01*
Y1501D01*
X6600Y1521D01*
Y1526D01*
X7145Y1605D02*
X7175D01*
Y1620D01*
X7170Y1625D01*
X7160D01*
X7155Y1620D01*
Y1605D01*
Y1615D02*
X7145Y1625D01*
X7170Y1635D02*
X7175Y1640D01*
Y1650D01*
X7170Y1655D01*
X7165D01*
X7160Y1650D01*
Y1645D01*
Y1650D01*
X7155Y1655D01*
X7150D01*
X7145Y1650D01*
Y1640D01*
X7150Y1635D01*
X7170Y1665D02*
X7175Y1670D01*
Y1680D01*
X7170Y1685D01*
X7165D01*
X7160Y1680D01*
X7155Y1685D01*
X7150D01*
X7145Y1680D01*
Y1670D01*
X7150Y1665D01*
X7155D01*
X7160Y1670D01*
X7165Y1665D01*
X7170D01*
X7160Y1670D02*
Y1680D01*
X7035Y2485D02*
X7065D01*
Y2500D01*
X7060Y2505D01*
X7050D01*
X7045Y2500D01*
Y2485D01*
Y2495D02*
X7035Y2505D01*
X7060Y2515D02*
X7065Y2520D01*
Y2530D01*
X7060Y2535D01*
X7055D01*
X7050Y2530D01*
Y2525D01*
Y2530D01*
X7045Y2535D01*
X7040D01*
X7035Y2530D01*
Y2520D01*
X7040Y2515D01*
Y2545D02*
X7035Y2550D01*
Y2560D01*
X7040Y2565D01*
X7060D01*
X7065Y2560D01*
Y2550D01*
X7060Y2545D01*
X7055D01*
X7050Y2550D01*
Y2565D01*
X7305Y2760D02*
Y2790D01*
X7290D01*
X7285Y2785D01*
Y2775D01*
X7290Y2770D01*
X7305D01*
X7295D02*
X7285Y2760D01*
X7275Y2785D02*
X7270Y2790D01*
X7260D01*
X7255Y2785D01*
Y2780D01*
X7260Y2775D01*
X7265D01*
X7260D01*
X7255Y2770D01*
Y2765D01*
X7260Y2760D01*
X7270D01*
X7275Y2765D01*
X7225Y2790D02*
X7245D01*
Y2775D01*
X7235Y2780D01*
X7230D01*
X7225Y2775D01*
Y2765D01*
X7230Y2760D01*
X7240D01*
X7245Y2765D01*
X7275Y3230D02*
Y3260D01*
X7260D01*
X7255Y3255D01*
Y3245D01*
X7260Y3240D01*
X7275D01*
X7265D02*
X7255Y3230D01*
X7245Y3255D02*
X7240Y3260D01*
X7230D01*
X7225Y3255D01*
Y3250D01*
X7230Y3245D01*
X7235D01*
X7230D01*
X7225Y3240D01*
Y3235D01*
X7230Y3230D01*
X7240D01*
X7245Y3235D01*
X7195Y3260D02*
X7205Y3255D01*
X7215Y3245D01*
Y3235D01*
X7210Y3230D01*
X7200D01*
X7195Y3235D01*
Y3240D01*
X7200Y3245D01*
X7215D01*
X7648Y4562D02*
X7619D01*
Y4548D01*
X7624Y4543D01*
X7634D01*
X7639Y4548D01*
Y4562D01*
Y4553D02*
X7648Y4543D01*
X7624Y4533D02*
X7619Y4528D01*
Y4518D01*
X7624Y4513D01*
X7629D01*
X7634Y4518D01*
Y4523D01*
Y4518D01*
X7639Y4513D01*
X7644D01*
X7648Y4518D01*
Y4528D01*
X7644Y4533D01*
X7648Y4488D02*
X7619D01*
X7634Y4503D01*
Y4483D01*
X3354Y4280D02*
Y4310D01*
X3339D01*
X3334Y4305D01*
Y4295D01*
X3339Y4290D01*
X3354D01*
X3344D02*
X3334Y4280D01*
X3309D02*
Y4310D01*
X3324Y4295D01*
X3304D01*
X3279Y4280D02*
Y4310D01*
X3294Y4295D01*
X3274D01*
X3358Y4520D02*
Y4550D01*
X3343D01*
X3338Y4545D01*
Y4535D01*
X3343Y4530D01*
X3358D01*
X3348D02*
X3338Y4520D01*
X3313D02*
Y4550D01*
X3328Y4535D01*
X3308D01*
X3278Y4550D02*
X3288Y4545D01*
X3298Y4535D01*
Y4525D01*
X3293Y4520D01*
X3283D01*
X3278Y4525D01*
Y4530D01*
X3283Y4535D01*
X3298D01*
X3354Y4450D02*
Y4480D01*
X3339D01*
X3334Y4475D01*
Y4465D01*
X3339Y4460D01*
X3354D01*
X3344D02*
X3334Y4450D01*
X3309D02*
Y4480D01*
X3324Y4465D01*
X3304D01*
X3294Y4475D02*
X3289Y4480D01*
X3279D01*
X3274Y4475D01*
Y4470D01*
X3279Y4465D01*
X3284D01*
X3279D01*
X3274Y4460D01*
Y4455D01*
X3279Y4450D01*
X3289D01*
X3294Y4455D01*
X3755Y1197D02*
X3725D01*
Y1182D01*
X3730Y1177D01*
X3740D01*
X3745Y1182D01*
Y1197D01*
Y1187D02*
X3755Y1177D01*
Y1152D02*
X3725D01*
X3740Y1167D01*
Y1147D01*
X3755Y1117D02*
Y1137D01*
X3735Y1117D01*
X3730D01*
X3725Y1122D01*
Y1132D01*
X3730Y1137D01*
X3340Y4180D02*
X3320D01*
X3315Y4185D01*
Y4195D01*
X3320Y4200D01*
X3340D01*
X3345Y4195D01*
Y4185D01*
X3335Y4190D02*
X3345Y4180D01*
Y4185D02*
X3340Y4180D01*
X3345Y4170D02*
Y4160D01*
Y4165D01*
X3315D01*
X3320Y4170D01*
X3345Y4145D02*
Y4135D01*
Y4140D01*
X3315D01*
X3320Y4145D01*
X6679Y1868D02*
X6649D01*
Y1883D01*
X6654Y1888D01*
X6674D01*
X6679Y1883D01*
Y1868D01*
X6649Y1918D02*
Y1898D01*
X6669Y1918D01*
X6674D01*
X6679Y1913D01*
Y1903D01*
X6674Y1898D01*
X6649Y1948D02*
Y1928D01*
X6669Y1948D01*
X6674D01*
X6679Y1943D01*
Y1933D01*
X6674Y1928D01*
X4065Y2230D02*
X4070Y2235D01*
X4080D01*
X4085Y2230D01*
Y2210D01*
X4080Y2205D01*
X4070D01*
X4065Y2210D01*
X4055Y2205D02*
X4045D01*
X4050D01*
Y2235D01*
X4055Y2230D01*
X4030Y2235D02*
X4010D01*
Y2230D01*
X4030Y2210D01*
Y2205D01*
X3990Y2595D02*
X3995Y2600D01*
X4005D01*
X4010Y2595D01*
Y2575D01*
X4005Y2570D01*
X3995D01*
X3990Y2575D01*
X3980Y2570D02*
X3970D01*
X3975D01*
Y2600D01*
X3980Y2595D01*
X3955D02*
X3950Y2600D01*
X3940D01*
X3935Y2595D01*
Y2590D01*
X3940Y2585D01*
X3935Y2580D01*
Y2575D01*
X3940Y2570D01*
X3950D01*
X3955Y2575D01*
Y2580D01*
X3950Y2585D01*
X3955Y2590D01*
Y2595D01*
X3950Y2585D02*
X3940D01*
X3660Y1177D02*
X3655Y1182D01*
Y1192D01*
X3660Y1197D01*
X3680D01*
X3685Y1192D01*
Y1182D01*
X3680Y1177D01*
X3685Y1167D02*
Y1157D01*
Y1162D01*
X3655D01*
X3660Y1167D01*
X3680Y1142D02*
X3685Y1137D01*
Y1127D01*
X3680Y1122D01*
X3660D01*
X3655Y1127D01*
Y1137D01*
X3660Y1142D01*
X3665D01*
X3670Y1137D01*
Y1122D01*
D14*
X3685Y1401D02*
G03*
X3685Y1401I-12J0D01*
G01*
D15*
X6626Y1686D02*
Y1970D01*
X6439Y1633D02*
X6569D01*
X6382Y1686D02*
Y1970D01*
X4387Y2186D02*
Y2470D01*
X4200Y2133D02*
X4330D01*
X4143Y2186D02*
Y2470D01*
X6683Y1478D02*
X6967D01*
X7020Y1535D02*
Y1665D01*
X6683Y1722D02*
X6967D01*
X4283Y1688D02*
Y1728D01*
X4293Y1738D01*
X4313D01*
X4323Y1728D01*
Y1688D01*
X4313Y1679D01*
X4293D01*
X4303Y1698D02*
X4283Y1679D01*
X4293D02*
X4283Y1688D01*
X4263D02*
X4253Y1679D01*
X4233D01*
X4223Y1688D01*
Y1728D01*
X4233Y1738D01*
X4253D01*
X4263Y1728D01*
Y1718D01*
X4253Y1708D01*
X4223D01*
D17*
X3528Y1197D02*
X3498D01*
Y1182D01*
X3503Y1177D01*
X3513D01*
X3518Y1182D01*
Y1197D01*
Y1187D02*
X3528Y1177D01*
X3498Y1147D02*
Y1167D01*
X3513D01*
X3508Y1157D01*
Y1152D01*
X3513Y1147D01*
X3523D01*
X3528Y1152D01*
Y1162D01*
X3523Y1167D01*
X3503Y1137D02*
X3498Y1132D01*
Y1122D01*
X3503Y1117D01*
X3523D01*
X3528Y1122D01*
Y1132D01*
X3523Y1137D01*
X3503D01*
X3579Y1180D02*
X3574Y1185D01*
Y1195D01*
X3579Y1200D01*
X3599D01*
X3604Y1195D01*
Y1185D01*
X3599Y1180D01*
X3579Y1170D02*
X3574Y1165D01*
Y1155D01*
X3579Y1150D01*
X3584D01*
X3589Y1155D01*
Y1160D01*
Y1155D01*
X3594Y1150D01*
X3599D01*
X3604Y1155D01*
Y1165D01*
X3599Y1170D01*
D152*
X1145Y1900D02*
Y2070D01*
X1225D01*
Y1900D02*
Y2070D01*
X1145Y1900D02*
X1225D01*
M02*
