G04*
G04 #@! TF.GenerationSoftware,Altium Limited,Altium Designer,22.4.2 (48)*
G04*
G04 Layer_Color=8388736*
%FSLAX25Y25*%
%MOIN*%
G70*
G04*
G04 #@! TF.SameCoordinates,96A84167-8CB8-41EC-8849-8989CCC38216*
G04*
G04*
G04 #@! TF.FilePolarity,Negative*
G04*
G01*
G75*
%ADD12R,0.08900X0.04600*%
%ADD13C,0.17800*%
%ADD14C,0.06824*%
%ADD15R,0.06824X0.06824*%
%ADD16C,0.05800*%
D12*
X629921Y255842D02*
D03*
Y263843D02*
D03*
Y196787D02*
D03*
Y204787D02*
D03*
Y133795D02*
D03*
Y141795D02*
D03*
X539370Y133795D02*
D03*
Y141795D02*
D03*
Y204787D02*
D03*
Y196787D02*
D03*
Y263843D02*
D03*
Y255842D02*
D03*
D13*
X681102Y118110D02*
D03*
X503937D02*
D03*
Y271654D02*
D03*
X681102D02*
D03*
D14*
X680300Y189000D02*
D03*
X668489D02*
D03*
X680300Y177189D02*
D03*
X668489D02*
D03*
X680300Y153567D02*
D03*
Y165378D02*
D03*
X668489D02*
D03*
D15*
Y153567D02*
D03*
D16*
X538976Y248228D02*
D03*
X551181Y184941D02*
D03*
X550591Y213386D02*
D03*
X630512Y156004D02*
D03*
X618504Y219980D02*
D03*
X608563Y262795D02*
D03*
X554626Y266535D02*
D03*
X538681Y185335D02*
D03*
X538878Y158957D02*
D03*
X533071Y123425D02*
D03*
X527362Y219291D02*
D03*
X673524Y240059D02*
D03*
M02*
