G04*
G04 #@! TF.GenerationSoftware,Altium Limited,Altium Designer,22.4.2 (48)*
G04*
G04 Layer_Color=65535*
%FSLAX25Y25*%
%MOIN*%
G70*
G04*
G04 #@! TF.SameCoordinates,96A84167-8CB8-41EC-8849-8989CCC38216*
G04*
G04*
G04 #@! TF.FilePolarity,Positive*
G04*
G01*
G75*
%ADD10C,0.00600*%
%ADD11C,0.01000*%
D10*
X635921Y253043D02*
Y266642D01*
X623921Y253043D02*
Y266642D01*
X635921Y193987D02*
Y207587D01*
X623921Y193987D02*
Y207587D01*
X635921Y130995D02*
Y144595D01*
X623921Y130995D02*
Y144595D01*
X545370Y130995D02*
Y144595D01*
X533370Y130995D02*
Y144595D01*
Y193987D02*
Y207587D01*
X545370Y193987D02*
Y207587D01*
X533370Y253043D02*
Y266642D01*
X545370Y253043D02*
Y266642D01*
D11*
X533600Y276398D02*
Y270400D01*
X536599D01*
X537599Y271400D01*
Y275398D01*
X536599Y276398D01*
X533600D01*
X543597D02*
X541597Y275398D01*
X539598Y273399D01*
Y271400D01*
X540598Y270400D01*
X542597D01*
X543597Y271400D01*
Y272399D01*
X542597Y273399D01*
X539598D01*
X533600Y217398D02*
Y211400D01*
X536599D01*
X537599Y212400D01*
Y216398D01*
X536599Y217398D01*
X533600D01*
X543597D02*
X539598D01*
Y214399D01*
X541597Y215399D01*
X542597D01*
X543597Y214399D01*
Y212400D01*
X542597Y211400D01*
X540598D01*
X539598Y212400D01*
X533810Y153157D02*
Y148158D01*
X536309D01*
X537142Y148991D01*
Y152324D01*
X536309Y153157D01*
X533810D01*
X541307Y148158D02*
Y153157D01*
X538808Y150657D01*
X542140D01*
X615058Y133950D02*
X621057D01*
Y136949D01*
X620057Y137948D01*
X616058D01*
X615058Y136949D01*
Y133950D01*
X616058Y139948D02*
X615058Y140947D01*
Y142947D01*
X616058Y143946D01*
X617058D01*
X618057Y142947D01*
Y141947D01*
Y142947D01*
X619057Y143946D01*
X620057D01*
X621057Y142947D01*
Y140947D01*
X620057Y139948D01*
X615312Y195381D02*
X621310D01*
Y198380D01*
X620310Y199380D01*
X616312D01*
X615312Y198380D01*
Y195381D01*
X621310Y205378D02*
Y201379D01*
X617311Y205378D01*
X616312D01*
X615312Y204378D01*
Y202379D01*
X616312Y201379D01*
X626222Y275457D02*
Y269459D01*
X629221D01*
X630221Y270459D01*
Y274458D01*
X629221Y275457D01*
X626222D01*
X632220Y269459D02*
X634219D01*
X633219D01*
Y275457D01*
X632220Y274458D01*
M02*
