M48
;Layer_Color=9474304
;FILE_FORMAT=2:3
INCH,LZ
;TYPE=PLATED
T1F00S00C0.028
T2F00S00C0.040
T3F00S00C0.138
%
T01
X05331Y01234
X06305Y0156
X06735Y02401
X06185Y022
X06086Y02628
X05546Y02665
X0539Y02482
X05274Y02193
X05506Y02134
X05512Y01849
X05387Y01853
X05389Y0159
T02
X06685Y01536
X06803
Y01654
Y01772
X06685
Y01654
Y0189
X06803
T03
X05039Y01181
X06811
Y02717
X05039
M30
