G04*
G04 #@! TF.GenerationSoftware,Altium Limited,Altium Designer,22.4.2 (48)*
G04*
G04 Layer_Color=32896*
%FSLAX25Y25*%
%MOIN*%
G70*
G04*
G04 #@! TF.SameCoordinates,96A84167-8CB8-41EC-8849-8989CCC38216*
G04*
G04*
G04 #@! TF.FilePolarity,Positive*
G04*
G01*
G75*
%ADD11C,0.01000*%
%ADD29C,0.00984*%
%ADD30C,0.01575*%
%ADD31C,0.00787*%
%ADD32C,0.00500*%
D11*
X653712Y233140D02*
X654368Y233796D01*
Y235108D01*
X653712Y235764D01*
X653056D01*
X651744Y234452D01*
X651088D02*
X650432D01*
X653712Y237076D02*
X654368Y237732D01*
Y239044D01*
X653712Y239700D01*
X653056D01*
X651744Y238388D01*
X651088D02*
X650432D01*
X654368Y241012D02*
X651088D01*
X650432Y241668D01*
Y242980D01*
X651088Y243636D01*
X654368D01*
X650432Y244948D02*
Y246260D01*
Y245604D01*
X654368D01*
X653712Y244948D01*
X529802Y193950D02*
Y199948D01*
X526802D01*
X525803Y198948D01*
Y196949D01*
X526802Y195949D01*
X529802D01*
X527802D02*
X525803Y193950D01*
X523804Y199948D02*
X519805D01*
Y198948D01*
X523804Y194949D01*
Y193950D01*
X530642Y250296D02*
Y254232D01*
X528674D01*
X528018Y253576D01*
Y252264D01*
X528674Y251608D01*
X530642D01*
X529330D02*
X528018Y250296D01*
X526706Y250952D02*
X526050Y250296D01*
X524738D01*
X524082Y250952D01*
Y253576D01*
X524738Y254232D01*
X526050D01*
X526706Y253576D01*
Y252920D01*
X526050Y252264D01*
X524082D01*
X576258Y146410D02*
Y152409D01*
X573259D01*
X572260Y151409D01*
Y149409D01*
X573259Y148410D01*
X576258D01*
X574259D02*
X572260Y146410D01*
X566261Y152409D02*
X570260D01*
Y149409D01*
X568261Y150409D01*
X567261D01*
X566261Y149409D01*
Y147410D01*
X567261Y146410D01*
X569261D01*
X570260Y147410D01*
X561790Y148379D02*
Y154377D01*
X558791D01*
X557791Y153377D01*
Y151378D01*
X558791Y150378D01*
X561790D01*
X559790D02*
X557791Y148379D01*
X552793D02*
Y154377D01*
X555792Y151378D01*
X551793D01*
X657999Y116302D02*
X653001D01*
X652001Y117301D01*
Y119301D01*
X653001Y120300D01*
X657999D01*
X656999Y122300D02*
X657999Y123299D01*
Y125299D01*
X656999Y126298D01*
X656000D01*
X655000Y125299D01*
Y124299D01*
Y125299D01*
X654000Y126298D01*
X653001D01*
X652001Y125299D01*
Y123299D01*
X653001Y122300D01*
X621017Y185117D02*
X626015D01*
X627015Y184117D01*
Y182117D01*
X626015Y181118D01*
X621017D01*
X627015Y175120D02*
Y179118D01*
X623016Y175120D01*
X622016D01*
X621017Y176119D01*
Y178119D01*
X622016Y179118D01*
X555972Y234875D02*
X558595D01*
X559251Y234220D01*
Y232908D01*
X558595Y232252D01*
X555972D01*
X555316Y232908D01*
Y234220D01*
X556628Y233564D02*
X555316Y234875D01*
Y234220D02*
X555972Y234875D01*
X558595Y236187D02*
X559251Y236843D01*
Y238155D01*
X558595Y238811D01*
X557939D01*
X557283Y238155D01*
Y237499D01*
Y238155D01*
X556628Y238811D01*
X555972D01*
X555316Y238155D01*
Y236843D01*
X555972Y236187D01*
X559381Y171275D02*
X555382D01*
X554383Y172275D01*
Y174274D01*
X555382Y175274D01*
X559381D01*
X560381Y174274D01*
Y172275D01*
X558382Y173275D02*
X560381Y171275D01*
Y172275D02*
X559381Y171275D01*
X560381Y165277D02*
Y169276D01*
X556382Y165277D01*
X555382D01*
X554383Y166277D01*
Y168276D01*
X555382Y169276D01*
X534224Y114064D02*
X530225D01*
X529225Y115064D01*
Y117063D01*
X530225Y118063D01*
X534224D01*
X535223Y117063D01*
Y115064D01*
X533224Y116064D02*
X535223Y114064D01*
Y115064D02*
X534224Y114064D01*
X535223Y112065D02*
Y110066D01*
Y111065D01*
X529225D01*
X530225Y112065D01*
X662401Y212898D02*
X664401D01*
X663401D01*
Y207900D01*
X664401Y206900D01*
X665400D01*
X666400Y207900D01*
X660402Y206900D02*
X658403D01*
X659402D01*
Y212898D01*
X660402Y211898D01*
X577000Y270670D02*
Y274606D01*
X575032D01*
X574376Y273950D01*
Y272638D01*
X575032Y271982D01*
X577000D01*
X575688D02*
X574376Y270670D01*
X573065Y273950D02*
X572409Y274606D01*
X571097D01*
X570441Y273950D01*
Y273294D01*
X571097Y272638D01*
X570441Y271982D01*
Y271326D01*
X571097Y270670D01*
X572409D01*
X573065Y271326D01*
Y271982D01*
X572409Y272638D01*
X573065Y273294D01*
Y273950D01*
X572409Y272638D02*
X571097D01*
X563122Y206300D02*
Y210236D01*
X561154D01*
X560499Y209580D01*
Y208268D01*
X561154Y207612D01*
X563122D01*
X561810D02*
X560499Y206300D01*
X556563Y210236D02*
X557875Y209580D01*
X559187Y208268D01*
Y206956D01*
X558531Y206300D01*
X557219D01*
X556563Y206956D01*
Y207612D01*
X557219Y208268D01*
X559187D01*
X654000Y145000D02*
Y150998D01*
X651001D01*
X650001Y149998D01*
Y147999D01*
X651001Y146999D01*
X654000D01*
X652001D02*
X650001Y145000D01*
X648002Y149998D02*
X647002Y150998D01*
X645003D01*
X644003Y149998D01*
Y148999D01*
X645003Y147999D01*
X646003D01*
X645003D01*
X644003Y146999D01*
Y146000D01*
X645003Y145000D01*
X647002D01*
X648002Y146000D01*
X647932Y207087D02*
Y209448D01*
X646752D01*
X646358Y209055D01*
Y208268D01*
X646752Y207874D01*
X647932D01*
X647145D02*
X646358Y207087D01*
X643997D02*
X645571D01*
X643997Y208661D01*
Y209055D01*
X644390Y209448D01*
X645177D01*
X645571Y209055D01*
X649100Y265700D02*
Y271698D01*
X646101D01*
X645101Y270698D01*
Y268699D01*
X646101Y267699D01*
X649100D01*
X647101D02*
X645101Y265700D01*
X643102D02*
X641103D01*
X642102D01*
Y271698D01*
X643102Y270698D01*
D29*
X540453Y239469D02*
G03*
X540453Y239469I-492J0D01*
G01*
X551024Y109045D02*
G03*
X551024Y109045I-492J0D01*
G01*
X538976Y174606D02*
G03*
X538976Y174606I-492J0D01*
G01*
D30*
X661202Y143327D02*
G03*
X661202Y143327I-787J0D01*
G01*
D31*
X523425Y183256D02*
Y191548D01*
X530118Y183256D02*
Y191548D01*
X530610Y239652D02*
Y247944D01*
X523917Y239652D02*
Y247944D01*
X568504Y135913D02*
Y144205D01*
X575197Y135913D02*
Y144205D01*
X541693Y232972D02*
Y236181D01*
Y232972D02*
X544291D01*
X553189D02*
Y236181D01*
X550591Y232972D02*
X553189D01*
X548799Y112332D02*
Y115541D01*
X546201D02*
X548799D01*
X537303Y112332D02*
Y115541D01*
X539902D01*
X561870Y134196D02*
Y145638D01*
X554736Y134196D02*
Y145638D01*
X576894Y255598D02*
Y267040D01*
X569760Y255598D02*
Y267040D01*
X563167Y191211D02*
Y202652D01*
X556033Y191211D02*
Y202652D01*
X540216Y168110D02*
Y171319D01*
Y168110D02*
X542815D01*
X551713D02*
Y171319D01*
X549114Y168110D02*
X551713D01*
X631845Y114682D02*
Y124042D01*
X649955Y114682D02*
Y124042D01*
X646707Y114682D02*
X649955D01*
X631845D02*
X635093D01*
X630245Y174209D02*
X633493D01*
X645107D02*
X648355D01*
Y183569D01*
X630245Y174209D02*
Y183569D01*
X628545Y233009D02*
Y242369D01*
X646655Y233009D02*
Y242369D01*
X643407Y233009D02*
X646655D01*
X628545D02*
X631793D01*
X647345Y253971D02*
Y261892D01*
X640455Y253971D02*
Y261892D01*
X648545Y195739D02*
Y203661D01*
X641655Y195739D02*
Y203661D01*
X650245Y133271D02*
Y141192D01*
X643355Y133271D02*
Y141192D01*
D32*
X678332Y196874D02*
Y198843D01*
X688174Y168527D02*
X693016D01*
Y174039D01*
X688174D02*
X693016D01*
X658883Y182307D02*
X660615D01*
X658883D02*
Y187228D01*
X660615D01*
X658883Y155339D02*
X660615D01*
X658883D02*
Y160260D01*
X660615D01*
X680300Y139787D02*
X682268Y142740D01*
X668489Y139787D02*
X680300D01*
X666521Y142740D02*
X668489Y139787D01*
X666521Y143724D02*
X670458D01*
X666521Y142740D02*
Y143724D01*
Y142740D02*
X682268D01*
Y143724D01*
X678332D02*
X682268D01*
X678332D02*
Y145693D01*
X670458Y143724D02*
X678332D01*
X670458D02*
Y145693D01*
X666521Y199827D02*
X668489Y202780D01*
X680300D01*
X682268Y199827D01*
X678332Y198843D02*
X682268D01*
Y199827D01*
X666521D02*
X682268D01*
X666521Y198843D02*
Y199827D01*
Y198843D02*
X670458D01*
X678332D01*
X670458Y196874D02*
Y198843D01*
X687898Y145968D02*
Y196598D01*
X660890D02*
X687898D01*
X660890Y145968D02*
Y196598D01*
Y145968D02*
X687898D01*
M02*
