G04*
G04 #@! TF.GenerationSoftware,Altium Limited,Altium Designer,21.8.1 (53)*
G04*
G04 Layer_Color=65535*
%FSLAX23Y23*%
%MOIN*%
G70*
G04*
G04 #@! TF.SameCoordinates,D94B3AED-94FA-482B-8DCC-F6CB08C1A555*
G04*
G04*
G04 #@! TF.FilePolarity,Positive*
G04*
G01*
G75*
%ADD10C,0.010*%
%ADD11C,0.010*%
%ADD12C,0.024*%
%ADD13C,0.008*%
%ADD14C,0.008*%
%ADD15C,0.006*%
%ADD16C,0.005*%
%ADD17C,0.009*%
%ADD18C,0.007*%
%ADD19R,0.026X0.007*%
%ADD20R,0.018X0.067*%
%ADD21R,0.023X0.007*%
D10*
X5804Y4670D02*
G03*
X5804Y4670I-5J0D01*
G01*
X4875Y4350D02*
X4890Y4365D01*
D11*
X6514Y4564D02*
G03*
X6514Y4564I-5J0D01*
G01*
X5977Y4692D02*
G03*
X5977Y4692I-5J0D01*
G01*
X5727Y4464D02*
G03*
X5727Y4464I-5J0D01*
G01*
X6337Y4564D02*
G03*
X6337Y4564I-5J0D01*
G01*
X6514Y4404D02*
G03*
X6514Y4404I-5J0D01*
G01*
X6509Y4255D02*
G03*
X6509Y4255I-5J0D01*
G01*
D12*
X5821Y4414D02*
G03*
X5821Y4414I-12J0D01*
G01*
D13*
X4916Y4036D02*
G03*
X4907Y4044I-9J0D01*
G01*
Y3986D02*
G03*
X4916Y3994I0J9D01*
G01*
X4798Y4044D02*
G03*
X4790Y4036I0J-9D01*
G01*
Y3994D02*
G03*
X4798Y3986I9J0D01*
G01*
X6150Y3994D02*
G03*
X6158Y3986I9J0D01*
G01*
Y4044D02*
G03*
X6150Y4036I0J-9D01*
G01*
X6267Y3986D02*
G03*
X6276Y3994I0J9D01*
G01*
Y4036D02*
G03*
X6267Y4044I-9J0D01*
G01*
X5470Y3994D02*
G03*
X5478Y3986I9J0D01*
G01*
Y4044D02*
G03*
X5470Y4036I0J-9D01*
G01*
X5587Y3986D02*
G03*
X5596Y3994I0J9D01*
G01*
Y4036D02*
G03*
X5587Y4044I-9J0D01*
G01*
X4798D02*
X4907D01*
X4798Y3986D02*
X4907D01*
X4916Y3994D02*
Y4036D01*
X4790Y3994D02*
Y4036D01*
X6150Y3994D02*
Y4036D01*
X6276Y3994D02*
Y4036D01*
X6158Y3986D02*
X6267D01*
X6158Y4044D02*
X6267D01*
X5470Y3994D02*
Y4036D01*
X5596Y3994D02*
Y4036D01*
X5478Y3986D02*
X5587D01*
X5478Y4044D02*
X5587D01*
D14*
X6519Y2792D02*
G03*
X6519Y2792I-4J0D01*
G01*
X5839D02*
G03*
X5839Y2792I-4J0D01*
G01*
X5159D02*
G03*
X5159Y2792I-4J0D01*
G01*
X5853Y4825D02*
Y4829D01*
X5881Y4825D02*
Y4829D01*
X6437Y4663D02*
Y4694D01*
X6473D01*
X6437Y4576D02*
Y4607D01*
Y4576D02*
X6473D01*
X5840Y4627D02*
X5866D01*
X5840D02*
Y4659D01*
X5929Y4627D02*
X5955D01*
Y4659D01*
X5770Y4257D02*
X5896D01*
X5770Y4453D02*
X5896D01*
Y4257D02*
Y4453D01*
X5770Y4257D02*
Y4453D01*
X6513Y4010D02*
Y4110D01*
X6713D01*
Y4010D02*
Y4110D01*
X6513Y4010D02*
X6713D01*
X5833D02*
Y4110D01*
X6033D01*
Y4010D02*
Y4110D01*
X5833Y4010D02*
X6033D01*
X5153D02*
Y4110D01*
X5353D01*
Y4010D02*
Y4110D01*
X5153Y4010D02*
X5353D01*
X6361Y4029D02*
X6365D01*
X6361Y4001D02*
X6365D01*
X5001Y4029D02*
X5005D01*
X5001Y4001D02*
X5005D01*
X5681Y4029D02*
X5685D01*
X5681Y4001D02*
X5685D01*
X6260Y4576D02*
X6296D01*
X6260D02*
Y4607D01*
Y4694D02*
X6296D01*
X6260Y4663D02*
Y4694D01*
X6626Y4561D02*
X6630D01*
X6626Y4589D02*
X6630D01*
X6259Y4459D02*
X6263D01*
X6259Y4431D02*
X6263D01*
X6258Y4506D02*
X6262D01*
X6258Y4534D02*
X6262D01*
X6626Y4261D02*
X6630D01*
X6626Y4289D02*
X6630D01*
X6437Y4416D02*
X6473D01*
X6437D02*
Y4447D01*
Y4534D02*
X6473D01*
X6437Y4503D02*
Y4534D01*
X6626Y4514D02*
X6630D01*
X6626Y4486D02*
X6630D01*
X6439Y4273D02*
X6471D01*
X6439D02*
Y4299D01*
Y4387D02*
X6471D01*
X6439Y4361D02*
Y4387D01*
X6628Y4176D02*
X6632D01*
X6628Y4204D02*
X6632D01*
D15*
X5564Y4565D02*
X5774D01*
Y4800D01*
X5564D02*
X5774D01*
X5564Y4565D02*
Y4800D01*
X5225Y4469D02*
Y4636D01*
X5018Y4469D02*
Y4636D01*
X5475Y4469D02*
Y4636D01*
X5268Y4469D02*
Y4636D01*
X5521Y4359D02*
Y4329D01*
X5536D01*
X5541Y4334D01*
Y4339D01*
X5536Y4344D01*
X5521D01*
X5536D01*
X5541Y4349D01*
Y4354D01*
X5536Y4359D01*
X5521D01*
X5571Y4354D02*
X5566Y4359D01*
X5556D01*
X5551Y4354D01*
Y4349D01*
X5556Y4344D01*
X5566D01*
X5571Y4339D01*
Y4334D01*
X5566Y4329D01*
X5556D01*
X5551Y4334D01*
X5581Y4329D02*
Y4359D01*
X5596D01*
X5601Y4354D01*
Y4344D01*
X5596Y4339D01*
X5581D01*
X5611Y4359D02*
Y4329D01*
X5626D01*
X5631Y4334D01*
Y4354D01*
X5626Y4359D01*
X5611D01*
X5521Y4309D02*
X5541D01*
X5531D01*
Y4279D01*
X5551Y4309D02*
X5561D01*
X5556D01*
Y4279D01*
X5551D01*
X5561D01*
X5576D02*
Y4309D01*
X5586Y4299D01*
X5596Y4309D01*
Y4279D01*
X5626Y4309D02*
X5606D01*
Y4279D01*
X5626D01*
X5606Y4294D02*
X5616D01*
X5850Y4230D02*
Y4205D01*
X5855Y4200D01*
X5865D01*
X5870Y4205D01*
Y4230D01*
X5880D02*
X5900D01*
Y4225D01*
X5880Y4205D01*
Y4200D01*
X5988Y4613D02*
X6018D01*
Y4628D01*
X6013Y4633D01*
X5993D01*
X5988Y4628D01*
Y4613D01*
X6018Y4643D02*
Y4653D01*
Y4648D01*
X5988D01*
X5993Y4643D01*
X6018Y4668D02*
Y4678D01*
Y4673D01*
X5988D01*
X5993Y4668D01*
X5997Y4544D02*
X5992Y4549D01*
X5982D01*
X5977Y4544D01*
Y4524D01*
X5982Y4519D01*
X5992D01*
X5997Y4524D01*
X6007Y4519D02*
X6017D01*
X6012D01*
Y4549D01*
X6007Y4544D01*
X5996Y4785D02*
X5966D01*
Y4800D01*
X5971Y4805D01*
X5981D01*
X5986Y4800D01*
Y4785D01*
Y4795D02*
X5996Y4805D01*
X5966Y4835D02*
Y4815D01*
X5981D01*
X5976Y4825D01*
Y4830D01*
X5981Y4835D01*
X5991D01*
X5996Y4830D01*
Y4820D01*
X5991Y4815D01*
X5996Y4865D02*
Y4845D01*
X5976Y4865D01*
X5971D01*
X5966Y4860D01*
Y4850D01*
X5971Y4845D01*
X5830Y4800D02*
X5800D01*
Y4815D01*
X5805Y4820D01*
X5815D01*
X5820Y4815D01*
Y4800D01*
Y4810D02*
X5830Y4820D01*
X5800Y4850D02*
Y4830D01*
X5815D01*
X5810Y4840D01*
Y4845D01*
X5815Y4850D01*
X5825D01*
X5830Y4845D01*
Y4835D01*
X5825Y4830D01*
X5830Y4860D02*
Y4870D01*
Y4865D01*
X5800D01*
X5805Y4860D01*
D16*
X6113Y2806D02*
Y3948D01*
X6613D01*
Y2806D02*
Y3948D01*
X6113Y2806D02*
X6613D01*
X5433D02*
Y3948D01*
X5933D01*
Y2806D02*
Y3948D01*
X5433Y2806D02*
X5933D01*
X4753D02*
Y3948D01*
X5253D01*
Y2806D02*
Y3948D01*
X4753Y2806D02*
X5253D01*
D17*
X5368Y3455D02*
X5408D01*
Y3442D02*
X5368D01*
X5395Y3462D02*
Y3442D01*
Y3435D01*
X5381Y3462D02*
Y3435D01*
X5395Y3422D02*
X5368D01*
X5381D01*
X5388Y3415D01*
X5395Y3409D01*
Y3402D01*
Y3375D02*
Y3362D01*
X5388Y3355D01*
X5368D01*
Y3375D01*
X5375Y3382D01*
X5381Y3375D01*
Y3355D01*
X5395Y3315D02*
Y3335D01*
X5388Y3342D01*
X5375D01*
X5368Y3335D01*
Y3315D01*
Y3282D02*
Y3295D01*
X5375Y3302D01*
X5388D01*
X5395Y3295D01*
Y3282D01*
X5388Y3275D01*
X5381D01*
Y3302D01*
X5395Y3235D02*
Y3255D01*
X5388Y3262D01*
X5375D01*
X5368Y3255D01*
Y3235D01*
X5395Y3215D02*
Y3202D01*
X5388Y3195D01*
X5368D01*
Y3215D01*
X5375Y3222D01*
X5381Y3215D01*
Y3195D01*
X5395Y3182D02*
X5368D01*
X5381D01*
X5388Y3175D01*
X5395Y3169D01*
Y3162D01*
X5408Y3115D02*
X5368D01*
Y3135D01*
X5375Y3142D01*
X5388D01*
X5395Y3135D01*
Y3115D01*
Y3102D02*
X5368D01*
X5381D01*
X5388Y3095D01*
X5395Y3089D01*
Y3082D01*
X5368Y3062D02*
Y3049D01*
Y3055D01*
X5395D01*
Y3062D01*
Y3029D02*
X5368Y3015D01*
X5395Y3002D01*
X5368Y2969D02*
Y2982D01*
X5375Y2989D01*
X5388D01*
X5395Y2982D01*
Y2969D01*
X5388Y2962D01*
X5381D01*
Y2989D01*
X5368Y2942D02*
X5401D01*
X5388D01*
Y2949D01*
Y2936D01*
Y2942D01*
X5401D01*
X5408Y2936D01*
X5395Y2909D02*
Y2896D01*
X5388Y2889D01*
X5368D01*
Y2909D01*
X5375Y2916D01*
X5381Y2909D01*
Y2889D01*
X5368Y2876D02*
Y2856D01*
X5375Y2849D01*
X5381Y2856D01*
Y2869D01*
X5388Y2876D01*
X5395Y2869D01*
Y2849D01*
X5401Y2829D02*
X5395D01*
Y2836D01*
Y2822D01*
Y2829D01*
X5375D01*
X5368Y2822D01*
D18*
X4665Y4629D02*
Y4599D01*
X4685D01*
X4695Y4629D02*
X4705D01*
X4700D01*
Y4599D01*
X4695D01*
X4705D01*
X4740Y4624D02*
X4735Y4629D01*
X4725D01*
X4720Y4624D01*
Y4604D01*
X4725Y4599D01*
X4735D01*
X4740Y4604D01*
Y4614D01*
X4730D01*
X4750Y4629D02*
Y4599D01*
Y4614D01*
X4770D01*
Y4629D01*
Y4599D01*
X4780Y4629D02*
X4800D01*
X4790D01*
Y4599D01*
X5240Y4688D02*
X5223D01*
X5236Y4695D02*
X5227Y4681D01*
X5236D02*
X5227Y4695D01*
X4762Y4548D02*
X4757Y4553D01*
X4747D01*
X4742Y4548D01*
Y4543D01*
X4747Y4538D01*
X4757D01*
X4762Y4533D01*
Y4528D01*
X4757Y4523D01*
X4747D01*
X4742Y4528D01*
X4772Y4553D02*
Y4523D01*
X4782Y4533D01*
X4792Y4523D01*
Y4553D01*
X5871Y2743D02*
X5865Y2737D01*
Y2726D01*
X5871Y2720D01*
X5894D01*
X5900Y2726D01*
Y2737D01*
X5894Y2743D01*
X5883D01*
Y2732D01*
X5900Y2755D02*
X5865D01*
X5900Y2778D01*
X5865D01*
Y2790D02*
X5900D01*
Y2807D01*
X5894Y2813D01*
X5871D01*
X5865Y2807D01*
Y2790D01*
X6305Y4930D02*
Y4907D01*
X6317Y4895D01*
X6328Y4907D01*
Y4930D01*
X6363Y4924D02*
X6357Y4930D01*
X6346D01*
X6340Y4924D01*
Y4918D01*
X6346Y4912D01*
X6357D01*
X6363Y4907D01*
Y4901D01*
X6357Y4895D01*
X6346D01*
X6340Y4901D01*
X5573Y4178D02*
Y4143D01*
X5590D01*
X5596Y4149D01*
Y4155D01*
X5590Y4160D01*
X5573D01*
X5590D01*
X5596Y4166D01*
Y4172D01*
X5590Y4178D01*
X5573D01*
X5625D02*
X5614D01*
X5608Y4172D01*
Y4149D01*
X5614Y4143D01*
X5625D01*
X5631Y4149D01*
Y4172D01*
X5625Y4178D01*
X5643D02*
Y4143D01*
Y4155D01*
X5666Y4178D01*
X5649Y4160D01*
X5666Y4143D01*
X5678D02*
Y4166D01*
X5695D01*
X5701Y4160D01*
Y4143D01*
X4645Y4299D02*
Y4329D01*
X4660D01*
X4665Y4324D01*
Y4314D01*
X4660Y4309D01*
X4645D01*
X4675Y4299D02*
Y4329D01*
X4690D01*
X4695Y4324D01*
Y4314D01*
X4690Y4309D01*
X4675D01*
X4685D02*
X4695Y4299D01*
X4725Y4329D02*
X4705D01*
Y4299D01*
X4725D01*
X4705Y4314D02*
X4715D01*
X4755Y4324D02*
X4750Y4329D01*
X4740D01*
X4735Y4324D01*
Y4319D01*
X4740Y4314D01*
X4750D01*
X4755Y4309D01*
Y4304D01*
X4750Y4299D01*
X4740D01*
X4735Y4304D01*
X4785Y4324D02*
X4780Y4329D01*
X4770D01*
X4765Y4324D01*
Y4319D01*
X4770Y4314D01*
X4780D01*
X4785Y4309D01*
Y4304D01*
X4780Y4299D01*
X4770D01*
X4765Y4304D01*
X5299Y2611D02*
Y2634D01*
X5311Y2646D01*
X5322Y2634D01*
Y2611D01*
Y2628D01*
X5299D01*
X5351Y2646D02*
X5340D01*
X5334Y2640D01*
Y2617D01*
X5340Y2611D01*
X5351D01*
X5357Y2617D01*
Y2640D01*
X5351Y2646D01*
X5369D02*
Y2611D01*
Y2623D01*
X5392Y2646D01*
X5375Y2628D01*
X5392Y2611D01*
X6654Y2953D02*
X6683D01*
X6689Y2959D01*
Y2970D01*
X6683Y2976D01*
X6654D01*
X6689Y2988D02*
X6654D01*
X6666Y3000D01*
X6654Y3011D01*
X6689D01*
X6660Y3046D02*
X6654Y3040D01*
Y3029D01*
X6660Y3023D01*
X6666D01*
X6672Y3029D01*
Y3040D01*
X6677Y3046D01*
X6683D01*
X6689Y3040D01*
Y3029D01*
X6683Y3023D01*
X6689Y3058D02*
X6666D01*
X6654Y3070D01*
X6666Y3081D01*
X6689D01*
X6672D01*
Y3058D01*
X6654Y3116D02*
Y3093D01*
X6689D01*
Y3116D01*
X6672Y3093D02*
Y3105D01*
X6687Y3181D02*
Y3170D01*
X6681Y3164D01*
X6669D01*
X6663Y3170D01*
Y3181D01*
X6669Y3187D01*
X6675D01*
Y3164D01*
X6687Y3199D02*
X6652D01*
Y3216D01*
X6657Y3222D01*
X6669D01*
X6675Y3216D01*
Y3199D01*
X6652Y3234D02*
X6687D01*
Y3251D01*
X6681Y3257D01*
X6675D01*
X6669Y3251D01*
Y3234D01*
Y3251D01*
X6663Y3257D01*
X6657D01*
X6652Y3251D01*
Y3234D01*
X6687Y3269D02*
X6652D01*
Y3286D01*
X6657Y3292D01*
X6669D01*
X6675Y3286D01*
Y3269D01*
Y3281D02*
X6687Y3292D01*
Y3327D02*
Y3304D01*
X6663Y3327D01*
X6657D01*
X6652Y3321D01*
Y3310D01*
X6657Y3304D01*
X6687Y3362D02*
Y3339D01*
X6663Y3362D01*
X6657D01*
X6652Y3356D01*
Y3345D01*
X6657Y3339D01*
X6692Y3374D02*
Y3397D01*
X6687Y3409D02*
X6663D01*
X6652Y3421D01*
X6663Y3432D01*
X6687D01*
X6669D01*
Y3409D01*
X6657Y3467D02*
X6652Y3461D01*
Y3450D01*
X6657Y3444D01*
X6681D01*
X6687Y3450D01*
Y3461D01*
X6681Y3467D01*
X6652Y3479D02*
X6681D01*
X6687Y3485D01*
Y3496D01*
X6681Y3502D01*
X6652D01*
X6692Y3514D02*
Y3537D01*
X6652Y3549D02*
X6687D01*
Y3572D01*
X6663Y3590D02*
Y3601D01*
X6669Y3607D01*
X6687D01*
Y3590D01*
X6681Y3584D01*
X6675Y3590D01*
Y3607D01*
X6657Y3625D02*
X6663D01*
Y3619D01*
Y3631D01*
Y3625D01*
X6681D01*
X6687Y3631D01*
X6663Y3671D02*
Y3654D01*
X6669Y3648D01*
X6681D01*
X6687Y3654D01*
Y3671D01*
X6652Y3683D02*
X6687D01*
X6669D01*
X6663Y3689D01*
Y3700D01*
X6669Y3706D01*
X6687D01*
Y3718D02*
Y3730D01*
Y3724D01*
X6663D01*
Y3718D01*
X6687Y3747D02*
X6663D01*
Y3765D01*
X6669Y3770D01*
X6687D01*
X6698Y3794D02*
Y3800D01*
X6692Y3805D01*
X6663D01*
Y3788D01*
X6669Y3782D01*
X6681D01*
X6687Y3788D01*
Y3805D01*
X6692Y3817D02*
Y3840D01*
X6663Y3852D02*
X6687D01*
X6675D01*
X6669Y3858D01*
X6663Y3864D01*
Y3870D01*
X6687Y3905D02*
Y3893D01*
X6681Y3887D01*
X6669D01*
X6663Y3893D01*
Y3905D01*
X6669Y3910D01*
X6675D01*
Y3887D01*
X6663Y3922D02*
X6687Y3934D01*
X6663Y3945D01*
X6657Y3957D02*
X6652Y3963D01*
Y3975D01*
X6657Y3980D01*
X6681D01*
X6687Y3975D01*
Y3963D01*
X6681Y3957D01*
X6657D01*
X5235Y2756D02*
Y2733D01*
X5247Y2721D01*
X5258Y2733D01*
Y2756D01*
X5293Y2751D02*
X5287Y2756D01*
X5276D01*
X5270Y2751D01*
Y2745D01*
X5276Y2739D01*
X5287D01*
X5293Y2733D01*
Y2727D01*
X5287Y2721D01*
X5276D01*
X5270Y2727D01*
X5078Y2718D02*
Y2741D01*
X5090Y2753D01*
X5101Y2741D01*
Y2718D01*
Y2735D01*
X5078D01*
X5130Y2753D02*
X5119D01*
X5113Y2747D01*
Y2724D01*
X5119Y2718D01*
X5130D01*
X5136Y2724D01*
Y2747D01*
X5130Y2753D01*
X5148D02*
Y2718D01*
Y2730D01*
X5171Y2753D01*
X5154Y2735D01*
X5171Y2718D01*
X5183D02*
Y2741D01*
X5200D01*
X5206Y2735D01*
Y2718D01*
X4912D02*
Y2741D01*
X4924Y2753D01*
X4936Y2741D01*
Y2718D01*
Y2735D01*
X4912D01*
X4947Y2753D02*
Y2718D01*
X4971D01*
X5006Y2753D02*
X4982D01*
Y2718D01*
X5006D01*
X4982Y2735D02*
X4994D01*
X5017Y2753D02*
Y2718D01*
X5035D01*
X5041Y2724D01*
Y2747D01*
X5035Y2753D01*
X5017D01*
X5410Y2755D02*
X5422D01*
X5416D01*
Y2720D01*
X5410D01*
X5422D01*
X5439D02*
Y2755D01*
X5462Y2720D01*
Y2755D01*
X5533Y2636D02*
X5545D01*
X5539D01*
Y2601D01*
X5533D01*
X5545D01*
X5562Y2636D02*
Y2601D01*
X5585D01*
X5620Y2636D02*
X5597D01*
Y2601D01*
X5620D01*
X5597Y2618D02*
X5609D01*
X5632Y2636D02*
Y2601D01*
X5650D01*
X5655Y2607D01*
Y2630D01*
X5650Y2636D01*
X5632D01*
X5960Y2720D02*
Y2732D01*
Y2726D01*
X5995D01*
Y2720D01*
Y2732D01*
X5960Y2767D02*
Y2755D01*
X5966Y2749D01*
X5989D01*
X5995Y2755D01*
Y2767D01*
X5989Y2772D01*
X5966D01*
X5960Y2767D01*
Y2784D02*
X5995D01*
X5983D01*
X5960Y2807D01*
X5978Y2790D01*
X5995Y2807D01*
X6019Y2753D02*
Y2718D01*
X6036D01*
X6042Y2724D01*
Y2730D01*
X6036Y2735D01*
X6019D01*
X6036D01*
X6042Y2741D01*
Y2747D01*
X6036Y2753D01*
X6019D01*
X6054D02*
Y2718D01*
X6077D01*
X6112Y2753D02*
X6089D01*
Y2718D01*
X6112D01*
X6089Y2735D02*
X6101D01*
X6124Y2753D02*
Y2718D01*
X6141D01*
X6147Y2724D01*
Y2747D01*
X6141Y2753D01*
X6124D01*
X6171Y2732D02*
X6165Y2726D01*
Y2715D01*
X6171Y2709D01*
X6194D01*
X6200Y2715D01*
Y2726D01*
X6194Y2732D01*
X6183D01*
Y2721D01*
X6200Y2744D02*
X6165D01*
X6200Y2767D01*
X6165D01*
Y2779D02*
X6200D01*
Y2796D01*
X6194Y2802D01*
X6171D01*
X6165Y2796D01*
Y2779D01*
X6285Y2715D02*
X6250D01*
Y2732D01*
X6256Y2738D01*
X6268D01*
X6273Y2732D01*
Y2715D01*
Y2727D02*
X6285Y2738D01*
X6256Y2773D02*
X6250Y2767D01*
Y2756D01*
X6256Y2750D01*
X6262D01*
X6268Y2756D01*
Y2767D01*
X6273Y2773D01*
X6279D01*
X6285Y2767D01*
Y2756D01*
X6279Y2750D01*
X6250Y2785D02*
Y2808D01*
Y2797D01*
X6285D01*
X6370Y2732D02*
Y2721D01*
X6376Y2715D01*
X6399D01*
X6405Y2721D01*
Y2732D01*
X6399Y2738D01*
X6376D01*
X6370Y2732D01*
Y2750D02*
X6399D01*
X6405Y2756D01*
Y2767D01*
X6399Y2773D01*
X6370D01*
Y2785D02*
Y2808D01*
Y2797D01*
X6405D01*
X6143Y4835D02*
Y4812D01*
X6154Y4800D01*
X6166Y4812D01*
Y4835D01*
X6201Y4829D02*
X6195Y4835D01*
X6184D01*
X6178Y4829D01*
Y4823D01*
X6184Y4817D01*
X6195D01*
X6201Y4812D01*
Y4806D01*
X6195Y4800D01*
X6184D01*
X6178Y4806D01*
X5993Y4369D02*
X5987Y4375D01*
X5976D01*
X5970Y4369D01*
Y4346D01*
X5976Y4340D01*
X5987D01*
X5993Y4346D01*
Y4357D01*
X5982D01*
X6005Y4340D02*
Y4375D01*
X6028Y4340D01*
Y4375D01*
X6040D02*
Y4340D01*
X6057D01*
X6063Y4346D01*
Y4369D01*
X6057Y4375D01*
X6040D01*
X6150Y4733D02*
Y4767D01*
X6167D01*
X6173Y4762D01*
Y4750D01*
X6167Y4744D01*
X6150D01*
X6162D02*
X6173Y4733D01*
X6172Y4656D02*
X6166Y4662D01*
X6154D01*
X6148Y4656D01*
Y4633D01*
X6154Y4627D01*
X6166D01*
X6172Y4633D01*
Y4644D01*
X6160D01*
X5970Y4455D02*
X5993D01*
X5982D01*
Y4420D01*
X6028Y4449D02*
X6022Y4455D01*
X6011D01*
X6005Y4449D01*
Y4443D01*
X6011Y4437D01*
X6022D01*
X6028Y4432D01*
Y4426D01*
X6022Y4420D01*
X6011D01*
X6005Y4426D01*
X6040Y4420D02*
Y4443D01*
X6052Y4455D01*
X6063Y4443D01*
Y4420D01*
Y4437D01*
X6040D01*
X4711Y4468D02*
X4706Y4473D01*
X4696D01*
X4691Y4468D01*
Y4463D01*
X4696Y4458D01*
X4706D01*
X4711Y4453D01*
Y4448D01*
X4706Y4443D01*
X4696D01*
X4691Y4448D01*
X4741Y4473D02*
X4721D01*
Y4443D01*
X4741D01*
X4721Y4458D02*
X4731D01*
X4751Y4443D02*
Y4473D01*
X4771Y4443D01*
Y4473D01*
X4801Y4468D02*
X4796Y4473D01*
X4786D01*
X4781Y4468D01*
Y4463D01*
X4786Y4458D01*
X4796D01*
X4801Y4453D01*
Y4448D01*
X4796Y4443D01*
X4786D01*
X4781Y4448D01*
X4750Y4250D02*
X4730D01*
Y4235D01*
X4740Y4240D01*
X4745D01*
X4750Y4235D01*
Y4225D01*
X4745Y4220D01*
X4735D01*
X4730Y4225D01*
X4760Y4250D02*
Y4230D01*
X4770Y4220D01*
X4780Y4230D01*
Y4250D01*
X4700Y4163D02*
X4695Y4168D01*
X4685D01*
X4680Y4163D01*
Y4143D01*
X4685Y4138D01*
X4695D01*
X4700Y4143D01*
X4710Y4168D02*
Y4143D01*
X4715Y4138D01*
X4725D01*
X4730Y4143D01*
Y4168D01*
X4740Y4138D02*
Y4168D01*
X4755D01*
X4760Y4163D01*
Y4153D01*
X4755Y4148D01*
X4740D01*
X4750D02*
X4760Y4138D01*
X4770D02*
Y4168D01*
X4785D01*
X4790Y4163D01*
Y4153D01*
X4785Y4148D01*
X4770D01*
X4780D02*
X4790Y4138D01*
X5048Y4200D02*
X5025D01*
Y4182D01*
X5037Y4188D01*
X5042D01*
X5048Y4182D01*
Y4171D01*
X5042Y4165D01*
X5031D01*
X5025Y4171D01*
X5060Y4200D02*
Y4177D01*
X5072Y4165D01*
X5083Y4177D01*
Y4200D01*
X5260Y4397D02*
X5277D01*
X5264Y4390D02*
X5273Y4404D01*
X5264D02*
X5273Y4390D01*
X6500Y4720D02*
Y4740D01*
X6495Y4745D01*
X6485D01*
X6480Y4740D01*
Y4720D01*
X6485Y4715D01*
X6495D01*
X6490Y4725D02*
X6500Y4715D01*
X6495D02*
X6500Y4720D01*
X6510Y4740D02*
X6515Y4745D01*
X6525D01*
X6530Y4740D01*
Y4735D01*
X6525Y4730D01*
X6520D01*
X6525D01*
X6530Y4725D01*
Y4720D01*
X6525Y4715D01*
X6515D01*
X6510Y4720D01*
X4970Y4580D02*
X4995D01*
X5000Y4585D01*
Y4595D01*
X4995Y4600D01*
X4970D01*
X5000Y4610D02*
Y4620D01*
Y4615D01*
X4970D01*
X4975Y4610D01*
X5610Y4550D02*
X5630D01*
X5620D01*
Y4520D01*
X5660Y4550D02*
X5640D01*
Y4520D01*
X5660D01*
X5640Y4535D02*
X5650D01*
X5690Y4545D02*
X5685Y4550D01*
X5675D01*
X5670Y4545D01*
Y4540D01*
X5675Y4535D01*
X5685D01*
X5690Y4530D01*
Y4525D01*
X5685Y4520D01*
X5675D01*
X5670Y4525D01*
X5700Y4550D02*
X5720D01*
X5710D01*
Y4520D01*
X5485Y4420D02*
X5510D01*
X5515Y4425D01*
Y4435D01*
X5510Y4440D01*
X5485D01*
X5515Y4470D02*
Y4450D01*
X5495Y4470D01*
X5490D01*
X5485Y4465D01*
Y4455D01*
X5490Y4450D01*
X5343Y4885D02*
Y4915D01*
X5358D01*
X5363Y4910D01*
Y4900D01*
X5358Y4895D01*
X5343D01*
X5353D02*
X5363Y4885D01*
X5373D02*
X5383D01*
X5378D01*
Y4915D01*
X5373Y4910D01*
X5398D02*
X5403Y4915D01*
X5413D01*
X5418Y4910D01*
Y4890D01*
X5413Y4885D01*
X5403D01*
X5398Y4890D01*
Y4910D01*
X5275Y4346D02*
Y4376D01*
X5290D01*
X5295Y4371D01*
Y4361D01*
X5290Y4356D01*
X5275D01*
X5285D02*
X5295Y4346D01*
X5305Y4371D02*
X5310Y4376D01*
X5320D01*
X5325Y4371D01*
Y4366D01*
X5320Y4361D01*
X5325Y4356D01*
Y4351D01*
X5320Y4346D01*
X5310D01*
X5305Y4351D01*
Y4356D01*
X5310Y4361D01*
X5305Y4366D01*
Y4371D01*
X5310Y4361D02*
X5320D01*
X5025Y4780D02*
X4995D01*
Y4795D01*
X5000Y4800D01*
X5010D01*
X5015Y4795D01*
Y4780D01*
Y4790D02*
X5025Y4800D01*
X5000Y4810D02*
X4995Y4815D01*
Y4825D01*
X5000Y4830D01*
X5005D01*
X5010Y4825D01*
Y4820D01*
Y4825D01*
X5015Y4830D01*
X5020D01*
X5025Y4825D01*
Y4815D01*
X5020Y4810D01*
X5115Y4722D02*
Y4752D01*
X5130D01*
X5135Y4747D01*
Y4737D01*
X5130Y4732D01*
X5115D01*
X5125D02*
X5135Y4722D01*
X5160D02*
Y4752D01*
X5145Y4737D01*
X5165D01*
X5383Y4225D02*
X5413D01*
Y4210D01*
X5408Y4205D01*
X5398D01*
X5393Y4210D01*
Y4225D01*
Y4215D02*
X5383Y4205D01*
Y4195D02*
Y4185D01*
Y4190D01*
X5413D01*
X5408Y4195D01*
X5383Y4170D02*
Y4160D01*
Y4165D01*
X5413D01*
X5408Y4170D01*
X5109Y4350D02*
Y4380D01*
X5124D01*
X5129Y4375D01*
Y4365D01*
X5124Y4360D01*
X5109D01*
X5119D02*
X5129Y4350D01*
X5159Y4380D02*
X5139D01*
Y4365D01*
X5149Y4370D01*
X5154D01*
X5159Y4365D01*
Y4355D01*
X5154Y4350D01*
X5144D01*
X5139Y4355D01*
X5035Y4350D02*
Y4380D01*
X5050D01*
X5055Y4375D01*
Y4365D01*
X5050Y4360D01*
X5035D01*
X5045D02*
X5055Y4350D01*
X5085D02*
X5065D01*
X5085Y4370D01*
Y4375D01*
X5080Y4380D01*
X5070D01*
X5065Y4375D01*
X5473Y4325D02*
X5503D01*
Y4310D01*
X5498Y4305D01*
X5488D01*
X5483Y4310D01*
Y4325D01*
Y4315D02*
X5473Y4305D01*
Y4295D02*
Y4285D01*
Y4290D01*
X5503D01*
X5498Y4295D01*
X5473Y4250D02*
Y4270D01*
X5493Y4250D01*
X5498D01*
X5503Y4255D01*
Y4265D01*
X5498Y4270D01*
X5185Y4880D02*
Y4910D01*
X5200D01*
X5205Y4905D01*
Y4895D01*
X5200Y4890D01*
X5185D01*
X5195D02*
X5205Y4880D01*
X5215Y4910D02*
X5235D01*
Y4905D01*
X5215Y4885D01*
Y4880D01*
X5175Y4350D02*
Y4380D01*
X5190D01*
X5195Y4375D01*
Y4365D01*
X5190Y4360D01*
X5175D01*
X5185D02*
X5195Y4350D01*
X5225Y4380D02*
X5215Y4375D01*
X5205Y4365D01*
Y4355D01*
X5210Y4350D01*
X5220D01*
X5225Y4355D01*
Y4360D01*
X5220Y4365D01*
X5205D01*
X5253Y4733D02*
Y4762D01*
X5268D01*
X5273Y4757D01*
Y4747D01*
X5268Y4742D01*
X5253D01*
X5263D02*
X5273Y4733D01*
X5283Y4737D02*
X5288Y4733D01*
X5298D01*
X5303Y4737D01*
Y4757D01*
X5298Y4762D01*
X5288D01*
X5283Y4757D01*
Y4752D01*
X5288Y4747D01*
X5303D01*
X5515Y4780D02*
X5485D01*
Y4795D01*
X5490Y4800D01*
X5500D01*
X5505Y4795D01*
Y4780D01*
Y4790D02*
X5515Y4800D01*
Y4810D02*
Y4820D01*
Y4815D01*
X5485D01*
X5490Y4810D01*
Y4835D02*
X5485Y4840D01*
Y4850D01*
X5490Y4855D01*
X5495D01*
X5500Y4850D01*
Y4845D01*
Y4850D01*
X5505Y4855D01*
X5510D01*
X5515Y4850D01*
Y4840D01*
X5510Y4835D01*
X6485Y4160D02*
X6475D01*
X6480D01*
Y4135D01*
X6475Y4130D01*
X6470D01*
X6465Y4135D01*
X6495Y4130D02*
Y4160D01*
X6505Y4150D01*
X6515Y4160D01*
Y4130D01*
X6525D02*
Y4160D01*
X6540D01*
X6545Y4155D01*
Y4145D01*
X6540Y4140D01*
X6525D01*
X6555Y4155D02*
X6560Y4160D01*
X6570D01*
X6575Y4155D01*
Y4150D01*
X6570Y4145D01*
X6565D01*
X6570D01*
X6575Y4140D01*
Y4135D01*
X6570Y4130D01*
X6560D01*
X6555Y4135D01*
X5964Y4160D02*
X5954D01*
X5959D01*
Y4135D01*
X5954Y4130D01*
X5949D01*
X5944Y4135D01*
X5974Y4130D02*
Y4160D01*
X5984Y4150D01*
X5994Y4160D01*
Y4130D01*
X6004D02*
Y4160D01*
X6019D01*
X6024Y4155D01*
Y4145D01*
X6019Y4140D01*
X6004D01*
X6054Y4130D02*
X6034D01*
X6054Y4150D01*
Y4155D01*
X6049Y4160D01*
X6039D01*
X6034Y4155D01*
X5175Y4160D02*
X5165D01*
X5170D01*
Y4135D01*
X5165Y4130D01*
X5160D01*
X5155Y4135D01*
X5185Y4130D02*
Y4160D01*
X5195Y4150D01*
X5205Y4160D01*
Y4130D01*
X5215D02*
Y4160D01*
X5230D01*
X5235Y4155D01*
Y4145D01*
X5230Y4140D01*
X5215D01*
X5245Y4130D02*
X5255D01*
X5250D01*
Y4160D01*
X5245Y4155D01*
X6691Y4549D02*
Y4579D01*
X6706D01*
X6711Y4574D01*
Y4564D01*
X6706Y4559D01*
X6691D01*
X6701D02*
X6711Y4549D01*
X6741D02*
X6721D01*
X6741Y4569D01*
Y4574D01*
X6736Y4579D01*
X6726D01*
X6721Y4574D01*
X6751D02*
X6756Y4579D01*
X6766D01*
X6771Y4574D01*
Y4569D01*
X6766Y4564D01*
X6761D01*
X6766D01*
X6771Y4559D01*
Y4554D01*
X6766Y4549D01*
X6756D01*
X6751Y4554D01*
X6687Y4148D02*
Y4178D01*
X6702D01*
X6707Y4173D01*
Y4163D01*
X6702Y4158D01*
X6687D01*
X6697D02*
X6707Y4148D01*
X6737D02*
X6717D01*
X6737Y4168D01*
Y4173D01*
X6732Y4178D01*
X6722D01*
X6717Y4173D01*
X6747D02*
X6752Y4178D01*
X6762D01*
X6767Y4173D01*
Y4153D01*
X6762Y4148D01*
X6752D01*
X6747Y4153D01*
Y4173D01*
X6692Y4444D02*
Y4474D01*
X6707D01*
X6712Y4469D01*
Y4459D01*
X6707Y4454D01*
X6692D01*
X6702D02*
X6712Y4444D01*
X6742D02*
X6722D01*
X6742Y4464D01*
Y4469D01*
X6737Y4474D01*
X6727D01*
X6722Y4469D01*
X6772Y4444D02*
X6752D01*
X6772Y4464D01*
Y4469D01*
X6767Y4474D01*
X6757D01*
X6752Y4469D01*
X6205Y4245D02*
X6175D01*
Y4260D01*
X6180Y4265D01*
X6190D01*
X6195Y4260D01*
Y4245D01*
Y4255D02*
X6205Y4265D01*
Y4275D02*
Y4285D01*
Y4280D01*
X6175D01*
X6180Y4275D01*
X6175Y4320D02*
Y4300D01*
X6190D01*
X6185Y4310D01*
Y4315D01*
X6190Y4320D01*
X6200D01*
X6205Y4315D01*
Y4305D01*
X6200Y4300D01*
X6687Y4238D02*
Y4268D01*
X6702D01*
X6707Y4263D01*
Y4253D01*
X6702Y4248D01*
X6687D01*
X6697D02*
X6707Y4238D01*
X6737D02*
X6717D01*
X6737Y4258D01*
Y4263D01*
X6732Y4268D01*
X6722D01*
X6717Y4263D01*
X6747Y4238D02*
X6757D01*
X6752D01*
Y4268D01*
X6747Y4263D01*
X6130Y4355D02*
Y4385D01*
X6145D01*
X6150Y4380D01*
Y4370D01*
X6145Y4365D01*
X6130D01*
X6140D02*
X6150Y4355D01*
X6160D02*
X6170D01*
X6165D01*
Y4385D01*
X6160Y4380D01*
X6205Y4385D02*
X6195Y4380D01*
X6185Y4370D01*
Y4360D01*
X6190Y4355D01*
X6200D01*
X6205Y4360D01*
Y4365D01*
X6200Y4370D01*
X6185D01*
X6153Y4550D02*
Y4580D01*
X6168D01*
X6173Y4575D01*
Y4565D01*
X6168Y4560D01*
X6153D01*
X6163D02*
X6173Y4550D01*
X6183D02*
X6193D01*
X6188D01*
Y4580D01*
X6183Y4575D01*
X6208Y4580D02*
X6228D01*
Y4575D01*
X6208Y4555D01*
Y4550D01*
X6130Y4400D02*
Y4430D01*
X6145D01*
X6150Y4425D01*
Y4415D01*
X6145Y4410D01*
X6130D01*
X6140D02*
X6150Y4400D01*
X6160D02*
X6170D01*
X6165D01*
Y4430D01*
X6160Y4425D01*
X6185D02*
X6190Y4430D01*
X6200D01*
X6205Y4425D01*
Y4420D01*
X6200Y4415D01*
X6205Y4410D01*
Y4405D01*
X6200Y4400D01*
X6190D01*
X6185Y4405D01*
Y4410D01*
X6190Y4415D01*
X6185Y4420D01*
Y4425D01*
X6190Y4415D02*
X6200D01*
X6365Y4515D02*
Y4535D01*
X6360Y4540D01*
X6350D01*
X6345Y4535D01*
Y4515D01*
X6350Y4510D01*
X6360D01*
X6355Y4520D02*
X6365Y4510D01*
X6360D02*
X6365Y4515D01*
X6395Y4510D02*
X6375D01*
X6395Y4530D01*
Y4535D01*
X6390Y4540D01*
X6380D01*
X6375Y4535D01*
X6282Y4715D02*
Y4735D01*
X6277Y4740D01*
X6267D01*
X6262Y4735D01*
Y4715D01*
X6267Y4710D01*
X6277D01*
X6272Y4720D02*
X6282Y4710D01*
X6277D02*
X6282Y4715D01*
X6292Y4710D02*
X6302D01*
X6297D01*
Y4740D01*
X6292Y4735D01*
X6685Y4628D02*
X6705D01*
X6695D01*
Y4598D01*
X6735Y4623D02*
X6730Y4628D01*
X6720D01*
X6715Y4623D01*
Y4618D01*
X6720Y4613D01*
X6730D01*
X6735Y4608D01*
Y4603D01*
X6730Y4598D01*
X6720D01*
X6715Y4603D01*
X6745Y4598D02*
Y4618D01*
X6755Y4628D01*
X6765Y4618D01*
Y4598D01*
Y4613D01*
X6745D01*
X6400Y4260D02*
Y4230D01*
X6415D01*
X6420Y4235D01*
Y4255D01*
X6415Y4260D01*
X6400D01*
X6445Y4230D02*
Y4260D01*
X6430Y4245D01*
X6450D01*
X6714Y4316D02*
X6709Y4321D01*
X6699D01*
X6694Y4316D01*
Y4296D01*
X6699Y4291D01*
X6709D01*
X6714Y4296D01*
X6724Y4316D02*
X6729Y4321D01*
X6739D01*
X6744Y4316D01*
Y4311D01*
X6739Y4306D01*
X6734D01*
X6739D01*
X6744Y4301D01*
Y4296D01*
X6739Y4291D01*
X6729D01*
X6724Y4296D01*
X6282Y4180D02*
X6277Y4185D01*
X6267D01*
X6262Y4180D01*
Y4160D01*
X6267Y4155D01*
X6277D01*
X6282Y4160D01*
X6312Y4155D02*
X6292D01*
X6312Y4175D01*
Y4180D01*
X6307Y4185D01*
X6297D01*
X6292Y4180D01*
X6714Y4423D02*
X6709Y4428D01*
X6699D01*
X6694Y4423D01*
Y4403D01*
X6699Y4398D01*
X6709D01*
X6714Y4403D01*
X6739Y4398D02*
Y4428D01*
X6724Y4413D01*
X6744D01*
X6425Y4050D02*
X6455D01*
Y4035D01*
X6450Y4030D01*
X6440D01*
X6435Y4035D01*
Y4050D01*
Y4040D02*
X6425Y4030D01*
Y4020D02*
Y4010D01*
Y4015D01*
X6455D01*
X6450Y4020D01*
X6430Y3995D02*
X6425Y3990D01*
Y3980D01*
X6430Y3975D01*
X6450D01*
X6455Y3980D01*
Y3990D01*
X6450Y3995D01*
X6445D01*
X6440Y3990D01*
Y3975D01*
X5786Y3990D02*
X5756D01*
Y4005D01*
X5761Y4010D01*
X5771D01*
X5776Y4005D01*
Y3990D01*
Y4000D02*
X5786Y4010D01*
Y4020D02*
Y4030D01*
Y4025D01*
X5756D01*
X5761Y4020D01*
X5786Y4060D02*
X5756D01*
X5771Y4045D01*
Y4065D01*
X5100Y3990D02*
X5070D01*
Y4005D01*
X5075Y4010D01*
X5085D01*
X5090Y4005D01*
Y3990D01*
Y4000D02*
X5100Y4010D01*
Y4020D02*
Y4030D01*
Y4025D01*
X5070D01*
X5075Y4020D01*
X5528Y4091D02*
X5538D01*
X5533D01*
Y4061D01*
X5528D01*
X5538D01*
X5553D02*
Y4091D01*
X5563Y4081D01*
X5573Y4091D01*
Y4061D01*
X5583Y4091D02*
Y4061D01*
X5598D01*
X5603Y4066D01*
Y4086D01*
X5598Y4091D01*
X5583D01*
X6078Y3990D02*
X6108D01*
Y4005D01*
X6103Y4010D01*
X6083D01*
X6078Y4005D01*
Y3990D01*
X6083Y4020D02*
X6078Y4025D01*
Y4035D01*
X6083Y4040D01*
X6088D01*
X6093Y4035D01*
Y4030D01*
Y4035D01*
X6098Y4040D01*
X6103D01*
X6108Y4035D01*
Y4025D01*
X6103Y4020D01*
X5398Y3990D02*
X5428D01*
Y4005D01*
X5423Y4010D01*
X5403D01*
X5398Y4005D01*
Y3990D01*
X5428Y4040D02*
Y4020D01*
X5408Y4040D01*
X5403D01*
X5398Y4035D01*
Y4025D01*
X5403Y4020D01*
X4730Y3995D02*
X4760D01*
Y4010D01*
X4755Y4015D01*
X4735D01*
X4730Y4010D01*
Y3995D01*
X4760Y4025D02*
Y4035D01*
Y4030D01*
X4730D01*
X4735Y4025D01*
X6148Y4100D02*
Y4070D01*
X6163D01*
X6168Y4075D01*
Y4080D01*
X6163Y4085D01*
X6148D01*
X6163D01*
X6168Y4090D01*
Y4095D01*
X6163Y4100D01*
X6148D01*
X6198Y4095D02*
X6193Y4100D01*
X6183D01*
X6178Y4095D01*
Y4090D01*
X6183Y4085D01*
X6193D01*
X6198Y4080D01*
Y4075D01*
X6193Y4070D01*
X6183D01*
X6178Y4075D01*
X6208Y4070D02*
Y4100D01*
X6223D01*
X6228Y4095D01*
Y4085D01*
X6223Y4080D01*
X6208D01*
X6238Y4100D02*
Y4070D01*
X6253D01*
X6258Y4075D01*
Y4095D01*
X6253Y4100D01*
X6238D01*
X4783Y4060D02*
Y4080D01*
X4793Y4090D01*
X4803Y4080D01*
Y4060D01*
Y4075D01*
X4783D01*
X4813Y4060D02*
Y4090D01*
X4823Y4080D01*
X4833Y4090D01*
Y4060D01*
X4863Y4085D02*
X4858Y4090D01*
X4848D01*
X4843Y4085D01*
Y4080D01*
X4848Y4075D01*
X4858D01*
X4863Y4070D01*
Y4065D01*
X4858Y4060D01*
X4848D01*
X4843Y4065D01*
D19*
X4796Y4045D02*
D03*
X6156D02*
D03*
X5476D02*
D03*
D20*
X4784Y4015D02*
D03*
X6144D02*
D03*
X5464D02*
D03*
D21*
X4794Y3985D02*
D03*
X6154D02*
D03*
X5474D02*
D03*
M02*
