G04*
G04 #@! TF.GenerationSoftware,Altium Limited,Altium Designer,21.8.1 (53)*
G04*
G04 Layer_Physical_Order=2*
G04 Layer_Color=16711680*
%FSLAX23Y23*%
%MOIN*%
G70*
G04*
G04 #@! TF.SameCoordinates,D94B3AED-94FA-482B-8DCC-F6CB08C1A555*
G04*
G04*
G04 #@! TF.FilePolarity,Positive*
G04*
G01*
G75*
%ADD10C,0.010*%
%ADD24R,0.035X0.031*%
%ADD25R,0.031X0.035*%
G04:AMPARAMS|DCode=28|XSize=26mil|YSize=65mil|CornerRadius=2mil|HoleSize=0mil|Usage=FLASHONLY|Rotation=90.000|XOffset=0mil|YOffset=0mil|HoleType=Round|Shape=RoundedRectangle|*
%AMROUNDEDRECTD28*
21,1,0.026,0.061,0,0,90.0*
21,1,0.022,0.065,0,0,90.0*
1,1,0.004,0.031,0.011*
1,1,0.004,0.031,-0.011*
1,1,0.004,-0.031,-0.011*
1,1,0.004,-0.031,0.011*
%
%ADD28ROUNDEDRECTD28*%
%ADD29R,0.028X0.035*%
%ADD49C,0.012*%
%ADD50C,0.025*%
%ADD51C,0.060*%
%ADD52C,0.059*%
%ADD53C,0.250*%
%ADD54C,0.055*%
%ADD55R,0.059X0.059*%
%ADD56C,0.077*%
%ADD57R,0.077X0.077*%
%ADD58C,0.020*%
%ADD59C,0.031*%
%ADD60R,0.020X0.020*%
%ADD61R,0.039X0.024*%
%ADD62R,0.024X0.045*%
%ADD63R,0.051X0.028*%
%ADD64R,0.098X0.067*%
G36*
X6772Y4942D02*
X6772Y2568D01*
X4638Y2568D01*
Y4942D01*
X6772Y4942D01*
D02*
G37*
%LPC*%
G36*
X5298Y4918D02*
X5290Y4916D01*
X5282Y4911D01*
X5277Y4904D01*
X5276Y4895D01*
X5277Y4886D01*
X5282Y4880D01*
X5282Y4880D01*
X5282Y4878D01*
X5275Y4872D01*
X5271Y4874D01*
Y4877D01*
X5272Y4882D01*
X5271Y4888D01*
Y4912D01*
X5233D01*
Y4897D01*
X5233Y4897D01*
X5233Y4897D01*
X5232Y4896D01*
X5232Y4896D01*
X5231Y4895D01*
X5229Y4894D01*
X5226Y4894D01*
X5223Y4893D01*
X5221Y4893D01*
X5198D01*
X5190Y4891D01*
X5184Y4887D01*
X5114Y4817D01*
X5097D01*
X5094Y4816D01*
X5090Y4817D01*
X4993D01*
X4985Y4816D01*
X4979Y4811D01*
X4826Y4659D01*
X4825Y4657D01*
X4823Y4655D01*
X4823Y4655D01*
X4815Y4650D01*
X4810Y4642D01*
X4806Y4634D01*
X4805Y4625D01*
X4806Y4616D01*
X4810Y4608D01*
X4815Y4600D01*
X4823Y4595D01*
X4831Y4591D01*
X4840Y4590D01*
X4849Y4591D01*
X4852Y4592D01*
X4855Y4588D01*
X4831Y4564D01*
X4828Y4560D01*
X4827Y4557D01*
X4823Y4555D01*
X4815Y4550D01*
X4810Y4542D01*
X4806Y4534D01*
X4805Y4525D01*
X4806Y4516D01*
X4810Y4508D01*
X4815Y4500D01*
X4823Y4495D01*
X4831Y4491D01*
X4840Y4490D01*
X4845Y4491D01*
X4847Y4486D01*
X4833Y4472D01*
X4830Y4468D01*
X4829Y4463D01*
Y4461D01*
X4829Y4460D01*
X4829Y4459D01*
X4829Y4459D01*
X4829Y4458D01*
X4828Y4458D01*
X4828Y4458D01*
X4828Y4458D01*
X4828Y4458D01*
X4827Y4457D01*
X4827Y4457D01*
X4823Y4455D01*
X4815Y4450D01*
X4810Y4442D01*
X4806Y4434D01*
X4805Y4425D01*
X4806Y4416D01*
X4810Y4408D01*
X4815Y4400D01*
X4823Y4395D01*
X4831Y4391D01*
X4840Y4390D01*
X4849Y4391D01*
X4857Y4395D01*
X4865Y4400D01*
X4870Y4408D01*
X4874Y4416D01*
X4875Y4425D01*
X4874Y4434D01*
X4870Y4442D01*
X4865Y4450D01*
X4859Y4454D01*
X4858Y4459D01*
X4858Y4460D01*
X4890Y4491D01*
X4893Y4496D01*
X4894Y4501D01*
Y4542D01*
X4893Y4544D01*
Y4563D01*
X4909Y4578D01*
X4912Y4583D01*
X4913Y4588D01*
Y4636D01*
X4993Y4716D01*
X4993Y4716D01*
X4999Y4716D01*
X5006Y4711D01*
X5015Y4710D01*
X5018Y4710D01*
X5019Y4710D01*
X5020Y4710D01*
X5020Y4710D01*
X5021Y4710D01*
X5021Y4710D01*
X5022Y4710D01*
X5022Y4710D01*
X5023Y4709D01*
X5023Y4709D01*
X5024Y4709D01*
X5039Y4693D01*
X5041Y4691D01*
X5042Y4690D01*
X5043Y4688D01*
X5043Y4688D01*
Y4660D01*
X5053D01*
X5053Y4660D01*
X5053Y4659D01*
X5053Y4658D01*
Y4637D01*
X5053Y4636D01*
X5053Y4635D01*
X5053Y4635D01*
X5043D01*
Y4585D01*
X5089D01*
Y4635D01*
X5080D01*
X5080Y4635D01*
X5080Y4636D01*
X5079Y4637D01*
Y4658D01*
X5080Y4659D01*
X5080Y4660D01*
X5080Y4660D01*
X5089D01*
Y4710D01*
X5061D01*
X5060Y4710D01*
X5057Y4713D01*
X5040Y4730D01*
X5040Y4730D01*
X5040Y4730D01*
X5039Y4731D01*
X5039Y4732D01*
X5038Y4733D01*
X5038Y4734D01*
X5038Y4734D01*
X5038Y4735D01*
X5037Y4736D01*
X5037Y4737D01*
X5036Y4741D01*
X5035Y4743D01*
X5037Y4748D01*
X5041D01*
X5042Y4748D01*
X5043Y4747D01*
X5043Y4747D01*
Y4735D01*
X5071D01*
X5072Y4735D01*
X5076Y4732D01*
X5099Y4709D01*
Y4660D01*
X5144D01*
Y4710D01*
X5134D01*
X5134Y4710D01*
X5131Y4714D01*
X5114Y4731D01*
X5116Y4735D01*
X5144D01*
Y4763D01*
X5144Y4763D01*
X5145Y4765D01*
X5148Y4768D01*
X5206Y4826D01*
X5262D01*
X5267Y4827D01*
X5271Y4830D01*
X5304Y4864D01*
X5305Y4864D01*
X5310Y4865D01*
X5315Y4859D01*
X5320Y4856D01*
X5325Y4855D01*
X5523D01*
X5525Y4851D01*
X5524Y4849D01*
X5522Y4840D01*
X5524Y4831D01*
X5529Y4824D01*
X5536Y4819D01*
X5545Y4817D01*
X5548Y4818D01*
X5691D01*
X5701Y4808D01*
X5702Y4807D01*
X5703Y4806D01*
X5703Y4804D01*
X5704Y4803D01*
X5705Y4801D01*
X5705Y4800D01*
X5705Y4798D01*
X5706Y4797D01*
Y4716D01*
X5705Y4714D01*
X5705Y4713D01*
X5704Y4711D01*
X5703Y4709D01*
X5701Y4707D01*
X5700Y4704D01*
X5695Y4699D01*
X5693Y4697D01*
X5692Y4696D01*
X5686Y4689D01*
X5683Y4680D01*
X5681Y4670D01*
X5683Y4660D01*
X5686Y4651D01*
X5692Y4644D01*
X5700Y4638D01*
X5709Y4634D01*
X5719Y4633D01*
X5728Y4634D01*
X5737Y4638D01*
X5745Y4644D01*
X5751Y4651D01*
X5755Y4660D01*
X5756Y4670D01*
X5755Y4680D01*
X5751Y4689D01*
X5745Y4696D01*
X5744Y4697D01*
X5740Y4702D01*
X5738Y4704D01*
X5736Y4707D01*
X5735Y4709D01*
X5734Y4711D01*
X5733Y4713D01*
X5732Y4714D01*
X5732Y4716D01*
Y4797D01*
X5732Y4798D01*
X5733Y4800D01*
X5733Y4801D01*
X5734Y4803D01*
X5734Y4804D01*
X5735Y4806D01*
X5736Y4807D01*
X5737Y4808D01*
X5746Y4818D01*
X6044D01*
X6077Y4785D01*
X6079Y4783D01*
X6079Y4777D01*
X6075Y4775D01*
X6070Y4767D01*
X6066Y4759D01*
X6065Y4750D01*
X6066Y4741D01*
X6070Y4733D01*
X6075Y4725D01*
X6083Y4720D01*
X6091Y4716D01*
X6100Y4715D01*
X6109Y4716D01*
X6117Y4720D01*
X6125Y4725D01*
X6130Y4733D01*
X6134Y4741D01*
X6135Y4750D01*
X6134Y4759D01*
X6130Y4767D01*
X6125Y4775D01*
X6123Y4776D01*
X6125Y4781D01*
X6221D01*
X6279Y4722D01*
X6280Y4719D01*
X6280Y4718D01*
X6280Y4717D01*
Y4675D01*
X6325D01*
Y4718D01*
X6325Y4718D01*
X6325Y4718D01*
Y4725D01*
X6319D01*
X6318Y4725D01*
X6317Y4725D01*
X6316Y4725D01*
X6315Y4726D01*
X6313Y4727D01*
X6312Y4728D01*
X6306Y4733D01*
X6293Y4746D01*
X6295Y4750D01*
X6303D01*
X6303Y4750D01*
X6303Y4750D01*
X6308D01*
X6309Y4750D01*
X6312Y4747D01*
X6335Y4724D01*
Y4718D01*
X6335Y4718D01*
X6335Y4718D01*
Y4675D01*
X6344D01*
X6344Y4675D01*
X6344Y4674D01*
X6344Y4673D01*
Y4597D01*
X6280Y4532D01*
X6277Y4528D01*
X6276Y4523D01*
Y4520D01*
X6276Y4520D01*
X6236D01*
X6233Y4519D01*
X6230Y4517D01*
X6228Y4514D01*
X6227Y4511D01*
Y4506D01*
X6223Y4506D01*
X6219Y4503D01*
X6201Y4484D01*
X6198Y4480D01*
X6197Y4475D01*
Y4305D01*
X6198Y4300D01*
X6201Y4296D01*
X6321Y4176D01*
X6325Y4173D01*
X6330Y4172D01*
X6462D01*
X6463Y4172D01*
X6464Y4171D01*
X6466Y4170D01*
X6468Y4169D01*
X6470Y4168D01*
X6472Y4167D01*
X6476Y4163D01*
X6478Y4161D01*
X6479Y4160D01*
X6486Y4155D01*
X6495Y4151D01*
X6504Y4150D01*
X6513Y4151D01*
X6521Y4155D01*
X6528Y4160D01*
X6534Y4168D01*
X6537Y4176D01*
X6538Y4185D01*
X6537Y4194D01*
X6534Y4202D01*
X6528Y4210D01*
X6521Y4215D01*
X6513Y4219D01*
X6504Y4220D01*
X6495Y4219D01*
X6486Y4215D01*
X6479Y4210D01*
X6478Y4209D01*
X6476Y4207D01*
X6474Y4205D01*
X6472Y4203D01*
X6470Y4202D01*
X6468Y4201D01*
X6466Y4200D01*
X6464Y4199D01*
X6463Y4198D01*
X6462Y4198D01*
X6365D01*
X6363Y4203D01*
X6364Y4204D01*
X6369Y4211D01*
X6371Y4220D01*
X6369Y4229D01*
X6364Y4236D01*
X6357Y4241D01*
X6348Y4243D01*
X6346Y4243D01*
X6345Y4243D01*
X6344Y4243D01*
X6344Y4243D01*
X6343Y4243D01*
X6342Y4244D01*
X6341Y4244D01*
X6341Y4244D01*
X6340Y4245D01*
X6334Y4251D01*
Y4316D01*
X6336Y4317D01*
X6339Y4318D01*
X6346Y4313D01*
X6355Y4311D01*
X6364Y4313D01*
X6371Y4318D01*
X6376Y4325D01*
X6378Y4334D01*
X6378Y4335D01*
X6378Y4336D01*
X6378Y4337D01*
X6378Y4338D01*
X6378Y4339D01*
X6378Y4339D01*
X6379Y4340D01*
X6379Y4341D01*
X6379Y4341D01*
X6380Y4342D01*
X6394Y4356D01*
X6396Y4360D01*
X6397Y4364D01*
Y4400D01*
X6402Y4401D01*
X6404Y4399D01*
X6407Y4397D01*
X6407Y4395D01*
Y4393D01*
X6408Y4388D01*
X6411Y4383D01*
X6438Y4356D01*
X6443Y4353D01*
X6443Y4353D01*
X6446Y4349D01*
X6447Y4348D01*
X6448Y4347D01*
X6449Y4346D01*
X6449Y4345D01*
Y4339D01*
X6450Y4336D01*
X6452Y4333D01*
X6455Y4331D01*
X6459Y4330D01*
X6520D01*
X6523Y4331D01*
X6526Y4333D01*
X6528Y4336D01*
X6529Y4339D01*
Y4361D01*
X6528Y4364D01*
X6526Y4367D01*
X6523Y4369D01*
X6520Y4370D01*
X6460D01*
X6460Y4371D01*
X6457Y4374D01*
X6456Y4376D01*
X6459Y4380D01*
X6459Y4380D01*
X6520D01*
X6523Y4381D01*
X6526Y4383D01*
X6528Y4386D01*
X6529Y4389D01*
Y4391D01*
X6529Y4391D01*
X6530Y4392D01*
X6531Y4392D01*
X6536D01*
X6536Y4392D01*
X6537Y4392D01*
X6538Y4391D01*
X6539Y4391D01*
X6539Y4391D01*
X6540Y4390D01*
X6541Y4390D01*
X6541Y4390D01*
X6542Y4389D01*
X6549Y4384D01*
X6558Y4382D01*
X6567Y4384D01*
X6574Y4389D01*
X6579Y4396D01*
X6581Y4405D01*
X6579Y4414D01*
X6574Y4421D01*
X6567Y4426D01*
X6558Y4428D01*
X6549Y4426D01*
X6542Y4421D01*
X6541Y4420D01*
X6541Y4420D01*
X6540Y4420D01*
X6539Y4419D01*
X6539Y4419D01*
X6538Y4419D01*
X6537Y4418D01*
X6536Y4418D01*
X6536Y4418D01*
X6528D01*
X6525Y4418D01*
X6524Y4419D01*
X6524Y4419D01*
X6524Y4419D01*
X6523Y4419D01*
X6520Y4420D01*
X6459D01*
X6455Y4419D01*
X6452Y4417D01*
X6450Y4414D01*
X6449Y4411D01*
Y4389D01*
X6449Y4389D01*
X6445Y4387D01*
X6436Y4396D01*
X6436Y4399D01*
X6441Y4406D01*
X6443Y4415D01*
X6441Y4424D01*
X6436Y4431D01*
X6434Y4433D01*
X6435Y4438D01*
X6449D01*
X6449Y4438D01*
X6450Y4438D01*
X6450Y4436D01*
X6452Y4433D01*
X6455Y4431D01*
X6459Y4430D01*
X6520D01*
X6523Y4431D01*
X6526Y4433D01*
X6528Y4436D01*
X6529Y4439D01*
Y4461D01*
X6528Y4464D01*
X6526Y4467D01*
X6523Y4469D01*
X6520Y4470D01*
X6459D01*
X6455Y4469D01*
X6452Y4467D01*
X6450Y4464D01*
X6450Y4462D01*
X6449Y4462D01*
X6449Y4462D01*
X6398D01*
X6393Y4461D01*
X6389Y4459D01*
X6376Y4446D01*
X6374Y4442D01*
X6373Y4437D01*
Y4401D01*
X6368Y4399D01*
X6368Y4399D01*
X6365Y4401D01*
X6364Y4402D01*
X6313Y4454D01*
X6311Y4456D01*
X6308Y4459D01*
X6307Y4461D01*
X6306Y4462D01*
X6306Y4462D01*
X6306Y4462D01*
X6306Y4463D01*
X6306Y4463D01*
X6306Y4463D01*
X6306Y4464D01*
X6304Y4467D01*
X6301Y4469D01*
X6297Y4470D01*
X6236D01*
X6233Y4469D01*
X6230Y4468D01*
X6227Y4468D01*
X6225Y4469D01*
X6225Y4470D01*
X6225Y4471D01*
X6234Y4480D01*
X6260D01*
X6260Y4480D01*
X6297D01*
X6301Y4481D01*
X6304Y4483D01*
X6306Y4486D01*
X6306Y4489D01*
Y4511D01*
X6306Y4514D01*
X6305Y4516D01*
X6304Y4517D01*
X6306Y4521D01*
X6307Y4521D01*
X6317Y4532D01*
X6322Y4530D01*
Y4497D01*
X6322Y4497D01*
X6322Y4496D01*
X6322Y4495D01*
X6321Y4494D01*
X6321Y4493D01*
X6321Y4493D01*
X6320Y4492D01*
X6320Y4492D01*
X6319Y4491D01*
X6314Y4484D01*
X6312Y4475D01*
X6314Y4466D01*
X6319Y4459D01*
X6327Y4454D01*
X6335Y4452D01*
X6344Y4454D01*
X6352Y4459D01*
X6357Y4466D01*
X6358Y4475D01*
X6357Y4484D01*
X6352Y4491D01*
X6350Y4492D01*
X6350Y4492D01*
X6350Y4493D01*
X6349Y4493D01*
X6349Y4494D01*
X6349Y4495D01*
X6349Y4496D01*
X6349Y4497D01*
X6349Y4497D01*
Y4527D01*
X6386Y4565D01*
X6389Y4569D01*
X6390Y4574D01*
Y4646D01*
X6408Y4665D01*
X6409Y4665D01*
X6409Y4665D01*
X6410Y4666D01*
X6411Y4666D01*
X6411Y4666D01*
X6412Y4666D01*
X6413Y4667D01*
X6413Y4667D01*
X6414Y4666D01*
X6423Y4668D01*
X6431Y4673D01*
X6436Y4681D01*
X6437Y4689D01*
X6436Y4698D01*
X6431Y4706D01*
X6423Y4711D01*
X6414Y4712D01*
X6414Y4712D01*
X6409Y4715D01*
Y4739D01*
X6408Y4744D01*
X6405Y4748D01*
X6384Y4770D01*
X6383Y4771D01*
X6382Y4772D01*
X6381Y4774D01*
X6380Y4775D01*
Y4779D01*
X6380Y4779D01*
X6380Y4779D01*
Y4800D01*
X6361D01*
X6361Y4800D01*
X6361Y4801D01*
X6361Y4802D01*
Y4815D01*
X6360Y4820D01*
X6357Y4824D01*
X6356Y4825D01*
X6356Y4826D01*
X6356Y4826D01*
X6356Y4826D01*
X6356Y4826D01*
X6356Y4826D01*
X6356Y4827D01*
X6356Y4827D01*
X6357Y4828D01*
X6357Y4829D01*
X6358Y4829D01*
X6360Y4833D01*
X6364Y4841D01*
X6365Y4850D01*
X6364Y4859D01*
X6360Y4867D01*
X6355Y4875D01*
X6347Y4880D01*
X6339Y4884D01*
X6330Y4885D01*
X6321Y4884D01*
X6313Y4880D01*
X6305Y4875D01*
X6300Y4867D01*
X6296Y4859D01*
X6296Y4856D01*
X6296Y4856D01*
X6295Y4852D01*
X6294Y4849D01*
X6293Y4843D01*
X6292Y4841D01*
X6291Y4839D01*
X6290Y4837D01*
X6289Y4835D01*
X6289Y4834D01*
X6280Y4826D01*
X6150D01*
X6141Y4834D01*
X6141Y4835D01*
X6140Y4837D01*
X6139Y4839D01*
X6138Y4841D01*
X6137Y4843D01*
X6135Y4852D01*
X6134Y4856D01*
X6134Y4856D01*
X6134Y4859D01*
X6130Y4867D01*
X6125Y4875D01*
X6117Y4880D01*
X6109Y4884D01*
X6100Y4885D01*
X6091Y4884D01*
X6083Y4880D01*
X6075Y4875D01*
X6075Y4874D01*
X6073Y4872D01*
X6071Y4870D01*
X6068Y4868D01*
X6066Y4867D01*
X6064Y4866D01*
X6063Y4865D01*
X6061Y4864D01*
X6059Y4863D01*
X6058Y4863D01*
X5581D01*
X5566Y4878D01*
X5562Y4881D01*
X5557Y4882D01*
X5330D01*
X5323Y4889D01*
X5323Y4889D01*
X5323Y4890D01*
X5322Y4891D01*
X5322Y4891D01*
X5322Y4892D01*
X5321Y4893D01*
X5321Y4893D01*
X5321Y4894D01*
X5321Y4895D01*
X5320Y4904D01*
X5315Y4911D01*
X5307Y4916D01*
X5298Y4918D01*
D02*
G37*
G36*
X5308Y4824D02*
X5270D01*
Y4771D01*
X5270Y4771D01*
X5270Y4771D01*
Y4764D01*
X5276D01*
X5276Y4764D01*
X5276Y4763D01*
X5276Y4762D01*
Y4725D01*
X5276Y4724D01*
X5276Y4723D01*
X5276Y4723D01*
X5259D01*
Y4673D01*
X5300D01*
Y4701D01*
X5301Y4703D01*
X5302Y4708D01*
Y4762D01*
X5302Y4763D01*
X5303Y4764D01*
X5303Y4764D01*
X5308D01*
Y4771D01*
X5308Y4771D01*
X5308Y4771D01*
Y4824D01*
D02*
G37*
G36*
X5220Y4768D02*
X5211Y4766D01*
X5204Y4761D01*
X5199Y4754D01*
X5197Y4745D01*
X5199Y4736D01*
X5204Y4729D01*
X5205Y4728D01*
X5204Y4723D01*
X5203D01*
Y4673D01*
X5245D01*
Y4723D01*
X5241D01*
X5238Y4728D01*
X5238Y4729D01*
X5238Y4729D01*
X5238Y4730D01*
X5238Y4731D01*
X5239Y4732D01*
X5239Y4733D01*
X5240Y4734D01*
X5240Y4734D01*
X5241Y4736D01*
X5243Y4745D01*
X5241Y4754D01*
X5236Y4761D01*
X5229Y4766D01*
X5220Y4768D01*
D02*
G37*
G36*
X5619Y4707D02*
X5609Y4706D01*
X5600Y4702D01*
X5592Y4696D01*
X5586Y4689D01*
X5583Y4680D01*
X5581Y4670D01*
X5583Y4660D01*
X5586Y4651D01*
X5592Y4644D01*
X5600Y4638D01*
X5609Y4634D01*
X5619Y4633D01*
X5628Y4634D01*
X5637Y4638D01*
X5645Y4644D01*
X5651Y4651D01*
X5655Y4660D01*
X5656Y4670D01*
X5655Y4680D01*
X5651Y4689D01*
X5645Y4696D01*
X5637Y4702D01*
X5628Y4706D01*
X5619Y4707D01*
D02*
G37*
G36*
X6100Y4685D02*
X6091Y4684D01*
X6083Y4680D01*
X6075Y4675D01*
X6070Y4667D01*
X6066Y4659D01*
X6065Y4650D01*
X6066Y4641D01*
X6070Y4633D01*
X6075Y4625D01*
X6083Y4620D01*
X6091Y4616D01*
X6100Y4615D01*
X6109Y4616D01*
X6117Y4620D01*
X6125Y4625D01*
X6130Y4633D01*
X6134Y4641D01*
X6135Y4650D01*
X6134Y4659D01*
X6130Y4667D01*
X6125Y4675D01*
X6117Y4680D01*
X6109Y4684D01*
X6100Y4685D01*
D02*
G37*
G36*
X5902Y4500D02*
X5893Y4498D01*
X5885Y4493D01*
X5880Y4486D01*
X5873Y4479D01*
X5871Y4474D01*
X5870Y4469D01*
Y4381D01*
X5786Y4297D01*
X5782Y4293D01*
X5779Y4292D01*
X5778Y4291D01*
X5777Y4290D01*
X5750D01*
Y4281D01*
X5750Y4281D01*
X5749Y4281D01*
X5748Y4281D01*
X5742D01*
X5741Y4281D01*
X5740Y4281D01*
X5740Y4281D01*
Y4290D01*
X5690D01*
Y4268D01*
X5648D01*
X5648Y4268D01*
X5647Y4268D01*
X5647Y4269D01*
X5646Y4269D01*
X5645Y4269D01*
X5645Y4270D01*
X5644Y4270D01*
X5644Y4270D01*
X5643Y4271D01*
X5636Y4276D01*
X5627Y4278D01*
X5626Y4278D01*
X5625Y4278D01*
X5624Y4278D01*
X5624Y4278D01*
X5623Y4278D01*
X5622Y4279D01*
X5622Y4279D01*
X5621Y4280D01*
X5621Y4280D01*
X5618Y4282D01*
X5614Y4285D01*
X5609Y4286D01*
X5332D01*
X5331Y4286D01*
X5330Y4286D01*
X5330Y4286D01*
Y4292D01*
X5284D01*
Y4243D01*
X5330D01*
Y4259D01*
X5330Y4259D01*
X5331Y4259D01*
X5332Y4259D01*
X5601D01*
X5604Y4255D01*
X5606Y4246D01*
X5611Y4239D01*
X5618Y4234D01*
X5627Y4232D01*
X5636Y4234D01*
X5643Y4239D01*
X5644Y4240D01*
X5644Y4240D01*
X5645Y4240D01*
X5645Y4241D01*
X5646Y4241D01*
X5647Y4241D01*
X5647Y4242D01*
X5648Y4242D01*
X5648Y4242D01*
X5696D01*
X5701Y4243D01*
X5704Y4245D01*
X5705D01*
X5707Y4245D01*
X5740D01*
Y4254D01*
X5740Y4254D01*
X5741Y4254D01*
X5742Y4254D01*
X5748D01*
X5749Y4254D01*
X5750Y4254D01*
X5750Y4254D01*
Y4245D01*
X5800D01*
Y4268D01*
X5800Y4268D01*
X5800Y4268D01*
Y4273D01*
X5800Y4274D01*
X5803Y4277D01*
X5892Y4366D01*
X5895Y4370D01*
X5896Y4375D01*
Y4451D01*
X5900Y4454D01*
X5902Y4454D01*
X5910Y4455D01*
X5918Y4460D01*
X5923Y4468D01*
X5924Y4477D01*
X5923Y4485D01*
X5918Y4493D01*
X5910Y4498D01*
X5902Y4500D01*
D02*
G37*
G36*
X5239Y4667D02*
X5230Y4666D01*
X5223Y4661D01*
X5218Y4653D01*
X5216Y4644D01*
X5218Y4636D01*
X5223Y4628D01*
X5230Y4623D01*
X5232Y4623D01*
X5233Y4623D01*
X5235Y4622D01*
X5235Y4622D01*
X5237Y4620D01*
X5238Y4620D01*
X5239Y4619D01*
X5252Y4606D01*
X5254Y4604D01*
X5255Y4602D01*
X5256Y4601D01*
X5257Y4600D01*
Y4573D01*
X5266D01*
X5266Y4572D01*
X5266Y4571D01*
X5266Y4570D01*
Y4554D01*
X5266Y4553D01*
X5266Y4552D01*
X5266Y4552D01*
X5257D01*
Y4503D01*
X5266D01*
X5266Y4502D01*
X5266Y4501D01*
X5266Y4500D01*
Y4492D01*
X5265D01*
Y4491D01*
X5264Y4491D01*
X5260Y4488D01*
X5259Y4489D01*
X5258Y4489D01*
X5258Y4489D01*
X5257Y4489D01*
X5256Y4490D01*
X5256Y4490D01*
X5255Y4491D01*
X5248Y4496D01*
X5239Y4498D01*
X5230Y4496D01*
X5223Y4491D01*
X5218Y4484D01*
X5216Y4475D01*
X5218Y4466D01*
X5223Y4459D01*
X5230Y4454D01*
X5239Y4452D01*
X5248Y4454D01*
X5255Y4459D01*
X5256Y4460D01*
X5256Y4460D01*
X5257Y4460D01*
X5258Y4461D01*
X5258Y4461D01*
X5259Y4461D01*
X5260Y4462D01*
X5264Y4459D01*
X5265Y4459D01*
Y4443D01*
X5310D01*
Y4492D01*
X5293D01*
X5293Y4492D01*
X5293Y4494D01*
X5293Y4494D01*
Y4500D01*
X5293Y4501D01*
X5293Y4502D01*
X5293Y4503D01*
X5302D01*
Y4552D01*
X5293D01*
X5293Y4552D01*
X5293Y4553D01*
X5293Y4554D01*
Y4570D01*
X5293Y4571D01*
X5293Y4572D01*
X5293Y4573D01*
X5302D01*
Y4584D01*
X5302Y4584D01*
X5304Y4584D01*
X5304Y4584D01*
X5321D01*
X5323Y4580D01*
X5321Y4577D01*
X5320Y4568D01*
X5321Y4559D01*
X5326Y4552D01*
X5334Y4547D01*
X5343Y4545D01*
X5351Y4547D01*
X5353Y4548D01*
X5358Y4545D01*
Y4545D01*
X5358Y4545D01*
X5358Y4545D01*
Y4545D01*
X5358Y4545D01*
X5358Y4545D01*
Y4510D01*
X5358Y4510D01*
X5358Y4510D01*
Y4503D01*
X5358D01*
X5358Y4501D01*
Y4492D01*
X5320D01*
Y4443D01*
X5329D01*
X5329Y4443D01*
X5329Y4441D01*
X5329Y4440D01*
Y4433D01*
X5329Y4432D01*
X5329Y4431D01*
X5329Y4431D01*
X5322D01*
X5319Y4432D01*
X5314Y4433D01*
X5268D01*
X5268Y4433D01*
X5267Y4433D01*
X5267Y4434D01*
X5266Y4434D01*
X5265Y4434D01*
X5265Y4435D01*
X5264Y4435D01*
X5264Y4435D01*
X5263Y4436D01*
X5256Y4441D01*
X5247Y4443D01*
X5238Y4441D01*
X5231Y4436D01*
X5226Y4429D01*
X5224Y4420D01*
X5226Y4411D01*
X5231Y4404D01*
X5238Y4399D01*
X5247Y4397D01*
X5256Y4399D01*
X5263Y4404D01*
X5264Y4405D01*
X5264Y4405D01*
X5265Y4405D01*
X5265Y4406D01*
X5266Y4406D01*
X5267Y4406D01*
X5267Y4407D01*
X5268Y4407D01*
X5268Y4407D01*
X5290D01*
X5290Y4407D01*
X5292Y4406D01*
X5292Y4406D01*
Y4389D01*
X5357D01*
X5358Y4385D01*
Y4360D01*
X5357Y4356D01*
X5292D01*
Y4314D01*
X5357D01*
Y4322D01*
X5359D01*
X5364Y4323D01*
X5369Y4326D01*
X5381Y4338D01*
X5381Y4338D01*
X5386Y4337D01*
Y4314D01*
X5452D01*
Y4321D01*
X5452Y4321D01*
X5453Y4322D01*
X5454Y4322D01*
X5502D01*
X5503Y4322D01*
X5504Y4321D01*
X5505Y4321D01*
Y4305D01*
X5550D01*
Y4355D01*
X5548D01*
X5546Y4359D01*
X5569Y4382D01*
X5572Y4387D01*
X5573Y4392D01*
Y4410D01*
X5572Y4415D01*
X5569Y4419D01*
X5542Y4447D01*
X5538Y4449D01*
X5533Y4450D01*
X5524D01*
X5522Y4450D01*
X5484D01*
X5477Y4456D01*
X5473Y4461D01*
X5472Y4463D01*
X5470Y4465D01*
X5470Y4465D01*
Y4492D01*
X5461D01*
X5461Y4492D01*
X5461Y4494D01*
X5461Y4494D01*
Y4513D01*
X5460Y4519D01*
X5458Y4521D01*
Y4552D01*
X5433D01*
X5432Y4553D01*
X5428Y4556D01*
X5377Y4607D01*
X5373Y4610D01*
X5368Y4611D01*
X5304D01*
X5304Y4611D01*
X5302Y4611D01*
X5302Y4611D01*
Y4622D01*
X5274D01*
X5273Y4623D01*
X5270Y4626D01*
X5261Y4634D01*
X5261Y4634D01*
X5261Y4635D01*
X5261Y4635D01*
X5260Y4636D01*
X5260Y4636D01*
X5260Y4636D01*
X5262Y4644D01*
X5260Y4653D01*
X5255Y4661D01*
X5248Y4666D01*
X5239Y4667D01*
D02*
G37*
G36*
X6100Y4485D02*
X6091Y4484D01*
X6083Y4480D01*
X6075Y4475D01*
X6070Y4467D01*
X6066Y4459D01*
X6065Y4450D01*
X6066Y4441D01*
X6070Y4433D01*
X6075Y4425D01*
X6083Y4420D01*
X6091Y4416D01*
X6100Y4415D01*
X6109Y4416D01*
X6117Y4420D01*
X6125Y4425D01*
X6130Y4433D01*
X6134Y4441D01*
X6135Y4450D01*
X6134Y4459D01*
X6130Y4467D01*
X6125Y4475D01*
X6117Y4480D01*
X6109Y4484D01*
X6100Y4485D01*
D02*
G37*
G36*
X5627Y4437D02*
X5617Y4436D01*
X5608Y4432D01*
X5601Y4426D01*
X5595Y4419D01*
X5591Y4410D01*
X5590Y4400D01*
X5591Y4391D01*
X5595Y4382D01*
X5601Y4374D01*
X5608Y4368D01*
X5617Y4365D01*
X5627Y4363D01*
X5632Y4359D01*
Y4352D01*
X5632Y4352D01*
X5632Y4351D01*
X5631Y4350D01*
X5631Y4349D01*
X5631Y4348D01*
X5630Y4348D01*
X5630Y4347D01*
X5630Y4347D01*
X5629Y4346D01*
X5628Y4345D01*
X5628Y4345D01*
X5627Y4345D01*
X5627Y4344D01*
X5626Y4344D01*
X5625Y4344D01*
X5624Y4343D01*
X5623Y4343D01*
X5623Y4343D01*
X5608D01*
X5607Y4343D01*
X5606Y4344D01*
X5605Y4344D01*
Y4355D01*
X5560D01*
Y4305D01*
X5605D01*
Y4316D01*
X5606Y4316D01*
X5607Y4317D01*
X5608Y4317D01*
X5623D01*
X5623Y4317D01*
X5624Y4317D01*
X5625Y4316D01*
X5626Y4316D01*
X5627Y4316D01*
X5627Y4315D01*
X5628Y4315D01*
X5628Y4315D01*
X5629Y4314D01*
X5636Y4309D01*
X5645Y4307D01*
X5654Y4309D01*
X5661Y4314D01*
X5666Y4321D01*
X5668Y4330D01*
X5666Y4339D01*
X5661Y4346D01*
X5660Y4347D01*
X5660Y4347D01*
X5660Y4348D01*
X5659Y4348D01*
X5659Y4349D01*
X5659Y4350D01*
X5658Y4351D01*
X5658Y4352D01*
X5658Y4352D01*
Y4370D01*
X5657Y4375D01*
X5655Y4377D01*
X5659Y4382D01*
X5662Y4391D01*
X5664Y4400D01*
X5662Y4410D01*
X5659Y4419D01*
X5653Y4426D01*
X5645Y4432D01*
X5636Y4436D01*
X5627Y4437D01*
D02*
G37*
G36*
X5170Y4593D02*
X5161Y4591D01*
X5154Y4586D01*
X5149Y4579D01*
X5148Y4573D01*
X5148Y4573D01*
X5148Y4573D01*
X4962D01*
X4957Y4572D01*
X4952Y4569D01*
X4946Y4563D01*
X4943Y4561D01*
X4935Y4553D01*
X4932Y4549D01*
X4931Y4544D01*
Y4496D01*
X4932Y4491D01*
X4935Y4487D01*
X4946Y4476D01*
X4948Y4474D01*
X4949Y4472D01*
X4950Y4471D01*
Y4445D01*
X4961D01*
X4961Y4444D01*
X4962Y4443D01*
X4962Y4442D01*
Y4430D01*
X4950Y4419D01*
X4949Y4418D01*
X4948Y4417D01*
X4946Y4417D01*
X4944Y4416D01*
X4942Y4416D01*
X4940Y4415D01*
X4934Y4415D01*
X4931Y4415D01*
X4930Y4415D01*
X4921Y4414D01*
X4913Y4410D01*
X4905Y4405D01*
X4900Y4397D01*
X4896Y4389D01*
X4895Y4380D01*
X4895Y4379D01*
X4895Y4376D01*
X4895Y4373D01*
X4895Y4371D01*
X4894Y4368D01*
X4894Y4366D01*
X4893Y4364D01*
X4893Y4362D01*
X4892Y4361D01*
X4891Y4360D01*
X4875Y4343D01*
X4869Y4344D01*
X4865Y4350D01*
X4857Y4355D01*
X4849Y4359D01*
X4840Y4360D01*
X4831Y4359D01*
X4823Y4355D01*
X4815Y4350D01*
X4810Y4342D01*
X4806Y4334D01*
X4805Y4325D01*
X4806Y4316D01*
X4810Y4308D01*
X4815Y4300D01*
X4823Y4295D01*
X4831Y4291D01*
X4840Y4290D01*
X4849Y4291D01*
X4857Y4295D01*
X4865Y4300D01*
X4870Y4308D01*
X4872Y4312D01*
X4872Y4313D01*
X4873Y4313D01*
X4873Y4313D01*
X4873Y4313D01*
X4873Y4314D01*
X4873Y4314D01*
X4874Y4314D01*
X4874Y4314D01*
X4875Y4314D01*
X4876Y4314D01*
X4878D01*
X4883Y4315D01*
X4887Y4318D01*
X4910Y4341D01*
X4911Y4342D01*
X4912Y4343D01*
X4914Y4343D01*
X4916Y4344D01*
X4918Y4344D01*
X4920Y4345D01*
X4926Y4345D01*
X4929Y4345D01*
X4930Y4345D01*
X4939Y4346D01*
X4947Y4350D01*
X4955Y4355D01*
X4960Y4363D01*
X4964Y4371D01*
X4965Y4380D01*
X4965Y4381D01*
X4965Y4384D01*
X4965Y4387D01*
X4965Y4389D01*
X4966Y4392D01*
X4966Y4394D01*
X4967Y4396D01*
X4967Y4398D01*
X4968Y4399D01*
X4969Y4400D01*
X4984Y4416D01*
X4987Y4420D01*
X4988Y4425D01*
X4988Y4425D01*
Y4442D01*
X4988Y4443D01*
X4989Y4444D01*
X4989Y4445D01*
X5000D01*
Y4490D01*
X4970D01*
X4969Y4491D01*
X4965Y4494D01*
X4964Y4495D01*
X4966Y4500D01*
X5000D01*
Y4509D01*
X5000Y4509D01*
X5001Y4509D01*
X5002Y4509D01*
X5008D01*
X5009Y4509D01*
X5010Y4509D01*
X5010Y4509D01*
Y4500D01*
X5037D01*
X5038Y4500D01*
X5039Y4498D01*
X5046Y4493D01*
X5057Y4482D01*
X5058Y4481D01*
X5059Y4479D01*
X5060Y4478D01*
X5060Y4476D01*
X5061Y4475D01*
X5061Y4473D01*
X5062Y4472D01*
X5062Y4470D01*
Y4433D01*
X5024Y4395D01*
X5021Y4391D01*
X4993D01*
Y4378D01*
X4992Y4377D01*
X4991Y4376D01*
X4989Y4372D01*
X4870Y4253D01*
X4869Y4253D01*
X4868Y4252D01*
X4867Y4252D01*
X4866Y4252D01*
X4865Y4252D01*
X4863Y4252D01*
X4862Y4253D01*
X4860Y4253D01*
X4858Y4254D01*
X4857Y4255D01*
X4849Y4259D01*
X4840Y4260D01*
X4831Y4259D01*
X4823Y4255D01*
X4815Y4250D01*
X4810Y4242D01*
X4806Y4234D01*
X4805Y4225D01*
X4806Y4216D01*
X4810Y4208D01*
X4815Y4200D01*
X4823Y4195D01*
X4831Y4191D01*
X4840Y4190D01*
X4849Y4191D01*
X4857Y4195D01*
X4865Y4200D01*
X4870Y4208D01*
X4871Y4209D01*
X4871Y4209D01*
X4873Y4212D01*
X4876Y4219D01*
X4881Y4226D01*
X4883Y4229D01*
X4886Y4232D01*
X5003Y4349D01*
X5005Y4352D01*
X5007Y4353D01*
X5008Y4354D01*
X5046D01*
Y4377D01*
X5046Y4378D01*
Y4381D01*
X5071Y4405D01*
X5076Y4403D01*
Y4355D01*
X5077Y4350D01*
X5080Y4346D01*
X5091Y4334D01*
X5092Y4333D01*
X5094Y4331D01*
X5095Y4330D01*
X5095Y4329D01*
Y4316D01*
X5141D01*
X5141Y4316D01*
X5141Y4316D01*
X5148D01*
Y4321D01*
X5149Y4321D01*
X5150Y4322D01*
X5151Y4322D01*
X5225D01*
X5230Y4323D01*
X5234Y4326D01*
X5239Y4330D01*
X5239Y4330D01*
X5240Y4331D01*
X5241Y4331D01*
X5241Y4332D01*
X5242Y4332D01*
X5243Y4332D01*
X5243Y4332D01*
X5244Y4332D01*
X5245Y4332D01*
X5254Y4334D01*
X5261Y4339D01*
X5266Y4346D01*
X5268Y4355D01*
X5266Y4364D01*
X5261Y4371D01*
X5254Y4376D01*
X5245Y4378D01*
X5236Y4376D01*
X5229Y4371D01*
X5224Y4364D01*
X5222Y4355D01*
X5222Y4354D01*
X5222Y4353D01*
X5222Y4353D01*
X5222Y4352D01*
X5222Y4351D01*
X5221Y4351D01*
X5221Y4350D01*
X5220Y4349D01*
X5220Y4349D01*
X5219Y4348D01*
X5151D01*
X5150Y4348D01*
X5149Y4348D01*
X5148Y4348D01*
Y4375D01*
X5148Y4375D01*
X5148Y4375D01*
Y4380D01*
X5148Y4380D01*
X5152Y4384D01*
X5194Y4426D01*
X5197Y4431D01*
X5198Y4436D01*
Y4555D01*
X5197Y4560D01*
X5194Y4564D01*
X5192Y4567D01*
X5193Y4570D01*
X5191Y4579D01*
X5186Y4586D01*
X5179Y4591D01*
X5170Y4593D01*
D02*
G37*
G36*
X5039Y4316D02*
X5039Y4316D01*
X4993D01*
Y4279D01*
X5039D01*
X5039Y4279D01*
X5039Y4279D01*
X5046D01*
Y4284D01*
X5046Y4284D01*
X5047Y4284D01*
X5048Y4284D01*
X5054D01*
X5080Y4258D01*
X5084Y4255D01*
X5089Y4254D01*
X5227D01*
X5228Y4254D01*
X5229Y4254D01*
X5229Y4254D01*
Y4243D01*
X5274D01*
Y4292D01*
X5229D01*
Y4281D01*
X5229Y4281D01*
X5228Y4281D01*
X5227Y4281D01*
X5095D01*
X5068Y4307D01*
X5064Y4310D01*
X5059Y4311D01*
X5048D01*
X5047Y4311D01*
X5046Y4311D01*
X5046Y4311D01*
Y4316D01*
X5039D01*
X5039Y4316D01*
D02*
G37*
G36*
X5041Y4242D02*
X5007D01*
Y4228D01*
X5006Y4226D01*
X5003Y4223D01*
X5001Y4221D01*
X4996Y4221D01*
X4995Y4223D01*
X4987Y4228D01*
X4979Y4232D01*
X4970Y4233D01*
X4961Y4232D01*
X4953Y4228D01*
X4945Y4223D01*
X4940Y4216D01*
X4936Y4207D01*
X4935Y4198D01*
X4936Y4189D01*
X4940Y4181D01*
X4945Y4174D01*
X4953Y4168D01*
X4961Y4165D01*
X4970Y4163D01*
X4979Y4165D01*
X4987Y4168D01*
X4995Y4174D01*
X5000Y4181D01*
X5004Y4189D01*
X5004Y4191D01*
X5008Y4192D01*
X5012Y4195D01*
X5021Y4204D01*
X5023Y4206D01*
X5025Y4207D01*
X5026Y4208D01*
X5041D01*
Y4242D01*
D02*
G37*
G36*
X5315Y4236D02*
X5306Y4234D01*
X5299Y4229D01*
X5294Y4222D01*
X5292Y4213D01*
X5292Y4212D01*
X5292Y4211D01*
X5292Y4211D01*
X5292Y4210D01*
X5292Y4209D01*
X5291Y4209D01*
X5291Y4208D01*
X5290Y4207D01*
X5290Y4207D01*
X5231Y4148D01*
X4878D01*
X4875Y4149D01*
X4873Y4149D01*
X4858Y4155D01*
X4854Y4157D01*
X4854Y4157D01*
X4854Y4157D01*
X4853Y4157D01*
X4849Y4159D01*
X4840Y4160D01*
X4831Y4159D01*
X4823Y4155D01*
X4815Y4150D01*
X4810Y4142D01*
X4806Y4134D01*
X4805Y4125D01*
X4806Y4116D01*
X4810Y4108D01*
X4815Y4100D01*
X4823Y4095D01*
X4831Y4091D01*
X4840Y4090D01*
X4849Y4091D01*
X4857Y4095D01*
X4865Y4100D01*
X4870Y4108D01*
X4871Y4111D01*
X4872Y4111D01*
X4873Y4114D01*
X4874Y4116D01*
X4875Y4117D01*
X4876Y4119D01*
X4878Y4120D01*
X4879Y4121D01*
X4880Y4121D01*
X4881Y4122D01*
X4882Y4122D01*
X5237D01*
X5242Y4123D01*
X5246Y4126D01*
X5309Y4188D01*
X5309Y4188D01*
X5310Y4189D01*
X5311Y4189D01*
X5311Y4190D01*
X5312Y4190D01*
X5313Y4190D01*
X5313Y4190D01*
X5314Y4190D01*
X5315Y4190D01*
X5324Y4192D01*
X5331Y4197D01*
X5336Y4204D01*
X5338Y4213D01*
X5336Y4222D01*
X5331Y4229D01*
X5324Y4234D01*
X5315Y4236D01*
D02*
G37*
G36*
X5883Y4097D02*
X5873Y4096D01*
X5864Y4092D01*
X5857Y4086D01*
X5851Y4078D01*
X5847Y4070D01*
X5846Y4060D01*
X5847Y4050D01*
X5851Y4042D01*
X5857Y4034D01*
X5864Y4028D01*
X5873Y4024D01*
X5874Y4024D01*
X5875Y4024D01*
X5875Y4024D01*
X5876Y4024D01*
X5876Y4023D01*
X5877Y4022D01*
X5877Y4021D01*
X5878Y4020D01*
X5878Y4018D01*
X5878Y4017D01*
Y3913D01*
X5873Y3912D01*
X5870Y3919D01*
X5863Y3929D01*
X5853Y3936D01*
X5842Y3941D01*
X5831Y3942D01*
X5819Y3941D01*
X5808Y3936D01*
X5798Y3929D01*
X5791Y3919D01*
X5786Y3908D01*
X5785Y3896D01*
X5786Y3884D01*
X5791Y3873D01*
X5798Y3864D01*
X5808Y3857D01*
X5819Y3852D01*
X5831Y3851D01*
X5842Y3852D01*
X5853Y3857D01*
X5863Y3864D01*
X5870Y3873D01*
X5873Y3880D01*
X5878Y3879D01*
Y3838D01*
X5875Y3835D01*
X5833D01*
X5825Y3833D01*
X5819Y3829D01*
X5726Y3736D01*
X5722Y3730D01*
X5720Y3722D01*
Y3623D01*
X5720Y3620D01*
X5719Y3618D01*
X5717Y3615D01*
X5716Y3614D01*
X5714Y3612D01*
X5712Y3611D01*
X5710Y3610D01*
X5707Y3610D01*
X5419D01*
X5335Y3694D01*
X5332Y3697D01*
X5330Y3700D01*
X5328Y3704D01*
X5326Y3708D01*
X5325Y3711D01*
X5324Y3715D01*
X5323Y3719D01*
X5323Y3723D01*
Y4011D01*
X5323Y4014D01*
X5323Y4017D01*
X5324Y4019D01*
X5325Y4021D01*
X5326Y4022D01*
X5326Y4023D01*
X5327Y4023D01*
X5327Y4023D01*
X5328Y4023D01*
X5339D01*
Y4097D01*
X5266D01*
Y4023D01*
X5277D01*
X5279Y4023D01*
X5279Y4023D01*
X5280Y4023D01*
X5280Y4022D01*
X5281Y4021D01*
X5282Y4019D01*
X5282Y4017D01*
X5283Y4014D01*
X5283Y4011D01*
Y3731D01*
X5282Y3728D01*
X5282Y3725D01*
X5280Y3723D01*
X5279Y3722D01*
X5277Y3720D01*
X5275Y3719D01*
X5273Y3718D01*
X5269Y3718D01*
X5206D01*
X5204Y3718D01*
X5201Y3719D01*
X5199Y3719D01*
X5196Y3720D01*
X5193Y3722D01*
X5191Y3723D01*
X5188Y3725D01*
X5186Y3727D01*
X5184Y3729D01*
X5183Y3730D01*
X5173Y3738D01*
X5162Y3742D01*
X5151Y3744D01*
X5139Y3742D01*
X5128Y3738D01*
X5118Y3730D01*
X5111Y3721D01*
X5106Y3710D01*
X5105Y3698D01*
X5106Y3686D01*
X5111Y3675D01*
X5118Y3665D01*
X5128Y3658D01*
X5139Y3654D01*
X5151Y3652D01*
X5162Y3654D01*
X5173Y3658D01*
X5183Y3665D01*
X5184Y3667D01*
X5186Y3668D01*
X5188Y3671D01*
X5191Y3672D01*
X5193Y3674D01*
X5196Y3675D01*
X5199Y3676D01*
X5201Y3677D01*
X5204Y3678D01*
X5206Y3678D01*
X5278D01*
X5281Y3678D01*
X5285Y3677D01*
X5289Y3676D01*
X5293Y3674D01*
X5297Y3673D01*
X5300Y3671D01*
X5304Y3668D01*
X5307Y3666D01*
X5397Y3576D01*
X5403Y3572D01*
X5411Y3570D01*
X5715D01*
X5718Y3570D01*
X5722Y3569D01*
X5726Y3568D01*
X5730Y3566D01*
X5734Y3565D01*
X5737Y3563D01*
X5741Y3560D01*
X5744Y3558D01*
X5777Y3525D01*
X5778Y3523D01*
X5780Y3521D01*
X5781Y3518D01*
X5782Y3516D01*
X5783Y3513D01*
X5784Y3510D01*
X5785Y3507D01*
X5785Y3503D01*
X5785Y3501D01*
X5785Y3499D01*
X5786Y3488D01*
X5791Y3477D01*
X5798Y3467D01*
X5808Y3460D01*
X5809Y3459D01*
X5809Y3458D01*
X5809Y3454D01*
X5806Y3452D01*
X5773Y3419D01*
X5772Y3418D01*
X5771Y3418D01*
X5771Y3418D01*
X5770Y3418D01*
X5770Y3418D01*
X5770Y3418D01*
X5769Y3418D01*
X5768Y3419D01*
X5733Y3454D01*
X5728Y3457D01*
X5723Y3458D01*
X5370Y3458D01*
X5365Y3462D01*
Y3470D01*
X5315D01*
Y3459D01*
X5315Y3459D01*
X5314Y3458D01*
X5313Y3458D01*
X5180D01*
X5178Y3463D01*
X5183Y3467D01*
X5190Y3477D01*
X5195Y3488D01*
X5196Y3499D01*
X5195Y3511D01*
X5190Y3522D01*
X5183Y3532D01*
X5173Y3539D01*
X5162Y3544D01*
X5151Y3545D01*
X5150Y3545D01*
X5149Y3545D01*
X5146Y3546D01*
X5142Y3546D01*
X5139Y3547D01*
X5137Y3548D01*
X5134Y3549D01*
X5131Y3551D01*
X5129Y3552D01*
X5127Y3554D01*
X5088Y3593D01*
Y3737D01*
X5136Y3785D01*
X5188D01*
X5195Y3787D01*
X5202Y3791D01*
X5242Y3831D01*
X5246Y3837D01*
X5248Y3845D01*
Y4035D01*
X5246Y4043D01*
X5242Y4049D01*
X5239Y4051D01*
X5240Y4060D01*
X5238Y4070D01*
X5235Y4078D01*
X5229Y4086D01*
X5221Y4092D01*
X5212Y4096D01*
X5203Y4097D01*
X5193Y4096D01*
X5184Y4092D01*
X5177Y4086D01*
X5171Y4078D01*
X5167Y4070D01*
X5166Y4060D01*
X5167Y4050D01*
X5171Y4042D01*
X5177Y4034D01*
X5184Y4028D01*
X5193Y4024D01*
X5203Y4023D01*
X5204Y4023D01*
X5208Y4020D01*
Y3853D01*
X5180Y3825D01*
X5128D01*
X5120Y3823D01*
X5114Y3819D01*
X5054Y3759D01*
X5049Y3753D01*
X5048Y3745D01*
Y3585D01*
X5049Y3577D01*
X5054Y3571D01*
X5098Y3527D01*
X5099Y3525D01*
X5101Y3523D01*
X5102Y3520D01*
X5103Y3518D01*
X5104Y3515D01*
X5105Y3512D01*
X5105Y3509D01*
X5105Y3506D01*
X5105Y3502D01*
X5105Y3502D01*
X5105Y3499D01*
X5106Y3488D01*
X5111Y3477D01*
X5118Y3467D01*
X5125Y3462D01*
X5125Y3456D01*
X5123Y3454D01*
X5098Y3429D01*
X5095Y3425D01*
X5094Y3420D01*
Y3338D01*
X5094Y3337D01*
X5094Y3336D01*
X5094Y3335D01*
X5089D01*
Y3328D01*
X5089Y3328D01*
X5089Y3328D01*
Y3276D01*
X5126D01*
Y3328D01*
X5126Y3328D01*
X5126Y3328D01*
Y3335D01*
X5121D01*
X5121Y3336D01*
X5121Y3337D01*
X5121Y3338D01*
Y3410D01*
X5121Y3410D01*
X5126Y3408D01*
Y3365D01*
X5164D01*
Y3376D01*
X5169Y3378D01*
X5212Y3335D01*
Y3073D01*
X5212Y3072D01*
X5211Y3071D01*
X5211Y3070D01*
X5200D01*
Y3016D01*
X5200Y3016D01*
X5200Y3016D01*
Y3005D01*
X5198Y3003D01*
X5193Y3006D01*
Y3122D01*
X5193Y3123D01*
X5194Y3124D01*
X5194Y3125D01*
X5205D01*
Y3170D01*
X5177D01*
X5177Y3170D01*
X5175Y3171D01*
X5172Y3174D01*
X5171Y3175D01*
X5173Y3180D01*
X5205D01*
Y3225D01*
X5194D01*
X5194Y3226D01*
X5193Y3227D01*
X5193Y3228D01*
Y3274D01*
X5193Y3275D01*
X5194Y3276D01*
X5194Y3276D01*
X5201D01*
Y3335D01*
X5164D01*
Y3283D01*
X5164Y3283D01*
X5164Y3283D01*
Y3276D01*
X5167D01*
X5167Y3274D01*
Y3228D01*
X5167Y3227D01*
X5166Y3226D01*
X5166Y3225D01*
X5155D01*
Y3197D01*
X5151Y3196D01*
X5134Y3212D01*
X5130Y3215D01*
X5130Y3215D01*
Y3225D01*
X5102D01*
X5102Y3225D01*
X5100Y3226D01*
X5097Y3229D01*
X5083Y3243D01*
Y3365D01*
X5082Y3370D01*
X5079Y3374D01*
X5050Y3404D01*
X5046Y3407D01*
X5041Y3408D01*
X5016D01*
X5015Y3408D01*
X5014Y3408D01*
X5014Y3408D01*
Y3424D01*
X4976D01*
Y3365D01*
X5014D01*
Y3381D01*
X5014Y3381D01*
X5015Y3381D01*
X5016Y3381D01*
X5035D01*
X5057Y3360D01*
Y3238D01*
X5058Y3232D01*
X5061Y3228D01*
X5076Y3213D01*
X5078Y3211D01*
X5080Y3209D01*
X5080Y3208D01*
Y3180D01*
X5129D01*
X5151Y3158D01*
X5153Y3155D01*
X5155Y3154D01*
X5155Y3153D01*
Y3125D01*
X5166D01*
X5166Y3124D01*
X5167Y3123D01*
X5167Y3122D01*
Y3005D01*
X5160Y2999D01*
X5155Y3001D01*
Y3070D01*
X5113D01*
X5113Y3071D01*
X5112Y3072D01*
X5112Y3073D01*
Y3122D01*
X5112Y3123D01*
X5113Y3124D01*
X5113Y3125D01*
X5130D01*
Y3170D01*
X5080D01*
Y3161D01*
X5080Y3161D01*
X5079Y3161D01*
X5078Y3161D01*
X5057D01*
X5056Y3161D01*
X5055Y3161D01*
X5055Y3161D01*
Y3170D01*
X5005D01*
Y3125D01*
X5055D01*
Y3134D01*
X5055Y3134D01*
X5056Y3134D01*
X5057Y3134D01*
X5076D01*
X5080Y3132D01*
X5080Y3132D01*
Y3125D01*
X5086D01*
X5086Y3124D01*
X5086Y3123D01*
X5086Y3123D01*
Y3073D01*
X5086Y3072D01*
X5086Y3071D01*
X5086Y3070D01*
X5043D01*
Y3016D01*
X5043Y3016D01*
X5043Y3016D01*
Y3004D01*
X5041Y3001D01*
X5034Y2993D01*
X5003Y2962D01*
X4973Y2991D01*
X4968Y2997D01*
X4965Y3001D01*
X4963Y3004D01*
Y3070D01*
X4891D01*
X4891Y3070D01*
X4889Y3071D01*
X4888Y3071D01*
X4887Y3071D01*
X4886Y3071D01*
X4885Y3072D01*
X4884Y3073D01*
X4882Y3073D01*
X4881Y3074D01*
X4880Y3075D01*
X4830Y3126D01*
Y3170D01*
X4780D01*
Y3125D01*
X4794D01*
X4796Y3122D01*
X4850Y3067D01*
Y3063D01*
X4850Y3063D01*
X4850Y3063D01*
Y3063D01*
X4850Y3063D01*
X4850Y3063D01*
Y2990D01*
X4914D01*
X4917Y2988D01*
X4920Y2987D01*
X4923Y2984D01*
X4930Y2979D01*
X4967Y2941D01*
X4968Y2940D01*
X4970Y2938D01*
X4970Y2936D01*
X4971Y2935D01*
X4971Y2934D01*
X4971Y2932D01*
X4970Y2931D01*
X4970Y2930D01*
X4968Y2928D01*
X4968Y2928D01*
X4963Y2922D01*
X4959Y2911D01*
X4957Y2899D01*
X4959Y2887D01*
X4963Y2876D01*
X4970Y2866D01*
X4980Y2859D01*
X4991Y2854D01*
X5003Y2853D01*
X5005Y2853D01*
X5007Y2853D01*
X5010Y2853D01*
X5013Y2852D01*
X5016Y2852D01*
X5019Y2851D01*
X5022Y2849D01*
X5024Y2848D01*
X5026Y2847D01*
X5028Y2845D01*
X5196Y2677D01*
X5198Y2675D01*
X5200Y2672D01*
X5201Y2671D01*
X5202Y2670D01*
X5202Y2669D01*
X5203Y2668D01*
X5203Y2668D01*
X5205Y2663D01*
X5210Y2655D01*
X5218Y2650D01*
X5226Y2646D01*
X5235Y2645D01*
X5244Y2646D01*
X5252Y2650D01*
X5260Y2655D01*
X5265Y2663D01*
X5269Y2671D01*
X5270Y2680D01*
X5269Y2689D01*
X5265Y2697D01*
X5260Y2705D01*
X5252Y2710D01*
X5244Y2714D01*
X5235Y2715D01*
X5226Y2714D01*
X5223Y2713D01*
X5223Y2713D01*
X5222Y2712D01*
X5221Y2712D01*
X5221Y2712D01*
X5220Y2712D01*
X5219Y2713D01*
X5218Y2713D01*
X5216Y2714D01*
X5215Y2715D01*
X5214Y2715D01*
X5189Y2741D01*
X5192Y2745D01*
X5197Y2744D01*
X5258D01*
X5298Y2703D01*
X5299Y2702D01*
X5300Y2701D01*
X5300Y2699D01*
X5301Y2697D01*
X5301Y2695D01*
X5301Y2693D01*
X5301Y2691D01*
X5301Y2688D01*
X5301Y2685D01*
X5301Y2684D01*
X5300Y2680D01*
X5301Y2671D01*
X5305Y2663D01*
X5310Y2655D01*
X5318Y2650D01*
X5326Y2646D01*
X5335Y2645D01*
X5344Y2646D01*
X5352Y2650D01*
X5360Y2655D01*
X5365Y2663D01*
X5369Y2671D01*
X5370Y2680D01*
X5369Y2689D01*
X5365Y2697D01*
X5360Y2705D01*
X5352Y2710D01*
X5344Y2714D01*
X5340Y2714D01*
X5339Y2714D01*
X5336Y2715D01*
X5329Y2716D01*
X5327Y2717D01*
X5324Y2718D01*
X5322Y2718D01*
X5320Y2719D01*
X5319Y2720D01*
X5318Y2721D01*
X5272Y2766D01*
X5268Y2769D01*
X5263Y2770D01*
X5202D01*
X5124Y2849D01*
X5126Y2853D01*
X5196D01*
Y2937D01*
X5196Y2937D01*
X5196Y2937D01*
Y2941D01*
X5199Y2944D01*
X5234Y2979D01*
X5236Y2981D01*
X5240Y2984D01*
X5244Y2987D01*
X5247Y2988D01*
X5249Y2989D01*
X5250Y2990D01*
X5259D01*
X5259Y2990D01*
X5259Y2990D01*
X5313D01*
Y3070D01*
X5239D01*
X5239Y3071D01*
X5238Y3072D01*
X5238Y3073D01*
Y3340D01*
X5237Y3345D01*
X5234Y3350D01*
X5180Y3404D01*
X5176Y3407D01*
X5171Y3408D01*
X5166D01*
X5165Y3408D01*
X5164Y3408D01*
X5164Y3408D01*
Y3424D01*
X5137D01*
X5135Y3428D01*
X5138Y3432D01*
X5313D01*
X5314Y3432D01*
X5315Y3431D01*
X5315Y3431D01*
Y3425D01*
X5365D01*
Y3431D01*
X5365Y3431D01*
X5366Y3432D01*
X5367Y3432D01*
X5718Y3432D01*
X5752Y3397D01*
X5753Y3396D01*
X5754Y3395D01*
X5755Y3393D01*
X5756Y3392D01*
X5756Y3390D01*
X5757Y3389D01*
X5757Y3387D01*
X5757Y3386D01*
Y3337D01*
X5758Y3332D01*
X5761Y3328D01*
X5770Y3319D01*
X5772Y3317D01*
X5773Y3315D01*
X5774Y3314D01*
X5774Y3314D01*
Y3276D01*
X5782D01*
X5782Y3276D01*
X5782Y3275D01*
X5782Y3274D01*
Y3228D01*
X5782Y3227D01*
X5782Y3226D01*
X5782Y3225D01*
X5771D01*
Y3180D01*
X5820D01*
Y3225D01*
X5809D01*
X5809Y3226D01*
X5809Y3227D01*
X5809Y3228D01*
Y3275D01*
X5809Y3275D01*
X5809Y3276D01*
X5812D01*
Y3283D01*
X5812Y3283D01*
X5812Y3283D01*
Y3335D01*
X5792D01*
X5791Y3336D01*
X5788Y3339D01*
X5784Y3343D01*
Y3386D01*
X5784Y3387D01*
X5784Y3389D01*
X5785Y3390D01*
X5785Y3392D01*
X5786Y3393D01*
X5787Y3395D01*
X5788Y3396D01*
X5788Y3397D01*
X5807Y3416D01*
X5812Y3414D01*
Y3365D01*
X5849D01*
Y3381D01*
X5850Y3381D01*
X5851Y3381D01*
X5852Y3381D01*
X5856D01*
X5902Y3336D01*
Y3073D01*
X5902Y3072D01*
X5901Y3071D01*
X5901Y3070D01*
X5880D01*
Y3016D01*
X5880Y3016D01*
X5880Y3016D01*
Y3004D01*
X5879Y3001D01*
X5871Y2993D01*
X5834Y2955D01*
X5832Y2954D01*
X5829Y2951D01*
X5826Y2949D01*
X5823Y2948D01*
X5820Y2946D01*
X5817Y2945D01*
X5814Y2945D01*
X5811Y2944D01*
X5810Y2944D01*
X5785D01*
Y2853D01*
X5876D01*
Y2937D01*
X5876Y2937D01*
X5876Y2937D01*
Y2941D01*
X5879Y2944D01*
X5914Y2979D01*
X5916Y2981D01*
X5920Y2984D01*
X5924Y2987D01*
X5927Y2988D01*
X5929Y2989D01*
X5930Y2990D01*
X5939D01*
X5939Y2990D01*
X5939Y2990D01*
X5993D01*
Y3070D01*
X5929D01*
X5929Y3071D01*
X5928Y3072D01*
X5928Y3073D01*
Y3341D01*
X5927Y3346D01*
X5924Y3350D01*
X5871Y3404D01*
X5867Y3407D01*
X5862Y3408D01*
X5852D01*
X5851Y3408D01*
X5850Y3408D01*
X5849Y3408D01*
Y3424D01*
X5828D01*
X5825Y3429D01*
X5825Y3429D01*
X6003D01*
X6004Y3429D01*
X6005Y3429D01*
X6005Y3429D01*
Y3420D01*
X6055D01*
Y3429D01*
X6055Y3429D01*
X6056Y3429D01*
X6057Y3429D01*
X6187D01*
X6191Y3426D01*
X6191Y3424D01*
Y3374D01*
X6191Y3374D01*
X6191Y3374D01*
Y3367D01*
X6196D01*
X6196Y3367D01*
X6197Y3366D01*
X6197Y3365D01*
Y3285D01*
X6161Y3249D01*
X6158Y3245D01*
X6157Y3240D01*
Y3080D01*
X6151Y3075D01*
X6149Y3073D01*
X6147Y3071D01*
X6146Y3070D01*
X6053D01*
Y2990D01*
X6116D01*
X6119Y2988D01*
X6122Y2987D01*
X6125Y2984D01*
X6132Y2979D01*
X6173Y2938D01*
X6174Y2936D01*
X6176Y2934D01*
X6177Y2932D01*
X6177Y2930D01*
X6177Y2928D01*
X6177Y2927D01*
X6177Y2925D01*
X6176Y2922D01*
X6176Y2922D01*
X6176Y2922D01*
X6171Y2911D01*
X6169Y2899D01*
X6171Y2887D01*
X6176Y2876D01*
X6183Y2866D01*
X6192Y2859D01*
X6203Y2854D01*
X6215Y2853D01*
X6227Y2854D01*
X6238Y2859D01*
X6248Y2866D01*
X6255Y2876D01*
X6259Y2887D01*
X6261Y2899D01*
X6259Y2911D01*
X6255Y2922D01*
X6248Y2931D01*
X6238Y2938D01*
X6235Y2940D01*
X6235Y2940D01*
X6235Y2940D01*
X6235Y2940D01*
X6232Y2941D01*
X6229Y2943D01*
X6221Y2948D01*
X6219Y2950D01*
X6213Y2954D01*
X6176Y2991D01*
X6171Y2997D01*
X6167Y3001D01*
X6165Y3004D01*
Y3051D01*
X6166Y3052D01*
X6169Y3055D01*
X6179Y3066D01*
X6182Y3070D01*
X6183Y3075D01*
Y3123D01*
X6185Y3127D01*
X6188Y3127D01*
X6213D01*
X6213Y3127D01*
X6215Y3126D01*
X6218Y3123D01*
X6253Y3088D01*
Y3073D01*
X6253Y3072D01*
X6253Y3071D01*
X6253Y3070D01*
X6210D01*
Y2990D01*
X6274D01*
X6277Y2988D01*
X6280Y2987D01*
X6283Y2984D01*
X6290Y2979D01*
X6327Y2941D01*
X6328Y2940D01*
X6330Y2938D01*
X6330Y2936D01*
X6331Y2935D01*
X6331Y2934D01*
X6331Y2932D01*
X6330Y2931D01*
X6330Y2930D01*
X6328Y2928D01*
X6328Y2928D01*
X6323Y2922D01*
X6319Y2911D01*
X6317Y2899D01*
X6317Y2897D01*
X6317Y2895D01*
X6317Y2891D01*
X6316Y2888D01*
X6316Y2885D01*
X6315Y2883D01*
X6314Y2880D01*
X6312Y2877D01*
X6311Y2875D01*
X6310Y2874D01*
X6281Y2845D01*
X5765D01*
X5736Y2874D01*
X5735Y2875D01*
X5733Y2877D01*
X5732Y2880D01*
X5731Y2883D01*
X5730Y2885D01*
X5729Y2888D01*
X5729Y2891D01*
X5728Y2895D01*
X5728Y2897D01*
X5729Y2899D01*
X5727Y2911D01*
X5723Y2922D01*
X5718Y2928D01*
X5718Y2928D01*
X5716Y2930D01*
X5716Y2931D01*
X5715Y2932D01*
X5715Y2934D01*
X5715Y2935D01*
X5715Y2936D01*
X5716Y2938D01*
X5717Y2940D01*
X5719Y2941D01*
X5756Y2979D01*
X5759Y2981D01*
X5763Y2984D01*
X5766Y2987D01*
X5769Y2988D01*
X5772Y2989D01*
X5772Y2990D01*
X5781D01*
X5781Y2990D01*
X5781Y2990D01*
X5835D01*
Y3070D01*
X5723D01*
Y3016D01*
X5723Y3016D01*
X5723Y3016D01*
Y3004D01*
X5721Y3001D01*
X5714Y2993D01*
X5683Y2962D01*
X5653Y2991D01*
X5648Y2997D01*
X5645Y3001D01*
X5643Y3004D01*
Y3070D01*
X5571D01*
X5571Y3070D01*
X5569Y3071D01*
X5568Y3071D01*
X5567Y3071D01*
X5566Y3071D01*
X5565Y3072D01*
X5564Y3073D01*
X5562Y3073D01*
X5561Y3074D01*
X5560Y3075D01*
X5515Y3120D01*
X5517Y3125D01*
X5520D01*
Y3170D01*
X5471D01*
Y3180D01*
X5519D01*
X5542Y3158D01*
X5544Y3155D01*
X5545Y3154D01*
X5546Y3153D01*
Y3148D01*
X5546Y3148D01*
X5546Y3148D01*
Y3125D01*
X5595D01*
Y3148D01*
X5595Y3148D01*
X5595Y3148D01*
Y3153D01*
X5596Y3154D01*
X5599Y3157D01*
X5617Y3175D01*
X5620Y3180D01*
X5621Y3185D01*
Y3357D01*
X5645Y3381D01*
X5659D01*
X5660Y3381D01*
X5661Y3381D01*
X5662Y3381D01*
Y3365D01*
X5699D01*
Y3424D01*
X5662D01*
Y3408D01*
X5661Y3408D01*
X5660Y3408D01*
X5659Y3408D01*
X5640D01*
X5635Y3407D01*
X5630Y3404D01*
X5598Y3372D01*
X5596Y3367D01*
X5595Y3362D01*
Y3225D01*
X5582D01*
X5581Y3226D01*
X5581Y3227D01*
X5581Y3228D01*
Y3274D01*
X5581Y3275D01*
X5581Y3276D01*
X5581Y3276D01*
X5587D01*
Y3283D01*
X5587Y3283D01*
X5587Y3283D01*
Y3335D01*
X5549D01*
Y3283D01*
X5549Y3283D01*
X5549Y3283D01*
Y3276D01*
X5554D01*
X5554Y3276D01*
X5555Y3275D01*
X5555Y3274D01*
Y3228D01*
X5555Y3227D01*
X5554Y3226D01*
X5554Y3225D01*
X5546D01*
Y3197D01*
X5541Y3196D01*
X5525Y3212D01*
X5520Y3215D01*
X5520Y3215D01*
Y3225D01*
X5478D01*
X5477Y3230D01*
X5483Y3237D01*
X5513D01*
X5518Y3238D01*
X5522Y3241D01*
X5540Y3258D01*
X5543Y3263D01*
X5544Y3268D01*
Y3362D01*
X5544Y3363D01*
X5544Y3364D01*
X5544Y3365D01*
X5549D01*
Y3372D01*
X5549Y3372D01*
X5549Y3372D01*
Y3424D01*
X5512D01*
Y3372D01*
X5512Y3372D01*
X5512Y3372D01*
Y3365D01*
X5517D01*
X5517Y3364D01*
X5517Y3363D01*
X5517Y3362D01*
Y3273D01*
X5507Y3263D01*
X5478D01*
X5473Y3262D01*
X5468Y3259D01*
X5448Y3239D01*
X5446Y3235D01*
X5445Y3230D01*
Y3073D01*
X5445Y3072D01*
X5444Y3071D01*
X5444Y3070D01*
X5373D01*
Y2990D01*
X5447D01*
X5447Y2989D01*
X5450Y2988D01*
X5453Y2985D01*
X5460Y2979D01*
X5499Y2941D01*
X5500Y2939D01*
X5501Y2937D01*
X5502Y2936D01*
X5502Y2934D01*
X5502Y2933D01*
X5502Y2932D01*
X5502Y2931D01*
X5501Y2929D01*
X5500Y2927D01*
X5500Y2927D01*
X5496Y2922D01*
X5491Y2911D01*
X5489Y2899D01*
X5491Y2887D01*
X5496Y2876D01*
X5503Y2866D01*
X5512Y2859D01*
X5523Y2854D01*
X5535Y2853D01*
X5547Y2854D01*
X5558Y2859D01*
X5568Y2866D01*
X5575Y2876D01*
X5579Y2887D01*
X5581Y2899D01*
X5579Y2911D01*
X5575Y2922D01*
X5568Y2931D01*
X5560Y2937D01*
X5537Y2959D01*
X5496Y3000D01*
X5492Y3005D01*
X5488Y3009D01*
X5485Y3013D01*
X5485Y3013D01*
Y3070D01*
X5471D01*
X5471Y3071D01*
X5471Y3072D01*
X5471Y3073D01*
Y3125D01*
X5482D01*
X5482Y3124D01*
X5482Y3124D01*
Y3121D01*
X5483Y3116D01*
X5486Y3112D01*
X5530Y3067D01*
Y3063D01*
X5530Y3063D01*
X5530Y3063D01*
Y3063D01*
X5530Y3063D01*
X5530Y3063D01*
Y2990D01*
X5594D01*
X5597Y2988D01*
X5600Y2987D01*
X5603Y2984D01*
X5610Y2979D01*
X5647Y2941D01*
X5648Y2940D01*
X5650Y2938D01*
X5650Y2936D01*
X5651Y2935D01*
X5651Y2934D01*
X5651Y2932D01*
X5650Y2931D01*
X5650Y2930D01*
X5648Y2928D01*
X5648Y2928D01*
X5643Y2922D01*
X5639Y2911D01*
X5637Y2899D01*
X5639Y2887D01*
X5643Y2876D01*
X5650Y2866D01*
X5660Y2859D01*
X5671Y2854D01*
X5683Y2853D01*
X5685Y2853D01*
X5687Y2853D01*
X5690Y2853D01*
X5693Y2852D01*
X5696Y2852D01*
X5699Y2851D01*
X5702Y2849D01*
X5704Y2848D01*
X5706Y2847D01*
X5708Y2845D01*
X5742Y2811D01*
X5749Y2807D01*
X5757Y2805D01*
X6289D01*
X6297Y2807D01*
X6303Y2811D01*
X6338Y2845D01*
X6339Y2847D01*
X6342Y2848D01*
X6344Y2849D01*
X6347Y2851D01*
X6350Y2852D01*
X6353Y2852D01*
X6356Y2853D01*
X6359Y2853D01*
X6361Y2853D01*
X6363Y2853D01*
X6375Y2854D01*
X6386Y2859D01*
X6395Y2866D01*
X6403Y2876D01*
X6407Y2887D01*
X6409Y2899D01*
X6407Y2911D01*
X6403Y2922D01*
X6398Y2928D01*
X6398Y2928D01*
X6396Y2930D01*
X6396Y2931D01*
X6395Y2932D01*
X6395Y2934D01*
X6395Y2935D01*
X6395Y2936D01*
X6396Y2938D01*
X6397Y2940D01*
X6399Y2941D01*
X6436Y2979D01*
X6439Y2981D01*
X6443Y2984D01*
X6446Y2987D01*
X6449Y2988D01*
X6452Y2989D01*
X6452Y2990D01*
X6461D01*
X6461Y2990D01*
X6461Y2990D01*
X6515D01*
Y3070D01*
X6449D01*
X6449Y3071D01*
X6448Y3072D01*
X6448Y3073D01*
Y3125D01*
X6448Y3126D01*
X6449Y3127D01*
X6449Y3127D01*
X6460D01*
Y3173D01*
X6410D01*
Y3127D01*
X6421D01*
X6421Y3127D01*
X6422Y3126D01*
X6422Y3125D01*
Y3073D01*
X6422Y3072D01*
X6421Y3071D01*
X6421Y3070D01*
X6403D01*
Y3016D01*
X6403Y3016D01*
X6403Y3016D01*
Y3004D01*
X6401Y3001D01*
X6394Y2993D01*
X6363Y2962D01*
X6333Y2991D01*
X6328Y2997D01*
X6325Y3001D01*
X6323Y3004D01*
Y3070D01*
X6280D01*
X6280Y3071D01*
X6280Y3072D01*
X6280Y3073D01*
Y3093D01*
X6279Y3098D01*
X6276Y3103D01*
X6239Y3140D01*
X6237Y3142D01*
X6235Y3144D01*
X6235Y3145D01*
Y3150D01*
X6235Y3150D01*
X6235Y3150D01*
Y3173D01*
X6188D01*
X6185Y3173D01*
X6183Y3177D01*
Y3178D01*
X6185Y3182D01*
X6188Y3182D01*
X6235D01*
Y3210D01*
X6235Y3211D01*
X6238Y3215D01*
X6247Y3224D01*
X6256Y3215D01*
X6258Y3213D01*
X6260Y3211D01*
X6260Y3210D01*
Y3182D01*
X6292D01*
X6294Y3178D01*
X6293Y3177D01*
X6291Y3175D01*
X6290Y3174D01*
X6288Y3173D01*
X6288Y3173D01*
X6260D01*
Y3127D01*
X6310D01*
Y3155D01*
X6310Y3156D01*
X6313Y3159D01*
X6323Y3169D01*
X6331Y3160D01*
X6333Y3158D01*
X6335Y3156D01*
X6335Y3155D01*
Y3127D01*
X6385D01*
Y3173D01*
X6357D01*
X6357Y3173D01*
X6355Y3174D01*
X6352Y3176D01*
X6351Y3178D01*
X6353Y3182D01*
X6385D01*
Y3210D01*
X6385Y3211D01*
X6388Y3215D01*
X6407Y3233D01*
X6410Y3237D01*
X6411Y3242D01*
Y3276D01*
X6411Y3277D01*
X6411Y3278D01*
X6411Y3279D01*
X6416D01*
Y3286D01*
X6416Y3286D01*
X6416Y3286D01*
Y3338D01*
X6379D01*
Y3286D01*
X6379Y3286D01*
X6379Y3286D01*
Y3279D01*
X6384D01*
X6384Y3278D01*
X6384Y3277D01*
X6384Y3276D01*
Y3248D01*
X6368Y3232D01*
X6366Y3230D01*
X6365Y3229D01*
X6363Y3228D01*
X6363Y3228D01*
X6336D01*
Y3232D01*
X6335Y3237D01*
X6332Y3242D01*
X6298Y3275D01*
Y3378D01*
X6298Y3378D01*
X6298Y3379D01*
X6299Y3380D01*
X6299Y3381D01*
X6299Y3382D01*
X6300Y3382D01*
X6300Y3383D01*
X6300Y3383D01*
X6301Y3384D01*
X6306Y3391D01*
X6308Y3400D01*
X6306Y3409D01*
X6301Y3416D01*
X6294Y3421D01*
X6285Y3423D01*
X6276Y3421D01*
X6269Y3416D01*
X6264Y3409D01*
X6262Y3400D01*
X6264Y3391D01*
X6269Y3384D01*
X6270Y3383D01*
X6270Y3383D01*
X6270Y3382D01*
X6271Y3382D01*
X6271Y3381D01*
X6271Y3380D01*
X6272Y3379D01*
X6272Y3378D01*
X6272Y3378D01*
Y3270D01*
X6273Y3265D01*
X6276Y3261D01*
X6304Y3232D01*
X6302Y3228D01*
X6282D01*
X6282Y3228D01*
X6280Y3229D01*
X6277Y3232D01*
X6265Y3243D01*
X6265Y3244D01*
X6264Y3246D01*
X6263Y3247D01*
X6262Y3249D01*
X6262Y3250D01*
X6261Y3252D01*
X6261Y3253D01*
X6261Y3255D01*
Y3276D01*
X6261Y3277D01*
X6261Y3278D01*
X6261Y3279D01*
X6266D01*
Y3286D01*
X6266Y3286D01*
X6266Y3286D01*
Y3338D01*
X6229D01*
Y3286D01*
X6229Y3286D01*
X6229Y3286D01*
Y3279D01*
X6234D01*
X6234Y3278D01*
X6234Y3277D01*
X6234Y3276D01*
Y3248D01*
X6218Y3232D01*
X6216Y3230D01*
X6215Y3229D01*
X6213Y3228D01*
X6213Y3228D01*
X6185Y3228D01*
X6183Y3232D01*
Y3234D01*
X6219Y3270D01*
X6222Y3275D01*
X6223Y3280D01*
Y3365D01*
X6223Y3366D01*
X6224Y3367D01*
X6224Y3367D01*
X6229D01*
Y3374D01*
X6229Y3374D01*
X6229Y3374D01*
Y3424D01*
X6229Y3426D01*
X6233Y3429D01*
X6337D01*
X6341Y3426D01*
Y3367D01*
X6379D01*
Y3383D01*
X6379Y3383D01*
X6380Y3383D01*
X6381Y3383D01*
X6385D01*
X6422Y3347D01*
Y3230D01*
X6422Y3229D01*
X6421Y3228D01*
X6421Y3228D01*
X6410D01*
Y3182D01*
X6459D01*
X6481Y3160D01*
X6483Y3158D01*
X6485Y3156D01*
X6485Y3155D01*
Y3127D01*
X6535D01*
Y3173D01*
X6507D01*
X6507Y3173D01*
X6505Y3174D01*
X6502Y3176D01*
X6501Y3178D01*
X6503Y3182D01*
X6535D01*
Y3210D01*
X6535Y3211D01*
X6538Y3215D01*
X6557Y3233D01*
X6560Y3237D01*
X6561Y3242D01*
Y3276D01*
X6561Y3277D01*
X6561Y3278D01*
X6561Y3279D01*
X6566D01*
Y3286D01*
X6566Y3286D01*
X6566Y3286D01*
Y3338D01*
X6529D01*
Y3286D01*
X6529Y3286D01*
X6529Y3286D01*
Y3279D01*
X6534D01*
X6534Y3278D01*
X6534Y3277D01*
X6534Y3276D01*
Y3248D01*
X6518Y3232D01*
X6516Y3230D01*
X6515Y3229D01*
X6513Y3228D01*
X6513Y3228D01*
X6499D01*
X6498Y3233D01*
X6504Y3234D01*
X6511Y3239D01*
X6516Y3246D01*
X6518Y3255D01*
X6516Y3264D01*
X6511Y3271D01*
X6504Y3276D01*
X6495Y3278D01*
X6491Y3282D01*
Y3338D01*
X6476D01*
X6473Y3340D01*
Y3405D01*
X6472Y3410D01*
X6469Y3414D01*
X6432Y3452D01*
X6428Y3455D01*
X6423Y3456D01*
X6057D01*
X6056Y3456D01*
X6055Y3456D01*
X6055Y3456D01*
Y3465D01*
X6005D01*
Y3456D01*
X6005Y3456D01*
X6004Y3456D01*
X6003Y3456D01*
X5856D01*
X5854Y3461D01*
X5863Y3467D01*
X5870Y3477D01*
X5875Y3488D01*
X5876Y3499D01*
X5875Y3511D01*
X5870Y3522D01*
X5863Y3532D01*
X5853Y3539D01*
X5842Y3544D01*
X5831Y3545D01*
X5829Y3545D01*
X5827Y3545D01*
X5823Y3545D01*
X5820Y3546D01*
X5817Y3547D01*
X5814Y3548D01*
X5812Y3549D01*
X5809Y3550D01*
X5807Y3552D01*
X5805Y3553D01*
X5772Y3586D01*
X5770Y3589D01*
X5767Y3593D01*
X5765Y3596D01*
X5763Y3600D01*
X5762Y3604D01*
X5761Y3607D01*
X5760Y3612D01*
X5760Y3615D01*
Y3714D01*
X5841Y3795D01*
X5883D01*
X5890Y3797D01*
X5897Y3801D01*
X5912Y3816D01*
X5916Y3822D01*
X5918Y3830D01*
Y4047D01*
X5918Y4049D01*
X5918Y4049D01*
X5918Y4050D01*
X5920Y4060D01*
X5918Y4070D01*
X5915Y4078D01*
X5909Y4086D01*
X5901Y4092D01*
X5892Y4096D01*
X5883Y4097D01*
D02*
G37*
G36*
X6511Y3942D02*
X6499Y3941D01*
X6488Y3936D01*
X6478Y3929D01*
X6471Y3919D01*
X6466Y3908D01*
X6465Y3896D01*
X6466Y3884D01*
X6471Y3873D01*
X6478Y3864D01*
X6488Y3857D01*
X6499Y3852D01*
X6511Y3851D01*
X6522Y3852D01*
X6533Y3857D01*
X6543Y3864D01*
X6550Y3873D01*
X6555Y3884D01*
X6556Y3896D01*
X6555Y3908D01*
X6550Y3919D01*
X6543Y3929D01*
X6533Y3936D01*
X6522Y3941D01*
X6511Y3942D01*
D02*
G37*
G36*
X6215D02*
X6203Y3941D01*
X6192Y3936D01*
X6183Y3929D01*
X6176Y3919D01*
X6171Y3908D01*
X6169Y3896D01*
X6171Y3884D01*
X6176Y3873D01*
X6183Y3864D01*
X6192Y3857D01*
X6203Y3852D01*
X6215Y3851D01*
X6227Y3852D01*
X6238Y3857D01*
X6248Y3864D01*
X6255Y3873D01*
X6259Y3884D01*
X6261Y3896D01*
X6259Y3908D01*
X6255Y3919D01*
X6248Y3929D01*
X6238Y3936D01*
X6227Y3941D01*
X6215Y3942D01*
D02*
G37*
G36*
X5535D02*
X5523Y3941D01*
X5512Y3936D01*
X5503Y3929D01*
X5496Y3919D01*
X5491Y3908D01*
X5489Y3896D01*
X5491Y3884D01*
X5496Y3873D01*
X5503Y3864D01*
X5512Y3857D01*
X5523Y3852D01*
X5535Y3851D01*
X5547Y3852D01*
X5558Y3857D01*
X5568Y3864D01*
X5575Y3873D01*
X5579Y3884D01*
X5581Y3896D01*
X5579Y3908D01*
X5575Y3919D01*
X5568Y3929D01*
X5558Y3936D01*
X5547Y3941D01*
X5535Y3942D01*
D02*
G37*
G36*
X5151D02*
X5139Y3941D01*
X5128Y3936D01*
X5118Y3929D01*
X5111Y3919D01*
X5106Y3908D01*
X5105Y3896D01*
X5106Y3884D01*
X5111Y3873D01*
X5118Y3864D01*
X5128Y3857D01*
X5139Y3852D01*
X5151Y3851D01*
X5162Y3852D01*
X5173Y3857D01*
X5183Y3864D01*
X5190Y3873D01*
X5195Y3884D01*
X5196Y3896D01*
X5195Y3908D01*
X5190Y3919D01*
X5183Y3929D01*
X5173Y3936D01*
X5162Y3941D01*
X5151Y3942D01*
D02*
G37*
G36*
X4855D02*
X4843Y3941D01*
X4832Y3936D01*
X4823Y3929D01*
X4816Y3919D01*
X4811Y3908D01*
X4809Y3896D01*
X4811Y3884D01*
X4816Y3873D01*
X4823Y3864D01*
X4832Y3857D01*
X4843Y3852D01*
X4855Y3851D01*
X4867Y3852D01*
X4878Y3857D01*
X4888Y3864D01*
X4895Y3873D01*
X4899Y3884D01*
X4901Y3896D01*
X4899Y3908D01*
X4895Y3919D01*
X4888Y3929D01*
X4878Y3936D01*
X4867Y3941D01*
X4855Y3942D01*
D02*
G37*
G36*
X5545Y4242D02*
X5536Y4240D01*
X5528Y4237D01*
X5520Y4231D01*
X5515Y4224D01*
X5511Y4216D01*
X5510Y4207D01*
X5511Y4198D01*
X5515Y4189D01*
X5520Y4182D01*
X5528Y4177D01*
X5536Y4173D01*
X5545Y4172D01*
X5546Y4172D01*
X5549Y4172D01*
X5552Y4172D01*
X5554Y4172D01*
X5557Y4171D01*
X5559Y4171D01*
X5561Y4170D01*
X5563Y4169D01*
X5564Y4168D01*
X5565Y4168D01*
X5617Y4116D01*
X5622Y4113D01*
X5627Y4112D01*
X6015D01*
X6042Y4085D01*
Y3865D01*
X6043Y3860D01*
X6046Y3856D01*
X6106Y3796D01*
X6110Y3793D01*
X6115Y3792D01*
X6188D01*
X6188Y3792D01*
X6189Y3792D01*
X6190Y3791D01*
X6191Y3791D01*
X6192Y3791D01*
X6192Y3790D01*
X6193Y3790D01*
X6193Y3790D01*
X6194Y3789D01*
X6201Y3784D01*
X6210Y3782D01*
X6219Y3784D01*
X6226Y3789D01*
X6231Y3796D01*
X6233Y3805D01*
X6231Y3814D01*
X6226Y3821D01*
X6219Y3826D01*
X6210Y3828D01*
X6201Y3826D01*
X6194Y3821D01*
X6193Y3820D01*
X6193Y3820D01*
X6192Y3820D01*
X6192Y3819D01*
X6191Y3819D01*
X6190Y3819D01*
X6189Y3818D01*
X6188Y3818D01*
X6188Y3818D01*
X6120D01*
X6068Y3870D01*
Y4090D01*
X6067Y4095D01*
X6064Y4099D01*
X6029Y4134D01*
X6025Y4137D01*
X6020Y4138D01*
X5632D01*
X5584Y4186D01*
X5583Y4188D01*
X5582Y4189D01*
X5582Y4191D01*
X5581Y4193D01*
X5581Y4195D01*
X5580Y4197D01*
X5580Y4203D01*
X5580Y4206D01*
X5580Y4207D01*
X5579Y4216D01*
X5575Y4224D01*
X5570Y4231D01*
X5562Y4237D01*
X5554Y4240D01*
X5545Y4242D01*
D02*
G37*
G36*
X6699Y4097D02*
X6626D01*
Y4023D01*
X6637D01*
X6639Y4023D01*
X6639Y4023D01*
X6640Y4023D01*
X6640Y4022D01*
X6641Y4021D01*
X6642Y4019D01*
X6642Y4017D01*
X6643Y4014D01*
X6643Y4011D01*
Y3833D01*
X6550Y3740D01*
X6548Y3739D01*
X6546Y3737D01*
X6544Y3737D01*
X6542Y3736D01*
X6540Y3736D01*
X6538Y3736D01*
X6536Y3736D01*
X6534Y3737D01*
X6534Y3737D01*
X6533Y3738D01*
X6522Y3742D01*
X6511Y3744D01*
X6499Y3742D01*
X6488Y3738D01*
X6478Y3730D01*
X6471Y3721D01*
X6466Y3710D01*
X6465Y3698D01*
X6466Y3686D01*
X6471Y3675D01*
X6478Y3665D01*
X6488Y3658D01*
X6499Y3654D01*
X6511Y3652D01*
X6522Y3654D01*
X6533Y3658D01*
X6543Y3665D01*
X6550Y3675D01*
X6551Y3678D01*
X6552Y3678D01*
X6552Y3678D01*
X6552Y3678D01*
X6553Y3681D01*
X6555Y3684D01*
X6560Y3692D01*
X6561Y3695D01*
X6566Y3700D01*
X6677Y3811D01*
X6681Y3817D01*
X6683Y3825D01*
Y4011D01*
X6683Y4014D01*
X6683Y4017D01*
X6684Y4019D01*
X6685Y4021D01*
X6686Y4022D01*
X6686Y4023D01*
X6687Y4023D01*
X6687Y4023D01*
X6688Y4023D01*
X6699D01*
Y4097D01*
D02*
G37*
G36*
X6215Y3744D02*
X6203Y3742D01*
X6192Y3738D01*
X6183Y3730D01*
X6176Y3721D01*
X6171Y3710D01*
X6169Y3698D01*
X6171Y3686D01*
X6176Y3675D01*
X6183Y3665D01*
X6192Y3658D01*
X6203Y3654D01*
X6215Y3652D01*
X6227Y3654D01*
X6238Y3658D01*
X6248Y3665D01*
X6255Y3675D01*
X6259Y3686D01*
X6261Y3698D01*
X6259Y3710D01*
X6255Y3721D01*
X6248Y3730D01*
X6238Y3738D01*
X6227Y3742D01*
X6215Y3744D01*
D02*
G37*
G36*
X5535D02*
X5523Y3742D01*
X5512Y3738D01*
X5503Y3730D01*
X5496Y3721D01*
X5491Y3710D01*
X5489Y3698D01*
X5491Y3686D01*
X5496Y3675D01*
X5503Y3665D01*
X5512Y3658D01*
X5523Y3654D01*
X5535Y3652D01*
X5547Y3654D01*
X5558Y3658D01*
X5568Y3665D01*
X5575Y3675D01*
X5579Y3686D01*
X5581Y3698D01*
X5579Y3710D01*
X5575Y3721D01*
X5568Y3730D01*
X5558Y3738D01*
X5547Y3742D01*
X5535Y3744D01*
D02*
G37*
G36*
X4855D02*
X4843Y3742D01*
X4832Y3738D01*
X4823Y3730D01*
X4816Y3721D01*
X4811Y3710D01*
X4809Y3698D01*
X4811Y3686D01*
X4816Y3675D01*
X4823Y3665D01*
X4832Y3658D01*
X4843Y3654D01*
X4855Y3652D01*
X4867Y3654D01*
X4878Y3658D01*
X4888Y3665D01*
X4895Y3675D01*
X4899Y3686D01*
X4901Y3698D01*
X4899Y3710D01*
X4895Y3721D01*
X4888Y3730D01*
X4878Y3738D01*
X4867Y3742D01*
X4855Y3744D01*
D02*
G37*
G36*
X6563Y4097D02*
X6553Y4096D01*
X6544Y4092D01*
X6537Y4086D01*
X6531Y4078D01*
X6527Y4070D01*
X6526Y4060D01*
X6527Y4050D01*
X6531Y4042D01*
X6537Y4034D01*
X6544Y4028D01*
X6553Y4024D01*
X6562Y4023D01*
X6562Y4023D01*
X6562Y4022D01*
X6563Y4021D01*
X6563Y4019D01*
X6563Y4018D01*
Y3853D01*
X6530Y3820D01*
X6483D01*
X6475Y3818D01*
X6469Y3814D01*
X6401Y3746D01*
X6397Y3740D01*
X6395Y3732D01*
Y3628D01*
X6395Y3625D01*
X6394Y3623D01*
X6392Y3620D01*
X6391Y3619D01*
X6389Y3617D01*
X6387Y3616D01*
X6385Y3615D01*
X6382Y3615D01*
X6094D01*
X6015Y3694D01*
X6012Y3697D01*
X6010Y3700D01*
X6008Y3704D01*
X6006Y3708D01*
X6005Y3711D01*
X6004Y3715D01*
X6003Y3719D01*
X6003Y3723D01*
Y4011D01*
X6003Y4014D01*
X6003Y4017D01*
X6004Y4019D01*
X6005Y4021D01*
X6006Y4022D01*
X6006Y4023D01*
X6007Y4023D01*
X6007Y4023D01*
X6008Y4023D01*
X6019D01*
Y4097D01*
X5946D01*
Y4023D01*
X5957D01*
X5959Y4023D01*
X5959Y4023D01*
X5960Y4023D01*
X5960Y4022D01*
X5961Y4021D01*
X5962Y4019D01*
X5962Y4017D01*
X5963Y4014D01*
X5963Y4011D01*
Y3731D01*
X5962Y3728D01*
X5962Y3725D01*
X5960Y3723D01*
X5959Y3722D01*
X5957Y3720D01*
X5955Y3719D01*
X5953Y3718D01*
X5949Y3718D01*
X5886D01*
X5884Y3718D01*
X5881Y3719D01*
X5879Y3719D01*
X5876Y3720D01*
X5873Y3722D01*
X5871Y3723D01*
X5868Y3725D01*
X5866Y3727D01*
X5864Y3729D01*
X5863Y3730D01*
X5853Y3738D01*
X5842Y3742D01*
X5831Y3744D01*
X5819Y3742D01*
X5808Y3738D01*
X5798Y3730D01*
X5791Y3721D01*
X5786Y3710D01*
X5785Y3698D01*
X5786Y3686D01*
X5791Y3675D01*
X5798Y3665D01*
X5808Y3658D01*
X5819Y3654D01*
X5831Y3652D01*
X5842Y3654D01*
X5853Y3658D01*
X5863Y3665D01*
X5864Y3667D01*
X5866Y3668D01*
X5868Y3671D01*
X5871Y3672D01*
X5873Y3674D01*
X5876Y3675D01*
X5879Y3676D01*
X5881Y3677D01*
X5884Y3678D01*
X5886Y3678D01*
X5958D01*
X5961Y3678D01*
X5965Y3677D01*
X5969Y3676D01*
X5973Y3674D01*
X5977Y3673D01*
X5980Y3671D01*
X5984Y3668D01*
X5987Y3666D01*
X6072Y3581D01*
X6078Y3577D01*
X6086Y3575D01*
X6390D01*
X6393Y3575D01*
X6397Y3574D01*
X6401Y3573D01*
X6405Y3571D01*
X6409Y3570D01*
X6412Y3568D01*
X6416Y3565D01*
X6419Y3563D01*
X6457Y3525D01*
X6458Y3523D01*
X6460Y3521D01*
X6461Y3518D01*
X6462Y3516D01*
X6463Y3513D01*
X6464Y3510D01*
X6465Y3507D01*
X6465Y3503D01*
X6465Y3501D01*
X6465Y3499D01*
X6466Y3488D01*
X6471Y3477D01*
X6478Y3467D01*
X6488Y3460D01*
X6499Y3455D01*
X6511Y3454D01*
X6522Y3455D01*
X6533Y3460D01*
X6543Y3467D01*
X6550Y3477D01*
X6555Y3488D01*
X6556Y3499D01*
X6555Y3511D01*
X6550Y3522D01*
X6543Y3532D01*
X6533Y3539D01*
X6522Y3544D01*
X6511Y3545D01*
X6509Y3545D01*
X6507Y3545D01*
X6503Y3545D01*
X6500Y3546D01*
X6497Y3547D01*
X6494Y3548D01*
X6492Y3549D01*
X6489Y3550D01*
X6487Y3552D01*
X6485Y3553D01*
X6447Y3591D01*
X6445Y3594D01*
X6442Y3598D01*
X6440Y3601D01*
X6438Y3605D01*
X6437Y3609D01*
X6436Y3612D01*
X6435Y3617D01*
X6435Y3620D01*
Y3724D01*
X6491Y3780D01*
X6538D01*
X6545Y3782D01*
X6552Y3786D01*
X6597Y3831D01*
X6601Y3837D01*
X6603Y3845D01*
Y4040D01*
X6601Y4048D01*
X6600Y4050D01*
X6599Y4055D01*
X6600Y4060D01*
X6598Y4070D01*
X6595Y4078D01*
X6589Y4086D01*
X6581Y4092D01*
X6572Y4096D01*
X6563Y4097D01*
D02*
G37*
G36*
X5051Y3335D02*
X5014D01*
Y3283D01*
X5014Y3283D01*
X5014Y3283D01*
Y3276D01*
X5017D01*
X5017Y3274D01*
Y3228D01*
X5017Y3227D01*
X5016Y3226D01*
X5016Y3225D01*
X5005D01*
Y3216D01*
X5005Y3216D01*
X5004Y3216D01*
X5003Y3216D01*
X4982D01*
X4981Y3216D01*
X4980Y3216D01*
X4980Y3216D01*
Y3225D01*
X4930D01*
Y3180D01*
X4980D01*
Y3189D01*
X4980Y3189D01*
X4981Y3189D01*
X4982Y3189D01*
X5003D01*
X5004Y3189D01*
X5005Y3189D01*
X5005Y3189D01*
Y3180D01*
X5055D01*
Y3225D01*
X5044D01*
X5044Y3226D01*
X5043Y3227D01*
X5043Y3228D01*
Y3274D01*
X5043Y3275D01*
X5044Y3276D01*
X5044Y3276D01*
X5051D01*
Y3335D01*
D02*
G37*
G36*
X4901D02*
X4864D01*
Y3283D01*
X4864Y3283D01*
X4864Y3283D01*
Y3276D01*
X4867D01*
X4867Y3274D01*
Y3228D01*
X4867Y3227D01*
X4866Y3226D01*
X4866Y3225D01*
X4855D01*
Y3216D01*
X4855Y3216D01*
X4854Y3216D01*
X4853Y3216D01*
X4832D01*
X4831Y3216D01*
X4830Y3216D01*
X4830Y3216D01*
Y3225D01*
X4780D01*
Y3180D01*
X4830D01*
Y3189D01*
X4830Y3189D01*
X4831Y3189D01*
X4832Y3189D01*
X4853D01*
X4854Y3189D01*
X4855Y3189D01*
X4855Y3189D01*
Y3180D01*
X4905D01*
Y3225D01*
X4894D01*
X4894Y3226D01*
X4893Y3227D01*
X4893Y3228D01*
Y3274D01*
X4893Y3275D01*
X4894Y3276D01*
X4894Y3276D01*
X4901D01*
Y3335D01*
D02*
G37*
G36*
X5887D02*
X5849D01*
Y3276D01*
X5857D01*
X5857Y3276D01*
X5857Y3275D01*
X5857Y3274D01*
Y3228D01*
X5857Y3227D01*
X5857Y3226D01*
X5857Y3225D01*
X5846D01*
Y3180D01*
X5895D01*
Y3225D01*
X5884D01*
X5884Y3226D01*
X5884Y3227D01*
X5884Y3228D01*
Y3275D01*
X5884Y3276D01*
X5887D01*
Y3283D01*
X5887Y3283D01*
X5887Y3283D01*
Y3335D01*
D02*
G37*
G36*
X5737D02*
X5699D01*
Y3283D01*
X5699Y3283D01*
X5699Y3283D01*
Y3276D01*
X5704D01*
X5704Y3276D01*
X5705Y3275D01*
X5705Y3274D01*
Y3228D01*
X5705Y3227D01*
X5704Y3226D01*
X5704Y3225D01*
X5696D01*
Y3180D01*
X5745D01*
Y3225D01*
X5732D01*
X5731Y3226D01*
X5731Y3227D01*
X5731Y3228D01*
Y3274D01*
X5731Y3275D01*
X5731Y3276D01*
X5731Y3276D01*
X5737D01*
Y3283D01*
X5737Y3283D01*
X5737Y3283D01*
Y3335D01*
D02*
G37*
G36*
X4980Y3170D02*
X4930D01*
Y3161D01*
X4930Y3161D01*
X4929Y3161D01*
X4928Y3161D01*
X4907D01*
X4906Y3161D01*
X4905Y3161D01*
X4905Y3161D01*
Y3170D01*
X4855D01*
Y3125D01*
X4866D01*
X4866Y3124D01*
X4867Y3123D01*
X4867Y3122D01*
Y3115D01*
X4868Y3110D01*
X4871Y3106D01*
X4873Y3103D01*
X4872Y3100D01*
X4874Y3091D01*
X4879Y3084D01*
X4886Y3079D01*
X4895Y3077D01*
X4904Y3079D01*
X4911Y3084D01*
X4916Y3091D01*
X4918Y3100D01*
X4916Y3109D01*
X4911Y3116D01*
X4906Y3120D01*
X4905Y3125D01*
X4905D01*
X4905Y3125D01*
Y3134D01*
X4905Y3134D01*
X4906Y3134D01*
X4907Y3134D01*
X4928D01*
X4929Y3134D01*
X4930Y3134D01*
X4930Y3134D01*
Y3125D01*
X4980D01*
Y3170D01*
D02*
G37*
G36*
X5895D02*
X5846D01*
Y3141D01*
X5846Y3141D01*
X5843Y3137D01*
X5842Y3132D01*
Y3122D01*
X5842Y3122D01*
X5842Y3121D01*
X5841Y3120D01*
X5841Y3119D01*
X5841Y3118D01*
X5840Y3118D01*
X5840Y3117D01*
X5840Y3117D01*
X5839Y3116D01*
X5838Y3115D01*
X5838Y3115D01*
X5837Y3115D01*
X5837Y3114D01*
X5836Y3114D01*
X5835Y3114D01*
X5834Y3113D01*
X5833Y3113D01*
X5833Y3113D01*
X5773D01*
X5749Y3137D01*
X5747Y3139D01*
X5746Y3141D01*
X5745Y3142D01*
Y3170D01*
X5696D01*
Y3161D01*
X5696Y3161D01*
X5694Y3161D01*
X5694Y3161D01*
X5672D01*
X5672Y3161D01*
X5670Y3161D01*
X5670Y3161D01*
Y3170D01*
X5621D01*
Y3125D01*
X5670D01*
Y3134D01*
X5670Y3134D01*
X5672Y3134D01*
X5672Y3134D01*
X5694D01*
X5694Y3134D01*
X5696Y3134D01*
X5696Y3134D01*
Y3125D01*
X5723D01*
X5724Y3125D01*
X5725Y3124D01*
X5728Y3121D01*
X5759Y3091D01*
X5763Y3088D01*
X5768Y3087D01*
X5833D01*
X5833Y3087D01*
X5834Y3087D01*
X5835Y3086D01*
X5836Y3086D01*
X5837Y3086D01*
X5837Y3085D01*
X5838Y3085D01*
X5838Y3085D01*
X5839Y3084D01*
X5846Y3079D01*
X5855Y3077D01*
X5864Y3079D01*
X5871Y3084D01*
X5876Y3091D01*
X5878Y3100D01*
X5876Y3109D01*
X5871Y3116D01*
X5870Y3117D01*
X5870Y3117D01*
X5870Y3118D01*
X5869Y3118D01*
X5869Y3119D01*
X5869Y3120D01*
X5870Y3123D01*
X5871Y3124D01*
X5872Y3125D01*
X5895D01*
Y3170D01*
D02*
G37*
G36*
X6529Y3426D02*
X6491D01*
Y3367D01*
X6529D01*
Y3383D01*
X6529Y3383D01*
X6530Y3383D01*
X6531Y3383D01*
X6560D01*
X6577Y3367D01*
Y3073D01*
X6577Y3072D01*
X6576Y3071D01*
X6576Y3070D01*
X6560D01*
Y3016D01*
X6560Y3016D01*
X6560Y3016D01*
Y3004D01*
X6559Y3001D01*
X6551Y2993D01*
X6514Y2955D01*
X6512Y2954D01*
X6509Y2951D01*
X6506Y2949D01*
X6503Y2948D01*
X6500Y2946D01*
X6497Y2945D01*
X6494Y2945D01*
X6491Y2944D01*
X6490Y2944D01*
X6465D01*
Y2853D01*
X6556D01*
Y2937D01*
X6556Y2937D01*
X6556Y2937D01*
Y2941D01*
X6559Y2944D01*
X6594Y2979D01*
X6596Y2981D01*
X6600Y2984D01*
X6604Y2987D01*
X6607Y2988D01*
X6609Y2989D01*
X6610Y2990D01*
X6619D01*
X6619Y2990D01*
X6619Y2990D01*
X6673D01*
Y3070D01*
X6604D01*
X6604Y3071D01*
X6603Y3072D01*
X6603Y3073D01*
Y3372D01*
X6602Y3378D01*
X6599Y3382D01*
X6575Y3406D01*
X6571Y3409D01*
X6566Y3410D01*
X6531D01*
X6530Y3410D01*
X6529Y3410D01*
X6529Y3410D01*
Y3426D01*
D02*
G37*
G36*
X4864Y3424D02*
X4826D01*
Y3372D01*
X4826Y3372D01*
X4826Y3372D01*
Y3365D01*
X4831D01*
X4831Y3364D01*
X4832Y3363D01*
X4832Y3362D01*
Y3275D01*
X4820Y3263D01*
X4775D01*
X4770Y3262D01*
X4766Y3259D01*
X4740Y3233D01*
X4737Y3229D01*
X4736Y3224D01*
Y3073D01*
X4736Y3072D01*
X4736Y3071D01*
X4736Y3070D01*
X4693D01*
Y2990D01*
X4756D01*
X4759Y2988D01*
X4762Y2987D01*
X4765Y2984D01*
X4772Y2979D01*
X4813Y2938D01*
X4814Y2936D01*
X4816Y2934D01*
X4817Y2932D01*
X4817Y2930D01*
X4817Y2928D01*
X4817Y2927D01*
X4817Y2925D01*
X4816Y2922D01*
X4816Y2922D01*
X4816Y2922D01*
X4811Y2911D01*
X4809Y2899D01*
X4811Y2887D01*
X4816Y2876D01*
X4823Y2866D01*
X4832Y2859D01*
X4843Y2854D01*
X4855Y2853D01*
X4867Y2854D01*
X4878Y2859D01*
X4888Y2866D01*
X4895Y2876D01*
X4899Y2887D01*
X4901Y2899D01*
X4899Y2911D01*
X4895Y2922D01*
X4888Y2931D01*
X4878Y2938D01*
X4875Y2940D01*
X4875Y2940D01*
X4875Y2940D01*
X4875Y2940D01*
X4872Y2941D01*
X4869Y2943D01*
X4861Y2948D01*
X4859Y2950D01*
X4853Y2954D01*
X4816Y2991D01*
X4811Y2997D01*
X4807Y3001D01*
X4805Y3004D01*
Y3070D01*
X4763D01*
X4763Y3071D01*
X4762Y3072D01*
X4762Y3073D01*
Y3219D01*
X4780Y3237D01*
X4825D01*
X4831Y3238D01*
X4835Y3241D01*
X4854Y3260D01*
X4857Y3264D01*
X4858Y3270D01*
Y3362D01*
X4858Y3363D01*
X4859Y3364D01*
X4859Y3365D01*
X4864D01*
Y3372D01*
X4864Y3372D01*
X4864Y3372D01*
Y3424D01*
D02*
G37*
G36*
X6370Y2715D02*
X6361Y2714D01*
X6353Y2710D01*
X6345Y2705D01*
X6340Y2697D01*
X6336Y2689D01*
X6335Y2680D01*
X6336Y2671D01*
X6340Y2663D01*
X6345Y2655D01*
X6353Y2650D01*
X6361Y2646D01*
X6370Y2645D01*
X6379Y2646D01*
X6387Y2650D01*
X6395Y2655D01*
X6400Y2663D01*
X6404Y2671D01*
X6405Y2680D01*
X6404Y2689D01*
X6400Y2697D01*
X6395Y2705D01*
X6387Y2710D01*
X6379Y2714D01*
X6370Y2715D01*
D02*
G37*
G36*
X6270D02*
X6261Y2714D01*
X6253Y2710D01*
X6245Y2705D01*
X6240Y2697D01*
X6236Y2689D01*
X6235Y2680D01*
X6236Y2671D01*
X6240Y2663D01*
X6245Y2655D01*
X6253Y2650D01*
X6261Y2646D01*
X6270Y2645D01*
X6279Y2646D01*
X6287Y2650D01*
X6295Y2655D01*
X6300Y2663D01*
X6304Y2671D01*
X6305Y2680D01*
X6304Y2689D01*
X6300Y2697D01*
X6295Y2705D01*
X6287Y2710D01*
X6279Y2714D01*
X6270Y2715D01*
D02*
G37*
G36*
X6070D02*
X6061Y2714D01*
X6053Y2710D01*
X6045Y2705D01*
X6040Y2697D01*
X6036Y2689D01*
X6035Y2680D01*
X6036Y2671D01*
X6040Y2663D01*
X6045Y2655D01*
X6053Y2650D01*
X6061Y2646D01*
X6070Y2645D01*
X6079Y2646D01*
X6087Y2650D01*
X6095Y2655D01*
X6100Y2663D01*
X6104Y2671D01*
X6105Y2680D01*
X6104Y2689D01*
X6100Y2697D01*
X6095Y2705D01*
X6087Y2710D01*
X6079Y2714D01*
X6070Y2715D01*
D02*
G37*
G36*
X5970D02*
X5961Y2714D01*
X5953Y2710D01*
X5945Y2705D01*
X5940Y2697D01*
X5936Y2689D01*
X5935Y2680D01*
X5936Y2671D01*
X5940Y2663D01*
X5945Y2655D01*
X5953Y2650D01*
X5961Y2646D01*
X5970Y2645D01*
X5979Y2646D01*
X5987Y2650D01*
X5995Y2655D01*
X6000Y2663D01*
X6004Y2671D01*
X6005Y2680D01*
X6004Y2689D01*
X6000Y2697D01*
X5995Y2705D01*
X5987Y2710D01*
X5979Y2714D01*
X5970Y2715D01*
D02*
G37*
G36*
X5535D02*
X5526Y2714D01*
X5518Y2710D01*
X5510Y2705D01*
X5505Y2697D01*
X5501Y2689D01*
X5500Y2680D01*
X5501Y2671D01*
X5505Y2663D01*
X5510Y2655D01*
X5518Y2650D01*
X5526Y2646D01*
X5535Y2645D01*
X5544Y2646D01*
X5552Y2650D01*
X5560Y2655D01*
X5565Y2663D01*
X5569Y2671D01*
X5570Y2680D01*
X5569Y2689D01*
X5565Y2697D01*
X5560Y2705D01*
X5552Y2710D01*
X5544Y2714D01*
X5535Y2715D01*
D02*
G37*
G36*
X5435D02*
X5426Y2714D01*
X5418Y2710D01*
X5410Y2705D01*
X5405Y2697D01*
X5401Y2689D01*
X5400Y2680D01*
X5401Y2671D01*
X5405Y2663D01*
X5410Y2655D01*
X5418Y2650D01*
X5426Y2646D01*
X5435Y2645D01*
X5444Y2646D01*
X5452Y2650D01*
X5460Y2655D01*
X5465Y2663D01*
X5469Y2671D01*
X5470Y2680D01*
X5469Y2689D01*
X5465Y2697D01*
X5460Y2705D01*
X5452Y2710D01*
X5444Y2714D01*
X5435Y2715D01*
D02*
G37*
G36*
X5135D02*
X5126Y2714D01*
X5118Y2710D01*
X5110Y2705D01*
X5105Y2697D01*
X5101Y2689D01*
X5100Y2680D01*
X5101Y2671D01*
X5105Y2663D01*
X5110Y2655D01*
X5118Y2650D01*
X5126Y2646D01*
X5135Y2645D01*
X5144Y2646D01*
X5152Y2650D01*
X5160Y2655D01*
X5165Y2663D01*
X5169Y2671D01*
X5170Y2680D01*
X5169Y2689D01*
X5165Y2697D01*
X5160Y2705D01*
X5152Y2710D01*
X5144Y2714D01*
X5135Y2715D01*
D02*
G37*
G36*
X5035D02*
X5026Y2714D01*
X5018Y2710D01*
X5010Y2705D01*
X5005Y2697D01*
X5001Y2689D01*
X5000Y2680D01*
X5001Y2671D01*
X5005Y2663D01*
X5010Y2655D01*
X5018Y2650D01*
X5026Y2646D01*
X5035Y2645D01*
X5044Y2646D01*
X5052Y2650D01*
X5060Y2655D01*
X5065Y2663D01*
X5069Y2671D01*
X5070Y2680D01*
X5069Y2689D01*
X5065Y2697D01*
X5060Y2705D01*
X5052Y2710D01*
X5044Y2714D01*
X5035Y2715D01*
D02*
G37*
%LPD*%
G36*
X5314Y4893D02*
X5314Y4892D01*
X5314Y4891D01*
X5315Y4890D01*
X5315Y4888D01*
X5316Y4887D01*
X5317Y4886D01*
X5317Y4885D01*
X5318Y4884D01*
X5319Y4883D01*
X5311Y4874D01*
X5310Y4875D01*
X5309Y4876D01*
X5308Y4877D01*
X5306Y4878D01*
X5305Y4878D01*
X5304Y4879D01*
X5303Y4879D01*
X5302Y4879D01*
X5302Y4879D01*
X5302Y4878D01*
X5301Y4877D01*
X5301Y4876D01*
X5301Y4875D01*
X5301Y4874D01*
X5301Y4873D01*
X5289Y4873D01*
X5289Y4875D01*
X5289Y4881D01*
X5288Y4882D01*
X5288Y4882D01*
X5288Y4883D01*
X5288Y4884D01*
X5288Y4884D01*
X5300Y4881D01*
X5314Y4895D01*
X5314Y4893D01*
D02*
G37*
G36*
X5240Y4860D02*
X5240Y4860D01*
X5239Y4860D01*
X5236Y4860D01*
X5215Y4860D01*
Y4885D01*
X5220Y4886D01*
X5224Y4886D01*
X5228Y4887D01*
X5231Y4887D01*
X5234Y4889D01*
X5236Y4890D01*
X5238Y4892D01*
X5239Y4893D01*
X5240Y4896D01*
X5240Y4898D01*
X5240Y4860D01*
D02*
G37*
G36*
X6080Y4831D02*
X6078Y4833D01*
X6073Y4838D01*
X6070Y4839D01*
X6068Y4841D01*
X6066Y4842D01*
X6063Y4843D01*
X6061Y4843D01*
X6059Y4844D01*
X6057Y4844D01*
Y4856D01*
X6059Y4856D01*
X6061Y4857D01*
X6063Y4857D01*
X6066Y4858D01*
X6068Y4859D01*
X6070Y4861D01*
X6073Y4862D01*
X6075Y4864D01*
X6078Y4867D01*
X6080Y4869D01*
Y4831D01*
D02*
G37*
G36*
X5561Y4841D02*
X5561Y4840D01*
X5561Y4840D01*
X5562Y4839D01*
X5563Y4838D01*
X5564Y4838D01*
X5565Y4837D01*
X5566Y4837D01*
X5568Y4837D01*
X5569Y4837D01*
X5558Y4825D01*
X5549Y4825D01*
X5560Y4842D01*
X5561Y4841D01*
D02*
G37*
G36*
X5733Y4815D02*
X5732Y4813D01*
X5730Y4812D01*
X5729Y4810D01*
X5728Y4808D01*
X5727Y4806D01*
X5726Y4804D01*
X5726Y4802D01*
X5725Y4799D01*
X5725Y4797D01*
X5725Y4795D01*
X5713D01*
X5713Y4797D01*
X5712Y4799D01*
X5712Y4802D01*
X5711Y4804D01*
X5711Y4806D01*
X5710Y4808D01*
X5709Y4810D01*
X5707Y4812D01*
X5706Y4813D01*
X5704Y4815D01*
X5710Y4826D01*
X5712Y4825D01*
X5714Y4823D01*
X5715Y4823D01*
X5717Y4822D01*
X5719Y4822D01*
X5720Y4822D01*
X5722Y4823D01*
X5724Y4823D01*
X5726Y4825D01*
X5727Y4826D01*
X5733Y4815D01*
D02*
G37*
G36*
X6128Y4851D02*
X6130Y4841D01*
X6131Y4838D01*
X6132Y4836D01*
X6134Y4833D01*
X6135Y4831D01*
X6136Y4830D01*
X6137Y4828D01*
X6130Y4818D01*
X6129Y4820D01*
X6127Y4821D01*
X6125Y4822D01*
X6122Y4823D01*
X6120Y4823D01*
X6117Y4824D01*
X6115Y4824D01*
X6112Y4824D01*
X6109Y4824D01*
X6105Y4823D01*
X6127Y4855D01*
X6128Y4851D01*
D02*
G37*
G36*
X6324Y4824D02*
X6352Y4833D01*
X6350Y4831D01*
X6350Y4830D01*
X6349Y4829D01*
X6349Y4827D01*
X6349Y4826D01*
X6349Y4824D01*
X6349Y4823D01*
X6350Y4822D01*
X6351Y4821D01*
X6352Y4819D01*
X6343Y4811D01*
X6341Y4813D01*
X6338Y4816D01*
X6336Y4818D01*
X6332Y4820D01*
X6330Y4821D01*
X6328Y4822D01*
X6325Y4823D01*
X6324Y4823D01*
X6321Y4824D01*
X6318Y4824D01*
X6315Y4824D01*
X6313Y4824D01*
X6310Y4823D01*
X6308Y4823D01*
X6305Y4822D01*
X6303Y4821D01*
X6301Y4820D01*
X6300Y4818D01*
X6293Y4828D01*
X6294Y4830D01*
X6295Y4831D01*
X6296Y4833D01*
X6298Y4836D01*
X6299Y4838D01*
X6300Y4841D01*
X6301Y4847D01*
X6302Y4851D01*
X6303Y4855D01*
X6324Y4824D01*
D02*
G37*
G36*
X6354Y4802D02*
X6354Y4800D01*
X6354Y4798D01*
X6355Y4797D01*
X6355Y4796D01*
X6356Y4794D01*
X6357Y4794D01*
X6358Y4793D01*
X6359Y4793D01*
X6360Y4792D01*
X6342Y4793D01*
X6342Y4793D01*
X6342Y4793D01*
X6342Y4805D01*
X6354D01*
X6354Y4802D01*
D02*
G37*
G36*
X5145Y4776D02*
X5143Y4773D01*
X5139Y4769D01*
X5138Y4767D01*
X5137Y4765D01*
X5136Y4764D01*
X5136Y4762D01*
X5136Y4761D01*
X5136Y4760D01*
X5137Y4759D01*
X5122Y4777D01*
X5123Y4777D01*
X5124Y4776D01*
X5125Y4776D01*
X5126Y4777D01*
X5128Y4777D01*
X5130Y4778D01*
X5132Y4780D01*
X5134Y4781D01*
X5139Y4786D01*
X5145Y4776D01*
D02*
G37*
G36*
X5051Y4749D02*
X5050Y4750D01*
X5050Y4751D01*
X5049Y4752D01*
X5049Y4753D01*
X5048Y4753D01*
X5046Y4754D01*
X5045Y4754D01*
X5043Y4755D01*
X5041Y4755D01*
X5039Y4755D01*
Y4767D01*
X5041Y4767D01*
X5043Y4767D01*
X5045Y4768D01*
X5046Y4768D01*
X5048Y4768D01*
X5049Y4769D01*
X5049Y4770D01*
X5050Y4771D01*
X5050Y4772D01*
X5051Y4773D01*
Y4749D01*
D02*
G37*
G36*
X6373Y4778D02*
X6373Y4776D01*
X6373Y4775D01*
X6373Y4774D01*
X6374Y4772D01*
X6375Y4770D01*
X6376Y4768D01*
X6378Y4766D01*
X6379Y4764D01*
X6382Y4762D01*
X6378Y4749D01*
X6375Y4751D01*
X6370Y4755D01*
X6368Y4757D01*
X6366Y4758D01*
X6365Y4759D01*
X6363Y4759D01*
X6362Y4759D01*
X6361Y4758D01*
X6361Y4757D01*
X6373Y4779D01*
X6373Y4778D01*
D02*
G37*
G36*
X6318Y4775D02*
X6317Y4774D01*
X6318Y4772D01*
X6318Y4771D01*
X6319Y4769D01*
X6321Y4766D01*
X6323Y4764D01*
X6328Y4758D01*
X6331Y4755D01*
X6320Y4749D01*
X6317Y4751D01*
X6313Y4755D01*
X6311Y4757D01*
X6309Y4758D01*
X6308Y4758D01*
X6306Y4759D01*
X6305Y4759D01*
X6304Y4758D01*
X6303Y4757D01*
X6318Y4776D01*
X6318Y4775D01*
D02*
G37*
G36*
X5081Y4760D02*
X5081Y4759D01*
X5081Y4758D01*
X5081Y4756D01*
X5082Y4755D01*
X5083Y4753D01*
X5084Y4751D01*
X5086Y4749D01*
X5090Y4744D01*
X5084Y4734D01*
X5081Y4736D01*
X5077Y4740D01*
X5075Y4742D01*
X5073Y4743D01*
X5071Y4743D01*
X5070Y4744D01*
X5069Y4744D01*
X5068Y4743D01*
X5067Y4743D01*
X5082Y4761D01*
X5081Y4760D01*
D02*
G37*
G36*
X5003Y4723D02*
X5002Y4723D01*
X5002Y4724D01*
X5001Y4725D01*
X5000Y4725D01*
X4999Y4726D01*
X4997Y4726D01*
X4996Y4726D01*
X4995Y4726D01*
X4993Y4726D01*
X4991Y4727D01*
Y4739D01*
X4993Y4739D01*
X4995Y4739D01*
X4996Y4739D01*
X4997Y4739D01*
X4999Y4739D01*
X5000Y4740D01*
X5001Y4740D01*
X5002Y4741D01*
X5002Y4742D01*
X5003Y4742D01*
Y4723D01*
D02*
G37*
G36*
X6301Y4728D02*
X6307Y4722D01*
X6310Y4721D01*
X6311Y4720D01*
X6313Y4719D01*
X6315Y4718D01*
X6317Y4718D01*
X6318Y4718D01*
X6287D01*
X6287Y4719D01*
X6286Y4723D01*
X6286Y4724D01*
X6286Y4725D01*
X6286Y4725D01*
X6286Y4726D01*
X6285Y4726D01*
X6298Y4730D01*
X6301Y4728D01*
D02*
G37*
G36*
X6356Y4726D02*
X6356Y4722D01*
X6357Y4721D01*
X6357Y4720D01*
X6357Y4719D01*
X6358Y4718D01*
X6358Y4718D01*
X6359Y4718D01*
X6360Y4717D01*
X6342Y4718D01*
X6342Y4718D01*
X6343Y4718D01*
X6343Y4718D01*
X6343Y4719D01*
X6344Y4720D01*
X6344Y4721D01*
X6344Y4722D01*
X6344Y4726D01*
X6344Y4727D01*
X6356D01*
X6356Y4726D01*
D02*
G37*
G36*
X5031Y4734D02*
X5031Y4732D01*
X5031Y4731D01*
X5032Y4730D01*
X5032Y4729D01*
X5033Y4727D01*
X5034Y4726D01*
X5035Y4725D01*
X5036Y4724D01*
X5037Y4723D01*
X5030Y4713D01*
X5029Y4714D01*
X5028Y4715D01*
X5026Y4716D01*
X5025Y4716D01*
X5024Y4717D01*
X5023Y4717D01*
X5022Y4717D01*
X5020Y4717D01*
X5019Y4717D01*
X5018Y4717D01*
X5030Y4735D01*
X5031Y4734D01*
D02*
G37*
G36*
X5725Y4715D02*
X5725Y4713D01*
X5726Y4710D01*
X5727Y4708D01*
X5729Y4705D01*
X5730Y4703D01*
X5732Y4700D01*
X5734Y4697D01*
X5740Y4691D01*
X5698D01*
X5701Y4694D01*
X5705Y4700D01*
X5707Y4703D01*
X5709Y4705D01*
X5710Y4708D01*
X5711Y4710D01*
X5712Y4713D01*
X5713Y4715D01*
X5713Y4717D01*
X5725D01*
X5725Y4715D01*
D02*
G37*
G36*
X6403Y4709D02*
X6404Y4708D01*
X6405Y4707D01*
X6407Y4707D01*
X6408Y4706D01*
X6409Y4706D01*
X6410Y4705D01*
X6412Y4705D01*
X6413Y4705D01*
X6414Y4705D01*
X6399Y4690D01*
X6399Y4691D01*
X6399Y4692D01*
X6399Y4693D01*
X6398Y4695D01*
X6398Y4696D01*
X6397Y4697D01*
X6396Y4698D01*
X6396Y4700D01*
X6395Y4701D01*
X6394Y4702D01*
X6402Y4710D01*
X6403Y4709D01*
D02*
G37*
G36*
X5051Y4709D02*
X5056Y4705D01*
X5058Y4703D01*
X5059Y4702D01*
X5061Y4702D01*
X5062Y4701D01*
X5064Y4701D01*
X5065Y4702D01*
X5066Y4702D01*
X5051Y4684D01*
X5051Y4685D01*
X5052Y4686D01*
X5051Y4687D01*
X5051Y4689D01*
X5050Y4690D01*
X5049Y4692D01*
X5048Y4694D01*
X5046Y4696D01*
X5042Y4701D01*
X5049Y4711D01*
X5051Y4709D01*
D02*
G37*
G36*
X6368Y4682D02*
X6367Y4682D01*
X6366Y4681D01*
X6366Y4681D01*
X6365Y4679D01*
X6365Y4678D01*
X6364Y4677D01*
X6364Y4675D01*
X6364Y4673D01*
X6364Y4670D01*
X6352D01*
X6351Y4673D01*
X6351Y4675D01*
X6351Y4677D01*
X6351Y4678D01*
X6350Y4679D01*
X6349Y4681D01*
X6349Y4681D01*
X6348Y4682D01*
X6347Y4682D01*
X6346Y4683D01*
X6370D01*
X6368Y4682D01*
D02*
G37*
G36*
X6414Y4674D02*
X6413Y4674D01*
X6412Y4674D01*
X6410Y4673D01*
X6409Y4673D01*
X6408Y4673D01*
X6407Y4672D01*
X6405Y4671D01*
X6404Y4670D01*
X6403Y4669D01*
X6402Y4668D01*
X6394Y4677D01*
X6395Y4678D01*
X6396Y4679D01*
X6396Y4680D01*
X6397Y4682D01*
X6398Y4683D01*
X6398Y4684D01*
X6399Y4685D01*
X6399Y4687D01*
X6399Y4688D01*
X6399Y4689D01*
X6414Y4674D01*
D02*
G37*
G36*
X5077Y4667D02*
X5076Y4667D01*
X5075Y4666D01*
X5074Y4666D01*
X5074Y4664D01*
X5073Y4663D01*
X5073Y4662D01*
X5072Y4660D01*
X5072Y4658D01*
X5072Y4655D01*
X5060D01*
X5060Y4658D01*
X5060Y4660D01*
X5060Y4662D01*
X5059Y4663D01*
X5059Y4664D01*
X5058Y4666D01*
X5057Y4666D01*
X5056Y4667D01*
X5055Y4667D01*
X5054Y4668D01*
X5078D01*
X5077Y4667D01*
D02*
G37*
G36*
X4870Y4657D02*
X4868Y4655D01*
X4866Y4653D01*
X4865Y4651D01*
X4864Y4649D01*
X4863Y4647D01*
X4863Y4645D01*
X4862Y4644D01*
X4863Y4642D01*
X4863Y4640D01*
X4864Y4639D01*
X4828Y4650D01*
X4850Y4672D01*
X4870Y4657D01*
D02*
G37*
G36*
X5072Y4637D02*
X5072Y4635D01*
X5073Y4633D01*
X5073Y4632D01*
X5074Y4631D01*
X5074Y4629D01*
X5075Y4629D01*
X5076Y4628D01*
X5077Y4628D01*
X5078Y4627D01*
X5054D01*
X5055Y4628D01*
X5056Y4628D01*
X5057Y4629D01*
X5058Y4629D01*
X5059Y4631D01*
X5059Y4632D01*
X5060Y4633D01*
X5060Y4635D01*
X5060Y4637D01*
X5060Y4640D01*
X5072D01*
X5072Y4637D01*
D02*
G37*
G36*
X6295Y4521D02*
X6296Y4518D01*
X6296Y4517D01*
X6296Y4516D01*
X6297Y4515D01*
X6297Y4514D01*
X6297Y4513D01*
X6298Y4513D01*
X6299Y4512D01*
X6279Y4513D01*
X6280Y4513D01*
X6281Y4513D01*
X6281Y4514D01*
X6282Y4514D01*
X6282Y4515D01*
X6283Y4516D01*
X6283Y4518D01*
X6283Y4519D01*
X6283Y4521D01*
X6283Y4523D01*
X6295D01*
X6295Y4521D01*
D02*
G37*
G36*
X6341Y4497D02*
X6342Y4496D01*
X6342Y4494D01*
X6342Y4493D01*
X6343Y4492D01*
X6343Y4490D01*
X6344Y4489D01*
X6344Y4488D01*
X6345Y4487D01*
X6346Y4486D01*
X6324D01*
X6325Y4487D01*
X6326Y4488D01*
X6327Y4489D01*
X6328Y4490D01*
X6328Y4492D01*
X6329Y4493D01*
X6329Y4494D01*
X6329Y4496D01*
X6329Y4497D01*
X6329Y4499D01*
X6341D01*
X6341Y4497D01*
D02*
G37*
G36*
X4849Y4461D02*
X4849Y4459D01*
X4849Y4457D01*
X4849Y4455D01*
X4850Y4454D01*
X4851Y4452D01*
X4851Y4451D01*
X4852Y4450D01*
X4853Y4449D01*
X4854Y4449D01*
X4830Y4451D01*
X4832Y4451D01*
X4833Y4452D01*
X4833Y4453D01*
X4834Y4454D01*
X4835Y4455D01*
X4836Y4456D01*
X4836Y4458D01*
X4836Y4459D01*
X4836Y4461D01*
X4837Y4463D01*
X4848D01*
X4849Y4461D01*
D02*
G37*
G36*
X6457Y4440D02*
X6457Y4441D01*
X6456Y4442D01*
X6456Y4443D01*
X6455Y4443D01*
X6454Y4444D01*
X6453Y4444D01*
X6452Y4445D01*
X6450Y4445D01*
X6449Y4445D01*
X6447Y4445D01*
Y4455D01*
X6449Y4455D01*
X6450Y4455D01*
X6452Y4456D01*
X6453Y4456D01*
X6454Y4456D01*
X6455Y4457D01*
X6456Y4458D01*
X6456Y4458D01*
X6457Y4459D01*
X6457Y4460D01*
Y4440D01*
D02*
G37*
G36*
X6299Y4460D02*
X6300Y4459D01*
X6300Y4458D01*
X6301Y4457D01*
X6302Y4455D01*
X6305Y4451D01*
X6309Y4447D01*
X6312Y4444D01*
X6308Y4432D01*
X6306Y4433D01*
X6304Y4435D01*
X6303Y4436D01*
X6302Y4437D01*
X6301Y4437D01*
X6300Y4437D01*
X6299Y4438D01*
X6298Y4437D01*
X6297Y4437D01*
X6299Y4461D01*
X6299Y4460D01*
D02*
G37*
G36*
X6547Y4394D02*
X6546Y4395D01*
X6545Y4396D01*
X6544Y4397D01*
X6543Y4397D01*
X6541Y4398D01*
X6540Y4398D01*
X6539Y4399D01*
X6537Y4399D01*
X6536Y4399D01*
X6534Y4399D01*
Y4411D01*
X6536Y4411D01*
X6537Y4411D01*
X6539Y4411D01*
X6540Y4412D01*
X6541Y4412D01*
X6543Y4413D01*
X6544Y4413D01*
X6545Y4414D01*
X6546Y4415D01*
X6547Y4416D01*
Y4394D01*
D02*
G37*
G36*
X6521Y4412D02*
X6522Y4412D01*
X6522Y4412D01*
X6523Y4411D01*
X6524Y4411D01*
X6527Y4411D01*
X6534Y4411D01*
Y4399D01*
X6531Y4399D01*
X6529Y4399D01*
X6527Y4398D01*
X6526Y4398D01*
X6524Y4398D01*
X6523Y4397D01*
X6523Y4396D01*
X6522Y4395D01*
X6522Y4394D01*
X6521Y4393D01*
X6521Y4412D01*
X6521Y4412D01*
D02*
G37*
G36*
X6427Y4401D02*
X6427Y4401D01*
X6427Y4400D01*
X6427Y4400D01*
X6426Y4399D01*
X6426Y4398D01*
X6426Y4396D01*
X6426Y4394D01*
X6426Y4393D01*
X6414D01*
X6414Y4394D01*
X6414Y4398D01*
X6414Y4399D01*
X6413Y4400D01*
X6413Y4400D01*
X6413Y4401D01*
X6413Y4401D01*
X6412Y4402D01*
X6428D01*
X6427Y4401D01*
D02*
G37*
G36*
X6363Y4393D02*
X6343Y4389D01*
X6343Y4390D01*
X6343Y4391D01*
X6344Y4392D01*
X6344Y4393D01*
X6343Y4394D01*
X6343Y4395D01*
X6343Y4396D01*
X6342Y4397D01*
X6341Y4398D01*
X6340Y4400D01*
X6350Y4406D01*
X6363Y4393D01*
D02*
G37*
G36*
X6299Y4407D02*
X6298Y4406D01*
X6298Y4404D01*
X6299Y4403D01*
X6300Y4401D01*
X6301Y4399D01*
X6302Y4397D01*
X6303Y4395D01*
X6305Y4393D01*
X6308Y4391D01*
X6303Y4379D01*
X6300Y4381D01*
X6295Y4385D01*
X6293Y4387D01*
X6292Y4388D01*
X6290Y4388D01*
X6289Y4389D01*
X6287Y4389D01*
X6286Y4388D01*
X6286Y4387D01*
X6299Y4408D01*
X6299Y4407D01*
D02*
G37*
G36*
X6453Y4367D02*
X6457Y4363D01*
X6459Y4362D01*
X6460Y4362D01*
X6461Y4361D01*
X6462Y4361D01*
X6463Y4361D01*
X6464Y4362D01*
X6464Y4363D01*
X6457Y4342D01*
X6457Y4343D01*
X6457Y4344D01*
X6457Y4346D01*
X6456Y4347D01*
X6456Y4348D01*
X6455Y4350D01*
X6454Y4351D01*
X6453Y4353D01*
X6451Y4355D01*
X6450Y4356D01*
X6451Y4369D01*
X6453Y4367D01*
D02*
G37*
G36*
X6299Y4360D02*
X6300Y4359D01*
X6300Y4357D01*
X6301Y4356D01*
X6302Y4354D01*
X6303Y4353D01*
X6306Y4349D01*
X6308Y4347D01*
X6310Y4345D01*
X6306Y4335D01*
X6305Y4335D01*
X6304Y4336D01*
X6304Y4337D01*
X6303Y4337D01*
X6302Y4338D01*
X6301Y4338D01*
X6301Y4338D01*
X6300Y4338D01*
X6299Y4338D01*
X6299Y4338D01*
X6299Y4361D01*
X6299Y4360D01*
D02*
G37*
G36*
X6344Y4354D02*
X6346Y4353D01*
X6347Y4352D01*
X6348Y4352D01*
X6349Y4351D01*
X6350Y4350D01*
X6352Y4350D01*
X6353Y4350D01*
X6354Y4349D01*
X6355Y4349D01*
X6356Y4349D01*
X6358Y4350D01*
X6359Y4350D01*
X6361Y4350D01*
X6362Y4351D01*
X6364Y4351D01*
X6365Y4352D01*
X6366Y4353D01*
X6367Y4354D01*
X6368Y4355D01*
X6375Y4348D01*
X6374Y4347D01*
X6374Y4345D01*
X6373Y4344D01*
X6372Y4343D01*
X6372Y4342D01*
X6371Y4340D01*
X6371Y4339D01*
X6371Y4337D01*
X6370Y4336D01*
X6370Y4334D01*
X6355Y4349D01*
X6340Y4335D01*
X6340Y4336D01*
X6339Y4337D01*
X6339Y4339D01*
X6339Y4340D01*
X6338Y4341D01*
X6338Y4342D01*
X6337Y4344D01*
X6336Y4345D01*
X6335Y4346D01*
X6334Y4347D01*
X6343Y4355D01*
X6344Y4354D01*
D02*
G37*
G36*
X6335Y4240D02*
X6337Y4239D01*
X6338Y4238D01*
X6339Y4237D01*
X6340Y4237D01*
X6342Y4236D01*
X6343Y4236D01*
X6345Y4236D01*
X6346Y4236D01*
X6348Y4235D01*
X6332Y4220D01*
X6332Y4222D01*
X6332Y4223D01*
X6332Y4225D01*
X6332Y4226D01*
X6331Y4228D01*
X6331Y4229D01*
X6330Y4230D01*
X6329Y4231D01*
X6328Y4232D01*
X6327Y4233D01*
X6334Y4240D01*
X6335Y4240D01*
D02*
G37*
G36*
X6230Y4333D02*
X6233Y4331D01*
X6236Y4330D01*
X6297D01*
X6300Y4331D01*
X6300Y4331D01*
X6309Y4321D01*
Y4246D01*
X6310Y4242D01*
X6313Y4238D01*
X6323Y4227D01*
X6323Y4227D01*
X6324Y4226D01*
X6324Y4226D01*
X6324Y4225D01*
X6325Y4224D01*
X6325Y4223D01*
X6325Y4222D01*
X6325Y4221D01*
X6325Y4220D01*
X6326Y4215D01*
X6321Y4212D01*
X6223Y4310D01*
Y4334D01*
X6224Y4334D01*
X6228Y4335D01*
X6230Y4333D01*
D02*
G37*
G36*
X6484Y4166D02*
X6481Y4168D01*
X6476Y4173D01*
X6474Y4174D01*
X6471Y4176D01*
X6469Y4177D01*
X6467Y4178D01*
X6465Y4178D01*
X6462Y4179D01*
X6460Y4179D01*
Y4191D01*
X6462Y4191D01*
X6465Y4192D01*
X6467Y4192D01*
X6469Y4193D01*
X6471Y4194D01*
X6474Y4196D01*
X6476Y4197D01*
X6479Y4199D01*
X6481Y4202D01*
X6484Y4204D01*
Y4166D01*
D02*
G37*
G36*
X5300Y4771D02*
X5299Y4771D01*
X5298Y4770D01*
X5297Y4769D01*
X5297Y4768D01*
X5296Y4767D01*
X5296Y4766D01*
X5295Y4764D01*
X5295Y4762D01*
X5295Y4759D01*
X5283D01*
X5283Y4762D01*
X5283Y4764D01*
X5283Y4766D01*
X5282Y4767D01*
X5282Y4768D01*
X5281Y4769D01*
X5280Y4770D01*
X5280Y4771D01*
X5279Y4771D01*
X5277Y4771D01*
X5301D01*
X5300Y4771D01*
D02*
G37*
G36*
X5293Y4716D02*
X5277Y4716D01*
X5278Y4716D01*
X5279Y4716D01*
X5280Y4717D01*
X5281Y4718D01*
X5282Y4719D01*
X5282Y4720D01*
X5283Y4722D01*
X5283Y4723D01*
X5283Y4725D01*
X5283Y4728D01*
X5295D01*
X5293Y4716D01*
D02*
G37*
G36*
X5233Y4736D02*
X5232Y4735D01*
X5232Y4734D01*
X5231Y4732D01*
X5231Y4731D01*
X5231Y4730D01*
X5230Y4727D01*
X5230Y4726D01*
X5230Y4725D01*
X5230Y4723D01*
X5231Y4722D01*
X5231Y4720D01*
X5232Y4719D01*
X5232Y4718D01*
X5233Y4717D01*
X5234Y4716D01*
X5235Y4716D01*
X5236Y4716D01*
X5212D01*
X5213Y4716D01*
X5214Y4716D01*
X5215Y4717D01*
X5216Y4718D01*
X5217Y4719D01*
X5217Y4720D01*
X5218Y4722D01*
X5218Y4723D01*
X5218Y4725D01*
X5217Y4726D01*
X5217Y4727D01*
X5216Y4728D01*
X5215Y4729D01*
X5215Y4730D01*
X5214Y4731D01*
X5213Y4731D01*
X5233Y4737D01*
X5233Y4736D01*
D02*
G37*
G36*
X5801Y4285D02*
X5799Y4283D01*
X5795Y4278D01*
X5793Y4276D01*
X5792Y4274D01*
X5792Y4273D01*
X5791Y4271D01*
X5791Y4270D01*
X5792Y4269D01*
X5793Y4268D01*
X5774Y4283D01*
X5775Y4283D01*
X5776Y4282D01*
X5778Y4283D01*
X5779Y4283D01*
X5781Y4284D01*
X5784Y4286D01*
X5786Y4288D01*
X5792Y4293D01*
X5795Y4296D01*
X5801Y4285D01*
D02*
G37*
G36*
X5323Y4284D02*
X5323Y4283D01*
X5324Y4282D01*
X5324Y4281D01*
X5325Y4280D01*
X5327Y4280D01*
X5328Y4279D01*
X5330Y4279D01*
X5332Y4279D01*
X5334Y4279D01*
Y4267D01*
X5332Y4267D01*
X5330Y4266D01*
X5328Y4266D01*
X5327Y4266D01*
X5325Y4265D01*
X5324Y4265D01*
X5324Y4264D01*
X5323Y4263D01*
X5323Y4262D01*
X5322Y4261D01*
Y4285D01*
X5323Y4284D01*
D02*
G37*
G36*
X5758Y4256D02*
X5757Y4257D01*
X5757Y4258D01*
X5756Y4259D01*
X5756Y4259D01*
X5754Y4260D01*
X5753Y4261D01*
X5752Y4261D01*
X5750Y4261D01*
X5748Y4261D01*
X5745Y4262D01*
Y4274D01*
X5748Y4274D01*
X5750Y4274D01*
X5752Y4274D01*
X5753Y4275D01*
X5754Y4275D01*
X5756Y4276D01*
X5756Y4276D01*
X5757Y4277D01*
X5757Y4278D01*
X5758Y4280D01*
Y4256D01*
D02*
G37*
G36*
X5733Y4278D02*
X5733Y4277D01*
X5734Y4276D01*
X5734Y4276D01*
X5736Y4275D01*
X5737Y4275D01*
X5738Y4274D01*
X5740Y4274D01*
X5742Y4274D01*
X5745Y4274D01*
Y4262D01*
X5742Y4261D01*
X5740Y4261D01*
X5738Y4261D01*
X5737Y4261D01*
X5736Y4260D01*
X5734Y4259D01*
X5734Y4259D01*
X5733Y4258D01*
X5733Y4257D01*
X5732Y4256D01*
Y4280D01*
X5733Y4278D01*
D02*
G37*
G36*
X5615Y4275D02*
X5617Y4274D01*
X5618Y4273D01*
X5619Y4272D01*
X5620Y4272D01*
X5621Y4271D01*
X5623Y4271D01*
X5624Y4271D01*
X5625Y4271D01*
X5627Y4270D01*
X5611Y4255D01*
X5611Y4256D01*
X5611Y4258D01*
X5611Y4259D01*
X5610Y4260D01*
X5610Y4262D01*
X5609Y4263D01*
X5609Y4264D01*
X5608Y4265D01*
X5607Y4266D01*
X5606Y4267D01*
X5614Y4276D01*
X5615Y4275D01*
D02*
G37*
G36*
X5639Y4265D02*
X5640Y4264D01*
X5641Y4263D01*
X5642Y4263D01*
X5643Y4262D01*
X5645Y4262D01*
X5646Y4261D01*
X5647Y4261D01*
X5649Y4261D01*
X5650Y4261D01*
Y4249D01*
X5649Y4249D01*
X5647Y4249D01*
X5646Y4249D01*
X5645Y4248D01*
X5643Y4248D01*
X5642Y4247D01*
X5641Y4247D01*
X5640Y4246D01*
X5639Y4245D01*
X5638Y4244D01*
Y4266D01*
X5639Y4265D01*
D02*
G37*
G36*
X5253Y4638D02*
X5253Y4637D01*
X5253Y4636D01*
X5253Y4635D01*
X5254Y4633D01*
X5254Y4632D01*
X5255Y4631D01*
X5255Y4630D01*
X5256Y4629D01*
X5257Y4628D01*
X5246Y4622D01*
X5245Y4623D01*
X5242Y4625D01*
X5241Y4626D01*
X5239Y4628D01*
X5238Y4628D01*
X5236Y4629D01*
X5234Y4630D01*
X5254Y4639D01*
X5253Y4638D01*
D02*
G37*
G36*
X5264Y4621D02*
X5269Y4617D01*
X5271Y4616D01*
X5273Y4615D01*
X5274Y4614D01*
X5276Y4614D01*
X5277Y4614D01*
X5278Y4614D01*
X5279Y4615D01*
X5264Y4596D01*
X5264Y4597D01*
X5265Y4598D01*
X5265Y4599D01*
X5264Y4601D01*
X5263Y4603D01*
X5262Y4604D01*
X5261Y4606D01*
X5259Y4608D01*
X5255Y4613D01*
X5262Y4623D01*
X5264Y4621D01*
D02*
G37*
G36*
X5295Y4608D02*
X5295Y4607D01*
X5296Y4606D01*
X5297Y4605D01*
X5298Y4605D01*
X5299Y4604D01*
X5301Y4604D01*
X5303Y4604D01*
X5305Y4603D01*
X5307Y4603D01*
Y4591D01*
X5305Y4591D01*
X5303Y4591D01*
X5301Y4591D01*
X5299Y4590D01*
X5298Y4590D01*
X5297Y4589D01*
X5296Y4588D01*
X5295Y4587D01*
X5295Y4586D01*
X5295Y4585D01*
Y4609D01*
X5295Y4608D01*
D02*
G37*
G36*
X5290Y4580D02*
X5289Y4579D01*
X5288Y4579D01*
X5287Y4578D01*
X5287Y4577D01*
X5286Y4575D01*
X5286Y4574D01*
X5286Y4572D01*
X5285Y4570D01*
X5285Y4568D01*
X5273D01*
X5273Y4570D01*
X5273Y4572D01*
X5273Y4574D01*
X5272Y4575D01*
X5272Y4577D01*
X5271Y4578D01*
X5270Y4579D01*
X5269Y4579D01*
X5268Y4580D01*
X5267Y4580D01*
X5291D01*
X5290Y4580D01*
D02*
G37*
G36*
X5369Y4565D02*
X5363Y4554D01*
X5361Y4555D01*
X5360Y4556D01*
X5359Y4557D01*
X5358Y4557D01*
X5357Y4558D01*
X5356Y4558D01*
X5355Y4558D01*
X5354Y4557D01*
X5354Y4557D01*
X5353Y4556D01*
X5355Y4577D01*
X5369Y4565D01*
D02*
G37*
G36*
X5285Y4555D02*
X5286Y4553D01*
X5286Y4551D01*
X5286Y4549D01*
X5287Y4548D01*
X5287Y4547D01*
X5288Y4546D01*
X5289Y4545D01*
X5290Y4545D01*
X5291Y4545D01*
X5267D01*
X5268Y4545D01*
X5269Y4545D01*
X5270Y4546D01*
X5271Y4547D01*
X5272Y4548D01*
X5272Y4549D01*
X5273Y4551D01*
X5273Y4553D01*
X5273Y4555D01*
X5273Y4557D01*
X5285D01*
X5285Y4555D01*
D02*
G37*
G36*
X5378Y4552D02*
X5378Y4549D01*
X5378Y4548D01*
X5378Y4547D01*
X5379Y4546D01*
X5379Y4546D01*
X5379Y4545D01*
X5380Y4545D01*
X5380Y4545D01*
X5365Y4545D01*
X5365Y4545D01*
X5365Y4545D01*
X5365Y4546D01*
X5365Y4546D01*
X5366Y4547D01*
X5366Y4549D01*
X5366Y4553D01*
X5378D01*
X5378Y4552D01*
D02*
G37*
G36*
X5423Y4551D02*
X5427Y4547D01*
X5429Y4546D01*
X5431Y4545D01*
X5433Y4544D01*
X5434Y4544D01*
X5435Y4544D01*
X5436Y4544D01*
X5437Y4545D01*
X5420Y4528D01*
X5421Y4529D01*
X5421Y4530D01*
X5421Y4532D01*
X5421Y4533D01*
X5420Y4535D01*
X5419Y4536D01*
X5418Y4538D01*
X5416Y4541D01*
X5411Y4545D01*
X5420Y4553D01*
X5423Y4551D01*
D02*
G37*
G36*
X5290Y4510D02*
X5289Y4509D01*
X5288Y4509D01*
X5287Y4508D01*
X5287Y4507D01*
X5286Y4505D01*
X5286Y4504D01*
X5286Y4502D01*
X5285Y4500D01*
X5285Y4498D01*
X5273D01*
X5273Y4500D01*
X5273Y4502D01*
X5273Y4504D01*
X5272Y4505D01*
X5272Y4507D01*
X5271Y4508D01*
X5270Y4509D01*
X5269Y4509D01*
X5268Y4510D01*
X5267Y4510D01*
X5291D01*
X5290Y4510D01*
D02*
G37*
G36*
X5451Y4510D02*
X5452Y4510D01*
X5452Y4509D01*
X5452Y4509D01*
X5453Y4508D01*
X5453Y4507D01*
X5453Y4505D01*
X5453Y4502D01*
X5453Y4498D01*
X5441D01*
X5441Y4500D01*
X5441Y4502D01*
X5441Y4504D01*
X5440Y4505D01*
X5440Y4507D01*
X5439Y4508D01*
X5439Y4509D01*
X5438Y4509D01*
X5437Y4510D01*
X5435Y4510D01*
X5451Y4510D01*
D02*
G37*
G36*
X5383Y4510D02*
X5382Y4509D01*
X5381Y4509D01*
X5380Y4508D01*
X5379Y4507D01*
X5379Y4505D01*
X5378Y4504D01*
X5378Y4502D01*
X5378Y4500D01*
X5378Y4498D01*
X5366D01*
X5366Y4500D01*
X5365Y4509D01*
X5365Y4510D01*
X5365Y4510D01*
X5384Y4510D01*
X5383Y4510D01*
D02*
G37*
G36*
X5285Y4495D02*
X5286Y4493D01*
X5286Y4491D01*
X5286Y4489D01*
X5287Y4488D01*
X5287Y4487D01*
X5288Y4486D01*
X5289Y4485D01*
X5290Y4485D01*
X5291Y4485D01*
X5272Y4485D01*
X5272Y4485D01*
X5272Y4486D01*
X5273Y4486D01*
X5273Y4487D01*
X5273Y4488D01*
X5273Y4491D01*
X5273Y4497D01*
X5285D01*
X5285Y4495D01*
D02*
G37*
G36*
X5454Y4495D02*
X5454Y4493D01*
X5454Y4491D01*
X5454Y4489D01*
X5455Y4488D01*
X5456Y4487D01*
X5456Y4486D01*
X5457Y4485D01*
X5458Y4485D01*
X5459Y4485D01*
X5435D01*
X5437Y4485D01*
X5438Y4485D01*
X5439Y4486D01*
X5439Y4487D01*
X5440Y4488D01*
X5440Y4489D01*
X5441Y4491D01*
X5441Y4493D01*
X5441Y4495D01*
X5441Y4497D01*
X5453D01*
X5454Y4495D01*
D02*
G37*
G36*
X5251Y4485D02*
X5252Y4484D01*
X5253Y4483D01*
X5255Y4483D01*
X5256Y4482D01*
X5257Y4482D01*
X5258Y4481D01*
X5260Y4481D01*
X5261Y4481D01*
X5263Y4481D01*
Y4469D01*
X5261Y4469D01*
X5260Y4469D01*
X5258Y4469D01*
X5257Y4468D01*
X5256Y4468D01*
X5255Y4467D01*
X5253Y4467D01*
X5252Y4466D01*
X5251Y4465D01*
X5250Y4464D01*
Y4486D01*
X5251Y4485D01*
D02*
G37*
G36*
X5462Y4468D02*
X5462Y4466D01*
X5463Y4465D01*
X5463Y4463D01*
X5464Y4461D01*
X5466Y4459D01*
X5468Y4456D01*
X5473Y4451D01*
X5476Y4448D01*
X5465Y4441D01*
X5462Y4444D01*
X5458Y4448D01*
X5456Y4449D01*
X5454Y4450D01*
X5453Y4451D01*
X5451Y4451D01*
X5450Y4451D01*
X5449Y4451D01*
X5448Y4450D01*
X5463Y4469D01*
X5462Y4468D01*
D02*
G37*
G36*
X5353Y4450D02*
X5352Y4449D01*
X5351Y4449D01*
X5351Y4448D01*
X5350Y4447D01*
X5350Y4446D01*
X5349Y4444D01*
X5349Y4442D01*
X5349Y4440D01*
X5349Y4438D01*
X5337D01*
X5336Y4440D01*
X5336Y4442D01*
X5336Y4444D01*
X5336Y4446D01*
X5335Y4447D01*
X5334Y4448D01*
X5334Y4449D01*
X5333Y4449D01*
X5332Y4450D01*
X5331Y4450D01*
X5355D01*
X5353Y4450D01*
D02*
G37*
G36*
X5349Y4433D02*
X5349Y4425D01*
X5349Y4424D01*
X5349Y4424D01*
X5350Y4424D01*
X5350Y4423D01*
X5331Y4423D01*
X5332Y4423D01*
X5333Y4424D01*
X5334Y4424D01*
X5334Y4425D01*
X5335Y4426D01*
X5336Y4428D01*
X5336Y4429D01*
X5336Y4431D01*
X5336Y4433D01*
X5337Y4435D01*
X5349D01*
X5349Y4433D01*
D02*
G37*
G36*
X5409Y4538D02*
X5411Y4536D01*
X5412Y4534D01*
X5413Y4533D01*
Y4503D01*
X5434D01*
X5434Y4502D01*
X5434Y4501D01*
X5434Y4500D01*
Y4494D01*
X5434Y4494D01*
X5434Y4492D01*
X5434Y4492D01*
X5425D01*
Y4443D01*
X5453D01*
X5454Y4442D01*
X5457Y4439D01*
X5468Y4428D01*
X5468Y4427D01*
X5466Y4423D01*
X5454D01*
X5453Y4423D01*
X5452Y4423D01*
X5452Y4423D01*
Y4431D01*
X5386D01*
X5385Y4435D01*
Y4500D01*
X5385Y4501D01*
X5385Y4502D01*
X5385Y4503D01*
X5403D01*
Y4537D01*
X5408Y4539D01*
X5409Y4538D01*
D02*
G37*
G36*
X5259Y4430D02*
X5260Y4429D01*
X5261Y4428D01*
X5262Y4428D01*
X5263Y4427D01*
X5265Y4427D01*
X5266Y4426D01*
X5267Y4426D01*
X5269Y4426D01*
X5270Y4426D01*
Y4414D01*
X5269Y4414D01*
X5267Y4414D01*
X5266Y4414D01*
X5265Y4413D01*
X5263Y4413D01*
X5262Y4412D01*
X5261Y4412D01*
X5260Y4411D01*
X5259Y4410D01*
X5258Y4409D01*
Y4431D01*
X5259Y4430D01*
D02*
G37*
G36*
X5289Y4426D02*
X5295Y4426D01*
X5296Y4425D01*
X5297Y4425D01*
X5298Y4425D01*
X5299Y4424D01*
X5299Y4424D01*
X5299Y4423D01*
Y4408D01*
X5299Y4409D01*
X5299Y4410D01*
X5298Y4411D01*
X5297Y4412D01*
X5296Y4412D01*
X5295Y4413D01*
X5293Y4413D01*
X5291Y4414D01*
X5289Y4414D01*
X5287Y4414D01*
Y4426D01*
X5289Y4426D01*
D02*
G37*
G36*
X5525Y4412D02*
X5510Y4400D01*
X5510Y4401D01*
X5510Y4402D01*
X5509Y4402D01*
X5509Y4403D01*
X5508Y4403D01*
X5507Y4403D01*
X5506Y4404D01*
X5505Y4404D01*
X5503Y4404D01*
X5502Y4404D01*
X5507Y4416D01*
X5525Y4412D01*
D02*
G37*
G36*
X5444Y4421D02*
X5445Y4420D01*
X5445Y4419D01*
X5446Y4418D01*
X5447Y4417D01*
X5449Y4417D01*
X5450Y4416D01*
X5452Y4416D01*
X5454Y4416D01*
X5456Y4416D01*
Y4404D01*
X5454Y4404D01*
X5452Y4404D01*
X5450Y4403D01*
X5449Y4403D01*
X5447Y4402D01*
X5446Y4402D01*
X5445Y4401D01*
X5445Y4400D01*
X5444Y4399D01*
X5444Y4398D01*
Y4422D01*
X5444Y4421D01*
D02*
G37*
G36*
Y4383D02*
X5445Y4382D01*
X5445Y4381D01*
X5446Y4380D01*
X5447Y4380D01*
X5449Y4379D01*
X5450Y4379D01*
X5452Y4379D01*
X5454Y4378D01*
X5456Y4378D01*
Y4366D01*
X5454Y4366D01*
X5452Y4366D01*
X5450Y4366D01*
X5449Y4365D01*
X5447Y4365D01*
X5446Y4364D01*
X5445Y4363D01*
X5445Y4362D01*
X5444Y4361D01*
X5444Y4360D01*
Y4384D01*
X5444Y4383D01*
D02*
G37*
G36*
X5350Y4344D02*
X5350Y4343D01*
X5351Y4343D01*
X5351Y4342D01*
X5352Y4342D01*
X5353Y4341D01*
X5355Y4341D01*
X5356Y4341D01*
X5358Y4341D01*
X5359Y4341D01*
Y4329D01*
X5358Y4329D01*
X5355Y4329D01*
X5353Y4328D01*
X5352Y4328D01*
X5351Y4328D01*
X5351Y4327D01*
X5350Y4327D01*
X5350Y4326D01*
X5350Y4326D01*
Y4344D01*
X5350Y4344D01*
D02*
G37*
G36*
X5512Y4323D02*
X5512Y4324D01*
X5511Y4325D01*
X5511Y4326D01*
X5510Y4327D01*
X5509Y4327D01*
X5507Y4328D01*
X5506Y4328D01*
X5504Y4329D01*
X5502Y4329D01*
X5500Y4329D01*
Y4341D01*
X5502Y4341D01*
X5504Y4341D01*
X5506Y4341D01*
X5507Y4342D01*
X5509Y4342D01*
X5510Y4343D01*
X5511Y4344D01*
X5511Y4345D01*
X5512Y4346D01*
X5512Y4347D01*
Y4323D01*
D02*
G37*
G36*
X5444Y4346D02*
X5445Y4345D01*
X5445Y4344D01*
X5446Y4343D01*
X5447Y4342D01*
X5449Y4342D01*
X5450Y4341D01*
X5452Y4341D01*
X5454Y4341D01*
X5456Y4341D01*
Y4329D01*
X5454Y4329D01*
X5452Y4329D01*
X5450Y4328D01*
X5449Y4328D01*
X5447Y4327D01*
X5446Y4327D01*
X5445Y4326D01*
X5445Y4325D01*
X5444Y4324D01*
X5444Y4323D01*
Y4347D01*
X5444Y4346D01*
D02*
G37*
G36*
X5646Y4378D02*
X5646Y4378D01*
X5646Y4378D01*
X5647Y4377D01*
X5647Y4377D01*
X5647Y4376D01*
X5647Y4376D01*
X5649Y4374D01*
X5649Y4374D01*
X5641Y4365D01*
X5640Y4367D01*
X5634Y4371D01*
X5634Y4371D01*
X5634Y4371D01*
X5647Y4378D01*
X5646Y4378D01*
D02*
G37*
G36*
X5651Y4352D02*
X5651Y4351D01*
X5651Y4349D01*
X5652Y4348D01*
X5652Y4347D01*
X5653Y4345D01*
X5653Y4344D01*
X5654Y4343D01*
X5655Y4342D01*
X5656Y4341D01*
X5634D01*
X5635Y4342D01*
X5636Y4343D01*
X5637Y4344D01*
X5637Y4345D01*
X5638Y4347D01*
X5638Y4348D01*
X5639Y4349D01*
X5639Y4351D01*
X5639Y4352D01*
X5639Y4354D01*
X5651D01*
X5651Y4352D01*
D02*
G37*
G36*
X5634Y4319D02*
X5633Y4320D01*
X5632Y4321D01*
X5631Y4322D01*
X5630Y4322D01*
X5628Y4323D01*
X5627Y4323D01*
X5626Y4324D01*
X5624Y4324D01*
X5623Y4324D01*
X5621Y4324D01*
Y4336D01*
X5623Y4336D01*
X5624Y4336D01*
X5626Y4336D01*
X5627Y4337D01*
X5628Y4337D01*
X5630Y4338D01*
X5631Y4338D01*
X5632Y4339D01*
X5633Y4340D01*
X5634Y4341D01*
Y4319D01*
D02*
G37*
G36*
X5598Y4341D02*
X5599Y4340D01*
X5599Y4339D01*
X5600Y4338D01*
X5601Y4338D01*
X5602Y4337D01*
X5604Y4337D01*
X5606Y4336D01*
X5608Y4336D01*
X5610Y4336D01*
Y4324D01*
X5608Y4324D01*
X5606Y4324D01*
X5604Y4323D01*
X5602Y4323D01*
X5601Y4323D01*
X5600Y4322D01*
X5599Y4321D01*
X5599Y4320D01*
X5598Y4319D01*
X5598Y4318D01*
Y4342D01*
X5598Y4341D01*
D02*
G37*
G36*
X5167Y4555D02*
X5149Y4554D01*
X5146Y4566D01*
X5147Y4566D01*
X5149Y4566D01*
X5150Y4566D01*
X5151Y4567D01*
X5152Y4567D01*
X5153Y4568D01*
X5154Y4569D01*
X5154Y4569D01*
X5154Y4570D01*
X5155Y4571D01*
X5167Y4555D01*
D02*
G37*
G36*
X5185Y4565D02*
X5185Y4564D01*
X5185Y4564D01*
X5185Y4564D01*
X5186Y4563D01*
X5187Y4561D01*
X5189Y4559D01*
X5181Y4551D01*
X5180Y4552D01*
X5176Y4555D01*
X5176Y4555D01*
X5175Y4555D01*
X5175Y4555D01*
X5185Y4565D01*
X5185Y4565D01*
D02*
G37*
G36*
X5128Y4537D02*
X5128Y4536D01*
X5129Y4535D01*
X5130Y4534D01*
X5131Y4534D01*
X5132Y4533D01*
X5133Y4533D01*
X5134Y4533D01*
X5135Y4533D01*
X5136Y4533D01*
X5137Y4534D01*
X5138Y4534D01*
X5139Y4535D01*
X5140Y4536D01*
X5141Y4537D01*
X5142Y4538D01*
X5147Y4517D01*
X5146Y4518D01*
X5144Y4518D01*
X5143Y4519D01*
X5142Y4519D01*
X5141Y4519D01*
X5139Y4520D01*
X5138Y4520D01*
X5137Y4520D01*
X5136Y4520D01*
X5135Y4520D01*
X5133Y4520D01*
X5132Y4519D01*
X5131Y4519D01*
X5129Y4518D01*
X5129Y4517D01*
X5128Y4517D01*
X5128Y4516D01*
X5127Y4514D01*
X5128Y4538D01*
X5128Y4537D01*
D02*
G37*
G36*
X5018Y4511D02*
X5017Y4512D01*
X5017Y4513D01*
X5016Y4514D01*
X5016Y4514D01*
X5014Y4515D01*
X5013Y4516D01*
X5012Y4516D01*
X5010Y4516D01*
X5008Y4516D01*
X5005Y4517D01*
Y4529D01*
X5008Y4529D01*
X5010Y4529D01*
X5012Y4529D01*
X5013Y4530D01*
X5014Y4530D01*
X5016Y4531D01*
X5016Y4531D01*
X5017Y4532D01*
X5017Y4533D01*
X5018Y4535D01*
Y4511D01*
D02*
G37*
G36*
X4993Y4533D02*
X4993Y4532D01*
X4994Y4531D01*
X4994Y4531D01*
X4996Y4530D01*
X4997Y4530D01*
X4998Y4529D01*
X5000Y4529D01*
X5002Y4529D01*
X5005Y4529D01*
Y4517D01*
X5002Y4516D01*
X5000Y4516D01*
X4998Y4516D01*
X4997Y4516D01*
X4996Y4515D01*
X4994Y4514D01*
X4994Y4514D01*
X4993Y4513D01*
X4993Y4512D01*
X4992Y4511D01*
Y4535D01*
X4993Y4533D01*
D02*
G37*
G36*
X5115Y4507D02*
X5113Y4507D01*
X5112Y4507D01*
X5110Y4507D01*
X5109Y4506D01*
X5107Y4505D01*
X5104Y4504D01*
X5102Y4502D01*
X5096Y4497D01*
X5093Y4494D01*
X5084Y4502D01*
X5087Y4504D01*
X5091Y4509D01*
X5092Y4511D01*
X5093Y4513D01*
X5094Y4515D01*
X5094Y4516D01*
X5094Y4517D01*
X5093Y4518D01*
X5092Y4519D01*
X5115Y4507D01*
D02*
G37*
G36*
X5052Y4521D02*
X5051Y4520D01*
X5051Y4519D01*
X5052Y4517D01*
X5052Y4516D01*
X5053Y4514D01*
X5055Y4512D01*
X5056Y4510D01*
X5061Y4505D01*
X5055Y4494D01*
X5052Y4497D01*
X5044Y4504D01*
X5041Y4506D01*
X5039Y4507D01*
X5038Y4507D01*
X5036Y4508D01*
X5035Y4508D01*
X5034Y4507D01*
X5052Y4522D01*
X5052Y4521D01*
D02*
G37*
G36*
X5075Y4491D02*
X5075Y4491D01*
X5075Y4491D01*
X5084Y4483D01*
X5083Y4482D01*
X5083Y4481D01*
X5082Y4480D01*
X5082Y4479D01*
X5082Y4478D01*
X5081Y4476D01*
X5081Y4470D01*
X5081Y4468D01*
X5069D01*
X5069Y4470D01*
X5069Y4473D01*
X5068Y4475D01*
X5068Y4477D01*
X5067Y4479D01*
X5066Y4481D01*
X5065Y4483D01*
X5064Y4485D01*
X5062Y4487D01*
X5061Y4489D01*
X5067Y4500D01*
X5075Y4491D01*
D02*
G37*
G36*
X4960Y4489D02*
X4964Y4485D01*
X4966Y4484D01*
X4968Y4483D01*
X4970Y4482D01*
X4971Y4482D01*
X4972Y4482D01*
X4973Y4482D01*
X4974Y4483D01*
X4958Y4466D01*
X4958Y4467D01*
X4959Y4468D01*
X4959Y4469D01*
X4958Y4471D01*
X4957Y4472D01*
X4956Y4474D01*
X4955Y4476D01*
X4953Y4478D01*
X4949Y4483D01*
X4957Y4492D01*
X4960Y4489D01*
D02*
G37*
G36*
X5109Y4452D02*
X5108Y4451D01*
X5107Y4451D01*
X5106Y4450D01*
X5106Y4449D01*
X5105Y4447D01*
X5105Y4446D01*
X5105Y4444D01*
X5104Y4442D01*
X5104Y4440D01*
X5092D01*
X5092Y4452D01*
X5110D01*
X5109Y4452D01*
D02*
G37*
G36*
X4986D02*
X4985Y4451D01*
X4984Y4451D01*
X4983Y4450D01*
X4983Y4449D01*
X4982Y4447D01*
X4982Y4446D01*
X4981Y4444D01*
X4981Y4442D01*
X4981Y4440D01*
X4969D01*
X4969Y4442D01*
X4969Y4444D01*
X4968Y4446D01*
X4968Y4447D01*
X4968Y4449D01*
X4967Y4450D01*
X4966Y4451D01*
X4965Y4451D01*
X4964Y4452D01*
X4963Y4452D01*
X4987D01*
X4986Y4452D01*
D02*
G37*
G36*
X5140Y4512D02*
X5141Y4512D01*
X5141Y4512D01*
X5142Y4511D01*
X5143Y4511D01*
X5144Y4511D01*
X5146Y4509D01*
X5149Y4508D01*
X5150Y4508D01*
X5155Y4507D01*
X5160Y4508D01*
X5161Y4508D01*
X5164Y4509D01*
X5167Y4511D01*
X5172Y4508D01*
Y4441D01*
X5126Y4395D01*
X5125Y4394D01*
X5123Y4393D01*
X5122Y4392D01*
X5121Y4391D01*
X5120Y4391D01*
X5116D01*
X5116Y4391D01*
X5116Y4391D01*
X5102D01*
Y4403D01*
X5108Y4409D01*
X5111Y4413D01*
X5112Y4418D01*
Y4442D01*
X5112Y4443D01*
X5112Y4444D01*
X5112Y4445D01*
X5135D01*
Y4490D01*
X5107D01*
X5105Y4495D01*
X5106Y4496D01*
X5108Y4498D01*
X5110Y4499D01*
X5112Y4500D01*
X5135D01*
Y4509D01*
X5135Y4509D01*
X5136Y4510D01*
X5137Y4511D01*
X5140Y4512D01*
X5140Y4512D01*
D02*
G37*
G36*
X5150Y4392D02*
X5147Y4389D01*
X5143Y4384D01*
X5141Y4382D01*
X5140Y4380D01*
X5140Y4379D01*
X5139Y4377D01*
X5140Y4376D01*
X5140Y4375D01*
X5141Y4375D01*
X5116Y4384D01*
X5118Y4384D01*
X5119Y4384D01*
X5121Y4384D01*
X5122Y4384D01*
X5124Y4385D01*
X5126Y4386D01*
X5127Y4387D01*
X5129Y4389D01*
X5131Y4390D01*
X5133Y4392D01*
X5150Y4392D01*
D02*
G37*
G36*
X4965Y4406D02*
X4963Y4405D01*
X4962Y4403D01*
X4961Y4401D01*
X4960Y4399D01*
X4959Y4396D01*
X4959Y4393D01*
X4958Y4390D01*
X4958Y4387D01*
X4958Y4384D01*
X4957Y4380D01*
X4930Y4407D01*
X4934Y4408D01*
X4940Y4408D01*
X4943Y4409D01*
X4946Y4409D01*
X4949Y4410D01*
X4951Y4411D01*
X4953Y4412D01*
X4955Y4413D01*
X4956Y4415D01*
X4965Y4406D01*
D02*
G37*
G36*
X5013Y4361D02*
X5012Y4362D01*
X5011Y4362D01*
X5010Y4362D01*
X5008Y4362D01*
X5007Y4361D01*
X5005Y4360D01*
X5003Y4359D01*
X5001Y4357D01*
X4996Y4352D01*
X4991Y4365D01*
X4994Y4367D01*
X4997Y4371D01*
X4998Y4373D01*
X4999Y4375D01*
X5000Y4377D01*
X5000Y4378D01*
X5001Y4379D01*
X5000Y4381D01*
X5000Y4382D01*
X5013Y4361D01*
D02*
G37*
G36*
X4930Y4353D02*
X4926Y4352D01*
X4920Y4352D01*
X4917Y4351D01*
X4914Y4351D01*
X4911Y4350D01*
X4909Y4349D01*
X4907Y4348D01*
X4905Y4347D01*
X4904Y4345D01*
X4895Y4354D01*
X4897Y4355D01*
X4898Y4357D01*
X4899Y4359D01*
X4900Y4361D01*
X4901Y4364D01*
X4901Y4367D01*
X4902Y4370D01*
X4902Y4373D01*
X4902Y4376D01*
X4903Y4380D01*
X4930Y4353D01*
D02*
G37*
G36*
X5245Y4340D02*
X5244Y4339D01*
X5242Y4339D01*
X5241Y4339D01*
X5240Y4339D01*
X5238Y4338D01*
X5237Y4338D01*
X5236Y4337D01*
X5235Y4336D01*
X5234Y4335D01*
X5233Y4334D01*
X5224Y4343D01*
X5225Y4344D01*
X5226Y4345D01*
X5227Y4346D01*
X5228Y4347D01*
X5228Y4348D01*
X5229Y4350D01*
X5229Y4351D01*
X5229Y4352D01*
X5229Y4353D01*
X5230Y4355D01*
X5245Y4340D01*
D02*
G37*
G36*
X5100Y4353D02*
X5105Y4348D01*
X5107Y4347D01*
X5109Y4346D01*
X5110Y4345D01*
X5112Y4345D01*
X5113Y4345D01*
X5114Y4346D01*
X5115Y4346D01*
X5102Y4325D01*
X5103Y4326D01*
X5103Y4327D01*
X5103Y4329D01*
X5102Y4330D01*
X5102Y4332D01*
X5101Y4334D01*
X5099Y4336D01*
X5098Y4338D01*
X5096Y4340D01*
X5094Y4342D01*
X5098Y4355D01*
X5100Y4353D01*
D02*
G37*
G36*
X5141Y4346D02*
X5142Y4345D01*
X5142Y4344D01*
X5143Y4343D01*
X5144Y4342D01*
X5146Y4342D01*
X5147Y4341D01*
X5149Y4341D01*
X5151Y4341D01*
X5153Y4341D01*
Y4329D01*
X5151Y4329D01*
X5149Y4329D01*
X5147Y4328D01*
X5146Y4328D01*
X5144Y4327D01*
X5143Y4327D01*
X5142Y4326D01*
X5142Y4325D01*
X5141Y4324D01*
X5141Y4323D01*
Y4347D01*
X5141Y4346D01*
D02*
G37*
G36*
X4864Y4338D02*
X4865Y4337D01*
X4866Y4336D01*
X4867Y4336D01*
X4869Y4335D01*
X4870Y4335D01*
X4872Y4334D01*
X4874Y4334D01*
X4876Y4334D01*
X4878Y4334D01*
Y4322D01*
X4876Y4322D01*
X4874Y4321D01*
X4873Y4321D01*
X4871Y4321D01*
X4870Y4320D01*
X4869Y4319D01*
X4868Y4319D01*
X4867Y4318D01*
X4866Y4317D01*
X4866Y4315D01*
X4863Y4339D01*
X4864Y4338D01*
D02*
G37*
G36*
X4883Y4239D02*
X4881Y4237D01*
X4877Y4233D01*
X4875Y4231D01*
X4870Y4222D01*
X4866Y4216D01*
X4864Y4212D01*
X4854Y4248D01*
X4857Y4247D01*
X4859Y4246D01*
X4862Y4245D01*
X4864Y4245D01*
X4866Y4245D01*
X4868Y4245D01*
X4870Y4246D01*
X4872Y4247D01*
X4874Y4248D01*
X4876Y4249D01*
X4883Y4239D01*
D02*
G37*
G36*
X5039Y4308D02*
X5039Y4307D01*
X5040Y4306D01*
X5041Y4306D01*
X5042Y4305D01*
X5043Y4304D01*
X5045Y4304D01*
X5047Y4304D01*
X5049Y4304D01*
X5051Y4304D01*
Y4292D01*
X5049Y4291D01*
X5047Y4291D01*
X5045Y4291D01*
X5043Y4291D01*
X5042Y4290D01*
X5041Y4289D01*
X5040Y4289D01*
X5039Y4288D01*
X5039Y4287D01*
X5039Y4286D01*
Y4309D01*
X5039Y4308D01*
D02*
G37*
G36*
X5236Y4256D02*
X5236Y4257D01*
X5236Y4258D01*
X5235Y4259D01*
X5234Y4259D01*
X5233Y4260D01*
X5232Y4261D01*
X5230Y4261D01*
X5228Y4261D01*
X5226Y4261D01*
X5224Y4262D01*
Y4274D01*
X5226Y4274D01*
X5228Y4274D01*
X5230Y4274D01*
X5232Y4275D01*
X5233Y4275D01*
X5234Y4276D01*
X5235Y4276D01*
X5236Y4277D01*
X5236Y4278D01*
X5236Y4280D01*
Y4256D01*
D02*
G37*
G36*
X5031Y4215D02*
X5030Y4216D01*
X5029Y4216D01*
X5027Y4216D01*
X5026Y4216D01*
X5024Y4215D01*
X5023Y4214D01*
X5021Y4213D01*
X5019Y4211D01*
X5014Y4207D01*
X5005Y4215D01*
X5008Y4218D01*
X5011Y4222D01*
X5013Y4224D01*
X5014Y4226D01*
X5014Y4227D01*
X5015Y4229D01*
X5015Y4230D01*
X5015Y4231D01*
X5014Y4232D01*
X5031Y4215D01*
D02*
G37*
G36*
X4995Y4210D02*
X4995Y4210D01*
X4995Y4210D01*
X4996Y4210D01*
X5000Y4210D01*
X5003Y4210D01*
Y4198D01*
X5002Y4198D01*
X4999Y4198D01*
X4998Y4198D01*
X4998Y4198D01*
X4998Y4198D01*
X4998Y4197D01*
X4997Y4197D01*
X4995Y4210D01*
X4995Y4210D01*
D02*
G37*
G36*
X5315Y4198D02*
X5313Y4197D01*
X5312Y4197D01*
X5311Y4197D01*
X5310Y4197D01*
X5308Y4196D01*
X5307Y4196D01*
X5306Y4195D01*
X5305Y4194D01*
X5304Y4193D01*
X5303Y4192D01*
X5294Y4201D01*
X5295Y4202D01*
X5296Y4203D01*
X5297Y4204D01*
X5298Y4205D01*
X5298Y4206D01*
X5299Y4208D01*
X5299Y4209D01*
X5299Y4210D01*
X5299Y4212D01*
X5300Y4213D01*
X5315Y4198D01*
D02*
G37*
G36*
X4855Y4148D02*
X4871Y4142D01*
X4873Y4142D01*
X4877Y4141D01*
X4879Y4141D01*
X4884Y4129D01*
X4881Y4129D01*
X4879Y4128D01*
X4877Y4128D01*
X4875Y4127D01*
X4873Y4125D01*
X4871Y4124D01*
X4870Y4122D01*
X4868Y4120D01*
X4867Y4117D01*
X4865Y4114D01*
X4851Y4150D01*
X4855Y4148D01*
D02*
G37*
G36*
X5911Y4050D02*
X5911Y4050D01*
X5911Y4047D01*
X5910Y4032D01*
X5885Y4013D01*
X5885Y4016D01*
X5885Y4019D01*
X5885Y4021D01*
X5884Y4024D01*
X5883Y4026D01*
X5882Y4027D01*
X5881Y4029D01*
X5879Y4030D01*
X5878Y4031D01*
X5876Y4031D01*
X5911Y4051D01*
X5911Y4050D01*
D02*
G37*
G36*
X5325Y4030D02*
X5323Y4030D01*
X5321Y4028D01*
X5320Y4027D01*
X5318Y4024D01*
X5317Y4022D01*
X5316Y4018D01*
X5316Y4015D01*
X5315Y4010D01*
X5315Y4006D01*
X5290D01*
X5290Y4010D01*
X5290Y4015D01*
X5289Y4018D01*
X5288Y4022D01*
X5287Y4024D01*
X5286Y4027D01*
X5284Y4028D01*
X5282Y4030D01*
X5280Y4030D01*
X5278Y4031D01*
X5328D01*
X5325Y4030D01*
D02*
G37*
G36*
X5181Y3722D02*
X5184Y3720D01*
X5187Y3717D01*
X5190Y3716D01*
X5193Y3714D01*
X5196Y3713D01*
X5199Y3712D01*
X5203Y3711D01*
X5206Y3711D01*
X5210Y3710D01*
Y3685D01*
X5206Y3685D01*
X5203Y3685D01*
X5199Y3684D01*
X5196Y3683D01*
X5193Y3682D01*
X5190Y3680D01*
X5187Y3678D01*
X5184Y3676D01*
X5181Y3674D01*
X5178Y3671D01*
Y3725D01*
X5181Y3722D01*
D02*
G37*
G36*
X5315Y3728D02*
X5316Y3723D01*
X5316Y3718D01*
X5317Y3714D01*
X5318Y3709D01*
X5320Y3705D01*
X5322Y3701D01*
X5324Y3697D01*
X5327Y3693D01*
X5330Y3689D01*
X5333Y3685D01*
X5315Y3668D01*
X5312Y3671D01*
X5308Y3674D01*
X5304Y3677D01*
X5300Y3679D01*
X5296Y3681D01*
X5292Y3683D01*
X5287Y3684D01*
X5282Y3685D01*
X5278Y3685D01*
X5273Y3685D01*
X5265Y3710D01*
X5270Y3711D01*
X5274Y3711D01*
X5278Y3713D01*
X5281Y3714D01*
X5284Y3717D01*
X5286Y3719D01*
X5288Y3723D01*
X5289Y3726D01*
X5290Y3731D01*
X5290Y3735D01*
X5315Y3728D01*
D02*
G37*
G36*
X5752Y3620D02*
X5753Y3615D01*
X5753Y3610D01*
X5754Y3606D01*
X5755Y3601D01*
X5757Y3597D01*
X5759Y3593D01*
X5761Y3589D01*
X5764Y3585D01*
X5767Y3581D01*
X5770Y3578D01*
X5752Y3560D01*
X5749Y3563D01*
X5745Y3566D01*
X5741Y3569D01*
X5737Y3571D01*
X5733Y3573D01*
X5729Y3575D01*
X5724Y3576D01*
X5719Y3577D01*
X5715Y3577D01*
X5710Y3578D01*
X5702Y3602D01*
X5707Y3603D01*
X5711Y3603D01*
X5715Y3605D01*
X5718Y3606D01*
X5721Y3609D01*
X5723Y3612D01*
X5725Y3615D01*
X5726Y3618D01*
X5727Y3623D01*
X5727Y3628D01*
X5752Y3620D01*
D02*
G37*
G36*
X5122Y3549D02*
X5125Y3547D01*
X5128Y3545D01*
X5131Y3543D01*
X5134Y3542D01*
X5137Y3540D01*
X5141Y3539D01*
X5144Y3539D01*
X5148Y3538D01*
X5152Y3538D01*
X5112Y3502D01*
X5112Y3506D01*
X5112Y3510D01*
X5112Y3513D01*
X5111Y3517D01*
X5110Y3520D01*
X5109Y3523D01*
X5107Y3526D01*
X5105Y3529D01*
X5103Y3532D01*
X5101Y3534D01*
X5119Y3551D01*
X5122Y3549D01*
D02*
G37*
G36*
X5800Y3548D02*
X5803Y3546D01*
X5806Y3544D01*
X5809Y3542D01*
X5812Y3541D01*
X5815Y3540D01*
X5819Y3539D01*
X5822Y3538D01*
X5826Y3538D01*
X5830Y3538D01*
X5792Y3500D01*
X5792Y3504D01*
X5792Y3508D01*
X5791Y3511D01*
X5790Y3515D01*
X5789Y3518D01*
X5788Y3521D01*
X5786Y3524D01*
X5784Y3527D01*
X5782Y3530D01*
X5780Y3533D01*
X5797Y3550D01*
X5800Y3548D01*
D02*
G37*
G36*
X5358Y3456D02*
X5358Y3455D01*
X5359Y3454D01*
X5359Y3453D01*
X5361Y3453D01*
X5362Y3452D01*
X5363Y3452D01*
X5365Y3451D01*
X5367Y3451D01*
X5370Y3451D01*
Y3439D01*
X5367Y3439D01*
X5365Y3439D01*
X5363Y3438D01*
X5362Y3438D01*
X5361Y3438D01*
X5359Y3437D01*
X5359Y3436D01*
X5358Y3435D01*
X5358Y3434D01*
X5357Y3433D01*
Y3457D01*
X5358Y3456D01*
D02*
G37*
G36*
X5323Y3433D02*
X5322Y3434D01*
X5322Y3435D01*
X5321Y3436D01*
X5321Y3437D01*
X5319Y3438D01*
X5318Y3438D01*
X5317Y3438D01*
X5315Y3439D01*
X5313Y3439D01*
X5310Y3439D01*
Y3451D01*
X5313Y3451D01*
X5315Y3451D01*
X5317Y3452D01*
X5318Y3452D01*
X5319Y3453D01*
X5321Y3453D01*
X5321Y3454D01*
X5322Y3455D01*
X5322Y3456D01*
X5323Y3457D01*
Y3433D01*
D02*
G37*
G36*
X6048Y3453D02*
X6048Y3452D01*
X6049Y3451D01*
X6049Y3451D01*
X6051Y3450D01*
X6052Y3449D01*
X6053Y3449D01*
X6055Y3449D01*
X6057Y3448D01*
X6060Y3448D01*
Y3436D01*
X6057Y3436D01*
X6055Y3436D01*
X6053Y3436D01*
X6052Y3435D01*
X6051Y3435D01*
X6049Y3434D01*
X6049Y3433D01*
X6048Y3433D01*
X6048Y3432D01*
X6047Y3430D01*
Y3454D01*
X6048Y3453D01*
D02*
G37*
G36*
X6013Y3430D02*
X6012Y3432D01*
X6012Y3433D01*
X6011Y3433D01*
X6011Y3434D01*
X6009Y3435D01*
X6008Y3435D01*
X6007Y3436D01*
X6005Y3436D01*
X6003Y3436D01*
X6000Y3436D01*
Y3448D01*
X6003Y3448D01*
X6005Y3449D01*
X6007Y3449D01*
X6008Y3449D01*
X6009Y3450D01*
X6011Y3451D01*
X6011Y3451D01*
X6012Y3452D01*
X6012Y3453D01*
X6013Y3454D01*
Y3430D01*
D02*
G37*
G36*
X5785Y3404D02*
X5783Y3402D01*
X5782Y3400D01*
X5781Y3398D01*
X5779Y3396D01*
X5779Y3394D01*
X5778Y3392D01*
X5777Y3390D01*
X5777Y3388D01*
X5777Y3386D01*
X5776Y3383D01*
X5764D01*
X5764Y3386D01*
X5764Y3388D01*
X5764Y3390D01*
X5763Y3392D01*
X5762Y3394D01*
X5761Y3396D01*
X5760Y3398D01*
X5759Y3400D01*
X5758Y3402D01*
X5756Y3404D01*
X5762Y3415D01*
X5764Y3413D01*
X5765Y3412D01*
X5767Y3411D01*
X5769Y3411D01*
X5770Y3411D01*
X5772Y3411D01*
X5774Y3411D01*
X5776Y3412D01*
X5777Y3413D01*
X5779Y3415D01*
X5785Y3404D01*
D02*
G37*
G36*
X6372Y3408D02*
X6372Y3407D01*
X6373Y3406D01*
X6374Y3405D01*
X6375Y3404D01*
X6376Y3404D01*
X6378Y3403D01*
X6379Y3403D01*
X6381Y3403D01*
X6384Y3403D01*
Y3391D01*
X6381Y3391D01*
X6379Y3390D01*
X6378Y3390D01*
X6376Y3390D01*
X6375Y3389D01*
X6374Y3389D01*
X6373Y3388D01*
X6372Y3387D01*
X6372Y3386D01*
X6372Y3385D01*
Y3409D01*
X6372Y3408D01*
D02*
G37*
G36*
X5842Y3405D02*
X5843Y3404D01*
X5843Y3403D01*
X5844Y3402D01*
X5845Y3402D01*
X5846Y3401D01*
X5848Y3401D01*
X5850Y3401D01*
X5852Y3400D01*
X5854Y3400D01*
Y3388D01*
X5852Y3388D01*
X5850Y3388D01*
X5848Y3388D01*
X5846Y3387D01*
X5845Y3387D01*
X5844Y3386D01*
X5843Y3385D01*
X5843Y3384D01*
X5842Y3383D01*
X5842Y3382D01*
Y3406D01*
X5842Y3405D01*
D02*
G37*
G36*
X5669Y3382D02*
X5669Y3383D01*
X5668Y3384D01*
X5668Y3385D01*
X5667Y3386D01*
X5666Y3387D01*
X5665Y3387D01*
X5663Y3388D01*
X5661Y3388D01*
X5659Y3388D01*
X5657Y3388D01*
Y3400D01*
X5659Y3400D01*
X5661Y3401D01*
X5663Y3401D01*
X5665Y3401D01*
X5666Y3402D01*
X5667Y3402D01*
X5668Y3403D01*
X5668Y3404D01*
X5669Y3405D01*
X5669Y3406D01*
Y3382D01*
D02*
G37*
G36*
X5157Y3405D02*
X5157Y3404D01*
X5158Y3403D01*
X5159Y3402D01*
X5160Y3402D01*
X5161Y3401D01*
X5163Y3401D01*
X5164Y3401D01*
X5166Y3400D01*
X5169Y3400D01*
Y3388D01*
X5166Y3388D01*
X5164Y3388D01*
X5163Y3388D01*
X5161Y3387D01*
X5160Y3387D01*
X5159Y3386D01*
X5158Y3385D01*
X5157Y3384D01*
X5157Y3383D01*
X5157Y3382D01*
Y3406D01*
X5157Y3405D01*
D02*
G37*
G36*
X5007D02*
X5007Y3404D01*
X5008Y3403D01*
X5009Y3402D01*
X5010Y3402D01*
X5011Y3401D01*
X5013Y3401D01*
X5014Y3401D01*
X5016Y3400D01*
X5019Y3400D01*
Y3388D01*
X5016Y3388D01*
X5014Y3388D01*
X5013Y3388D01*
X5011Y3387D01*
X5010Y3387D01*
X5009Y3386D01*
X5008Y3385D01*
X5007Y3384D01*
X5007Y3383D01*
X5007Y3382D01*
Y3406D01*
X5007Y3405D01*
D02*
G37*
G36*
X6295Y3388D02*
X6294Y3387D01*
X6293Y3386D01*
X6293Y3385D01*
X6292Y3383D01*
X6292Y3382D01*
X6291Y3381D01*
X6291Y3379D01*
X6291Y3378D01*
X6291Y3376D01*
X6279D01*
X6279Y3378D01*
X6279Y3379D01*
X6279Y3381D01*
X6278Y3382D01*
X6278Y3383D01*
X6277Y3385D01*
X6277Y3386D01*
X6276Y3387D01*
X6275Y3388D01*
X6274Y3389D01*
X6296D01*
X6295Y3388D01*
D02*
G37*
G36*
X6221Y3374D02*
X6220Y3374D01*
X6219Y3373D01*
X6218Y3372D01*
X6217Y3371D01*
X6217Y3370D01*
X6217Y3368D01*
X6216Y3367D01*
X6216Y3364D01*
X6216Y3362D01*
X6204D01*
X6204Y3364D01*
X6204Y3367D01*
X6203Y3368D01*
X6203Y3370D01*
X6203Y3371D01*
X6202Y3372D01*
X6201Y3373D01*
X6200Y3374D01*
X6199Y3374D01*
X6198Y3374D01*
X6222D01*
X6221Y3374D01*
D02*
G37*
G36*
X5541Y3372D02*
X5540Y3371D01*
X5539Y3371D01*
X5539Y3370D01*
X5538Y3369D01*
X5537Y3367D01*
X5537Y3366D01*
X5537Y3364D01*
X5537Y3362D01*
X5537Y3360D01*
X5525D01*
X5524Y3362D01*
X5524Y3364D01*
X5524Y3366D01*
X5524Y3367D01*
X5523Y3369D01*
X5522Y3370D01*
X5522Y3371D01*
X5521Y3371D01*
X5520Y3372D01*
X5519Y3372D01*
X5542D01*
X5541Y3372D01*
D02*
G37*
G36*
X5114Y3338D02*
X5114Y3336D01*
X5114Y3334D01*
X5115Y3333D01*
X5115Y3331D01*
X5116Y3330D01*
X5116Y3329D01*
X5117Y3329D01*
X5118Y3328D01*
X5119Y3328D01*
X5096D01*
X5097Y3328D01*
X5098Y3329D01*
X5099Y3329D01*
X5100Y3330D01*
X5100Y3331D01*
X5101Y3333D01*
X5101Y3334D01*
X5101Y3336D01*
X5102Y3338D01*
X5102Y3340D01*
X5114D01*
X5114Y3338D01*
D02*
G37*
G36*
X6473Y3331D02*
X6461Y3325D01*
X6461Y3325D01*
X6461Y3326D01*
X6456Y3331D01*
X6464Y3339D01*
X6473Y3331D01*
D02*
G37*
G36*
X5782Y3334D02*
X5787Y3330D01*
X5789Y3329D01*
X5790Y3328D01*
X5792Y3327D01*
X5794Y3327D01*
X5795Y3327D01*
X5796Y3327D01*
X5797Y3328D01*
X5782Y3309D01*
X5782Y3310D01*
X5782Y3312D01*
X5782Y3313D01*
X5782Y3314D01*
X5781Y3316D01*
X5780Y3318D01*
X5779Y3320D01*
X5777Y3322D01*
X5773Y3326D01*
X5780Y3337D01*
X5782Y3334D01*
D02*
G37*
G36*
X6480Y3286D02*
X6480Y3285D01*
X6480Y3285D01*
X6479Y3284D01*
X6479Y3284D01*
X6479Y3283D01*
X6479Y3282D01*
X6479Y3280D01*
X6479Y3277D01*
X6467D01*
X6467Y3279D01*
X6466Y3282D01*
X6466Y3283D01*
X6466Y3284D01*
X6466Y3284D01*
X6466Y3285D01*
X6465Y3285D01*
X6465Y3286D01*
X6464Y3286D01*
X6481D01*
X6480Y3286D01*
D02*
G37*
G36*
X6558Y3286D02*
X6557Y3285D01*
X6556Y3285D01*
X6555Y3284D01*
X6555Y3283D01*
X6554Y3281D01*
X6554Y3280D01*
X6554Y3278D01*
X6553Y3276D01*
X6553Y3274D01*
X6541D01*
X6541Y3276D01*
X6541Y3278D01*
X6541Y3280D01*
X6540Y3281D01*
X6540Y3283D01*
X6539Y3284D01*
X6539Y3285D01*
X6538Y3285D01*
X6537Y3286D01*
X6536Y3286D01*
X6559D01*
X6558Y3286D01*
D02*
G37*
G36*
X6408D02*
X6407Y3285D01*
X6406Y3285D01*
X6405Y3284D01*
X6405Y3283D01*
X6404Y3281D01*
X6404Y3280D01*
X6404Y3278D01*
X6403Y3276D01*
X6403Y3274D01*
X6391D01*
X6391Y3276D01*
X6391Y3278D01*
X6391Y3280D01*
X6390Y3281D01*
X6390Y3283D01*
X6389Y3284D01*
X6389Y3285D01*
X6388Y3285D01*
X6387Y3286D01*
X6386Y3286D01*
X6409D01*
X6408Y3286D01*
D02*
G37*
G36*
X6258D02*
X6257Y3285D01*
X6256Y3285D01*
X6255Y3284D01*
X6255Y3283D01*
X6254Y3281D01*
X6254Y3280D01*
X6254Y3278D01*
X6253Y3276D01*
X6253Y3274D01*
X6241D01*
X6241Y3276D01*
X6241Y3278D01*
X6241Y3280D01*
X6240Y3281D01*
X6240Y3283D01*
X6239Y3284D01*
X6239Y3285D01*
X6238Y3285D01*
X6237Y3286D01*
X6236Y3286D01*
X6259D01*
X6258Y3286D01*
D02*
G37*
G36*
X5804Y3283D02*
X5804Y3283D01*
X5803Y3282D01*
X5803Y3281D01*
X5802Y3280D01*
X5802Y3279D01*
X5802Y3277D01*
X5802Y3276D01*
X5802Y3271D01*
X5790D01*
X5789Y3273D01*
X5789Y3276D01*
X5789Y3277D01*
X5789Y3279D01*
X5788Y3280D01*
X5787Y3281D01*
X5787Y3282D01*
X5786Y3283D01*
X5785Y3283D01*
X5784Y3283D01*
X5805D01*
X5804Y3283D01*
D02*
G37*
G36*
X5579D02*
X5578Y3283D01*
X5577Y3282D01*
X5576Y3281D01*
X5575Y3280D01*
X5575Y3279D01*
X5574Y3277D01*
X5574Y3276D01*
X5574Y3273D01*
X5574Y3271D01*
X5562D01*
X5562Y3273D01*
X5562Y3276D01*
X5561Y3277D01*
X5561Y3279D01*
X5560Y3280D01*
X5560Y3281D01*
X5559Y3282D01*
X5558Y3283D01*
X5557Y3283D01*
X5556Y3283D01*
X5580D01*
X5579Y3283D01*
D02*
G37*
G36*
X5191D02*
X5190Y3283D01*
X5189Y3282D01*
X5188Y3281D01*
X5188Y3280D01*
X5187Y3279D01*
X5187Y3277D01*
X5186Y3276D01*
X5186Y3273D01*
X5186Y3271D01*
X5174D01*
X5174Y3273D01*
X5174Y3277D01*
X5173Y3279D01*
X5173Y3280D01*
X5173Y3281D01*
X5172Y3282D01*
X5172Y3283D01*
X5171Y3283D01*
X5171Y3283D01*
X5192D01*
X5191Y3283D01*
D02*
G37*
G36*
X6484Y3275D02*
X6485Y3274D01*
X6486Y3273D01*
X6487Y3272D01*
X6488Y3272D01*
X6490Y3271D01*
X6491Y3271D01*
X6492Y3271D01*
X6494Y3271D01*
X6495Y3270D01*
X6480Y3255D01*
X6479Y3257D01*
X6479Y3258D01*
X6479Y3259D01*
X6479Y3260D01*
X6478Y3262D01*
X6478Y3263D01*
X6477Y3264D01*
X6476Y3265D01*
X6475Y3266D01*
X6474Y3267D01*
X6483Y3276D01*
X6484Y3275D01*
D02*
G37*
G36*
X6253Y3255D02*
X6254Y3252D01*
X6254Y3250D01*
X6255Y3248D01*
X6256Y3246D01*
X6256Y3244D01*
X6258Y3242D01*
X6259Y3240D01*
X6260Y3238D01*
X6262Y3237D01*
X6247Y3243D01*
X6241D01*
X6253Y3257D01*
X6253Y3255D01*
D02*
G37*
G36*
X6441Y3230D02*
X6441Y3228D01*
X6442Y3226D01*
X6442Y3225D01*
X6443Y3224D01*
X6443Y3222D01*
X6444Y3222D01*
X6445Y3221D01*
X6446Y3221D01*
X6447Y3220D01*
X6423D01*
X6424Y3221D01*
X6425Y3221D01*
X6426Y3222D01*
X6427Y3222D01*
X6427Y3224D01*
X6428Y3225D01*
X6428Y3226D01*
X6429Y3228D01*
X6429Y3230D01*
X6429Y3233D01*
X6441D01*
X6441Y3230D01*
D02*
G37*
G36*
X6536Y3223D02*
X6534Y3220D01*
X6530Y3215D01*
X6528Y3213D01*
X6527Y3212D01*
X6527Y3210D01*
X6526Y3209D01*
X6526Y3207D01*
X6527Y3206D01*
X6527Y3206D01*
X6509Y3220D01*
X6510Y3220D01*
X6511Y3220D01*
X6512Y3220D01*
X6514Y3220D01*
X6515Y3221D01*
X6517Y3222D01*
X6519Y3223D01*
X6521Y3225D01*
X6526Y3229D01*
X6536Y3223D01*
D02*
G37*
G36*
X6386D02*
X6384Y3220D01*
X6380Y3215D01*
X6378Y3213D01*
X6377Y3212D01*
X6377Y3210D01*
X6376Y3209D01*
X6376Y3207D01*
X6377Y3206D01*
X6377Y3206D01*
X6359Y3220D01*
X6360Y3220D01*
X6361Y3220D01*
X6362Y3220D01*
X6364Y3220D01*
X6365Y3221D01*
X6367Y3222D01*
X6369Y3223D01*
X6371Y3225D01*
X6376Y3229D01*
X6386Y3223D01*
D02*
G37*
G36*
X6236D02*
X6234Y3220D01*
X6230Y3215D01*
X6228Y3213D01*
X6227Y3212D01*
X6227Y3210D01*
X6226Y3209D01*
X6226Y3207D01*
X6227Y3206D01*
X6227Y3206D01*
X6209Y3220D01*
X6210Y3220D01*
X6211Y3220D01*
X6212Y3220D01*
X6214Y3220D01*
X6215Y3221D01*
X6217Y3222D01*
X6219Y3223D01*
X6221Y3225D01*
X6226Y3229D01*
X6236Y3223D01*
D02*
G37*
G36*
X5574Y3228D02*
X5574Y3226D01*
X5574Y3224D01*
X5575Y3223D01*
X5575Y3221D01*
X5576Y3220D01*
X5577Y3219D01*
X5578Y3219D01*
X5579Y3218D01*
X5580Y3218D01*
X5556D01*
X5557Y3218D01*
X5558Y3219D01*
X5559Y3219D01*
X5560Y3220D01*
X5560Y3221D01*
X5561Y3223D01*
X5561Y3224D01*
X5562Y3226D01*
X5562Y3228D01*
X5562Y3230D01*
X5574D01*
X5574Y3228D01*
D02*
G37*
G36*
X5802Y3228D02*
X5802Y3226D01*
X5802Y3224D01*
X5802Y3222D01*
X5803Y3221D01*
X5804Y3220D01*
X5804Y3219D01*
X5805Y3219D01*
X5806Y3218D01*
X5808Y3218D01*
X5784D01*
X5785Y3218D01*
X5786Y3219D01*
X5787Y3219D01*
X5787Y3220D01*
X5788Y3221D01*
X5789Y3222D01*
X5789Y3224D01*
X5789Y3226D01*
X5789Y3228D01*
X5790Y3230D01*
X5802D01*
X5802Y3228D01*
D02*
G37*
G36*
X5186D02*
X5186Y3226D01*
X5187Y3224D01*
X5187Y3222D01*
X5188Y3221D01*
X5188Y3220D01*
X5189Y3219D01*
X5190Y3219D01*
X5191Y3218D01*
X5192Y3218D01*
X5168D01*
X5169Y3218D01*
X5170Y3219D01*
X5171Y3219D01*
X5172Y3220D01*
X5173Y3221D01*
X5173Y3222D01*
X5173Y3224D01*
X5174Y3226D01*
X5174Y3228D01*
X5174Y3230D01*
X5186D01*
X5186Y3228D01*
D02*
G37*
G36*
X6272Y3227D02*
X6276Y3223D01*
X6278Y3222D01*
X6280Y3221D01*
X6281Y3220D01*
X6283Y3220D01*
X6284Y3220D01*
X6285Y3220D01*
X6286Y3220D01*
X6268Y3206D01*
X6268Y3206D01*
X6269Y3207D01*
X6269Y3209D01*
X6268Y3210D01*
X6268Y3212D01*
X6267Y3213D01*
X6265Y3215D01*
X6264Y3218D01*
X6259Y3223D01*
X6269Y3229D01*
X6272Y3227D01*
D02*
G37*
G36*
X5092Y3224D02*
X5096Y3221D01*
X5098Y3219D01*
X5100Y3218D01*
X5101Y3218D01*
X5103Y3217D01*
X5104Y3217D01*
X5105Y3217D01*
X5106Y3218D01*
X5088Y3203D01*
X5088Y3204D01*
X5089Y3205D01*
X5089Y3206D01*
X5088Y3208D01*
X5088Y3209D01*
X5087Y3211D01*
X5085Y3213D01*
X5084Y3215D01*
X5079Y3220D01*
X5089Y3227D01*
X5092Y3224D01*
D02*
G37*
G36*
X6311Y3167D02*
X6309Y3165D01*
X6305Y3160D01*
X6303Y3158D01*
X6302Y3157D01*
X6302Y3155D01*
X6301Y3154D01*
X6301Y3152D01*
X6302Y3151D01*
X6302Y3150D01*
X6284Y3165D01*
X6285Y3165D01*
X6286Y3165D01*
X6287Y3165D01*
X6289Y3165D01*
X6290Y3166D01*
X6292Y3167D01*
X6294Y3168D01*
X6296Y3170D01*
X6301Y3174D01*
X6311Y3167D01*
D02*
G37*
G36*
X5597Y3165D02*
X5594Y3162D01*
X5590Y3158D01*
X5589Y3156D01*
X5588Y3154D01*
X5587Y3153D01*
X5587Y3151D01*
X5587Y3150D01*
X5587Y3149D01*
X5588Y3148D01*
X5571Y3162D01*
X5553Y3148D01*
X5554Y3149D01*
X5554Y3150D01*
X5554Y3151D01*
X5554Y3153D01*
X5553Y3154D01*
X5552Y3156D01*
X5551Y3158D01*
X5549Y3160D01*
X5544Y3165D01*
X5555Y3172D01*
X5557Y3169D01*
X5562Y3166D01*
X5563Y3164D01*
X5565Y3163D01*
X5567Y3163D01*
X5568Y3162D01*
X5570Y3162D01*
X5570Y3162D01*
X5569Y3163D01*
X5570Y3162D01*
X5571Y3162D01*
X5571Y3162D01*
X5572Y3163D01*
X5571Y3162D01*
X5571Y3162D01*
X5573Y3162D01*
X5574Y3163D01*
X5576Y3163D01*
X5578Y3164D01*
X5579Y3166D01*
X5582Y3167D01*
X5584Y3169D01*
X5586Y3172D01*
X5597Y3165D01*
D02*
G37*
G36*
X6497Y3172D02*
X6501Y3168D01*
X6503Y3167D01*
X6505Y3166D01*
X6506Y3165D01*
X6508Y3165D01*
X6509Y3165D01*
X6510Y3165D01*
X6511Y3165D01*
X6493Y3150D01*
X6493Y3151D01*
X6494Y3152D01*
X6494Y3154D01*
X6493Y3155D01*
X6493Y3157D01*
X6492Y3158D01*
X6490Y3160D01*
X6489Y3163D01*
X6484Y3167D01*
X6494Y3174D01*
X6497Y3172D01*
D02*
G37*
G36*
X6347D02*
X6351Y3168D01*
X6353Y3167D01*
X6355Y3166D01*
X6356Y3165D01*
X6358Y3165D01*
X6359Y3165D01*
X6360Y3165D01*
X6361Y3165D01*
X6343Y3150D01*
X6343Y3151D01*
X6344Y3152D01*
X6344Y3154D01*
X6343Y3155D01*
X6343Y3157D01*
X6342Y3158D01*
X6340Y3160D01*
X6339Y3163D01*
X6334Y3167D01*
X6344Y3174D01*
X6347Y3172D01*
D02*
G37*
G36*
X5167Y3169D02*
X5171Y3166D01*
X5173Y3164D01*
X5175Y3163D01*
X5176Y3163D01*
X5178Y3162D01*
X5179Y3162D01*
X5180Y3162D01*
X5181Y3163D01*
X5163Y3148D01*
X5163Y3149D01*
X5164Y3150D01*
X5164Y3151D01*
X5163Y3153D01*
X5163Y3154D01*
X5162Y3156D01*
X5160Y3158D01*
X5159Y3160D01*
X5154Y3165D01*
X5164Y3172D01*
X5167Y3169D01*
D02*
G37*
G36*
X5088Y3135D02*
X5087Y3137D01*
X5087Y3138D01*
X5086Y3139D01*
X5086Y3139D01*
X5084Y3140D01*
X5083Y3140D01*
X5082Y3141D01*
X5080Y3141D01*
X5078Y3141D01*
X5075Y3141D01*
Y3153D01*
X5078Y3154D01*
X5080Y3154D01*
X5082Y3154D01*
X5083Y3154D01*
X5084Y3155D01*
X5086Y3156D01*
X5086Y3156D01*
X5087Y3157D01*
X5087Y3158D01*
X5088Y3159D01*
Y3135D01*
D02*
G37*
G36*
X5048Y3158D02*
X5048Y3157D01*
X5049Y3156D01*
X5049Y3156D01*
X5051Y3155D01*
X5052Y3154D01*
X5053Y3154D01*
X5055Y3154D01*
X5057Y3154D01*
X5060Y3153D01*
Y3141D01*
X5057Y3141D01*
X5055Y3141D01*
X5053Y3141D01*
X5052Y3140D01*
X5051Y3140D01*
X5049Y3139D01*
X5049Y3139D01*
X5048Y3138D01*
X5048Y3137D01*
X5047Y3135D01*
Y3159D01*
X5048Y3158D01*
D02*
G37*
G36*
X6227Y3148D02*
X6226Y3147D01*
X6226Y3146D01*
X6227Y3145D01*
X6227Y3143D01*
X6228Y3141D01*
X6230Y3139D01*
X6232Y3137D01*
X6236Y3132D01*
X6226Y3126D01*
X6223Y3128D01*
X6219Y3132D01*
X6217Y3133D01*
X6215Y3134D01*
X6214Y3135D01*
X6212Y3135D01*
X6211Y3135D01*
X6210Y3135D01*
X6209Y3134D01*
X6228Y3149D01*
X6227Y3148D01*
D02*
G37*
G36*
X6446Y3134D02*
X6445Y3134D01*
X6444Y3133D01*
X6443Y3132D01*
X6443Y3131D01*
X6442Y3130D01*
X6442Y3128D01*
X6441Y3127D01*
X6441Y3125D01*
X6441Y3122D01*
X6429D01*
X6429Y3125D01*
X6429Y3127D01*
X6428Y3128D01*
X6428Y3130D01*
X6427Y3131D01*
X6427Y3132D01*
X6426Y3133D01*
X6425Y3134D01*
X6424Y3134D01*
X6423Y3134D01*
X6447D01*
X6446Y3134D01*
D02*
G37*
G36*
X5505Y3132D02*
X5505Y3131D01*
X5504Y3131D01*
X5503Y3130D01*
X5503Y3129D01*
X5502Y3128D01*
X5502Y3127D01*
X5502Y3125D01*
X5502Y3123D01*
X5502Y3121D01*
X5490D01*
X5489Y3123D01*
X5489Y3125D01*
X5489Y3127D01*
X5489Y3128D01*
X5488Y3129D01*
X5488Y3130D01*
X5487Y3131D01*
X5486Y3131D01*
X5486Y3132D01*
X5485Y3132D01*
X5506D01*
X5505Y3132D01*
D02*
G37*
G36*
X5191Y3132D02*
X5190Y3131D01*
X5189Y3131D01*
X5188Y3130D01*
X5188Y3129D01*
X5187Y3127D01*
X5187Y3126D01*
X5186Y3124D01*
X5186Y3122D01*
X5186Y3120D01*
X5174D01*
X5174Y3122D01*
X5174Y3124D01*
X5173Y3126D01*
X5173Y3127D01*
X5173Y3129D01*
X5172Y3130D01*
X5171Y3131D01*
X5170Y3131D01*
X5169Y3132D01*
X5168Y3132D01*
X5192D01*
X5191Y3132D01*
D02*
G37*
G36*
X5110D02*
X5109Y3131D01*
X5108Y3131D01*
X5107Y3130D01*
X5107Y3129D01*
X5106Y3127D01*
X5106Y3126D01*
X5105Y3124D01*
X5105Y3122D01*
X5105Y3120D01*
X5093D01*
X5093Y3122D01*
X5093Y3124D01*
X5093Y3126D01*
X5092Y3127D01*
X5092Y3129D01*
X5091Y3130D01*
X5090Y3131D01*
X5089Y3131D01*
X5088Y3132D01*
X5087Y3132D01*
X5111D01*
X5110Y3132D01*
D02*
G37*
G36*
X5555Y3070D02*
X5557Y3069D01*
X5558Y3068D01*
X5560Y3066D01*
X5562Y3065D01*
X5563Y3065D01*
X5565Y3064D01*
X5567Y3064D01*
X5569Y3063D01*
X5570Y3063D01*
X5538D01*
X5539Y3063D01*
X5540Y3064D01*
X5540Y3064D01*
X5541Y3065D01*
X5541Y3065D01*
X5541Y3066D01*
X5540Y3068D01*
X5539Y3069D01*
X5538Y3070D01*
X5536Y3072D01*
X5553D01*
X5555Y3070D01*
D02*
G37*
G36*
X5464Y3073D02*
X5464Y3071D01*
X5464Y3069D01*
X5465Y3068D01*
X5465Y3066D01*
X5466Y3065D01*
X5467Y3064D01*
X5468Y3064D01*
X5469Y3063D01*
X5470Y3063D01*
X5446D01*
X5447Y3063D01*
X5448Y3064D01*
X5449Y3064D01*
X5450Y3065D01*
X5450Y3066D01*
X5451Y3068D01*
X5451Y3069D01*
X5452Y3071D01*
X5452Y3073D01*
X5452Y3075D01*
X5464D01*
X5464Y3073D01*
D02*
G37*
G36*
X4875Y3070D02*
X4877Y3069D01*
X4878Y3068D01*
X4880Y3066D01*
X4882Y3065D01*
X4883Y3065D01*
X4885Y3064D01*
X4887Y3064D01*
X4889Y3063D01*
X4890Y3063D01*
X4858D01*
X4859Y3063D01*
X4860Y3064D01*
X4860Y3064D01*
X4861Y3065D01*
X4861Y3065D01*
X4861Y3066D01*
X4860Y3068D01*
X4859Y3069D01*
X4858Y3070D01*
X4856Y3072D01*
X4873D01*
X4875Y3070D01*
D02*
G37*
G36*
X6441Y3073D02*
X6441Y3071D01*
X6442Y3069D01*
X6442Y3068D01*
X6443Y3066D01*
X6443Y3065D01*
X6444Y3064D01*
X6445Y3064D01*
X6446Y3063D01*
X6447Y3063D01*
X6423D01*
X6424Y3063D01*
X6425Y3064D01*
X6426Y3064D01*
X6427Y3065D01*
X6427Y3066D01*
X6428Y3068D01*
X6428Y3069D01*
X6429Y3071D01*
X6429Y3073D01*
X6429Y3075D01*
X6441D01*
X6441Y3073D01*
D02*
G37*
G36*
X5921D02*
X5921Y3071D01*
X5922Y3069D01*
X5922Y3068D01*
X5923Y3066D01*
X5923Y3065D01*
X5924Y3064D01*
X5925Y3064D01*
X5926Y3063D01*
X5927Y3063D01*
X5903D01*
X5904Y3063D01*
X5905Y3064D01*
X5906Y3064D01*
X5907Y3065D01*
X5907Y3066D01*
X5908Y3068D01*
X5908Y3069D01*
X5909Y3071D01*
X5909Y3073D01*
X5909Y3075D01*
X5921D01*
X5921Y3073D01*
D02*
G37*
G36*
X5231D02*
X5231Y3071D01*
X5232Y3069D01*
X5232Y3068D01*
X5233Y3066D01*
X5233Y3065D01*
X5234Y3064D01*
X5235Y3064D01*
X5236Y3063D01*
X5237Y3063D01*
X5213D01*
X5214Y3063D01*
X5215Y3064D01*
X5216Y3064D01*
X5217Y3065D01*
X5218Y3066D01*
X5218Y3068D01*
X5218Y3069D01*
X5219Y3071D01*
X5219Y3073D01*
X5219Y3075D01*
X5231D01*
X5231Y3073D01*
D02*
G37*
G36*
X6167Y3063D02*
X6164Y3061D01*
X6161Y3056D01*
X6159Y3054D01*
X6158Y3053D01*
X6157Y3051D01*
X6157Y3050D01*
X6157Y3048D01*
X6157Y3047D01*
X6158Y3046D01*
X6141Y3063D01*
X6142Y3063D01*
X6143Y3062D01*
X6145Y3062D01*
X6146Y3063D01*
X6148Y3063D01*
X6149Y3064D01*
X6151Y3066D01*
X6154Y3067D01*
X6158Y3072D01*
X6167Y3063D01*
D02*
G37*
G36*
X6273Y3073D02*
X6273Y3071D01*
X6273Y3069D01*
X6274Y3068D01*
X6274Y3066D01*
X6275Y3065D01*
X6276Y3064D01*
X6276Y3064D01*
X6277Y3063D01*
X6279Y3063D01*
X6273D01*
X6273Y3061D01*
X6274Y3045D01*
X6274Y3042D01*
X6274Y3041D01*
X6275Y3040D01*
X6275Y3039D01*
X6258D01*
X6258Y3040D01*
X6259Y3041D01*
X6259Y3042D01*
X6260Y3045D01*
X6260Y3050D01*
X6260Y3057D01*
X6261Y3063D01*
X6255D01*
X6256Y3063D01*
X6257Y3064D01*
X6258Y3064D01*
X6258Y3065D01*
X6259Y3066D01*
X6260Y3068D01*
X6260Y3069D01*
X6260Y3071D01*
X6261Y3073D01*
X6261Y3075D01*
X6273D01*
X6273Y3073D01*
D02*
G37*
G36*
X5105Y3073D02*
X5105Y3071D01*
X5106Y3069D01*
X5106Y3068D01*
X5107Y3066D01*
X5107Y3065D01*
X5108Y3064D01*
X5109Y3064D01*
X5110Y3063D01*
X5111Y3063D01*
X5105D01*
X5105Y3061D01*
X5106Y3045D01*
X5107Y3042D01*
X5107Y3041D01*
X5107Y3040D01*
X5108Y3039D01*
X5090D01*
X5091Y3040D01*
X5091Y3041D01*
X5092Y3042D01*
X5092Y3045D01*
X5093Y3050D01*
X5093Y3057D01*
X5093Y3063D01*
X5087D01*
X5088Y3063D01*
X5089Y3064D01*
X5090Y3064D01*
X5091Y3065D01*
X5092Y3066D01*
X5092Y3068D01*
X5093Y3069D01*
X5093Y3071D01*
X5093Y3073D01*
X5093Y3075D01*
X5105D01*
X5105Y3073D01*
D02*
G37*
G36*
X5569Y3056D02*
X5581Y3045D01*
X5583Y3044D01*
X5584Y3043D01*
X5586Y3043D01*
X5587Y3043D01*
X5574Y3030D01*
X5574Y3031D01*
X5573Y3032D01*
X5573Y3034D01*
X5571Y3035D01*
X5568Y3040D01*
X5563Y3045D01*
X5557Y3051D01*
X5565Y3060D01*
X5569Y3056D01*
D02*
G37*
G36*
X5459Y3051D02*
X5456Y3048D01*
X5444Y3035D01*
X5443Y3034D01*
X5442Y3032D01*
X5442Y3031D01*
X5442Y3030D01*
X5429Y3043D01*
X5430Y3043D01*
X5431Y3043D01*
X5433Y3044D01*
X5434Y3045D01*
X5439Y3049D01*
X5444Y3053D01*
X5450Y3060D01*
X5459Y3051D01*
D02*
G37*
G36*
X5239Y3056D02*
X5251Y3045D01*
X5253Y3044D01*
X5254Y3043D01*
X5256Y3043D01*
X5257Y3043D01*
X5244Y3030D01*
X5244Y3031D01*
X5243Y3032D01*
X5243Y3034D01*
X5241Y3035D01*
X5238Y3040D01*
X5233Y3045D01*
X5227Y3051D01*
X5235Y3060D01*
X5239Y3056D01*
D02*
G37*
G36*
X4889D02*
X4901Y3045D01*
X4903Y3044D01*
X4904Y3043D01*
X4906Y3043D01*
X4907Y3043D01*
X4894Y3030D01*
X4894Y3031D01*
X4893Y3032D01*
X4893Y3034D01*
X4891Y3035D01*
X4888Y3040D01*
X4883Y3045D01*
X4877Y3051D01*
X4885Y3060D01*
X4889Y3056D01*
D02*
G37*
G36*
X6442Y3055D02*
X6454Y3045D01*
X6456Y3044D01*
X6457Y3043D01*
X6459Y3043D01*
X6460Y3042D01*
X6447Y3029D01*
X6446Y3031D01*
X6446Y3032D01*
X6445Y3033D01*
X6444Y3035D01*
X6443Y3037D01*
X6439Y3041D01*
X6434Y3047D01*
X6431Y3050D01*
X6439Y3058D01*
X6442Y3055D01*
D02*
G37*
G36*
X5922Y3053D02*
X5930Y3046D01*
X5932Y3045D01*
X5934Y3044D01*
X5935Y3043D01*
X5936Y3043D01*
X5938Y3042D01*
X5924Y3029D01*
X5924Y3030D01*
X5923Y3031D01*
X5923Y3033D01*
X5922Y3035D01*
X5921Y3036D01*
X5917Y3040D01*
X5913Y3045D01*
X5911Y3047D01*
X5919Y3056D01*
X5922Y3053D01*
D02*
G37*
G36*
X6118Y3039D02*
X6120Y3038D01*
X6120Y3037D01*
X6121Y3037D01*
X6122Y3037D01*
X6123Y3036D01*
X6124Y3036D01*
X6124Y3036D01*
X6125Y3036D01*
Y3024D01*
X6124Y3024D01*
X6124Y3024D01*
X6123Y3024D01*
X6122Y3023D01*
X6121Y3023D01*
X6120Y3023D01*
X6120Y3022D01*
X6118Y3021D01*
X6117Y3020D01*
Y3040D01*
X6118Y3039D01*
D02*
G37*
G36*
X6461Y2997D02*
X6458Y2997D01*
X6456Y2998D01*
X6453Y2997D01*
X6449Y2996D01*
X6446Y2995D01*
X6442Y2993D01*
X6438Y2990D01*
X6434Y2987D01*
X6430Y2983D01*
X6426Y2979D01*
X6392Y2981D01*
X6398Y2987D01*
X6407Y2997D01*
X6410Y3001D01*
X6412Y3005D01*
X6413Y3008D01*
X6414Y3011D01*
X6413Y3013D01*
X6412Y3015D01*
X6410Y3016D01*
X6461Y2997D01*
D02*
G37*
G36*
X5939D02*
X5936Y2997D01*
X5933Y2998D01*
X5930Y2997D01*
X5927Y2996D01*
X5923Y2995D01*
X5920Y2993D01*
X5916Y2990D01*
X5912Y2987D01*
X5908Y2983D01*
X5903Y2979D01*
X5870Y2981D01*
X5875Y2987D01*
X5884Y2997D01*
X5887Y3001D01*
X5889Y3005D01*
X5891Y3008D01*
X5891Y3011D01*
X5891Y3013D01*
X5890Y3015D01*
X5888Y3016D01*
X5939Y2997D01*
D02*
G37*
G36*
X5781D02*
X5778Y2997D01*
X5776Y2998D01*
X5773Y2997D01*
X5769Y2996D01*
X5766Y2995D01*
X5762Y2993D01*
X5758Y2990D01*
X5754Y2987D01*
X5750Y2983D01*
X5746Y2979D01*
X5712Y2981D01*
X5718Y2987D01*
X5727Y2997D01*
X5730Y3001D01*
X5732Y3005D01*
X5733Y3008D01*
X5734Y3011D01*
X5733Y3013D01*
X5732Y3015D01*
X5730Y3016D01*
X5781Y2997D01*
D02*
G37*
G36*
X5259D02*
X5256Y2997D01*
X5253Y2998D01*
X5250Y2997D01*
X5247Y2996D01*
X5243Y2995D01*
X5240Y2993D01*
X5236Y2990D01*
X5232Y2987D01*
X5228Y2983D01*
X5223Y2979D01*
X5190Y2981D01*
X5195Y2987D01*
X5204Y2997D01*
X5207Y3001D01*
X5209Y3005D01*
X5211Y3008D01*
X5211Y3011D01*
X5211Y3013D01*
X5210Y3015D01*
X5208Y3016D01*
X5259Y2997D01*
D02*
G37*
G36*
X5101D02*
X5098Y2997D01*
X5096Y2998D01*
X5093Y2997D01*
X5089Y2996D01*
X5086Y2995D01*
X5082Y2993D01*
X5078Y2990D01*
X5074Y2987D01*
X5070Y2983D01*
X5066Y2979D01*
X5032Y2981D01*
X5038Y2987D01*
X5047Y2997D01*
X5050Y3001D01*
X5052Y3005D01*
X5053Y3008D01*
X5054Y3011D01*
X5053Y3013D01*
X5052Y3015D01*
X5050Y3016D01*
X5101Y2997D01*
D02*
G37*
G36*
X5146Y2985D02*
X5140Y2978D01*
X5110D01*
X5105Y2977D01*
X5101Y2974D01*
X5081Y2954D01*
X5078Y2950D01*
X5077Y2945D01*
Y2864D01*
X5078Y2859D01*
X5074Y2856D01*
X5056Y2874D01*
X5055Y2875D01*
X5053Y2877D01*
X5052Y2880D01*
X5051Y2883D01*
X5050Y2885D01*
X5049Y2888D01*
X5049Y2891D01*
X5048Y2895D01*
X5048Y2897D01*
X5049Y2899D01*
X5047Y2911D01*
X5043Y2922D01*
X5038Y2928D01*
X5038Y2928D01*
X5036Y2930D01*
X5036Y2931D01*
X5035Y2932D01*
X5035Y2934D01*
X5035Y2935D01*
X5035Y2936D01*
X5036Y2938D01*
X5037Y2940D01*
X5039Y2941D01*
X5076Y2979D01*
X5079Y2981D01*
X5083Y2984D01*
X5086Y2987D01*
X5089Y2988D01*
X5092Y2989D01*
X5092Y2990D01*
X5101D01*
X5101Y2990D01*
X5101Y2990D01*
X5144D01*
X5146Y2985D01*
D02*
G37*
G36*
X6313Y3015D02*
X6312Y3013D01*
X6312Y3011D01*
X6312Y3008D01*
X6314Y3005D01*
X6316Y3001D01*
X6319Y2997D01*
X6323Y2992D01*
X6333Y2981D01*
X6300Y2979D01*
X6296Y2983D01*
X6287Y2990D01*
X6283Y2993D01*
X6280Y2995D01*
X6276Y2996D01*
X6273Y2997D01*
X6270Y2998D01*
X6267Y2997D01*
X6265Y2997D01*
X6316Y3016D01*
X6313Y3015D01*
D02*
G37*
G36*
X6156D02*
X6155Y3013D01*
X6154Y3011D01*
X6155Y3008D01*
X6156Y3005D01*
X6158Y3001D01*
X6161Y2997D01*
X6165Y2992D01*
X6176Y2981D01*
X6142Y2979D01*
X6138Y2983D01*
X6130Y2990D01*
X6126Y2993D01*
X6122Y2995D01*
X6119Y2996D01*
X6116Y2997D01*
X6113Y2998D01*
X6110Y2997D01*
X6107Y2997D01*
X6158Y3016D01*
X6156Y3015D01*
D02*
G37*
G36*
X5633D02*
X5632Y3013D01*
X5632Y3011D01*
X5632Y3008D01*
X5634Y3005D01*
X5636Y3001D01*
X5639Y2997D01*
X5643Y2992D01*
X5653Y2981D01*
X5620Y2979D01*
X5616Y2983D01*
X5607Y2990D01*
X5603Y2993D01*
X5600Y2995D01*
X5596Y2996D01*
X5593Y2997D01*
X5590Y2998D01*
X5587Y2997D01*
X5585Y2997D01*
X5636Y3016D01*
X5633Y3015D01*
D02*
G37*
G36*
X5476Y3023D02*
X5475Y3021D01*
X5475Y3019D01*
X5476Y3016D01*
X5477Y3013D01*
X5479Y3009D01*
X5482Y3005D01*
X5486Y3000D01*
X5496Y2990D01*
X5471Y2979D01*
X5466Y2984D01*
X5458Y2991D01*
X5454Y2994D01*
X5450Y2996D01*
X5447Y2997D01*
X5443Y2998D01*
X5441Y2998D01*
X5438Y2998D01*
X5436Y2997D01*
X5478Y3025D01*
X5476Y3023D01*
D02*
G37*
G36*
X4953Y3015D02*
X4952Y3013D01*
X4952Y3011D01*
X4952Y3008D01*
X4954Y3005D01*
X4956Y3001D01*
X4959Y2997D01*
X4963Y2992D01*
X4973Y2981D01*
X4940Y2979D01*
X4936Y2983D01*
X4927Y2990D01*
X4923Y2993D01*
X4920Y2995D01*
X4916Y2996D01*
X4913Y2997D01*
X4910Y2998D01*
X4907Y2997D01*
X4905Y2997D01*
X4956Y3016D01*
X4953Y3015D01*
D02*
G37*
G36*
X6396Y2949D02*
X6394Y2947D01*
X6391Y2944D01*
X6390Y2941D01*
X6389Y2938D01*
X6388Y2936D01*
X6388Y2933D01*
X6388Y2931D01*
X6389Y2928D01*
X6390Y2926D01*
X6392Y2924D01*
X6363Y2928D01*
X6334Y2924D01*
X6336Y2926D01*
X6337Y2928D01*
X6338Y2931D01*
X6338Y2933D01*
X6338Y2936D01*
X6337Y2938D01*
X6336Y2941D01*
X6334Y2944D01*
X6332Y2947D01*
X6330Y2949D01*
X6352Y2962D01*
X6363Y2952D01*
X6373Y2962D01*
X6396Y2949D01*
D02*
G37*
G36*
X5716D02*
X5714Y2947D01*
X5711Y2944D01*
X5710Y2941D01*
X5709Y2938D01*
X5708Y2936D01*
X5708Y2933D01*
X5708Y2931D01*
X5709Y2928D01*
X5710Y2926D01*
X5712Y2924D01*
X5683Y2928D01*
X5654Y2924D01*
X5656Y2926D01*
X5657Y2928D01*
X5658Y2931D01*
X5658Y2933D01*
X5658Y2936D01*
X5657Y2938D01*
X5656Y2941D01*
X5654Y2944D01*
X5652Y2947D01*
X5650Y2949D01*
X5672Y2962D01*
X5683Y2952D01*
X5693Y2962D01*
X5716Y2949D01*
D02*
G37*
G36*
X5036D02*
X5034Y2947D01*
X5031Y2944D01*
X5030Y2941D01*
X5029Y2938D01*
X5028Y2936D01*
X5028Y2933D01*
X5028Y2931D01*
X5029Y2928D01*
X5030Y2926D01*
X5032Y2924D01*
X5003Y2928D01*
X4974Y2924D01*
X4976Y2926D01*
X4977Y2928D01*
X4978Y2931D01*
X4978Y2933D01*
X4978Y2936D01*
X4977Y2938D01*
X4976Y2941D01*
X4974Y2944D01*
X4972Y2947D01*
X4970Y2949D01*
X4992Y2962D01*
X5003Y2952D01*
X5013Y2962D01*
X5036Y2949D01*
D02*
G37*
G36*
X5876Y2951D02*
X5869Y2943D01*
X5868Y2941D01*
X5867Y2940D01*
X5867Y2939D01*
X5867Y2938D01*
X5868Y2937D01*
X5869Y2937D01*
X5808Y2937D01*
X5812Y2937D01*
X5815Y2938D01*
X5819Y2938D01*
X5822Y2940D01*
X5826Y2941D01*
X5829Y2943D01*
X5833Y2946D01*
X5836Y2948D01*
X5840Y2951D01*
X5844Y2955D01*
X5879D01*
X5876Y2951D01*
D02*
G37*
G36*
X5196D02*
X5189Y2943D01*
X5188Y2941D01*
X5187Y2940D01*
X5187Y2939D01*
X5187Y2938D01*
X5188Y2937D01*
X5189Y2937D01*
X5128Y2937D01*
X5132Y2937D01*
X5135Y2938D01*
X5139Y2938D01*
X5142Y2940D01*
X5146Y2941D01*
X5149Y2943D01*
X5153Y2946D01*
X5156Y2948D01*
X5160Y2951D01*
X5164Y2955D01*
X5199D01*
X5196Y2951D01*
D02*
G37*
G36*
X5556Y2931D02*
X5506Y2923D01*
X5507Y2925D01*
X5508Y2928D01*
X5509Y2930D01*
X5510Y2933D01*
X5509Y2935D01*
X5509Y2938D01*
X5508Y2941D01*
X5506Y2943D01*
X5504Y2946D01*
X5501Y2949D01*
X5524Y2962D01*
X5556Y2931D01*
D02*
G37*
G36*
X6206Y2951D02*
X6214Y2944D01*
X6217Y2942D01*
X6226Y2936D01*
X6229Y2935D01*
X6232Y2933D01*
X6181Y2917D01*
X6183Y2920D01*
X6184Y2923D01*
X6184Y2926D01*
X6184Y2929D01*
X6184Y2932D01*
X6183Y2934D01*
X6182Y2937D01*
X6180Y2940D01*
X6178Y2943D01*
X6176Y2946D01*
X6204Y2953D01*
X6206Y2951D01*
D02*
G37*
G36*
X6362Y2860D02*
X6359Y2860D01*
X6355Y2860D01*
X6351Y2859D01*
X6348Y2858D01*
X6344Y2857D01*
X6341Y2856D01*
X6338Y2854D01*
X6335Y2852D01*
X6332Y2850D01*
X6330Y2848D01*
X6312Y2866D01*
X6314Y2868D01*
X6317Y2871D01*
X6318Y2874D01*
X6320Y2877D01*
X6321Y2880D01*
X6323Y2883D01*
X6323Y2887D01*
X6324Y2891D01*
X6324Y2894D01*
X6324Y2898D01*
X6362Y2860D01*
D02*
G37*
G36*
X5721Y2894D02*
X5722Y2891D01*
X5722Y2887D01*
X5723Y2883D01*
X5724Y2880D01*
X5726Y2877D01*
X5727Y2874D01*
X5729Y2871D01*
X5731Y2868D01*
X5734Y2866D01*
X5716Y2848D01*
X5713Y2850D01*
X5711Y2852D01*
X5708Y2854D01*
X5705Y2856D01*
X5701Y2857D01*
X5698Y2858D01*
X5695Y2859D01*
X5691Y2860D01*
X5687Y2860D01*
X5683Y2860D01*
X5721Y2898D01*
X5721Y2894D01*
D02*
G37*
G36*
X5041D02*
X5042Y2891D01*
X5042Y2887D01*
X5043Y2883D01*
X5044Y2880D01*
X5046Y2877D01*
X5047Y2874D01*
X5049Y2871D01*
X5051Y2868D01*
X5054Y2866D01*
X5036Y2848D01*
X5033Y2850D01*
X5031Y2852D01*
X5028Y2854D01*
X5025Y2856D01*
X5021Y2857D01*
X5018Y2858D01*
X5015Y2859D01*
X5011Y2860D01*
X5007Y2860D01*
X5003Y2860D01*
X5041Y2898D01*
X5041Y2894D01*
D02*
G37*
G36*
X5313Y2715D02*
X5315Y2714D01*
X5317Y2713D01*
X5319Y2712D01*
X5322Y2711D01*
X5325Y2710D01*
X5328Y2709D01*
X5335Y2708D01*
X5338Y2707D01*
X5308Y2684D01*
X5308Y2687D01*
X5308Y2690D01*
X5308Y2693D01*
X5308Y2696D01*
X5308Y2699D01*
X5307Y2701D01*
X5306Y2704D01*
X5305Y2706D01*
X5304Y2708D01*
X5302Y2709D01*
X5312Y2717D01*
X5313Y2715D01*
D02*
G37*
G36*
X5208Y2711D02*
X5210Y2709D01*
X5212Y2708D01*
X5214Y2707D01*
X5216Y2706D01*
X5218Y2705D01*
X5220Y2705D01*
X5222Y2705D01*
X5223Y2705D01*
X5225Y2706D01*
X5209Y2671D01*
X5209Y2672D01*
X5208Y2673D01*
X5207Y2675D01*
X5206Y2676D01*
X5203Y2680D01*
X5200Y2684D01*
X5196Y2688D01*
X5206Y2713D01*
X5208Y2711D01*
D02*
G37*
G36*
X5573Y4203D02*
X5573Y4196D01*
X5574Y4193D01*
X5574Y4191D01*
X5575Y4188D01*
X5576Y4186D01*
X5577Y4184D01*
X5578Y4182D01*
X5580Y4180D01*
X5571Y4172D01*
X5570Y4173D01*
X5568Y4175D01*
X5566Y4176D01*
X5564Y4177D01*
X5561Y4177D01*
X5558Y4178D01*
X5555Y4179D01*
X5552Y4179D01*
X5549Y4179D01*
X5545Y4179D01*
X5572Y4206D01*
X5573Y4203D01*
D02*
G37*
G36*
X6199Y3794D02*
X6198Y3795D01*
X6197Y3796D01*
X6196Y3797D01*
X6195Y3797D01*
X6193Y3798D01*
X6192Y3798D01*
X6191Y3799D01*
X6189Y3799D01*
X6188Y3799D01*
X6186Y3799D01*
Y3811D01*
X6188Y3811D01*
X6189Y3811D01*
X6191Y3811D01*
X6192Y3812D01*
X6193Y3812D01*
X6195Y3813D01*
X6196Y3813D01*
X6197Y3814D01*
X6198Y3815D01*
X6199Y3816D01*
Y3794D01*
D02*
G37*
G36*
X6685Y4030D02*
X6683Y4030D01*
X6681Y4028D01*
X6680Y4027D01*
X6678Y4024D01*
X6677Y4022D01*
X6676Y4018D01*
X6676Y4015D01*
X6675Y4010D01*
X6675Y4006D01*
X6650D01*
X6650Y4010D01*
X6650Y4015D01*
X6649Y4018D01*
X6648Y4022D01*
X6647Y4024D01*
X6646Y4027D01*
X6644Y4028D01*
X6642Y4030D01*
X6640Y4030D01*
X6638Y4031D01*
X6688D01*
X6685Y4030D01*
D02*
G37*
G36*
X6565Y3709D02*
X6562Y3707D01*
X6556Y3699D01*
X6554Y3696D01*
X6548Y3688D01*
X6547Y3685D01*
X6545Y3681D01*
X6529Y3732D01*
X6532Y3730D01*
X6535Y3729D01*
X6538Y3729D01*
X6541Y3729D01*
X6543Y3729D01*
X6546Y3730D01*
X6549Y3731D01*
X6552Y3733D01*
X6555Y3735D01*
X6557Y3737D01*
X6565Y3709D01*
D02*
G37*
G36*
X6595Y4021D02*
X6570Y4014D01*
X6570Y4017D01*
X6570Y4020D01*
X6570Y4022D01*
X6569Y4024D01*
X6568Y4026D01*
X6567Y4028D01*
X6566Y4029D01*
X6565Y4030D01*
X6564Y4030D01*
X6562Y4030D01*
X6592Y4055D01*
X6595Y4021D01*
D02*
G37*
G36*
X6005Y4030D02*
X6003Y4030D01*
X6001Y4028D01*
X6000Y4027D01*
X5998Y4024D01*
X5997Y4022D01*
X5996Y4018D01*
X5996Y4015D01*
X5995Y4010D01*
X5995Y4006D01*
X5970D01*
X5970Y4010D01*
X5970Y4015D01*
X5969Y4018D01*
X5968Y4022D01*
X5967Y4024D01*
X5966Y4027D01*
X5964Y4028D01*
X5962Y4030D01*
X5960Y4030D01*
X5958Y4031D01*
X6008D01*
X6005Y4030D01*
D02*
G37*
G36*
X5861Y3722D02*
X5864Y3720D01*
X5867Y3717D01*
X5870Y3716D01*
X5873Y3714D01*
X5876Y3713D01*
X5879Y3712D01*
X5883Y3711D01*
X5886Y3711D01*
X5890Y3710D01*
Y3685D01*
X5886Y3685D01*
X5883Y3685D01*
X5879Y3684D01*
X5876Y3683D01*
X5873Y3682D01*
X5870Y3680D01*
X5867Y3678D01*
X5864Y3676D01*
X5861Y3674D01*
X5858Y3671D01*
Y3725D01*
X5861Y3722D01*
D02*
G37*
G36*
X5995Y3728D02*
X5996Y3723D01*
X5996Y3718D01*
X5997Y3714D01*
X5998Y3709D01*
X6000Y3705D01*
X6002Y3701D01*
X6004Y3697D01*
X6007Y3693D01*
X6010Y3689D01*
X6013Y3685D01*
X5995Y3668D01*
X5992Y3671D01*
X5988Y3674D01*
X5984Y3677D01*
X5980Y3679D01*
X5976Y3681D01*
X5972Y3683D01*
X5967Y3684D01*
X5962Y3685D01*
X5958Y3685D01*
X5953Y3685D01*
X5945Y3710D01*
X5950Y3711D01*
X5954Y3711D01*
X5958Y3713D01*
X5961Y3714D01*
X5964Y3717D01*
X5966Y3719D01*
X5968Y3723D01*
X5969Y3726D01*
X5970Y3731D01*
X5970Y3735D01*
X5995Y3728D01*
D02*
G37*
G36*
X6427Y3625D02*
X6428Y3620D01*
X6428Y3615D01*
X6429Y3611D01*
X6430Y3606D01*
X6432Y3602D01*
X6434Y3598D01*
X6436Y3594D01*
X6439Y3590D01*
X6442Y3586D01*
X6445Y3582D01*
X6427Y3565D01*
X6424Y3568D01*
X6420Y3571D01*
X6416Y3574D01*
X6412Y3576D01*
X6408Y3578D01*
X6404Y3580D01*
X6399Y3581D01*
X6394Y3582D01*
X6390Y3582D01*
X6385Y3582D01*
X6377Y3608D01*
X6382Y3608D01*
X6386Y3609D01*
X6390Y3610D01*
X6393Y3612D01*
X6396Y3614D01*
X6398Y3616D01*
X6400Y3620D01*
X6401Y3624D01*
X6402Y3628D01*
X6402Y3632D01*
X6427Y3625D01*
D02*
G37*
G36*
X6480Y3548D02*
X6483Y3546D01*
X6486Y3544D01*
X6489Y3542D01*
X6492Y3541D01*
X6495Y3540D01*
X6499Y3539D01*
X6502Y3538D01*
X6506Y3538D01*
X6510Y3538D01*
X6472Y3500D01*
X6472Y3504D01*
X6472Y3508D01*
X6471Y3511D01*
X6470Y3515D01*
X6469Y3518D01*
X6468Y3521D01*
X6466Y3524D01*
X6464Y3527D01*
X6462Y3530D01*
X6460Y3533D01*
X6477Y3550D01*
X6480Y3548D01*
D02*
G37*
G36*
X5041Y3283D02*
X5040Y3283D01*
X5039Y3282D01*
X5038Y3281D01*
X5037Y3280D01*
X5037Y3279D01*
X5037Y3277D01*
X5036Y3276D01*
X5036Y3273D01*
X5036Y3271D01*
X5024D01*
X5024Y3273D01*
X5024Y3277D01*
X5023Y3279D01*
X5023Y3280D01*
X5023Y3281D01*
X5022Y3282D01*
X5022Y3283D01*
X5021Y3283D01*
X5021Y3283D01*
X5042D01*
X5041Y3283D01*
D02*
G37*
G36*
X5036Y3228D02*
X5036Y3226D01*
X5037Y3224D01*
X5037Y3222D01*
X5037Y3221D01*
X5038Y3220D01*
X5039Y3219D01*
X5040Y3219D01*
X5041Y3218D01*
X5042Y3218D01*
X5018D01*
X5019Y3218D01*
X5020Y3219D01*
X5021Y3219D01*
X5022Y3220D01*
X5023Y3221D01*
X5023Y3222D01*
X5023Y3224D01*
X5024Y3226D01*
X5024Y3228D01*
X5024Y3230D01*
X5036D01*
X5036Y3228D01*
D02*
G37*
G36*
X5013Y3191D02*
X5012Y3192D01*
X5012Y3193D01*
X5011Y3194D01*
X5011Y3194D01*
X5009Y3195D01*
X5008Y3196D01*
X5007Y3196D01*
X5005Y3196D01*
X5003Y3196D01*
X5000Y3197D01*
Y3209D01*
X5003Y3209D01*
X5005Y3209D01*
X5007Y3209D01*
X5008Y3210D01*
X5009Y3210D01*
X5011Y3211D01*
X5011Y3211D01*
X5012Y3212D01*
X5012Y3213D01*
X5013Y3215D01*
Y3191D01*
D02*
G37*
G36*
X4973Y3213D02*
X4973Y3212D01*
X4974Y3211D01*
X4974Y3211D01*
X4976Y3210D01*
X4977Y3210D01*
X4978Y3209D01*
X4980Y3209D01*
X4982Y3209D01*
X4985Y3209D01*
Y3197D01*
X4982Y3196D01*
X4980Y3196D01*
X4978Y3196D01*
X4977Y3196D01*
X4976Y3195D01*
X4974Y3194D01*
X4974Y3194D01*
X4973Y3193D01*
X4973Y3192D01*
X4972Y3191D01*
Y3215D01*
X4973Y3213D01*
D02*
G37*
G36*
X4891Y3283D02*
X4890Y3283D01*
X4889Y3282D01*
X4888Y3281D01*
X4887Y3280D01*
X4887Y3279D01*
X4887Y3277D01*
X4886Y3276D01*
X4886Y3273D01*
X4886Y3271D01*
X4874D01*
X4874Y3273D01*
X4874Y3277D01*
X4873Y3279D01*
X4873Y3280D01*
X4873Y3281D01*
X4872Y3282D01*
X4872Y3283D01*
X4871Y3283D01*
X4871Y3283D01*
X4892D01*
X4891Y3283D01*
D02*
G37*
G36*
X4886Y3228D02*
X4886Y3226D01*
X4887Y3224D01*
X4887Y3222D01*
X4887Y3221D01*
X4888Y3220D01*
X4889Y3219D01*
X4890Y3219D01*
X4891Y3218D01*
X4892Y3218D01*
X4868D01*
X4869Y3218D01*
X4870Y3219D01*
X4871Y3219D01*
X4872Y3220D01*
X4872Y3221D01*
X4873Y3222D01*
X4873Y3224D01*
X4874Y3226D01*
X4874Y3228D01*
X4874Y3230D01*
X4886D01*
X4886Y3228D01*
D02*
G37*
G36*
X4863Y3191D02*
X4862Y3192D01*
X4862Y3193D01*
X4861Y3194D01*
X4861Y3194D01*
X4859Y3195D01*
X4858Y3196D01*
X4857Y3196D01*
X4855Y3196D01*
X4853Y3196D01*
X4850Y3197D01*
Y3209D01*
X4853Y3209D01*
X4855Y3209D01*
X4857Y3209D01*
X4858Y3210D01*
X4859Y3210D01*
X4861Y3211D01*
X4861Y3211D01*
X4862Y3212D01*
X4862Y3213D01*
X4863Y3215D01*
Y3191D01*
D02*
G37*
G36*
X4823Y3213D02*
X4823Y3212D01*
X4824Y3211D01*
X4824Y3211D01*
X4826Y3210D01*
X4827Y3210D01*
X4828Y3209D01*
X4830Y3209D01*
X4832Y3209D01*
X4835Y3209D01*
Y3197D01*
X4832Y3196D01*
X4830Y3196D01*
X4828Y3196D01*
X4827Y3196D01*
X4826Y3195D01*
X4824Y3194D01*
X4824Y3194D01*
X4823Y3193D01*
X4823Y3192D01*
X4822Y3191D01*
Y3215D01*
X4823Y3213D01*
D02*
G37*
G36*
X5879Y3283D02*
X5878Y3283D01*
X5878Y3282D01*
X5878Y3281D01*
X5877Y3280D01*
X5877Y3279D01*
X5877Y3277D01*
X5877Y3273D01*
X5877Y3271D01*
X5865D01*
X5864Y3273D01*
X5864Y3276D01*
X5864Y3277D01*
X5864Y3279D01*
X5863Y3280D01*
X5862Y3281D01*
X5862Y3282D01*
X5861Y3283D01*
X5860Y3283D01*
X5859Y3283D01*
X5880D01*
X5879Y3283D01*
D02*
G37*
G36*
X5877Y3228D02*
X5877Y3226D01*
X5877Y3224D01*
X5877Y3222D01*
X5878Y3221D01*
X5879Y3220D01*
X5879Y3219D01*
X5880Y3219D01*
X5881Y3218D01*
X5883Y3218D01*
X5859D01*
X5860Y3218D01*
X5861Y3219D01*
X5862Y3219D01*
X5862Y3220D01*
X5863Y3221D01*
X5864Y3222D01*
X5864Y3224D01*
X5864Y3226D01*
X5864Y3228D01*
X5865Y3230D01*
X5877D01*
X5877Y3228D01*
D02*
G37*
G36*
X5729Y3283D02*
X5728Y3283D01*
X5727Y3282D01*
X5726Y3281D01*
X5725Y3280D01*
X5725Y3279D01*
X5724Y3277D01*
X5724Y3276D01*
X5724Y3273D01*
X5724Y3271D01*
X5712D01*
X5712Y3273D01*
X5712Y3276D01*
X5711Y3277D01*
X5711Y3279D01*
X5710Y3280D01*
X5710Y3281D01*
X5709Y3282D01*
X5708Y3283D01*
X5707Y3283D01*
X5706Y3283D01*
X5730D01*
X5729Y3283D01*
D02*
G37*
G36*
X5724Y3228D02*
X5724Y3226D01*
X5724Y3224D01*
X5725Y3223D01*
X5725Y3221D01*
X5726Y3220D01*
X5727Y3219D01*
X5728Y3219D01*
X5729Y3218D01*
X5730Y3218D01*
X5706D01*
X5707Y3218D01*
X5708Y3219D01*
X5709Y3219D01*
X5710Y3220D01*
X5710Y3221D01*
X5711Y3223D01*
X5711Y3224D01*
X5712Y3226D01*
X5712Y3228D01*
X5712Y3230D01*
X5724D01*
X5724Y3228D01*
D02*
G37*
G36*
X4938Y3135D02*
X4937Y3137D01*
X4937Y3138D01*
X4936Y3139D01*
X4936Y3139D01*
X4934Y3140D01*
X4933Y3140D01*
X4932Y3141D01*
X4930Y3141D01*
X4928Y3141D01*
X4925Y3141D01*
Y3153D01*
X4928Y3154D01*
X4930Y3154D01*
X4932Y3154D01*
X4933Y3154D01*
X4934Y3155D01*
X4936Y3156D01*
X4936Y3156D01*
X4937Y3157D01*
X4937Y3158D01*
X4938Y3159D01*
Y3135D01*
D02*
G37*
G36*
X4898Y3158D02*
X4898Y3157D01*
X4899Y3156D01*
X4899Y3156D01*
X4901Y3155D01*
X4902Y3154D01*
X4903Y3154D01*
X4905Y3154D01*
X4907Y3154D01*
X4910Y3153D01*
Y3141D01*
X4907Y3141D01*
X4905Y3141D01*
X4903Y3141D01*
X4902Y3140D01*
X4901Y3140D01*
X4899Y3139D01*
X4899Y3139D01*
X4898Y3138D01*
X4898Y3137D01*
X4897Y3135D01*
Y3159D01*
X4898Y3158D01*
D02*
G37*
G36*
X4891Y3132D02*
X4890Y3131D01*
X4889Y3131D01*
X4888Y3130D01*
X4887Y3129D01*
X4887Y3127D01*
X4887Y3126D01*
X4886Y3124D01*
X4886Y3122D01*
X4886Y3120D01*
X4874D01*
X4874Y3122D01*
X4874Y3124D01*
X4873Y3126D01*
X4873Y3127D01*
X4872Y3129D01*
X4872Y3130D01*
X4871Y3131D01*
X4870Y3131D01*
X4869Y3132D01*
X4868Y3132D01*
X4892D01*
X4891Y3132D01*
D02*
G37*
G36*
X4885Y3118D02*
X4889Y3115D01*
X4889Y3115D01*
X4890Y3115D01*
X4890Y3115D01*
X4880Y3105D01*
X4880Y3105D01*
X4880Y3106D01*
X4880Y3106D01*
X4880Y3106D01*
X4879Y3107D01*
X4878Y3109D01*
X4876Y3111D01*
X4884Y3119D01*
X4885Y3118D01*
D02*
G37*
G36*
X5703Y3135D02*
X5703Y3137D01*
X5703Y3138D01*
X5702Y3139D01*
X5701Y3139D01*
X5700Y3140D01*
X5699Y3140D01*
X5697Y3141D01*
X5695Y3141D01*
X5693Y3141D01*
X5691Y3141D01*
Y3153D01*
X5693Y3154D01*
X5695Y3154D01*
X5697Y3154D01*
X5699Y3154D01*
X5700Y3155D01*
X5701Y3156D01*
X5702Y3156D01*
X5703Y3157D01*
X5703Y3158D01*
X5703Y3159D01*
Y3135D01*
D02*
G37*
G36*
X5663Y3158D02*
X5663Y3157D01*
X5664Y3156D01*
X5665Y3156D01*
X5666Y3155D01*
X5667Y3154D01*
X5669Y3154D01*
X5671Y3154D01*
X5673Y3154D01*
X5675Y3153D01*
Y3141D01*
X5673Y3141D01*
X5671Y3141D01*
X5669Y3141D01*
X5667Y3140D01*
X5666Y3140D01*
X5665Y3139D01*
X5664Y3139D01*
X5663Y3138D01*
X5663Y3137D01*
X5663Y3135D01*
Y3159D01*
X5663Y3158D01*
D02*
G37*
G36*
X5737Y3146D02*
X5737Y3145D01*
X5737Y3144D01*
X5737Y3142D01*
X5738Y3141D01*
X5739Y3139D01*
X5740Y3137D01*
X5742Y3135D01*
X5747Y3130D01*
X5736Y3123D01*
X5734Y3126D01*
X5729Y3129D01*
X5728Y3131D01*
X5726Y3132D01*
X5724Y3132D01*
X5723Y3133D01*
X5721Y3133D01*
X5720Y3133D01*
X5719Y3132D01*
X5738Y3147D01*
X5737Y3146D01*
D02*
G37*
G36*
X5866Y3132D02*
X5865Y3131D01*
X5864Y3131D01*
X5863Y3130D01*
X5863Y3129D01*
X5862Y3127D01*
X5862Y3126D01*
X5861Y3124D01*
X5861Y3122D01*
X5861Y3122D01*
X5861Y3121D01*
X5861Y3119D01*
X5862Y3118D01*
X5862Y3117D01*
X5863Y3115D01*
X5863Y3114D01*
X5864Y3113D01*
X5865Y3112D01*
X5866Y3111D01*
X5844D01*
X5845Y3112D01*
X5846Y3113D01*
X5847Y3114D01*
X5847Y3115D01*
X5848Y3117D01*
X5848Y3118D01*
X5849Y3119D01*
X5849Y3121D01*
X5849Y3122D01*
X5849Y3124D01*
X5849D01*
X5849Y3126D01*
X5850Y3127D01*
X5850Y3129D01*
X5850Y3130D01*
X5851Y3131D01*
X5852Y3131D01*
X5852Y3132D01*
X5853Y3132D01*
X5867D01*
X5866Y3132D01*
D02*
G37*
G36*
X5844Y3089D02*
X5843Y3090D01*
X5842Y3091D01*
X5841Y3092D01*
X5840Y3092D01*
X5838Y3093D01*
X5837Y3093D01*
X5836Y3094D01*
X5834Y3094D01*
X5833Y3094D01*
X5831Y3094D01*
Y3106D01*
X5833Y3106D01*
X5834Y3106D01*
X5836Y3106D01*
X5837Y3107D01*
X5838Y3107D01*
X5840Y3108D01*
X5841Y3108D01*
X5842Y3109D01*
X5843Y3110D01*
X5844Y3111D01*
Y3089D01*
D02*
G37*
G36*
X6522Y3408D02*
X6522Y3407D01*
X6523Y3406D01*
X6524Y3405D01*
X6525Y3404D01*
X6526Y3404D01*
X6528Y3403D01*
X6529Y3403D01*
X6531Y3403D01*
X6534Y3403D01*
Y3391D01*
X6531Y3391D01*
X6529Y3390D01*
X6528Y3390D01*
X6526Y3390D01*
X6525Y3389D01*
X6524Y3389D01*
X6523Y3388D01*
X6522Y3387D01*
X6522Y3386D01*
X6522Y3385D01*
Y3409D01*
X6522Y3408D01*
D02*
G37*
G36*
X6596Y3073D02*
X6596Y3071D01*
X6597Y3069D01*
X6597Y3068D01*
X6597Y3066D01*
X6598Y3065D01*
X6599Y3064D01*
X6600Y3064D01*
X6601Y3063D01*
X6602Y3063D01*
X6578D01*
X6579Y3063D01*
X6580Y3064D01*
X6581Y3064D01*
X6582Y3065D01*
X6582Y3066D01*
X6583Y3068D01*
X6583Y3069D01*
X6584Y3071D01*
X6584Y3073D01*
X6584Y3075D01*
X6596D01*
X6596Y3073D01*
D02*
G37*
G36*
X6599Y3056D02*
X6611Y3045D01*
X6613Y3044D01*
X6614Y3043D01*
X6616Y3043D01*
X6617Y3043D01*
X6604Y3030D01*
X6604Y3031D01*
X6603Y3032D01*
X6603Y3034D01*
X6601Y3035D01*
X6598Y3040D01*
X6593Y3045D01*
X6587Y3051D01*
X6595Y3060D01*
X6599Y3056D01*
D02*
G37*
G36*
X6619Y2997D02*
X6616Y2997D01*
X6613Y2998D01*
X6610Y2997D01*
X6607Y2996D01*
X6603Y2995D01*
X6600Y2993D01*
X6596Y2990D01*
X6592Y2987D01*
X6588Y2983D01*
X6583Y2979D01*
X6550Y2981D01*
X6555Y2987D01*
X6564Y2997D01*
X6567Y3001D01*
X6569Y3005D01*
X6571Y3008D01*
X6571Y3011D01*
X6571Y3013D01*
X6570Y3015D01*
X6568Y3016D01*
X6619Y2997D01*
D02*
G37*
G36*
X6556Y2951D02*
X6549Y2943D01*
X6548Y2941D01*
X6547Y2940D01*
X6547Y2939D01*
X6547Y2938D01*
X6548Y2937D01*
X6549Y2937D01*
X6488Y2937D01*
X6492Y2937D01*
X6495Y2938D01*
X6499Y2938D01*
X6502Y2940D01*
X6506Y2941D01*
X6509Y2943D01*
X6513Y2946D01*
X6516Y2948D01*
X6520Y2951D01*
X6524Y2955D01*
X6559D01*
X6556Y2951D01*
D02*
G37*
G36*
X4856Y3372D02*
X4855Y3371D01*
X4854Y3371D01*
X4853Y3370D01*
X4852Y3369D01*
X4852Y3367D01*
X4852Y3366D01*
X4851Y3364D01*
X4851Y3362D01*
X4851Y3360D01*
X4839D01*
X4839Y3362D01*
X4839Y3364D01*
X4838Y3366D01*
X4838Y3367D01*
X4838Y3369D01*
X4837Y3370D01*
X4836Y3371D01*
X4835Y3371D01*
X4834Y3372D01*
X4833Y3372D01*
X4857D01*
X4856Y3372D01*
D02*
G37*
G36*
X4755Y3073D02*
X4755Y3071D01*
X4756Y3069D01*
X4756Y3068D01*
X4757Y3066D01*
X4757Y3065D01*
X4758Y3064D01*
X4759Y3064D01*
X4760Y3063D01*
X4761Y3063D01*
X4755D01*
X4755Y3061D01*
X4756Y3045D01*
X4757Y3042D01*
X4757Y3041D01*
X4757Y3040D01*
X4758Y3039D01*
X4740D01*
X4741Y3040D01*
X4741Y3041D01*
X4742Y3042D01*
X4742Y3045D01*
X4743Y3050D01*
X4743Y3057D01*
X4743Y3063D01*
X4737D01*
X4738Y3063D01*
X4739Y3064D01*
X4740Y3064D01*
X4741Y3065D01*
X4742Y3066D01*
X4742Y3068D01*
X4743Y3069D01*
X4743Y3071D01*
X4743Y3073D01*
X4743Y3075D01*
X4755D01*
X4755Y3073D01*
D02*
G37*
G36*
X4796Y3015D02*
X4795Y3013D01*
X4794Y3011D01*
X4795Y3008D01*
X4796Y3005D01*
X4798Y3001D01*
X4801Y2997D01*
X4805Y2992D01*
X4816Y2981D01*
X4782Y2979D01*
X4778Y2983D01*
X4770Y2990D01*
X4766Y2993D01*
X4762Y2995D01*
X4759Y2996D01*
X4756Y2997D01*
X4753Y2998D01*
X4750Y2997D01*
X4747Y2997D01*
X4798Y3016D01*
X4796Y3015D01*
D02*
G37*
G36*
X4846Y2951D02*
X4854Y2944D01*
X4857Y2942D01*
X4866Y2936D01*
X4869Y2935D01*
X4872Y2933D01*
X4821Y2917D01*
X4823Y2920D01*
X4824Y2923D01*
X4824Y2926D01*
X4824Y2929D01*
X4824Y2932D01*
X4823Y2934D01*
X4822Y2937D01*
X4820Y2940D01*
X4818Y2943D01*
X4816Y2946D01*
X4844Y2953D01*
X4846Y2951D01*
D02*
G37*
D10*
X6355Y4334D02*
X6385Y4364D01*
X6355Y4334D02*
Y4334D01*
X6385Y4364D02*
Y4437D01*
X6322Y4246D02*
Y4326D01*
X6298Y4350D02*
X6322Y4326D01*
Y4246D02*
X6348Y4220D01*
X6385Y4437D02*
X6398Y4450D01*
X6489D01*
X6448Y4365D02*
X6463Y4350D01*
X6489D01*
X6267D02*
X6298D01*
D24*
X5715Y4268D02*
D03*
Y4212D02*
D03*
X5775Y4212D02*
D03*
Y4268D02*
D03*
X5110Y4523D02*
D03*
Y4467D02*
D03*
X4975Y4523D02*
D03*
Y4467D02*
D03*
X5035Y4467D02*
D03*
Y4523D02*
D03*
X6435Y3150D02*
D03*
Y3205D02*
D03*
X6510Y3150D02*
D03*
Y3205D02*
D03*
X6030Y3387D02*
D03*
Y3443D02*
D03*
X6285Y3150D02*
D03*
Y3205D02*
D03*
X6210Y3150D02*
D03*
Y3205D02*
D03*
X6360Y3150D02*
D03*
Y3205D02*
D03*
X5340Y3392D02*
D03*
Y3448D02*
D03*
X4805Y3203D02*
D03*
Y3147D02*
D03*
X5105D02*
D03*
Y3203D02*
D03*
X5030Y3147D02*
D03*
Y3203D02*
D03*
X5180Y3147D02*
D03*
Y3203D02*
D03*
X4955Y3147D02*
D03*
Y3203D02*
D03*
X4880Y3147D02*
D03*
Y3203D02*
D03*
X5571Y3147D02*
D03*
Y3203D02*
D03*
X5496Y3203D02*
D03*
Y3147D02*
D03*
X5646Y3203D02*
D03*
Y3147D02*
D03*
X5721Y3147D02*
D03*
Y3203D02*
D03*
X5796Y3203D02*
D03*
Y3147D02*
D03*
X5871Y3203D02*
D03*
Y3147D02*
D03*
D25*
X5307Y4268D02*
D03*
X5252D02*
D03*
X6302Y4700D02*
D03*
X6358D02*
D03*
X6358Y4775D02*
D03*
X6302D02*
D03*
X5583Y4330D02*
D03*
X5527D02*
D03*
X5287Y4467D02*
D03*
X5343D02*
D03*
X5380Y4527D02*
D03*
X5436D02*
D03*
X5121Y4610D02*
D03*
X5066D02*
D03*
X5121Y4685D02*
D03*
X5066D02*
D03*
X5066Y4760D02*
D03*
X5121D02*
D03*
X5503Y4467D02*
D03*
X5447D02*
D03*
X5279Y4597D02*
D03*
X5224D02*
D03*
X5279Y4527D02*
D03*
X5224D02*
D03*
D28*
X6489Y4500D02*
D03*
Y4450D02*
D03*
Y4400D02*
D03*
Y4350D02*
D03*
X6267Y4500D02*
D03*
Y4450D02*
D03*
Y4400D02*
D03*
Y4350D02*
D03*
D29*
X5224Y4698D02*
D03*
X5279D02*
D03*
D49*
X5089Y4268D02*
X5252D01*
X5059Y4298D02*
X5089Y4268D01*
X5019Y4298D02*
X5059D01*
X4976Y4204D02*
X5003D01*
X4970Y4198D02*
X4976Y4204D01*
X5003D02*
X5024Y4225D01*
X5122Y4335D02*
X5225D01*
X5245Y4355D01*
X6348Y4787D02*
X6396Y4739D01*
X5295Y4873D02*
Y4895D01*
X5557Y4869D02*
X5575Y4850D01*
X5545Y4831D02*
X5697D01*
X5270Y4475D02*
X5279Y4484D01*
X5719Y4809D02*
X5741Y4831D01*
X5697D02*
X5719Y4809D01*
Y4670D02*
Y4809D01*
X5741Y4831D02*
X6049D01*
X5545D02*
Y4840D01*
X6049Y4831D02*
X6086Y4794D01*
X5298Y4895D02*
X5325Y4869D01*
X5557D01*
X5609Y4273D02*
X5627Y4255D01*
X5315Y4273D02*
X5609D01*
X5890Y4477D02*
X5902D01*
X5883Y4469D02*
X5890Y4477D01*
X5486Y4364D02*
X5532D01*
X5477Y4372D02*
X5486Y4364D01*
X5419Y4372D02*
X5477D01*
X5524Y4437D02*
X5533D01*
X5524Y4437D02*
X5524Y4437D01*
X5481Y4437D02*
X5524D01*
X5481Y4437D02*
X5481Y4437D01*
X5533Y4437D02*
X5560Y4410D01*
Y4392D02*
Y4410D01*
X5532Y4364D02*
X5560Y4392D01*
X5419Y4410D02*
X5519D01*
X5436Y4525D02*
X5447Y4513D01*
X5436Y4525D02*
Y4527D01*
X5447Y4467D02*
Y4513D01*
X5478Y4437D02*
X5481D01*
X5459Y4456D02*
X5478Y4437D01*
X5457Y4456D02*
X5459D01*
X5447Y4465D02*
X5457Y4456D01*
X5447Y4465D02*
Y4467D01*
X6335Y4533D02*
X6377Y4574D01*
X6335Y4475D02*
Y4533D01*
X6086Y4794D02*
X6226D01*
X5575Y4850D02*
X6100D01*
X6286Y4813D02*
X6323Y4850D01*
X6144Y4813D02*
X6286D01*
X6107Y4850D02*
X6144Y4813D01*
X6226Y4794D02*
X6302Y4718D01*
Y4700D02*
Y4718D01*
X6348Y4787D02*
Y4815D01*
X6330Y4833D02*
X6348Y4815D01*
X6330Y4833D02*
Y4850D01*
X6323D02*
X6330D01*
X6100D02*
X6107D01*
X6302Y4773D02*
Y4775D01*
Y4773D02*
X6312Y4763D01*
X6314D01*
X6350Y4727D01*
Y4708D02*
Y4727D01*
Y4708D02*
X6358Y4700D01*
X6377Y4574D02*
Y4651D01*
X6414Y4689D01*
X6396Y4708D02*
Y4739D01*
Y4708D02*
X6414Y4689D01*
X6289Y4523D02*
X6358Y4591D01*
X6289Y4507D02*
Y4523D01*
X6283Y4500D02*
X6289Y4507D01*
X6267Y4500D02*
X6283D01*
X6358Y4591D02*
Y4700D01*
X6330Y4185D02*
X6500D01*
X6210Y4305D02*
X6330Y4185D01*
X6210Y4305D02*
Y4475D01*
X6228Y4493D01*
X6260D01*
X6267Y4500D01*
X5160Y4560D02*
X5170Y4570D01*
X4962Y4560D02*
X5160D01*
X4953Y4551D02*
X4962Y4560D01*
X4864Y4229D02*
X5007Y4372D01*
X4844Y4229D02*
X4864D01*
X5295Y4895D02*
X5298D01*
X6355Y4334D02*
Y4335D01*
X6348Y4342D02*
X6355Y4335D01*
X6290Y4400D02*
X6348Y4342D01*
X5519Y4410D02*
X5532Y4397D01*
X5525D02*
X5532D01*
X5243Y4634D02*
X5279Y4597D01*
X5262Y4839D02*
X5295Y4873D01*
X5201Y4839D02*
X5262D01*
X5645Y4330D02*
Y4370D01*
X5627Y4388D02*
X5645Y4370D01*
X5627Y4388D02*
Y4400D01*
X5419Y4410D02*
X5419Y4410D01*
X5583Y4330D02*
X5645D01*
X5368Y4597D02*
X5425Y4540D01*
X5883Y4375D02*
Y4469D01*
X5787Y4279D02*
X5883Y4375D01*
X5787Y4277D02*
Y4279D01*
X5777Y4268D02*
X5787Y4277D01*
X5775Y4268D02*
X5777D01*
X5775Y4268D02*
X5775Y4268D01*
X5715Y4268D02*
X5775D01*
X5627Y4255D02*
X5696D01*
X5699Y4258D01*
X5705D01*
X5715Y4268D01*
X5513Y4335D02*
X5517Y4330D01*
X5419Y4335D02*
X5513D01*
X5343Y4568D02*
X5357D01*
X5372Y4553D01*
X5279Y4597D02*
X5368D01*
X5279Y4527D02*
Y4597D01*
Y4484D02*
Y4527D01*
X5325Y4410D02*
X5335D01*
X5343Y4418D01*
Y4467D01*
X5239Y4475D02*
X5270D01*
X5109Y4335D02*
X5122D01*
X5098Y4456D02*
X5110Y4467D01*
X5098Y4418D02*
Y4456D01*
X5089Y4409D02*
X5098Y4418D01*
X5089Y4355D02*
Y4409D01*
Y4355D02*
X5109Y4335D01*
X4944Y4496D02*
Y4544D01*
Y4496D02*
X4973Y4467D01*
X4952Y4551D02*
X4953D01*
X4944Y4544D02*
X4952Y4551D01*
X4973Y4467D02*
X4975D01*
X4878Y4328D02*
X4930Y4380D01*
X4843Y4328D02*
X4878D01*
X4840Y4325D02*
X4843Y4328D01*
X4930Y4380D02*
X4975Y4425D01*
Y4467D01*
Y4523D02*
X4975Y4523D01*
X5035D01*
X5151Y4526D02*
X5155Y4530D01*
X5114Y4526D02*
X5151D01*
X5110Y4523D02*
X5114Y4526D01*
X5079Y4489D02*
X5098Y4508D01*
Y4513D01*
X5108Y4523D01*
X5110D01*
X5079Y4487D02*
Y4489D01*
X5075Y4483D02*
X5079Y4487D01*
X5075Y4428D02*
Y4483D01*
X5047Y4511D02*
X5075Y4483D01*
X5047Y4511D02*
Y4513D01*
X5037Y4523D02*
X5047Y4513D01*
X5035Y4523D02*
X5037D01*
X5033Y4386D02*
X5075Y4428D01*
X5033Y4378D02*
Y4386D01*
X5027Y4372D02*
X5033Y4378D01*
X5007Y4372D02*
X5027D01*
X5122D02*
X5185Y4436D01*
X5155Y4520D02*
Y4530D01*
X4840Y4225D02*
X4844Y4229D01*
X6355Y4380D02*
Y4393D01*
X5185Y4436D02*
Y4555D01*
X5170Y4570D02*
X5185Y4555D01*
X4843Y4423D02*
Y4463D01*
X4880Y4501D02*
Y4542D01*
X4843Y4463D02*
X4880Y4501D01*
X4880Y4542D02*
Y4568D01*
Y4542D02*
X4880Y4542D01*
X4899Y4641D02*
X4991Y4733D01*
X4899Y4588D02*
Y4641D01*
X4880Y4568D02*
X4899Y4588D01*
X4880Y4595D02*
Y4649D01*
X4840Y4555D02*
X4880Y4595D01*
X4840Y4525D02*
Y4555D01*
X4991Y4733D02*
X5015D01*
X4880Y4649D02*
X4993Y4761D01*
X5220Y4745D02*
X5224Y4741D01*
Y4698D02*
Y4741D01*
X5015Y4733D02*
X5019D01*
X5066Y4685D01*
Y4610D02*
Y4685D01*
X4993Y4761D02*
X5065D01*
X5066Y4760D01*
X5121Y4705D01*
Y4685D02*
Y4705D01*
X5121Y4760D02*
X5201Y4839D01*
X5279Y4698D02*
X5289Y4708D01*
Y4794D01*
X5815Y3442D02*
X6423D01*
X5340Y3445D02*
X5723Y3445D01*
X5133Y3445D02*
X5340D01*
X5793Y3304D02*
X5796Y3303D01*
X6489Y4400D02*
X6494Y4405D01*
X6558D01*
X5263Y2757D02*
X5335Y2685D01*
X5197Y2757D02*
X5263D01*
X4840Y4135D02*
X5237D01*
X5090Y2864D02*
X5197Y2757D01*
X5090Y2864D02*
Y2945D01*
X5110Y2965D01*
X5145D01*
X5180Y3000D01*
Y3147D01*
X6267Y4400D02*
X6290D01*
X6420Y4393D02*
Y4415D01*
Y4393D02*
X6448Y4365D01*
X6298Y4450D02*
X6355Y4393D01*
X6267Y4450D02*
X6298D01*
X5237Y4135D02*
X5315Y4213D01*
X5247Y4420D02*
X5314D01*
X5325Y4410D01*
X5238Y4362D02*
X5245Y4355D01*
X5627Y4125D02*
X6020D01*
X6055Y4090D01*
Y3865D02*
Y4090D01*
Y3865D02*
X6115Y3805D01*
X5372Y4347D02*
Y4553D01*
X5768Y3100D02*
X5855D01*
X5721Y3147D02*
X5768Y3100D01*
X5545Y4207D02*
X5627Y4125D01*
X5543Y4209D02*
X5545Y4207D01*
X6115Y3805D02*
X6210D01*
X6285Y3270D02*
Y3400D01*
Y3270D02*
X6323Y3232D01*
Y3187D02*
Y3232D01*
Y3187D02*
Y3187D01*
Y3187D02*
X6360Y3150D01*
X6285D02*
X6323Y3187D01*
X4880Y3115D02*
X4895Y3100D01*
X4880Y3115D02*
Y3147D01*
X5855Y3132D02*
X5871Y3147D01*
X5855Y3100D02*
Y3132D01*
X6473Y3277D02*
X6495Y3255D01*
X6473Y3277D02*
Y3308D01*
X5359Y4335D02*
X5372Y4347D01*
X5325Y4335D02*
X5359D01*
X6435Y3054D02*
X6459Y3030D01*
X6435Y3054D02*
Y3150D01*
X6590Y3057D02*
X6617Y3030D01*
X6590Y3057D02*
Y3372D01*
X6566Y3397D02*
X6590Y3372D01*
X6510Y3397D02*
X6566D01*
X6170Y3075D02*
Y3240D01*
X6125Y3030D02*
X6170Y3075D01*
X6109Y3030D02*
X6125D01*
X6170Y3240D02*
X6210Y3280D01*
Y3397D01*
X6267Y3030D02*
Y3093D01*
X6210Y3150D02*
X6267Y3093D01*
X6423Y3442D02*
X6460Y3405D01*
Y3335D02*
Y3405D01*
Y3335D02*
X6473Y3322D01*
Y3308D02*
Y3322D01*
X6397Y3242D02*
Y3308D01*
X6360Y3205D02*
X6397Y3242D01*
X6547D02*
Y3308D01*
X6510Y3205D02*
X6547Y3242D01*
X6455Y3205D02*
X6510Y3150D01*
X6435Y3205D02*
X6455D01*
X6435D02*
Y3352D01*
X6391Y3397D02*
X6435Y3352D01*
X6360Y3397D02*
X6391D01*
X6210Y3205D02*
X6247Y3242D01*
Y3243D01*
Y3308D01*
Y3243D02*
X6285Y3205D01*
X4845Y3270D02*
Y3394D01*
X4825Y3250D02*
X4845Y3270D01*
X4775Y3250D02*
X4825D01*
X4749Y3224D02*
X4775Y3250D01*
X4749Y3030D02*
Y3224D01*
X4805Y3132D02*
X4907Y3030D01*
X4805Y3132D02*
Y3147D01*
X5030D02*
X5105D01*
X5099Y3142D02*
X5105Y3147D01*
X5099Y3030D02*
Y3142D01*
X5225Y3062D02*
Y3340D01*
X5171Y3394D02*
X5225Y3340D01*
X5145Y3394D02*
X5171D01*
X5225Y3062D02*
X5257Y3030D01*
X5108Y3306D02*
Y3420D01*
X5133Y3445D01*
X4880Y3203D02*
Y3303D01*
X4805Y3203D02*
X4880D01*
Y3147D02*
X4955D01*
X5125Y3203D02*
X5180Y3147D01*
X5105Y3203D02*
X5125D01*
X5180Y3147D02*
Y3147D01*
Y3303D02*
X5182Y3306D01*
X5180Y3203D02*
Y3303D01*
X4995Y3394D02*
X5041D01*
X5070Y3365D01*
Y3238D02*
Y3365D01*
Y3238D02*
X5105Y3203D01*
X5030Y3303D02*
X5032Y3306D01*
X5030Y3203D02*
Y3303D01*
X4955Y3203D02*
X5030D01*
X4880Y3303D02*
X4882Y3306D01*
X5770Y3398D02*
X5815Y3442D01*
X5723Y3445D02*
X5770Y3398D01*
X5915Y3052D02*
X5937Y3030D01*
X5915Y3052D02*
Y3341D01*
X5429Y3030D02*
X5458Y3059D01*
Y3230D01*
X5496Y3121D02*
Y3147D01*
Y3121D02*
X5587Y3030D01*
X5862Y3394D02*
X5915Y3341D01*
X5831Y3394D02*
X5862D01*
X5793Y3306D02*
Y3315D01*
X5770Y3337D02*
X5793Y3315D01*
X5770Y3337D02*
Y3398D01*
X5458Y3230D02*
X5478Y3250D01*
X5513D01*
X5531Y3268D01*
Y3394D01*
X5571Y3147D02*
X5608Y3185D01*
X5515Y3203D02*
X5571Y3147D01*
X5868Y3306D02*
X5871Y3303D01*
Y3203D02*
Y3303D01*
X5796Y3203D02*
Y3303D01*
X5568Y3205D02*
X5571Y3203D01*
X5568Y3205D02*
Y3306D01*
X5608Y3362D02*
X5640Y3394D01*
X5608Y3185D02*
Y3362D01*
X5721Y3147D02*
X5721Y3147D01*
X5646Y3147D02*
X5721D01*
X5718Y3205D02*
X5721Y3203D01*
X5718Y3205D02*
Y3306D01*
X5640Y3394D02*
X5681D01*
X5496Y3203D02*
X5515D01*
X4830Y2899D02*
X4853D01*
D50*
X5242Y4873D02*
X5252Y4882D01*
X5198Y4873D02*
X5242D01*
X5122Y4797D02*
X5198Y4873D01*
X4840Y4644D02*
X4993Y4797D01*
X4840Y4625D02*
Y4644D01*
X4993Y4797D02*
X5090D01*
X5092Y4795D02*
X5095D01*
X5090Y4797D02*
X5092Y4795D01*
X5097Y4797D02*
X5122D01*
X5095Y4795D02*
X5097Y4797D01*
X5235Y2685D02*
X5240Y2680D01*
X5218Y2684D02*
X5234D01*
X5003Y2899D02*
X5218Y2684D01*
X5683Y2899D02*
X5757Y2825D01*
X6289D01*
X6363Y2899D01*
Y2934D02*
X6459Y3030D01*
X6363Y2899D02*
Y2934D01*
X6267Y3030D02*
X6363Y2934D01*
X5683D02*
X5779Y3030D01*
X5683Y2899D02*
Y2934D01*
X5587Y3030D02*
X5683Y2934D01*
X5003D02*
X5099Y3030D01*
X5003Y2899D02*
Y2934D01*
X4907Y3030D02*
X5003Y2934D01*
X6511Y2924D02*
X6617Y3030D01*
X6511Y2899D02*
Y2924D01*
X6109Y3030D02*
X6215Y2924D01*
Y2899D02*
Y2924D01*
X5831D02*
X5937Y3030D01*
X5831Y2899D02*
Y2924D01*
X5535Y2899D02*
Y2933D01*
X5438Y3030D02*
X5535Y2933D01*
X5429Y3030D02*
X5438D01*
X4855Y2899D02*
Y2924D01*
X4749Y3030D02*
X4855Y2924D01*
X5151Y2899D02*
Y2924D01*
X5257Y3030D01*
X6536Y3698D02*
X6663Y3825D01*
Y4060D01*
X6583Y3845D02*
Y4040D01*
X6538Y3800D02*
X6583Y3845D01*
X6483Y3800D02*
X6538D01*
X6415Y3732D02*
X6483Y3800D01*
X6415Y3595D02*
X6511Y3499D01*
X6415Y3595D02*
Y3732D01*
X6086Y3595D02*
X6415D01*
X5983Y3698D02*
X6086Y3595D01*
X5983Y3698D02*
Y4060D01*
X5831Y3698D02*
X5983D01*
X5898Y3830D02*
Y4060D01*
X5883Y3815D02*
X5898Y3830D01*
X5833Y3815D02*
X5883D01*
X5740Y3722D02*
X5833Y3815D01*
X5740Y3590D02*
Y3722D01*
Y3590D02*
X5831Y3499D01*
X5411Y3590D02*
X5740D01*
X5303Y3698D02*
X5411Y3590D01*
X5303Y3698D02*
Y4060D01*
X5151Y3698D02*
X5303D01*
X5068Y3585D02*
X5151Y3502D01*
X5068Y3585D02*
Y3745D01*
X5128Y3805D01*
X5188D01*
X5228Y3845D02*
Y4035D01*
X5188Y3805D02*
X5228Y3845D01*
D51*
X5719Y4670D02*
D03*
X5619D02*
D03*
D52*
X5627Y4400D02*
D03*
X6563Y4060D02*
D03*
X5883D02*
D03*
X5203D02*
D03*
D53*
X6640Y4815D02*
D03*
Y2695D02*
D03*
X4775D02*
D03*
Y4815D02*
D03*
D54*
X6100Y4350D02*
D03*
Y4450D02*
D03*
Y4550D02*
D03*
Y4650D02*
D03*
Y4750D02*
D03*
Y4850D02*
D03*
X5870Y2680D02*
D03*
X5970D02*
D03*
X6070D02*
D03*
X6170D02*
D03*
X6270D02*
D03*
X6370D02*
D03*
X4840Y4125D02*
D03*
Y4225D02*
D03*
Y4325D02*
D03*
Y4425D02*
D03*
Y4525D02*
D03*
Y4625D02*
D03*
X5535Y2680D02*
D03*
X5435D02*
D03*
X5335D02*
D03*
X5235D02*
D03*
X5135D02*
D03*
X5035D02*
D03*
X6504Y4185D02*
D03*
X4970Y4198D02*
D03*
X4930Y4380D02*
D03*
X6330Y4850D02*
D03*
X5545Y4207D02*
D03*
D55*
X6663Y4060D02*
D03*
X5983D02*
D03*
X5303D02*
D03*
D56*
X6363Y2899D02*
D03*
X6215D02*
D03*
Y3499D02*
D03*
Y3698D02*
D03*
Y3896D02*
D03*
X6511Y3499D02*
D03*
Y3698D02*
D03*
Y3896D02*
D03*
X5683Y2899D02*
D03*
X5535D02*
D03*
Y3499D02*
D03*
Y3698D02*
D03*
Y3896D02*
D03*
X5831Y3499D02*
D03*
Y3698D02*
D03*
Y3896D02*
D03*
X5003Y2899D02*
D03*
X4855D02*
D03*
Y3499D02*
D03*
Y3698D02*
D03*
Y3896D02*
D03*
X5151Y3499D02*
D03*
Y3698D02*
D03*
Y3896D02*
D03*
D57*
X6511Y2899D02*
D03*
X5831D02*
D03*
X5151D02*
D03*
D58*
X6750Y4700D02*
D03*
Y4600D02*
D03*
Y4500D02*
D03*
Y4400D02*
D03*
Y4300D02*
D03*
Y4200D02*
D03*
Y4100D02*
D03*
Y4000D02*
D03*
Y3900D02*
D03*
Y3800D02*
D03*
Y3700D02*
D03*
Y3600D02*
D03*
Y3500D02*
D03*
Y3400D02*
D03*
Y3300D02*
D03*
Y3200D02*
D03*
Y3100D02*
D03*
Y3000D02*
D03*
Y2900D02*
D03*
Y2800D02*
D03*
Y2600D02*
D03*
X6725Y4650D02*
D03*
X6700Y4600D02*
D03*
X6725Y4550D02*
D03*
X6700Y4500D02*
D03*
X6725Y4450D02*
D03*
X6700Y4400D02*
D03*
X6725Y4350D02*
D03*
X6700Y4300D02*
D03*
X6725Y4250D02*
D03*
X6700Y4200D02*
D03*
X6725Y4150D02*
D03*
Y4050D02*
D03*
X6700Y4000D02*
D03*
X6725Y3950D02*
D03*
X6700Y3900D02*
D03*
X6725Y3850D02*
D03*
X6700Y3800D02*
D03*
X6725Y3750D02*
D03*
X6700Y3700D02*
D03*
X6725Y3650D02*
D03*
X6700Y3600D02*
D03*
X6725Y3550D02*
D03*
X6700Y3500D02*
D03*
X6725Y3450D02*
D03*
X6700Y3400D02*
D03*
X6725Y3350D02*
D03*
X6700Y3300D02*
D03*
X6725Y3250D02*
D03*
X6700Y3200D02*
D03*
X6725Y3150D02*
D03*
X6700Y3100D02*
D03*
X6725Y3050D02*
D03*
X6700Y3000D02*
D03*
X6725Y2950D02*
D03*
X6700Y2900D02*
D03*
X6725Y2850D02*
D03*
X6675Y4150D02*
D03*
Y3750D02*
D03*
X6650Y3700D02*
D03*
X6675Y3650D02*
D03*
X6650Y3600D02*
D03*
X6675Y3550D02*
D03*
X6650Y3500D02*
D03*
X6675Y3450D02*
D03*
X6650Y3400D02*
D03*
X6675Y3350D02*
D03*
X6650Y3300D02*
D03*
X6675Y3250D02*
D03*
X6650Y3200D02*
D03*
X6675Y3150D02*
D03*
X6650Y3100D02*
D03*
X6675Y2950D02*
D03*
X6650Y2900D02*
D03*
X6675Y2850D02*
D03*
X6625Y4150D02*
D03*
X6600Y4100D02*
D03*
X6625Y3950D02*
D03*
Y3850D02*
D03*
X6600Y3700D02*
D03*
X6625Y3650D02*
D03*
Y3550D02*
D03*
Y3450D02*
D03*
Y3350D02*
D03*
Y3250D02*
D03*
Y3150D02*
D03*
Y2950D02*
D03*
Y2850D02*
D03*
X6550Y4700D02*
D03*
Y4500D02*
D03*
X6575Y4150D02*
D03*
X6550Y4000D02*
D03*
X6500Y4900D02*
D03*
Y4800D02*
D03*
Y4700D02*
D03*
Y4100D02*
D03*
Y4000D02*
D03*
X6525Y3950D02*
D03*
X6500Y3600D02*
D03*
X6525Y3350D02*
D03*
X6500Y3100D02*
D03*
Y2700D02*
D03*
Y2600D02*
D03*
X6450Y4900D02*
D03*
X6475Y4850D02*
D03*
X6450Y4800D02*
D03*
X6475Y4750D02*
D03*
X6450Y4700D02*
D03*
X6475Y4550D02*
D03*
Y4150D02*
D03*
X6450Y4100D02*
D03*
X6475Y4050D02*
D03*
X6450Y4000D02*
D03*
X6475Y3950D02*
D03*
X6450Y3900D02*
D03*
X6475Y3850D02*
D03*
Y3750D02*
D03*
X6450Y3700D02*
D03*
X6475Y3650D02*
D03*
X6450Y3500D02*
D03*
X6475Y3450D02*
D03*
Y3150D02*
D03*
X6450Y2700D02*
D03*
X6475Y2650D02*
D03*
X6450Y2600D02*
D03*
X6400Y4900D02*
D03*
X6425Y4850D02*
D03*
X6400Y4800D02*
D03*
X6425Y4750D02*
D03*
X6400Y4600D02*
D03*
X6425Y4250D02*
D03*
Y4150D02*
D03*
X6400Y4100D02*
D03*
X6425Y4050D02*
D03*
Y3950D02*
D03*
X6400Y3900D02*
D03*
X6425Y3850D02*
D03*
X6400Y3800D02*
D03*
Y3500D02*
D03*
Y3200D02*
D03*
Y3100D02*
D03*
X6425Y2950D02*
D03*
Y2650D02*
D03*
X6400Y2600D02*
D03*
X6350Y4900D02*
D03*
X6375Y4850D02*
D03*
X6350Y4300D02*
D03*
X6375Y4250D02*
D03*
Y4150D02*
D03*
X6350Y4100D02*
D03*
X6375Y3950D02*
D03*
X6350Y3900D02*
D03*
X6375Y3850D02*
D03*
X6350Y3800D02*
D03*
X6375Y3750D02*
D03*
X6350Y3700D02*
D03*
X6375Y3650D02*
D03*
Y3550D02*
D03*
X6350Y3500D02*
D03*
X6375Y3350D02*
D03*
X6350Y3300D02*
D03*
Y3100D02*
D03*
X6375Y3050D02*
D03*
X6350Y3000D02*
D03*
Y2800D02*
D03*
Y2600D02*
D03*
X6300Y4900D02*
D03*
X6325Y4150D02*
D03*
X6300Y4100D02*
D03*
X6325Y3950D02*
D03*
X6300Y3900D02*
D03*
X6325Y3850D02*
D03*
X6300Y3800D02*
D03*
X6325Y3750D02*
D03*
Y3650D02*
D03*
Y3550D02*
D03*
Y3350D02*
D03*
Y3150D02*
D03*
X6300Y3100D02*
D03*
Y2900D02*
D03*
X6325Y2650D02*
D03*
X6300Y2600D02*
D03*
X6250Y4900D02*
D03*
X6275Y4850D02*
D03*
X6250Y4700D02*
D03*
Y4600D02*
D03*
X6275Y4150D02*
D03*
X6250Y4100D02*
D03*
X6275Y3950D02*
D03*
Y3850D02*
D03*
X6250Y3400D02*
D03*
Y3200D02*
D03*
X6275Y2950D02*
D03*
Y2750D02*
D03*
X6250Y2600D02*
D03*
X6200Y4900D02*
D03*
X6225Y4850D02*
D03*
Y4750D02*
D03*
X6200Y4700D02*
D03*
Y4600D02*
D03*
Y4500D02*
D03*
Y4200D02*
D03*
X6225Y4150D02*
D03*
X6200Y4100D02*
D03*
Y3100D02*
D03*
Y3000D02*
D03*
X6225Y2750D02*
D03*
Y2650D02*
D03*
X6200Y2600D02*
D03*
X6150Y4900D02*
D03*
X6175Y4850D02*
D03*
Y4750D02*
D03*
X6150Y4600D02*
D03*
X6175Y4550D02*
D03*
X6150Y4500D02*
D03*
Y4400D02*
D03*
X6175Y4350D02*
D03*
X6150Y4300D02*
D03*
X6175Y4250D02*
D03*
X6150Y4200D02*
D03*
X6175Y4150D02*
D03*
X6150Y4100D02*
D03*
X6175Y3950D02*
D03*
Y3850D02*
D03*
X6150Y3700D02*
D03*
X6175Y3550D02*
D03*
X6150Y3500D02*
D03*
Y3400D02*
D03*
Y2900D02*
D03*
X6175Y2750D02*
D03*
X6150Y2600D02*
D03*
X6100Y4900D02*
D03*
Y4700D02*
D03*
Y4600D02*
D03*
Y4500D02*
D03*
Y4400D02*
D03*
Y4300D02*
D03*
X6125Y4250D02*
D03*
X6100Y4200D02*
D03*
X6125Y4150D02*
D03*
X6100Y4100D02*
D03*
Y3900D02*
D03*
X6125Y3750D02*
D03*
X6100Y3700D02*
D03*
X6125Y3650D02*
D03*
Y2650D02*
D03*
X6100Y2600D02*
D03*
X6050Y4900D02*
D03*
Y4700D02*
D03*
Y4600D02*
D03*
Y4500D02*
D03*
Y4400D02*
D03*
Y4300D02*
D03*
X6075Y4250D02*
D03*
X6050Y4200D02*
D03*
X6075Y4150D02*
D03*
X6050Y3800D02*
D03*
X6075Y3750D02*
D03*
X6050Y3700D02*
D03*
X6075Y3650D02*
D03*
Y3550D02*
D03*
X6050Y3500D02*
D03*
X6075Y3350D02*
D03*
Y3250D02*
D03*
X6050Y3200D02*
D03*
X6075Y3150D02*
D03*
X6050Y3100D02*
D03*
X6075Y2950D02*
D03*
X6050Y2900D02*
D03*
X6075Y2750D02*
D03*
X6050Y2600D02*
D03*
X6000Y4800D02*
D03*
X6025Y4750D02*
D03*
X6000Y4700D02*
D03*
X6025Y4650D02*
D03*
X6000Y4600D02*
D03*
X6025Y4550D02*
D03*
X6000Y4500D02*
D03*
X6025Y4450D02*
D03*
X6000Y4400D02*
D03*
X6025Y4350D02*
D03*
X6000Y4300D02*
D03*
X6025Y4250D02*
D03*
X6000Y4200D02*
D03*
X6025Y4150D02*
D03*
Y3950D02*
D03*
Y3850D02*
D03*
Y3750D02*
D03*
X6000Y3600D02*
D03*
X6025Y3550D02*
D03*
X6000Y3500D02*
D03*
Y3300D02*
D03*
X6025Y3250D02*
D03*
X6000Y3200D02*
D03*
X6025Y3150D02*
D03*
X6000Y3100D02*
D03*
X6025Y3050D02*
D03*
Y2950D02*
D03*
X6000Y2900D02*
D03*
X6025Y2750D02*
D03*
Y2650D02*
D03*
X6000Y2600D02*
D03*
X5950Y4900D02*
D03*
X5975Y4750D02*
D03*
Y4650D02*
D03*
X5950Y4600D02*
D03*
X5975Y4550D02*
D03*
Y4250D02*
D03*
X5950Y4200D02*
D03*
X5975Y4150D02*
D03*
X5950Y3900D02*
D03*
Y3800D02*
D03*
X5975Y3650D02*
D03*
X5950Y3600D02*
D03*
X5975Y3550D02*
D03*
X5950Y3500D02*
D03*
Y3400D02*
D03*
X5975Y3350D02*
D03*
X5950Y3300D02*
D03*
X5975Y3250D02*
D03*
X5950Y3200D02*
D03*
X5975Y3150D02*
D03*
X5950Y3100D02*
D03*
X5975Y2950D02*
D03*
X5950Y2600D02*
D03*
X5900Y4900D02*
D03*
Y4700D02*
D03*
X5925Y4650D02*
D03*
Y4250D02*
D03*
X5900Y4200D02*
D03*
X5925Y4150D02*
D03*
Y3750D02*
D03*
Y3650D02*
D03*
X5900Y3600D02*
D03*
X5925Y3550D02*
D03*
X5900Y3500D02*
D03*
Y3400D02*
D03*
X5925Y2950D02*
D03*
X5900Y2900D02*
D03*
X5925Y2750D02*
D03*
Y2650D02*
D03*
X5900Y2600D02*
D03*
X5850Y4900D02*
D03*
X5875Y4650D02*
D03*
X5850Y4600D02*
D03*
Y4400D02*
D03*
Y4300D02*
D03*
X5875Y4250D02*
D03*
X5850Y4200D02*
D03*
X5875Y4150D02*
D03*
X5850Y4100D02*
D03*
X5875Y3750D02*
D03*
Y3650D02*
D03*
X5850Y3600D02*
D03*
X5875Y3550D02*
D03*
Y2750D02*
D03*
X5850Y2600D02*
D03*
X5800Y4800D02*
D03*
X5825Y4750D02*
D03*
X5800Y4700D02*
D03*
X5825Y4650D02*
D03*
X5800Y4600D02*
D03*
X5825Y4550D02*
D03*
X5800Y4500D02*
D03*
X5825Y4250D02*
D03*
Y4150D02*
D03*
X5800Y4100D02*
D03*
X5825Y4050D02*
D03*
X5800Y3600D02*
D03*
X5825Y3350D02*
D03*
Y3250D02*
D03*
Y2750D02*
D03*
X5800Y2700D02*
D03*
X5825Y2650D02*
D03*
X5800Y2600D02*
D03*
X5750Y4800D02*
D03*
X5775Y4750D02*
D03*
Y4650D02*
D03*
X5750Y4600D02*
D03*
X5775Y4550D02*
D03*
X5750Y4500D02*
D03*
X5775Y4450D02*
D03*
Y4150D02*
D03*
X5750Y4100D02*
D03*
X5775Y4050D02*
D03*
Y3950D02*
D03*
X5750Y3900D02*
D03*
X5775Y3850D02*
D03*
X5750Y3800D02*
D03*
X5775Y3650D02*
D03*
X5750Y3500D02*
D03*
X5775Y3450D02*
D03*
X5750Y3300D02*
D03*
X5775Y2950D02*
D03*
X5750Y2900D02*
D03*
X5775Y2750D02*
D03*
X5750Y2700D02*
D03*
X5775Y2650D02*
D03*
X5750Y2600D02*
D03*
X5700Y4900D02*
D03*
Y4600D02*
D03*
X5725Y4550D02*
D03*
X5700Y4500D02*
D03*
X5725Y4150D02*
D03*
X5700Y4100D02*
D03*
X5725Y4050D02*
D03*
Y3950D02*
D03*
X5700Y3900D02*
D03*
X5725Y3850D02*
D03*
X5700Y3800D02*
D03*
X5725Y3750D02*
D03*
X5700Y3700D02*
D03*
X5725Y3550D02*
D03*
X5700Y3500D02*
D03*
X5725Y3350D02*
D03*
X5700Y3100D02*
D03*
Y3000D02*
D03*
X5725Y2750D02*
D03*
Y2650D02*
D03*
X5700Y2600D02*
D03*
X5650Y4900D02*
D03*
Y4800D02*
D03*
X5675Y4750D02*
D03*
Y4650D02*
D03*
X5650Y4600D02*
D03*
X5675Y4550D02*
D03*
X5650Y4500D02*
D03*
X5675Y4450D02*
D03*
X5650Y4200D02*
D03*
X5675Y4150D02*
D03*
X5650Y4100D02*
D03*
X5675Y3950D02*
D03*
X5650Y3900D02*
D03*
X5675Y3850D02*
D03*
X5650Y3800D02*
D03*
X5675Y3750D02*
D03*
X5650Y3700D02*
D03*
X5675Y3650D02*
D03*
Y3550D02*
D03*
X5650Y3500D02*
D03*
X5675Y3350D02*
D03*
X5650Y3100D02*
D03*
X5675Y3050D02*
D03*
X5650Y2800D02*
D03*
X5675Y2650D02*
D03*
X5650Y2600D02*
D03*
X5600Y4800D02*
D03*
X5625Y4750D02*
D03*
X5600Y4600D02*
D03*
X5625Y4550D02*
D03*
X5600Y4500D02*
D03*
X5625Y4450D02*
D03*
X5600Y4200D02*
D03*
Y4100D02*
D03*
X5625Y3950D02*
D03*
X5600Y3900D02*
D03*
X5625Y3850D02*
D03*
X5600Y3800D02*
D03*
X5625Y3750D02*
D03*
X5600Y3700D02*
D03*
X5625Y3650D02*
D03*
Y3550D02*
D03*
X5600Y3500D02*
D03*
Y3400D02*
D03*
Y3100D02*
D03*
Y2900D02*
D03*
X5625Y2850D02*
D03*
X5600Y2800D02*
D03*
X5625Y2750D02*
D03*
X5600Y2700D02*
D03*
X5550Y4900D02*
D03*
Y4800D02*
D03*
X5575Y4750D02*
D03*
X5550Y4700D02*
D03*
Y4600D02*
D03*
X5575Y4550D02*
D03*
X5550Y4500D02*
D03*
X5575Y4450D02*
D03*
X5550Y4100D02*
D03*
X5575Y3950D02*
D03*
Y3850D02*
D03*
X5550Y3800D02*
D03*
X5575Y3750D02*
D03*
Y3650D02*
D03*
Y3550D02*
D03*
Y3350D02*
D03*
X5550Y3100D02*
D03*
X5575Y2950D02*
D03*
Y2850D02*
D03*
X5550Y2800D02*
D03*
X5575Y2750D02*
D03*
Y2650D02*
D03*
X5500Y4800D02*
D03*
X5525Y4750D02*
D03*
X5500Y4700D02*
D03*
X5525Y4550D02*
D03*
X5500Y4200D02*
D03*
X5525Y4150D02*
D03*
X5500Y4100D02*
D03*
Y3800D02*
D03*
Y3400D02*
D03*
Y2800D02*
D03*
X5525Y2750D02*
D03*
X5475Y4750D02*
D03*
Y4650D02*
D03*
Y4550D02*
D03*
X5450Y4200D02*
D03*
X5475Y4150D02*
D03*
X5450Y4100D02*
D03*
Y4000D02*
D03*
Y3700D02*
D03*
X5475Y3550D02*
D03*
X5450Y3400D02*
D03*
X5475Y3350D02*
D03*
X5450Y3300D02*
D03*
X5475Y2950D02*
D03*
X5450Y2900D02*
D03*
X5475Y2850D02*
D03*
Y2650D02*
D03*
X5400Y4300D02*
D03*
Y4200D02*
D03*
X5425Y4150D02*
D03*
X5400Y4100D02*
D03*
X5425Y4050D02*
D03*
Y3950D02*
D03*
X5400Y3900D02*
D03*
X5425Y3850D02*
D03*
X5400Y3800D02*
D03*
X5425Y3750D02*
D03*
X5400Y3700D02*
D03*
X5425Y3650D02*
D03*
X5400Y3500D02*
D03*
X5350Y4900D02*
D03*
Y4200D02*
D03*
X5375Y4150D02*
D03*
X5350Y4100D02*
D03*
X5375Y4050D02*
D03*
Y3950D02*
D03*
X5350Y3900D02*
D03*
X5375Y3850D02*
D03*
X5350Y3800D02*
D03*
X5375Y3750D02*
D03*
X5350Y3700D02*
D03*
Y3600D02*
D03*
X5375Y3550D02*
D03*
X5350Y3500D02*
D03*
X5375Y2750D02*
D03*
Y2650D02*
D03*
X5325Y4150D02*
D03*
X5300Y3600D02*
D03*
X5325Y3550D02*
D03*
X5300Y3500D02*
D03*
Y3400D02*
D03*
Y3300D02*
D03*
X5325Y3250D02*
D03*
X5300Y3200D02*
D03*
X5325Y3150D02*
D03*
X5300Y3100D02*
D03*
X5325Y3050D02*
D03*
Y2950D02*
D03*
X5300Y2900D02*
D03*
X5325Y2850D02*
D03*
X5300Y2800D02*
D03*
X5325Y2750D02*
D03*
X5250Y4200D02*
D03*
Y4100D02*
D03*
Y3800D02*
D03*
X5275Y3650D02*
D03*
X5250Y3600D02*
D03*
X5275Y3550D02*
D03*
X5250Y3500D02*
D03*
Y3300D02*
D03*
X5275Y3250D02*
D03*
X5250Y3200D02*
D03*
X5275Y3150D02*
D03*
X5250Y3100D02*
D03*
X5275Y2950D02*
D03*
X5250Y2900D02*
D03*
X5275Y2850D02*
D03*
X5250Y2800D02*
D03*
Y2600D02*
D03*
X5200Y4200D02*
D03*
X5225Y3750D02*
D03*
Y3650D02*
D03*
X5200Y3600D02*
D03*
X5225Y3550D02*
D03*
X5200Y3400D02*
D03*
X5225Y2950D02*
D03*
Y2850D02*
D03*
X5200Y2800D02*
D03*
Y2600D02*
D03*
X5150Y4200D02*
D03*
Y4100D02*
D03*
X5175Y3950D02*
D03*
Y3750D02*
D03*
X5150Y3600D02*
D03*
X5175Y3550D02*
D03*
Y3350D02*
D03*
X5150Y3300D02*
D03*
Y3100D02*
D03*
X5175Y2650D02*
D03*
X5150Y2600D02*
D03*
X5100Y4100D02*
D03*
X5125Y4050D02*
D03*
Y3950D02*
D03*
Y3750D02*
D03*
X5100Y3600D02*
D03*
X5125Y3250D02*
D03*
X5100Y2600D02*
D03*
X5050Y4900D02*
D03*
Y4100D02*
D03*
X5075Y4050D02*
D03*
Y3950D02*
D03*
X5050Y3900D02*
D03*
X5075Y3850D02*
D03*
X5050Y3800D02*
D03*
Y3500D02*
D03*
X5075Y3450D02*
D03*
X5050Y3100D02*
D03*
X5075Y2650D02*
D03*
X5050Y2600D02*
D03*
X5000Y4900D02*
D03*
Y4700D02*
D03*
Y4600D02*
D03*
Y4100D02*
D03*
X5025Y4050D02*
D03*
Y2750D02*
D03*
X5000Y2600D02*
D03*
X4950Y4900D02*
D03*
X4975Y4850D02*
D03*
X4950Y4800D02*
D03*
X4975Y4650D02*
D03*
X4950Y4600D02*
D03*
X4975Y4250D02*
D03*
X4950Y4100D02*
D03*
X4975Y4050D02*
D03*
Y3950D02*
D03*
X4950Y3900D02*
D03*
X4975Y3850D02*
D03*
X4950Y3800D02*
D03*
X4975Y3750D02*
D03*
X4950Y3700D02*
D03*
X4975Y3650D02*
D03*
X4950Y3600D02*
D03*
X4975Y3550D02*
D03*
X4950Y3500D02*
D03*
X4975Y3450D02*
D03*
X4950Y3400D02*
D03*
X4975Y3350D02*
D03*
X4950Y3100D02*
D03*
X4975Y3050D02*
D03*
X4950Y2700D02*
D03*
X4975Y2650D02*
D03*
X4950Y2600D02*
D03*
X4900Y4900D02*
D03*
X4925Y4850D02*
D03*
Y4450D02*
D03*
X4900Y4300D02*
D03*
X4925Y4250D02*
D03*
X4900Y4100D02*
D03*
X4925Y4050D02*
D03*
Y3950D02*
D03*
Y3850D02*
D03*
X4900Y3800D02*
D03*
X4925Y3750D02*
D03*
Y3650D02*
D03*
X4900Y3600D02*
D03*
X4925Y3550D02*
D03*
Y3450D02*
D03*
X4900Y3400D02*
D03*
X4925Y3350D02*
D03*
Y2850D02*
D03*
Y2750D02*
D03*
Y2650D02*
D03*
X4900Y2600D02*
D03*
X4875Y3950D02*
D03*
X4850Y3800D02*
D03*
X4875Y3750D02*
D03*
X4850Y3600D02*
D03*
X4875Y3550D02*
D03*
Y3350D02*
D03*
X4800Y4600D02*
D03*
Y4500D02*
D03*
Y4400D02*
D03*
Y4300D02*
D03*
Y4200D02*
D03*
Y4100D02*
D03*
X4825Y3950D02*
D03*
X4800Y3800D02*
D03*
X4825Y3550D02*
D03*
Y3450D02*
D03*
Y3050D02*
D03*
X4775Y4650D02*
D03*
X4750Y4600D02*
D03*
X4775Y4550D02*
D03*
X4750Y4500D02*
D03*
X4775Y4450D02*
D03*
X4750Y4400D02*
D03*
X4775Y4350D02*
D03*
X4750Y4300D02*
D03*
X4775Y4250D02*
D03*
X4750Y4200D02*
D03*
X4775Y4150D02*
D03*
X4750Y4100D02*
D03*
X4775Y4050D02*
D03*
X4750Y4000D02*
D03*
Y3700D02*
D03*
X4775Y2850D02*
D03*
X4725Y4650D02*
D03*
X4700Y4600D02*
D03*
X4725Y4550D02*
D03*
X4700Y4500D02*
D03*
X4725Y4450D02*
D03*
X4700Y4400D02*
D03*
X4725Y4350D02*
D03*
X4700Y4300D02*
D03*
X4725Y4250D02*
D03*
X4700Y4200D02*
D03*
X4725Y4150D02*
D03*
X4700Y4100D02*
D03*
X4725Y4050D02*
D03*
X4700Y4000D02*
D03*
X4725Y3950D02*
D03*
X4700Y3900D02*
D03*
X4725Y3850D02*
D03*
X4700Y3800D02*
D03*
X4725Y3750D02*
D03*
X4700Y3700D02*
D03*
X4725Y3650D02*
D03*
X4700Y3600D02*
D03*
X4725Y3550D02*
D03*
X4700Y3500D02*
D03*
X4725Y3450D02*
D03*
X4700Y3400D02*
D03*
X4725Y3350D02*
D03*
X4700Y3300D02*
D03*
X4725Y3250D02*
D03*
X4700Y3200D02*
D03*
X4725Y3150D02*
D03*
X4700Y3100D02*
D03*
X4725Y2950D02*
D03*
X4700Y2900D02*
D03*
X4725Y2850D02*
D03*
X4650Y4900D02*
D03*
Y4700D02*
D03*
X4675Y4650D02*
D03*
X4650Y4600D02*
D03*
X4675Y4550D02*
D03*
X4650Y4500D02*
D03*
X4675Y4450D02*
D03*
X4650Y4400D02*
D03*
X4675Y4350D02*
D03*
X4650Y4300D02*
D03*
X4675Y4250D02*
D03*
X4650Y4200D02*
D03*
X4675Y4150D02*
D03*
X4650Y4100D02*
D03*
X4675Y4050D02*
D03*
X4650Y4000D02*
D03*
X4675Y3950D02*
D03*
X4650Y3900D02*
D03*
X4675Y3850D02*
D03*
X4650Y3800D02*
D03*
X4675Y3750D02*
D03*
X4650Y3700D02*
D03*
X4675Y3650D02*
D03*
X4650Y3600D02*
D03*
X4675Y3550D02*
D03*
X4650Y3500D02*
D03*
X4675Y3450D02*
D03*
X4650Y3400D02*
D03*
X4675Y3350D02*
D03*
X4650Y3300D02*
D03*
X4675Y3250D02*
D03*
X4650Y3200D02*
D03*
X4675Y3150D02*
D03*
X4650Y3100D02*
D03*
X4675Y3050D02*
D03*
X4650Y3000D02*
D03*
X4675Y2950D02*
D03*
X4650Y2900D02*
D03*
X4675Y2850D02*
D03*
X4650Y2800D02*
D03*
Y2600D02*
D03*
D59*
X5245Y4355D02*
D03*
X5383Y4742D02*
D03*
X6000Y4906D02*
D03*
X5775D02*
D03*
X5619D02*
D03*
X5128D02*
D03*
X5545Y4840D02*
D03*
X5902Y4477D02*
D03*
X6335Y4475D02*
D03*
X6414Y4689D02*
D03*
X6355Y4334D02*
D03*
X5525Y4397D02*
D03*
X5239Y4644D02*
D03*
X5645Y4330D02*
D03*
X5627Y4255D02*
D03*
X5343Y4568D02*
D03*
X5239Y4475D02*
D03*
X5155Y4530D02*
D03*
X6355Y4380D02*
D03*
X5170Y4570D02*
D03*
X5220Y4745D02*
D03*
X5015Y4733D02*
D03*
X5298Y4895D02*
D03*
X6558Y4405D02*
D03*
X6425Y4525D02*
D03*
X6420Y4415D02*
D03*
X5247Y4420D02*
D03*
X6030Y3322D02*
D03*
X4955Y3250D02*
D03*
X5660D02*
D03*
X5755Y3245D02*
D03*
X6165Y3365D02*
D03*
X6355Y3260D02*
D03*
X5315Y4213D02*
D03*
X6210Y3805D02*
D03*
X6285Y3400D02*
D03*
X4895Y3100D02*
D03*
X5855D02*
D03*
X6495Y3255D02*
D03*
X6348Y4220D02*
D03*
D60*
X5024Y4225D02*
D03*
X5127D02*
D03*
D61*
X5122Y4372D02*
D03*
Y4335D02*
D03*
Y4298D02*
D03*
X5019Y4372D02*
D03*
Y4298D02*
D03*
D62*
X4995Y3394D02*
D03*
X4958Y3306D02*
D03*
X5032D02*
D03*
X5289Y4794D02*
D03*
X5214D02*
D03*
X5252Y4882D02*
D03*
X6547Y3308D02*
D03*
X6473D02*
D03*
X6510Y3397D02*
D03*
X6397Y3308D02*
D03*
X6323D02*
D03*
X6360Y3397D02*
D03*
X5182Y3306D02*
D03*
X5108D02*
D03*
X5145Y3394D02*
D03*
X4845D02*
D03*
X4808Y3306D02*
D03*
X4882D02*
D03*
X6210Y3397D02*
D03*
X6173Y3308D02*
D03*
X6247D02*
D03*
X5681Y3394D02*
D03*
X5643Y3306D02*
D03*
X5718D02*
D03*
X5531Y3394D02*
D03*
X5493Y3306D02*
D03*
X5568D02*
D03*
X5831Y3394D02*
D03*
X5793Y3306D02*
D03*
X5868D02*
D03*
D63*
X5325Y4335D02*
D03*
Y4372D02*
D03*
Y4410D02*
D03*
X5419D02*
D03*
Y4372D02*
D03*
Y4335D02*
D03*
D64*
X6267Y3030D02*
D03*
X6109D02*
D03*
X6459D02*
D03*
X6617D02*
D03*
X5587D02*
D03*
X5429D02*
D03*
X5779D02*
D03*
X5937D02*
D03*
X4907D02*
D03*
X4749D02*
D03*
X5099D02*
D03*
X5257D02*
D03*
M02*
