M48
;Layer_Color=9474304
;FILE_FORMAT=2:3
INCH,LZ
;TYPE=PLATED
T1F00S00C0.010
T2F00S00C0.017
T3F00S00C0.035
T4F00S00C0.040
T5F00S00C0.051
T6F00S00C0.137
%
T01
X0625Y026
X063
X0635
X064
X0645
X065
X06475Y0265
X06425
X0645Y027
X065
X06325Y0265
X06275Y0275
X0635Y028
X063Y029
X06275Y0295
X0635Y03
X06375Y0305
X064Y031
X0635
X063
X065
X0665
X067
X0675
X06725Y0305
X0675Y03
X067
X06725Y0295
X06675
X06625
X0665Y029
X067
X0675
X06725Y0285
X06675
X06625
X0675Y028
Y026
X06425Y0295
X062Y03
Y031
X0605
X06
X0595
X06025Y0305
Y0295
X06075
X0605Y029
X06
X05975Y0295
X05925
X059Y029
X0575
X05775Y0295
X057Y03
X05675Y0305
X057Y031
X0565
X056
X0555
X05575Y0295
X056Y029
X05625Y0285
X05575
X056Y028
X0565
X05625Y0275
X05575
X05525
X0555Y028
X055
X05475Y0285
X0545Y029
X05475Y0295
X05325
X05275
X05225
X0525Y029
X053
X05325Y0285
X05275
X05225
X0525Y028
X053
X05325Y0275
X05375
Y0265
X05475
X05575
X056Y027
X05675Y0265
X05725
X05775
X05825
X0585Y026
X059
X0595
X06
X0605
X061
X0615
X062
X06225Y0265
Y0275
X06175
X06075
X06025
Y0265
X06125
X05925
Y0275
X05875
X05825
X05775
X05725
X0575Y027
X058
Y026
X0575
X057
X0565
X0525
X052
X0515
X051
X0505
X05
X0495
X049
X04925Y0265
X04975
X0495Y027
X04925Y0275
X05025
X05075Y0265
X05175
X052Y028
X04925Y0285
X04775
X04725
X047Y029
X04725Y0295
X047Y031
X04825Y0305
X04975
X0495Y031
X0505
X0515
X0525
X053
X05325Y0305
X0615Y029
X0465
X04675Y0295
X0465Y03
X04675Y0305
X0465Y031
X04675Y0285
X0465Y028
Y026
X04675Y0315
X0465Y032
X04675Y0325
X0465Y033
X04675Y0335
X0465Y034
X04675Y0345
X0465Y035
X04675Y0355
X0465Y036
X04675Y0365
X0465Y037
X04675Y0375
X0465Y038
X04675Y0385
X0465Y039
X04675Y0395
X0465Y04
X04675Y0405
X0465Y041
X04675Y0415
X0465Y042
X04675Y0425
X0465Y043
X04675Y0435
X0465Y044
X04675Y0445
X0465Y045
X04675Y0455
X0465Y046
X04675Y0465
X04725
X04775
X048Y046
X0475
X047
X04725Y0455
X04775
X048Y045
X0475
X047
X04725Y0445
X04775
X048Y044
X0475
X047
X04725Y0435
X04775
X048Y043
X0475
X047
X04725Y0425
X04775
X048Y042
X0475
X047
X04725Y0415
X04775
X048Y041
X0475
X047
X04725Y0405
X04775
X0475Y04
X047
X04725Y0395
X047Y039
X04725Y0385
X047Y038
X04725Y0375
X0475Y037
X047
X04725Y0365
X047Y036
X04725Y0355
X047Y035
X04725Y0345
X047Y034
X04725Y0335
X047Y033
X04725Y0325
X047Y032
X04725Y0315
X04875Y0335
X04925
X04975
X0495Y034
X049
X04925Y0345
X04975
X0495Y035
X04975Y0355
X04925
X04875
X04825
X0485Y036
X049
X0495
X04975Y0365
X04925
X0495Y037
X04975Y0375
X04925
X04875
X049Y038
X0495
X04975Y0385
X04925
X0495Y039
X04975Y0395
X04925
X04875
X04825
X0485Y038
X048
X0505
X05075Y0385
X0505Y039
X05075Y0395
X05125
X05175
X05125Y0405
X05075
X05025
X04975
X04925
X0495Y041
X05
X0505
X051
X0515
X0525
X0535
X054
X0545
X055
X0555
X056
X0565
X057
X0575
X058
X0585
X05875Y0415
X05925
X05975
X06025
X06075
X06125
X06175
X06225
X062Y042
X0615
X061
X0605
X06
X0595
X059
X0585
X05875Y0425
X05925
X05975
X06025
X06075
X06125
X06175
X0615Y043
X061
X0605
X06
X06025Y0435
X0605Y044
X061
X0615
X06175Y0435
X062Y045
X0615
X061
X0605
X06
X06025Y0455
X05975
X06Y046
X0605
X061
X0615
X062
X06175Y0455
X06025Y0465
X05975
X05925
X05875
X05825
X05775
X058Y046
X0585
X05825Y0455
X05775
X05725
X05675
X05625
X05575
X05525
X05475
Y0465
X0555Y046
X056
X0565
X057
X0575
Y045
X058
X05775Y0445
X05675
X05625
X05575
X056Y045
X0565
X057
X0555
X05675Y0465
X0595Y046
X06025Y0445
X06Y044
X0585
Y043
X05825Y0425
Y0415
X05775
X05725
X05675
X0565Y042
X056
X055
X0545
X054
X0535
X05375Y0415
X05425
X05475
X05525
X05425Y0405
X05375
Y0395
X05425
X0545Y04
X054Y039
X0535
X05375Y0385
X05425
X054Y038
X0535
X05375Y0375
X05425
X0545Y037
X054
X0535
Y036
X053
X0525
X052
X0515
X051
X05175Y0355
X05225
X05275
X05325
X05375
X054Y035
X0535
X053
X0525
X053Y034
Y033
X0525
X05275Y0325
X05325
X053Y032
X0525
X05275Y0315
X05325
X0545Y033
X05475Y0335
X055Y034
X0545
X056
X05575Y0335
X05675
X05725
X0575Y033
X05825Y0335
Y0325
X05975
X06025
X06075
X0605Y032
X06
X0595
X05975Y0315
X06025
X06075
Y0335
X05975
X06Y033
X0595
Y034
X059
Y035
X0595
X06
X0605
X06075Y0355
X06025
X05975
X05925
X05875
X059Y036
X0595
X06
X05975Y0365
X05925
X05875
X0585Y036
X058
X05775Y0365
X05675
X05625
X05575
X056Y037
X0565
X057
X05725Y0375
X05675
X05625
X05575
X056Y038
X0565
X057
X0575
X05775Y0385
X05725
X05675
X05625
X05575
X056Y039
X0565
X057
X0575
X05775Y0395
X05725
X05675
X05625
X05575
X0555Y038
X055
X05425Y0365
X05475Y0355
X05575
X05625
X05675
X05725
X0575Y035
X057
X0565
X056
X05775Y0345
X05875Y0375
X05925
X0595Y038
X0605
X06075Y0375
X06125
X0615Y037
X061
X0605
X06075Y0365
X06125
X06175Y0355
X0615Y035
Y034
X06175Y0385
Y0395
X061Y039
X06025Y0395
Y0385
Y0375
X0595Y039
X05825Y0405
X05775
X05725
X061Y041
X0615
X062
X05325Y0415
X0525Y042
X052
X0515
X04975Y0425
X04925
X049Y043
X04925Y0445
X0495Y046
X05
X04975Y0465
X049Y041
X05125Y0375
X05175
X05225
X0525Y038
X05275Y0365
X05225
X052Y034
X05175Y0335
X0515Y033
X05125Y0325
X05075Y0345
X0505Y035
X04825Y0345
X054Y043
X0635
X06375Y0425
X06425
Y0415
X06475
X065Y041
X0645
X064
X0635
X063
X0625
X06275Y0415
X06325
X06375
X06425Y0405
X06475
X065Y04
X0655
X06525Y0395
X06475
X06425
X06375
X06325
X06275
X063Y039
X0635
X064
X0645
X06475Y0385
X06425
X06375
X06325
X06275
X063Y038
X0635
X064
X06375Y0375
X06325
X0635Y037
X06375Y0365
X06325
Y0355
X06375
X064Y035
X0645
X06475Y0345
X06625
X06675
X06725
X0675Y035
X067
X0665
X06675Y0355
X06725
X0675Y036
X067
X0665
X06675Y0365
X06725
X0675Y037
X067
X0665
X066
X06625Y0365
Y0355
X0665Y034
X067
X0675
X06725Y0335
X06675
X06625
X0665Y033
X067
X0675
X06725Y0325
X06675
X06625
X0665Y032
X067
X0675
X06725Y0315
X06675
X06625
X06475
X064Y032
X06325Y0315
X0625Y032
X0635Y033
X06375Y0335
X06325
X0625Y034
X0635Y035
X065Y036
X06475Y0365
X0645Y037
X06475Y0375
X06675
X06725
X0675Y038
X067
X06725Y0385
X0675Y039
X067
X06725Y0395
X0675Y04
X067
X06725Y0405
X0675Y041
X06725Y0415
X06675
X06625
X06575
X066Y041
X06625Y0395
Y0385
X0645Y04
X067Y042
X0675
X06725Y0425
X0675Y043
X067
X06725Y0435
X0675Y044
X067
X06725Y0445
X0675Y045
X067
X06725Y0455
X0675Y046
X067
X06725Y0465
X0655Y045
X06475Y0455
X064Y046
X0625
X06525Y0335
X0655Y047
X065
X0645
X06475Y0475
X06425
X0645Y048
X065
X06475Y0485
X06425
X06375
X064Y049
X0645
X065
X0635
X063
X0625
X06275Y0485
X064Y048
X0625Y047
X0675
X062
X06225Y0475
X06175
Y0485
X06225
X062Y049
X0615
X061
X0605
X0595
X059
X0585
X058Y048
X0575
X05775Y0475
X05825
X058Y047
X059
X06
X0605
X061
X06025Y0475
X05975
X06Y048
X0565
X056
X0555
X055
X05525Y0475
X05575
X05625
X05675
X057Y049
X0565
X0555
Y047
X055
X05475Y0475
X0535Y049
X0505
X05
X0495
X049
X04925Y0485
X04975
X0495Y048
X05Y047
X0465
Y049
T02
X04895Y031
X05855
X05755Y03245
X0566Y0325
X0603Y03322
X06165Y03365
X0621Y03805
X05902Y04477
X05645Y0433
X05627Y04255
X05525Y04397
X05247Y0442
X05239Y04475
X05245Y04355
X05315Y04213
X05343Y04568
X0517Y0457
X05155Y0453
X05239Y04644
X04955Y0325
X06355Y0326
X06495Y03255
X06285Y034
X06348Y0422
X06355Y04334
Y0438
X0642Y04415
X06425Y04525
X06335Y04475
X06558Y04405
X06414Y04689
X06Y04906
X05775
X05619
X05545Y0484
X05383Y04742
X0522Y04745
X05015Y04733
X05128Y04906
X05298Y04895
T03
X0627Y0268
X0637
X0617
X0607
X0597
X0587
X05535
X05435
X05335
X05235
X05135
X05035
X05203Y0406
X05303
X05545Y04207
X05627Y044
X061Y0445
Y0435
Y0455
Y0465
X05983Y0406
X05883
X0497Y04198
X0484Y04225
Y04125
Y04325
Y04425
Y04525
Y04625
X0493Y0438
X06504Y04185
X06563Y0406
X06663
X0633Y0485
X061
Y0475
T04
X05619Y0467
X05719
T05
X06363Y02899
X06511
X06215
X05831
X05683
X05535
X05151
X05003
X04855
Y03499
Y03698
Y03896
X05151
Y03698
Y03499
X05535
Y03698
Y03896
X05831
Y03698
Y03499
X06215
Y03698
Y03896
X06511
Y03698
Y03499
T06
X0664Y02695
X04775
X0664Y04815
X04775
M30
