G04*
G04 #@! TF.GenerationSoftware,Altium Limited,Altium Designer,22.10.1 (41)*
G04*
G04 Layer_Color=8421504*
%FSLAX23Y23*%
%MOIN*%
G70*
G04*
G04 #@! TF.SameCoordinates,FE0D4549-5355-498F-96F3-0299564D4BAC*
G04*
G04*
G04 #@! TF.FilePolarity,Positive*
G04*
G01*
G75*
%ADD25O,0.061X0.010*%
%ADD26O,0.010X0.061*%
%ADD27R,0.035X0.039*%
%ADD28R,0.035X0.031*%
%ADD29R,0.039X0.039*%
%ADD30R,0.035X0.031*%
%ADD31R,0.031X0.035*%
%ADD32R,0.031X0.035*%
%ADD33R,0.024X0.045*%
%ADD34R,0.051X0.075*%
%ADD35R,0.094X0.079*%
G04:AMPARAMS|DCode=36|XSize=26mil|YSize=65mil|CornerRadius=2mil|HoleSize=0mil|Usage=FLASHONLY|Rotation=270.000|XOffset=0mil|YOffset=0mil|HoleType=Round|Shape=RoundedRectangle|*
%AMROUNDEDRECTD36*
21,1,0.026,0.061,0,0,270.0*
21,1,0.022,0.065,0,0,270.0*
1,1,0.004,-0.031,-0.011*
1,1,0.004,-0.031,0.011*
1,1,0.004,0.031,0.011*
1,1,0.004,0.031,-0.011*
%
%ADD36ROUNDEDRECTD36*%
%ADD37O,0.031X0.049*%
D25*
X2481Y4034D02*
D03*
Y4054D02*
D03*
X1889Y4231D02*
D03*
Y4212D02*
D03*
Y4192D02*
D03*
Y4172D02*
D03*
Y4152D02*
D03*
Y4133D02*
D03*
Y4113D02*
D03*
Y4093D02*
D03*
Y4074D02*
D03*
Y4054D02*
D03*
Y4034D02*
D03*
Y4015D02*
D03*
Y3995D02*
D03*
Y3975D02*
D03*
Y3956D02*
D03*
Y3936D02*
D03*
Y3916D02*
D03*
Y3897D02*
D03*
Y3877D02*
D03*
Y3857D02*
D03*
Y3838D02*
D03*
Y3818D02*
D03*
Y3798D02*
D03*
Y3778D02*
D03*
Y3759D02*
D03*
X2481D02*
D03*
Y3778D02*
D03*
Y3798D02*
D03*
Y3818D02*
D03*
Y3838D02*
D03*
Y3857D02*
D03*
Y3877D02*
D03*
Y3897D02*
D03*
Y3916D02*
D03*
Y3936D02*
D03*
Y3956D02*
D03*
Y3975D02*
D03*
Y3995D02*
D03*
Y4015D02*
D03*
Y4074D02*
D03*
Y4093D02*
D03*
Y4113D02*
D03*
Y4133D02*
D03*
Y4152D02*
D03*
Y4172D02*
D03*
Y4192D02*
D03*
Y4212D02*
D03*
Y4231D02*
D03*
D26*
X2382Y4291D02*
D03*
X2362D02*
D03*
X2342D02*
D03*
X2283D02*
D03*
X1949Y3699D02*
D03*
X1968D02*
D03*
X1988D02*
D03*
X2008D02*
D03*
X2028D02*
D03*
X2047D02*
D03*
X2067D02*
D03*
X2087D02*
D03*
X2106D02*
D03*
X2126D02*
D03*
X2146D02*
D03*
X2165D02*
D03*
X2185D02*
D03*
X2205D02*
D03*
X2224D02*
D03*
X2244D02*
D03*
X2264D02*
D03*
X2283D02*
D03*
X2303D02*
D03*
X2323D02*
D03*
X2342D02*
D03*
X2362D02*
D03*
X2382D02*
D03*
X2402D02*
D03*
X2421D02*
D03*
Y4291D02*
D03*
X2402D02*
D03*
X2323D02*
D03*
X2303D02*
D03*
X2264D02*
D03*
X2244D02*
D03*
X2224D02*
D03*
X2205D02*
D03*
X2185D02*
D03*
X2165D02*
D03*
X2146D02*
D03*
X2126D02*
D03*
X2106D02*
D03*
X2087D02*
D03*
X2067D02*
D03*
X2047D02*
D03*
X2028D02*
D03*
X2008D02*
D03*
X1988D02*
D03*
X1968D02*
D03*
X1949D02*
D03*
D27*
X2520Y3630D02*
D03*
X2458D02*
D03*
D28*
X962Y4566D02*
D03*
X884Y4528D02*
D03*
Y4603D02*
D03*
X1331Y4837D02*
D03*
X1253Y4799D02*
D03*
Y4874D02*
D03*
X1125Y4263D02*
D03*
X1203Y4300D02*
D03*
Y4226D02*
D03*
X1248Y3812D02*
D03*
Y3887D02*
D03*
X1170Y3849D02*
D03*
X1248Y3674D02*
D03*
Y3749D02*
D03*
X1170Y3712D02*
D03*
X1249Y3391D02*
D03*
Y3465D02*
D03*
X1171Y3428D02*
D03*
X1248Y3951D02*
D03*
Y4026D02*
D03*
X1169Y3988D02*
D03*
X1248Y4086D02*
D03*
Y4160D02*
D03*
X1170Y4123D02*
D03*
X2191Y3377D02*
D03*
Y3451D02*
D03*
X2112Y3414D02*
D03*
X1201Y4388D02*
D03*
Y4462D02*
D03*
X1122Y4425D02*
D03*
D29*
X2711Y3442D02*
D03*
X2777D02*
D03*
D30*
X1036Y4589D02*
D03*
Y4534D02*
D03*
X1417Y4864D02*
D03*
Y4809D02*
D03*
X1611Y3554D02*
D03*
Y3610D02*
D03*
X1826Y3635D02*
D03*
Y3690D02*
D03*
X1750Y4135D02*
D03*
Y4190D02*
D03*
X1757Y4068D02*
D03*
Y4013D02*
D03*
X1766Y4267D02*
D03*
Y4322D02*
D03*
X1695Y4066D02*
D03*
Y4010D02*
D03*
X1692Y3829D02*
D03*
Y3884D02*
D03*
X858Y3961D02*
D03*
Y4016D02*
D03*
X859Y4148D02*
D03*
Y4095D02*
D03*
X859Y3684D02*
D03*
Y3739D02*
D03*
Y3822D02*
D03*
Y3877D02*
D03*
X860Y3400D02*
D03*
Y3456D02*
D03*
X889Y4426D02*
D03*
Y4370D02*
D03*
X889Y4291D02*
D03*
Y4235D02*
D03*
X933Y3961D02*
D03*
Y4016D02*
D03*
X934Y4151D02*
D03*
Y4095D02*
D03*
X934Y3684D02*
D03*
Y3739D02*
D03*
Y3822D02*
D03*
Y3877D02*
D03*
X935Y3400D02*
D03*
Y3456D02*
D03*
X1008Y4016D02*
D03*
Y3961D02*
D03*
X1009Y3739D02*
D03*
Y3684D02*
D03*
Y3877D02*
D03*
Y3822D02*
D03*
X1010Y3456D02*
D03*
Y3400D02*
D03*
X1039Y4235D02*
D03*
Y4291D02*
D03*
Y4426D02*
D03*
Y4370D02*
D03*
X1084Y4158D02*
D03*
Y4095D02*
D03*
X1335Y3445D02*
D03*
Y3389D02*
D03*
X1876Y3442D02*
D03*
Y3386D02*
D03*
X2026Y3442D02*
D03*
Y3386D02*
D03*
X964Y4235D02*
D03*
Y4291D02*
D03*
Y4426D02*
D03*
Y4370D02*
D03*
X1009Y4151D02*
D03*
Y4095D02*
D03*
X1083Y4016D02*
D03*
Y3961D02*
D03*
X1084Y3739D02*
D03*
Y3684D02*
D03*
Y3877D02*
D03*
Y3822D02*
D03*
X1085Y3456D02*
D03*
Y3400D02*
D03*
X1951Y3442D02*
D03*
Y3386D02*
D03*
D31*
X1736Y3622D02*
D03*
X1681D02*
D03*
X1984Y4525D02*
D03*
X2040D02*
D03*
X1984Y4675D02*
D03*
X2040D02*
D03*
X1984Y4780D02*
D03*
X2040D02*
D03*
X1984Y4930D02*
D03*
X2040D02*
D03*
X2840Y3623D02*
D03*
X2896D02*
D03*
X2840Y3698D02*
D03*
X2896D02*
D03*
X2840Y3948D02*
D03*
X2896D02*
D03*
X3074Y3625D02*
D03*
X3129D02*
D03*
X3074Y3700D02*
D03*
X3129D02*
D03*
X2040Y4600D02*
D03*
X1984D02*
D03*
X2040Y4855D02*
D03*
X1984D02*
D03*
X3074Y3775D02*
D03*
X3129D02*
D03*
D32*
X1734Y3560D02*
D03*
X1771Y3482D02*
D03*
X1697D02*
D03*
X3139Y3939D02*
D03*
X3064D02*
D03*
X3102Y3861D02*
D03*
D33*
X2831Y3779D02*
D03*
X2905D02*
D03*
X2868Y3867D02*
D03*
D34*
X1672Y4275D02*
D03*
X1456D02*
D03*
X1672Y4149D02*
D03*
X1456D02*
D03*
D35*
X1586Y3872D02*
D03*
Y4030D02*
D03*
D36*
X1651Y4675D02*
D03*
Y4625D02*
D03*
Y4575D02*
D03*
Y4525D02*
D03*
X1873Y4675D02*
D03*
Y4625D02*
D03*
Y4575D02*
D03*
Y4525D02*
D03*
X1651Y4930D02*
D03*
Y4880D02*
D03*
Y4830D02*
D03*
Y4780D02*
D03*
X1873Y4930D02*
D03*
Y4880D02*
D03*
Y4830D02*
D03*
Y4780D02*
D03*
D37*
X2274Y4901D02*
D03*
X2235D02*
D03*
X2196D02*
D03*
Y4779D02*
D03*
X2235D02*
D03*
X2274D02*
D03*
X2469Y4901D02*
D03*
X2430D02*
D03*
X2391D02*
D03*
Y4779D02*
D03*
X2430D02*
D03*
X2469D02*
D03*
M02*
