G04*
G04 #@! TF.GenerationSoftware,Altium Limited,Altium Designer,22.10.1 (41)*
G04*
G04 Layer_Color=65535*
%FSLAX23Y23*%
%MOIN*%
G70*
G04*
G04 #@! TF.SameCoordinates,FE0D4549-5355-498F-96F3-0299564D4BAC*
G04*
G04*
G04 #@! TF.FilePolarity,Positive*
G04*
G01*
G75*
%ADD10C,0.020*%
%ADD11C,0.010*%
%ADD12C,0.024*%
%ADD13C,0.008*%
%ADD14C,0.008*%
%ADD15C,0.010*%
%ADD16C,0.007*%
%ADD17C,0.003*%
%ADD18C,0.009*%
%ADD19C,0.006*%
%ADD20C,0.007*%
%ADD21R,0.023X0.007*%
%ADD22R,0.018X0.067*%
%ADD23R,0.026X0.007*%
%ADD24R,0.020X0.020*%
G36*
X2298Y4844D02*
X2282Y4864D01*
X2302D01*
X2298Y4844D01*
D02*
G37*
G36*
X2493Y4844D02*
X2477Y4864D01*
X2497D01*
X2493Y4844D01*
D02*
G37*
G36*
X2956Y3540D02*
Y3540D01*
X2961D01*
Y3539D01*
Y3538D01*
X2970D01*
Y3538D01*
Y3537D01*
X3003D01*
Y3538D01*
Y3538D01*
X3049D01*
Y3538D01*
Y3537D01*
X3058D01*
Y3537D01*
Y3536D01*
X3074D01*
Y3536D01*
Y3535D01*
X3082D01*
Y3535D01*
Y3534D01*
X3087D01*
Y3533D01*
Y3533D01*
X3093D01*
Y3532D01*
Y3532D01*
X3098D01*
Y3531D01*
Y3531D01*
X3103D01*
Y3530D01*
Y3530D01*
X3107D01*
Y3529D01*
Y3528D01*
X3110D01*
Y3528D01*
Y3527D01*
X3115D01*
Y3527D01*
Y3526D01*
X3117D01*
Y3526D01*
Y3525D01*
X3120D01*
Y3525D01*
Y3524D01*
X3123D01*
Y3523D01*
Y3523D01*
X3125D01*
Y3522D01*
Y3522D01*
X3127D01*
Y3521D01*
Y3521D01*
X3129D01*
Y3520D01*
Y3520D01*
X3130D01*
Y3519D01*
Y3518D01*
X3133D01*
Y3518D01*
Y3517D01*
X3134D01*
Y3517D01*
Y3516D01*
X3136D01*
Y3516D01*
Y3515D01*
X3137D01*
Y3515D01*
Y3514D01*
X3139D01*
Y3513D01*
Y3513D01*
X3140D01*
Y3512D01*
Y3512D01*
X3142D01*
Y3511D01*
Y3511D01*
X3143D01*
Y3510D01*
Y3510D01*
X3144D01*
Y3509D01*
Y3508D01*
X3145D01*
Y3508D01*
Y3507D01*
Y3507D01*
Y3506D01*
X3146D01*
Y3506D01*
Y3505D01*
X3147D01*
Y3505D01*
Y3504D01*
Y3503D01*
Y3503D01*
X3148D01*
Y3502D01*
Y3502D01*
Y3501D01*
Y3501D01*
X3149D01*
Y3500D01*
Y3500D01*
Y3499D01*
Y3498D01*
X3150D01*
Y3498D01*
Y3497D01*
Y3497D01*
Y3496D01*
Y3496D01*
Y3495D01*
Y3495D01*
Y3494D01*
X3152D01*
Y3493D01*
Y3493D01*
Y3492D01*
Y3492D01*
Y3491D01*
Y3491D01*
Y3490D01*
Y3490D01*
Y3489D01*
Y3488D01*
Y3488D01*
Y3487D01*
Y3487D01*
Y3486D01*
Y3486D01*
Y3485D01*
Y3485D01*
Y3484D01*
Y3483D01*
Y3483D01*
Y3482D01*
Y3482D01*
Y3481D01*
Y3481D01*
Y3480D01*
Y3480D01*
X3150D01*
Y3479D01*
Y3478D01*
Y3478D01*
Y3477D01*
Y3477D01*
Y3476D01*
Y3476D01*
Y3475D01*
Y3475D01*
Y3474D01*
X3149D01*
Y3473D01*
Y3473D01*
Y3472D01*
Y3472D01*
X3148D01*
Y3471D01*
Y3471D01*
Y3470D01*
Y3470D01*
Y3469D01*
Y3469D01*
X3147D01*
Y3468D01*
Y3467D01*
Y3467D01*
Y3466D01*
Y3466D01*
Y3465D01*
X3146D01*
Y3465D01*
Y3464D01*
Y3464D01*
Y3463D01*
X3145D01*
Y3462D01*
Y3462D01*
Y3461D01*
Y3461D01*
X3144D01*
Y3460D01*
Y3460D01*
Y3459D01*
Y3459D01*
X3143D01*
Y3458D01*
Y3457D01*
Y3457D01*
Y3456D01*
X3142D01*
Y3456D01*
Y3455D01*
Y3455D01*
Y3454D01*
X3140D01*
Y3454D01*
Y3453D01*
Y3452D01*
Y3452D01*
X3139D01*
Y3451D01*
Y3451D01*
Y3450D01*
Y3450D01*
X3138D01*
Y3449D01*
Y3449D01*
X3137D01*
Y3448D01*
Y3447D01*
Y3447D01*
Y3446D01*
X3136D01*
Y3446D01*
Y3445D01*
X3135D01*
Y3445D01*
Y3444D01*
Y3444D01*
Y3443D01*
X3134D01*
Y3442D01*
Y3442D01*
X3133D01*
Y3441D01*
Y3441D01*
X3132D01*
Y3440D01*
Y3440D01*
Y3439D01*
Y3439D01*
X3130D01*
Y3438D01*
Y3437D01*
X3129D01*
Y3437D01*
Y3436D01*
Y3436D01*
Y3435D01*
X3128D01*
Y3435D01*
Y3434D01*
X3127D01*
Y3434D01*
Y3433D01*
X3126D01*
Y3432D01*
Y3432D01*
X3125D01*
Y3431D01*
Y3431D01*
Y3430D01*
Y3430D01*
X3124D01*
Y3429D01*
Y3429D01*
X3123D01*
Y3428D01*
Y3427D01*
X3122D01*
Y3427D01*
Y3426D01*
X3120D01*
Y3426D01*
Y3425D01*
X3119D01*
Y3425D01*
Y3424D01*
X3118D01*
Y3424D01*
Y3423D01*
X3117D01*
Y3422D01*
Y3422D01*
Y3421D01*
Y3421D01*
X3116D01*
Y3420D01*
Y3420D01*
X3115D01*
Y3419D01*
Y3419D01*
X3114D01*
Y3418D01*
Y3417D01*
X3113D01*
Y3417D01*
Y3416D01*
X3112D01*
Y3416D01*
Y3415D01*
X3110D01*
Y3415D01*
Y3414D01*
X3109D01*
Y3414D01*
Y3413D01*
X3108D01*
Y3412D01*
Y3412D01*
X3107D01*
Y3411D01*
Y3411D01*
X3106D01*
Y3410D01*
Y3410D01*
X3105D01*
Y3409D01*
Y3409D01*
X3104D01*
Y3408D01*
Y3407D01*
X3103D01*
Y3407D01*
Y3406D01*
X3102D01*
Y3406D01*
Y3405D01*
Y3405D01*
Y3404D01*
X3101D01*
Y3404D01*
Y3403D01*
X3099D01*
Y3402D01*
Y3402D01*
X3098D01*
Y3401D01*
Y3401D01*
X3096D01*
Y3400D01*
Y3400D01*
X3095D01*
Y3399D01*
Y3399D01*
X3094D01*
Y3398D01*
Y3397D01*
X3093D01*
Y3397D01*
Y3396D01*
X3092D01*
Y3396D01*
Y3395D01*
X3091D01*
Y3395D01*
Y3394D01*
X3089D01*
Y3394D01*
Y3393D01*
X3088D01*
Y3393D01*
Y3392D01*
X3087D01*
Y3391D01*
Y3391D01*
X3086D01*
Y3390D01*
Y3390D01*
X3085D01*
Y3389D01*
Y3389D01*
X3084D01*
Y3388D01*
Y3388D01*
X3083D01*
Y3387D01*
Y3386D01*
X3082D01*
Y3386D01*
Y3385D01*
X3081D01*
Y3385D01*
Y3384D01*
X3079D01*
Y3384D01*
Y3383D01*
X3077D01*
Y3383D01*
Y3382D01*
X3076D01*
Y3381D01*
Y3381D01*
X3075D01*
Y3380D01*
Y3380D01*
X3074D01*
Y3379D01*
Y3379D01*
X3073D01*
Y3378D01*
Y3378D01*
X3072D01*
Y3377D01*
Y3376D01*
X3071D01*
Y3376D01*
Y3375D01*
X3069D01*
Y3375D01*
Y3374D01*
X3067D01*
Y3374D01*
Y3373D01*
X3066D01*
Y3373D01*
Y3372D01*
X3065D01*
Y3371D01*
Y3371D01*
X3064D01*
Y3370D01*
Y3370D01*
X3063D01*
Y3369D01*
Y3369D01*
X3061D01*
Y3368D01*
Y3368D01*
X3059D01*
Y3367D01*
Y3366D01*
X3058D01*
Y3366D01*
Y3365D01*
X3056D01*
Y3365D01*
Y3364D01*
X3055D01*
Y3364D01*
Y3363D01*
X3054D01*
Y3363D01*
Y3362D01*
X3053D01*
Y3361D01*
Y3361D01*
X3052D01*
Y3360D01*
Y3360D01*
X3049D01*
Y3359D01*
Y3359D01*
X3048D01*
Y3358D01*
Y3358D01*
X3047D01*
Y3357D01*
Y3356D01*
X3046D01*
Y3356D01*
Y3355D01*
X3044D01*
Y3355D01*
Y3354D01*
X3043D01*
Y3354D01*
Y3353D01*
X3042D01*
Y3353D01*
Y3352D01*
X3041D01*
Y3351D01*
Y3351D01*
X3038D01*
Y3350D01*
Y3350D01*
X3037D01*
Y3349D01*
Y3349D01*
X3035D01*
Y3348D01*
Y3348D01*
X3034D01*
Y3347D01*
Y3346D01*
X3033D01*
Y3346D01*
Y3345D01*
X3032D01*
Y3345D01*
Y3344D01*
X3030D01*
Y3344D01*
Y3343D01*
X3028D01*
Y3343D01*
Y3342D01*
X3027D01*
Y3341D01*
Y3341D01*
X3026D01*
Y3340D01*
Y3340D01*
X3024D01*
Y3339D01*
Y3339D01*
X3022D01*
Y3338D01*
Y3338D01*
X3021D01*
Y3337D01*
Y3336D01*
X3020D01*
Y3336D01*
Y3335D01*
X3018D01*
Y3335D01*
Y3334D01*
X3016D01*
Y3334D01*
Y3333D01*
X3015D01*
Y3333D01*
Y3332D01*
X3014D01*
Y3331D01*
Y3331D01*
X3012D01*
Y3330D01*
Y3330D01*
X3011D01*
Y3329D01*
Y3329D01*
X3010D01*
Y3328D01*
Y3328D01*
X3007D01*
Y3327D01*
Y3326D01*
X3006D01*
Y3326D01*
Y3325D01*
X3004D01*
Y3325D01*
Y3324D01*
X3003D01*
Y3324D01*
Y3323D01*
X3002D01*
Y3323D01*
Y3322D01*
X3000D01*
Y3321D01*
Y3321D01*
X2998D01*
Y3320D01*
Y3320D01*
X2996D01*
Y3319D01*
Y3319D01*
X2995D01*
Y3318D01*
Y3318D01*
X2993D01*
Y3317D01*
Y3317D01*
X2992D01*
Y3316D01*
Y3315D01*
X2991D01*
Y3315D01*
Y3314D01*
X2988D01*
Y3314D01*
Y3313D01*
X2987D01*
Y3313D01*
Y3312D01*
X2985D01*
Y3312D01*
Y3311D01*
X2984D01*
Y3310D01*
Y3310D01*
X2983D01*
Y3309D01*
Y3309D01*
X2981D01*
Y3308D01*
Y3308D01*
X2980D01*
Y3307D01*
Y3307D01*
X2977D01*
Y3306D01*
Y3305D01*
X2976D01*
Y3305D01*
Y3304D01*
X2974D01*
Y3304D01*
Y3303D01*
X2973D01*
Y3303D01*
Y3302D01*
X2971D01*
Y3302D01*
Y3301D01*
X2970D01*
Y3300D01*
Y3300D01*
X2967D01*
Y3299D01*
Y3299D01*
X2966D01*
Y3298D01*
Y3298D01*
X2964D01*
Y3297D01*
Y3297D01*
X2963D01*
Y3296D01*
Y3295D01*
X2961D01*
Y3295D01*
Y3294D01*
X2960D01*
Y3294D01*
Y3293D01*
X2957D01*
Y3293D01*
Y3292D01*
X2956D01*
Y3292D01*
Y3291D01*
X2954D01*
Y3290D01*
Y3290D01*
X2953D01*
Y3289D01*
Y3289D01*
X2951D01*
Y3288D01*
Y3288D01*
X2950D01*
Y3287D01*
Y3287D01*
X2947D01*
Y3286D01*
Y3285D01*
X2946D01*
Y3285D01*
Y3284D01*
X2944D01*
Y3284D01*
Y3283D01*
X2943D01*
Y3283D01*
Y3282D01*
X2941D01*
Y3282D01*
Y3281D01*
X2939D01*
Y3280D01*
Y3280D01*
X2937D01*
Y3279D01*
Y3279D01*
X2936D01*
Y3278D01*
Y3278D01*
X2934D01*
Y3277D01*
Y3277D01*
X2932D01*
Y3276D01*
Y3275D01*
X2931D01*
Y3275D01*
Y3274D01*
X2929D01*
Y3274D01*
Y3273D01*
X2926D01*
Y3273D01*
Y3272D01*
X2925D01*
Y3272D01*
Y3271D01*
X2923D01*
Y3270D01*
Y3270D01*
X2922D01*
Y3269D01*
Y3269D01*
X2920D01*
Y3268D01*
Y3268D01*
X2919D01*
Y3267D01*
Y3267D01*
X2916D01*
Y3266D01*
Y3265D01*
X2914D01*
Y3265D01*
Y3264D01*
X2913D01*
Y3264D01*
Y3263D01*
X2911D01*
Y3263D01*
Y3262D01*
X2909D01*
Y3262D01*
Y3261D01*
X2907D01*
Y3260D01*
Y3260D01*
X2905D01*
Y3259D01*
Y3259D01*
X2904D01*
Y3258D01*
Y3258D01*
X2902D01*
Y3257D01*
Y3257D01*
X2900D01*
Y3256D01*
Y3255D01*
X2899D01*
Y3255D01*
Y3254D01*
X2896D01*
Y3254D01*
Y3253D01*
X2894D01*
Y3253D01*
Y3252D01*
X2892D01*
Y3252D01*
Y3251D01*
X2891D01*
Y3250D01*
Y3250D01*
X2889D01*
Y3249D01*
Y3249D01*
X2887D01*
Y3248D01*
Y3248D01*
X2885D01*
Y3247D01*
Y3247D01*
X2883D01*
Y3246D01*
Y3245D01*
X2881D01*
Y3245D01*
Y3244D01*
X2880D01*
Y3244D01*
Y3243D01*
X2878D01*
Y3243D01*
Y3242D01*
X2875D01*
Y3242D01*
Y3241D01*
X2874D01*
Y3241D01*
Y3240D01*
X2872D01*
Y3239D01*
Y3239D01*
X2870D01*
Y3238D01*
Y3238D01*
X2868D01*
Y3237D01*
Y3237D01*
X2866D01*
Y3236D01*
Y3236D01*
X2864D01*
Y3235D01*
Y3234D01*
X2862D01*
Y3234D01*
Y3233D01*
X2861D01*
Y3233D01*
Y3232D01*
X2859D01*
Y3232D01*
Y3231D01*
X2855D01*
Y3231D01*
Y3230D01*
X2854D01*
Y3229D01*
Y3229D01*
X2852D01*
Y3228D01*
Y3228D01*
X2851D01*
Y3227D01*
Y3227D01*
X2849D01*
Y3226D01*
Y3226D01*
X2846D01*
Y3225D01*
Y3224D01*
X2844D01*
Y3224D01*
Y3223D01*
X2842D01*
Y3223D01*
Y3222D01*
X2841D01*
Y3222D01*
Y3221D01*
X2839D01*
Y3221D01*
Y3220D01*
X2836D01*
Y3219D01*
Y3219D01*
X2834D01*
Y3218D01*
Y3218D01*
X2832D01*
Y3217D01*
Y3217D01*
X2830D01*
Y3216D01*
Y3216D01*
X2828D01*
Y3215D01*
Y3214D01*
X2826D01*
Y3214D01*
Y3213D01*
X2824D01*
Y3213D01*
Y3212D01*
X2822D01*
Y3212D01*
Y3211D01*
X2820D01*
Y3211D01*
Y3210D01*
X2819D01*
Y3209D01*
Y3209D01*
X2816D01*
Y3208D01*
Y3208D01*
X2814D01*
Y3207D01*
Y3207D01*
X2812D01*
Y3206D01*
Y3206D01*
X2810D01*
Y3205D01*
Y3204D01*
X2808D01*
Y3204D01*
Y3203D01*
X2805D01*
Y3203D01*
Y3202D01*
X2803D01*
Y3202D01*
Y3201D01*
X2802D01*
Y3201D01*
Y3200D01*
X2800D01*
Y3199D01*
Y3199D01*
X2798D01*
Y3198D01*
Y3198D01*
X2795D01*
Y3197D01*
Y3197D01*
X2793D01*
Y3196D01*
Y3196D01*
X2791D01*
Y3195D01*
Y3194D01*
X2789D01*
Y3194D01*
Y3193D01*
X2787D01*
Y3193D01*
Y3192D01*
X2784D01*
Y3192D01*
Y3191D01*
X2782D01*
Y3191D01*
Y3190D01*
X2780D01*
Y3189D01*
Y3189D01*
X2778D01*
Y3188D01*
Y3188D01*
X2775D01*
Y3187D01*
Y3187D01*
X2773D01*
Y3186D01*
Y3186D01*
X2771D01*
Y3185D01*
Y3184D01*
X2769D01*
Y3184D01*
Y3183D01*
X2767D01*
Y3183D01*
Y3182D01*
X2764D01*
Y3182D01*
Y3181D01*
X2762D01*
Y3181D01*
Y3180D01*
X2760D01*
Y3179D01*
Y3179D01*
X2758D01*
Y3178D01*
Y3178D01*
X2755D01*
Y3177D01*
Y3177D01*
X2753D01*
Y3176D01*
Y3176D01*
X2751D01*
Y3175D01*
Y3174D01*
X2749D01*
Y3174D01*
Y3173D01*
X2747D01*
Y3173D01*
Y3172D01*
X2744D01*
Y3172D01*
Y3171D01*
X2742D01*
Y3171D01*
Y3170D01*
X2740D01*
Y3169D01*
Y3169D01*
X2738D01*
Y3168D01*
Y3168D01*
X2735D01*
Y3167D01*
Y3167D01*
X2733D01*
Y3166D01*
Y3166D01*
X2730D01*
Y3165D01*
Y3165D01*
X2728D01*
Y3164D01*
Y3163D01*
X2726D01*
Y3163D01*
Y3162D01*
X2723D01*
Y3162D01*
Y3161D01*
X2721D01*
Y3161D01*
Y3160D01*
X2718D01*
Y3160D01*
Y3159D01*
X2716D01*
Y3158D01*
Y3158D01*
X2712D01*
Y3157D01*
Y3157D01*
X2710D01*
Y3156D01*
Y3156D01*
X2708D01*
Y3155D01*
Y3155D01*
X2706D01*
Y3154D01*
Y3153D01*
X2702D01*
Y3153D01*
Y3152D01*
X2700D01*
Y3152D01*
Y3151D01*
X2698D01*
Y3151D01*
Y3150D01*
X2694D01*
Y3150D01*
Y3149D01*
X2691D01*
Y3148D01*
Y3148D01*
X2689D01*
Y3147D01*
Y3147D01*
X2687D01*
Y3146D01*
Y3146D01*
X2683D01*
Y3145D01*
Y3145D01*
X2680D01*
Y3144D01*
Y3143D01*
X2678D01*
Y3143D01*
Y3142D01*
X2676D01*
Y3142D01*
Y3141D01*
X2671D01*
Y3141D01*
Y3140D01*
X2668D01*
Y3140D01*
Y3139D01*
X2666D01*
Y3138D01*
Y3138D01*
X2662D01*
Y3137D01*
Y3137D01*
X2659D01*
Y3137D01*
Y3138D01*
X2661D01*
Y3138D01*
Y3139D01*
X2663D01*
Y3140D01*
Y3140D01*
X2666D01*
Y3141D01*
Y3141D01*
X2668D01*
Y3142D01*
Y3142D01*
X2670D01*
Y3143D01*
Y3143D01*
X2672D01*
Y3144D01*
Y3145D01*
X2674D01*
Y3145D01*
Y3146D01*
X2677D01*
Y3146D01*
Y3147D01*
X2679D01*
Y3147D01*
Y3148D01*
X2681D01*
Y3148D01*
Y3149D01*
X2683D01*
Y3150D01*
Y3150D01*
X2686D01*
Y3151D01*
Y3151D01*
X2688D01*
Y3152D01*
Y3152D01*
X2690D01*
Y3153D01*
Y3153D01*
X2692D01*
Y3154D01*
Y3155D01*
X2694D01*
Y3155D01*
Y3156D01*
X2697D01*
Y3156D01*
Y3157D01*
X2699D01*
Y3157D01*
Y3158D01*
X2701D01*
Y3158D01*
Y3159D01*
X2703D01*
Y3160D01*
Y3160D01*
X2706D01*
Y3161D01*
Y3161D01*
X2708D01*
Y3162D01*
Y3162D01*
X2710D01*
Y3163D01*
Y3163D01*
X2712D01*
Y3164D01*
Y3165D01*
X2714D01*
Y3165D01*
Y3166D01*
X2717D01*
Y3166D01*
Y3167D01*
X2719D01*
Y3167D01*
Y3168D01*
X2721D01*
Y3168D01*
Y3169D01*
X2723D01*
Y3169D01*
Y3170D01*
X2726D01*
Y3171D01*
Y3171D01*
X2727D01*
Y3172D01*
Y3172D01*
X2729D01*
Y3173D01*
Y3173D01*
X2731D01*
Y3174D01*
Y3174D01*
X2733D01*
Y3175D01*
Y3176D01*
X2735D01*
Y3176D01*
Y3177D01*
X2738D01*
Y3177D01*
Y3178D01*
X2740D01*
Y3178D01*
Y3179D01*
X2742D01*
Y3179D01*
Y3180D01*
X2743D01*
Y3181D01*
Y3181D01*
X2745D01*
Y3182D01*
Y3182D01*
X2748D01*
Y3183D01*
Y3183D01*
X2749D01*
Y3184D01*
Y3184D01*
X2751D01*
Y3185D01*
Y3186D01*
X2753D01*
Y3186D01*
Y3187D01*
X2755D01*
Y3187D01*
Y3188D01*
X2758D01*
Y3188D01*
Y3189D01*
X2759D01*
Y3189D01*
Y3190D01*
X2761D01*
Y3191D01*
Y3191D01*
X2763D01*
Y3192D01*
Y3192D01*
X2765D01*
Y3193D01*
Y3193D01*
X2768D01*
Y3194D01*
Y3194D01*
X2769D01*
Y3195D01*
Y3196D01*
X2771D01*
Y3196D01*
Y3197D01*
X2773D01*
Y3197D01*
Y3198D01*
X2774D01*
Y3198D01*
Y3199D01*
X2777D01*
Y3199D01*
Y3200D01*
X2779D01*
Y3201D01*
Y3201D01*
X2781D01*
Y3202D01*
Y3202D01*
X2782D01*
Y3203D01*
Y3203D01*
X2784D01*
Y3204D01*
Y3204D01*
X2787D01*
Y3205D01*
Y3206D01*
X2788D01*
Y3206D01*
Y3207D01*
X2790D01*
Y3207D01*
Y3208D01*
X2792D01*
Y3208D01*
Y3209D01*
X2793D01*
Y3209D01*
Y3210D01*
X2795D01*
Y3211D01*
Y3211D01*
X2797D01*
Y3212D01*
Y3212D01*
X2799D01*
Y3213D01*
Y3213D01*
X2801D01*
Y3214D01*
Y3214D01*
X2802D01*
Y3215D01*
Y3216D01*
X2804D01*
Y3216D01*
Y3217D01*
X2806D01*
Y3217D01*
Y3218D01*
X2809D01*
Y3218D01*
Y3219D01*
X2810D01*
Y3219D01*
Y3220D01*
X2812D01*
Y3221D01*
Y3221D01*
X2813D01*
Y3222D01*
Y3222D01*
X2815D01*
Y3223D01*
Y3223D01*
X2816D01*
Y3224D01*
Y3224D01*
X2819D01*
Y3225D01*
Y3226D01*
X2821D01*
Y3226D01*
Y3227D01*
X2822D01*
Y3227D01*
Y3228D01*
X2824D01*
Y3228D01*
Y3229D01*
X2825D01*
Y3229D01*
Y3230D01*
X2828D01*
Y3231D01*
Y3231D01*
X2830D01*
Y3232D01*
Y3232D01*
X2831D01*
Y3233D01*
Y3233D01*
X2833D01*
Y3234D01*
Y3234D01*
X2834D01*
Y3235D01*
Y3236D01*
X2836D01*
Y3236D01*
Y3237D01*
X2838D01*
Y3237D01*
Y3238D01*
X2840D01*
Y3238D01*
Y3239D01*
X2841D01*
Y3239D01*
Y3240D01*
X2843D01*
Y3241D01*
Y3241D01*
X2844D01*
Y3242D01*
Y3242D01*
X2846D01*
Y3243D01*
Y3243D01*
X2848D01*
Y3244D01*
Y3244D01*
X2850D01*
Y3245D01*
Y3245D01*
X2851D01*
Y3246D01*
Y3247D01*
X2853D01*
Y3247D01*
Y3248D01*
X2854D01*
Y3248D01*
Y3249D01*
X2856D01*
Y3249D01*
Y3250D01*
X2858D01*
Y3250D01*
Y3251D01*
X2860D01*
Y3252D01*
Y3252D01*
X2861D01*
Y3253D01*
Y3253D01*
X2862D01*
Y3254D01*
Y3254D01*
X2864D01*
Y3255D01*
Y3255D01*
X2866D01*
Y3256D01*
Y3257D01*
X2868D01*
Y3257D01*
Y3258D01*
X2870D01*
Y3258D01*
Y3259D01*
X2871D01*
Y3259D01*
Y3260D01*
X2872D01*
Y3260D01*
Y3261D01*
X2874D01*
Y3262D01*
Y3262D01*
X2875D01*
Y3263D01*
Y3263D01*
X2878D01*
Y3264D01*
Y3264D01*
X2879D01*
Y3265D01*
Y3265D01*
X2881D01*
Y3266D01*
Y3267D01*
X2882D01*
Y3267D01*
Y3268D01*
X2883D01*
Y3268D01*
Y3269D01*
X2885D01*
Y3269D01*
Y3270D01*
X2886D01*
Y3270D01*
Y3271D01*
X2887D01*
Y3272D01*
Y3272D01*
X2890D01*
Y3273D01*
Y3273D01*
X2892D01*
Y3274D01*
Y3274D01*
X2893D01*
Y3275D01*
Y3275D01*
X2894D01*
Y3276D01*
Y3277D01*
X2895D01*
Y3277D01*
Y3278D01*
X2897D01*
Y3278D01*
Y3279D01*
X2899D01*
Y3279D01*
Y3280D01*
X2900D01*
Y3280D01*
Y3281D01*
X2902D01*
Y3282D01*
Y3282D01*
X2903D01*
Y3283D01*
Y3283D01*
X2905D01*
Y3284D01*
Y3284D01*
X2906D01*
Y3285D01*
Y3285D01*
X2907D01*
Y3286D01*
Y3287D01*
X2910D01*
Y3287D01*
Y3288D01*
X2911D01*
Y3288D01*
Y3289D01*
X2912D01*
Y3289D01*
Y3290D01*
X2914D01*
Y3290D01*
Y3291D01*
X2915D01*
Y3292D01*
Y3292D01*
X2916D01*
Y3293D01*
Y3293D01*
X2919D01*
Y3294D01*
Y3294D01*
X2920D01*
Y3295D01*
Y3295D01*
X2921D01*
Y3296D01*
Y3297D01*
X2923D01*
Y3297D01*
Y3298D01*
X2924D01*
Y3298D01*
Y3299D01*
X2925D01*
Y3299D01*
Y3300D01*
X2927D01*
Y3300D01*
Y3301D01*
X2929D01*
Y3302D01*
Y3302D01*
X2930D01*
Y3303D01*
Y3303D01*
X2931D01*
Y3304D01*
Y3304D01*
X2933D01*
Y3305D01*
Y3305D01*
X2934D01*
Y3306D01*
Y3307D01*
X2935D01*
Y3307D01*
Y3308D01*
X2937D01*
Y3308D01*
Y3309D01*
X2939D01*
Y3309D01*
Y3310D01*
X2940D01*
Y3310D01*
Y3311D01*
X2942D01*
Y3312D01*
Y3312D01*
X2943D01*
Y3313D01*
Y3313D01*
X2944D01*
Y3314D01*
Y3314D01*
X2945D01*
Y3315D01*
Y3315D01*
X2946D01*
Y3316D01*
Y3317D01*
X2949D01*
Y3317D01*
Y3318D01*
X2950D01*
Y3318D01*
Y3319D01*
X2951D01*
Y3319D01*
Y3320D01*
X2952D01*
Y3320D01*
Y3321D01*
X2953D01*
Y3321D01*
Y3322D01*
X2955D01*
Y3323D01*
Y3323D01*
X2956D01*
Y3324D01*
Y3324D01*
X2958D01*
Y3325D01*
Y3325D01*
X2960D01*
Y3326D01*
Y3326D01*
X2961D01*
Y3327D01*
Y3328D01*
X2962D01*
Y3328D01*
Y3329D01*
X2963D01*
Y3329D01*
Y3330D01*
X2964D01*
Y3330D01*
Y3331D01*
X2965D01*
Y3331D01*
Y3332D01*
X2967D01*
Y3333D01*
Y3333D01*
X2968D01*
Y3334D01*
Y3334D01*
X2970D01*
Y3335D01*
Y3335D01*
X2971D01*
Y3336D01*
Y3336D01*
X2972D01*
Y3337D01*
Y3338D01*
X2973D01*
Y3338D01*
Y3339D01*
X2974D01*
Y3339D01*
Y3340D01*
X2975D01*
Y3340D01*
Y3341D01*
X2976D01*
Y3341D01*
Y3342D01*
X2978D01*
Y3343D01*
Y3343D01*
X2980D01*
Y3344D01*
Y3344D01*
X2981D01*
Y3345D01*
Y3345D01*
X2982D01*
Y3346D01*
Y3346D01*
X2983D01*
Y3347D01*
Y3348D01*
X2984D01*
Y3348D01*
Y3349D01*
X2985D01*
Y3349D01*
Y3350D01*
X2986D01*
Y3350D01*
Y3351D01*
X2988D01*
Y3351D01*
Y3352D01*
Y3353D01*
Y3353D01*
X2990D01*
Y3354D01*
Y3354D01*
X2991D01*
Y3355D01*
Y3355D01*
X2993D01*
Y3356D01*
Y3356D01*
Y3357D01*
Y3358D01*
X2994D01*
Y3358D01*
Y3359D01*
X2995D01*
Y3359D01*
Y3360D01*
X2996D01*
Y3360D01*
Y3361D01*
X2997D01*
Y3361D01*
Y3362D01*
X2998D01*
Y3363D01*
Y3363D01*
X3001D01*
Y3364D01*
Y3364D01*
Y3365D01*
Y3365D01*
X3002D01*
Y3366D01*
Y3366D01*
X3004D01*
Y3367D01*
Y3368D01*
Y3368D01*
Y3369D01*
X3005D01*
Y3369D01*
Y3370D01*
X3006D01*
Y3370D01*
Y3371D01*
X3007D01*
Y3371D01*
Y3372D01*
X3008D01*
Y3373D01*
Y3373D01*
X3010D01*
Y3374D01*
Y3374D01*
X3011D01*
Y3375D01*
Y3375D01*
X3012D01*
Y3376D01*
Y3376D01*
X3013D01*
Y3377D01*
Y3378D01*
Y3378D01*
Y3379D01*
X3014D01*
Y3379D01*
Y3380D01*
X3015D01*
Y3380D01*
Y3381D01*
X3016D01*
Y3381D01*
Y3382D01*
X3017D01*
Y3383D01*
Y3383D01*
X3018D01*
Y3384D01*
Y3384D01*
X3020D01*
Y3385D01*
Y3385D01*
X3021D01*
Y3386D01*
Y3386D01*
X3022D01*
Y3387D01*
Y3388D01*
Y3388D01*
Y3389D01*
X3023D01*
Y3389D01*
Y3390D01*
X3024D01*
Y3390D01*
Y3391D01*
X3025D01*
Y3391D01*
Y3392D01*
X3026D01*
Y3393D01*
Y3393D01*
X3027D01*
Y3394D01*
Y3394D01*
Y3395D01*
Y3395D01*
X3028D01*
Y3396D01*
Y3396D01*
X3030D01*
Y3397D01*
Y3397D01*
Y3398D01*
Y3399D01*
X3031D01*
Y3399D01*
Y3400D01*
X3032D01*
Y3400D01*
Y3401D01*
X3033D01*
Y3401D01*
Y3402D01*
X3034D01*
Y3402D01*
Y3403D01*
Y3404D01*
Y3404D01*
X3035D01*
Y3405D01*
Y3405D01*
X3036D01*
Y3406D01*
Y3406D01*
Y3407D01*
Y3407D01*
X3037D01*
Y3408D01*
Y3409D01*
X3038D01*
Y3409D01*
Y3410D01*
X3039D01*
Y3410D01*
Y3411D01*
Y3411D01*
Y3412D01*
X3041D01*
Y3412D01*
Y3413D01*
Y3414D01*
Y3414D01*
X3042D01*
Y3415D01*
Y3415D01*
X3043D01*
Y3416D01*
Y3416D01*
Y3417D01*
Y3417D01*
X3044D01*
Y3418D01*
Y3419D01*
Y3419D01*
Y3420D01*
X3045D01*
Y3420D01*
Y3421D01*
Y3421D01*
Y3422D01*
X3046D01*
Y3422D01*
Y3423D01*
Y3424D01*
Y3424D01*
X3047D01*
Y3425D01*
Y3425D01*
Y3426D01*
Y3426D01*
X3048D01*
Y3427D01*
Y3427D01*
Y3428D01*
Y3429D01*
X3049D01*
Y3429D01*
Y3430D01*
Y3430D01*
Y3431D01*
X3051D01*
Y3431D01*
Y3432D01*
Y3432D01*
Y3433D01*
X3052D01*
Y3434D01*
Y3434D01*
Y3435D01*
Y3435D01*
Y3436D01*
Y3436D01*
X3053D01*
Y3437D01*
Y3437D01*
Y3438D01*
Y3439D01*
X3054D01*
Y3439D01*
Y3440D01*
Y3440D01*
Y3441D01*
Y3441D01*
Y3442D01*
Y3442D01*
Y3443D01*
X3055D01*
Y3444D01*
Y3444D01*
Y3445D01*
Y3445D01*
Y3446D01*
Y3446D01*
Y3447D01*
Y3447D01*
Y3448D01*
Y3449D01*
X3056D01*
Y3449D01*
Y3450D01*
Y3450D01*
Y3451D01*
Y3451D01*
Y3452D01*
Y3452D01*
Y3453D01*
Y3454D01*
Y3454D01*
Y3455D01*
Y3455D01*
Y3456D01*
Y3456D01*
Y3457D01*
Y3457D01*
Y3458D01*
Y3459D01*
Y3459D01*
Y3460D01*
Y3460D01*
Y3461D01*
Y3461D01*
Y3462D01*
Y3462D01*
Y3463D01*
Y3464D01*
Y3464D01*
Y3465D01*
Y3465D01*
Y3466D01*
Y3466D01*
X3055D01*
Y3467D01*
Y3467D01*
Y3468D01*
Y3469D01*
Y3469D01*
Y3470D01*
Y3470D01*
Y3471D01*
Y3471D01*
Y3472D01*
X3054D01*
Y3472D01*
Y3473D01*
Y3473D01*
Y3474D01*
X3053D01*
Y3475D01*
Y3475D01*
Y3476D01*
Y3476D01*
X3052D01*
Y3477D01*
Y3477D01*
Y3478D01*
Y3478D01*
X3051D01*
Y3479D01*
Y3480D01*
Y3480D01*
Y3481D01*
X3049D01*
Y3481D01*
Y3482D01*
X3048D01*
Y3482D01*
Y3483D01*
Y3483D01*
Y3484D01*
X3047D01*
Y3485D01*
Y3485D01*
X3046D01*
Y3486D01*
Y3486D01*
X3045D01*
Y3487D01*
Y3487D01*
X3044D01*
Y3488D01*
Y3488D01*
X3043D01*
Y3489D01*
Y3490D01*
X3041D01*
Y3490D01*
Y3491D01*
X3039D01*
Y3491D01*
Y3492D01*
X3038D01*
Y3492D01*
Y3493D01*
X3037D01*
Y3493D01*
Y3494D01*
X3035D01*
Y3495D01*
Y3495D01*
X3033D01*
Y3496D01*
Y3496D01*
X3031D01*
Y3497D01*
Y3497D01*
X3030D01*
Y3498D01*
Y3498D01*
X3026D01*
Y3499D01*
Y3500D01*
X3024D01*
Y3500D01*
Y3501D01*
X3022D01*
Y3501D01*
Y3502D01*
X3018D01*
Y3502D01*
Y3503D01*
X3016D01*
Y3503D01*
Y3504D01*
X3013D01*
Y3505D01*
Y3505D01*
X3008D01*
Y3506D01*
Y3506D01*
X3004D01*
Y3507D01*
Y3507D01*
X3001D01*
Y3508D01*
Y3508D01*
X2996D01*
Y3509D01*
Y3510D01*
X2988D01*
Y3510D01*
Y3511D01*
X2984D01*
Y3511D01*
Y3512D01*
X2974D01*
Y3512D01*
Y3513D01*
X2967D01*
Y3513D01*
Y3514D01*
X2961D01*
Y3515D01*
Y3515D01*
X2957D01*
Y3516D01*
Y3516D01*
X2927D01*
Y3516D01*
Y3515D01*
X2923D01*
Y3515D01*
Y3514D01*
X2917D01*
Y3513D01*
Y3513D01*
X2913D01*
Y3512D01*
Y3512D01*
X2909D01*
Y3511D01*
Y3511D01*
X2905D01*
Y3510D01*
Y3510D01*
X2901D01*
Y3509D01*
Y3508D01*
X2896D01*
Y3508D01*
Y3507D01*
X2894D01*
Y3507D01*
Y3506D01*
X2890D01*
Y3506D01*
Y3505D01*
X2885D01*
Y3505D01*
Y3504D01*
X2883D01*
Y3503D01*
Y3503D01*
Y3502D01*
Y3502D01*
X2885D01*
Y3501D01*
Y3501D01*
X2886D01*
Y3500D01*
Y3500D01*
X2887D01*
Y3499D01*
Y3498D01*
X2889D01*
Y3498D01*
Y3497D01*
X2890D01*
Y3497D01*
Y3496D01*
X2891D01*
Y3496D01*
Y3495D01*
X2892D01*
Y3495D01*
Y3494D01*
Y3493D01*
Y3493D01*
X2893D01*
Y3492D01*
Y3492D01*
X2894D01*
Y3491D01*
Y3491D01*
Y3490D01*
Y3490D01*
X2895D01*
Y3489D01*
Y3488D01*
X2896D01*
Y3488D01*
Y3487D01*
Y3487D01*
Y3486D01*
X2897D01*
Y3486D01*
Y3485D01*
Y3485D01*
Y3484D01*
Y3483D01*
Y3483D01*
Y3482D01*
Y3482D01*
X2899D01*
Y3481D01*
Y3481D01*
Y3480D01*
Y3480D01*
Y3479D01*
Y3478D01*
Y3478D01*
Y3477D01*
Y3477D01*
Y3476D01*
Y3476D01*
Y3475D01*
Y3475D01*
Y3474D01*
Y3473D01*
Y3473D01*
Y3472D01*
Y3472D01*
Y3471D01*
Y3471D01*
Y3470D01*
Y3470D01*
Y3469D01*
Y3469D01*
Y3468D01*
Y3467D01*
Y3467D01*
Y3466D01*
X2897D01*
Y3466D01*
Y3465D01*
Y3465D01*
Y3464D01*
Y3464D01*
Y3463D01*
Y3462D01*
Y3462D01*
X2896D01*
Y3461D01*
Y3461D01*
Y3460D01*
Y3460D01*
Y3459D01*
Y3459D01*
X2895D01*
Y3458D01*
Y3457D01*
Y3457D01*
Y3456D01*
X2894D01*
Y3456D01*
Y3455D01*
Y3455D01*
Y3454D01*
X2893D01*
Y3454D01*
Y3453D01*
Y3452D01*
Y3452D01*
X2892D01*
Y3451D01*
Y3451D01*
X2891D01*
Y3450D01*
Y3450D01*
Y3449D01*
Y3449D01*
X2890D01*
Y3448D01*
Y3447D01*
X2889D01*
Y3447D01*
Y3446D01*
Y3446D01*
Y3445D01*
X2887D01*
Y3445D01*
Y3444D01*
X2886D01*
Y3444D01*
Y3443D01*
X2885D01*
Y3442D01*
Y3442D01*
X2884D01*
Y3441D01*
Y3441D01*
X2882D01*
Y3440D01*
Y3440D01*
X2881D01*
Y3439D01*
Y3439D01*
X2879D01*
Y3438D01*
Y3437D01*
X2878D01*
Y3437D01*
Y3436D01*
X2876D01*
Y3436D01*
Y3435D01*
X2874D01*
Y3435D01*
Y3434D01*
X2872D01*
Y3434D01*
Y3433D01*
X2869D01*
Y3432D01*
Y3432D01*
X2865D01*
Y3431D01*
Y3431D01*
X2862D01*
Y3431D01*
Y3432D01*
Y3432D01*
Y3433D01*
Y3434D01*
Y3434D01*
Y3435D01*
Y3435D01*
X2863D01*
Y3436D01*
Y3436D01*
Y3437D01*
Y3437D01*
Y3438D01*
Y3439D01*
Y3439D01*
Y3440D01*
Y3440D01*
Y3441D01*
Y3441D01*
Y3442D01*
Y3442D01*
Y3443D01*
Y3444D01*
Y3444D01*
Y3445D01*
Y3445D01*
Y3446D01*
Y3446D01*
Y3447D01*
Y3447D01*
Y3448D01*
Y3449D01*
Y3449D01*
Y3450D01*
Y3450D01*
Y3451D01*
X2862D01*
Y3451D01*
Y3452D01*
Y3452D01*
Y3453D01*
Y3454D01*
Y3454D01*
X2861D01*
Y3455D01*
Y3455D01*
Y3456D01*
Y3456D01*
X2860D01*
Y3457D01*
Y3457D01*
Y3458D01*
Y3459D01*
X2859D01*
Y3459D01*
Y3460D01*
Y3460D01*
Y3461D01*
X2858D01*
Y3461D01*
Y3462D01*
X2856D01*
Y3462D01*
Y3463D01*
X2855D01*
Y3464D01*
Y3464D01*
X2854D01*
Y3465D01*
Y3465D01*
X2852D01*
Y3466D01*
Y3466D01*
X2850D01*
Y3467D01*
Y3467D01*
X2849D01*
Y3468D01*
Y3469D01*
X2846D01*
Y3469D01*
Y3470D01*
X2844D01*
Y3470D01*
Y3471D01*
X2842D01*
Y3471D01*
Y3472D01*
X2840D01*
Y3472D01*
Y3473D01*
X2838D01*
Y3473D01*
Y3474D01*
X2834D01*
Y3475D01*
Y3475D01*
X2832D01*
Y3476D01*
Y3476D01*
X2830D01*
Y3477D01*
Y3477D01*
X2826D01*
Y3478D01*
Y3478D01*
X2825D01*
Y3479D01*
Y3480D01*
X2828D01*
Y3480D01*
Y3481D01*
X2830D01*
Y3481D01*
Y3482D01*
X2836D01*
Y3482D01*
Y3483D01*
X2840D01*
Y3482D01*
Y3482D01*
X2846D01*
Y3481D01*
Y3481D01*
X2850D01*
Y3480D01*
Y3480D01*
X2851D01*
Y3479D01*
Y3478D01*
X2853D01*
Y3478D01*
Y3477D01*
X2855D01*
Y3477D01*
Y3476D01*
X2856D01*
Y3476D01*
Y3475D01*
X2858D01*
Y3475D01*
Y3474D01*
X2859D01*
Y3473D01*
Y3473D01*
X2860D01*
Y3472D01*
Y3472D01*
X2861D01*
Y3471D01*
Y3471D01*
X2862D01*
Y3470D01*
Y3470D01*
X2863D01*
Y3469D01*
Y3469D01*
Y3468D01*
Y3467D01*
X2864D01*
Y3467D01*
Y3466D01*
X2865D01*
Y3466D01*
Y3465D01*
Y3465D01*
Y3464D01*
X2866D01*
Y3464D01*
Y3463D01*
Y3462D01*
Y3462D01*
X2868D01*
Y3461D01*
Y3461D01*
Y3460D01*
Y3460D01*
X2869D01*
Y3459D01*
Y3459D01*
Y3458D01*
Y3457D01*
X2870D01*
Y3457D01*
Y3456D01*
Y3456D01*
Y3455D01*
X2871D01*
Y3455D01*
Y3454D01*
X2873D01*
Y3455D01*
Y3455D01*
X2874D01*
Y3456D01*
Y3456D01*
X2875D01*
Y3457D01*
Y3457D01*
X2876D01*
Y3458D01*
Y3459D01*
Y3459D01*
Y3460D01*
X2878D01*
Y3460D01*
Y3461D01*
X2879D01*
Y3461D01*
Y3462D01*
Y3462D01*
Y3463D01*
X2880D01*
Y3464D01*
Y3464D01*
Y3465D01*
Y3465D01*
X2881D01*
Y3466D01*
Y3466D01*
Y3467D01*
Y3467D01*
Y3468D01*
Y3469D01*
Y3469D01*
Y3470D01*
X2882D01*
Y3470D01*
Y3471D01*
Y3471D01*
Y3472D01*
Y3472D01*
Y3473D01*
Y3473D01*
Y3474D01*
Y3475D01*
Y3475D01*
Y3476D01*
Y3476D01*
Y3477D01*
Y3477D01*
Y3478D01*
Y3478D01*
X2881D01*
Y3479D01*
Y3480D01*
Y3480D01*
Y3481D01*
Y3481D01*
Y3482D01*
X2880D01*
Y3482D01*
Y3483D01*
Y3483D01*
Y3484D01*
X2879D01*
Y3485D01*
Y3485D01*
Y3486D01*
Y3486D01*
X2878D01*
Y3487D01*
Y3487D01*
Y3488D01*
Y3488D01*
X2876D01*
Y3489D01*
Y3490D01*
X2875D01*
Y3490D01*
Y3491D01*
X2874D01*
Y3491D01*
Y3492D01*
X2873D01*
Y3492D01*
Y3493D01*
X2872D01*
Y3493D01*
Y3494D01*
X2871D01*
Y3495D01*
Y3495D01*
X2869D01*
Y3496D01*
Y3496D01*
X2866D01*
Y3497D01*
Y3497D01*
X2864D01*
Y3498D01*
Y3498D01*
X2859D01*
Y3499D01*
Y3500D01*
X2853D01*
Y3499D01*
Y3498D01*
X2823D01*
Y3499D01*
Y3500D01*
X2820D01*
Y3500D01*
Y3501D01*
X2814D01*
Y3501D01*
Y3502D01*
X2809D01*
Y3502D01*
Y3503D01*
X2805D01*
Y3503D01*
Y3504D01*
X2801D01*
Y3505D01*
Y3505D01*
X2795D01*
Y3506D01*
Y3506D01*
X2789D01*
Y3507D01*
Y3507D01*
X2783D01*
Y3508D01*
Y3508D01*
X2763D01*
Y3508D01*
Y3507D01*
X2758D01*
Y3507D01*
Y3506D01*
X2753D01*
Y3506D01*
Y3505D01*
X2749D01*
Y3505D01*
Y3504D01*
X2747D01*
Y3503D01*
Y3503D01*
X2743D01*
Y3502D01*
Y3502D01*
X2741D01*
Y3501D01*
Y3501D01*
X2739D01*
Y3500D01*
Y3500D01*
X2737D01*
Y3499D01*
Y3498D01*
X2735D01*
Y3498D01*
Y3497D01*
X2733D01*
Y3497D01*
Y3496D01*
X2732D01*
Y3496D01*
Y3495D01*
X2730D01*
Y3495D01*
Y3494D01*
X2728D01*
Y3493D01*
Y3493D01*
X2726D01*
Y3492D01*
Y3492D01*
X2723D01*
Y3491D01*
Y3491D01*
X2722D01*
Y3490D01*
Y3490D01*
X2719D01*
Y3489D01*
Y3488D01*
X2717D01*
Y3488D01*
Y3487D01*
X2713D01*
Y3487D01*
Y3486D01*
X2711D01*
Y3486D01*
Y3485D01*
X2708D01*
Y3485D01*
Y3484D01*
X2706D01*
Y3483D01*
Y3483D01*
X2702D01*
Y3482D01*
Y3482D01*
X2699D01*
Y3481D01*
Y3481D01*
X2694D01*
Y3480D01*
Y3480D01*
X2692D01*
Y3479D01*
Y3478D01*
X2688D01*
Y3478D01*
Y3477D01*
X2683D01*
Y3477D01*
Y3476D01*
X2680D01*
Y3476D01*
Y3475D01*
X2676D01*
Y3475D01*
Y3474D01*
X2671D01*
Y3473D01*
Y3473D01*
X2667D01*
Y3472D01*
Y3472D01*
X2663D01*
Y3471D01*
Y3471D01*
X2660D01*
Y3470D01*
Y3470D01*
X2654D01*
Y3469D01*
Y3469D01*
X2652D01*
Y3468D01*
Y3467D01*
X2649D01*
Y3467D01*
Y3466D01*
X2645D01*
Y3466D01*
Y3465D01*
X2640D01*
Y3465D01*
Y3464D01*
X2638D01*
Y3464D01*
Y3463D01*
X2633D01*
Y3462D01*
Y3462D01*
X2630D01*
Y3461D01*
Y3461D01*
X2626D01*
Y3460D01*
Y3460D01*
X2622D01*
Y3459D01*
Y3459D01*
Y3458D01*
Y3457D01*
X2625D01*
Y3457D01*
Y3456D01*
X2626D01*
Y3456D01*
Y3455D01*
X2628D01*
Y3455D01*
Y3454D01*
X2629D01*
Y3454D01*
Y3453D01*
X2631D01*
Y3452D01*
Y3452D01*
X2632D01*
Y3451D01*
Y3451D01*
X2635D01*
Y3450D01*
X2635D01*
Y3450D01*
X2631D01*
Y3450D01*
Y3451D01*
X2598D01*
Y3450D01*
Y3450D01*
X2590D01*
Y3449D01*
Y3449D01*
X2587D01*
Y3448D01*
Y3447D01*
X2582D01*
Y3447D01*
Y3446D01*
X2579D01*
Y3446D01*
Y3445D01*
X2576D01*
Y3445D01*
Y3444D01*
X2574D01*
Y3444D01*
Y3443D01*
X2571D01*
Y3442D01*
Y3442D01*
X2569D01*
Y3441D01*
Y3441D01*
X2568D01*
Y3440D01*
Y3440D01*
X2566D01*
Y3439D01*
Y3439D01*
X2565D01*
Y3438D01*
Y3437D01*
Y3437D01*
Y3436D01*
Y3436D01*
Y3435D01*
X2579D01*
Y3435D01*
Y3434D01*
X2582D01*
Y3434D01*
Y3433D01*
X2583D01*
Y3432D01*
Y3432D01*
X2585D01*
Y3431D01*
Y3431D01*
X2586D01*
Y3430D01*
Y3430D01*
Y3429D01*
Y3429D01*
X2587D01*
Y3428D01*
Y3427D01*
Y3427D01*
Y3426D01*
Y3426D01*
Y3425D01*
Y3425D01*
Y3424D01*
Y3424D01*
Y3423D01*
Y3422D01*
Y3422D01*
Y3421D01*
Y3421D01*
Y3420D01*
Y3420D01*
Y3419D01*
Y3419D01*
X2586D01*
Y3418D01*
Y3417D01*
Y3417D01*
Y3416D01*
Y3416D01*
Y3415D01*
Y3415D01*
Y3414D01*
X2585D01*
Y3414D01*
Y3413D01*
Y3412D01*
Y3412D01*
Y3411D01*
Y3411D01*
X2583D01*
Y3410D01*
Y3410D01*
Y3409D01*
Y3409D01*
X2582D01*
Y3408D01*
Y3407D01*
Y3407D01*
Y3406D01*
X2581D01*
Y3406D01*
Y3405D01*
X2580D01*
Y3405D01*
Y3404D01*
Y3404D01*
Y3403D01*
X2579D01*
Y3402D01*
Y3402D01*
X2578D01*
Y3401D01*
Y3401D01*
Y3400D01*
Y3400D01*
X2577D01*
Y3399D01*
Y3399D01*
X2576D01*
Y3398D01*
Y3397D01*
X2574D01*
Y3397D01*
Y3396D01*
X2571D01*
Y3396D01*
Y3395D01*
X2568D01*
Y3396D01*
Y3396D01*
X2567D01*
Y3397D01*
Y3397D01*
X2566D01*
Y3398D01*
Y3399D01*
X2565D01*
Y3399D01*
Y3400D01*
Y3400D01*
Y3401D01*
Y3401D01*
Y3402D01*
Y3402D01*
Y3403D01*
Y3404D01*
Y3404D01*
X2567D01*
Y3405D01*
Y3405D01*
X2568D01*
Y3406D01*
Y3406D01*
X2569D01*
Y3407D01*
Y3407D01*
Y3408D01*
Y3409D01*
X2568D01*
Y3409D01*
Y3410D01*
X2566D01*
Y3410D01*
Y3411D01*
X2560D01*
Y3410D01*
Y3410D01*
X2558D01*
Y3409D01*
Y3409D01*
X2556D01*
Y3408D01*
Y3407D01*
X2555D01*
Y3407D01*
Y3406D01*
X2554D01*
Y3406D01*
Y3405D01*
Y3405D01*
Y3404D01*
X2552D01*
Y3404D01*
Y3403D01*
Y3402D01*
Y3402D01*
Y3401D01*
Y3401D01*
Y3400D01*
Y3400D01*
Y3399D01*
Y3399D01*
Y3398D01*
Y3397D01*
X2554D01*
Y3397D01*
Y3396D01*
Y3396D01*
Y3395D01*
X2555D01*
Y3395D01*
Y3394D01*
X2556D01*
Y3394D01*
Y3393D01*
X2557D01*
Y3393D01*
Y3392D01*
X2558D01*
Y3391D01*
Y3391D01*
X2559D01*
Y3390D01*
Y3390D01*
X2561D01*
Y3389D01*
Y3389D01*
X2566D01*
Y3388D01*
Y3388D01*
X2574D01*
Y3388D01*
Y3389D01*
X2581D01*
Y3389D01*
Y3390D01*
X2586D01*
Y3390D01*
Y3391D01*
X2592D01*
Y3391D01*
Y3392D01*
X2599D01*
Y3393D01*
Y3393D01*
X2605D01*
Y3394D01*
Y3394D01*
X2611D01*
Y3395D01*
Y3395D01*
X2622D01*
Y3396D01*
Y3396D01*
X2637D01*
Y3396D01*
Y3395D01*
X2646D01*
Y3395D01*
Y3394D01*
X2650D01*
Y3394D01*
Y3393D01*
X2653D01*
Y3393D01*
Y3392D01*
X2656D01*
Y3391D01*
Y3391D01*
X2658D01*
Y3390D01*
Y3390D01*
X2660D01*
Y3389D01*
Y3389D01*
X2662D01*
Y3388D01*
Y3388D01*
X2664D01*
Y3387D01*
Y3386D01*
X2667D01*
Y3386D01*
Y3385D01*
X2668D01*
Y3385D01*
Y3384D01*
X2670D01*
Y3384D01*
Y3383D01*
Y3383D01*
Y3382D01*
X2672D01*
Y3381D01*
Y3381D01*
X2673D01*
Y3380D01*
Y3380D01*
X2674D01*
Y3379D01*
Y3379D01*
X2676D01*
Y3378D01*
Y3378D01*
X2677D01*
Y3377D01*
Y3376D01*
X2678D01*
Y3376D01*
Y3375D01*
X2679D01*
Y3375D01*
Y3374D01*
X2680D01*
Y3374D01*
Y3373D01*
X2681D01*
Y3373D01*
Y3372D01*
Y3371D01*
Y3371D01*
X2682D01*
Y3370D01*
Y3370D01*
X2683D01*
Y3369D01*
Y3369D01*
X2684D01*
Y3368D01*
Y3368D01*
Y3367D01*
Y3366D01*
X2686D01*
Y3366D01*
Y3365D01*
X2687D01*
Y3365D01*
Y3364D01*
Y3364D01*
Y3363D01*
X2688D01*
Y3363D01*
Y3362D01*
X2689D01*
Y3361D01*
Y3361D01*
Y3360D01*
Y3360D01*
X2690D01*
Y3359D01*
Y3359D01*
Y3358D01*
Y3358D01*
X2691D01*
Y3357D01*
Y3356D01*
X2692D01*
Y3356D01*
Y3355D01*
X2693D01*
Y3355D01*
Y3354D01*
Y3354D01*
Y3353D01*
X2694D01*
Y3353D01*
Y3352D01*
Y3351D01*
Y3351D01*
X2696D01*
Y3350D01*
Y3350D01*
Y3349D01*
Y3349D01*
X2697D01*
Y3348D01*
Y3348D01*
Y3347D01*
Y3346D01*
X2698D01*
Y3346D01*
Y3345D01*
Y3345D01*
Y3344D01*
X2699D01*
Y3344D01*
Y3343D01*
X2700D01*
Y3343D01*
Y3342D01*
Y3341D01*
Y3341D01*
X2701D01*
Y3340D01*
Y3340D01*
Y3339D01*
Y3339D01*
X2702D01*
Y3338D01*
Y3338D01*
Y3337D01*
Y3336D01*
Y3336D01*
Y3335D01*
X2703D01*
Y3335D01*
Y3334D01*
X2704D01*
Y3334D01*
Y3333D01*
Y3333D01*
Y3332D01*
Y3331D01*
Y3331D01*
X2706D01*
Y3330D01*
Y3330D01*
Y3329D01*
Y3329D01*
X2707D01*
Y3328D01*
Y3328D01*
Y3327D01*
Y3326D01*
Y3326D01*
Y3325D01*
X2708D01*
Y3325D01*
Y3324D01*
Y3324D01*
Y3323D01*
X2709D01*
Y3323D01*
Y3322D01*
Y3321D01*
Y3321D01*
Y3320D01*
Y3320D01*
Y3319D01*
Y3319D01*
X2710D01*
Y3318D01*
Y3318D01*
Y3317D01*
Y3317D01*
Y3316D01*
Y3315D01*
X2711D01*
Y3315D01*
Y3314D01*
Y3314D01*
Y3313D01*
Y3313D01*
Y3312D01*
X2712D01*
Y3312D01*
Y3311D01*
Y3310D01*
Y3310D01*
Y3309D01*
Y3309D01*
Y3308D01*
Y3308D01*
X2713D01*
Y3307D01*
Y3307D01*
Y3306D01*
Y3305D01*
Y3305D01*
Y3304D01*
Y3304D01*
Y3303D01*
Y3303D01*
Y3302D01*
Y3302D01*
Y3301D01*
X2714D01*
Y3300D01*
Y3300D01*
Y3299D01*
Y3299D01*
Y3298D01*
Y3298D01*
Y3297D01*
Y3297D01*
Y3296D01*
Y3295D01*
Y3295D01*
Y3294D01*
Y3294D01*
Y3293D01*
Y3293D01*
Y3292D01*
Y3292D01*
Y3291D01*
Y3290D01*
Y3290D01*
Y3289D01*
Y3289D01*
Y3288D01*
Y3288D01*
Y3287D01*
Y3287D01*
Y3286D01*
Y3285D01*
Y3285D01*
Y3284D01*
Y3284D01*
Y3283D01*
Y3283D01*
Y3282D01*
Y3282D01*
Y3281D01*
Y3280D01*
Y3280D01*
Y3279D01*
Y3279D01*
Y3278D01*
Y3278D01*
Y3277D01*
Y3277D01*
X2713D01*
Y3276D01*
Y3275D01*
Y3275D01*
Y3274D01*
Y3274D01*
Y3273D01*
Y3273D01*
Y3272D01*
Y3272D01*
Y3271D01*
X2712D01*
Y3270D01*
Y3270D01*
Y3269D01*
Y3269D01*
Y3268D01*
Y3268D01*
X2711D01*
Y3267D01*
Y3267D01*
Y3266D01*
Y3265D01*
Y3265D01*
Y3264D01*
X2710D01*
Y3264D01*
Y3263D01*
Y3263D01*
Y3262D01*
Y3262D01*
Y3261D01*
X2709D01*
Y3260D01*
Y3260D01*
Y3259D01*
Y3259D01*
X2708D01*
Y3258D01*
Y3258D01*
Y3257D01*
Y3257D01*
X2707D01*
Y3256D01*
Y3255D01*
Y3255D01*
Y3254D01*
X2706D01*
Y3254D01*
Y3253D01*
X2704D01*
Y3253D01*
Y3252D01*
Y3252D01*
Y3251D01*
X2703D01*
Y3250D01*
Y3250D01*
X2702D01*
Y3249D01*
Y3249D01*
X2701D01*
Y3248D01*
Y3248D01*
Y3247D01*
Y3247D01*
X2700D01*
Y3246D01*
Y3245D01*
X2699D01*
Y3245D01*
Y3244D01*
X2698D01*
Y3244D01*
Y3243D01*
X2697D01*
Y3243D01*
Y3242D01*
X2696D01*
Y3242D01*
Y3241D01*
Y3241D01*
Y3240D01*
X2693D01*
Y3239D01*
Y3239D01*
X2692D01*
Y3238D01*
Y3238D01*
X2691D01*
Y3237D01*
Y3237D01*
X2690D01*
Y3236D01*
Y3236D01*
X2689D01*
Y3235D01*
Y3234D01*
X2687D01*
Y3234D01*
Y3233D01*
X2686D01*
Y3233D01*
Y3232D01*
X2684D01*
Y3232D01*
Y3231D01*
X2682D01*
Y3231D01*
Y3230D01*
X2681D01*
Y3229D01*
Y3229D01*
X2679D01*
Y3228D01*
Y3228D01*
X2678D01*
Y3227D01*
Y3227D01*
X2674D01*
Y3226D01*
Y3226D01*
X2673D01*
Y3225D01*
Y3224D01*
X2671D01*
Y3224D01*
Y3223D01*
X2669D01*
Y3223D01*
Y3222D01*
X2667D01*
Y3222D01*
Y3221D01*
X2664D01*
Y3221D01*
Y3220D01*
X2661D01*
Y3219D01*
Y3219D01*
X2658D01*
Y3218D01*
Y3218D01*
X2654D01*
Y3217D01*
Y3217D01*
X2650D01*
Y3216D01*
Y3216D01*
X2645D01*
Y3215D01*
Y3214D01*
Y3214D01*
Y3213D01*
X2646D01*
Y3213D01*
Y3212D01*
X2651D01*
Y3212D01*
Y3211D01*
X2663D01*
Y3212D01*
Y3212D01*
X2668D01*
Y3213D01*
Y3213D01*
X2670D01*
Y3214D01*
Y3214D01*
X2672D01*
Y3215D01*
Y3216D01*
X2674D01*
Y3216D01*
Y3217D01*
X2677D01*
Y3217D01*
Y3218D01*
X2678D01*
Y3218D01*
Y3219D01*
X2681D01*
Y3219D01*
Y3220D01*
X2682D01*
Y3221D01*
Y3221D01*
X2684D01*
Y3222D01*
Y3222D01*
X2686D01*
Y3223D01*
Y3223D01*
X2688D01*
Y3224D01*
Y3224D01*
X2690D01*
Y3225D01*
Y3226D01*
X2691D01*
Y3226D01*
Y3227D01*
X2693D01*
Y3227D01*
Y3228D01*
X2694D01*
Y3228D01*
Y3229D01*
X2696D01*
Y3229D01*
Y3230D01*
X2698D01*
Y3231D01*
Y3231D01*
X2699D01*
Y3232D01*
Y3232D01*
X2701D01*
Y3233D01*
Y3233D01*
X2702D01*
Y3234D01*
Y3234D01*
X2704D01*
Y3235D01*
Y3236D01*
X2706D01*
Y3236D01*
Y3237D01*
X2707D01*
Y3237D01*
Y3238D01*
X2708D01*
Y3238D01*
Y3239D01*
X2710D01*
Y3239D01*
Y3240D01*
X2711D01*
Y3241D01*
Y3241D01*
X2712D01*
Y3242D01*
Y3242D01*
X2713D01*
Y3243D01*
Y3243D01*
X2714D01*
Y3244D01*
Y3244D01*
X2717D01*
Y3245D01*
Y3245D01*
X2718D01*
Y3246D01*
Y3247D01*
X2719D01*
Y3247D01*
Y3248D01*
X2720D01*
Y3248D01*
Y3249D01*
X2722D01*
Y3249D01*
Y3250D01*
X2723D01*
Y3250D01*
Y3251D01*
Y3252D01*
Y3252D01*
X2726D01*
Y3253D01*
Y3253D01*
X2727D01*
Y3254D01*
Y3254D01*
X2728D01*
Y3255D01*
Y3255D01*
X2729D01*
Y3256D01*
Y3257D01*
X2731D01*
Y3257D01*
Y3258D01*
X2732D01*
Y3258D01*
Y3259D01*
X2733D01*
Y3259D01*
Y3260D01*
X2734D01*
Y3260D01*
Y3261D01*
X2735D01*
Y3262D01*
Y3262D01*
X2737D01*
Y3263D01*
Y3263D01*
X2739D01*
Y3264D01*
Y3264D01*
X2740D01*
Y3265D01*
Y3265D01*
X2741D01*
Y3266D01*
Y3267D01*
X2742D01*
Y3267D01*
Y3268D01*
X2743D01*
Y3268D01*
Y3269D01*
X2744D01*
Y3269D01*
Y3270D01*
X2747D01*
Y3270D01*
Y3271D01*
X2748D01*
Y3272D01*
Y3272D01*
X2749D01*
Y3273D01*
Y3273D01*
X2751D01*
Y3274D01*
Y3274D01*
X2752D01*
Y3275D01*
Y3275D01*
X2753D01*
Y3276D01*
Y3277D01*
X2754D01*
Y3277D01*
Y3278D01*
X2755D01*
Y3278D01*
Y3279D01*
X2758D01*
Y3279D01*
Y3280D01*
X2759D01*
Y3280D01*
Y3281D01*
X2760D01*
Y3282D01*
Y3282D01*
X2761D01*
Y3283D01*
Y3283D01*
X2762D01*
Y3284D01*
Y3284D01*
X2764D01*
Y3285D01*
Y3285D01*
X2765D01*
Y3286D01*
Y3287D01*
X2767D01*
Y3287D01*
Y3288D01*
X2769D01*
Y3288D01*
Y3289D01*
X2770D01*
Y3289D01*
Y3290D01*
X2771D01*
Y3290D01*
Y3291D01*
X2772D01*
Y3292D01*
Y3292D01*
X2773D01*
Y3293D01*
Y3293D01*
X2775D01*
Y3294D01*
Y3294D01*
X2777D01*
Y3295D01*
Y3295D01*
X2778D01*
Y3296D01*
Y3297D01*
X2779D01*
Y3297D01*
Y3298D01*
X2780D01*
Y3298D01*
Y3299D01*
X2782D01*
Y3299D01*
Y3300D01*
X2783D01*
Y3300D01*
Y3301D01*
X2784D01*
Y3302D01*
Y3302D01*
X2785D01*
Y3303D01*
Y3303D01*
X2787D01*
Y3304D01*
Y3304D01*
X2789D01*
Y3305D01*
Y3305D01*
X2790D01*
Y3306D01*
Y3307D01*
X2791D01*
Y3307D01*
Y3308D01*
X2792D01*
Y3308D01*
Y3309D01*
X2794D01*
Y3308D01*
Y3308D01*
X2793D01*
Y3307D01*
Y3307D01*
X2792D01*
Y3306D01*
Y3305D01*
Y3305D01*
Y3304D01*
X2791D01*
Y3304D01*
Y3303D01*
X2790D01*
Y3303D01*
Y3302D01*
X2789D01*
Y3302D01*
Y3301D01*
X2788D01*
Y3300D01*
Y3300D01*
X2787D01*
Y3299D01*
Y3299D01*
X2785D01*
Y3298D01*
Y3298D01*
X2784D01*
Y3297D01*
Y3297D01*
X2783D01*
Y3296D01*
Y3295D01*
X2782D01*
Y3295D01*
Y3294D01*
X2781D01*
Y3294D01*
Y3293D01*
Y3293D01*
Y3292D01*
X2780D01*
Y3292D01*
Y3291D01*
X2779D01*
Y3290D01*
Y3290D01*
X2778D01*
Y3289D01*
Y3289D01*
X2777D01*
Y3288D01*
Y3288D01*
X2775D01*
Y3287D01*
Y3287D01*
X2774D01*
Y3286D01*
Y3285D01*
X2773D01*
Y3285D01*
Y3284D01*
X2772D01*
Y3284D01*
Y3283D01*
X2771D01*
Y3283D01*
Y3282D01*
Y3282D01*
Y3281D01*
Y3280D01*
Y3280D01*
X2778D01*
Y3280D01*
Y3281D01*
X2783D01*
Y3282D01*
Y3282D01*
X2785D01*
Y3283D01*
Y3283D01*
X2787D01*
Y3284D01*
Y3284D01*
X2789D01*
Y3285D01*
Y3285D01*
X2790D01*
Y3286D01*
Y3287D01*
X2791D01*
Y3287D01*
Y3288D01*
X2792D01*
Y3288D01*
Y3289D01*
X2793D01*
Y3289D01*
Y3290D01*
Y3290D01*
Y3291D01*
X2794D01*
Y3292D01*
Y3292D01*
X2795D01*
Y3293D01*
Y3293D01*
X2797D01*
Y3294D01*
Y3294D01*
Y3295D01*
Y3295D01*
X2798D01*
Y3296D01*
Y3297D01*
X2800D01*
Y3296D01*
Y3295D01*
Y3295D01*
Y3294D01*
Y3294D01*
Y3293D01*
Y3293D01*
Y3292D01*
X2801D01*
Y3292D01*
Y3291D01*
Y3290D01*
Y3290D01*
Y3289D01*
Y3289D01*
Y3288D01*
Y3288D01*
X2802D01*
Y3287D01*
Y3287D01*
X2803D01*
Y3286D01*
Y3285D01*
X2808D01*
Y3286D01*
Y3287D01*
X2810D01*
Y3287D01*
Y3288D01*
X2811D01*
Y3288D01*
Y3289D01*
X2813D01*
Y3289D01*
Y3290D01*
X2814D01*
Y3290D01*
Y3291D01*
X2815D01*
Y3292D01*
Y3292D01*
X2818D01*
Y3293D01*
Y3293D01*
X2819D01*
Y3294D01*
Y3294D01*
X2820D01*
Y3295D01*
Y3295D01*
X2821D01*
Y3296D01*
Y3297D01*
Y3297D01*
Y3298D01*
X2822D01*
Y3298D01*
Y3299D01*
Y3299D01*
Y3300D01*
X2823D01*
Y3300D01*
Y3301D01*
Y3302D01*
Y3302D01*
X2824D01*
Y3303D01*
Y3303D01*
Y3304D01*
Y3304D01*
X2825D01*
Y3305D01*
Y3305D01*
Y3306D01*
Y3307D01*
X2826D01*
Y3307D01*
Y3308D01*
Y3308D01*
Y3309D01*
X2828D01*
Y3309D01*
Y3310D01*
Y3310D01*
Y3311D01*
Y3312D01*
Y3312D01*
X2829D01*
Y3313D01*
Y3313D01*
Y3314D01*
Y3314D01*
Y3315D01*
Y3315D01*
Y3316D01*
Y3317D01*
X2830D01*
Y3317D01*
Y3318D01*
Y3318D01*
Y3319D01*
Y3319D01*
Y3320D01*
X2831D01*
Y3320D01*
Y3321D01*
Y3321D01*
Y3322D01*
Y3323D01*
Y3323D01*
Y3324D01*
Y3324D01*
Y3325D01*
Y3325D01*
Y3326D01*
Y3326D01*
Y3327D01*
Y3328D01*
Y3328D01*
Y3329D01*
Y3329D01*
Y3330D01*
Y3330D01*
Y3331D01*
Y3331D01*
Y3332D01*
Y3333D01*
Y3333D01*
Y3334D01*
Y3334D01*
Y3335D01*
Y3335D01*
Y3336D01*
Y3336D01*
Y3337D01*
Y3338D01*
Y3338D01*
Y3339D01*
X2830D01*
Y3339D01*
Y3340D01*
Y3340D01*
Y3341D01*
Y3341D01*
Y3342D01*
Y3343D01*
Y3343D01*
Y3344D01*
Y3344D01*
X2829D01*
Y3345D01*
Y3345D01*
Y3346D01*
Y3346D01*
X2828D01*
Y3347D01*
Y3348D01*
Y3348D01*
Y3349D01*
Y3349D01*
Y3350D01*
X2826D01*
Y3350D01*
Y3351D01*
Y3351D01*
Y3352D01*
X2825D01*
Y3353D01*
Y3353D01*
Y3354D01*
Y3354D01*
X2824D01*
Y3355D01*
Y3355D01*
Y3356D01*
Y3356D01*
X2823D01*
Y3357D01*
Y3358D01*
X2822D01*
Y3358D01*
Y3359D01*
Y3359D01*
Y3360D01*
X2821D01*
Y3360D01*
Y3361D01*
X2820D01*
Y3361D01*
Y3362D01*
Y3363D01*
Y3363D01*
X2819D01*
Y3364D01*
X2818D01*
Y3364D01*
X2818D01*
Y3365D01*
X2818D01*
Y3364D01*
X2821D01*
Y3364D01*
Y3363D01*
X2823D01*
Y3363D01*
Y3362D01*
X2825D01*
Y3361D01*
Y3361D01*
X2826D01*
Y3360D01*
Y3360D01*
X2829D01*
Y3359D01*
Y3359D01*
X2830D01*
Y3358D01*
Y3358D01*
X2831D01*
Y3357D01*
Y3356D01*
X2832D01*
Y3356D01*
Y3355D01*
X2833D01*
Y3355D01*
Y3354D01*
X2834D01*
Y3354D01*
Y3353D01*
X2835D01*
Y3353D01*
Y3352D01*
X2836D01*
Y3351D01*
Y3351D01*
X2838D01*
Y3350D01*
Y3350D01*
X2839D01*
Y3349D01*
Y3349D01*
X2840D01*
Y3348D01*
Y3348D01*
Y3347D01*
Y3346D01*
X2841D01*
Y3346D01*
Y3345D01*
X2842D01*
Y3345D01*
Y3344D01*
Y3344D01*
Y3343D01*
X2843D01*
Y3343D01*
Y3342D01*
Y3341D01*
Y3341D01*
X2844D01*
Y3340D01*
Y3340D01*
X2845D01*
Y3339D01*
Y3339D01*
Y3338D01*
Y3338D01*
X2846D01*
Y3337D01*
Y3336D01*
Y3336D01*
Y3335D01*
Y3335D01*
Y3334D01*
X2848D01*
Y3334D01*
Y3333D01*
Y3333D01*
Y3332D01*
X2849D01*
Y3331D01*
Y3331D01*
X2850D01*
Y3330D01*
Y3330D01*
Y3329D01*
Y3329D01*
Y3328D01*
Y3328D01*
X2851D01*
Y3327D01*
Y3326D01*
Y3326D01*
Y3325D01*
Y3325D01*
Y3324D01*
X2853D01*
Y3325D01*
Y3325D01*
X2854D01*
Y3326D01*
Y3326D01*
Y3327D01*
Y3328D01*
X2855D01*
Y3328D01*
Y3329D01*
Y3329D01*
Y3330D01*
X2856D01*
Y3330D01*
Y3331D01*
X2858D01*
Y3331D01*
Y3332D01*
Y3333D01*
Y3333D01*
X2859D01*
Y3334D01*
Y3334D01*
X2860D01*
Y3335D01*
Y3335D01*
Y3336D01*
Y3336D01*
X2861D01*
Y3337D01*
Y3338D01*
X2862D01*
Y3338D01*
Y3339D01*
Y3339D01*
Y3340D01*
X2863D01*
Y3340D01*
Y3341D01*
Y3341D01*
Y3342D01*
X2864D01*
Y3343D01*
Y3343D01*
X2865D01*
Y3344D01*
Y3344D01*
Y3345D01*
Y3345D01*
Y3346D01*
Y3346D01*
X2866D01*
Y3347D01*
Y3348D01*
Y3348D01*
Y3349D01*
X2868D01*
Y3349D01*
Y3350D01*
Y3350D01*
Y3351D01*
X2869D01*
Y3351D01*
Y3352D01*
Y3353D01*
Y3353D01*
X2870D01*
Y3354D01*
Y3354D01*
Y3355D01*
Y3355D01*
Y3356D01*
Y3356D01*
X2871D01*
Y3357D01*
Y3358D01*
Y3358D01*
Y3359D01*
X2872D01*
Y3359D01*
Y3360D01*
Y3360D01*
Y3361D01*
X2873D01*
Y3361D01*
Y3362D01*
X2874D01*
Y3361D01*
Y3361D01*
X2875D01*
Y3360D01*
Y3360D01*
Y3359D01*
Y3359D01*
X2876D01*
Y3358D01*
Y3358D01*
Y3357D01*
Y3356D01*
Y3356D01*
Y3355D01*
X2878D01*
Y3355D01*
Y3354D01*
Y3354D01*
Y3353D01*
Y3353D01*
Y3352D01*
Y3351D01*
Y3351D01*
Y3350D01*
Y3350D01*
X2879D01*
Y3349D01*
Y3349D01*
Y3348D01*
Y3348D01*
Y3347D01*
Y3346D01*
Y3346D01*
Y3345D01*
Y3345D01*
Y3344D01*
Y3344D01*
Y3343D01*
Y3343D01*
Y3342D01*
Y3341D01*
Y3341D01*
Y3340D01*
Y3340D01*
X2878D01*
Y3339D01*
Y3339D01*
Y3338D01*
Y3338D01*
Y3337D01*
Y3336D01*
Y3336D01*
Y3335D01*
Y3335D01*
Y3334D01*
Y3334D01*
Y3333D01*
Y3333D01*
Y3332D01*
X2876D01*
Y3331D01*
Y3331D01*
Y3330D01*
Y3330D01*
Y3329D01*
Y3329D01*
X2875D01*
Y3328D01*
Y3328D01*
Y3327D01*
Y3326D01*
Y3326D01*
Y3325D01*
Y3325D01*
Y3324D01*
Y3324D01*
Y3323D01*
X2874D01*
Y3323D01*
Y3322D01*
Y3321D01*
Y3321D01*
Y3320D01*
Y3320D01*
Y3319D01*
Y3319D01*
X2873D01*
Y3318D01*
Y3318D01*
Y3317D01*
Y3317D01*
X2872D01*
Y3316D01*
Y3315D01*
Y3315D01*
Y3314D01*
Y3314D01*
Y3313D01*
X2871D01*
Y3313D01*
Y3312D01*
Y3312D01*
Y3311D01*
X2870D01*
Y3310D01*
Y3310D01*
X2869D01*
Y3309D01*
Y3309D01*
Y3308D01*
Y3308D01*
X2868D01*
Y3307D01*
Y3307D01*
X2866D01*
Y3306D01*
Y3305D01*
X2865D01*
Y3305D01*
Y3304D01*
X2864D01*
Y3304D01*
Y3303D01*
X2863D01*
Y3303D01*
Y3302D01*
X2862D01*
Y3302D01*
Y3301D01*
X2861D01*
Y3300D01*
Y3300D01*
X2860D01*
Y3299D01*
Y3299D01*
Y3298D01*
Y3298D01*
X2859D01*
Y3297D01*
Y3297D01*
X2858D01*
Y3296D01*
Y3295D01*
X2856D01*
Y3295D01*
Y3294D01*
X2855D01*
Y3294D01*
Y3293D01*
X2854D01*
Y3293D01*
Y3292D01*
X2853D01*
Y3292D01*
Y3291D01*
X2852D01*
Y3290D01*
Y3290D01*
X2851D01*
Y3289D01*
Y3289D01*
X2850D01*
Y3288D01*
Y3288D01*
X2849D01*
Y3287D01*
Y3287D01*
X2848D01*
Y3286D01*
Y3285D01*
X2846D01*
Y3285D01*
Y3284D01*
X2845D01*
Y3284D01*
Y3283D01*
X2844D01*
Y3283D01*
Y3282D01*
X2843D01*
Y3282D01*
Y3281D01*
X2842D01*
Y3280D01*
Y3280D01*
X2841D01*
Y3279D01*
Y3279D01*
X2840D01*
Y3278D01*
Y3278D01*
X2839D01*
Y3277D01*
Y3277D01*
X2838D01*
Y3276D01*
Y3275D01*
X2836D01*
Y3275D01*
Y3274D01*
X2835D01*
Y3274D01*
Y3273D01*
X2833D01*
Y3273D01*
Y3272D01*
X2832D01*
Y3272D01*
Y3271D01*
X2831D01*
Y3270D01*
Y3270D01*
X2830D01*
Y3269D01*
Y3269D01*
X2829D01*
Y3268D01*
Y3268D01*
X2828D01*
Y3267D01*
Y3267D01*
X2826D01*
Y3266D01*
Y3265D01*
X2825D01*
Y3265D01*
Y3264D01*
X2824D01*
Y3264D01*
Y3263D01*
X2823D01*
Y3263D01*
Y3262D01*
X2821D01*
Y3262D01*
Y3261D01*
X2820D01*
Y3260D01*
Y3260D01*
X2819D01*
Y3259D01*
Y3259D01*
X2818D01*
Y3258D01*
Y3258D01*
X2816D01*
Y3257D01*
Y3257D01*
X2814D01*
Y3256D01*
Y3255D01*
X2813D01*
Y3255D01*
Y3254D01*
X2812D01*
Y3254D01*
Y3253D01*
X2811D01*
Y3253D01*
Y3252D01*
X2810D01*
Y3252D01*
Y3251D01*
X2809D01*
Y3250D01*
Y3250D01*
X2806D01*
Y3249D01*
Y3249D01*
X2805D01*
Y3248D01*
Y3248D01*
X2804D01*
Y3247D01*
Y3247D01*
X2803D01*
Y3246D01*
Y3245D01*
X2802D01*
Y3245D01*
Y3244D01*
X2801D01*
Y3244D01*
Y3243D01*
X2799D01*
Y3243D01*
Y3242D01*
X2798D01*
Y3242D01*
Y3241D01*
X2795D01*
Y3241D01*
Y3240D01*
X2794D01*
Y3239D01*
Y3239D01*
X2793D01*
Y3238D01*
Y3238D01*
X2792D01*
Y3237D01*
Y3237D01*
X2791D01*
Y3236D01*
Y3236D01*
X2789D01*
Y3235D01*
Y3234D01*
X2788D01*
Y3234D01*
Y3233D01*
X2787D01*
Y3233D01*
Y3232D01*
X2784D01*
Y3232D01*
Y3231D01*
X2783D01*
Y3231D01*
Y3230D01*
X2782D01*
Y3229D01*
Y3229D01*
X2781D01*
Y3228D01*
Y3228D01*
X2779D01*
Y3227D01*
Y3227D01*
X2778D01*
Y3226D01*
Y3226D01*
X2775D01*
Y3225D01*
Y3224D01*
X2774D01*
Y3225D01*
Y3226D01*
Y3226D01*
Y3227D01*
Y3227D01*
Y3228D01*
X2773D01*
Y3228D01*
Y3229D01*
Y3229D01*
Y3230D01*
Y3231D01*
Y3231D01*
Y3232D01*
Y3232D01*
Y3233D01*
Y3233D01*
Y3234D01*
Y3234D01*
X2772D01*
Y3235D01*
Y3236D01*
Y3236D01*
Y3237D01*
X2771D01*
Y3237D01*
Y3238D01*
X2770D01*
Y3238D01*
Y3239D01*
Y3239D01*
Y3240D01*
X2768D01*
Y3241D01*
Y3241D01*
X2765D01*
Y3242D01*
Y3242D01*
X2759D01*
Y3242D01*
Y3241D01*
X2757D01*
Y3241D01*
Y3240D01*
X2753D01*
Y3239D01*
Y3239D01*
X2751D01*
Y3238D01*
Y3238D01*
X2748D01*
Y3237D01*
Y3237D01*
X2744D01*
Y3236D01*
Y3236D01*
X2742D01*
Y3235D01*
Y3234D01*
X2739D01*
Y3234D01*
Y3233D01*
X2737D01*
Y3233D01*
Y3232D01*
X2733D01*
Y3232D01*
Y3231D01*
X2730D01*
Y3231D01*
Y3230D01*
X2728D01*
Y3229D01*
Y3229D01*
X2724D01*
Y3228D01*
Y3228D01*
X2722D01*
Y3227D01*
Y3227D01*
X2719D01*
Y3226D01*
Y3226D01*
X2717D01*
Y3225D01*
Y3224D01*
X2713D01*
Y3224D01*
Y3223D01*
X2711D01*
Y3223D01*
Y3222D01*
X2708D01*
Y3222D01*
Y3221D01*
X2706D01*
Y3221D01*
Y3220D01*
X2702D01*
Y3219D01*
Y3219D01*
X2700D01*
Y3218D01*
Y3218D01*
X2698D01*
Y3217D01*
Y3217D01*
X2697D01*
Y3216D01*
Y3216D01*
X2694D01*
Y3215D01*
Y3214D01*
X2693D01*
Y3214D01*
Y3213D01*
X2692D01*
Y3213D01*
Y3212D01*
X2691D01*
Y3212D01*
Y3211D01*
X2689D01*
Y3211D01*
Y3210D01*
X2688D01*
Y3209D01*
Y3209D01*
X2686D01*
Y3208D01*
Y3208D01*
X2683D01*
Y3207D01*
Y3207D01*
X2681D01*
Y3206D01*
Y3206D01*
X2680D01*
Y3205D01*
Y3204D01*
X2677D01*
Y3204D01*
Y3203D01*
X2673D01*
Y3203D01*
Y3202D01*
X2670D01*
Y3202D01*
Y3201D01*
X2663D01*
Y3201D01*
Y3200D01*
X2654D01*
Y3201D01*
Y3201D01*
X2648D01*
Y3202D01*
Y3202D01*
X2643D01*
Y3203D01*
Y3203D01*
X2640D01*
Y3204D01*
Y3204D01*
X2637D01*
Y3205D01*
Y3206D01*
X2635D01*
Y3206D01*
Y3207D01*
X2632D01*
Y3207D01*
Y3208D01*
X2630D01*
Y3208D01*
Y3209D01*
X2628D01*
Y3209D01*
Y3210D01*
X2626D01*
Y3211D01*
Y3211D01*
X2623D01*
Y3212D01*
Y3212D01*
X2617D01*
Y3213D01*
Y3213D01*
Y3214D01*
Y3214D01*
Y3215D01*
Y3216D01*
X2620D01*
Y3216D01*
Y3217D01*
X2622D01*
Y3217D01*
Y3218D01*
X2626D01*
Y3218D01*
Y3219D01*
X2629D01*
Y3219D01*
Y3220D01*
X2632D01*
Y3221D01*
Y3221D01*
X2636D01*
Y3222D01*
Y3222D01*
X2639D01*
Y3223D01*
Y3223D01*
X2641D01*
Y3224D01*
Y3224D01*
X2645D01*
Y3225D01*
Y3226D01*
X2648D01*
Y3226D01*
Y3227D01*
X2650D01*
Y3227D01*
Y3228D01*
X2652D01*
Y3228D01*
Y3229D01*
X2656D01*
Y3229D01*
Y3230D01*
X2658D01*
Y3231D01*
Y3231D01*
X2660D01*
Y3232D01*
Y3232D01*
X2661D01*
Y3233D01*
Y3233D01*
X2663D01*
Y3234D01*
Y3234D01*
X2666D01*
Y3235D01*
Y3236D01*
X2668D01*
Y3236D01*
Y3237D01*
X2669D01*
Y3237D01*
Y3238D01*
X2670D01*
Y3238D01*
Y3239D01*
X2672D01*
Y3239D01*
Y3240D01*
X2674D01*
Y3241D01*
Y3241D01*
X2676D01*
Y3242D01*
Y3242D01*
X2677D01*
Y3243D01*
Y3243D01*
X2678D01*
Y3244D01*
Y3244D01*
X2679D01*
Y3245D01*
Y3245D01*
X2680D01*
Y3246D01*
Y3247D01*
X2682D01*
Y3247D01*
Y3248D01*
X2683D01*
Y3248D01*
Y3249D01*
Y3249D01*
Y3250D01*
X2684D01*
Y3250D01*
Y3251D01*
X2686D01*
Y3252D01*
Y3252D01*
X2687D01*
Y3253D01*
Y3253D01*
X2688D01*
Y3254D01*
Y3254D01*
X2689D01*
Y3255D01*
Y3255D01*
Y3256D01*
Y3257D01*
X2690D01*
Y3257D01*
Y3258D01*
X2691D01*
Y3258D01*
Y3259D01*
Y3259D01*
Y3260D01*
X2692D01*
Y3260D01*
Y3261D01*
X2693D01*
Y3262D01*
Y3262D01*
Y3263D01*
Y3263D01*
X2694D01*
Y3264D01*
Y3264D01*
Y3265D01*
Y3265D01*
X2696D01*
Y3266D01*
Y3267D01*
Y3267D01*
Y3268D01*
X2697D01*
Y3268D01*
Y3269D01*
Y3269D01*
Y3270D01*
X2698D01*
Y3270D01*
Y3271D01*
Y3272D01*
Y3272D01*
Y3273D01*
Y3273D01*
Y3274D01*
Y3274D01*
X2699D01*
Y3275D01*
Y3275D01*
Y3276D01*
Y3277D01*
Y3277D01*
Y3278D01*
Y3278D01*
Y3279D01*
Y3279D01*
Y3280D01*
X2700D01*
Y3280D01*
Y3281D01*
Y3282D01*
Y3282D01*
Y3283D01*
Y3283D01*
Y3284D01*
Y3284D01*
Y3285D01*
Y3285D01*
Y3286D01*
Y3287D01*
Y3287D01*
Y3288D01*
Y3288D01*
Y3289D01*
Y3289D01*
Y3290D01*
Y3290D01*
Y3291D01*
Y3292D01*
Y3292D01*
Y3293D01*
Y3293D01*
Y3294D01*
Y3294D01*
Y3295D01*
Y3295D01*
Y3296D01*
Y3297D01*
Y3297D01*
Y3298D01*
Y3298D01*
Y3299D01*
Y3299D01*
Y3300D01*
Y3300D01*
Y3301D01*
Y3302D01*
Y3302D01*
Y3303D01*
Y3303D01*
Y3304D01*
Y3304D01*
X2699D01*
Y3305D01*
Y3305D01*
Y3306D01*
Y3307D01*
Y3307D01*
Y3308D01*
Y3308D01*
Y3309D01*
Y3309D01*
Y3310D01*
Y3310D01*
Y3311D01*
Y3312D01*
Y3312D01*
Y3313D01*
Y3313D01*
X2698D01*
Y3314D01*
Y3314D01*
Y3315D01*
Y3315D01*
Y3316D01*
Y3317D01*
Y3317D01*
Y3318D01*
Y3318D01*
Y3319D01*
Y3319D01*
Y3320D01*
Y3320D01*
Y3321D01*
X2697D01*
Y3321D01*
Y3322D01*
Y3323D01*
Y3323D01*
Y3324D01*
Y3324D01*
Y3325D01*
Y3325D01*
X2696D01*
Y3326D01*
Y3326D01*
Y3327D01*
Y3328D01*
Y3328D01*
Y3329D01*
Y3329D01*
Y3330D01*
Y3330D01*
Y3331D01*
X2694D01*
Y3331D01*
Y3332D01*
Y3333D01*
Y3333D01*
Y3334D01*
Y3334D01*
X2693D01*
Y3335D01*
Y3335D01*
Y3336D01*
Y3336D01*
Y3337D01*
Y3338D01*
Y3338D01*
Y3339D01*
X2692D01*
Y3339D01*
Y3340D01*
Y3340D01*
Y3341D01*
Y3341D01*
Y3342D01*
X2691D01*
Y3343D01*
Y3343D01*
Y3344D01*
Y3344D01*
Y3345D01*
Y3345D01*
X2690D01*
Y3346D01*
Y3346D01*
Y3347D01*
Y3348D01*
Y3348D01*
Y3349D01*
X2689D01*
Y3349D01*
Y3350D01*
Y3350D01*
Y3351D01*
Y3351D01*
Y3352D01*
X2688D01*
Y3353D01*
Y3353D01*
Y3354D01*
Y3354D01*
X2687D01*
Y3355D01*
Y3355D01*
Y3356D01*
Y3356D01*
Y3357D01*
Y3358D01*
X2686D01*
Y3358D01*
Y3359D01*
X2684D01*
Y3359D01*
Y3360D01*
Y3360D01*
Y3361D01*
X2683D01*
Y3361D01*
Y3362D01*
X2682D01*
Y3363D01*
Y3363D01*
Y3364D01*
Y3364D01*
X2681D01*
Y3365D01*
Y3365D01*
X2680D01*
Y3366D01*
Y3366D01*
X2679D01*
Y3367D01*
Y3368D01*
X2678D01*
Y3368D01*
Y3369D01*
X2677D01*
Y3369D01*
Y3370D01*
X2676D01*
Y3370D01*
Y3371D01*
X2674D01*
Y3371D01*
Y3372D01*
X2673D01*
Y3373D01*
Y3373D01*
X2672D01*
Y3374D01*
Y3374D01*
X2671D01*
Y3375D01*
Y3375D01*
X2670D01*
Y3376D01*
Y3376D01*
X2668D01*
Y3377D01*
Y3378D01*
X2667D01*
Y3378D01*
Y3379D01*
X2666D01*
Y3379D01*
Y3380D01*
X2664D01*
Y3380D01*
Y3381D01*
X2662D01*
Y3381D01*
Y3382D01*
X2661D01*
Y3383D01*
Y3383D01*
X2659D01*
Y3384D01*
Y3384D01*
X2657D01*
Y3385D01*
Y3385D01*
X2654D01*
Y3386D01*
Y3386D01*
X2652D01*
Y3387D01*
Y3388D01*
X2647D01*
Y3388D01*
Y3389D01*
X2629D01*
Y3388D01*
Y3388D01*
X2612D01*
Y3387D01*
Y3386D01*
X2597D01*
Y3386D01*
Y3385D01*
Y3385D01*
Y3384D01*
X2602D01*
Y3384D01*
Y3383D01*
X2638D01*
Y3383D01*
Y3382D01*
X2645D01*
Y3381D01*
Y3381D01*
X2648D01*
Y3380D01*
Y3380D01*
X2651D01*
Y3379D01*
Y3379D01*
X2652D01*
Y3378D01*
Y3378D01*
X2654D01*
Y3377D01*
Y3376D01*
X2656D01*
Y3376D01*
Y3375D01*
X2658D01*
Y3375D01*
Y3374D01*
X2659D01*
Y3374D01*
Y3373D01*
X2660D01*
Y3373D01*
Y3372D01*
X2661D01*
Y3371D01*
Y3371D01*
X2662D01*
Y3370D01*
Y3370D01*
X2663D01*
Y3369D01*
Y3369D01*
X2664D01*
Y3368D01*
Y3368D01*
X2666D01*
Y3367D01*
Y3366D01*
X2667D01*
Y3366D01*
Y3365D01*
Y3365D01*
Y3364D01*
X2668D01*
Y3364D01*
Y3363D01*
X2669D01*
Y3363D01*
Y3362D01*
X2670D01*
Y3361D01*
Y3361D01*
X2671D01*
Y3360D01*
Y3360D01*
X2672D01*
Y3359D01*
Y3359D01*
Y3358D01*
Y3358D01*
X2673D01*
Y3357D01*
Y3356D01*
X2674D01*
Y3356D01*
Y3355D01*
Y3355D01*
Y3354D01*
X2676D01*
Y3354D01*
Y3353D01*
X2677D01*
Y3353D01*
Y3352D01*
Y3351D01*
Y3351D01*
X2678D01*
Y3350D01*
Y3350D01*
X2679D01*
Y3349D01*
Y3349D01*
Y3348D01*
Y3348D01*
X2680D01*
Y3347D01*
Y3346D01*
Y3346D01*
Y3345D01*
X2681D01*
Y3345D01*
Y3344D01*
Y3344D01*
Y3343D01*
X2682D01*
Y3343D01*
Y3342D01*
Y3341D01*
Y3341D01*
X2683D01*
Y3340D01*
Y3340D01*
Y3339D01*
Y3339D01*
X2684D01*
Y3338D01*
Y3338D01*
Y3337D01*
Y3336D01*
X2686D01*
Y3336D01*
Y3335D01*
Y3335D01*
Y3334D01*
X2687D01*
Y3334D01*
Y3333D01*
Y3333D01*
Y3332D01*
Y3331D01*
Y3331D01*
X2688D01*
Y3330D01*
Y3330D01*
Y3329D01*
Y3329D01*
X2689D01*
Y3328D01*
Y3328D01*
Y3327D01*
Y3326D01*
Y3326D01*
Y3325D01*
Y3325D01*
Y3324D01*
X2690D01*
Y3324D01*
Y3323D01*
Y3323D01*
Y3322D01*
Y3321D01*
Y3321D01*
X2691D01*
Y3320D01*
Y3320D01*
Y3319D01*
Y3319D01*
Y3318D01*
Y3318D01*
Y3317D01*
Y3317D01*
Y3316D01*
Y3315D01*
X2692D01*
Y3315D01*
Y3314D01*
Y3314D01*
Y3313D01*
Y3313D01*
Y3312D01*
X2693D01*
Y3312D01*
Y3311D01*
Y3310D01*
Y3310D01*
Y3309D01*
Y3309D01*
Y3308D01*
Y3308D01*
Y3307D01*
Y3307D01*
Y3306D01*
Y3305D01*
Y3305D01*
Y3304D01*
Y3304D01*
Y3303D01*
Y3303D01*
Y3302D01*
X2694D01*
Y3302D01*
Y3301D01*
Y3300D01*
Y3300D01*
Y3299D01*
Y3299D01*
Y3298D01*
Y3298D01*
Y3297D01*
Y3297D01*
Y3296D01*
Y3295D01*
Y3295D01*
Y3294D01*
Y3294D01*
Y3293D01*
X2692D01*
Y3294D01*
Y3294D01*
Y3295D01*
Y3295D01*
X2691D01*
Y3296D01*
Y3297D01*
Y3297D01*
Y3298D01*
Y3298D01*
Y3299D01*
Y3299D01*
Y3300D01*
X2690D01*
Y3300D01*
Y3301D01*
Y3302D01*
Y3302D01*
Y3303D01*
Y3303D01*
X2689D01*
Y3304D01*
Y3304D01*
Y3305D01*
Y3305D01*
Y3306D01*
Y3307D01*
X2688D01*
Y3307D01*
Y3308D01*
Y3308D01*
Y3309D01*
X2687D01*
Y3309D01*
Y3310D01*
Y3310D01*
Y3311D01*
Y3312D01*
Y3312D01*
Y3313D01*
Y3313D01*
X2686D01*
Y3314D01*
Y3314D01*
Y3315D01*
Y3315D01*
X2684D01*
Y3316D01*
Y3317D01*
Y3317D01*
Y3318D01*
Y3318D01*
Y3319D01*
X2683D01*
Y3319D01*
Y3320D01*
Y3320D01*
Y3321D01*
Y3321D01*
Y3322D01*
X2682D01*
Y3323D01*
Y3323D01*
Y3324D01*
Y3324D01*
Y3325D01*
Y3325D01*
X2681D01*
Y3326D01*
Y3326D01*
Y3327D01*
Y3328D01*
X2680D01*
Y3328D01*
Y3329D01*
Y3329D01*
Y3330D01*
Y3330D01*
Y3331D01*
X2679D01*
Y3331D01*
Y3332D01*
Y3333D01*
Y3333D01*
X2678D01*
Y3334D01*
Y3334D01*
Y3335D01*
Y3335D01*
X2677D01*
Y3336D01*
Y3336D01*
Y3337D01*
Y3338D01*
X2676D01*
Y3338D01*
Y3339D01*
Y3339D01*
Y3340D01*
X2674D01*
Y3340D01*
Y3341D01*
Y3341D01*
Y3342D01*
X2673D01*
Y3343D01*
Y3343D01*
Y3344D01*
Y3344D01*
X2672D01*
Y3345D01*
Y3345D01*
X2671D01*
Y3346D01*
Y3346D01*
Y3347D01*
Y3348D01*
X2670D01*
Y3348D01*
Y3349D01*
Y3349D01*
Y3350D01*
X2669D01*
Y3350D01*
Y3351D01*
X2668D01*
Y3351D01*
Y3352D01*
Y3353D01*
Y3353D01*
X2667D01*
Y3354D01*
Y3354D01*
Y3355D01*
Y3355D01*
X2666D01*
Y3356D01*
Y3356D01*
X2664D01*
Y3357D01*
Y3358D01*
X2663D01*
Y3358D01*
Y3359D01*
X2662D01*
Y3359D01*
Y3360D01*
Y3360D01*
Y3361D01*
X2661D01*
Y3361D01*
Y3362D01*
X2660D01*
Y3363D01*
Y3363D01*
X2659D01*
Y3364D01*
Y3364D01*
X2658D01*
Y3365D01*
Y3365D01*
X2657D01*
Y3366D01*
Y3366D01*
X2656D01*
Y3367D01*
Y3368D01*
X2654D01*
Y3368D01*
Y3369D01*
X2653D01*
Y3369D01*
Y3370D01*
X2652D01*
Y3370D01*
Y3371D01*
X2651D01*
Y3371D01*
Y3372D01*
X2650D01*
Y3373D01*
Y3373D01*
X2648D01*
Y3374D01*
Y3374D01*
X2647D01*
Y3375D01*
Y3375D01*
X2646D01*
Y3376D01*
Y3376D01*
X2643D01*
Y3377D01*
Y3378D01*
X2641D01*
Y3378D01*
Y3379D01*
X2637D01*
Y3378D01*
Y3378D01*
X2635D01*
Y3377D01*
Y3376D01*
Y3376D01*
Y3375D01*
X2633D01*
Y3375D01*
Y3374D01*
X2632D01*
Y3374D01*
Y3373D01*
Y3373D01*
Y3372D01*
X2631D01*
Y3371D01*
Y3371D01*
Y3370D01*
Y3370D01*
X2630D01*
Y3369D01*
Y3369D01*
X2629D01*
Y3368D01*
Y3368D01*
X2628D01*
Y3367D01*
Y3366D01*
Y3366D01*
Y3365D01*
X2627D01*
Y3365D01*
Y3364D01*
Y3364D01*
Y3363D01*
X2626D01*
Y3363D01*
Y3362D01*
X2625D01*
Y3363D01*
Y3363D01*
X2623D01*
Y3364D01*
Y3364D01*
Y3365D01*
Y3365D01*
X2622D01*
Y3366D01*
Y3366D01*
Y3367D01*
Y3368D01*
Y3368D01*
Y3369D01*
X2621D01*
Y3369D01*
Y3370D01*
X2620D01*
Y3370D01*
Y3371D01*
Y3371D01*
Y3372D01*
X2619D01*
Y3373D01*
Y3373D01*
X2618D01*
Y3374D01*
Y3374D01*
X2617D01*
Y3375D01*
Y3375D01*
X2616D01*
Y3376D01*
Y3376D01*
X2613D01*
Y3377D01*
Y3378D01*
X2612D01*
Y3378D01*
Y3379D01*
X2610D01*
Y3379D01*
Y3380D01*
X2607D01*
Y3380D01*
Y3381D01*
X2602D01*
Y3381D01*
Y3382D01*
X2598D01*
Y3383D01*
Y3383D01*
X2589D01*
Y3384D01*
Y3384D01*
X2569D01*
Y3384D01*
Y3383D01*
X2557D01*
Y3384D01*
Y3384D01*
X2552D01*
Y3385D01*
Y3385D01*
X2550D01*
Y3386D01*
Y3386D01*
X2549D01*
Y3387D01*
Y3388D01*
X2547D01*
Y3388D01*
Y3389D01*
X2546D01*
Y3389D01*
Y3390D01*
X2545D01*
Y3390D01*
Y3391D01*
X2544D01*
Y3391D01*
Y3392D01*
X2542D01*
Y3393D01*
Y3393D01*
Y3394D01*
Y3394D01*
X2541D01*
Y3395D01*
Y3395D01*
X2540D01*
Y3396D01*
Y3396D01*
X2539D01*
Y3397D01*
Y3397D01*
X2538D01*
Y3398D01*
Y3399D01*
X2537D01*
Y3399D01*
Y3400D01*
Y3400D01*
Y3401D01*
X2536D01*
Y3401D01*
Y3402D01*
Y3402D01*
Y3403D01*
X2535D01*
Y3404D01*
Y3404D01*
Y3405D01*
Y3405D01*
X2534D01*
Y3406D01*
Y3406D01*
Y3407D01*
Y3407D01*
X2532D01*
Y3408D01*
Y3409D01*
X2531D01*
Y3409D01*
Y3410D01*
Y3410D01*
Y3411D01*
X2530D01*
Y3411D01*
Y3412D01*
Y3412D01*
Y3413D01*
Y3414D01*
Y3414D01*
Y3415D01*
Y3415D01*
Y3416D01*
Y3416D01*
Y3417D01*
Y3417D01*
Y3418D01*
Y3419D01*
X2531D01*
Y3419D01*
Y3420D01*
Y3420D01*
Y3421D01*
X2532D01*
Y3421D01*
Y3422D01*
X2534D01*
Y3422D01*
Y3423D01*
Y3424D01*
Y3424D01*
X2535D01*
Y3425D01*
Y3425D01*
X2536D01*
Y3426D01*
Y3426D01*
X2537D01*
Y3427D01*
Y3427D01*
X2538D01*
Y3428D01*
Y3429D01*
X2539D01*
Y3429D01*
Y3430D01*
X2540D01*
Y3430D01*
Y3431D01*
X2541D01*
Y3431D01*
Y3432D01*
X2544D01*
Y3432D01*
Y3433D01*
X2545D01*
Y3434D01*
Y3434D01*
X2546D01*
Y3435D01*
Y3435D01*
X2547D01*
Y3436D01*
Y3436D01*
X2549D01*
Y3437D01*
Y3437D01*
X2550D01*
Y3438D01*
Y3439D01*
X2552D01*
Y3439D01*
Y3440D01*
X2554D01*
Y3440D01*
Y3441D01*
X2556D01*
Y3441D01*
Y3442D01*
X2558D01*
Y3442D01*
Y3443D01*
X2559D01*
Y3444D01*
Y3444D01*
X2561D01*
Y3445D01*
Y3445D01*
X2564D01*
Y3446D01*
Y3446D01*
X2566D01*
Y3447D01*
Y3447D01*
X2568D01*
Y3448D01*
Y3449D01*
X2570D01*
Y3449D01*
Y3450D01*
X2572D01*
Y3450D01*
Y3451D01*
X2575D01*
Y3451D01*
Y3452D01*
X2577D01*
Y3452D01*
Y3453D01*
X2579D01*
Y3454D01*
Y3454D01*
X2581D01*
Y3455D01*
Y3455D01*
X2583D01*
Y3456D01*
Y3456D01*
X2587D01*
Y3457D01*
Y3457D01*
X2589D01*
Y3458D01*
Y3459D01*
X2591D01*
Y3459D01*
Y3460D01*
X2595D01*
Y3460D01*
Y3461D01*
X2597D01*
Y3461D01*
Y3462D01*
X2600D01*
Y3462D01*
Y3463D01*
X2602D01*
Y3464D01*
Y3464D01*
X2606D01*
Y3465D01*
Y3465D01*
X2609D01*
Y3466D01*
Y3466D01*
X2612D01*
Y3467D01*
Y3467D01*
X2615D01*
Y3468D01*
Y3469D01*
X2618D01*
Y3469D01*
Y3470D01*
X2621D01*
Y3470D01*
Y3471D01*
X2626D01*
Y3471D01*
Y3472D01*
X2628D01*
Y3472D01*
Y3473D01*
X2631D01*
Y3473D01*
Y3474D01*
X2636D01*
Y3475D01*
Y3475D01*
X2638D01*
Y3476D01*
Y3476D01*
X2642D01*
Y3477D01*
Y3477D01*
X2646D01*
Y3478D01*
Y3478D01*
X2650D01*
Y3479D01*
Y3480D01*
X2653D01*
Y3480D01*
Y3481D01*
X2658D01*
Y3481D01*
Y3482D01*
X2661D01*
Y3482D01*
Y3483D01*
X2666D01*
Y3483D01*
Y3484D01*
X2669D01*
Y3485D01*
Y3485D01*
X2673D01*
Y3486D01*
Y3486D01*
X2678D01*
Y3487D01*
Y3487D01*
X2681D01*
Y3488D01*
Y3488D01*
X2684D01*
Y3489D01*
Y3490D01*
X2688D01*
Y3490D01*
Y3491D01*
X2691D01*
Y3491D01*
Y3492D01*
X2694D01*
Y3492D01*
Y3493D01*
X2698D01*
Y3493D01*
Y3494D01*
X2700D01*
Y3495D01*
Y3495D01*
X2703D01*
Y3496D01*
Y3496D01*
X2706D01*
Y3497D01*
Y3497D01*
X2708D01*
Y3498D01*
Y3498D01*
X2711D01*
Y3499D01*
Y3500D01*
X2713D01*
Y3500D01*
Y3501D01*
X2716D01*
Y3501D01*
Y3502D01*
X2719D01*
Y3502D01*
Y3503D01*
X2720D01*
Y3503D01*
Y3504D01*
X2722D01*
Y3505D01*
Y3505D01*
X2724D01*
Y3506D01*
Y3506D01*
X2727D01*
Y3507D01*
Y3507D01*
X2729D01*
Y3508D01*
Y3508D01*
X2730D01*
Y3509D01*
Y3510D01*
X2732D01*
Y3510D01*
Y3511D01*
X2734D01*
Y3511D01*
Y3512D01*
X2735D01*
Y3512D01*
Y3513D01*
X2738D01*
Y3513D01*
Y3514D01*
X2740D01*
Y3515D01*
Y3515D01*
X2743D01*
Y3516D01*
Y3516D01*
X2745D01*
Y3517D01*
Y3517D01*
X2750D01*
Y3518D01*
Y3518D01*
X2753D01*
Y3519D01*
Y3520D01*
X2775D01*
Y3519D01*
Y3518D01*
X2779D01*
Y3518D01*
Y3517D01*
X2784D01*
Y3517D01*
Y3516D01*
X2790D01*
Y3516D01*
Y3515D01*
X2797D01*
Y3515D01*
Y3514D01*
X2802D01*
Y3513D01*
Y3513D01*
X2812D01*
Y3512D01*
Y3512D01*
X2845D01*
Y3512D01*
Y3513D01*
X2855D01*
Y3513D01*
Y3514D01*
X2861D01*
Y3515D01*
Y3515D01*
X2865D01*
Y3516D01*
Y3516D01*
X2872D01*
Y3517D01*
Y3517D01*
X2876D01*
Y3518D01*
Y3518D01*
X2880D01*
Y3519D01*
Y3520D01*
X2883D01*
Y3520D01*
Y3521D01*
X2886D01*
Y3521D01*
Y3522D01*
X2890D01*
Y3522D01*
Y3523D01*
X2893D01*
Y3523D01*
Y3524D01*
X2896D01*
Y3525D01*
Y3525D01*
X2899D01*
Y3526D01*
Y3526D01*
X2901D01*
Y3527D01*
Y3527D01*
X2904D01*
Y3528D01*
Y3528D01*
X2906D01*
Y3529D01*
Y3530D01*
X2910D01*
Y3530D01*
Y3531D01*
X2912D01*
Y3531D01*
Y3532D01*
X2915D01*
Y3532D01*
Y3533D01*
X2919D01*
Y3533D01*
Y3534D01*
X2921D01*
Y3535D01*
Y3535D01*
X2924D01*
Y3536D01*
Y3536D01*
X2927D01*
Y3537D01*
Y3537D01*
X2930D01*
Y3538D01*
Y3538D01*
X2934D01*
Y3539D01*
Y3540D01*
X2937D01*
Y3540D01*
Y3541D01*
X2956D01*
Y3540D01*
D02*
G37*
G36*
X2581Y3379D02*
Y3379D01*
X2580D01*
Y3378D01*
Y3378D01*
X2579D01*
Y3377D01*
Y3376D01*
Y3376D01*
Y3375D01*
X2578D01*
Y3375D01*
Y3374D01*
Y3374D01*
Y3373D01*
Y3373D01*
Y3372D01*
X2577D01*
Y3371D01*
Y3371D01*
Y3370D01*
Y3370D01*
Y3369D01*
Y3369D01*
Y3368D01*
Y3368D01*
Y3367D01*
Y3366D01*
Y3366D01*
Y3365D01*
Y3365D01*
Y3364D01*
Y3364D01*
Y3363D01*
X2578D01*
Y3363D01*
Y3362D01*
Y3361D01*
Y3361D01*
Y3360D01*
Y3360D01*
Y3359D01*
Y3359D01*
X2577D01*
Y3359D01*
Y3360D01*
X2574D01*
Y3360D01*
Y3361D01*
X2572D01*
Y3361D01*
Y3362D01*
X2571D01*
Y3363D01*
Y3363D01*
X2570D01*
Y3364D01*
Y3364D01*
X2569D01*
Y3365D01*
Y3365D01*
Y3366D01*
Y3366D01*
Y3367D01*
Y3368D01*
X2568D01*
Y3368D01*
Y3369D01*
Y3369D01*
Y3370D01*
Y3370D01*
Y3371D01*
Y3371D01*
Y3372D01*
X2569D01*
Y3373D01*
Y3373D01*
Y3374D01*
Y3374D01*
X2570D01*
Y3375D01*
Y3375D01*
X2571D01*
Y3376D01*
Y3376D01*
X2572D01*
Y3377D01*
Y3378D01*
X2574D01*
Y3378D01*
Y3379D01*
X2576D01*
Y3379D01*
Y3380D01*
X2581D01*
Y3379D01*
D02*
G37*
G36*
X3016Y3471D02*
Y3471D01*
X3024D01*
Y3470D01*
Y3470D01*
X3027D01*
Y3469D01*
Y3469D01*
X3030D01*
Y3468D01*
Y3467D01*
X3031D01*
Y3467D01*
Y3466D01*
X3032D01*
Y3466D01*
Y3465D01*
X3033D01*
Y3465D01*
Y3464D01*
X3034D01*
Y3464D01*
Y3463D01*
X3035D01*
Y3462D01*
Y3462D01*
Y3461D01*
Y3461D01*
Y3460D01*
Y3460D01*
X3036D01*
Y3459D01*
Y3459D01*
Y3458D01*
Y3457D01*
Y3457D01*
Y3456D01*
Y3456D01*
Y3455D01*
Y3455D01*
Y3454D01*
Y3454D01*
Y3453D01*
X3035D01*
Y3452D01*
Y3452D01*
Y3451D01*
Y3451D01*
Y3450D01*
Y3450D01*
Y3449D01*
Y3449D01*
X3034D01*
Y3448D01*
Y3447D01*
Y3447D01*
Y3446D01*
Y3446D01*
Y3445D01*
Y3445D01*
Y3444D01*
X3033D01*
Y3444D01*
Y3443D01*
Y3442D01*
Y3442D01*
X3032D01*
Y3441D01*
Y3441D01*
Y3440D01*
Y3440D01*
X3031D01*
Y3439D01*
Y3439D01*
Y3438D01*
Y3437D01*
X3030D01*
Y3437D01*
Y3436D01*
Y3436D01*
Y3435D01*
X3028D01*
Y3435D01*
Y3434D01*
X3027D01*
Y3434D01*
Y3433D01*
Y3432D01*
Y3432D01*
X3026D01*
Y3431D01*
Y3431D01*
X3025D01*
Y3430D01*
Y3430D01*
Y3429D01*
Y3429D01*
X3024D01*
Y3428D01*
Y3427D01*
X3023D01*
Y3427D01*
Y3426D01*
Y3426D01*
Y3425D01*
X3022D01*
Y3425D01*
Y3424D01*
X3021D01*
Y3424D01*
Y3423D01*
X3020D01*
Y3422D01*
Y3422D01*
Y3421D01*
Y3421D01*
X3018D01*
Y3420D01*
Y3420D01*
X3017D01*
Y3419D01*
Y3419D01*
Y3418D01*
Y3417D01*
X3016D01*
Y3417D01*
Y3416D01*
X3015D01*
Y3416D01*
Y3415D01*
X3014D01*
Y3415D01*
Y3414D01*
X3013D01*
Y3414D01*
Y3413D01*
X3012D01*
Y3412D01*
Y3412D01*
Y3411D01*
Y3411D01*
X3011D01*
Y3410D01*
Y3410D01*
X3010D01*
Y3409D01*
Y3409D01*
X3008D01*
Y3408D01*
Y3407D01*
X3007D01*
Y3407D01*
Y3406D01*
X3006D01*
Y3406D01*
Y3405D01*
Y3405D01*
Y3404D01*
X3005D01*
Y3404D01*
Y3403D01*
X3004D01*
Y3402D01*
Y3402D01*
X3003D01*
Y3401D01*
Y3401D01*
X3002D01*
Y3400D01*
Y3400D01*
X3001D01*
Y3399D01*
Y3399D01*
X3000D01*
Y3398D01*
Y3397D01*
X2998D01*
Y3397D01*
Y3396D01*
X2997D01*
Y3396D01*
Y3395D01*
X2996D01*
Y3395D01*
Y3394D01*
X2995D01*
Y3394D01*
Y3393D01*
X2994D01*
Y3393D01*
Y3392D01*
Y3391D01*
Y3391D01*
X2993D01*
Y3390D01*
Y3390D01*
X2992D01*
Y3389D01*
Y3389D01*
X2991D01*
Y3388D01*
Y3388D01*
X2990D01*
Y3387D01*
Y3386D01*
X2988D01*
Y3386D01*
Y3385D01*
X2987D01*
Y3385D01*
Y3384D01*
X2986D01*
Y3384D01*
Y3383D01*
X2985D01*
Y3383D01*
Y3382D01*
X2984D01*
Y3381D01*
Y3381D01*
X2983D01*
Y3380D01*
Y3380D01*
X2982D01*
Y3379D01*
Y3379D01*
X2981D01*
Y3378D01*
Y3378D01*
X2980D01*
Y3377D01*
Y3376D01*
X2978D01*
Y3376D01*
Y3375D01*
X2977D01*
Y3375D01*
Y3374D01*
X2976D01*
Y3374D01*
Y3373D01*
X2974D01*
Y3373D01*
Y3372D01*
X2973D01*
Y3371D01*
Y3371D01*
X2972D01*
Y3370D01*
Y3370D01*
X2971D01*
Y3369D01*
Y3369D01*
X2970D01*
Y3368D01*
Y3368D01*
X2968D01*
Y3367D01*
Y3366D01*
X2967D01*
Y3366D01*
Y3365D01*
X2966D01*
Y3365D01*
Y3364D01*
X2965D01*
Y3364D01*
Y3363D01*
X2964D01*
Y3363D01*
Y3362D01*
X2963D01*
Y3361D01*
Y3361D01*
X2962D01*
Y3360D01*
Y3360D01*
X2960D01*
Y3359D01*
Y3359D01*
X2958D01*
Y3358D01*
Y3358D01*
X2957D01*
Y3357D01*
Y3356D01*
X2956D01*
Y3356D01*
Y3355D01*
X2955D01*
Y3355D01*
Y3354D01*
X2954D01*
Y3354D01*
Y3353D01*
X2952D01*
Y3353D01*
Y3352D01*
X2951D01*
Y3351D01*
Y3351D01*
X2950D01*
Y3350D01*
Y3350D01*
X2949D01*
Y3349D01*
Y3349D01*
X2947D01*
Y3348D01*
Y3348D01*
X2946D01*
Y3347D01*
Y3346D01*
X2944D01*
Y3346D01*
Y3345D01*
X2943D01*
Y3345D01*
Y3344D01*
X2941D01*
Y3344D01*
Y3343D01*
X2940D01*
Y3343D01*
Y3342D01*
X2939D01*
Y3341D01*
Y3341D01*
X2937D01*
Y3340D01*
Y3340D01*
X2936D01*
Y3339D01*
Y3339D01*
X2934D01*
Y3338D01*
Y3338D01*
X2933D01*
Y3337D01*
Y3336D01*
X2932D01*
Y3336D01*
Y3335D01*
X2931D01*
Y3335D01*
Y3334D01*
X2929D01*
Y3334D01*
Y3333D01*
X2927D01*
Y3333D01*
Y3332D01*
X2926D01*
Y3331D01*
Y3331D01*
X2924D01*
Y3330D01*
Y3330D01*
X2923D01*
Y3329D01*
Y3329D01*
X2922D01*
Y3328D01*
Y3328D01*
X2920D01*
Y3327D01*
Y3326D01*
X2919D01*
Y3326D01*
Y3325D01*
X2917D01*
Y3325D01*
Y3324D01*
X2915D01*
Y3324D01*
Y3323D01*
X2914D01*
Y3323D01*
Y3322D01*
X2913D01*
Y3321D01*
Y3321D01*
X2912D01*
Y3320D01*
Y3320D01*
X2910D01*
Y3319D01*
Y3319D01*
X2909D01*
Y3318D01*
Y3318D01*
X2906D01*
Y3317D01*
Y3317D01*
X2905D01*
Y3316D01*
Y3315D01*
X2904D01*
Y3315D01*
Y3314D01*
X2903D01*
Y3314D01*
Y3313D01*
X2901D01*
Y3313D01*
Y3312D01*
X2900D01*
Y3312D01*
Y3311D01*
X2899D01*
Y3310D01*
Y3310D01*
X2896D01*
Y3309D01*
Y3309D01*
X2895D01*
Y3308D01*
Y3308D01*
X2893D01*
Y3308D01*
Y3309D01*
X2894D01*
Y3309D01*
Y3310D01*
X2895D01*
Y3310D01*
Y3311D01*
X2897D01*
Y3312D01*
Y3312D01*
X2899D01*
Y3313D01*
Y3313D01*
X2900D01*
Y3314D01*
Y3314D01*
X2901D01*
Y3315D01*
Y3315D01*
X2903D01*
Y3316D01*
Y3317D01*
X2904D01*
Y3317D01*
Y3318D01*
X2905D01*
Y3318D01*
Y3319D01*
X2906D01*
Y3319D01*
Y3320D01*
X2907D01*
Y3320D01*
Y3321D01*
X2909D01*
Y3321D01*
Y3322D01*
X2910D01*
Y3323D01*
Y3323D01*
X2911D01*
Y3324D01*
Y3324D01*
X2912D01*
Y3325D01*
Y3325D01*
X2913D01*
Y3326D01*
Y3326D01*
X2915D01*
Y3327D01*
Y3328D01*
X2916D01*
Y3328D01*
Y3329D01*
X2917D01*
Y3329D01*
Y3330D01*
X2919D01*
Y3330D01*
Y3331D01*
X2920D01*
Y3331D01*
Y3332D01*
X2921D01*
Y3333D01*
Y3333D01*
X2922D01*
Y3334D01*
Y3334D01*
X2923D01*
Y3335D01*
Y3335D01*
X2924D01*
Y3336D01*
Y3336D01*
X2925D01*
Y3337D01*
Y3338D01*
X2926D01*
Y3338D01*
Y3339D01*
X2927D01*
Y3339D01*
Y3340D01*
X2929D01*
Y3340D01*
Y3341D01*
X2930D01*
Y3341D01*
Y3342D01*
X2931D01*
Y3343D01*
Y3343D01*
X2932D01*
Y3344D01*
Y3344D01*
X2933D01*
Y3345D01*
Y3345D01*
X2934D01*
Y3346D01*
Y3346D01*
X2935D01*
Y3347D01*
Y3348D01*
X2936D01*
Y3348D01*
Y3349D01*
X2937D01*
Y3349D01*
Y3350D01*
X2939D01*
Y3350D01*
Y3351D01*
X2940D01*
Y3351D01*
Y3352D01*
X2941D01*
Y3353D01*
Y3353D01*
X2942D01*
Y3354D01*
Y3354D01*
X2943D01*
Y3355D01*
Y3355D01*
X2944D01*
Y3356D01*
Y3356D01*
X2945D01*
Y3357D01*
Y3358D01*
X2946D01*
Y3358D01*
Y3359D01*
X2947D01*
Y3359D01*
Y3360D01*
X2949D01*
Y3360D01*
Y3361D01*
X2950D01*
Y3361D01*
Y3362D01*
X2951D01*
Y3363D01*
Y3363D01*
Y3364D01*
Y3364D01*
X2952D01*
Y3365D01*
Y3365D01*
X2953D01*
Y3366D01*
Y3366D01*
X2954D01*
Y3367D01*
Y3368D01*
X2955D01*
Y3368D01*
Y3369D01*
X2956D01*
Y3369D01*
Y3370D01*
X2957D01*
Y3370D01*
Y3371D01*
X2958D01*
Y3371D01*
Y3372D01*
Y3373D01*
Y3373D01*
X2960D01*
Y3374D01*
Y3374D01*
X2961D01*
Y3375D01*
Y3375D01*
X2962D01*
Y3376D01*
Y3376D01*
X2963D01*
Y3377D01*
Y3378D01*
Y3378D01*
Y3379D01*
X2964D01*
Y3379D01*
Y3380D01*
X2965D01*
Y3380D01*
Y3381D01*
X2966D01*
Y3381D01*
Y3382D01*
X2967D01*
Y3383D01*
Y3383D01*
Y3384D01*
Y3384D01*
X2968D01*
Y3385D01*
Y3385D01*
X2970D01*
Y3386D01*
Y3386D01*
X2971D01*
Y3387D01*
Y3388D01*
Y3388D01*
Y3389D01*
X2972D01*
Y3389D01*
Y3390D01*
X2973D01*
Y3390D01*
Y3391D01*
X2974D01*
Y3391D01*
Y3392D01*
Y3393D01*
Y3393D01*
X2975D01*
Y3394D01*
Y3394D01*
X2976D01*
Y3395D01*
Y3395D01*
Y3396D01*
Y3396D01*
X2977D01*
Y3397D01*
Y3397D01*
X2978D01*
Y3398D01*
Y3399D01*
Y3399D01*
Y3400D01*
X2980D01*
Y3400D01*
Y3401D01*
X2981D01*
Y3401D01*
Y3402D01*
Y3402D01*
Y3403D01*
X2982D01*
Y3404D01*
Y3404D01*
Y3405D01*
Y3405D01*
X2983D01*
Y3406D01*
Y3406D01*
X2984D01*
Y3407D01*
Y3407D01*
Y3408D01*
Y3409D01*
X2985D01*
Y3409D01*
Y3410D01*
Y3410D01*
Y3411D01*
X2986D01*
Y3411D01*
Y3412D01*
Y3412D01*
Y3413D01*
X2987D01*
Y3414D01*
Y3414D01*
Y3415D01*
Y3415D01*
X2988D01*
Y3416D01*
Y3416D01*
Y3417D01*
Y3417D01*
X2990D01*
Y3418D01*
Y3419D01*
Y3419D01*
Y3420D01*
X2991D01*
Y3420D01*
Y3421D01*
Y3421D01*
Y3422D01*
X2992D01*
Y3422D01*
Y3423D01*
Y3424D01*
Y3424D01*
Y3425D01*
Y3425D01*
X2993D01*
Y3426D01*
Y3426D01*
Y3427D01*
Y3427D01*
Y3428D01*
Y3429D01*
X2994D01*
Y3429D01*
Y3430D01*
Y3430D01*
Y3431D01*
X2995D01*
Y3431D01*
Y3432D01*
Y3432D01*
Y3433D01*
Y3434D01*
Y3434D01*
Y3435D01*
Y3435D01*
X2996D01*
Y3436D01*
Y3436D01*
Y3437D01*
Y3437D01*
Y3438D01*
Y3439D01*
Y3439D01*
Y3440D01*
Y3440D01*
Y3441D01*
Y3441D01*
Y3442D01*
Y3442D01*
Y3443D01*
Y3444D01*
Y3444D01*
Y3445D01*
Y3445D01*
Y3446D01*
Y3446D01*
Y3447D01*
Y3447D01*
Y3448D01*
Y3449D01*
Y3449D01*
Y3450D01*
X2995D01*
Y3450D01*
Y3451D01*
Y3451D01*
Y3452D01*
Y3452D01*
Y3453D01*
X2994D01*
Y3454D01*
Y3454D01*
Y3455D01*
Y3455D01*
X2993D01*
Y3456D01*
Y3456D01*
X2992D01*
Y3457D01*
Y3457D01*
X2991D01*
Y3458D01*
Y3459D01*
X2990D01*
Y3459D01*
Y3460D01*
X2988D01*
Y3460D01*
Y3461D01*
X2987D01*
Y3461D01*
Y3462D01*
X2985D01*
Y3462D01*
Y3463D01*
X2983D01*
Y3464D01*
Y3464D01*
X2980D01*
Y3465D01*
Y3465D01*
X2975D01*
Y3466D01*
X2975D01*
Y3466D01*
X2977D01*
Y3467D01*
Y3467D01*
X2981D01*
Y3468D01*
Y3469D01*
X2986D01*
Y3469D01*
Y3470D01*
X2992D01*
Y3470D01*
Y3471D01*
X3002D01*
Y3471D01*
Y3472D01*
X3016D01*
Y3471D01*
D02*
G37*
G36*
X2887Y3303D02*
Y3302D01*
X2886D01*
Y3303D01*
Y3303D01*
X2887D01*
Y3303D01*
D02*
G37*
G36*
X2683Y3289D02*
Y3289D01*
Y3288D01*
Y3288D01*
Y3287D01*
Y3287D01*
X2682D01*
Y3286D01*
Y3285D01*
Y3285D01*
Y3284D01*
Y3284D01*
Y3283D01*
Y3283D01*
Y3282D01*
Y3282D01*
Y3281D01*
Y3280D01*
Y3280D01*
Y3279D01*
Y3279D01*
X2681D01*
Y3278D01*
Y3278D01*
Y3277D01*
Y3277D01*
X2680D01*
Y3276D01*
Y3275D01*
Y3275D01*
Y3274D01*
Y3274D01*
Y3273D01*
Y3273D01*
Y3272D01*
X2679D01*
Y3272D01*
Y3271D01*
Y3270D01*
Y3270D01*
X2678D01*
Y3269D01*
Y3269D01*
Y3268D01*
Y3268D01*
X2677D01*
Y3267D01*
Y3267D01*
X2676D01*
Y3266D01*
Y3265D01*
Y3265D01*
Y3264D01*
X2674D01*
Y3264D01*
Y3263D01*
Y3263D01*
Y3262D01*
X2673D01*
Y3262D01*
Y3261D01*
X2672D01*
Y3260D01*
Y3260D01*
X2671D01*
Y3259D01*
Y3259D01*
X2670D01*
Y3258D01*
Y3258D01*
X2669D01*
Y3257D01*
Y3257D01*
X2668D01*
Y3256D01*
Y3255D01*
X2667D01*
Y3255D01*
Y3254D01*
X2666D01*
Y3254D01*
Y3253D01*
X2663D01*
Y3253D01*
Y3252D01*
X2661D01*
Y3252D01*
Y3251D01*
X2657D01*
Y3252D01*
Y3252D01*
X2654D01*
Y3253D01*
Y3253D01*
X2652D01*
Y3254D01*
Y3254D01*
X2651D01*
Y3255D01*
Y3255D01*
X2650D01*
Y3256D01*
Y3257D01*
X2648D01*
Y3257D01*
Y3258D01*
X2647D01*
Y3258D01*
Y3259D01*
X2646D01*
Y3259D01*
Y3260D01*
X2643D01*
Y3260D01*
Y3261D01*
X2642D01*
Y3262D01*
Y3262D01*
X2640D01*
Y3263D01*
Y3263D01*
X2638D01*
Y3263D01*
Y3262D01*
Y3262D01*
Y3261D01*
Y3260D01*
Y3260D01*
Y3259D01*
Y3259D01*
Y3258D01*
Y3258D01*
Y3257D01*
Y3257D01*
Y3256D01*
Y3255D01*
Y3255D01*
Y3254D01*
Y3254D01*
Y3253D01*
Y3253D01*
Y3252D01*
Y3252D01*
Y3251D01*
Y3250D01*
Y3250D01*
Y3249D01*
Y3249D01*
Y3248D01*
Y3248D01*
Y3247D01*
Y3247D01*
Y3246D01*
Y3245D01*
Y3245D01*
Y3244D01*
Y3244D01*
Y3243D01*
X2637D01*
Y3243D01*
Y3242D01*
X2636D01*
Y3242D01*
Y3241D01*
Y3241D01*
Y3240D01*
X2635D01*
Y3239D01*
Y3239D01*
X2632D01*
Y3238D01*
Y3238D01*
X2631D01*
Y3238D01*
Y3239D01*
X2629D01*
Y3239D01*
Y3240D01*
X2627D01*
Y3241D01*
Y3241D01*
Y3242D01*
Y3242D01*
Y3243D01*
Y3243D01*
X2626D01*
Y3244D01*
Y3244D01*
Y3245D01*
Y3245D01*
Y3246D01*
Y3247D01*
Y3247D01*
Y3248D01*
Y3248D01*
Y3249D01*
Y3249D01*
Y3250D01*
X2627D01*
Y3250D01*
Y3251D01*
Y3252D01*
Y3252D01*
Y3253D01*
Y3253D01*
Y3254D01*
Y3254D01*
Y3255D01*
Y3255D01*
X2628D01*
Y3256D01*
Y3257D01*
Y3257D01*
Y3258D01*
X2629D01*
Y3258D01*
Y3259D01*
Y3259D01*
Y3260D01*
X2630D01*
Y3260D01*
Y3261D01*
Y3262D01*
Y3262D01*
X2631D01*
Y3263D01*
Y3263D01*
X2632D01*
Y3264D01*
Y3264D01*
X2633D01*
Y3265D01*
Y3265D01*
X2635D01*
Y3266D01*
Y3267D01*
X2636D01*
Y3267D01*
Y3268D01*
X2637D01*
Y3268D01*
Y3269D01*
X2638D01*
Y3269D01*
Y3270D01*
X2639D01*
Y3270D01*
Y3271D01*
X2641D01*
Y3272D01*
Y3272D01*
X2642D01*
Y3273D01*
Y3273D01*
X2645D01*
Y3274D01*
Y3274D01*
X2647D01*
Y3275D01*
Y3275D01*
X2648D01*
Y3276D01*
Y3277D01*
X2650D01*
Y3277D01*
Y3278D01*
X2652D01*
Y3278D01*
Y3279D01*
X2653D01*
Y3279D01*
Y3280D01*
X2654D01*
Y3279D01*
Y3279D01*
Y3278D01*
Y3278D01*
Y3277D01*
Y3277D01*
X2653D01*
Y3276D01*
Y3275D01*
Y3275D01*
Y3274D01*
Y3274D01*
Y3273D01*
X2656D01*
Y3274D01*
Y3274D01*
X2657D01*
Y3275D01*
Y3275D01*
X2658D01*
Y3276D01*
Y3277D01*
X2660D01*
Y3277D01*
Y3278D01*
X2661D01*
Y3278D01*
Y3279D01*
X2662D01*
Y3279D01*
Y3280D01*
X2663D01*
Y3280D01*
Y3281D01*
X2664D01*
Y3282D01*
Y3282D01*
X2666D01*
Y3283D01*
Y3283D01*
X2668D01*
Y3284D01*
Y3284D01*
X2669D01*
Y3285D01*
Y3285D01*
X2671D01*
Y3286D01*
Y3287D01*
X2673D01*
Y3287D01*
Y3288D01*
X2676D01*
Y3288D01*
Y3289D01*
X2678D01*
Y3289D01*
Y3290D01*
X2683D01*
Y3289D01*
D02*
G37*
G36*
X2642Y3255D02*
X2645D01*
Y3255D01*
Y3254D01*
X2646D01*
Y3254D01*
Y3253D01*
X2647D01*
Y3253D01*
Y3252D01*
X2648D01*
Y3252D01*
Y3251D01*
X2649D01*
Y3250D01*
Y3250D01*
X2650D01*
Y3249D01*
Y3249D01*
X2652D01*
Y3248D01*
Y3248D01*
X2653D01*
Y3247D01*
Y3247D01*
X2654D01*
Y3246D01*
Y3245D01*
X2656D01*
Y3245D01*
Y3244D01*
X2658D01*
Y3244D01*
Y3243D01*
X2659D01*
Y3243D01*
Y3242D01*
X2660D01*
Y3242D01*
Y3241D01*
X2661D01*
Y3241D01*
Y3240D01*
X2660D01*
Y3239D01*
Y3239D01*
X2659D01*
Y3238D01*
Y3238D01*
X2657D01*
Y3237D01*
Y3237D01*
X2656D01*
Y3236D01*
Y3236D01*
X2654D01*
Y3235D01*
Y3234D01*
X2652D01*
Y3234D01*
Y3233D01*
X2650D01*
Y3233D01*
Y3232D01*
X2648D01*
Y3232D01*
Y3231D01*
X2646D01*
Y3231D01*
Y3230D01*
X2643D01*
Y3229D01*
Y3229D01*
X2639D01*
Y3228D01*
Y3228D01*
X2633D01*
Y3227D01*
Y3227D01*
X2620D01*
Y3227D01*
Y3228D01*
X2616D01*
Y3228D01*
Y3229D01*
X2613D01*
Y3229D01*
Y3230D01*
X2611D01*
Y3231D01*
Y3231D01*
X2610D01*
Y3232D01*
Y3232D01*
X2609D01*
Y3233D01*
Y3233D01*
X2608D01*
Y3234D01*
Y3234D01*
X2607D01*
Y3235D01*
Y3236D01*
X2606D01*
Y3236D01*
Y3237D01*
X2605D01*
Y3237D01*
Y3238D01*
Y3238D01*
Y3239D01*
X2603D01*
Y3239D01*
Y3240D01*
X2602D01*
Y3241D01*
Y3241D01*
Y3242D01*
Y3242D01*
Y3243D01*
Y3243D01*
X2603D01*
Y3243D01*
Y3242D01*
X2607D01*
Y3242D01*
Y3241D01*
X2609D01*
Y3241D01*
Y3240D01*
X2611D01*
Y3239D01*
Y3239D01*
X2615D01*
Y3238D01*
Y3238D01*
X2617D01*
Y3237D01*
Y3237D01*
X2619D01*
Y3236D01*
Y3236D01*
X2623D01*
Y3235D01*
Y3234D01*
X2627D01*
Y3234D01*
Y3233D01*
X2637D01*
Y3234D01*
Y3234D01*
X2639D01*
Y3235D01*
Y3236D01*
X2640D01*
Y3236D01*
Y3237D01*
Y3237D01*
Y3238D01*
X2641D01*
Y3238D01*
Y3239D01*
Y3239D01*
Y3240D01*
Y3241D01*
Y3241D01*
X2642D01*
Y3242D01*
Y3242D01*
Y3243D01*
Y3243D01*
Y3244D01*
Y3244D01*
Y3245D01*
Y3245D01*
Y3246D01*
Y3247D01*
Y3247D01*
Y3248D01*
Y3248D01*
Y3249D01*
Y3249D01*
Y3250D01*
Y3250D01*
Y3251D01*
Y3252D01*
Y3252D01*
Y3253D01*
Y3253D01*
Y3254D01*
Y3254D01*
Y3255D01*
Y3255D01*
X2642D01*
Y3256D01*
X2642D01*
Y3255D01*
D02*
G37*
D10*
X3380Y3367D02*
G03*
X3380Y3367I-15J0D01*
G01*
X651D02*
G03*
X651Y3367I-15J0D01*
G01*
D11*
X1894Y4258D02*
G03*
X1894Y4258I-5J0D01*
G01*
X889Y4640D02*
G03*
X889Y4640I-5J0D01*
G01*
X1258Y4911D02*
G03*
X1258Y4911I-5J0D01*
G01*
X1664Y3482D02*
G03*
X1664Y3482I-5J0D01*
G01*
X2802Y3779D02*
G03*
X2802Y3779I-5J0D01*
G01*
X3181Y3939D02*
G03*
X3181Y3939I-5J0D01*
G01*
X1878Y4491D02*
G03*
X1878Y4491I-5J0D01*
G01*
X1208Y4188D02*
G03*
X1208Y4188I-5J0D01*
G01*
X1253Y3775D02*
G03*
X1253Y3775I-5J0D01*
G01*
Y3637D02*
G03*
X1253Y3637I-5J0D01*
G01*
X1254Y3353D02*
G03*
X1254Y3353I-5J0D01*
G01*
X1253Y3914D02*
G03*
X1253Y3914I-5J0D01*
G01*
X1253Y4048D02*
G03*
X1253Y4048I-5J0D01*
G01*
X2196Y3339D02*
G03*
X2196Y3339I-5J0D01*
G01*
X1878Y4745D02*
G03*
X1878Y4745I-5J0D01*
G01*
X1206Y4350D02*
G03*
X1206Y4350I-5J0D01*
G01*
X1719Y4144D02*
X1720Y4280D01*
X1409Y4144D02*
X1410Y4280D01*
X1496Y4288D02*
X1633Y4287D01*
X1495Y4138D02*
X1632Y4137D01*
D12*
X1986Y4206D02*
G03*
X1986Y4206I-12J0D01*
G01*
X1797Y4541D02*
G03*
X1797Y4541I-12J0D01*
G01*
Y4796D02*
G03*
X1797Y4796I-12J0D01*
G01*
D13*
X2807Y3463D02*
G03*
X2799Y3471I-9J0D01*
G01*
Y3412D02*
G03*
X2807Y3421I0J9D01*
G01*
X2689Y3471D02*
G03*
X2681Y3463I0J-9D01*
G01*
Y3421D02*
G03*
X2689Y3412I9J0D01*
G01*
X2807Y3421D02*
Y3463D01*
X2681Y3421D02*
Y3463D01*
X2689Y3471D02*
X2799D01*
X2689Y3412D02*
X2799D01*
D14*
X2326Y4899D02*
G03*
X2326Y4899I-9J0D01*
G01*
X2323D02*
G03*
X2323Y4899I-6J0D01*
G01*
X2521Y4899D02*
G03*
X2521Y4899I-9J0D01*
G01*
X2518D02*
G03*
X2518Y4899I-6J0D01*
G01*
X2487Y3614D02*
X2491D01*
X2487Y3646D02*
X2491D01*
X1935Y3745D02*
Y4245D01*
X2435Y3745D02*
Y4245D01*
X1935D02*
X2435D01*
X1935Y3745D02*
X2435D01*
X949Y4508D02*
Y4534D01*
X917Y4508D02*
X949D01*
Y4597D02*
Y4623D01*
X917D02*
X949D01*
X1318Y4779D02*
Y4805D01*
X1286Y4779D02*
X1318D01*
Y4868D02*
Y4894D01*
X1286D02*
X1318D01*
X1765Y3547D02*
X1791D01*
Y3515D02*
Y3547D01*
X1677D02*
X1703D01*
X1677Y3515D02*
Y3547D01*
X2809Y3815D02*
Y3851D01*
X2840D01*
X2927Y3815D02*
Y3851D01*
X2896D02*
X2927D01*
X3159Y3874D02*
Y3906D01*
X3133Y3874D02*
X3159D01*
X3044D02*
Y3906D01*
Y3874D02*
X3070D01*
X1699Y4698D02*
X1825D01*
X1699Y4502D02*
X1825D01*
X1699D02*
Y4698D01*
X1825Y4502D02*
Y4698D01*
X1138Y4294D02*
Y4320D01*
X1170D01*
X1138Y4206D02*
Y4232D01*
Y4206D02*
X1170D01*
X2302Y4816D02*
Y4864D01*
X2168Y4816D02*
X2302D01*
X2168D02*
Y4864D01*
X2302D01*
X2497Y4816D02*
Y4864D01*
X2363Y4816D02*
X2497D01*
X2363D02*
Y4864D01*
X2497D01*
X1183Y3792D02*
X1215D01*
X1183D02*
Y3818D01*
Y3907D02*
X1215D01*
X1183Y3881D02*
Y3907D01*
Y3654D02*
X1215D01*
X1183D02*
Y3680D01*
Y3769D02*
X1215D01*
X1183Y3743D02*
Y3769D01*
X1184Y3371D02*
X1216D01*
X1184D02*
Y3397D01*
Y3485D02*
X1216D01*
X1184Y3459D02*
Y3485D01*
X1183Y3931D02*
X1215D01*
X1183D02*
Y3957D01*
Y4046D02*
X1215D01*
X1183Y4020D02*
Y4046D01*
X1183Y4066D02*
X1215D01*
X1183D02*
Y4092D01*
Y4180D02*
X1215D01*
X1183Y4154D02*
Y4180D01*
X2126Y3357D02*
X2158D01*
X2126D02*
Y3383D01*
Y3471D02*
X2158D01*
X2126Y3445D02*
Y3471D01*
X1699Y4953D02*
X1825D01*
X1699Y4756D02*
X1825D01*
X1699D02*
Y4953D01*
X1825Y4756D02*
Y4953D01*
X1136Y4368D02*
X1168D01*
X1136D02*
Y4394D01*
Y4482D02*
X1168D01*
X1136Y4456D02*
Y4482D01*
D15*
X3285Y4626D02*
X3339D01*
D16*
X1653Y3881D02*
Y4016D01*
X1519Y3882D02*
Y4017D01*
X2675Y4715D02*
Y4745D01*
X2685D02*
Y4715D01*
X2671Y4735D02*
X2685D01*
X2690D01*
X2671Y4725D02*
X2690D01*
X2700Y4735D02*
Y4715D01*
Y4725D01*
X2705Y4730D01*
X2710Y4735D01*
X2715D01*
X2735D02*
X2745D01*
X2750Y4730D01*
Y4715D01*
X2735D01*
X2730Y4720D01*
X2735Y4725D01*
X2750D01*
X2780Y4735D02*
X2765D01*
X2760Y4730D01*
Y4720D01*
X2765Y4715D01*
X2780D01*
X2805D02*
X2795D01*
X2790Y4720D01*
Y4730D01*
X2795Y4735D01*
X2805D01*
X2810Y4730D01*
Y4725D01*
X2790D01*
X2840Y4735D02*
X2825D01*
X2820Y4730D01*
Y4720D01*
X2825Y4715D01*
X2840D01*
X2855Y4735D02*
X2865D01*
X2870Y4730D01*
Y4715D01*
X2855D01*
X2850Y4720D01*
X2855Y4725D01*
X2870D01*
X2880Y4735D02*
Y4715D01*
Y4725D01*
X2885Y4730D01*
X2890Y4735D01*
X2895D01*
X2930Y4745D02*
Y4715D01*
X2915D01*
X2910Y4720D01*
Y4730D01*
X2915Y4735D01*
X2930D01*
X2940D02*
Y4715D01*
Y4725D01*
X2945Y4730D01*
X2950Y4735D01*
X2955D01*
X2970Y4715D02*
X2980D01*
X2975D01*
Y4735D01*
X2970D01*
X2995D02*
X3005Y4715D01*
X3015Y4735D01*
X3040Y4715D02*
X3030D01*
X3025Y4720D01*
Y4730D01*
X3030Y4735D01*
X3040D01*
X3045Y4730D01*
Y4725D01*
X3025D01*
X3060Y4715D02*
Y4740D01*
Y4730D01*
X3055D01*
X3065D01*
X3060D01*
Y4740D01*
X3065Y4745D01*
X3085Y4735D02*
X3095D01*
X3100Y4730D01*
Y4715D01*
X3085D01*
X3080Y4720D01*
X3085Y4725D01*
X3100D01*
X3110Y4715D02*
X3125D01*
X3130Y4720D01*
X3125Y4725D01*
X3115D01*
X3110Y4730D01*
X3115Y4735D01*
X3130D01*
X3145Y4740D02*
Y4735D01*
X3140D01*
X3150D01*
X3145D01*
Y4720D01*
X3150Y4715D01*
X1101Y3153D02*
X1091D01*
X1086Y3158D01*
Y3168D01*
X1091Y3173D01*
X1101D01*
X1106Y3168D01*
Y3163D01*
X1086D01*
X1116Y3153D02*
Y3183D01*
X1131D01*
X1136Y3178D01*
Y3168D01*
X1131Y3163D01*
X1116D01*
X1146Y3183D02*
Y3153D01*
X1161D01*
X1166Y3158D01*
Y3163D01*
X1161Y3168D01*
X1146D01*
X1161D01*
X1166Y3173D01*
Y3178D01*
X1161Y3183D01*
X1146D01*
X1176Y3153D02*
Y3183D01*
X1191D01*
X1196Y3178D01*
Y3168D01*
X1191Y3163D01*
X1176D01*
X1186D02*
X1196Y3153D01*
X1226D02*
X1206D01*
X1226Y3173D01*
Y3178D01*
X1221Y3183D01*
X1211D01*
X1206Y3178D01*
X1236D02*
X1241Y3183D01*
X1251D01*
X1256Y3178D01*
Y3173D01*
X1251Y3168D01*
X1246D01*
X1251D01*
X1256Y3163D01*
Y3158D01*
X1251Y3153D01*
X1241D01*
X1236Y3158D01*
X1266Y3148D02*
X1286D01*
X1296Y3153D02*
Y3173D01*
X1306Y3183D01*
X1316Y3173D01*
Y3153D01*
Y3168D01*
X1296D01*
X1346Y3178D02*
X1341Y3183D01*
X1331D01*
X1326Y3178D01*
Y3158D01*
X1331Y3153D01*
X1341D01*
X1346Y3158D01*
X1356Y3183D02*
Y3158D01*
X1361Y3153D01*
X1371D01*
X1376Y3158D01*
Y3183D01*
X1386Y3148D02*
X1406D01*
X1436Y3178D02*
X1431Y3183D01*
X1421D01*
X1416Y3178D01*
Y3158D01*
X1421Y3153D01*
X1431D01*
X1436Y3158D01*
X1451Y3153D02*
X1461D01*
X1466Y3158D01*
Y3168D01*
X1461Y3173D01*
X1451D01*
X1446Y3168D01*
Y3158D01*
X1451Y3153D01*
X1476D02*
Y3173D01*
X1491D01*
X1496Y3168D01*
Y3153D01*
X1511Y3178D02*
Y3173D01*
X1506D01*
X1516D01*
X1511D01*
Y3158D01*
X1516Y3153D01*
X1531Y3173D02*
Y3153D01*
Y3163D01*
X1536Y3168D01*
X1541Y3173D01*
X1546D01*
X1566Y3153D02*
X1576D01*
X1581Y3158D01*
Y3168D01*
X1576Y3173D01*
X1566D01*
X1561Y3168D01*
Y3158D01*
X1566Y3153D01*
X1591D02*
X1601D01*
X1596D01*
Y3183D01*
X1591D01*
X1616Y3153D02*
X1626D01*
X1621D01*
Y3183D01*
X1616D01*
X1656Y3153D02*
X1646D01*
X1641Y3158D01*
Y3168D01*
X1646Y3173D01*
X1656D01*
X1661Y3168D01*
Y3163D01*
X1641D01*
X1671Y3173D02*
Y3153D01*
Y3163D01*
X1676Y3168D01*
X1681Y3173D01*
X1686D01*
X1701Y3148D02*
X1721D01*
X1731Y3173D02*
Y3153D01*
Y3163D01*
X1736Y3168D01*
X1741Y3173D01*
X1746D01*
X1776Y3153D02*
X1766D01*
X1761Y3158D01*
Y3168D01*
X1766Y3173D01*
X1776D01*
X1781Y3168D01*
Y3163D01*
X1761D01*
X1791Y3173D02*
X1801Y3153D01*
X1811Y3173D01*
X1821Y3178D02*
X1826Y3183D01*
X1836D01*
X1841Y3178D01*
Y3158D01*
X1836Y3153D01*
X1826D01*
X1821Y3158D01*
Y3178D01*
X556Y4117D02*
X576D01*
X586Y4127D01*
X576Y4137D01*
X556D01*
X561Y4167D02*
X556Y4162D01*
Y4152D01*
X561Y4147D01*
X566D01*
X571Y4152D01*
Y4162D01*
X576Y4167D01*
X581D01*
X586Y4162D01*
Y4152D01*
X581Y4147D01*
X3503Y4600D02*
X3533D01*
X3503Y4580D01*
X3533D01*
X3503Y4570D02*
X3533D01*
Y4555D01*
X3528Y4550D01*
X3518D01*
X3513Y4555D01*
Y4570D01*
Y4560D02*
X3503Y4550D01*
X3528Y4520D02*
X3533Y4525D01*
Y4535D01*
X3528Y4540D01*
X3523D01*
X3518Y4535D01*
Y4525D01*
X3513Y4520D01*
X3508D01*
X3503Y4525D01*
Y4535D01*
X3508Y4540D01*
X3533Y4510D02*
Y4490D01*
Y4500D01*
X3503D01*
X3315Y4589D02*
X3310Y4594D01*
X3300D01*
X3295Y4589D01*
Y4584D01*
X3300Y4579D01*
X3310D01*
X3315Y4574D01*
Y4569D01*
X3310Y4564D01*
X3300D01*
X3295Y4569D01*
X3325Y4594D02*
Y4564D01*
X3335Y4574D01*
X3345Y4564D01*
Y4594D01*
X3355D02*
Y4564D01*
X3370D01*
X3375Y4569D01*
Y4589D01*
X3370Y4594D01*
X3355D01*
X3385D02*
X3395D01*
X3390D01*
Y4564D01*
X3385D01*
X3395D01*
X3425Y4594D02*
X3415D01*
X3410Y4589D01*
Y4569D01*
X3415Y4564D01*
X3425D01*
X3430Y4569D01*
Y4589D01*
X3425Y4594D01*
X3270Y4658D02*
X3265Y4653D01*
Y4643D01*
X3270Y4638D01*
X3275D01*
X3280Y4643D01*
Y4653D01*
X3285Y4658D01*
X3290D01*
X3295Y4653D01*
Y4643D01*
X3290Y4638D01*
X3265Y4668D02*
X3295D01*
X3285Y4678D01*
X3295Y4688D01*
X3265D01*
X3270Y4718D02*
X3265Y4713D01*
Y4703D01*
X3270Y4698D01*
X3290D01*
X3295Y4703D01*
Y4713D01*
X3290Y4718D01*
X3265Y4727D02*
X3295D01*
Y4747D01*
X3265Y4757D02*
X3295D01*
X3285D01*
X3265Y4777D01*
X3280Y4762D01*
X3295Y4777D01*
X3520Y3395D02*
X3515Y3400D01*
Y3410D01*
X3520Y3415D01*
X3525D01*
X3530Y3410D01*
Y3405D01*
Y3410D01*
X3535Y3415D01*
X3540D01*
X3545Y3410D01*
Y3400D01*
X3540Y3395D01*
X3515Y3425D02*
X3535D01*
X3545Y3435D01*
X3535Y3445D01*
X3515D01*
X3520Y3455D02*
X3515Y3460D01*
Y3470D01*
X3520Y3475D01*
X3525D01*
X3530Y3470D01*
Y3465D01*
Y3470D01*
X3535Y3475D01*
X3540D01*
X3545Y3470D01*
Y3460D01*
X3540Y3455D01*
X3294Y4405D02*
X3289Y4410D01*
Y4420D01*
X3294Y4425D01*
X3299D01*
X3304Y4420D01*
Y4415D01*
Y4420D01*
X3309Y4425D01*
X3314D01*
X3319Y4420D01*
Y4410D01*
X3314Y4405D01*
X3289Y4435D02*
X3309D01*
X3319Y4445D01*
X3309Y4455D01*
X3289D01*
X3294Y4465D02*
X3289Y4470D01*
Y4480D01*
X3294Y4485D01*
X3299D01*
X3304Y4480D01*
Y4475D01*
Y4480D01*
X3309Y4485D01*
X3314D01*
X3319Y4480D01*
Y4470D01*
X3314Y4465D01*
X786Y4301D02*
X781Y4306D01*
Y4316D01*
X786Y4321D01*
X791D01*
X796Y4316D01*
Y4311D01*
Y4316D01*
X801Y4321D01*
X806D01*
X811Y4316D01*
Y4306D01*
X806Y4301D01*
X781Y4331D02*
X801D01*
X811Y4341D01*
X801Y4351D01*
X781D01*
X786Y4361D02*
X781Y4366D01*
Y4376D01*
X786Y4381D01*
X791D01*
X796Y4376D01*
Y4371D01*
Y4376D01*
X801Y4381D01*
X806D01*
X811Y4376D01*
Y4366D01*
X806Y4361D01*
X2988Y3180D02*
X2993Y3185D01*
X3003D01*
X3008Y3180D01*
Y3175D01*
X3003Y3170D01*
X2998D01*
X3003D01*
X3008Y3165D01*
Y3160D01*
X3003Y3155D01*
X2993D01*
X2988Y3160D01*
X3018Y3185D02*
Y3165D01*
X3028Y3155D01*
X3038Y3165D01*
Y3185D01*
X3048Y3180D02*
X3053Y3185D01*
X3063D01*
X3068Y3180D01*
Y3175D01*
X3063Y3170D01*
X3058D01*
X3063D01*
X3068Y3165D01*
Y3160D01*
X3063Y3155D01*
X3053D01*
X3048Y3160D01*
X1180Y3282D02*
X1160D01*
Y3267D01*
X1170Y3272D01*
X1175D01*
X1180Y3267D01*
Y3257D01*
X1175Y3252D01*
X1165D01*
X1160Y3257D01*
X1190Y3282D02*
Y3262D01*
X1200Y3252D01*
X1210Y3262D01*
Y3282D01*
X3289Y4015D02*
X3309D01*
X3319Y4025D01*
X3309Y4035D01*
X3289D01*
X3294Y4065D02*
X3289Y4060D01*
Y4050D01*
X3294Y4045D01*
X3299D01*
X3304Y4050D01*
Y4060D01*
X3309Y4065D01*
X3314D01*
X3319Y4060D01*
Y4050D01*
X3314Y4045D01*
X778Y3734D02*
Y3714D01*
X793D01*
X788Y3724D01*
Y3729D01*
X793Y3734D01*
X803D01*
X808Y3729D01*
Y3719D01*
X803Y3714D01*
X778Y3744D02*
X798D01*
X808Y3754D01*
X798Y3764D01*
X778D01*
X569Y3703D02*
X564Y3708D01*
Y3718D01*
X569Y3723D01*
X574D01*
X579Y3718D01*
Y3713D01*
Y3718D01*
X584Y3723D01*
X589D01*
X594Y3718D01*
Y3708D01*
X589Y3703D01*
X564Y3733D02*
X584D01*
X594Y3743D01*
X584Y3753D01*
X564D01*
X569Y3763D02*
X564Y3768D01*
Y3778D01*
X569Y3783D01*
X574D01*
X579Y3778D01*
Y3773D01*
Y3778D01*
X584Y3783D01*
X589D01*
X594Y3778D01*
Y3768D01*
X589Y3763D01*
X1799Y4026D02*
X1794Y4031D01*
X1784D01*
X1779Y4026D01*
Y4006D01*
X1784Y4002D01*
X1794D01*
X1799Y4006D01*
X1809Y4026D02*
X1814Y4031D01*
X1824D01*
X1829Y4026D01*
Y4021D01*
X1824Y4016D01*
X1819D01*
X1824D01*
X1829Y4011D01*
Y4006D01*
X1824Y4002D01*
X1814D01*
X1809Y4006D01*
X1839Y4026D02*
X1844Y4031D01*
X1854D01*
X1859Y4026D01*
Y4006D01*
X1854Y4002D01*
X1844D01*
X1839Y4006D01*
Y4026D01*
D17*
X3496Y3392D02*
X3465D01*
X3496D02*
Y3405D01*
X3495Y3410D01*
X3493Y3411D01*
X3490Y3413D01*
X3487D01*
X3484Y3411D01*
X3483Y3410D01*
X3481Y3405D01*
Y3392D02*
Y3405D01*
X3480Y3410D01*
X3478Y3411D01*
X3475Y3413D01*
X3471D01*
X3468Y3411D01*
X3466Y3410D01*
X3465Y3405D01*
Y3392D01*
X3490Y3420D02*
X3492Y3423D01*
X3496Y3427D01*
X3465D01*
X3365Y3416D02*
X3396Y3404D01*
X3365Y3392D01*
X3375Y3396D02*
Y3411D01*
X3390Y3423D02*
X3392Y3426D01*
X3396Y3431D01*
X3365D01*
X636Y3416D02*
X667Y3404D01*
X636Y3392D01*
X646Y3396D02*
Y3411D01*
X661Y3423D02*
X663Y3426D01*
X667Y3431D01*
X636D01*
X767Y3392D02*
X736D01*
X767D02*
Y3405D01*
X766Y3410D01*
X764Y3411D01*
X761Y3413D01*
X758D01*
X755Y3411D01*
X754Y3410D01*
X752Y3405D01*
Y3392D02*
Y3405D01*
X751Y3410D01*
X749Y3411D01*
X746Y3413D01*
X742D01*
X739Y3411D01*
X737Y3410D01*
X736Y3405D01*
Y3392D01*
X761Y3420D02*
X763Y3423D01*
X767Y3427D01*
X736D01*
D18*
X1472Y3365D02*
Y3315D01*
X1482Y3305D01*
X1502D01*
X1512Y3315D01*
Y3365D01*
X1532Y3305D02*
Y3365D01*
X1552Y3345D01*
X1572Y3365D01*
Y3305D01*
X1632Y3355D02*
X1622Y3365D01*
X1602D01*
X1592Y3355D01*
Y3345D01*
X1602Y3335D01*
X1622D01*
X1632Y3325D01*
Y3315D01*
X1622Y3305D01*
X1602D01*
X1592Y3315D01*
X1652Y3305D02*
Y3345D01*
X1672Y3365D01*
X1692Y3345D01*
Y3305D01*
Y3335D01*
X1652D01*
X1752Y3365D02*
X1712D01*
Y3305D01*
X1752D01*
X1712Y3335D02*
X1732D01*
D19*
X2457Y3682D02*
X2453Y3686D01*
X2445D01*
X2441Y3682D01*
Y3665D01*
X2445Y3661D01*
X2453D01*
X2457Y3665D01*
X2482Y3686D02*
X2466D01*
Y3673D01*
X2474Y3677D01*
X2478D01*
X2482Y3673D01*
Y3665D01*
X2478Y3661D01*
X2470D01*
X2466Y3665D01*
X2491Y3682D02*
X2495Y3686D01*
X2503D01*
X2507Y3682D01*
Y3665D01*
X2503Y3661D01*
X2495D01*
X2491Y3665D01*
Y3682D01*
D20*
X1480Y4069D02*
X1500Y4039D01*
Y4069D02*
X1480Y4039D01*
X1530D02*
X1510D01*
X1530Y4059D01*
Y4064D01*
X1525Y4069D01*
X1515D01*
X1510Y4064D01*
X1549Y4350D02*
X1569Y4320D01*
Y4350D02*
X1549Y4320D01*
X1579D02*
X1589D01*
X1584D01*
Y4350D01*
X1579Y4345D01*
X1594Y3662D02*
Y3692D01*
X1609D01*
X1614Y3687D01*
Y3677D01*
X1609Y3672D01*
X1594D01*
X1604D02*
X1614Y3662D01*
X1624D02*
X1634D01*
X1629D01*
Y3692D01*
X1624Y3687D01*
X1649D02*
X1654Y3692D01*
X1664D01*
X1669Y3687D01*
Y3667D01*
X1664Y3662D01*
X1654D01*
X1649Y3667D01*
Y3687D01*
X1679D02*
X1684Y3692D01*
X1694D01*
X1699Y3687D01*
Y3667D01*
X1694Y3662D01*
X1684D01*
X1679Y3667D01*
Y3687D01*
X1546Y3616D02*
X1576D01*
Y3601D01*
X1571Y3596D01*
X1561D01*
X1556Y3601D01*
Y3616D01*
Y3606D02*
X1546Y3596D01*
X1551Y3586D02*
X1546Y3581D01*
Y3571D01*
X1551Y3566D01*
X1571D01*
X1576Y3571D01*
Y3581D01*
X1571Y3586D01*
X1566D01*
X1561Y3581D01*
Y3566D01*
X1551Y3556D02*
X1546Y3551D01*
Y3541D01*
X1551Y3536D01*
X1571D01*
X1576Y3541D01*
Y3551D01*
X1571Y3556D01*
X1566D01*
X1561Y3551D01*
Y3536D01*
X1787Y3599D02*
Y3569D01*
X1802D01*
X1807Y3574D01*
Y3594D01*
X1802Y3599D01*
X1787D01*
X1817Y3594D02*
X1822Y3599D01*
X1832D01*
X1837Y3594D01*
Y3589D01*
X1832Y3584D01*
X1827D01*
X1832D01*
X1837Y3579D01*
Y3574D01*
X1832Y3569D01*
X1822D01*
X1817Y3574D01*
X1867Y3599D02*
X1847D01*
Y3584D01*
X1857Y3589D01*
X1862D01*
X1867Y3584D01*
Y3574D01*
X1862Y3569D01*
X1852D01*
X1847Y3574D01*
X1768Y3693D02*
X1763Y3688D01*
Y3678D01*
X1768Y3673D01*
X1788D01*
X1793Y3678D01*
Y3688D01*
X1788Y3693D01*
X1793Y3718D02*
X1763D01*
X1778Y3703D01*
Y3723D01*
X1763Y3753D02*
Y3733D01*
X1778D01*
X1773Y3743D01*
Y3748D01*
X1778Y3753D01*
X1788D01*
X1793Y3748D01*
Y3738D01*
X1788Y3733D01*
X1752Y3873D02*
X1757Y3878D01*
Y3888D01*
X1752Y3892D01*
X1732D01*
X1727Y3888D01*
Y3878D01*
X1732Y3873D01*
X1727Y3848D02*
X1757D01*
X1742Y3863D01*
Y3843D01*
X1752Y3833D02*
X1757Y3828D01*
Y3818D01*
X1752Y3813D01*
X1747D01*
X1742Y3818D01*
Y3823D01*
Y3818D01*
X1737Y3813D01*
X1732D01*
X1727Y3818D01*
Y3828D01*
X1732Y3833D01*
X1692Y3985D02*
X1687Y3990D01*
X1677D01*
X1672Y3985D01*
Y3965D01*
X1677Y3960D01*
X1687D01*
X1692Y3965D01*
X1717Y3960D02*
Y3990D01*
X1702Y3975D01*
X1722D01*
X1752Y3960D02*
X1732D01*
X1752Y3980D01*
Y3985D01*
X1747Y3990D01*
X1737D01*
X1732Y3985D01*
X1781Y4168D02*
X1776Y4163D01*
Y4153D01*
X1781Y4148D01*
X1801D01*
X1806Y4153D01*
Y4163D01*
X1801Y4168D01*
X1806Y4193D02*
X1776D01*
X1791Y4178D01*
Y4198D01*
X1806Y4208D02*
Y4218D01*
Y4213D01*
X1776D01*
X1781Y4208D01*
X1796Y4290D02*
X1791Y4285D01*
Y4275D01*
X1796Y4270D01*
X1816D01*
X1821Y4275D01*
Y4285D01*
X1816Y4290D01*
X1821Y4315D02*
X1791D01*
X1806Y4300D01*
Y4320D01*
X1796Y4330D02*
X1791Y4335D01*
Y4345D01*
X1796Y4350D01*
X1816D01*
X1821Y4345D01*
Y4335D01*
X1816Y4330D01*
X1796D01*
X1873Y4366D02*
Y4341D01*
X1878Y4336D01*
X1888D01*
X1893Y4341D01*
Y4366D01*
X1903Y4361D02*
X1908Y4366D01*
X1918D01*
X1923Y4361D01*
Y4356D01*
X1918Y4351D01*
X1913D01*
X1918D01*
X1923Y4346D01*
Y4341D01*
X1918Y4336D01*
X1908D01*
X1903Y4341D01*
X1710Y4479D02*
Y4454D01*
X1715Y4449D01*
X1725D01*
X1730Y4454D01*
Y4479D01*
X1740Y4449D02*
X1750D01*
X1745D01*
Y4479D01*
X1740Y4474D01*
X2077Y4661D02*
Y4691D01*
X2092D01*
X2097Y4686D01*
Y4676D01*
X2092Y4671D01*
X2077D01*
X2087D02*
X2097Y4661D01*
X2127D02*
X2107D01*
X2127Y4681D01*
Y4686D01*
X2122Y4691D01*
X2112D01*
X2107Y4686D01*
X2137D02*
X2142Y4691D01*
X2152D01*
X2157Y4686D01*
Y4681D01*
X2152Y4676D01*
X2157Y4671D01*
Y4666D01*
X2152Y4661D01*
X2142D01*
X2137Y4666D01*
Y4671D01*
X2142Y4676D01*
X2137Y4681D01*
Y4686D01*
X2142Y4676D02*
X2152D01*
X1076Y4594D02*
X1106D01*
Y4579D01*
X1101Y4574D01*
X1091D01*
X1086Y4579D01*
Y4594D01*
Y4584D02*
X1076Y4574D01*
Y4544D02*
Y4564D01*
X1096Y4544D01*
X1101D01*
X1106Y4549D01*
Y4559D01*
X1101Y4564D01*
X1076Y4514D02*
Y4534D01*
X1096Y4514D01*
X1101D01*
X1106Y4519D01*
Y4529D01*
X1101Y4534D01*
X2082Y4508D02*
Y4538D01*
X2097D01*
X2102Y4533D01*
Y4523D01*
X2097Y4518D01*
X2082D01*
X2092D02*
X2102Y4508D01*
X2132D02*
X2112D01*
X2132Y4528D01*
Y4533D01*
X2127Y4538D01*
X2117D01*
X2112Y4533D01*
X2142Y4538D02*
X2162D01*
Y4533D01*
X2142Y4513D01*
Y4508D01*
X919Y4673D02*
Y4643D01*
X934D01*
X939Y4648D01*
Y4668D01*
X934Y4673D01*
X919D01*
X949Y4643D02*
X959D01*
X954D01*
Y4673D01*
X949Y4668D01*
X2100Y4609D02*
X2095Y4614D01*
X2085D01*
X2080Y4609D01*
Y4589D01*
X2085Y4584D01*
X2095D01*
X2100Y4589D01*
X2110Y4584D02*
X2120D01*
X2115D01*
Y4614D01*
X2110Y4609D01*
X2135D02*
X2140Y4614D01*
X2150D01*
X2155Y4609D01*
Y4589D01*
X2150Y4584D01*
X2140D01*
X2135Y4589D01*
Y4609D01*
X3166Y3680D02*
Y3710D01*
X3181D01*
X3186Y3705D01*
Y3695D01*
X3181Y3690D01*
X3166D01*
X3176D02*
X3186Y3680D01*
X3196Y3705D02*
X3201Y3710D01*
X3211D01*
X3216Y3705D01*
Y3700D01*
X3211Y3695D01*
X3206D01*
X3211D01*
X3216Y3690D01*
Y3685D01*
X3211Y3680D01*
X3201D01*
X3196Y3685D01*
X3246Y3710D02*
X3236Y3705D01*
X3226Y3695D01*
Y3685D01*
X3231Y3680D01*
X3241D01*
X3246Y3685D01*
Y3690D01*
X3241Y3695D01*
X3226D01*
X3163Y3608D02*
Y3638D01*
X3178D01*
X3183Y3633D01*
Y3623D01*
X3178Y3618D01*
X3163D01*
X3173D02*
X3183Y3608D01*
X3193Y3633D02*
X3198Y3638D01*
X3208D01*
X3213Y3633D01*
Y3628D01*
X3208Y3623D01*
X3203D01*
X3208D01*
X3213Y3618D01*
Y3613D01*
X3208Y3608D01*
X3198D01*
X3193Y3613D01*
X3243Y3638D02*
X3223D01*
Y3623D01*
X3233Y3628D01*
X3238D01*
X3243Y3623D01*
Y3613D01*
X3238Y3608D01*
X3228D01*
X3223Y3613D01*
X834Y4043D02*
Y4073D01*
X849D01*
X854Y4068D01*
Y4058D01*
X849Y4053D01*
X834D01*
X844D02*
X854Y4043D01*
X864D02*
X874D01*
X869D01*
Y4073D01*
X864Y4068D01*
X908Y4042D02*
Y4072D01*
X923D01*
X928Y4067D01*
Y4057D01*
X923Y4052D01*
X908D01*
X918D02*
X928Y4042D01*
X938Y4047D02*
X943Y4042D01*
X953D01*
X958Y4047D01*
Y4067D01*
X953Y4072D01*
X943D01*
X938Y4067D01*
Y4062D01*
X943Y4057D01*
X958D01*
X1040Y4047D02*
Y4077D01*
X1055D01*
X1060Y4072D01*
Y4062D01*
X1055Y4057D01*
X1040D01*
X1050D02*
X1060Y4047D01*
X1070D02*
X1080D01*
X1075D01*
Y4077D01*
X1070Y4072D01*
X1115Y4077D02*
X1095D01*
Y4062D01*
X1105Y4067D01*
X1110D01*
X1115Y4062D01*
Y4052D01*
X1110Y4047D01*
X1100D01*
X1095Y4052D01*
X836Y3484D02*
Y3514D01*
X851D01*
X856Y3509D01*
Y3499D01*
X851Y3494D01*
X836D01*
X846D02*
X856Y3484D01*
X886Y3514D02*
X876Y3509D01*
X866Y3499D01*
Y3489D01*
X871Y3484D01*
X881D01*
X886Y3489D01*
Y3494D01*
X881Y3499D01*
X866D01*
X912Y3488D02*
Y3518D01*
X927D01*
X932Y3513D01*
Y3503D01*
X927Y3498D01*
X912D01*
X922D02*
X932Y3488D01*
X942D02*
X952D01*
X947D01*
Y3518D01*
X942Y3513D01*
X982Y3488D02*
Y3518D01*
X967Y3503D01*
X987D01*
X991Y3484D02*
Y3514D01*
X1006D01*
X1011Y3509D01*
Y3499D01*
X1006Y3494D01*
X991D01*
X1001D02*
X1011Y3484D01*
X1021D02*
X1031D01*
X1026D01*
Y3514D01*
X1021Y3509D01*
X1046Y3489D02*
X1051Y3484D01*
X1061D01*
X1066Y3489D01*
Y3509D01*
X1061Y3514D01*
X1051D01*
X1046Y3509D01*
Y3504D01*
X1051Y3499D01*
X1066D01*
X843Y3905D02*
Y3935D01*
X858D01*
X863Y3930D01*
Y3920D01*
X858Y3915D01*
X843D01*
X853D02*
X863Y3905D01*
X888D02*
Y3935D01*
X873Y3920D01*
X893D01*
X845Y3769D02*
Y3799D01*
X860D01*
X865Y3794D01*
Y3784D01*
X860Y3779D01*
X845D01*
X855D02*
X865Y3769D01*
X875Y3794D02*
X880Y3799D01*
X890D01*
X895Y3794D01*
Y3789D01*
X890Y3784D01*
X885D01*
X890D01*
X895Y3779D01*
Y3774D01*
X890Y3769D01*
X880D01*
X875Y3774D01*
X915Y3905D02*
Y3935D01*
X929D01*
X934Y3930D01*
Y3920D01*
X929Y3915D01*
X915D01*
X925D02*
X934Y3905D01*
X944D02*
X954D01*
X949D01*
Y3935D01*
X944Y3930D01*
X989Y3905D02*
X969D01*
X989Y3925D01*
Y3930D01*
X984Y3935D01*
X974D01*
X969Y3930D01*
X919Y3768D02*
Y3798D01*
X934D01*
X939Y3793D01*
Y3783D01*
X934Y3778D01*
X919D01*
X929D02*
X939Y3768D01*
X949D02*
X959D01*
X954D01*
Y3798D01*
X949Y3793D01*
X974Y3768D02*
X984D01*
X979D01*
Y3798D01*
X974Y3793D01*
X993Y3907D02*
Y3937D01*
X1008D01*
X1013Y3932D01*
Y3922D01*
X1008Y3917D01*
X993D01*
X1003D02*
X1013Y3907D01*
X1023D02*
X1033D01*
X1028D01*
Y3937D01*
X1023Y3932D01*
X1048Y3937D02*
X1068D01*
Y3932D01*
X1048Y3912D01*
Y3907D01*
X998Y3768D02*
Y3798D01*
X1013D01*
X1018Y3793D01*
Y3783D01*
X1013Y3778D01*
X998D01*
X1008D02*
X1018Y3768D01*
X1028D02*
X1038D01*
X1033D01*
Y3798D01*
X1028Y3793D01*
X1073Y3798D02*
X1063Y3793D01*
X1053Y3783D01*
Y3773D01*
X1058Y3768D01*
X1068D01*
X1073Y3773D01*
Y3778D01*
X1068Y3783D01*
X1053D01*
X1319Y4028D02*
X1289D01*
Y4013D01*
X1294Y4008D01*
X1314D01*
X1319Y4013D01*
Y4028D01*
Y3978D02*
Y3998D01*
X1304D01*
X1309Y3988D01*
Y3983D01*
X1304Y3978D01*
X1294D01*
X1289Y3983D01*
Y3993D01*
X1294Y3998D01*
X1221Y3317D02*
Y3347D01*
X1206D01*
X1201Y3342D01*
Y3322D01*
X1206Y3317D01*
X1221D01*
X1191Y3347D02*
X1181D01*
X1186D01*
Y3317D01*
X1191Y3322D01*
X1166D02*
X1161Y3317D01*
X1151D01*
X1146Y3322D01*
Y3342D01*
X1151Y3347D01*
X1161D01*
X1166Y3342D01*
Y3322D01*
X1318Y3886D02*
X1288D01*
Y3871D01*
X1293Y3866D01*
X1313D01*
X1318Y3871D01*
Y3886D01*
Y3856D02*
Y3836D01*
X1313D01*
X1293Y3856D01*
X1288D01*
X1315Y3747D02*
X1285D01*
Y3732D01*
X1290Y3727D01*
X1310D01*
X1315Y3732D01*
Y3747D01*
Y3697D02*
X1310Y3707D01*
X1300Y3717D01*
X1290D01*
X1285Y3712D01*
Y3702D01*
X1290Y3697D01*
X1295D01*
X1300Y3702D01*
Y3717D01*
X3228Y3927D02*
X3198D01*
Y3912D01*
X3203Y3907D01*
X3223D01*
X3228Y3912D01*
Y3927D01*
X3198Y3897D02*
Y3887D01*
Y3892D01*
X3228D01*
X3223Y3897D01*
X3228Y3852D02*
Y3872D01*
X3213D01*
X3218Y3862D01*
Y3857D01*
X3213Y3852D01*
X3203D01*
X3198Y3857D01*
Y3867D01*
X3203Y3872D01*
X3183Y3783D02*
X3178Y3788D01*
X3168D01*
X3163Y3783D01*
Y3763D01*
X3168Y3758D01*
X3178D01*
X3183Y3763D01*
X3193Y3758D02*
X3203D01*
X3198D01*
Y3788D01*
X3193Y3783D01*
X3238Y3758D02*
X3218D01*
X3238Y3778D01*
Y3783D01*
X3233Y3788D01*
X3223D01*
X3218Y3783D01*
X1139Y3994D02*
X1144Y3999D01*
Y4009D01*
X1139Y4014D01*
X1119D01*
X1114Y4009D01*
Y3999D01*
X1119Y3994D01*
X1114Y3969D02*
X1144D01*
X1129Y3984D01*
Y3964D01*
X1142Y3449D02*
X1147Y3454D01*
Y3464D01*
X1142Y3469D01*
X1122D01*
X1117Y3464D01*
Y3454D01*
X1122Y3449D01*
X1142Y3439D02*
X1147Y3434D01*
Y3424D01*
X1142Y3419D01*
X1137D01*
X1132Y3424D01*
X1127Y3419D01*
X1122D01*
X1117Y3424D01*
Y3434D01*
X1122Y3439D01*
X1127D01*
X1132Y3434D01*
X1137Y3439D01*
X1142D01*
X1132Y3434D02*
Y3424D01*
X1086Y3931D02*
X1081Y3936D01*
X1071D01*
X1066Y3931D01*
Y3911D01*
X1071Y3906D01*
X1081D01*
X1086Y3911D01*
X1116Y3936D02*
X1106Y3931D01*
X1096Y3921D01*
Y3911D01*
X1101Y3906D01*
X1111D01*
X1116Y3911D01*
Y3916D01*
X1111Y3921D01*
X1096D01*
X1089Y3793D02*
X1084Y3798D01*
X1074D01*
X1069Y3793D01*
Y3773D01*
X1074Y3768D01*
X1084D01*
X1089Y3773D01*
X1119Y3798D02*
X1099D01*
Y3783D01*
X1109Y3788D01*
X1114D01*
X1119Y3783D01*
Y3773D01*
X1114Y3768D01*
X1104D01*
X1099Y3773D01*
X1065Y4185D02*
Y4215D01*
X1080D01*
X1085Y4210D01*
Y4200D01*
X1080Y4195D01*
X1065D01*
X1075D02*
X1085Y4185D01*
X1115D02*
X1095D01*
X1115Y4205D01*
Y4210D01*
X1110Y4215D01*
X1100D01*
X1095Y4210D01*
X1140Y4185D02*
Y4215D01*
X1125Y4200D01*
X1145D01*
X898Y4181D02*
Y4211D01*
X913D01*
X918Y4206D01*
Y4196D01*
X913Y4191D01*
X898D01*
X908D02*
X918Y4181D01*
X928D02*
X938D01*
X933D01*
Y4211D01*
X928Y4206D01*
X953D02*
X958Y4211D01*
X968D01*
X973Y4206D01*
Y4186D01*
X968Y4181D01*
X958D01*
X953Y4186D01*
Y4206D01*
X838Y4179D02*
Y4209D01*
X853D01*
X858Y4204D01*
Y4194D01*
X853Y4189D01*
X838D01*
X848D02*
X858Y4179D01*
X888D02*
X868D01*
X888Y4199D01*
Y4204D01*
X883Y4209D01*
X873D01*
X868Y4204D01*
X2043Y3481D02*
X2013D01*
Y3496D01*
X2018Y3501D01*
X2028D01*
X2033Y3496D01*
Y3481D01*
Y3491D02*
X2043Y3501D01*
X2018Y3511D02*
X2013Y3516D01*
Y3526D01*
X2018Y3531D01*
X2023D01*
X2028Y3526D01*
Y3521D01*
Y3526D01*
X2033Y3531D01*
X2038D01*
X2043Y3526D01*
Y3516D01*
X2038Y3511D01*
X2043Y3541D02*
Y3551D01*
Y3546D01*
X2013D01*
X2018Y3541D01*
X1893Y3479D02*
X1863D01*
Y3494D01*
X1868Y3499D01*
X1878D01*
X1883Y3494D01*
Y3479D01*
Y3489D02*
X1893Y3499D01*
Y3529D02*
Y3509D01*
X1873Y3529D01*
X1868D01*
X1863Y3524D01*
Y3514D01*
X1868Y3509D01*
X1863Y3559D02*
X1868Y3549D01*
X1878Y3539D01*
X1888D01*
X1893Y3544D01*
Y3554D01*
X1888Y3559D01*
X1883D01*
X1878Y3554D01*
Y3539D01*
X1289Y3326D02*
Y3356D01*
X1304D01*
X1309Y3351D01*
Y3341D01*
X1304Y3336D01*
X1289D01*
X1299D02*
X1309Y3326D01*
X1339D02*
X1319D01*
X1339Y3346D01*
Y3351D01*
X1334Y3356D01*
X1324D01*
X1319Y3351D01*
X1369Y3356D02*
X1349D01*
Y3341D01*
X1359Y3346D01*
X1364D01*
X1369Y3341D01*
Y3331D01*
X1364Y3326D01*
X1354D01*
X1349Y3331D01*
X1316Y4154D02*
X1286D01*
Y4140D01*
X1291Y4135D01*
X1311D01*
X1316Y4140D01*
Y4154D01*
X1311Y4125D02*
X1316Y4120D01*
Y4110D01*
X1311Y4105D01*
X1306D01*
X1301Y4110D01*
X1296Y4105D01*
X1291D01*
X1286Y4110D01*
Y4120D01*
X1291Y4125D01*
X1296D01*
X1301Y4120D01*
X1306Y4125D01*
X1311D01*
X1301Y4120D02*
Y4110D01*
X2100Y3520D02*
Y3490D01*
X2115D01*
X2120Y3495D01*
Y3515D01*
X2115Y3520D01*
X2100D01*
X2130Y3490D02*
X2140D01*
X2135D01*
Y3520D01*
X2130Y3515D01*
X2155Y3490D02*
X2165D01*
X2160D01*
Y3520D01*
X2155Y3515D01*
X987Y4206D02*
X982Y4211D01*
X972D01*
X967Y4206D01*
Y4186D01*
X972Y4181D01*
X982D01*
X987Y4186D01*
X997Y4206D02*
X1002Y4211D01*
X1012D01*
X1017Y4206D01*
Y4201D01*
X1012Y4196D01*
X1007D01*
X1012D01*
X1017Y4191D01*
Y4186D01*
X1012Y4181D01*
X1002D01*
X997Y4186D01*
X1940Y3498D02*
X1935Y3493D01*
Y3483D01*
X1940Y3478D01*
X1960D01*
X1965Y3483D01*
Y3493D01*
X1960Y3498D01*
Y3508D02*
X1965Y3513D01*
Y3523D01*
X1960Y3528D01*
X1940D01*
X1935Y3523D01*
Y3513D01*
X1940Y3508D01*
X1945D01*
X1950Y3513D01*
Y3528D01*
X1538Y4781D02*
Y4756D01*
X1543Y4751D01*
X1553D01*
X1558Y4756D01*
Y4781D01*
X1588Y4751D02*
X1568D01*
X1588Y4771D01*
Y4776D01*
X1583Y4781D01*
X1573D01*
X1568Y4776D01*
X1019Y4464D02*
Y4494D01*
X1034D01*
X1039Y4489D01*
Y4479D01*
X1034Y4474D01*
X1019D01*
X1029D02*
X1039Y4464D01*
X1069D02*
X1049D01*
X1069Y4484D01*
Y4489D01*
X1064Y4494D01*
X1054D01*
X1049Y4489D01*
X1079Y4464D02*
X1089D01*
X1084D01*
Y4494D01*
X1079Y4489D01*
X856Y4461D02*
Y4491D01*
X871D01*
X876Y4486D01*
Y4476D01*
X871Y4471D01*
X856D01*
X866D02*
X876Y4461D01*
X886Y4491D02*
X906D01*
Y4486D01*
X886Y4466D01*
Y4461D01*
X2936Y3680D02*
Y3710D01*
X2951D01*
X2956Y3705D01*
Y3695D01*
X2951Y3690D01*
X2936D01*
X2946D02*
X2956Y3680D01*
X2966Y3705D02*
X2971Y3710D01*
X2981D01*
X2986Y3705D01*
Y3700D01*
X2981Y3695D01*
X2976D01*
X2981D01*
X2986Y3690D01*
Y3685D01*
X2981Y3680D01*
X2971D01*
X2966Y3685D01*
X2996Y3705D02*
X3001Y3710D01*
X3011D01*
X3016Y3705D01*
Y3700D01*
X3011Y3695D01*
X3006D01*
X3011D01*
X3016Y3690D01*
Y3685D01*
X3011Y3680D01*
X3001D01*
X2996Y3685D01*
X2932Y3609D02*
Y3639D01*
X2947D01*
X2952Y3634D01*
Y3624D01*
X2947Y3619D01*
X2932D01*
X2942D02*
X2952Y3609D01*
X2962Y3634D02*
X2967Y3639D01*
X2977D01*
X2982Y3634D01*
Y3629D01*
X2977Y3624D01*
X2972D01*
X2977D01*
X2982Y3619D01*
Y3614D01*
X2977Y3609D01*
X2967D01*
X2962Y3614D01*
X3012Y3609D02*
X2992D01*
X3012Y3629D01*
Y3634D01*
X3007Y3639D01*
X2997D01*
X2992Y3634D01*
X2922Y3988D02*
X2952D01*
Y3973D01*
X2947Y3968D01*
X2937D01*
X2932Y3973D01*
Y3988D01*
Y3978D02*
X2922Y3968D01*
X2947Y3958D02*
X2952Y3953D01*
Y3943D01*
X2947Y3938D01*
X2942D01*
X2937Y3943D01*
Y3948D01*
Y3943D01*
X2932Y3938D01*
X2927D01*
X2922Y3943D01*
Y3953D01*
X2927Y3958D01*
X2922Y3913D02*
X2952D01*
X2937Y3928D01*
Y3908D01*
X1016Y4317D02*
Y4347D01*
X1031D01*
X1036Y4342D01*
Y4332D01*
X1031Y4327D01*
X1016D01*
X1026D02*
X1036Y4317D01*
X1066D02*
X1046D01*
X1066Y4337D01*
Y4342D01*
X1061Y4347D01*
X1051D01*
X1046Y4342D01*
X1076D02*
X1081Y4347D01*
X1091D01*
X1096Y4342D01*
Y4322D01*
X1091Y4317D01*
X1081D01*
X1076Y4322D01*
Y4342D01*
X864Y4316D02*
Y4346D01*
X879D01*
X884Y4341D01*
Y4331D01*
X879Y4326D01*
X864D01*
X874D02*
X884Y4316D01*
X894Y4341D02*
X899Y4346D01*
X909D01*
X914Y4341D01*
Y4336D01*
X909Y4331D01*
X914Y4326D01*
Y4321D01*
X909Y4316D01*
X899D01*
X894Y4321D01*
Y4326D01*
X899Y4331D01*
X894Y4336D01*
Y4341D01*
X899Y4331D02*
X909D01*
X2074Y4915D02*
Y4945D01*
X2089D01*
X2094Y4940D01*
Y4930D01*
X2089Y4925D01*
X2074D01*
X2084D02*
X2094Y4915D01*
X2104Y4940D02*
X2109Y4945D01*
X2119D01*
X2124Y4940D01*
Y4935D01*
X2119Y4930D01*
X2114D01*
X2119D01*
X2124Y4925D01*
Y4920D01*
X2119Y4915D01*
X2109D01*
X2104Y4920D01*
X2134Y4940D02*
X2139Y4945D01*
X2149D01*
X2154Y4940D01*
Y4920D01*
X2149Y4915D01*
X2139D01*
X2134Y4920D01*
Y4940D01*
X1453Y4871D02*
X1483D01*
Y4856D01*
X1478Y4851D01*
X1468D01*
X1463Y4856D01*
Y4871D01*
Y4861D02*
X1453Y4851D01*
Y4821D02*
Y4841D01*
X1473Y4821D01*
X1478D01*
X1483Y4826D01*
Y4836D01*
X1478Y4841D01*
Y4811D02*
X1483Y4806D01*
Y4796D01*
X1478Y4791D01*
X1473D01*
X1468Y4796D01*
Y4801D01*
Y4796D01*
X1463Y4791D01*
X1458D01*
X1453Y4796D01*
Y4806D01*
X1458Y4811D01*
X2075Y4768D02*
Y4798D01*
X2090D01*
X2095Y4793D01*
Y4783D01*
X2090Y4778D01*
X2075D01*
X2085D02*
X2095Y4768D01*
X2125D02*
X2105D01*
X2125Y4788D01*
Y4793D01*
X2120Y4798D01*
X2110D01*
X2105Y4793D01*
X2135Y4773D02*
X2140Y4768D01*
X2150D01*
X2155Y4773D01*
Y4793D01*
X2150Y4798D01*
X2140D01*
X2135Y4793D01*
Y4788D01*
X2140Y4783D01*
X2155D01*
X2772Y3824D02*
X2752D01*
X2747Y3819D01*
Y3809D01*
X2752Y3804D01*
X2772D01*
X2777Y3809D01*
Y3819D01*
X2767Y3814D02*
X2777Y3824D01*
Y3819D02*
X2772Y3824D01*
X2777Y3834D02*
Y3844D01*
Y3839D01*
X2747D01*
X2752Y3834D01*
X2348Y4866D02*
X2318D01*
Y4851D01*
X2323Y4846D01*
X2343D01*
X2348Y4851D01*
Y4866D01*
X2318Y4836D02*
Y4826D01*
Y4831D01*
X2348D01*
X2343Y4836D01*
X2318Y4791D02*
Y4811D01*
X2338Y4791D01*
X2343D01*
X2348Y4796D01*
Y4806D01*
X2343Y4811D01*
X2546Y4860D02*
X2516D01*
Y4845D01*
X2521Y4840D01*
X2541D01*
X2546Y4845D01*
Y4860D01*
X2516Y4830D02*
Y4820D01*
Y4825D01*
X2546D01*
X2541Y4830D01*
Y4805D02*
X2546Y4800D01*
Y4790D01*
X2541Y4785D01*
X2536D01*
X2531Y4790D01*
Y4795D01*
Y4790D01*
X2526Y4785D01*
X2521D01*
X2516Y4790D01*
Y4800D01*
X2521Y4805D01*
X1286Y4940D02*
Y4910D01*
X1301D01*
X1306Y4915D01*
Y4935D01*
X1301Y4940D01*
X1286D01*
X1336Y4910D02*
X1316D01*
X1336Y4930D01*
Y4935D01*
X1331Y4940D01*
X1321D01*
X1316Y4935D01*
X1268Y4298D02*
X1238D01*
Y4283D01*
X1243Y4278D01*
X1263D01*
X1268Y4283D01*
Y4298D01*
X1263Y4268D02*
X1268Y4263D01*
Y4253D01*
X1263Y4248D01*
X1258D01*
X1253Y4253D01*
Y4258D01*
Y4253D01*
X1248Y4248D01*
X1243D01*
X1238Y4253D01*
Y4263D01*
X1243Y4268D01*
X1267Y4444D02*
X1237D01*
Y4429D01*
X1242Y4424D01*
X1262D01*
X1267Y4429D01*
Y4444D01*
X1237Y4399D02*
X1267D01*
X1252Y4414D01*
Y4394D01*
X2093Y4863D02*
X2088Y4868D01*
X2078D01*
X2073Y4863D01*
Y4843D01*
X2078Y4838D01*
X2088D01*
X2093Y4843D01*
X2103Y4838D02*
X2113D01*
X2108D01*
Y4868D01*
X2103Y4863D01*
X2128Y4838D02*
X2138D01*
X2133D01*
Y4868D01*
X2128Y4863D01*
X963Y4486D02*
X958Y4491D01*
X948D01*
X943Y4486D01*
Y4466D01*
X948Y4461D01*
X958D01*
X963Y4466D01*
X993Y4461D02*
X973D01*
X993Y4481D01*
Y4486D01*
X988Y4491D01*
X978D01*
X973Y4486D01*
X958Y4345D02*
X953Y4350D01*
X943D01*
X938Y4345D01*
Y4325D01*
X943Y4320D01*
X953D01*
X958Y4325D01*
X968Y4320D02*
X978D01*
X973D01*
Y4350D01*
X968Y4345D01*
D21*
X2803Y3472D02*
D03*
D22*
X2813Y3442D02*
D03*
D23*
X2801Y3412D02*
D03*
D24*
X1720Y4304D02*
D03*
M02*
