G04*
G04 #@! TF.GenerationSoftware,Altium Limited,Altium Designer,22.10.1 (41)*
G04*
G04 Layer_Color=16711935*
%FSLAX23Y23*%
%MOIN*%
G70*
G04*
G04 #@! TF.SameCoordinates,FE0D4549-5355-498F-96F3-0299564D4BAC*
G04*
G04*
G04 #@! TF.FilePolarity,Negative*
G04*
G01*
G75*
%ADD40R,0.041X0.045*%
%ADD41R,0.041X0.037*%
%ADD42R,0.041X0.037*%
%ADD43R,0.037X0.041*%
%ADD44R,0.037X0.041*%
%ADD50C,0.256*%
%ADD51C,0.086*%
%ADD52C,0.037*%
%ADD60R,0.026X0.035*%
%ADD64R,0.041X0.034*%
%ADD65R,0.051X0.030*%
%ADD66R,0.026X0.030*%
%ADD67R,0.054X0.030*%
G36*
X743Y4874D02*
X750Y4871D01*
X756Y4867D01*
X760Y4861D01*
X763Y4854D01*
X764Y4847D01*
X763Y4840D01*
X760Y4833D01*
X756Y4827D01*
X750Y4823D01*
X743Y4820D01*
X736Y4819D01*
X729Y4820D01*
X722Y4823D01*
X716Y4827D01*
X712Y4833D01*
X709Y4840D01*
X708Y4847D01*
X709Y4854D01*
X712Y4861D01*
X716Y4867D01*
X722Y4871D01*
X729Y4874D01*
X736Y4875D01*
X743Y4874D01*
D02*
G37*
G36*
X643D02*
X650Y4871D01*
X656Y4867D01*
X660Y4861D01*
X663Y4854D01*
X664Y4847D01*
X663Y4840D01*
X660Y4833D01*
X656Y4827D01*
X650Y4823D01*
X643Y4820D01*
X636Y4819D01*
X629Y4820D01*
X622Y4823D01*
X616Y4827D01*
X612Y4833D01*
X609Y4840D01*
X608Y4847D01*
X609Y4854D01*
X612Y4861D01*
X616Y4867D01*
X622Y4871D01*
X629Y4874D01*
X636Y4875D01*
X643Y4874D01*
D02*
G37*
G36*
X743Y4774D02*
X750Y4771D01*
X756Y4767D01*
X760Y4761D01*
X763Y4754D01*
X764Y4747D01*
X763Y4740D01*
X760Y4733D01*
X756Y4727D01*
X750Y4723D01*
X743Y4720D01*
X736Y4719D01*
X729Y4720D01*
X722Y4723D01*
X716Y4727D01*
X712Y4733D01*
X709Y4740D01*
X708Y4747D01*
X709Y4754D01*
X712Y4761D01*
X716Y4767D01*
X722Y4771D01*
X729Y4774D01*
X736Y4775D01*
X743Y4774D01*
D02*
G37*
G36*
X643D02*
X650Y4771D01*
X656Y4767D01*
X660Y4761D01*
X663Y4754D01*
X664Y4747D01*
X663Y4740D01*
X660Y4733D01*
X656Y4727D01*
X650Y4723D01*
X643Y4720D01*
X636Y4719D01*
X629Y4720D01*
X622Y4723D01*
X616Y4727D01*
X612Y4733D01*
X609Y4740D01*
X608Y4747D01*
X609Y4754D01*
X612Y4761D01*
X616Y4767D01*
X622Y4771D01*
X629Y4774D01*
X636Y4775D01*
X643Y4774D01*
D02*
G37*
G36*
X743Y4674D02*
X750Y4671D01*
X756Y4667D01*
X760Y4661D01*
X763Y4654D01*
X764Y4647D01*
X763Y4640D01*
X760Y4633D01*
X756Y4627D01*
X750Y4623D01*
X743Y4620D01*
X736Y4619D01*
X729Y4620D01*
X722Y4623D01*
X716Y4627D01*
X712Y4633D01*
X709Y4640D01*
X708Y4647D01*
X709Y4654D01*
X712Y4661D01*
X716Y4667D01*
X722Y4671D01*
X729Y4674D01*
X736Y4675D01*
X743Y4674D01*
D02*
G37*
G36*
X643D02*
X650Y4671D01*
X656Y4667D01*
X660Y4661D01*
X663Y4654D01*
X664Y4647D01*
X663Y4640D01*
X660Y4633D01*
X656Y4627D01*
X650Y4623D01*
X643Y4620D01*
X636Y4619D01*
X629Y4620D01*
X622Y4623D01*
X616Y4627D01*
X612Y4633D01*
X609Y4640D01*
X608Y4647D01*
X609Y4654D01*
X612Y4661D01*
X616Y4667D01*
X622Y4671D01*
X629Y4674D01*
X636Y4675D01*
X643Y4674D01*
D02*
G37*
G36*
X743Y4574D02*
X750Y4571D01*
X756Y4567D01*
X760Y4561D01*
X763Y4554D01*
X764Y4547D01*
X763Y4540D01*
X760Y4533D01*
X756Y4527D01*
X750Y4523D01*
X743Y4520D01*
X736Y4519D01*
X729Y4520D01*
X722Y4523D01*
X716Y4527D01*
X712Y4533D01*
X709Y4540D01*
X708Y4547D01*
X709Y4554D01*
X712Y4561D01*
X716Y4567D01*
X722Y4571D01*
X729Y4574D01*
X736Y4575D01*
X743Y4574D01*
D02*
G37*
G36*
X643D02*
X650Y4571D01*
X656Y4567D01*
X660Y4561D01*
X663Y4554D01*
X664Y4547D01*
X663Y4540D01*
X660Y4533D01*
X656Y4527D01*
X650Y4523D01*
X643Y4520D01*
X636Y4519D01*
X629Y4520D01*
X622Y4523D01*
X616Y4527D01*
X612Y4533D01*
X609Y4540D01*
X608Y4547D01*
X609Y4554D01*
X612Y4561D01*
X616Y4567D01*
X622Y4571D01*
X629Y4574D01*
X636Y4575D01*
X643Y4574D01*
D02*
G37*
G36*
X743Y4474D02*
X750Y4471D01*
X756Y4467D01*
X760Y4461D01*
X763Y4454D01*
X764Y4447D01*
X763Y4440D01*
X760Y4433D01*
X756Y4427D01*
X750Y4423D01*
X743Y4420D01*
X736Y4419D01*
X729Y4420D01*
X722Y4423D01*
X716Y4427D01*
X712Y4433D01*
X709Y4440D01*
X708Y4447D01*
X709Y4454D01*
X712Y4461D01*
X716Y4467D01*
X722Y4471D01*
X729Y4474D01*
X736Y4475D01*
X743Y4474D01*
D02*
G37*
G36*
X643D02*
X650Y4471D01*
X656Y4467D01*
X660Y4461D01*
X663Y4454D01*
X664Y4447D01*
X663Y4440D01*
X660Y4433D01*
X656Y4427D01*
X650Y4423D01*
X643Y4420D01*
X636Y4419D01*
X629Y4420D01*
X622Y4423D01*
X616Y4427D01*
X612Y4433D01*
X609Y4440D01*
X608Y4447D01*
X609Y4454D01*
X612Y4461D01*
X616Y4467D01*
X622Y4471D01*
X629Y4474D01*
X636Y4475D01*
X643Y4474D01*
D02*
G37*
G36*
X743Y4374D02*
X750Y4371D01*
X756Y4367D01*
X760Y4361D01*
X763Y4354D01*
X764Y4347D01*
X763Y4340D01*
X760Y4333D01*
X756Y4327D01*
X750Y4323D01*
X743Y4320D01*
X736Y4319D01*
X729Y4320D01*
X722Y4323D01*
X716Y4327D01*
X712Y4333D01*
X709Y4340D01*
X708Y4347D01*
X709Y4354D01*
X712Y4361D01*
X716Y4367D01*
X722Y4371D01*
X729Y4374D01*
X736Y4375D01*
X743Y4374D01*
D02*
G37*
G36*
X643D02*
X650Y4371D01*
X656Y4367D01*
X660Y4361D01*
X663Y4354D01*
X664Y4347D01*
X663Y4340D01*
X660Y4333D01*
X656Y4327D01*
X650Y4323D01*
X643Y4320D01*
X636Y4319D01*
X629Y4320D01*
X622Y4323D01*
X616Y4327D01*
X612Y4333D01*
X609Y4340D01*
X608Y4347D01*
X609Y4354D01*
X612Y4361D01*
X616Y4367D01*
X622Y4371D01*
X629Y4374D01*
X636Y4375D01*
X643Y4374D01*
D02*
G37*
G36*
X743Y4274D02*
X750Y4271D01*
X756Y4267D01*
X760Y4261D01*
X763Y4254D01*
X764Y4247D01*
X763Y4240D01*
X760Y4233D01*
X756Y4227D01*
X750Y4223D01*
X743Y4220D01*
X736Y4219D01*
X729Y4220D01*
X722Y4223D01*
X716Y4227D01*
X712Y4233D01*
X709Y4240D01*
X708Y4247D01*
X709Y4254D01*
X712Y4261D01*
X716Y4267D01*
X722Y4271D01*
X729Y4274D01*
X736Y4275D01*
X743Y4274D01*
D02*
G37*
G36*
X643D02*
X650Y4271D01*
X656Y4267D01*
X660Y4261D01*
X663Y4254D01*
X664Y4247D01*
X663Y4240D01*
X660Y4233D01*
X656Y4227D01*
X650Y4223D01*
X643Y4220D01*
X636Y4219D01*
X629Y4220D01*
X622Y4223D01*
X616Y4227D01*
X612Y4233D01*
X609Y4240D01*
X608Y4247D01*
X609Y4254D01*
X612Y4261D01*
X616Y4267D01*
X622Y4271D01*
X629Y4274D01*
X636Y4275D01*
X643Y4274D01*
D02*
G37*
G36*
X743Y4174D02*
X750Y4171D01*
X756Y4167D01*
X760Y4161D01*
X763Y4154D01*
X764Y4147D01*
X763Y4140D01*
X760Y4133D01*
X756Y4127D01*
X750Y4123D01*
X743Y4120D01*
X736Y4119D01*
X729Y4120D01*
X722Y4123D01*
X716Y4127D01*
X712Y4133D01*
X709Y4140D01*
X708Y4147D01*
X709Y4154D01*
X712Y4161D01*
X716Y4167D01*
X722Y4171D01*
X729Y4174D01*
X736Y4175D01*
X743Y4174D01*
D02*
G37*
G36*
X643D02*
X650Y4171D01*
X656Y4167D01*
X660Y4161D01*
X663Y4154D01*
X664Y4147D01*
X663Y4140D01*
X660Y4133D01*
X656Y4127D01*
X650Y4123D01*
X643Y4120D01*
X636Y4119D01*
X629Y4120D01*
X622Y4123D01*
X616Y4127D01*
X612Y4133D01*
X609Y4140D01*
X608Y4147D01*
X609Y4154D01*
X612Y4161D01*
X616Y4167D01*
X622Y4171D01*
X629Y4174D01*
X636Y4175D01*
X643Y4174D01*
D02*
G37*
G36*
X743Y4074D02*
X750Y4071D01*
X756Y4067D01*
X760Y4061D01*
X763Y4054D01*
X764Y4047D01*
X763Y4040D01*
X760Y4033D01*
X756Y4027D01*
X750Y4023D01*
X743Y4020D01*
X736Y4019D01*
X729Y4020D01*
X722Y4023D01*
X716Y4027D01*
X712Y4033D01*
X709Y4040D01*
X708Y4047D01*
X709Y4054D01*
X712Y4061D01*
X716Y4067D01*
X722Y4071D01*
X729Y4074D01*
X736Y4075D01*
X743Y4074D01*
D02*
G37*
G36*
X643D02*
X650Y4071D01*
X656Y4067D01*
X660Y4061D01*
X663Y4054D01*
X664Y4047D01*
X663Y4040D01*
X660Y4033D01*
X656Y4027D01*
X650Y4023D01*
X643Y4020D01*
X636Y4019D01*
X629Y4020D01*
X622Y4023D01*
X616Y4027D01*
X612Y4033D01*
X609Y4040D01*
X608Y4047D01*
X609Y4054D01*
X612Y4061D01*
X616Y4067D01*
X622Y4071D01*
X629Y4074D01*
X636Y4075D01*
X643Y4074D01*
D02*
G37*
G36*
X743Y3974D02*
X750Y3971D01*
X756Y3967D01*
X760Y3961D01*
X763Y3954D01*
X764Y3947D01*
X763Y3940D01*
X760Y3933D01*
X756Y3927D01*
X750Y3923D01*
X743Y3920D01*
X736Y3919D01*
X729Y3920D01*
X722Y3923D01*
X716Y3927D01*
X712Y3933D01*
X709Y3940D01*
X708Y3947D01*
X709Y3954D01*
X712Y3961D01*
X716Y3967D01*
X722Y3971D01*
X729Y3974D01*
X736Y3975D01*
X743Y3974D01*
D02*
G37*
G36*
X643D02*
X650Y3971D01*
X656Y3967D01*
X660Y3961D01*
X663Y3954D01*
X664Y3947D01*
X663Y3940D01*
X660Y3933D01*
X656Y3927D01*
X650Y3923D01*
X643Y3920D01*
X636Y3919D01*
X629Y3920D01*
X622Y3923D01*
X616Y3927D01*
X612Y3933D01*
X609Y3940D01*
X608Y3947D01*
X609Y3954D01*
X612Y3961D01*
X616Y3967D01*
X622Y3971D01*
X629Y3974D01*
X636Y3975D01*
X643Y3974D01*
D02*
G37*
G36*
X743Y3874D02*
X750Y3871D01*
X756Y3867D01*
X760Y3861D01*
X763Y3854D01*
X764Y3847D01*
X763Y3840D01*
X760Y3833D01*
X756Y3827D01*
X750Y3823D01*
X743Y3820D01*
X736Y3819D01*
X729Y3820D01*
X722Y3823D01*
X716Y3827D01*
X712Y3833D01*
X709Y3840D01*
X708Y3847D01*
X709Y3854D01*
X712Y3861D01*
X716Y3867D01*
X722Y3871D01*
X729Y3874D01*
X736Y3875D01*
X743Y3874D01*
D02*
G37*
G36*
X643D02*
X650Y3871D01*
X656Y3867D01*
X660Y3861D01*
X663Y3854D01*
X664Y3847D01*
X663Y3840D01*
X660Y3833D01*
X656Y3827D01*
X650Y3823D01*
X643Y3820D01*
X636Y3819D01*
X629Y3820D01*
X622Y3823D01*
X616Y3827D01*
X612Y3833D01*
X609Y3840D01*
X608Y3847D01*
X609Y3854D01*
X612Y3861D01*
X616Y3867D01*
X622Y3871D01*
X629Y3874D01*
X636Y3875D01*
X643Y3874D01*
D02*
G37*
G36*
X743Y3774D02*
X750Y3771D01*
X756Y3767D01*
X760Y3761D01*
X763Y3754D01*
X764Y3747D01*
X763Y3740D01*
X760Y3733D01*
X756Y3727D01*
X750Y3723D01*
X743Y3720D01*
X736Y3719D01*
X729Y3720D01*
X722Y3723D01*
X716Y3727D01*
X712Y3733D01*
X709Y3740D01*
X708Y3747D01*
X709Y3754D01*
X712Y3761D01*
X716Y3767D01*
X722Y3771D01*
X729Y3774D01*
X736Y3775D01*
X743Y3774D01*
D02*
G37*
G36*
X643D02*
X650Y3771D01*
X656Y3767D01*
X660Y3761D01*
X663Y3754D01*
X664Y3747D01*
X663Y3740D01*
X660Y3733D01*
X656Y3727D01*
X650Y3723D01*
X643Y3720D01*
X636Y3719D01*
X629Y3720D01*
X622Y3723D01*
X616Y3727D01*
X612Y3733D01*
X609Y3740D01*
X608Y3747D01*
X609Y3754D01*
X612Y3761D01*
X616Y3767D01*
X622Y3771D01*
X629Y3774D01*
X636Y3775D01*
X643Y3774D01*
D02*
G37*
G36*
X743Y3674D02*
X750Y3671D01*
X756Y3667D01*
X760Y3661D01*
X763Y3654D01*
X764Y3647D01*
X763Y3640D01*
X760Y3633D01*
X756Y3627D01*
X750Y3623D01*
X743Y3620D01*
X736Y3619D01*
X729Y3620D01*
X722Y3623D01*
X716Y3627D01*
X712Y3633D01*
X709Y3640D01*
X708Y3647D01*
X709Y3654D01*
X712Y3661D01*
X716Y3667D01*
X722Y3671D01*
X729Y3674D01*
X736Y3675D01*
X743Y3674D01*
D02*
G37*
G36*
X643D02*
X650Y3671D01*
X656Y3667D01*
X660Y3661D01*
X663Y3654D01*
X664Y3647D01*
X663Y3640D01*
X660Y3633D01*
X656Y3627D01*
X650Y3623D01*
X643Y3620D01*
X636Y3619D01*
X629Y3620D01*
X622Y3623D01*
X616Y3627D01*
X612Y3633D01*
X609Y3640D01*
X608Y3647D01*
X609Y3654D01*
X612Y3661D01*
X616Y3667D01*
X622Y3671D01*
X629Y3674D01*
X636Y3675D01*
X643Y3674D01*
D02*
G37*
G36*
X743Y3574D02*
X750Y3571D01*
X756Y3567D01*
X760Y3561D01*
X763Y3554D01*
X764Y3547D01*
X763Y3540D01*
X760Y3533D01*
X756Y3527D01*
X750Y3523D01*
X743Y3520D01*
X736Y3519D01*
X729Y3520D01*
X722Y3523D01*
X716Y3527D01*
X712Y3533D01*
X709Y3540D01*
X708Y3547D01*
X709Y3554D01*
X712Y3561D01*
X716Y3567D01*
X722Y3571D01*
X729Y3574D01*
X736Y3575D01*
X743Y3574D01*
D02*
G37*
G36*
X643D02*
X650Y3571D01*
X656Y3567D01*
X660Y3561D01*
X663Y3554D01*
X664Y3547D01*
X663Y3540D01*
X660Y3533D01*
X656Y3527D01*
X650Y3523D01*
X643Y3520D01*
X636Y3519D01*
X629Y3520D01*
X622Y3523D01*
X616Y3527D01*
X612Y3533D01*
X609Y3540D01*
X608Y3547D01*
X609Y3554D01*
X612Y3561D01*
X616Y3567D01*
X622Y3571D01*
X629Y3574D01*
X636Y3575D01*
X643Y3574D01*
D02*
G37*
G36*
X743Y3474D02*
X750Y3471D01*
X756Y3467D01*
X760Y3461D01*
X763Y3454D01*
X764Y3447D01*
X763Y3440D01*
X760Y3433D01*
X756Y3427D01*
X750Y3423D01*
X743Y3420D01*
X736Y3419D01*
X729Y3420D01*
X722Y3423D01*
X716Y3427D01*
X712Y3433D01*
X709Y3440D01*
X708Y3447D01*
X709Y3454D01*
X712Y3461D01*
X716Y3467D01*
X722Y3471D01*
X729Y3474D01*
X736Y3475D01*
X743Y3474D01*
D02*
G37*
G36*
X643D02*
X650Y3471D01*
X656Y3467D01*
X660Y3461D01*
X663Y3454D01*
X664Y3447D01*
X663Y3440D01*
X660Y3433D01*
X656Y3427D01*
X650Y3423D01*
X643Y3420D01*
X636Y3419D01*
X629Y3420D01*
X622Y3423D01*
X616Y3427D01*
X612Y3433D01*
X609Y3440D01*
X608Y3447D01*
X609Y3454D01*
X612Y3461D01*
X616Y3467D01*
X622Y3471D01*
X629Y3474D01*
X636Y3475D01*
X643Y3474D01*
D02*
G37*
G36*
X3472Y4874D02*
X3479Y4871D01*
X3485Y4867D01*
X3489Y4861D01*
X3492Y4854D01*
X3493Y4847D01*
X3492Y4840D01*
X3489Y4833D01*
X3485Y4827D01*
X3479Y4823D01*
X3472Y4820D01*
X3465Y4819D01*
X3458Y4820D01*
X3451Y4823D01*
X3445Y4827D01*
X3441Y4833D01*
X3438Y4840D01*
X3437Y4847D01*
X3438Y4854D01*
X3441Y4861D01*
X3445Y4867D01*
X3451Y4871D01*
X3458Y4874D01*
X3465Y4875D01*
X3472Y4874D01*
D02*
G37*
G36*
X3372D02*
X3379Y4871D01*
X3385Y4867D01*
X3389Y4861D01*
X3392Y4854D01*
X3393Y4847D01*
X3392Y4840D01*
X3389Y4833D01*
X3385Y4827D01*
X3379Y4823D01*
X3372Y4820D01*
X3365Y4819D01*
X3358Y4820D01*
X3351Y4823D01*
X3345Y4827D01*
X3341Y4833D01*
X3338Y4840D01*
X3337Y4847D01*
X3338Y4854D01*
X3341Y4861D01*
X3345Y4867D01*
X3351Y4871D01*
X3358Y4874D01*
X3365Y4875D01*
X3372Y4874D01*
D02*
G37*
G36*
X3472Y4774D02*
X3479Y4771D01*
X3485Y4767D01*
X3489Y4761D01*
X3492Y4754D01*
X3493Y4747D01*
X3492Y4740D01*
X3489Y4733D01*
X3485Y4727D01*
X3479Y4723D01*
X3472Y4720D01*
X3465Y4719D01*
X3458Y4720D01*
X3451Y4723D01*
X3445Y4727D01*
X3441Y4733D01*
X3438Y4740D01*
X3437Y4747D01*
X3438Y4754D01*
X3441Y4761D01*
X3445Y4767D01*
X3451Y4771D01*
X3458Y4774D01*
X3465Y4775D01*
X3472Y4774D01*
D02*
G37*
G36*
X3372D02*
X3379Y4771D01*
X3385Y4767D01*
X3389Y4761D01*
X3392Y4754D01*
X3393Y4747D01*
X3392Y4740D01*
X3389Y4733D01*
X3385Y4727D01*
X3379Y4723D01*
X3372Y4720D01*
X3365Y4719D01*
X3358Y4720D01*
X3351Y4723D01*
X3345Y4727D01*
X3341Y4733D01*
X3338Y4740D01*
X3337Y4747D01*
X3338Y4754D01*
X3341Y4761D01*
X3345Y4767D01*
X3351Y4771D01*
X3358Y4774D01*
X3365Y4775D01*
X3372Y4774D01*
D02*
G37*
G36*
X3472Y4674D02*
X3479Y4671D01*
X3485Y4667D01*
X3489Y4661D01*
X3492Y4654D01*
X3493Y4647D01*
X3492Y4640D01*
X3489Y4633D01*
X3485Y4627D01*
X3479Y4623D01*
X3472Y4620D01*
X3465Y4619D01*
X3458Y4620D01*
X3451Y4623D01*
X3445Y4627D01*
X3441Y4633D01*
X3438Y4640D01*
X3437Y4647D01*
X3438Y4654D01*
X3441Y4661D01*
X3445Y4667D01*
X3451Y4671D01*
X3458Y4674D01*
X3465Y4675D01*
X3472Y4674D01*
D02*
G37*
G36*
X3372D02*
X3379Y4671D01*
X3385Y4667D01*
X3389Y4661D01*
X3392Y4654D01*
X3393Y4647D01*
X3392Y4640D01*
X3389Y4633D01*
X3385Y4627D01*
X3379Y4623D01*
X3372Y4620D01*
X3365Y4619D01*
X3358Y4620D01*
X3351Y4623D01*
X3345Y4627D01*
X3341Y4633D01*
X3338Y4640D01*
X3337Y4647D01*
X3338Y4654D01*
X3341Y4661D01*
X3345Y4667D01*
X3351Y4671D01*
X3358Y4674D01*
X3365Y4675D01*
X3372Y4674D01*
D02*
G37*
G36*
X3472Y4574D02*
X3479Y4571D01*
X3485Y4567D01*
X3489Y4561D01*
X3492Y4554D01*
X3493Y4547D01*
X3492Y4540D01*
X3489Y4533D01*
X3485Y4527D01*
X3479Y4523D01*
X3472Y4520D01*
X3465Y4519D01*
X3458Y4520D01*
X3451Y4523D01*
X3445Y4527D01*
X3441Y4533D01*
X3438Y4540D01*
X3437Y4547D01*
X3438Y4554D01*
X3441Y4561D01*
X3445Y4567D01*
X3451Y4571D01*
X3458Y4574D01*
X3465Y4575D01*
X3472Y4574D01*
D02*
G37*
G36*
X3372D02*
X3379Y4571D01*
X3385Y4567D01*
X3389Y4561D01*
X3392Y4554D01*
X3393Y4547D01*
X3392Y4540D01*
X3389Y4533D01*
X3385Y4527D01*
X3379Y4523D01*
X3372Y4520D01*
X3365Y4519D01*
X3358Y4520D01*
X3351Y4523D01*
X3345Y4527D01*
X3341Y4533D01*
X3338Y4540D01*
X3337Y4547D01*
X3338Y4554D01*
X3341Y4561D01*
X3345Y4567D01*
X3351Y4571D01*
X3358Y4574D01*
X3365Y4575D01*
X3372Y4574D01*
D02*
G37*
G36*
X3472Y4474D02*
X3479Y4471D01*
X3485Y4467D01*
X3489Y4461D01*
X3492Y4454D01*
X3493Y4447D01*
X3492Y4440D01*
X3489Y4433D01*
X3485Y4427D01*
X3479Y4423D01*
X3472Y4420D01*
X3465Y4419D01*
X3458Y4420D01*
X3451Y4423D01*
X3445Y4427D01*
X3441Y4433D01*
X3438Y4440D01*
X3437Y4447D01*
X3438Y4454D01*
X3441Y4461D01*
X3445Y4467D01*
X3451Y4471D01*
X3458Y4474D01*
X3465Y4475D01*
X3472Y4474D01*
D02*
G37*
G36*
X3372D02*
X3379Y4471D01*
X3385Y4467D01*
X3389Y4461D01*
X3392Y4454D01*
X3393Y4447D01*
X3392Y4440D01*
X3389Y4433D01*
X3385Y4427D01*
X3379Y4423D01*
X3372Y4420D01*
X3365Y4419D01*
X3358Y4420D01*
X3351Y4423D01*
X3345Y4427D01*
X3341Y4433D01*
X3338Y4440D01*
X3337Y4447D01*
X3338Y4454D01*
X3341Y4461D01*
X3345Y4467D01*
X3351Y4471D01*
X3358Y4474D01*
X3365Y4475D01*
X3372Y4474D01*
D02*
G37*
G36*
X3472Y4374D02*
X3479Y4371D01*
X3485Y4367D01*
X3489Y4361D01*
X3492Y4354D01*
X3493Y4347D01*
X3492Y4340D01*
X3489Y4333D01*
X3485Y4327D01*
X3479Y4323D01*
X3472Y4320D01*
X3465Y4319D01*
X3458Y4320D01*
X3451Y4323D01*
X3445Y4327D01*
X3441Y4333D01*
X3438Y4340D01*
X3437Y4347D01*
X3438Y4354D01*
X3441Y4361D01*
X3445Y4367D01*
X3451Y4371D01*
X3458Y4374D01*
X3465Y4375D01*
X3472Y4374D01*
D02*
G37*
G36*
X3372D02*
X3379Y4371D01*
X3385Y4367D01*
X3389Y4361D01*
X3392Y4354D01*
X3393Y4347D01*
X3392Y4340D01*
X3389Y4333D01*
X3385Y4327D01*
X3379Y4323D01*
X3372Y4320D01*
X3365Y4319D01*
X3358Y4320D01*
X3351Y4323D01*
X3345Y4327D01*
X3341Y4333D01*
X3338Y4340D01*
X3337Y4347D01*
X3338Y4354D01*
X3341Y4361D01*
X3345Y4367D01*
X3351Y4371D01*
X3358Y4374D01*
X3365Y4375D01*
X3372Y4374D01*
D02*
G37*
G36*
X3472Y4274D02*
X3479Y4271D01*
X3485Y4267D01*
X3489Y4261D01*
X3492Y4254D01*
X3493Y4247D01*
X3492Y4240D01*
X3489Y4233D01*
X3485Y4227D01*
X3479Y4223D01*
X3472Y4220D01*
X3465Y4219D01*
X3458Y4220D01*
X3451Y4223D01*
X3445Y4227D01*
X3441Y4233D01*
X3438Y4240D01*
X3437Y4247D01*
X3438Y4254D01*
X3441Y4261D01*
X3445Y4267D01*
X3451Y4271D01*
X3458Y4274D01*
X3465Y4275D01*
X3472Y4274D01*
D02*
G37*
G36*
X3372D02*
X3379Y4271D01*
X3385Y4267D01*
X3389Y4261D01*
X3392Y4254D01*
X3393Y4247D01*
X3392Y4240D01*
X3389Y4233D01*
X3385Y4227D01*
X3379Y4223D01*
X3372Y4220D01*
X3365Y4219D01*
X3358Y4220D01*
X3351Y4223D01*
X3345Y4227D01*
X3341Y4233D01*
X3338Y4240D01*
X3337Y4247D01*
X3338Y4254D01*
X3341Y4261D01*
X3345Y4267D01*
X3351Y4271D01*
X3358Y4274D01*
X3365Y4275D01*
X3372Y4274D01*
D02*
G37*
G36*
X3472Y4174D02*
X3479Y4171D01*
X3485Y4167D01*
X3489Y4161D01*
X3492Y4154D01*
X3493Y4147D01*
X3492Y4140D01*
X3489Y4133D01*
X3485Y4127D01*
X3479Y4123D01*
X3472Y4120D01*
X3465Y4119D01*
X3458Y4120D01*
X3451Y4123D01*
X3445Y4127D01*
X3441Y4133D01*
X3438Y4140D01*
X3437Y4147D01*
X3438Y4154D01*
X3441Y4161D01*
X3445Y4167D01*
X3451Y4171D01*
X3458Y4174D01*
X3465Y4175D01*
X3472Y4174D01*
D02*
G37*
G36*
X3372D02*
X3379Y4171D01*
X3385Y4167D01*
X3389Y4161D01*
X3392Y4154D01*
X3393Y4147D01*
X3392Y4140D01*
X3389Y4133D01*
X3385Y4127D01*
X3379Y4123D01*
X3372Y4120D01*
X3365Y4119D01*
X3358Y4120D01*
X3351Y4123D01*
X3345Y4127D01*
X3341Y4133D01*
X3338Y4140D01*
X3337Y4147D01*
X3338Y4154D01*
X3341Y4161D01*
X3345Y4167D01*
X3351Y4171D01*
X3358Y4174D01*
X3365Y4175D01*
X3372Y4174D01*
D02*
G37*
G36*
X3472Y4074D02*
X3479Y4071D01*
X3485Y4067D01*
X3489Y4061D01*
X3492Y4054D01*
X3493Y4047D01*
X3492Y4040D01*
X3489Y4033D01*
X3485Y4027D01*
X3479Y4023D01*
X3472Y4020D01*
X3465Y4019D01*
X3458Y4020D01*
X3451Y4023D01*
X3445Y4027D01*
X3441Y4033D01*
X3438Y4040D01*
X3437Y4047D01*
X3438Y4054D01*
X3441Y4061D01*
X3445Y4067D01*
X3451Y4071D01*
X3458Y4074D01*
X3465Y4075D01*
X3472Y4074D01*
D02*
G37*
G36*
X3372D02*
X3379Y4071D01*
X3385Y4067D01*
X3389Y4061D01*
X3392Y4054D01*
X3393Y4047D01*
X3392Y4040D01*
X3389Y4033D01*
X3385Y4027D01*
X3379Y4023D01*
X3372Y4020D01*
X3365Y4019D01*
X3358Y4020D01*
X3351Y4023D01*
X3345Y4027D01*
X3341Y4033D01*
X3338Y4040D01*
X3337Y4047D01*
X3338Y4054D01*
X3341Y4061D01*
X3345Y4067D01*
X3351Y4071D01*
X3358Y4074D01*
X3365Y4075D01*
X3372Y4074D01*
D02*
G37*
G36*
X3472Y3974D02*
X3479Y3971D01*
X3485Y3967D01*
X3489Y3961D01*
X3492Y3954D01*
X3493Y3947D01*
X3492Y3940D01*
X3489Y3933D01*
X3485Y3927D01*
X3479Y3923D01*
X3472Y3920D01*
X3465Y3919D01*
X3458Y3920D01*
X3451Y3923D01*
X3445Y3927D01*
X3441Y3933D01*
X3438Y3940D01*
X3437Y3947D01*
X3438Y3954D01*
X3441Y3961D01*
X3445Y3967D01*
X3451Y3971D01*
X3458Y3974D01*
X3465Y3975D01*
X3472Y3974D01*
D02*
G37*
G36*
X3372D02*
X3379Y3971D01*
X3385Y3967D01*
X3389Y3961D01*
X3392Y3954D01*
X3393Y3947D01*
X3392Y3940D01*
X3389Y3933D01*
X3385Y3927D01*
X3379Y3923D01*
X3372Y3920D01*
X3365Y3919D01*
X3358Y3920D01*
X3351Y3923D01*
X3345Y3927D01*
X3341Y3933D01*
X3338Y3940D01*
X3337Y3947D01*
X3338Y3954D01*
X3341Y3961D01*
X3345Y3967D01*
X3351Y3971D01*
X3358Y3974D01*
X3365Y3975D01*
X3372Y3974D01*
D02*
G37*
G36*
X3472Y3874D02*
X3479Y3871D01*
X3485Y3867D01*
X3489Y3861D01*
X3492Y3854D01*
X3493Y3847D01*
X3492Y3840D01*
X3489Y3833D01*
X3485Y3827D01*
X3479Y3823D01*
X3472Y3820D01*
X3465Y3819D01*
X3458Y3820D01*
X3451Y3823D01*
X3445Y3827D01*
X3441Y3833D01*
X3438Y3840D01*
X3437Y3847D01*
X3438Y3854D01*
X3441Y3861D01*
X3445Y3867D01*
X3451Y3871D01*
X3458Y3874D01*
X3465Y3875D01*
X3472Y3874D01*
D02*
G37*
G36*
X3372D02*
X3379Y3871D01*
X3385Y3867D01*
X3389Y3861D01*
X3392Y3854D01*
X3393Y3847D01*
X3392Y3840D01*
X3389Y3833D01*
X3385Y3827D01*
X3379Y3823D01*
X3372Y3820D01*
X3365Y3819D01*
X3358Y3820D01*
X3351Y3823D01*
X3345Y3827D01*
X3341Y3833D01*
X3338Y3840D01*
X3337Y3847D01*
X3338Y3854D01*
X3341Y3861D01*
X3345Y3867D01*
X3351Y3871D01*
X3358Y3874D01*
X3365Y3875D01*
X3372Y3874D01*
D02*
G37*
G36*
X3472Y3774D02*
X3479Y3771D01*
X3485Y3767D01*
X3489Y3761D01*
X3492Y3754D01*
X3493Y3747D01*
X3492Y3740D01*
X3489Y3733D01*
X3485Y3727D01*
X3479Y3723D01*
X3472Y3720D01*
X3465Y3719D01*
X3458Y3720D01*
X3451Y3723D01*
X3445Y3727D01*
X3441Y3733D01*
X3438Y3740D01*
X3437Y3747D01*
X3438Y3754D01*
X3441Y3761D01*
X3445Y3767D01*
X3451Y3771D01*
X3458Y3774D01*
X3465Y3775D01*
X3472Y3774D01*
D02*
G37*
G36*
X3372D02*
X3379Y3771D01*
X3385Y3767D01*
X3389Y3761D01*
X3392Y3754D01*
X3393Y3747D01*
X3392Y3740D01*
X3389Y3733D01*
X3385Y3727D01*
X3379Y3723D01*
X3372Y3720D01*
X3365Y3719D01*
X3358Y3720D01*
X3351Y3723D01*
X3345Y3727D01*
X3341Y3733D01*
X3338Y3740D01*
X3337Y3747D01*
X3338Y3754D01*
X3341Y3761D01*
X3345Y3767D01*
X3351Y3771D01*
X3358Y3774D01*
X3365Y3775D01*
X3372Y3774D01*
D02*
G37*
G36*
X3472Y3674D02*
X3479Y3671D01*
X3485Y3667D01*
X3489Y3661D01*
X3492Y3654D01*
X3493Y3647D01*
X3492Y3640D01*
X3489Y3633D01*
X3485Y3627D01*
X3479Y3623D01*
X3472Y3620D01*
X3465Y3619D01*
X3458Y3620D01*
X3451Y3623D01*
X3445Y3627D01*
X3441Y3633D01*
X3438Y3640D01*
X3437Y3647D01*
X3438Y3654D01*
X3441Y3661D01*
X3445Y3667D01*
X3451Y3671D01*
X3458Y3674D01*
X3465Y3675D01*
X3472Y3674D01*
D02*
G37*
G36*
X3372D02*
X3379Y3671D01*
X3385Y3667D01*
X3389Y3661D01*
X3392Y3654D01*
X3393Y3647D01*
X3392Y3640D01*
X3389Y3633D01*
X3385Y3627D01*
X3379Y3623D01*
X3372Y3620D01*
X3365Y3619D01*
X3358Y3620D01*
X3351Y3623D01*
X3345Y3627D01*
X3341Y3633D01*
X3338Y3640D01*
X3337Y3647D01*
X3338Y3654D01*
X3341Y3661D01*
X3345Y3667D01*
X3351Y3671D01*
X3358Y3674D01*
X3365Y3675D01*
X3372Y3674D01*
D02*
G37*
G36*
X3472Y3574D02*
X3479Y3571D01*
X3485Y3567D01*
X3489Y3561D01*
X3492Y3554D01*
X3493Y3547D01*
X3492Y3540D01*
X3489Y3533D01*
X3485Y3527D01*
X3479Y3523D01*
X3472Y3520D01*
X3465Y3519D01*
X3458Y3520D01*
X3451Y3523D01*
X3445Y3527D01*
X3441Y3533D01*
X3438Y3540D01*
X3437Y3547D01*
X3438Y3554D01*
X3441Y3561D01*
X3445Y3567D01*
X3451Y3571D01*
X3458Y3574D01*
X3465Y3575D01*
X3472Y3574D01*
D02*
G37*
G36*
X3372D02*
X3379Y3571D01*
X3385Y3567D01*
X3389Y3561D01*
X3392Y3554D01*
X3393Y3547D01*
X3392Y3540D01*
X3389Y3533D01*
X3385Y3527D01*
X3379Y3523D01*
X3372Y3520D01*
X3365Y3519D01*
X3358Y3520D01*
X3351Y3523D01*
X3345Y3527D01*
X3341Y3533D01*
X3338Y3540D01*
X3337Y3547D01*
X3338Y3554D01*
X3341Y3561D01*
X3345Y3567D01*
X3351Y3571D01*
X3358Y3574D01*
X3365Y3575D01*
X3372Y3574D01*
D02*
G37*
G36*
X3472Y3474D02*
X3479Y3471D01*
X3485Y3467D01*
X3489Y3461D01*
X3492Y3454D01*
X3493Y3447D01*
X3492Y3440D01*
X3489Y3433D01*
X3485Y3427D01*
X3479Y3423D01*
X3472Y3420D01*
X3465Y3419D01*
X3458Y3420D01*
X3451Y3423D01*
X3445Y3427D01*
X3441Y3433D01*
X3438Y3440D01*
X3437Y3447D01*
X3438Y3454D01*
X3441Y3461D01*
X3445Y3467D01*
X3451Y3471D01*
X3458Y3474D01*
X3465Y3475D01*
X3472Y3474D01*
D02*
G37*
G36*
X3372D02*
X3379Y3471D01*
X3385Y3467D01*
X3389Y3461D01*
X3392Y3454D01*
X3393Y3447D01*
X3392Y3440D01*
X3389Y3433D01*
X3385Y3427D01*
X3379Y3423D01*
X3372Y3420D01*
X3365Y3419D01*
X3358Y3420D01*
X3351Y3423D01*
X3345Y3427D01*
X3341Y3433D01*
X3338Y3440D01*
X3337Y3447D01*
X3338Y3454D01*
X3341Y3461D01*
X3345Y3467D01*
X3351Y3471D01*
X3358Y3474D01*
X3365Y3475D01*
X3372Y3474D01*
D02*
G37*
D40*
X2518Y4180D02*
D03*
X2456D02*
D03*
D41*
X2877Y4406D02*
D03*
X2798Y4443D02*
D03*
Y4369D02*
D03*
X2878Y4247D02*
D03*
X2799Y4284D02*
D03*
Y4210D02*
D03*
X2798Y3303D02*
D03*
Y3377D02*
D03*
X2876Y3340D02*
D03*
X2877Y3500D02*
D03*
X2798Y3537D02*
D03*
Y3463D02*
D03*
X2878Y3644D02*
D03*
X2799Y3682D02*
D03*
Y3607D02*
D03*
D42*
X2166Y4676D02*
D03*
Y4621D02*
D03*
X2964Y4219D02*
D03*
Y4275D02*
D03*
X3114Y4219D02*
D03*
Y4275D02*
D03*
X3114Y3672D02*
D03*
Y3617D02*
D03*
X3113Y4434D02*
D03*
Y4378D02*
D03*
X3113Y3472D02*
D03*
Y3528D02*
D03*
X3112Y3312D02*
D03*
Y3368D02*
D03*
X3039Y4275D02*
D03*
Y4219D02*
D03*
X3039Y3672D02*
D03*
Y3617D02*
D03*
X3038Y4434D02*
D03*
Y4378D02*
D03*
X3038Y3472D02*
D03*
Y3528D02*
D03*
X3037Y3312D02*
D03*
Y3368D02*
D03*
X2874Y4129D02*
D03*
Y4074D02*
D03*
X2874Y3765D02*
D03*
Y3820D02*
D03*
X2874Y3973D02*
D03*
Y3918D02*
D03*
X2799Y4129D02*
D03*
Y4074D02*
D03*
X2799Y3765D02*
D03*
Y3820D02*
D03*
X2799Y3973D02*
D03*
Y3918D02*
D03*
X2515Y4617D02*
D03*
Y4673D02*
D03*
X2440Y4617D02*
D03*
Y4673D02*
D03*
X2365Y4617D02*
D03*
Y4673D02*
D03*
X2301Y4621D02*
D03*
Y4676D02*
D03*
X2230Y4617D02*
D03*
Y4673D02*
D03*
X2166Y3670D02*
D03*
Y3614D02*
D03*
X2964Y3672D02*
D03*
Y3617D02*
D03*
X2963Y4434D02*
D03*
Y4378D02*
D03*
X2963Y3472D02*
D03*
Y3528D02*
D03*
X2962Y3312D02*
D03*
Y3368D02*
D03*
X2432Y3723D02*
D03*
Y3667D02*
D03*
X1980Y3730D02*
D03*
Y3674D02*
D03*
X1958Y4244D02*
D03*
Y4300D02*
D03*
X1184Y3745D02*
D03*
Y3690D02*
D03*
D43*
X2547Y3165D02*
D03*
X2603D02*
D03*
X2603Y3315D02*
D03*
X2547D02*
D03*
X2221Y3315D02*
D03*
X2277D02*
D03*
X2277Y3165D02*
D03*
X2221D02*
D03*
X2061Y3316D02*
D03*
X2116D02*
D03*
X2116Y3166D02*
D03*
X2061D02*
D03*
X2063Y4350D02*
D03*
X2007D02*
D03*
X1965Y3316D02*
D03*
X1910D02*
D03*
X1910Y3166D02*
D03*
X1965D02*
D03*
X1056Y3978D02*
D03*
X1111D02*
D03*
X1056Y4053D02*
D03*
X1111D02*
D03*
X983Y3502D02*
D03*
X1039D02*
D03*
X983Y3652D02*
D03*
X1039D02*
D03*
X983Y3727D02*
D03*
X1039D02*
D03*
X2603Y3240D02*
D03*
X2547D02*
D03*
X2460Y4240D02*
D03*
X2516D02*
D03*
X2221Y3240D02*
D03*
X2277D02*
D03*
X2061Y3241D02*
D03*
X2116D02*
D03*
X1965Y3241D02*
D03*
X1910D02*
D03*
X1861Y3874D02*
D03*
X1917D02*
D03*
X1873Y3975D02*
D03*
X1817D02*
D03*
X1112Y3820D02*
D03*
X1057D02*
D03*
X1112Y3895D02*
D03*
X1057D02*
D03*
X1056Y4128D02*
D03*
X1111D02*
D03*
X983Y3577D02*
D03*
X1039D02*
D03*
D44*
X1900Y3481D02*
D03*
X1975D02*
D03*
X1938Y3402D02*
D03*
X2088Y3402D02*
D03*
X2126Y3480D02*
D03*
X2051D02*
D03*
X2249Y3401D02*
D03*
X2286Y3479D02*
D03*
X2212D02*
D03*
X2575Y3400D02*
D03*
X2612Y3479D02*
D03*
X2538D02*
D03*
X1048Y3338D02*
D03*
X974D02*
D03*
X1011Y3416D02*
D03*
X1083Y4214D02*
D03*
X1121Y4292D02*
D03*
X1046D02*
D03*
D50*
X953Y4816D02*
D03*
X675Y3235D02*
D03*
X3403Y3237D02*
D03*
D51*
X2931Y3174D02*
D03*
X1104Y3277D02*
D03*
D52*
X1274Y4462D02*
D03*
X3236Y4040D02*
D03*
X2728Y4286D02*
D03*
X2515Y4720D02*
D03*
X1937Y4888D02*
D03*
X2177Y4755D02*
D03*
X1525Y4336D02*
D03*
X1274Y4300D02*
D03*
X2520Y4425D02*
D03*
X2489Y4458D02*
D03*
X1788Y4052D02*
D03*
X3023Y4189D02*
D03*
X2961Y4183D02*
D03*
X1959Y3923D02*
D03*
X1933Y3975D02*
D03*
X2806Y3866D02*
D03*
X2474Y3706D02*
D03*
X1948Y3773D02*
D03*
X1956Y3818D02*
D03*
X1956Y3883D02*
D03*
X1028Y3278D02*
D03*
X1141Y3616D02*
D03*
X923Y4555D02*
D03*
Y4467D02*
D03*
X780Y4724D02*
D03*
X2693Y3402D02*
D03*
X1807Y4251D02*
D03*
X1831Y4123D02*
D03*
X1812Y3482D02*
D03*
X1501Y3610D02*
D03*
X1321Y3632D02*
D03*
X1767Y3938D02*
D03*
X1558Y3810D02*
D03*
X1498Y3936D02*
D03*
X1323Y3865D02*
D03*
X1306Y3779D02*
D03*
X2810Y4405D02*
D03*
X2905Y4034D02*
D03*
X2874Y4209D02*
D03*
X2617Y4134D02*
D03*
X2732Y3940D02*
D03*
X780Y3898D02*
D03*
X2230Y4720D02*
D03*
X2252Y4392D02*
D03*
X2307Y4579D02*
D03*
X1885Y3663D02*
D03*
X1864Y3212D02*
D03*
X2168Y3175D02*
D03*
X2012Y3197D02*
D03*
X1654Y3816D02*
D03*
X1611Y4095D02*
D03*
X1306Y3920D02*
D03*
X1714Y4336D02*
D03*
X1635D02*
D03*
X1456D02*
D03*
X1389Y4316D02*
D03*
Y4223D02*
D03*
Y4133D02*
D03*
X1498Y4091D02*
D03*
X1429Y4066D02*
D03*
X1477Y4018D02*
D03*
X1498Y3862D02*
D03*
X2750Y3369D02*
D03*
X2742Y3314D02*
D03*
X2842Y3437D02*
D03*
X2511Y3425D02*
D03*
X1022Y4192D02*
D03*
X1292Y4048D02*
D03*
X1290Y4202D02*
D03*
X897Y3792D02*
D03*
X2905Y3393D02*
D03*
X1117Y3780D02*
D03*
X2742Y3237D02*
D03*
X2660Y3724D02*
D03*
X2574Y3630D02*
D03*
X2641D02*
D03*
X2912Y4362D02*
D03*
X2877Y4302D02*
D03*
X2573Y4345D02*
D03*
X3170Y3737D02*
D03*
X2726Y3861D02*
D03*
X2665Y3944D02*
D03*
X2654Y3774D02*
D03*
X2636Y3978D02*
D03*
X2601Y4006D02*
D03*
X2616Y3771D02*
D03*
X2582Y3751D02*
D03*
X2562Y3673D02*
D03*
X2679Y3281D02*
D03*
X934Y3346D02*
D03*
X945Y3268D02*
D03*
X2070Y3543D02*
D03*
X1903Y4297D02*
D03*
X2412Y4193D02*
D03*
X2562Y4261D02*
D03*
X1236Y3125D02*
D03*
X1244Y3252D02*
D03*
X2006Y3768D02*
D03*
X1097Y3496D02*
D03*
X1015Y4055D02*
D03*
X2373Y4564D02*
D03*
X3103Y3905D02*
D03*
X2158Y3419D02*
D03*
X1207Y3504D02*
D03*
X1938Y4629D02*
D03*
X1134Y3676D02*
D03*
X1847Y3317D02*
D03*
X2013Y3317D02*
D03*
X1953Y4364D02*
D03*
X2561Y4213D02*
D03*
X2916Y3866D02*
D03*
X3026Y3733D02*
D03*
X2745Y3608D02*
D03*
X3074Y3436D02*
D03*
X2629Y3429D02*
D03*
X2182Y3560D02*
D03*
X2129Y3525D02*
D03*
X2246Y3444D02*
D03*
X2181Y3281D02*
D03*
X1096Y3355D02*
D03*
X1162Y3920D02*
D03*
X1091Y4352D02*
D03*
X2699Y3831D02*
D03*
X823Y4198D02*
D03*
X1939Y3597D02*
D03*
X2166Y3769D02*
D03*
X2603Y4172D02*
D03*
X1970Y4460D02*
D03*
X2034Y4425D02*
D03*
X1995Y4430D02*
D03*
X2440Y4720D02*
D03*
X2365D02*
D03*
X2301Y4724D02*
D03*
X1336Y3487D02*
D03*
X2067Y4220D02*
D03*
D60*
X1201Y3375D02*
D03*
X1258D02*
D03*
X1250Y3556D02*
D03*
X1193D02*
D03*
X944Y4118D02*
D03*
X887D02*
D03*
D64*
X2710Y3499D02*
D03*
Y3443D02*
D03*
D65*
X2953Y3911D02*
D03*
Y3985D02*
D03*
X3042Y3948D02*
D03*
X2955Y3755D02*
D03*
Y3830D02*
D03*
X3044Y3793D02*
D03*
X2955Y4064D02*
D03*
Y4139D02*
D03*
X3044Y4102D02*
D03*
D66*
X1274Y3698D02*
D03*
Y3737D02*
D03*
D67*
X858Y3821D02*
D03*
Y3858D02*
D03*
Y3895D02*
D03*
X961D02*
D03*
Y3858D02*
D03*
Y3821D02*
D03*
M02*
