M48
;Layer_Color=9474304
;FILE_FORMAT=2:3
INCH,LZ
;TYPE=PLATED
T1F00S00C0.017
T2F00S00C0.035
T3F00S00C0.060
T4F00S00C0.137
%
T01
X00945Y03268
X00934Y03346
X01028Y03278
X01096Y03355
X01097Y03496
X01207Y03504
X01336Y03487
X01321Y03632
X01306Y03779
X01323Y03865
X01306Y0392
X01292Y04048
X01429Y04066
X01498Y04091
X01477Y04018
X01498Y03936
Y03862
X01558Y0381
X01501Y0361
X01141Y03616
X01134Y03676
X01117Y0378
X01162Y0392
X01015Y04055
X01022Y04192
X00823Y04198
X0078Y03898
X00897Y03792
X00923Y04467
Y04555
X01091Y04352
X01274Y043
X0129Y04202
X01389Y04223
Y04133
Y04316
X01456Y04336
X01525
X01274Y04462
X01244Y03252
X01236Y03125
X01864Y03212
X01847Y03317
X02013Y03317
X02012Y03197
X02168Y03175
X02181Y03281
X02158Y03419
X02246Y03444
X02182Y0356
X02129Y03525
X0207Y03543
X01939Y03597
X01885Y03663
X01948Y03773
X01956Y03818
X01956Y03883
X01959Y03923
X01933Y03975
X01767Y03938
X01788Y04052
X01831Y04123
X01807Y04251
X01903Y04297
X01953Y04364
X01995Y0443
X02034Y04425
X0197Y0446
X01938Y04629
X02307Y04579
X02373Y04564
X02489Y04458
X0252Y04425
X02573Y04345
X02562Y04261
X02561Y04213
X02603Y04172
X02617Y04134
X02601Y04006
X02636Y03978
X02665Y03944
X02732Y0394
X02726Y03861
X02699Y03831
X02654Y03774
X02616Y03771
X02582Y03751
X02562Y03673
X02574Y0363
X02641
X0266Y03724
X02745Y03608
X0275Y03369
X02742Y03314
Y03237
X02679Y03281
X02693Y03402
X02629Y03429
X02511Y03425
X02474Y03706
X02166Y03769
X02006Y03768
X01654Y03816
X01611Y04095
X01635Y04336
X01714
X02067Y0422
X02252Y04392
X02412Y04193
X02728Y04286
X02877Y04302
X02912Y04362
X0281Y04405
X02874Y04209
X02961Y04183
X03023Y04189
X02905Y04034
X02916Y03866
X02806Y03866
X03103Y03905
X03026Y03733
X03074Y03436
X02905Y03393
X02842Y03437
X01812Y03482
X0317Y03737
X03236Y0404
X02515Y0472
X0244Y0472
X02365
X02301Y04724
X0223Y0472
X02177Y04755
X01937Y04888
X0078Y04724
T02
X00636Y03447
Y03547
Y03647
Y03747
Y03847
Y03947
Y04047
Y04147
Y04247
Y04347
Y04447
Y04547
Y04647
X00736
Y04547
Y04447
Y04347
Y04247
Y04147
Y04047
Y03947
Y03847
Y03747
Y03647
Y03547
Y03447
X03365
X03465
Y03547
Y03647
Y03747
Y03847
Y03947
Y04047
Y04147
Y04247
Y04347
Y04447
Y04547
Y04647
X03365
Y04547
Y04447
Y04347
Y04247
Y04147
Y04047
Y03947
Y03847
Y03747
Y03647
Y03547
Y04747
X03465
Y04847
X03365
X00736
X00636
Y04747
X00736
T03
X01104Y03277
X02931Y03174
T04
X00675Y03235
X03403Y03237
X00953Y04816
M30
